<?xml version="1.0" encoding="UTF-8" standalone="no"?><svg width="93.599998" height="89" version="1.1" id="svg3885" sodipodi:docname="2_bhi.svg" inkscape:version="1.2.1 (9c6d41e410, 2022-07-14)" xmlns:inkscape="http://www.inkscape.org/namespaces/inkscape" xmlns:sodipodi="http://sodipodi.sourceforge.net/DTD/sodipodi-0.dtd" xmlns="http://www.w3.org/2000/svg" xmlns:svg="http://www.w3.org/2000/svg"><defs id="defs3889"></defs><sodipodi:namedview id="namedview3887" pagecolor="#ffffff" bordercolor="#666666" borderopacity="1.0" inkscape:showpageshadow="2" inkscape:pageopacity="0.0" inkscape:pagecheckerboard="0" inkscape:deskcolor="#d1d1d1" showgrid="false" inkscape:zoom="1.809816" inkscape:cx="42.26949" inkscape:cy="64.647455" inkscape:window-width="1920" inkscape:window-height="1027" inkscape:window-x="-8" inkscape:window-y="-8" inkscape:window-maximized="1" inkscape:current-layer="svg3885"></sodipodi:namedview><g id="g0" inkscape:label="g0" transform="matrix(0.99977858,0,0,1,20.4,28.700145)"><path d="m 22.204917,51 -3.70082,3.6 Q 10.002215,47.5 5.0011073,39.45 0,31.4 0,21.3 v 0 Q 0,15 2.4005315,10.2 4.8010631,5.4 9.1520264,2.7 13.50299,0 19.304274,0 v 0 q 4.500997,0 7.601684,1.4 3.100686,1.4 5.301173,3.8 v 0 q 2.600576,2.7 3.850853,6.8 1.250277,4.1 1.250277,10.1 v 0 3.3 H 58.212889 V 0.1 l 5.301174,0.7 v 45.4 q 0,3.3 0.550122,4.9 0.550122,1.6 1.85041,2.6 v 0 q 1.200266,1.1 3.000664,1.35 1.800399,0.25 4.300953,0.25 v 0 l -0.600133,5 h -0.9002 q -6.701484,0 -9.902192,-3 v 0 q -1.800399,-1.6 -2.700598,-4.1 -0.9002,-2.5 -0.9002,-6.7 v 0 -16.2 H 37.308261 v 3.1 q 0,2.8 -1.100244,4 -1.100243,1.2 -2.80062,1.2 v 0 Q 31.306932,38.6 29.256478,37 27.206024,35.4 25.805714,33.15 24.405404,30.9 24.405404,29 v 0 q 0,-1.5 1.100243,-2.55 1.100244,-1.05 3.600798,-1.05 v 0 h 2.900642 v -3.1 q 0,-8.8 -3.000664,-13 v 0 Q 27.406068,7.3 25.205581,6.15 23.005094,5 19.304274,5 V 5 Q 12.602791,5 9.0019932,9.6 5.4011959,14.2 5.4011959,21.4 v 0 q 0,8.9 4.5009966,16.1 4.5009965,7.2 12.3027245,13.5 z" id="g0p0" inkscape:label="g0p0" style="stroke-width:1.00011"></path><path id="g0s0" style="fill:none;stroke:#000000;stroke-width:1px;stroke-linecap:butt;stroke-linejoin:miter;stroke-opacity:1" d="M 20.402344,52.742187 C 13.509054,46.718651 6.5650107,39.808143 4.0075992,30.738057 2.1013147,23.759339 1.857158,15.612353 5.9527987,9.340009 9.0376745,4.3522308 15.120771,2.0111308 20.814151,2.5368119 c 5.005714,0.1349283 9.692173,3.2315025 11.786942,7.7776711 3.054857,7.020665 1.771551,14.874089 1.925499,22.295973 0.263064,2.794444 -1.917122,4.175183 -3.683002,1.948265 -1.481368,-1.457049 -4.471639,-4.264548 -2.992851,-6.178717 2.844331,-0.148035 5.721157,-0.242191 8.574682,-0.472767 6.706522,-0.13687 13.42065,-0.02173 20.130716,-0.05958 1.68177,0.133681 3.809306,-0.03008 4.296388,-2.00309 C 60.879035,17.229739 60.893125,8.6148695 60.890625,0" sodipodi:nodetypes="ccccccsssscc" inkscape:label="g0s0"></path><path style="fill:none;stroke:#000000;stroke-width:1px;stroke-linecap:butt;stroke-linejoin:miter;stroke-opacity:1" d="m 60.853258,25.810902 c -0.006,7.285683 0.09466,15.961937 0.113133,23.247362 0.05302,2.85202 0.552194,4.635708 2.934274,6.492517 2.1593,1.844632 5.106018,2.097685 7.825241,2.152834 0.487941,0.02588 0.975881,0.05175 1.463821,0.07763" id="g0s1" sodipodi:nodetypes="ccccc" inkscape:label="g0s1"></path></g><g id="g1" inkscape:label="g1"><path style="display:inline" d="M 14.3,89 H 13.4 Q 10.3,89 7.8,88.35 5.3,87.7 3.5,86 v 0 Q 1.6,84.3 0.8,81.8 0,79.3 0,75.2 v 0 -53.4 Q 0,15.2 1.35,11.1 2.7,7 6.1,4.1 v 0 Q 8.3,2.2 11.45,1.1 14.6,0 18.7,0 V 0 Q 27.8,0 35.05,5.25 42.3,10.5 49.6,19 v 0 l -3.9,3.1 Q 39.3,14.5 32.95,9.7 26.6,4.9 19,4.9 v 0 q -5.9,0 -9.3,2.9 v 0 q -2.4,2.1 -3.4,5.6 -1,3.5 -1,10.1 v 0 51.4 q 0,3.2 0.5,4.85 0.5,1.65 1.7,2.55 v 0 q 1.2,1.2 3.15,1.45 Q 12.6,84 14.9,84 v 0 z" id="g1p0" inkscape:label="g1p0"></path><path style="display:inline;fill:none;stroke:#000000;stroke-width:1px;stroke-linecap:butt;stroke-linejoin:miter;stroke-opacity:1" d="M 47.652368,20.738116 C 42.912163,15.169343 37.771996,9.7590782 31.535156,5.8554687 25.556372,2.3479405 17.925665,1.3282836 11.384063,3.8090168 7.098823,5.5445734 4.0571601,9.6376118 3.3691387,14.177325 2.2636698,19.814013 2.8760079,25.587166 2.7106596,31.290784 c 0.017146,15.362435 -0.08206,30.727062 0.00809,46.088122 0.1319749,2.783277 1.0109143,5.743286 3.4696807,7.348394 2.457118,1.869621 5.6943627,1.540296 8.5928207,1.741457" id="g1s0" inkscape:label="g1s0"></path></g></svg>