<?xml version="1.0" encoding="UTF-8" standalone="no"?>
<svg
   width="41.299999"
   height="61.299999"
   version="1.1"
   id="svg4"
   sodipodi:docname="0_th.svg"
   inkscape:version="1.2.1 (9c6d41e410, 2022-07-14)"
   xmlns:inkscape="http://www.inkscape.org/namespaces/inkscape"
   xmlns:sodipodi="http://sodipodi.sourceforge.net/DTD/sodipodi-0.dtd"
   xmlns="http://www.w3.org/2000/svg"
   xmlns:svg="http://www.w3.org/2000/svg">
  <defs
     id="defs8" />
  <sodipodi:namedview
     id="namedview6"
     pagecolor="#ffffff"
     bordercolor="#666666"
     borderopacity="1.0"
     inkscape:showpageshadow="2"
     inkscape:pageopacity="0.0"
     inkscape:pagecheckerboard="0"
     inkscape:deskcolor="#d1d1d1"
     showgrid="false"
     inkscape:zoom="8"
     inkscape:cx="7.9375"
     inkscape:cy="34"
     inkscape:window-width="1920"
     inkscape:window-height="1027"
     inkscape:window-x="-8"
     inkscape:window-y="-8"
     inkscape:window-maximized="1"
     inkscape:current-layer="svg4" />
  <path
     d="m 20.6,61.3 v 0 Q 10.6,61.3 5.3,56.25 0,51.2 0,43.4 v 0 Q 0,36.1 5.15,31.05 10.3,26 19.2,24.8 v 0 Q 15.3,22.3 12.65,19.15 10,16 10,11.6 v 0 Q 10,6.6 13.9,3.3 17.8,0 24.9,0 v 0 q 2.3,0 4.8,0.3 2.5,0.3 5.2,0.9 v 0 L 33.9,6 Q 31.7,5.5 29.45,5.25 27.2,5 25,5 v 0 q -4.8,0 -7.2,1.8 -2.4,1.8 -2.4,4.9 v 0 q 0,3.1 2.3,5.55 2.3,2.45 8.4,6.15 v 0 q 7.7,4.8 11.45,9.45 3.75,4.65 3.75,11.45 v 0 Q 41.3,52 35.85,56.65 30.4,61.3 20.6,61.3 Z M 5.5,43.5 v 0 q 0,5.7 3.8,9.25 3.8,3.55 11.2,3.55 v 0 q 6.9,0 11.15,-3 4.25,-3 4.15,-9.2 v 0 Q 35.9,39.2 33.3,35.75 30.7,32.3 25.2,28.7 v 0 q -0.7,0 -1.3,0 v 0 q -5.3,0 -9.45,1.8 -4.15,1.8 -6.55,5.1 -2.4,3.3 -2.4,7.9 z"
     id="path2"
     style="display:inline"
     inkscape:label="p1" />
  <path
     style="display:inline;fill:none;stroke:#000000;stroke-width:1px;stroke-linecap:butt;stroke-linejoin:miter;stroke-opacity:1"
     d="M 34.412207,3.5475369 C 31.56634,3.1421154 28.745484,2.4610553 25.852441,2.4991855 22.282601,2.3826181 18.3606,2.8710019 15.562462,5.2913135 12.85399,7.4790582 12.18067,11.354983 13.122645,14.57925 c 1.021327,3.450361 4.062013,5.73437 6.841913,7.76597 4.910039,3.289051 10.247676,6.134054 14.265715,10.562661 3.202603,3.238553 4.719447,7.917957 4.292779,12.427673 -0.181885,3.698087 -1.750918,7.494083 -4.827338,9.701996 -4.252979,3.217975 -9.825646,3.991197 -15.020716,3.669218 C 14.878756,58.554578 11.020102,57.504922 7.9888173,55.149454 5.1868003,52.828308 3.3396668,49.417339 2.9585702,45.798392 2.2883585,41.574539 3.2803607,36.974805 6.1471578,33.71831 8.2222301,31.188499 11.036066,29.35577 14.098645,28.239102 16.967059,27.185223 20.033035,26.79077 23.03125,26.28125"
     id="path329"
     inkscape:label="s1"
     sodipodi:nodetypes="cccccccccccccc" />
</svg>
