<svg xmlns="http://www.w3.org/2000/svg" xmlns:xlink="http://www.w3.org/1999/xlink" width="72.10000000000001" height="130.4"><path d="M25.40 90.60L25.40 90.60Q15.40 90.60 10.10 85.55Q4.80 80.50 4.80 72.70L4.80 72.70Q4.80 65.40 9.95 60.35Q15.10 55.30 24 54.10L24 54.10Q20.10 51.60 17.45 48.45Q14.80 45.30 14.80 40.90L14.80 40.90Q14.80 35.90 18.70 32.60Q22.60 29.30 29.70 29.30L29.70 29.30Q32 29.30 34.50 29.60Q37 29.90 39.70 30.50L39.70 30.50L38.70 35.30Q36.50 34.80 34.25 34.55Q32 34.30 29.80 34.30L29.80 34.30Q25 34.30 22.60 36.10Q20.20 37.90 20.20 41.00L20.20 41.00Q20.20 44.10 22.50 46.55Q24.80 49.00 30.90 52.70L30.90 52.70Q38.60 57.50 42.35 62.15Q46.10 66.80 46.10 73.60L46.10 73.60Q46.10 81.30 40.65 85.95Q35.20 90.60 25.40 90.60ZM10.30 72.80L10.30 72.80Q10.30 78.50 14.10 82.05Q17.90 85.60 25.30 85.60L25.30 85.60Q32.20 85.60 36.45 82.60Q40.70 79.60 40.60 73.40L40.60 73.40Q40.70 68.50 38.10 65.05Q35.50 61.60 30 58.00L30 58.00Q29.30 58.00 28.70 58.00L28.70 58.00Q23.40 58.00 19.25 59.80Q15.10 61.60 12.70 64.90Q10.30 68.20 10.30 72.80ZM60.90 51.30L60.90 51.30Q59.10 51.30 57.70 49.95Q56.30 48.60 56.30 46.20L56.30 46.20Q56.30 43.80 57.65 42.45Q59 41.10 60.90 41.10L60.90 41.10Q62.90 41.10 64.20 42.45Q65.50 43.80 65.50 46.20L65.50 46.20Q65.50 48.70 64.15 50.00Q62.80 51.30 60.90 51.30ZM60.90 84.60L60.90 84.60Q59.10 84.60 57.70 83.25Q56.30 81.90 56.30 79.50L56.30 79.50Q56.30 77.10 57.65 75.75Q59 74.40 60.90 74.40L60.90 74.40Q62.90 74.40 64.20 75.75Q65.50 77.10 65.50 79.50L65.50 79.50Q65.50 82.00 64.15 83.30Q62.80 84.60 60.90 84.60Z"/></svg>