<svg xmlns="http://www.w3.org/2000/svg" xmlns:xlink="http://www.w3.org/1999/xlink" width="74.80000000000001" height="130.4"><path d="M24 89.60L23.10 89.60Q20 89.60 17.50 88.95Q15 88.30 13.20 86.60L13.20 86.60Q11.30 84.90 10.50 82.40Q9.70 79.90 9.70 75.80L9.70 75.80L9.70 22.40Q9.70 15.80 11.05 11.70Q12.40 7.60 15.80 4.70L15.80 4.70Q18 2.80 21.15 1.70Q24.30 0.60 28.40 0.60L28.40 0.60Q37.50 0.60 44.75 5.85Q52 11.10 59.30 19.60L59.30 19.60L55.40 22.70Q49 15.10 42.65 10.30Q36.30 5.50 28.70 5.50L28.70 5.50Q22.80 5.50 19.40 8.40L19.40 8.40Q17 10.50 16 14Q15 17.50 15 24.10L15 24.10L15 75.50Q15 78.70 15.50 80.35Q16 82.00 17.20 82.90L17.20 82.90Q18.40 84.10 20.35 84.35Q22.30 84.60 24.60 84.60L24.60 84.60L24 89.60ZM50.50 90.60L50.50 90.60Q40.50 90.60 35.20 85.55Q29.90 80.50 29.90 72.70L29.90 72.70Q29.90 65.40 35.05 60.35Q40.20 55.30 49.10 54.10L49.10 54.10Q45.20 51.60 42.55 48.45Q39.90 45.30 39.90 40.90L39.90 40.90Q39.90 35.90 43.80 32.60Q47.70 29.30 54.80 29.30L54.80 29.30Q57.10 29.30 59.60 29.60Q62.10 29.90 64.80 30.50L64.80 30.50L63.80 35.30Q61.60 34.80 59.35 34.55Q57.10 34.30 54.90 34.30L54.90 34.30Q50.10 34.30 47.70 36.10Q45.30 37.90 45.30 41.00L45.30 41.00Q45.30 44.10 47.60 46.55Q49.90 49.00 56 52.70L56 52.70Q63.70 57.50 67.45 62.15Q71.20 66.80 71.20 73.60L71.20 73.60Q71.20 81.30 65.75 85.95Q60.30 90.60 50.50 90.60ZM35.40 72.80L35.40 72.80Q35.40 78.50 39.20 82.05Q43 85.60 50.40 85.60L50.40 85.60Q57.30 85.60 61.55 82.60Q65.80 79.60 65.70 73.40L65.70 73.40Q65.80 68.50 63.20 65.05Q60.60 61.60 55.10 58.00L55.10 58.00Q54.40 58.00 53.80 58.00L53.80 58.00Q48.50 58.00 44.35 59.80Q40.20 61.60 37.80 64.90Q35.40 68.20 35.40 72.80Z"/></svg>