<svg xmlns="http://www.w3.org/2000/svg" xmlns:xlink="http://www.w3.org/1999/xlink" width="74.80000000000001" height="130.4"><path d="M25.40 90.60L25.40 90.60Q15.40 90.60 10.10 85.55Q4.80 80.50 4.80 72.70L4.80 72.70Q4.80 65.40 9.95 60.35Q15.10 55.30 24 54.10L24 54.10Q20.10 51.60 17.45 48.45Q14.80 45.30 14.80 40.90L14.80 40.90Q14.80 35.90 18.70 32.60Q22.60 29.30 29.70 29.30L29.70 29.30Q32 29.30 34.50 29.60Q37 29.90 39.70 30.50L39.70 30.50L38.70 35.30Q36.50 34.80 34.25 34.55Q32 34.30 29.80 34.30L29.80 34.30Q25 34.30 22.60 36.10Q20.20 37.90 20.20 41.00L20.20 41.00Q20.20 44.10 22.50 46.55Q24.80 49.00 30.90 52.70L30.90 52.70Q38.60 57.50 42.35 62.15Q46.10 66.80 46.10 73.60L46.10 73.60Q46.10 81.30 40.65 85.95Q35.20 90.60 25.40 90.60ZM10.30 72.80L10.30 72.80Q10.30 78.50 14.10 82.05Q17.90 85.60 25.30 85.60L25.30 85.60Q32.20 85.60 36.45 82.60Q40.70 79.60 40.60 73.40L40.60 73.40Q40.70 68.50 38.10 65.05Q35.50 61.60 30 58.00L30 58.00Q29.30 58.00 28.70 58.00L28.70 58.00Q23.40 58.00 19.25 59.80Q15.10 61.60 12.70 64.90Q10.30 68.20 10.30 72.80ZM73.80 89.60L72.80 89.60Q69.80 89.60 67.25 88.95Q64.70 88.30 62.90 86.60L62.90 86.60Q59.40 83.30 59.40 75.80L59.40 75.80L59.40 29.10Q58 17.70 54.50 11.60Q51 5.50 45.50 5.50L45.50 5.50Q41.90 5.50 39.90 8.10Q37.90 10.70 37.90 15.80L37.90 15.80Q37.90 19.70 38.50 22.80L38.50 22.80L33.40 22.80Q33.10 21.30 32.85 19.20Q32.60 17.10 32.60 15.20L32.60 15.20Q32.60 8.60 35.95 4.60Q39.30 0.60 45.50 0.60L45.50 0.60Q51.40 0.60 55.40 4.55Q59.40 8.50 61.65 14.95Q63.90 21.40 64.70 28.80L64.70 28.80L64.70 75.50Q64.70 78.80 65.20 80.35Q65.70 81.90 66.90 82.90L66.90 82.90Q68.10 84.10 70.10 84.35Q72.10 84.60 74.30 84.60L74.30 84.60L73.80 89.60Z"/></svg>