<svg xmlns="http://www.w3.org/2000/svg" xmlns:xlink="http://www.w3.org/1999/xlink" width="49.7" height="130.4">
    <path
        d="M25.40 90.60L25.40 90.60Q15.40 90.60 10.10 85.55Q4.80 80.50 4.80 72.70L4.80 72.70Q4.80 65.40 9.95 60.35Q15.10 55.30 24 54.10L24 54.10Q20.10 51.60 17.45 48.45Q14.80 45.30 14.80 40.90L14.80 40.90Q14.80 35.90 18.70 32.60Q22.60 29.30 29.70 29.30L29.70 29.30Q32 29.30 34.50 29.60Q37 29.90 39.70 30.50L39.70 30.50L38.70 35.30Q36.50 34.80 34.25 34.55Q32 34.30 29.80 34.30L29.80 34.30Q25 34.30 22.60 36.10Q20.20 37.90 20.20 41.00L20.20 41.00Q20.20 44.10 22.50 46.55Q24.80 49.00 30.90 52.70L30.90 52.70Q38.60 57.50 42.35 62.15Q46.10 66.80 46.10 73.60L46.10 73.60Q46.10 81.30 40.65 85.95Q35.20 90.60 25.40 90.60ZM10.30 72.80L10.30 72.80Q10.30 78.50 14.10 82.05Q17.90 85.60 25.30 85.60L25.30 85.60Q32.20 85.60 36.45 82.60Q40.70 79.60 40.60 73.40L40.60 73.40Q40.70 68.50 38.10 65.05Q35.50 61.60 30 58.00L30 58.00Q29.30 58.00 28.70 58.00L28.70 58.00Q23.40 58.00 19.25 59.80Q15.10 61.60 12.70 64.90Q10.30 68.20 10.30 72.80ZM34 116.30L34 116.30Q27.40 116.30 22.25 114.05Q17.10 111.80 12.95 108.00Q8.80 104.20 5.30 99.40L5.30 99.40L9.50 96.50Q14.60 103.20 20.20 107.30Q25.80 111.40 34 111.40L34 111.40Q39.70 111.40 42.70 109.20Q45.70 107.00 45.70 102.70L45.70 102.70Q45.70 98.80 43.10 96.80Q40.50 94.80 36.10 94.80L36.10 94.80Q33.60 94.80 31.40 95.35Q29.20 95.90 27 96.80L27 96.80L25.20 92.30Q27.80 91.20 30.40 90.65Q33 90.10 35.80 90.10L35.80 90.10Q42.90 90.10 46.80 93.65Q50.70 97.20 50.70 103.10L50.70 103.10Q50.70 109.30 46.25 112.80Q41.80 116.30 34 116.30Z" />
      <g
     id="g429"
     inkscape:label="g2">
    <path
       style="display:inline"
       d="m 30.9,87 v 0 Q 24.3,87 19.15,84.75 14,82.5 9.85,78.7 5.7,74.9 2.2,70.1 v 0 l 4.2,-2.9 q 5.1,6.7 10.7,10.8 5.6,4.1 13.8,4.1 v 0 q 5.7,0 8.7,-2.2 3,-2.2 3,-6.5 v 0 q 0,-3.9 -2.6,-5.9 -2.6,-2 -7,-2 v 0 q -2.5,0 -4.7,0.55 -2.2,0.55 -4.4,1.45 v 0 L 22.1,63 q 2.6,-1.1 5.2,-1.65 2.6,-0.55 5.4,-0.55 v 0 q 7.1,0 11,3.55 3.9,3.55 3.9,9.45 v 0 q 0,6.2 -4.45,9.7 Q 38.7,87 30.9,87 Z"
       id="path420"
       inkscape:label="p2" />
    <path
       style="display:inline;fill:none;stroke:#000000;stroke-width:1px;stroke-linecap:butt;stroke-linejoin:miter;stroke-opacity:1"
       d="m 22.914062,65.289062 c 2.323807,-0.692195 4.562347,-1.731347 7.000658,-1.966609 3.549036,-0.376084 7.376537,-0.234926 10.53575,1.599631 2.719286,1.540051 4.469061,4.52798 4.601284,7.636307 0.253017,2.845818 -0.456653,5.883237 -2.460912,7.998761 -2.433486,2.67518 -6.157635,3.68678 -9.656459,3.920638 C 27.700261,84.79836 22.284886,83.938844 17.69019,81.310728 14.906965,79.755209 12.447616,77.671348 10.188095,75.437432 8.1199862,73.202596 6.1412982,70.891325 4.1757812,68.566406"
       id="path198"
       inkscape:label="s3" />
  </g>
    <path
        style="display:inline;fill:none;stroke:#000000;stroke-width:1px;stroke-linecap:butt;stroke-linejoin:miter;stroke-opacity:1"
        d="M 34.412207,3.5475369 C 31.56634,3.1421154 28.745484,2.4610553 25.852441,2.4991855 22.282601,2.3826181 18.3606,2.8710019 15.562462,5.2913135 12.85399,7.4790582 12.18067,11.354983 13.122645,14.57925 c 1.021327,3.450361 4.062013,5.73437 6.841913,7.76597 4.910039,3.289051 10.247676,6.134054 14.265715,10.562661 3.202603,3.238553 4.719447,7.917957 4.292779,12.427673 -0.181885,3.698087 -1.750918,7.494083 -4.827338,9.701996 -4.252979,3.217975 -9.825646,3.991197 -15.020716,3.669218 C 14.878756,58.554578 11.020102,57.504922 7.9888173,55.149454 5.1868003,52.828308 3.3396668,49.417339 2.9585702,45.798392 2.2883585,41.574539 3.2803607,36.974805 6.1471578,33.71831 8.2222301,31.188499 11.036066,29.35577 14.098645,28.239102 16.967059,27.185223 20.033035,26.79077 23.03125,26.28125"
        id="path329" inkscape:label="s1" sodipodi:nodetypes="cccccccccccccc" />
</svg>