<svg xmlns="http://www.w3.org/2000/svg" xmlns:xlink="http://www.w3.org/1999/xlink" width="49.7" height="130.4"><path d="M25.40 90.60L25.40 90.60Q15.40 90.60 10.10 85.55Q4.80 80.50 4.80 72.70L4.80 72.70Q4.80 65.40 9.95 60.35Q15.10 55.30 24 54.10L24 54.10Q20.10 51.60 17.45 48.45Q14.80 45.30 14.80 40.90L14.80 40.90Q14.80 35.90 18.70 32.60Q22.60 29.30 29.70 29.30L29.70 29.30Q32 29.30 34.50 29.60Q37 29.90 39.70 30.50L39.70 30.50L38.70 35.30Q36.50 34.80 34.25 34.55Q32 34.30 29.80 34.30L29.80 34.30Q25 34.30 22.60 36.10Q20.20 37.90 20.20 41.00L20.20 41.00Q20.20 44.10 22.50 46.55Q24.80 49.00 30.90 52.70L30.90 52.70Q38.60 57.50 42.35 62.15Q46.10 66.80 46.10 73.60L46.10 73.60Q46.10 81.30 40.65 85.95Q35.20 90.60 25.40 90.60ZM10.30 72.80L10.30 72.80Q10.30 78.50 14.10 82.05Q17.90 85.60 25.30 85.60L25.30 85.60Q32.20 85.60 36.45 82.60Q40.70 79.60 40.60 73.40L40.60 73.40Q40.70 68.50 38.10 65.05Q35.50 61.60 30 58.00L30 58.00Q29.30 58.00 28.70 58.00L28.70 58.00Q23.40 58.00 19.25 59.80Q15.10 61.60 12.70 64.90Q10.30 68.20 10.30 72.80ZM34 116.30L34 116.30Q27.40 116.30 22.25 114.05Q17.10 111.80 12.95 108.00Q8.80 104.20 5.30 99.40L5.30 99.40L9.50 96.50Q14.60 103.20 20.20 107.30Q25.80 111.40 34 111.40L34 111.40Q39.70 111.40 42.70 109.20Q45.70 107.00 45.70 102.70L45.70 102.70Q45.70 98.80 43.10 96.80Q40.50 94.80 36.10 94.80L36.10 94.80Q33.60 94.80 31.40 95.35Q29.20 95.90 27 96.80L27 96.80L25.20 92.30Q27.80 91.20 30.40 90.65Q33 90.10 35.80 90.10L35.80 90.10Q42.90 90.10 46.80 93.65Q50.70 97.20 50.70 103.10L50.70 103.10Q50.70 109.30 46.25 112.80Q41.80 116.30 34 116.30Z"/></svg>