<svg xmlns="http://www.w3.org/2000/svg" xmlns:xlink="http://www.w3.org/1999/xlink" width="49.7" height="130.4"><path d="M25.40 90.60L25.40 90.60Q15.40 90.60 10.10 85.55Q4.80 80.50 4.80 72.70L4.80 72.70Q4.80 65.40 9.95 60.35Q15.10 55.30 24 54.10L24 54.10Q20.10 51.60 17.45 48.45Q14.80 45.30 14.80 40.90L14.80 40.90Q14.80 35.90 18.70 32.60Q22.60 29.30 29.70 29.30L29.70 29.30Q32 29.30 34.50 29.60Q37 29.90 39.70 30.50L39.70 30.50L38.70 35.30Q36.50 34.80 34.25 34.55Q32 34.30 29.80 34.30L29.80 34.30Q25 34.30 22.60 36.10Q20.20 37.90 20.20 41.00L20.20 41.00Q20.20 44.10 22.50 46.55Q24.80 49.00 30.90 52.70L30.90 52.70Q38.60 57.50 42.35 62.15Q46.10 66.80 46.10 73.60L46.10 73.60Q46.10 81.30 40.65 85.95Q35.20 90.60 25.40 90.60ZM10.30 72.80L10.30 72.80Q10.30 78.50 14.10 82.05Q17.90 85.60 25.30 85.60L25.30 85.60Q32.20 85.60 36.45 82.60Q40.70 79.60 40.60 73.40L40.60 73.40Q40.70 68.50 38.10 65.05Q35.50 61.60 30 58.00L30 58.00Q29.30 58.00 28.70 58.00L28.70 58.00Q23.40 58.00 19.25 59.80Q15.10 61.60 12.70 64.90Q10.30 68.20 10.30 72.80ZM32.20 116.10L32.20 116.10Q25.10 116.10 21.20 112.50Q17.30 108.90 17.30 103.00L17.30 103.00Q17.30 97.60 21.40 93.85Q25.50 90.10 33.40 90.10L33.40 90.10Q40.70 90.10 46.05 92.85Q51.40 95.60 55.50 99.95Q59.60 104.30 63 109.20L63 109.20L58.90 111.90Q55.20 106.80 51.55 102.95Q47.90 99.10 43.55 96.95Q39.20 94.80 33.60 94.80L33.60 94.80Q27.80 94.80 25.05 97.15Q22.30 99.50 22.30 103.10L22.30 103.10Q22.30 107.30 25 109.25Q27.70 111.20 31.90 111.20L31.90 111.20Q34.60 111.20 36.85 110.65Q39.10 110.10 41.30 109.10L41.30 109.10L43 113.90Q40.40 114.90 37.70 115.50Q35 116.10 32.20 116.10Z"/></svg>