<svg xmlns="http://www.w3.org/2000/svg" xmlns:xlink="http://www.w3.org/1999/xlink" width="60.6" height="130.4"><path d="M27.60 74.50L27.60 74.50Q19.10 74.50 13.70 70.40Q8.30 66.30 5.40 58.20L5.40 58.20Q15 55.30 19.80 51.40Q24.60 47.50 24.60 41.50L24.60 41.50Q24.60 38.00 22.50 36.00Q20.40 34.00 17.10 34.00L17.10 34.00Q13.60 34.00 11.55 35.80Q9.50 37.60 9.50 40.50L9.50 40.50Q9.50 45.00 14.40 47.70L14.40 47.70L11.30 51.40Q4.30 47.20 4.30 40.40L4.30 40.40Q4.30 35.70 7.65 32.50Q11 29.30 17.10 29.30L17.10 29.30Q23.40 29.30 26.60 32.95Q29.80 36.60 29.80 41.60L29.80 41.60Q29.80 48.40 25.35 53.05Q20.90 57.70 12.20 61.00L12.20 61.00Q14.50 65.30 18.20 67.45Q21.90 69.60 27.60 69.60L27.60 69.60Q33.40 69.60 37.70 67.50Q42 65.40 45.20 62.00L45.20 62.00L45.20 29.30L50.50 30.10L50.50 75.50Q50.50 78.70 51 80.35Q51.50 82.00 52.70 82.90L52.70 82.90Q53.90 84.10 55.85 84.35Q57.80 84.60 60.10 84.60L60.10 84.60L59.60 89.60L58.60 89.60Q51.90 89.60 48.70 86.60L48.70 86.60Q46.90 85.00 46.05 82.50Q45.20 80 45.20 75.80L45.20 75.80L45.20 68.40Q42.20 70.90 37.85 72.70Q33.50 74.50 27.60 74.50ZM50.10 25.50L45.70 25.50Q43.80 17.70 41.95 13.15Q40.10 8.60 37.65 6.70Q35.20 4.80 31.40 4.80L31.40 4.80Q30.20 4.80 28.85 5Q27.50 5.20 26 5.70L26 5.70L24.50 1.10Q26.40 0.50 28.20 0.25Q30 0 31.70 0L31.70 0Q36.30 0 39.65 2.25Q43 4.50 45.50 10.05Q48 15.60 50.10 25.50L50.10 25.50ZM44.80 23.70L42 26.60Q35.90 21.20 31.70 18.85Q27.50 16.50 22.60 16.50L22.60 16.50Q19.10 16.50 16.20 17.40L16.20 17.40L14.70 12.70Q16.50 12.30 18.45 12Q20.40 11.70 22.60 11.70L22.60 11.70Q26.40 11.70 29.75 12.90Q33.10 14.10 36.65 16.75Q40.20 19.40 44.80 23.70L44.80 23.70Z"/></svg>