<svg xmlns="http://www.w3.org/2000/svg" xmlns:xlink="http://www.w3.org/1999/xlink" width="74.80000000000001"
    height="130.4">
    <path
        d="M25.40 90.60L25.40 90.60Q15.40 90.60 10.10 85.55Q4.80 80.50 4.80 72.70L4.80 72.70Q4.80 65.40 9.95 60.35Q15.10 55.30 24 54.10L24 54.10Q20.10 51.60 17.45 48.45Q14.80 45.30 14.80 40.90L14.80 40.90Q14.80 35.90 18.70 32.60Q22.60 29.30 29.70 29.30L29.70 29.30Q32 29.30 34.50 29.60Q37 29.90 39.70 30.50L39.70 30.50L38.70 35.30Q36.50 34.80 34.25 34.55Q32 34.30 29.80 34.30L29.80 34.30Q25 34.30 22.60 36.10Q20.20 37.90 20.20 41.00L20.20 41.00Q20.20 44.10 22.50 46.55Q24.80 49.00 30.90 52.70L30.90 52.70Q38.60 57.50 42.35 62.15Q46.10 66.80 46.10 73.60L46.10 73.60Q46.10 81.30 40.65 85.95Q35.20 90.60 25.40 90.60ZM10.30 72.80L10.30 72.80Q10.30 78.50 14.10 82.05Q17.90 85.60 25.30 85.60L25.30 85.60Q32.20 85.60 36.45 82.60Q40.70 79.60 40.60 73.40L40.60 73.40Q40.70 68.50 38.10 65.05Q35.50 61.60 30 58.00L30 58.00Q29.30 58.00 28.70 58.00L28.70 58.00Q23.40 58.00 19.25 59.80Q15.10 61.60 12.70 64.90Q10.30 68.20 10.30 72.80ZM73.80 89.60L72.80 89.60Q66.20 89.60 62.90 86.60L62.90 86.60Q61.10 85.00 60.25 82.50Q59.40 80 59.40 75.80L59.40 75.80L59.40 29.30L64.70 30.00L64.70 75.50Q64.70 78.80 65.20 80.40Q65.70 82.00 67 83.00L67 83.00Q68.20 84.10 70.05 84.35Q71.90 84.60 74.30 84.60L74.30 84.60L73.80 89.60ZM64.20 25.50L59.40 25.50Q57.20 17.90 55.20 13.40Q53.20 8.90 50.65 6.90Q48.10 4.90 44.20 4.90L44.20 4.90Q41.40 4.90 38.40 5.80L38.40 5.80L36.80 1.20Q38.80 0.60 40.75 0.30Q42.70 0 44.50 0L44.50 0Q49.20 0 52.70 2.15Q56.20 4.30 58.95 9.80Q61.70 15.30 64.20 25.50L64.20 25.50Z" />
      <g
     id="g562"
     inkscape:label="g2">
    <path
       style="display:inline"
       d="m 70.7,89.6 h -1 q -6.6,0 -9.9,-3 v 0 Q 58,85 57.15,82.5 56.3,80 56.3,75.8 v 0 -46.5 l 5.3,0.7 v 45.5 q 0,3.3 0.5,4.9 0.5,1.6 1.8,2.6 v 0 q 1.2,1.1 3.05,1.35 1.85,0.25 4.25,0.25 v 0 z"
       id="path551"
       inkscape:label="p2" />
    <path
       style="display:inline;fill:none;stroke:#000000;stroke-width:1px;stroke-linecap:butt;stroke-linejoin:miter;stroke-opacity:1"
       d="m 58.92722,29.304293 c 0.0052,15.660703 -0.0419,31.322813 -0.004,46.982637 0.07316,2.661925 0.300704,5.531206 2.06529,7.674603 1.94562,2.285428 5.076187,2.956219 7.950186,3.001875 0.734456,0.05113 1.468913,0.102253 2.203369,0.15338"
       id="path81"
       inkscape:label="s3" />
  </g>
  <g
     id="g566"
     inkscape:label="g3">
    <path
       style="display:inline"
       d="M 61.1,25.5 H 56.3 Q 54.1,17.9 52.1,13.4 50.1,8.9 47.55,6.9 45,4.9 41.1,4.9 v 0 q -2.8,0 -5.8,0.9 v 0 L 33.7,1.2 Q 35.7,0.6 37.65,0.3 39.6,0 41.4,0 v 0 q 4.7,0 8.2,2.15 3.5,2.15 6.25,7.65 2.75,5.5 5.25,15.7 z"
       id="path553"
       inkscape:label="p3" />
    <path
       style="display:inline;fill:none;stroke:#000000;stroke-width:1px;stroke-linecap:butt;stroke-linejoin:miter;stroke-opacity:1"
       d="m 34.390625,3.625 c 2.407735,-0.5487371 4.818668,-1.2842266 7.316349,-1.1718755 2.367913,0.061684 4.769179,0.644832 6.746194,1.9883103 2.283908,1.5216174 3.856335,3.867577 5.081293,6.2795292 0.985525,1.850814 1.702889,3.830646 2.400769,5.803765 1.025962,2.981686 1.857827,6.023718 2.740551,9.04949"
       id="path814"
       inkscape:label="s4" />
  </g>
    <path
        style="display:inline;fill:none;stroke:#000000;stroke-width:1px;stroke-linecap:butt;stroke-linejoin:miter;stroke-opacity:1"
        d="M 34.412207,3.5475369 C 31.56634,3.1421154 28.745484,2.4610553 25.852441,2.4991855 22.282601,2.3826181 18.3606,2.8710019 15.562462,5.2913135 12.85399,7.4790582 12.18067,11.354983 13.122645,14.57925 c 1.021327,3.450361 4.062013,5.73437 6.841913,7.76597 4.910039,3.289051 10.247676,6.134054 14.265715,10.562661 3.202603,3.238553 4.719447,7.917957 4.292779,12.427673 -0.181885,3.698087 -1.750918,7.494083 -4.827338,9.701996 -4.252979,3.217975 -9.825646,3.991197 -15.020716,3.669218 C 14.878756,58.554578 11.020102,57.504922 7.9888173,55.149454 5.1868003,52.828308 3.3396668,49.417339 2.9585702,45.798392 2.2883585,41.574539 3.2803607,36.974805 6.1471578,33.71831 8.2222301,31.188499 11.036066,29.35577 14.098645,28.239102 16.967059,27.185223 20.033035,26.79077 23.03125,26.28125"
        id="path329" inkscape:label="s1" sodipodi:nodetypes="cccccccccccccc" />
</svg>