<?xml version="1.0" encoding="UTF-8" standalone="no"?>
<svg
   width="69.5"
   height="90.599998"
   version="1.1"
   id="svg387"
   sodipodi:docname="9_thau.svg"
   inkscape:version="1.2.1 (9c6d41e410, 2022-07-14)"
   xmlns:inkscape="http://www.inkscape.org/namespaces/inkscape"
   xmlns:sodipodi="http://sodipodi.sourceforge.net/DTD/sodipodi-0.dtd"
   xmlns="http://www.w3.org/2000/svg"
   xmlns:svg="http://www.w3.org/2000/svg">
  <defs
     id="defs391" />
  <sodipodi:namedview
     id="namedview389"
     pagecolor="#ffffff"
     bordercolor="#666666"
     borderopacity="1.0"
     inkscape:showpageshadow="2"
     inkscape:pageopacity="0.0"
     inkscape:pagecheckerboard="0"
     inkscape:deskcolor="#d1d1d1"
     showgrid="false"
     inkscape:zoom="1.809816"
     inkscape:cx="32.87627"
     inkscape:cy="65.199997"
     inkscape:window-width="1920"
     inkscape:window-height="1027"
     inkscape:window-x="-8"
     inkscape:window-y="-8"
     inkscape:window-maximized="1"
     inkscape:current-layer="svg387" />
  <g
     id="g9"
     inkscape:label="g1"
     transform="translate(0,29.3)">
    <path
       d="m 20.6,61.3 v 0 Q 10.6,61.3 5.3,56.25 0,51.2 0,43.4 v 0 Q 0,36.1 5.15,31.05 10.3,26 19.2,24.8 v 0 Q 15.3,22.3 12.65,19.15 10,16 10,11.6 v 0 Q 10,6.6 13.9,3.3 17.8,0 24.9,0 v 0 q 2.3,0 4.8,0.3 2.5,0.3 5.2,0.9 v 0 L 33.9,6 Q 31.7,5.5 29.45,5.25 27.2,5 25,5 v 0 q -4.8,0 -7.2,1.8 -2.4,1.8 -2.4,4.9 v 0 q 0,3.1 2.3,5.55 2.3,2.45 8.4,6.15 v 0 q 7.7,4.8 11.45,9.45 3.75,4.65 3.75,11.45 v 0 Q 41.3,52 35.85,56.65 30.4,61.3 20.6,61.3 Z M 5.5,43.5 v 0 q 0,5.7 3.8,9.25 3.8,3.55 11.2,3.55 v 0 q 6.9,0 11.15,-3 4.25,-3 4.15,-9.2 v 0 Q 35.9,39.2 33.3,35.75 30.7,32.3 25.2,28.7 v 0 q -0.7,0 -1.3,0 v 0 q -5.3,0 -9.45,1.8 -4.15,1.8 -6.55,5.1 -2.4,3.3 -2.4,7.9 z"
       id="path2"
       style="display:inline"
       inkscape:label="p1" />
    <path
       style="display:inline;fill:none;stroke:#000000;stroke-width:1px;stroke-linecap:butt;stroke-linejoin:miter;stroke-opacity:1"
       d="M 34.412207,3.5475369 C 31.56634,3.1421154 28.745484,2.4610553 25.852441,2.4991855 22.282601,2.3826181 18.3606,2.8710019 15.562462,5.2913135 12.85399,7.4790582 12.18067,11.354983 13.122645,14.57925 c 1.021327,3.450361 4.062013,5.73437 6.841913,7.76597 4.910039,3.289051 10.247676,6.134054 14.265715,10.562661 3.202603,3.238553 4.719447,7.917957 4.292779,12.427673 -0.181885,3.698087 -1.750918,7.494083 -4.827338,9.701996 -4.252979,3.217975 -9.825646,3.991197 -15.020716,3.669218 C 14.878756,58.554578 11.020102,57.504922 7.9888173,55.149454 5.1868003,52.828308 3.3396668,49.417339 2.9585702,45.798392 2.2883585,41.574539 3.2803607,36.974805 6.1471578,33.71831 8.2222301,31.188499 11.036066,29.35577 14.098645,28.239102 16.967059,27.185223 20.033035,26.79077 23.03125,26.28125"
       id="path329-1"
       inkscape:label="s1"
       sodipodi:nodetypes="cccccccccccccc" />
  </g>
  <g
     id="g605"
     inkscape:label="g2"
     transform="translate(-1.7)">
    <path
       style="display:inline"
       d="m 70.7,89.6 h -1 q -6.6,0 -9.9,-3 v 0 Q 58,85 57.15,82.5 56.3,80 56.3,75.8 v 0 -46.5 l 5.3,0.7 v 45.5 q 0,3.3 0.5,4.9 0.5,1.6 1.8,2.6 v 0 q 1.2,1.1 3.05,1.35 1.85,0.25 4.25,0.25 v 0 z"
       id="path592"
       inkscape:label="p2" />
    <path
       style="display:inline;fill:none;stroke:#000000;stroke-width:1px;stroke-linecap:butt;stroke-linejoin:miter;stroke-opacity:1"
       d="m 58.945814,29.339077 c 0.0052,15.660703 -0.0419,31.322813 -0.004,46.982637 0.07316,2.661925 0.300705,5.531206 2.06529,7.674603 1.94562,2.285428 5.076188,2.956219 7.950186,3.001875 0.734456,0.05113 1.468913,0.102253 2.203369,0.15338"
       id="path81"
       inkscape:label="s2" />
  </g>
  <g
     id="g609"
     inkscape:label="g3"
     transform="translate(-1.7)">
    <path
       style="display:inline"
       d="m 55.9,23.7 -2.8,2.9 Q 47,21.2 42.8,18.85 38.6,16.5 33.7,16.5 v 0 q -3.5,0 -6.4,0.9 v 0 l -1.5,-4.7 q 1.8,-0.4 3.75,-0.7 1.95,-0.3 4.15,-0.3 v 0 q 3.8,0 7.15,1.2 3.35,1.2 6.9,3.85 3.55,2.65 8.15,6.95 z"
       id="path596"
       inkscape:label="p3" />
    <path
       style="display:inline;fill:none;stroke:#000000;stroke-width:1px;stroke-linecap:butt;stroke-linejoin:miter;stroke-opacity:1"
       d="m 26.306582,15.114407 c 2.688785,-0.568456 5.416241,-1.1935 8.183739,-0.988483 1.810938,0.02306 3.595689,0.410136 5.328375,0.908621 1.446215,0.495326 2.860202,1.115629 4.178036,1.890495 3.847011,2.308963 7.136989,5.387765 10.538424,8.281996"
       id="path905"
       inkscape:label="s3" />
  </g>
  <g
     id="g613"
     inkscape:label="g4"
     transform="translate(-1.7)">
    <path
       style="display:inline"
       d="M 61.2,25.5 H 56.8 Q 54.9,17.7 53.05,13.15 51.2,8.6 48.75,6.7 46.3,4.8 42.5,4.8 v 0 Q 41.3,4.8 39.95,5 38.6,5.2 37.1,5.7 v 0 L 35.6,1.1 Q 37.5,0.5 39.3,0.25 41.1,0 42.8,0 v 0 q 4.6,0 7.95,2.25 3.35,2.25 5.85,7.8 2.5,5.55 4.6,15.45 z"
       id="path594"
       inkscape:label="p4" />
    <path
       style="display:inline;fill:none;stroke:#000000;stroke-width:1px;stroke-linecap:butt;stroke-linejoin:miter;stroke-opacity:1"
       d="m 36.195028,3.4913397 2.773185,-0.7181553 0.82864,-0.1767767 0.806544,-0.099437 1.138,-0.088388 h 0.905981 l 1.027514,0.033146 0.983321,0.121534 0.872835,0.1325825 1.237436,0.2872621 1.071709,0.4198447 1.347922,0.6960582 1.016466,0.6960583 0.696059,0.5966213 0.82864,0.9612233 0.950175,1.2042912 0.839689,1.3368738 0.806544,1.6130879 0.651864,1.425262 0.662913,1.635184 0.53033,1.679379 0.50108,1.557697 0.367187,1.382813 0.5,1.734375 0.453125,1.757812 1.007035,3.936361"
       id="path970"
       inkscape:label="s4" />
  </g>
</svg>
