<svg xmlns="http://www.w3.org/2000/svg" xmlns:xlink="http://www.w3.org/1999/xlink" width="74.80000000000001" height="130.4"><path d="M25.40 90.60L25.40 90.60Q15.40 90.60 10.10 85.55Q4.80 80.50 4.80 72.70L4.80 72.70Q4.80 65.40 9.95 60.35Q15.10 55.30 24 54.10L24 54.10Q20.10 51.60 17.45 48.45Q14.80 45.30 14.80 40.90L14.80 40.90Q14.80 35.90 18.70 32.60Q22.60 29.30 29.70 29.30L29.70 29.30Q32 29.30 34.50 29.60Q37 29.90 39.70 30.50L39.70 30.50L38.70 35.30Q36.50 34.80 34.25 34.55Q32 34.30 29.80 34.30L29.80 34.30Q25 34.30 22.60 36.10Q20.20 37.90 20.20 41.00L20.20 41.00Q20.20 44.10 22.50 46.55Q24.80 49.00 30.90 52.70L30.90 52.70Q38.60 57.50 42.35 62.15Q46.10 66.80 46.10 73.60L46.10 73.60Q46.10 81.30 40.65 85.95Q35.20 90.60 25.40 90.60ZM10.30 72.80L10.30 72.80Q10.30 78.50 14.10 82.05Q17.90 85.60 25.30 85.60L25.30 85.60Q32.20 85.60 36.45 82.60Q40.70 79.60 40.60 73.40L40.60 73.40Q40.70 68.50 38.10 65.05Q35.50 61.60 30 58.00L30 58.00Q29.30 58.00 28.70 58.00L28.70 58.00Q23.40 58.00 19.25 59.80Q15.10 61.60 12.70 64.90Q10.30 68.20 10.30 72.80ZM73.80 89.60L72.80 89.60Q66.20 89.60 62.90 86.60L62.90 86.60Q61.10 85.00 60.25 82.50Q59.40 80 59.40 75.80L59.40 75.80L59.40 29.30L64.70 30.00L64.70 75.50Q64.70 78.80 65.20 80.40Q65.70 82.00 67 83.00L67 83.00Q68.20 84.10 70.05 84.35Q71.90 84.60 74.30 84.60L74.30 84.60L73.80 89.60ZM64.30 25.50L59.90 25.50Q58 17.70 56.15 13.15Q54.30 8.60 51.85 6.70Q49.40 4.80 45.60 4.80L45.60 4.80Q44.40 4.80 43.05 5Q41.70 5.20 40.20 5.70L40.20 5.70L38.70 1.10Q40.60 0.50 42.40 0.25Q44.20 0 45.90 0L45.90 0Q50.50 0 53.85 2.25Q57.20 4.50 59.70 10.05Q62.20 15.60 64.30 25.50L64.30 25.50ZM59 23.70L56.20 26.60Q50.10 21.20 45.90 18.85Q41.70 16.50 36.80 16.50L36.80 16.50Q33.30 16.50 30.40 17.40L30.40 17.40L28.90 12.70Q30.70 12.30 32.65 12Q34.60 11.70 36.80 11.70L36.80 11.70Q40.60 11.70 43.95 12.90Q47.30 14.10 50.85 16.75Q54.40 19.40 59 23.70L59 23.70Z"/></svg>