<svg width="24" height="24" viewBox="0 0 24 24" fill="none" xmlns="http://www.w3.org/2000/svg"><path d="M6 2.5h3s.855.017 1.5.45.75.737.75.737V15.71a6.503 6.503 0 0 0-.25 1.893c-.392-.22-1.197-.603-2-.603H6V2.5ZM17.5 11c.168 0 .335.006.5.019V2.5h-3s-.855.017-1.5.45-.75.737-.75.737v9.376A6.482 6.482 0 0 1 17.5 11Z" fill="#212121"/><path d="M10.95 19.5h.364c.172.534.411 1.037.708 1.5H2.75a.75.75 0 0 1-.75-.75V4.75A.75.75 0 0 1 2.75 4H4.5v13.781s0 .719.887.719H8.3c.5 0 1.477 0 2.102.5.217.174.4.347.547.5Zm8.55-8.187A6.497 6.497 0 0 1 22 12.81V4.75a.75.75 0 0 0-.75-.75H19.5v7.313Z" fill="#212121"/><path d="M12 17.5a5.5 5.5 0 1 0 11 0 5.5 5.5 0 0 0-11 0Zm5.253-3.848c.146-.147.23-.152.247-.152.018 0 .1.005.247.152.15.15.318.405.476.78.073.172.14.362.2.568h-1.846a5.13 5.13 0 0 1 .2-.568c.158-.375.327-.63.476-.78Zm-1.987.53a7.97 7.97 0 0 0-.24.818h-.649c.253-.316.553-.592.89-.819ZM13.5 17.5c0-.345.044-.68.126-1h1.166a11.933 11.933 0 0 0-.032 1.5h-1.23c-.02-.164-.03-.33-.03-.5Zm1.766 3.319a4.022 4.022 0 0 1-1.23-1.319h.886c.086.475.202.919.344 1.319ZM19.974 15a7.813 7.813 0 0 0-.24-.819c.336.227.636.503.889.819h-.65Zm.234 1.5h1.166a4.01 4.01 0 0 1 .095 1.5h-1.23a12.146 12.146 0 0 0-.03-1.5Zm-.474 4.319c.142-.4.258-.844.344-1.319h.887a4.022 4.022 0 0 1-1.231 1.319ZM16.298 16.5h2.404a10.344 10.344 0 0 1 .036 1.5h-2.476a10.632 10.632 0 0 1 .036-1.5Zm2.251 3a6.059 6.059 0 0 1-.326 1.068c-.158.375-.327.63-.476.78-.146.147-.23.152-.247.152-.018 0-.1-.005-.247-.152-.15-.15-.318-.405-.476-.78a6.059 6.059 0 0 1-.326-1.068h2.098Z" fill="#212121"/></svg>