<svg viewBox="0 0 135.467 135.467" xmlns="http://www.w3.org/2000/svg">
    <path
        d="M192 64s-64 12-76 16c-8.485 2.828-28 16-28 16-32 0-56 32-56 32h84c12 0 25.734 30.24 20 44-26.6 63.838 21.09 136.506 65.44 178.041L178.388 448H144c-8.864 0-16 7.136-16 16s7.136 16 16 16h160c8.864 0 16-7.136 16-16s-7.136-16-16-16h-16.004v-64H296c8.389 0 55.908 39.92 119.814 39.998a8 8 0 0 0 4.621-14.658L334.423 352H368c15.823 15.823 82.497 70.759 103.313 71.97a8 8 0 0 0 7.085-12.769C422.202 335.271 369.988 258.387 308 184c-20-24-83.738-23.738-83.738-23.738L168 104Zm37.072 308.295c11.24 7.481 20.826 11.703 26.924 11.705v64h-44.738z"
        style="fill:#37474f;fill-opacity:1;stroke:none;stroke-width:.999999px;stroke-linecap:butt;stroke-linejoin:miter;stroke-opacity:1"
        transform="scale(.26458)" />
</svg>