<?xml version="1.0" ?><svg height="512" id="svg8" version="1.1" viewBox="0 0 135.46666 135.46667" width="512" xmlns="http://www.w3.org/2000/svg" xmlns:cc="http://creativecommons.org/ns#" xmlns:dc="http://purl.org/dc/elements/1.1/" xmlns:inkscape="http://www.inkscape.org/namespaces/inkscape" xmlns:rdf="http://www.w3.org/1999/02/22-rdf-syntax-ns#" xmlns:sodipodi="http://sodipodi.sourceforge.net/DTD/sodipodi-0.dtd" xmlns:svg="http://www.w3.org/2000/svg"><defs id="defs2"><marker id="marker3773" orient="auto" refX="0.0" refY="0.0" style="overflow:visible"><path d="M -2.5,-1.0 C -2.5,1.7600000 -4.7400000,4.0 -7.5,4.0 C -10.260000,4.0 -12.5,1.7600000 -12.5,-1.0 C -12.5,-3.7600000 -10.260000,-6.0 -7.5,-6.0 C -4.7400000,-6.0 -2.5,-3.7600000 -2.5,-1.0 z " id="path3771" style="fill-rule:evenodd;stroke:#c2c2c2;stroke-width:1pt;stroke-opacity:1;fill:#c2c2c2;fill-opacity:1" transform="scale(0.2) translate(7.4, 1)"/></marker><marker id="marker2116" orient="auto" refX="0.0" refY="0.0" style="overflow:visible"><path d="M -2.5,-1.0 C -2.5,1.7600000 -4.7400000,4.0 -7.5,4.0 C -10.260000,4.0 -12.5,1.7600000 -12.5,-1.0 C -12.5,-3.7600000 -10.260000,-6.0 -7.5,-6.0 C -4.7400000,-6.0 -2.5,-3.7600000 -2.5,-1.0 z " id="path2114" style="fill-rule:evenodd;stroke:#c2c2c2;stroke-width:1pt;stroke-opacity:1;fill:#c2c2c2;fill-opacity:1" transform="scale(0.4) translate(7.4, 1)"/></marker><marker id="TriangleInS" orient="auto" refX="0.0" refY="0.0" style="overflow:visible"><path d="M 5.77,0.0 L -2.88,5.0 L -2.88,-5.0 L 5.77,0.0 z " id="path1725" style="fill-rule:evenodd;stroke:#333333;stroke-width:1pt;stroke-opacity:1;fill:#333333;fill-opacity:1" transform="scale(-0.2)"/></marker><marker id="TriangleInM" orient="auto" refX="0.0" refY="0.0" style="overflow:visible"><path d="M 5.77,0.0 L -2.88,5.0 L -2.88,-5.0 L 5.77,0.0 z " id="path1722" style="fill-rule:evenodd;stroke:#000000;stroke-width:1pt;stroke-opacity:1;fill:#000000;fill-opacity:1" transform="scale(-0.4)"/></marker><marker id="TriangleOutM" orient="auto" refX="0.0" refY="0.0" style="overflow:visible"><path d="M 5.77,0.0 L -2.88,5.0 L -2.88,-5.0 L 5.77,0.0 z " id="path1731" style="fill-rule:evenodd;stroke:#000000;stroke-width:1pt;stroke-opacity:1;fill:#000000;fill-opacity:1" transform="scale(0.4)"/></marker><marker id="TriangleOutS" orient="auto" refX="0.0" refY="0.0" style="overflow:visible"><path d="M 5.77,0.0 L -2.88,5.0 L -2.88,-5.0 L 5.77,0.0 z " id="path1734" style="fill-rule:evenodd;stroke:#333333;stroke-width:1pt;stroke-opacity:1;fill:#333333;fill-opacity:1" transform="scale(0.2)"/></marker><marker id="TriangleInM-0" orient="auto" refX="0" refY="0" style="overflow:visible"><path d="M 5.77,0 -2.88,5 V -5 Z" id="path1722-5" style="fill:#000000;fill-opacity:1;fill-rule:evenodd;stroke:#000000;stroke-width:1pt;stroke-opacity:1" transform="scale(-0.4)"/></marker><marker id="TriangleOutM-4" orient="auto" refX="0" refY="0" style="overflow:visible"><path d="M 5.77,0 -2.88,5 V -5 Z" id="path1731-9" style="fill:#000000;fill-opacity:1;fill-rule:evenodd;stroke:#000000;stroke-width:1pt;stroke-opacity:1" transform="scale(0.4)"/></marker><marker id="TriangleInS-4" orient="auto" refX="0" refY="0" style="overflow:visible"><path d="M 5.77,0 -2.88,5 V -5 Z" id="path1725-6" style="fill:#333333;fill-opacity:1;fill-rule:evenodd;stroke:#333333;stroke-width:1pt;stroke-opacity:1" transform="scale(-0.2)"/></marker><marker id="TriangleOutS-8" orient="auto" refX="0" refY="0" style="overflow:visible"><path d="M 5.77,0 -2.88,5 V -5 Z" id="path1734-5" style="fill:#333333;fill-opacity:1;fill-rule:evenodd;stroke:#333333;stroke-width:1pt;stroke-opacity:1" transform="scale(0.2)"/></marker><marker id="TriangleInS-5" orient="auto" refX="0" refY="0" style="overflow:visible"><path d="M 5.77,0 -2.88,5 V -5 Z" id="path1725-1" style="fill:#757575;fill-opacity:1;fill-rule:evenodd;stroke:#757575;stroke-width:1pt;stroke-opacity:1" transform="scale(-0.2)"/></marker><marker id="TriangleOutS-2" orient="auto" refX="0" refY="0" style="overflow:visible"><path d="M 5.77,0 -2.88,5 V -5 Z" id="path1734-7" style="fill:#757575;fill-opacity:1;fill-rule:evenodd;stroke:#757575;stroke-width:1pt;stroke-opacity:1" transform="scale(0.2)"/></marker></defs><g id="layer1"><path d="m 192,64 c 0,0 -64,12.000001 -76,16 -8.48528,2.828428 -28,16 -28,16 -31.999997,0 -56.000001,32 -56.000001,32 30.666664,-1e-5 76.000001,0 84.000001,0 12,0 25.73351,30.23958 20,44 -26.59926,63.83823 21.08992,136.50627 65.43945,178.04102 L 178.38867,448 H 144 c -8.86399,0 -16,7.13603 -16,16 0,8.86401 7.13601,16 16,16 h 160 c 8.86399,0 16,-7.13599 16,-16 0,-8.86397 -7.13601,-16 -16,-16 H 287.99609 V 384 H 296 c 8.3888,0 55.90836,39.92058 119.81445,39.99805 2.741,0.0637 5.32368,-1.28072 6.84375,-3.5625 2.45124,-3.67756 1.45597,-8.64606 -2.22265,-11.09571 L 334.42188,352 H 368 c 15.8233,15.82329 82.49689,70.75897 103.3125,71.9707 1.96118,0.16922 3.91591,-0.39056 5.49023,-1.57226 3.53148,-2.65211 4.24576,-7.66424 1.59571,-11.19727 C 422.20188,335.2713 369.98889,258.38666 308,184 287.99999,160 224.26172,160.26172 224.26172,160.26172 L 168,104 Z m 37.07227,308.29492 c 11.23995,7.4811 20.82613,11.70336 26.92382,11.70508 v 64 h -44.73828 z" id="path934" style="fill:#37474f;fill-opacity:1;stroke:none;stroke-width:0.999999px;stroke-linecap:butt;stroke-linejoin:miter;stroke-opacity:1" transform="scale(0.26458333)"/></g></svg>