<svg fill="none" xmlns="http://www.w3.org/2000/svg" viewBox="0 0 20 20">
    <path
        d="M4 3c-1.10457 0-2 .89543-2 2v10c0 1.1046.89543 2 2 2h3c1.10457 0 2-.8954 2-2V5c0-1.10457-.89543-2-2-2H4Zm1 3.5c0-.27614.22386-.5.5-.5s.5.22386.5.5v7c0 .2761-.22386.5-.5.5s-.5-.2239-.5-.5v-7ZM13 3c-1.1046 0-2 .89543-2 2v10c0 1.1046.8954 2 2 2h3c1.1046 0 2-.8954 2-2V5c0-1.10457-.8954-2-2-2h-3Zm.5 3h2c.2761 0 .5.22386.5.5V10c0 .2761-.2239.5-.5.5H14V13h1.5c.2761 0 .5.2239.5.5s-.2239.5-.5.5h-2c-.2761 0-.5-.2239-.5-.5V10c0-.27614.2239-.5.5-.5H15V7h-1.5c-.2761 0-.5-.22386-.5-.5s.2239-.5.5-.5Z"
        fill="#212121" />
</svg>