<?xml version="1.0" encoding="UTF-8" standalone="no"?>
<svg
   width="55.5"
   height="60.299999"
   version="1.1"
   id="svg4"
   sodipodi:docname="0_y.svg"
   inkscape:version="1.2.1 (9c6d41e410, 2022-07-14)"
   xmlns:inkscape="http://www.inkscape.org/namespaces/inkscape"
   xmlns:sodipodi="http://sodipodi.sourceforge.net/DTD/sodipodi-0.dtd"
   xmlns="http://www.w3.org/2000/svg"
   xmlns:svg="http://www.w3.org/2000/svg">
  <defs
     id="defs8" />
  <sodipodi:namedview
     id="namedview6"
     pagecolor="#ffffff"
     bordercolor="#666666"
     borderopacity="1.0"
     inkscape:showpageshadow="2"
     inkscape:pageopacity="0.0"
     inkscape:pagecheckerboard="0"
     inkscape:deskcolor="#d1d1d1"
     showgrid="false"
     inkscape:zoom="5.6568543"
     inkscape:cx="2.9168155"
     inkscape:cy="13.611805"
     inkscape:window-width="1920"
     inkscape:window-height="1027"
     inkscape:window-x="-8"
     inkscape:window-y="-8"
     inkscape:window-maximized="1"
     inkscape:current-layer="svg4" />
  <path
     style="fill:none;stroke:#000000;stroke-width:1px;stroke-linecap:butt;stroke-linejoin:miter;stroke-opacity:1"
     d="m 43.253906,0 c 0.01561,15.93225 -0.02062,31.865387 0.02745,47.797083 0.09354,2.772034 0.571143,5.890438 2.888377,7.720948 2.192388,1.912444 5.226226,2.096442 7.996369,2.213674 0.439424,0.02823 0.878849,0.05647 1.318273,0.0847"
     id="path331"
     sodipodi:nodetypes="ccccccccccccccccccccccc"
     inkscape:label="s2" />
  <path
     style="fill:none;stroke:#000000;stroke-width:1px;stroke-linecap:butt;stroke-linejoin:miter;stroke-opacity:1"
     d="M 0.00390625,3.2478282 C 3.0719824,2.6298588 6.2244795,2.1331993 9.3489062,2.6472552 c 4.2500158,0.5149832 8.2847698,3.4409174 9.5352618,7.6227558 1.084687,3.563072 0.819624,7.644696 -1.088126,10.886478 -1.971125,3.244109 -5.334008,5.266714 -8.7142529,6.779523 -1.02623,0.639123 -1.3467076,2.024448 -0.7591876,3.074283 2.5208705,4.556692 6.9481815,8.218233 12.1702225,9.075097 6.220508,1.107572 12.923825,-0.275148 18.001025,-4.10081 0.731699,-0.542642 1.486066,-1.05251 2.240523,-1.562705"
     id="path329"
     sodipodi:nodetypes="ccccccccc"
     inkscape:label="s1" />
  <path
     d="m 24.6,42.9 v 0 Q 10,42.9 3.5,27.4 v 0 q 6.2,-1.8 9.75,-4.8 3.55,-3 3.55,-8.1 v 0 Q 16.8,10.1 14,7.5 11.2,4.9 6.5,4.9 v 0 Q 4.8,4.9 3.65,5.1 2.5,5.3 1.3,5.5 v 0 L 0,0.8 Q 1.3,0.5 2.9,0.25 4.5,0 6.8,0 v 0 q 6.9,0 11.15,3.9 4.25,3.9 4.25,10.6 v 0 q 0,5.5 -3.05,9.25 Q 16.1,27.5 10.6,30 v 0 q 2,3.6 5.4,5.8 3.4,2.2 8.5,2.2 v 0 q 4.9,0 9,-1.9 4.1,-1.9 7.1,-5 v 0 V 0 l 5.3,0.7 v 45.5 q 0,3.3 0.5,4.9 0.5,1.6 1.8,2.6 v 0 q 1.2,1.1 3.05,1.35 1.85,0.25 4.25,0.25 v 0 l -0.5,5 h -1 q -6.6,0 -9.9,-3 v 0 Q 42.3,55.7 41.45,53.2 40.6,50.7 40.6,46.5 v 0 -9.1 q -3.1,2.6 -7.1,4.05 -4,1.45 -8.9,1.45 z"
     id="path2"
     inkscape:label="p1" />
</svg>
