<?xml version="1.0" encoding="UTF-8" standalone="no"?>
<svg
   width="55.5"
   height="60.299999"
   version="1.1"
   id="svg4"
   sodipodi:docname="0_y.svg"
   inkscape:version="1.2.1 (9c6d41e410, 2022-07-14)"
   xmlns:inkscape="http://www.inkscape.org/namespaces/inkscape"
   xmlns:sodipodi="http://sodipodi.sourceforge.net/DTD/sodipodi-0.dtd"
   xmlns="http://www.w3.org/2000/svg"
   xmlns:svg="http://www.w3.org/2000/svg">
  <defs
     id="defs8" />
  <sodipodi:namedview
     id="namedview6"
     pagecolor="#ffffff"
     bordercolor="#666666"
     borderopacity="1.0"
     inkscape:showpageshadow="2"
     inkscape:pageopacity="0.0"
     inkscape:pagecheckerboard="0"
     inkscape:deskcolor="#d1d1d1"
     showgrid="false"
     inkscape:zoom="16"
     inkscape:cx="41.84375"
     inkscape:cy="20.9375"
     inkscape:window-width="1920"
     inkscape:window-height="1027"
     inkscape:window-x="-8"
     inkscape:window-y="-8"
     inkscape:window-maximized="1"
     inkscape:current-layer="svg4" />
  <path
     d="m 24.6,42.9 v 0 Q 10,42.9 3.5,27.4 v 0 q 6.2,-1.8 9.75,-4.8 3.55,-3 3.55,-8.1 v 0 Q 16.8,10.1 14,7.5 11.2,4.9 6.5,4.9 v 0 Q 4.8,4.9 3.65,5.1 2.5,5.3 1.3,5.5 v 0 L 0,0.8 Q 1.3,0.5 2.9,0.25 4.5,0 6.8,0 v 0 q 6.9,0 11.15,3.9 4.25,3.9 4.25,10.6 v 0 q 0,5.5 -3.05,9.25 Q 16.1,27.5 10.6,30 v 0 q 2,3.6 5.4,5.8 3.4,2.2 8.5,2.2 v 0 q 4.9,0 9,-1.9 4.1,-1.9 7.1,-5 v 0 V 0 l 5.3,0.7 v 45.5 q 0,3.3 0.5,4.9 0.5,1.6 1.8,2.6 v 0 q 1.2,1.1 3.05,1.35 1.85,0.25 4.25,0.25 v 0 l -0.5,5 h -1 q -6.6,0 -9.9,-3 v 0 Q 42.3,55.7 41.45,53.2 40.6,50.7 40.6,46.5 v 0 -9.1 q -3.1,2.6 -7.1,4.05 -4,1.45 -8.9,1.45 z"
     id="path2"
     inkscape:label="p1" />
  <path
     id="path329"
     style="fill:none;stroke:#000000;stroke-width:1px;stroke-linecap:butt;stroke-linejoin:miter;stroke-opacity:1"
     d="M 0.00390625,3.2478282 C 4.7980827,2.2332998 10.308624,1.6977166 14.588316,4.61086 c 3.743708,2.3370133 5.304598,6.982828 4.87395,11.222874 -0.24855,4.284069 -3.026243,8.026587 -6.657507,10.147766 -0.950007,0.779375 -2.390478,1.558847 -3.6482051,1.978527 -0.5050866,0.168538 -2.7627705,0.433163 -2.6758262,0.588792 0.1980726,0.354546 0.7304316,1.441151 1.3436357,2.462645 1.7004263,3.418984 4.8590216,5.872737 8.2567996,7.619178 4.800257,2.339012 10.511372,2.257756 15.561136,0.803748 4.419549,-1.225748 7.940688,-4.255355 11.612707,-6.850347 C 43.359739,21.722904 43.264736,10.861315 43.253906,0"
     sodipodi:nodetypes="ccccssccccc"
     inkscape:label="s1" />
  <path
     style="fill:none;stroke:#000000;stroke-width:1px;stroke-linecap:butt;stroke-linejoin:miter;stroke-opacity:1"
     d="m 43.256706,32.526905 c 0.0026,5.090156 0.0093,10.180241 0.0247,15.270178 0.09354,2.772034 0.571143,5.890438 2.888377,7.720948 2.192388,1.912444 5.226226,2.096442 7.996369,2.213674 0.439424,0.02823 0.878849,0.05647 1.318273,0.0847"
     id="path395"
     inkscape:label="s2" />
</svg>
