<svg xmlns="http://www.w3.org/2000/svg" xmlns:xlink="http://www.w3.org/1999/xlink" width="57.1" height="130.4">
    <path
        d="M25.70 72.20L25.70 72.20Q11.10 72.20 4.60 56.70L4.60 56.70Q10.80 54.90 14.35 51.90Q17.90 48.90 17.90 43.80L17.90 43.80Q17.90 39.40 15.10 36.80Q12.30 34.20 7.60 34.20L7.60 34.20Q5.90 34.20 4.75 34.40Q3.60 34.60 2.40 34.80L2.40 34.80L1.10 30.10Q2.40 29.80 4 29.55Q5.60 29.30 7.90 29.30L7.90 29.30Q14.80 29.30 19.05 33.20Q23.30 37.10 23.30 43.80L23.30 43.80Q23.30 49.30 20.25 53.05Q17.20 56.80 11.70 59.30L11.70 59.30Q13.70 62.90 17.10 65.10Q20.50 67.30 25.60 67.30L25.60 67.30Q30.50 67.30 34.60 65.40Q38.70 63.50 41.70 60.40L41.70 60.40L41.70 29.30L47 30.00L47 75.50Q47 78.80 47.50 80.40Q48 82.00 49.30 83.00L49.30 83.00Q50.50 84.10 52.35 84.35Q54.20 84.60 56.60 84.60L56.60 84.60L56.10 89.60L55.10 89.60Q48.50 89.60 45.20 86.60L45.20 86.60Q43.40 85.00 42.55 82.50Q41.70 80 41.70 75.80L41.70 75.80L41.70 66.70Q38.60 69.30 34.60 70.75Q30.60 72.20 25.70 72.20ZM44.40 19.10L44.40 19.10Q42.60 19.10 41.35 17.80Q40.10 16.50 40.10 14.20L40.10 14.20Q40.10 12 41.30 10.70Q42.50 9.40 44.40 9.40L44.40 9.40Q46.30 9.40 47.50 10.70Q48.70 12 48.70 14.20L48.70 14.20Q48.70 16.60 47.45 17.85Q46.20 19.10 44.40 19.10Z" />
      <g
     id="g653"
     inkscape:label="g2">
    <path
       style="display:inline"
       d="m 33.9,9.7 v 0 Q 32.1,9.7 30.85,8.4 29.6,7.1 29.6,4.8 v 0 Q 29.6,2.6 30.8,1.3 32,0 33.9,0 v 0 q 1.9,0 3.1,1.3 1.2,1.3 1.2,3.5 v 0 q 0,2.4 -1.25,3.65 Q 35.7,9.7 33.9,9.7 Z"
       id="path644"
       inkscape:label="p2" />
    <path
       d="m 33.9375,1.3352194 c -0.820403,0 -1.515467,0.3118012 -2.085191,0.9354043 -0.569724,0.6236031 -0.854587,1.7074649 -0.854587,2.5903504 0,1.0553281 0.273468,1.8947931 0.820403,2.5183962 0.546936,0.6236031 1.347168,0.9354042 2.119375,0.9354042 0.865981,0 1.572439,-0.3118011 2.119375,-0.9354042 0.546935,-0.6236031 0.820403,-1.5977735 0.820403,-2.5183962 0,-1.1512668 -0.284863,-2.0267096 -0.854587,-2.6263275 C 35.452967,1.6350287 34.757903,1.3352194 33.9375,1.3352194 Z"
       style="display:inline;stroke-width:0.701376"
       id="path950"
       sodipodi:nodetypes="sssssssss"
       inkscape:label="s3" />
  </g>
    <path id="path329"
        style="fill:none;stroke:#000000;stroke-width:1px;stroke-linecap:butt;stroke-linejoin:miter;stroke-opacity:1"
        d="M 0.00390625,3.2478282 C 4.7980827,2.2332998 10.308624,1.6977166 14.588316,4.61086 c 3.743708,2.3370133 5.304598,6.982828 4.87395,11.222874 -0.24855,4.284069 -3.026243,8.026587 -6.657507,10.147766 -0.950007,0.779375 -2.390478,1.558847 -3.6482051,1.978527 -0.5050866,0.168538 -2.7627705,0.433163 -2.6758262,0.588792 0.1980726,0.354546 0.7304316,1.441151 1.3436357,2.462645 1.7004263,3.418984 4.8590216,5.872737 8.2567996,7.619178 4.800257,2.339012 10.511372,2.257756 15.561136,0.803748 4.419549,-1.225748 7.940688,-4.255355 11.612707,-6.850347 C 43.359739,21.722904 43.264736,10.861315 43.253906,0"
        sodipodi:nodetypes="ccccssccccc" inkscape:label="s1" />
    <path style="fill:none;stroke:#000000;stroke-width:1px;stroke-linecap:butt;stroke-linejoin:miter;stroke-opacity:1"
        d="m 43.256706,32.526905 c 0.0026,5.090156 0.0093,10.180241 0.0247,15.270178 0.09354,2.772034 0.571143,5.890438 2.888377,7.720948 2.192388,1.912444 5.226226,2.096442 7.996369,2.213674 0.439424,0.02823 0.878849,0.05647 1.318273,0.0847"
        id="path395" inkscape:label="s2" />
</svg>