<svg xmlns="http://www.w3.org/2000/svg" xmlns:xlink="http://www.w3.org/1999/xlink" width="79.5" height="130.4"><path d="M25.70 72.20L25.70 72.20Q11.10 72.20 4.60 56.70L4.60 56.70Q10.80 54.90 14.35 51.90Q17.90 48.90 17.90 43.80L17.90 43.80Q17.90 39.40 15.10 36.80Q12.30 34.20 7.60 34.20L7.60 34.20Q5.90 34.20 4.75 34.40Q3.60 34.60 2.40 34.80L2.40 34.80L1.10 30.10Q2.40 29.80 4 29.55Q5.60 29.30 7.90 29.30L7.90 29.30Q14.80 29.30 19.05 33.20Q23.30 37.10 23.30 43.80L23.30 43.80Q23.30 49.30 20.25 53.05Q17.20 56.80 11.70 59.30L11.70 59.30Q13.70 62.90 17.10 65.10Q20.50 67.30 25.60 67.30L25.60 67.30Q30.50 67.30 34.60 65.40Q38.70 63.50 41.70 60.40L41.70 60.40L41.70 29.30L47 30.00L47 75.50Q47 78.80 47.50 80.40Q48 82.00 49.30 83.00L49.30 83.00Q50.50 84.10 52.35 84.35Q54.20 84.60 56.60 84.60L56.60 84.60L56.10 89.60L55.10 89.60Q48.50 89.60 45.20 86.60L45.20 86.60Q43.40 85.00 42.55 82.50Q41.70 80 41.70 75.80L41.70 75.80L41.70 66.70Q38.60 69.30 34.60 70.75Q30.60 72.20 25.70 72.20ZM68.30 51.30L68.30 51.30Q66.50 51.30 65.10 49.95Q63.70 48.60 63.70 46.20L63.70 46.20Q63.70 43.80 65.05 42.45Q66.40 41.10 68.30 41.10L68.30 41.10Q70.30 41.10 71.60 42.45Q72.90 43.80 72.90 46.20L72.90 46.20Q72.90 48.70 71.55 50.00Q70.20 51.30 68.30 51.30ZM68.30 84.60L68.30 84.60Q66.50 84.60 65.10 83.25Q63.70 81.90 63.70 79.50L63.70 79.50Q63.70 77.10 65.05 75.75Q66.40 74.40 68.30 74.40L68.30 74.40Q70.30 74.40 71.60 75.75Q72.90 77.10 72.90 79.50L72.90 79.50Q72.90 82.00 71.55 83.30Q70.20 84.60 68.30 84.60Z"/></svg>