<svg xmlns="http://www.w3.org/2000/svg" xmlns:xlink="http://www.w3.org/1999/xlink" width="82.2" height="130.4"><path d="M24 89.60L23.10 89.60Q20 89.60 17.50 88.95Q15 88.30 13.20 86.60L13.20 86.60Q11.30 84.90 10.50 82.40Q9.70 79.90 9.70 75.80L9.70 75.80L9.70 22.40Q9.70 15.80 11.05 11.70Q12.40 7.60 15.80 4.70L15.80 4.70Q18 2.80 21.15 1.70Q24.30 0.60 28.40 0.60L28.40 0.60Q37.50 0.60 44.75 5.85Q52 11.10 59.30 19.60L59.30 19.60L55.40 22.70Q49 15.10 42.65 10.30Q36.30 5.50 28.70 5.50L28.70 5.50Q22.80 5.50 19.40 8.40L19.40 8.40Q17 10.50 16 14Q15 17.50 15 24.10L15 24.10L15 75.50Q15 78.70 15.50 80.35Q16 82.00 17.20 82.90L17.20 82.90Q18.40 84.10 20.35 84.35Q22.30 84.60 24.60 84.60L24.60 84.60L24 89.60ZM50.80 72.20L50.80 72.20Q36.20 72.20 29.70 56.70L29.70 56.70Q35.90 54.90 39.45 51.90Q43 48.90 43 43.80L43 43.80Q43 39.40 40.20 36.80Q37.40 34.20 32.70 34.20L32.70 34.20Q31 34.20 29.85 34.40Q28.70 34.60 27.50 34.80L27.50 34.80L26.20 30.10Q27.50 29.80 29.10 29.55Q30.70 29.30 33 29.30L33 29.30Q39.90 29.30 44.15 33.20Q48.40 37.10 48.40 43.80L48.40 43.80Q48.40 49.30 45.35 53.05Q42.30 56.80 36.80 59.30L36.80 59.30Q38.80 62.90 42.20 65.10Q45.60 67.30 50.70 67.30L50.70 67.30Q55.60 67.30 59.70 65.40Q63.80 63.50 66.80 60.40L66.80 60.40L66.80 29.30L72.10 30.00L72.10 75.50Q72.10 78.80 72.60 80.40Q73.10 82.00 74.40 83.00L74.40 83.00Q75.60 84.10 77.45 84.35Q79.30 84.60 81.70 84.60L81.70 84.60L81.20 89.60L80.20 89.60Q73.60 89.60 70.30 86.60L70.30 86.60Q68.50 85.00 67.65 82.50Q66.80 80 66.80 75.80L66.80 75.80L66.80 66.70Q63.70 69.30 59.70 70.75Q55.70 72.20 50.80 72.20Z"/></svg>