<?xml version="1.0" encoding="UTF-8" standalone="no"?>
<svg
   width="80.599998"
   height="89"
   version="1.1"
   id="svg418"
   sodipodi:docname="3_yee.svg"
   inkscape:version="1.2.1 (9c6d41e410, 2022-07-14)"
   xmlns:inkscape="http://www.inkscape.org/namespaces/inkscape"
   xmlns:sodipodi="http://sodipodi.sourceforge.net/DTD/sodipodi-0.dtd"
   xmlns="http://www.w3.org/2000/svg"
   xmlns:svg="http://www.w3.org/2000/svg">
  <defs
     id="defs422" />
  <sodipodi:namedview
     id="namedview420"
     pagecolor="#ffffff"
     bordercolor="#666666"
     borderopacity="1.0"
     inkscape:showpageshadow="2"
     inkscape:pageopacity="0.0"
     inkscape:pagecheckerboard="0"
     inkscape:deskcolor="#d1d1d1"
     showgrid="false"
     inkscape:zoom="1.809816"
     inkscape:cx="40.05932"
     inkscape:cy="64.647455"
     inkscape:window-width="1920"
     inkscape:window-height="1027"
     inkscape:window-x="-8"
     inkscape:window-y="-8"
     inkscape:window-maximized="1"
     inkscape:current-layer="svg418" />
  <g
     id="g115"
     inkscape:label="g1"
     transform="matrix(0.99791047,0,0,1,0.09950562,28.700499)">
    <path
       d="m 24.551796,42.9 v 0 Q 9.9212251,42.9 3.4076147,27.4 v 0 q 6.2129822,-1.8 9.7704153,-4.8 3.557434,-3 3.557434,-8.1 v 0 q 0,-4.4 -2.805863,-7 Q 11.123738,4.9 6.4138964,4.9 v 0 Q 4.7103367,4.9 3.5579288,5.1 2.4055208,5.3 1.2030081,5.5 v 0 L -0.09971398,0.8 Q 1.2030081,0.5 2.8063583,0.25 4.4097086,0 6.7145246,0 v 0 q 6.9144484,0 11.1733474,3.9 4.258899,3.9 4.258899,10.6 v 0 q 0,5.5 -3.056387,9.25 -3.056386,3.75 -8.567903,6.25 v 0 q 2.004188,3.6 5.411307,5.8 3.40712,2.2 8.517799,2.2 v 0 q 4.91026,0 9.018845,-1.9 4.108585,-1.9 7.114867,-5 v 0 V 0 l 5.311097,0.7 v 45.5 q 0,3.3 0.501047,4.9 0.501047,1.6 1.803769,2.6 v 0 q 1.202513,1.1 3.056387,1.35 1.853873,0.25 4.258899,0.25 v 0 l -0.501047,5 h -1.002094 q -6.61382,0 -9.92073,-3 v 0 q -1.803769,-1.6 -2.655549,-4.1 -0.851779,-2.5 -0.851779,-6.7 v 0 -9.1 q -3.106492,2.6 -7.114867,4.05 -4.008376,1.45 -8.918636,1.45 z"
       id="path2-4"
       inkscape:label="p1"
       style="stroke-width:1.00105" />
    <path
       id="path329-3"
       style="fill:none;stroke:#000000;stroke-width:1px;stroke-linecap:butt;stroke-linejoin:miter;stroke-opacity:1"
       d="M 0.00390625,3.2478282 C 4.7980827,2.2332998 10.308624,1.6977166 14.588316,4.61086 c 3.743708,2.3370133 5.304598,6.982828 4.87395,11.222874 -0.24855,4.284069 -3.026243,8.026587 -6.657507,10.147766 -0.950007,0.779375 -2.390478,1.558847 -3.6482051,1.978527 -0.5050866,0.168538 -2.7627705,0.433163 -2.6758262,0.588792 0.1980726,0.354546 0.7304316,1.441151 1.3436357,2.462645 1.7004263,3.418984 4.8590216,5.872737 8.2567996,7.619178 4.800257,2.339012 10.511372,2.257756 15.561136,0.803748 4.419549,-1.225748 7.940688,-4.255355 11.612707,-6.850347 C 43.359739,21.722904 43.264736,10.861315 43.253906,0"
       sodipodi:nodetypes="ccccssccccc"
       inkscape:label="s1" />
    <path
       style="fill:none;stroke:#000000;stroke-width:1px;stroke-linecap:butt;stroke-linejoin:miter;stroke-opacity:1"
       d="m 43.256706,32.526905 c 0.0026,5.090156 0.0093,10.180241 0.0247,15.270178 0.09354,2.772034 0.571143,5.890438 2.888377,7.720948 2.192388,1.912444 5.226226,2.096442 7.996369,2.213674 0.439424,0.02823 0.878849,0.05647 1.318273,0.0847"
       id="path395-7"
       inkscape:label="s2" />
  </g>
  <g
     id="g399"
     inkscape:label="g2"
     transform="matrix(0.99899518,0,0,1,9.4296422,0)">
    <path
       style="display:inline"
       d="m 70.7,89 h -1 q -3,0 -5.55,-0.65 Q 61.6,87.7 59.8,86 v 0 Q 56.3,82.7 56.3,75.2 v 0 -46.7 Q 54.9,17.1 51.4,11 47.9,4.9 42.4,4.9 v 0 q -3.6,0 -5.6,2.6 -2,2.6 -2,7.7 v 0 q 0,3.9 0.6,7 v 0 H 30.3 Q 30,20.7 29.75,18.6 29.5,16.5 29.5,14.6 v 0 Q 29.5,8 32.85,4 36.2,0 42.4,0 v 0 q 5.9,0 9.9,3.95 4,3.95 6.25,10.4 2.25,6.45 3.05,13.85 v 0 46.7 q 0,3.3 0.5,4.85 0.5,1.55 1.7,2.55 v 0 Q 65,83.5 67,83.75 69,84 71.2,84 v 0 z"
       id="path330"
       inkscape:label="p2" />
    <path
       style="display:inline;fill:none;stroke:#000000;stroke-width:1px;stroke-linecap:butt;stroke-linejoin:miter;stroke-opacity:1"
       d="M 32.90625,22.296875 C 32.189196,17.24716 31.309374,11.67002 33.948338,7.0048776 36.015851,3.1824285 40.814237,1.7827514 44.871275,2.7018315 c 5.299598,1.0610536 8.634255,5.9944562 10.53375,10.6924095 1.94946,4.911209 3.041647,10.154719 3.53254,15.40287 0.03373,16.081561 -0.05668,32.165472 0.05492,48.245568 0.09206,3.485135 1.641413,7.400064 5.196702,8.60873 2.224083,0.864628 4.672997,0.637872 7.006103,0.85642"
       id="path80"
       inkscape:label="s3" />
  </g>
</svg>
