<svg xmlns="http://www.w3.org/2000/svg" xmlns:xlink="http://www.w3.org/1999/xlink" width="82.2" height="130.4"><path d="M25.70 72.20L25.70 72.20Q11.10 72.20 4.60 56.70L4.60 56.70Q10.80 54.90 14.35 51.90Q17.90 48.90 17.90 43.80L17.90 43.80Q17.90 39.40 15.10 36.80Q12.30 34.20 7.60 34.20L7.60 34.20Q5.90 34.20 4.75 34.40Q3.60 34.60 2.40 34.80L2.40 34.80L1.10 30.10Q2.40 29.80 4 29.55Q5.60 29.30 7.90 29.30L7.90 29.30Q14.80 29.30 19.05 33.20Q23.30 37.10 23.30 43.80L23.30 43.80Q23.30 49.30 20.25 53.05Q17.20 56.80 11.70 59.30L11.70 59.30Q13.70 62.90 17.10 65.10Q20.50 67.30 25.60 67.30L25.60 67.30Q30.50 67.30 34.60 65.40Q38.70 63.50 41.70 60.40L41.70 60.40L41.70 29.30L47 30.00L47 75.50Q47 78.80 47.50 80.40Q48 82.00 49.30 83.00L49.30 83.00Q50.50 84.10 52.35 84.35Q54.20 84.60 56.60 84.60L56.60 84.60L56.10 89.60L55.10 89.60Q48.50 89.60 45.20 86.60L45.20 86.60Q43.40 85.00 42.55 82.50Q41.70 80 41.70 75.80L41.70 75.80L41.70 66.70Q38.60 69.30 34.60 70.75Q30.60 72.20 25.70 72.20ZM81.20 89.60L80.20 89.60Q77.20 89.60 74.65 88.95Q72.10 88.30 70.30 86.60L70.30 86.60Q66.80 83.30 66.80 75.80L66.80 75.80L66.80 29.10Q65.40 17.70 61.90 11.60Q58.40 5.50 52.90 5.50L52.90 5.50Q49.30 5.50 47.30 8.10Q45.30 10.70 45.30 15.80L45.30 15.80Q45.30 19.70 45.90 22.80L45.90 22.80L40.80 22.80Q40.50 21.30 40.25 19.20Q40 17.10 40 15.20L40 15.20Q40 8.60 43.35 4.60Q46.70 0.60 52.90 0.60L52.90 0.60Q58.80 0.60 62.80 4.55Q66.80 8.50 69.05 14.95Q71.30 21.40 72.10 28.80L72.10 28.80L72.10 75.50Q72.10 78.80 72.60 80.35Q73.10 81.90 74.30 82.90L74.30 82.90Q75.50 84.10 77.50 84.35Q79.50 84.60 81.70 84.60L81.70 84.60L81.20 89.60Z"/></svg>