<svg xmlns="http://www.w3.org/2000/svg" xmlns:xlink="http://www.w3.org/1999/xlink" width="57.1" height="130.4"><path d="M25.70 72.20L25.70 72.20Q11.10 72.20 4.60 56.70L4.60 56.70Q10.80 54.90 14.35 51.90Q17.90 48.90 17.90 43.80L17.90 43.80Q17.90 39.40 15.10 36.80Q12.30 34.20 7.60 34.20L7.60 34.20Q5.90 34.20 4.75 34.40Q3.60 34.60 2.40 34.80L2.40 34.80L1.10 30.10Q2.40 29.80 4 29.55Q5.60 29.30 7.90 29.30L7.90 29.30Q14.80 29.30 19.05 33.20Q23.30 37.10 23.30 43.80L23.30 43.80Q23.30 49.30 20.25 53.05Q17.20 56.80 11.70 59.30L11.70 59.30Q13.70 62.90 17.10 65.10Q20.50 67.30 25.60 67.30L25.60 67.30Q30.50 67.30 34.60 65.40Q38.70 63.50 41.70 60.40L41.70 60.40L41.70 29.30L47 30.00L47 75.50Q47 78.80 47.50 80.40Q48 82.00 49.30 83.00L49.30 83.00Q50.50 84.10 52.35 84.35Q54.20 84.60 56.60 84.60L56.60 84.60L56.10 89.60L55.10 89.60Q48.50 89.60 45.20 86.60L45.20 86.60Q43.40 85.00 42.55 82.50Q41.70 80 41.70 75.80L41.70 75.80L41.70 66.70Q38.60 69.30 34.60 70.75Q30.60 72.20 25.70 72.20ZM41.40 116.30L41.40 116.30Q34.80 116.30 29.65 114.05Q24.50 111.80 20.35 108.00Q16.20 104.20 12.70 99.40L12.70 99.40L16.90 96.50Q22 103.20 27.60 107.30Q33.20 111.40 41.40 111.40L41.40 111.40Q47.10 111.40 50.10 109.20Q53.10 107.00 53.10 102.70L53.10 102.70Q53.10 98.80 50.50 96.80Q47.90 94.80 43.50 94.80L43.50 94.80Q41 94.80 38.80 95.35Q36.60 95.90 34.40 96.80L34.40 96.80L32.60 92.30Q35.20 91.20 37.80 90.65Q40.40 90.10 43.20 90.10L43.20 90.10Q50.30 90.10 54.20 93.65Q58.10 97.20 58.10 103.10L58.10 103.10Q58.10 109.30 53.65 112.80Q49.20 116.30 41.40 116.30Z"/></svg>