<svg xmlns="http://www.w3.org/2000/svg" xmlns:xlink="http://www.w3.org/1999/xlink" width="57.1" height="130.4">
    <path
        d="M25.70 72.20L25.70 72.20Q11.10 72.20 4.60 56.70L4.60 56.70Q10.80 54.90 14.35 51.90Q17.90 48.90 17.90 43.80L17.90 43.80Q17.90 39.40 15.10 36.80Q12.30 34.20 7.60 34.20L7.60 34.20Q5.90 34.20 4.75 34.40Q3.60 34.60 2.40 34.80L2.40 34.80L1.10 30.10Q2.40 29.80 4 29.55Q5.60 29.30 7.90 29.30L7.90 29.30Q14.80 29.30 19.05 33.20Q23.30 37.10 23.30 43.80L23.30 43.80Q23.30 49.30 20.25 53.05Q17.20 56.80 11.70 59.30L11.70 59.30Q13.70 62.90 17.10 65.10Q20.50 67.30 25.60 67.30L25.60 67.30Q30.50 67.30 34.60 65.40Q38.70 63.50 41.70 60.40L41.70 60.40L41.70 29.30L47 30.00L47 75.50Q47 78.80 47.50 80.40Q48 82.00 49.30 83.00L49.30 83.00Q50.50 84.10 52.35 84.35Q54.20 84.60 56.60 84.60L56.60 84.60L56.10 89.60L55.10 89.60Q48.50 89.60 45.20 86.60L45.20 86.60Q43.40 85.00 42.55 82.50Q41.70 80 41.70 75.80L41.70 75.80L41.70 66.70Q38.60 69.30 34.60 70.75Q30.60 72.20 25.70 72.20ZM41.40 116.30L41.40 116.30Q34.80 116.30 29.65 114.05Q24.50 111.80 20.35 108.00Q16.20 104.20 12.70 99.40L12.70 99.40L16.90 96.50Q22 103.20 27.60 107.30Q33.20 111.40 41.40 111.40L41.40 111.40Q47.10 111.40 50.10 109.20Q53.10 107.00 53.10 102.70L53.10 102.70Q53.10 98.80 50.50 96.80Q47.90 94.80 43.50 94.80L43.50 94.80Q41 94.80 38.80 95.35Q36.60 95.90 34.40 96.80L34.40 96.80L32.60 92.30Q35.20 91.20 37.80 90.65Q40.40 90.10 43.20 90.10L43.20 90.10Q50.30 90.10 54.20 93.65Q58.10 97.20 58.10 103.10L58.10 103.10Q58.10 109.30 53.65 112.80Q49.20 116.30 41.40 116.30Z" />
      <g
     id="g429"
     inkscape:label="g2">
    <path
       style="display:inline"
       d="m 30.9,87 v 0 Q 24.3,87 19.15,84.75 14,82.5 9.85,78.7 5.7,74.9 2.2,70.1 v 0 l 4.2,-2.9 q 5.1,6.7 10.7,10.8 5.6,4.1 13.8,4.1 v 0 q 5.7,0 8.7,-2.2 3,-2.2 3,-6.5 v 0 q 0,-3.9 -2.6,-5.9 -2.6,-2 -7,-2 v 0 q -2.5,0 -4.7,0.55 -2.2,0.55 -4.4,1.45 v 0 L 22.1,63 q 2.6,-1.1 5.2,-1.65 2.6,-0.55 5.4,-0.55 v 0 q 7.1,0 11,3.55 3.9,3.55 3.9,9.45 v 0 q 0,6.2 -4.45,9.7 Q 38.7,87 30.9,87 Z"
       id="path420"
       inkscape:label="p2" />
    <path
       style="display:inline;fill:none;stroke:#000000;stroke-width:1px;stroke-linecap:butt;stroke-linejoin:miter;stroke-opacity:1"
       d="m 22.914062,65.289062 c 2.323807,-0.692195 4.562347,-1.731347 7.000658,-1.966609 3.549036,-0.376084 7.376537,-0.234926 10.53575,1.599631 2.719286,1.540051 4.469061,4.52798 4.601284,7.636307 0.253017,2.845818 -0.456653,5.883237 -2.460912,7.998761 -2.433486,2.67518 -6.157635,3.68678 -9.656459,3.920638 C 27.700261,84.79836 22.284886,83.938844 17.69019,81.310728 14.906965,79.755209 12.447616,77.671348 10.188095,75.437432 8.1199862,73.202596 6.1412982,70.891325 4.1757812,68.566406"
       id="path198"
       inkscape:label="s3" />
  </g>
    <path id="path329"
        style="fill:none;stroke:#000000;stroke-width:1px;stroke-linecap:butt;stroke-linejoin:miter;stroke-opacity:1"
        d="M 0.00390625,3.2478282 C 4.7980827,2.2332998 10.308624,1.6977166 14.588316,4.61086 c 3.743708,2.3370133 5.304598,6.982828 4.87395,11.222874 -0.24855,4.284069 -3.026243,8.026587 -6.657507,10.147766 -0.950007,0.779375 -2.390478,1.558847 -3.6482051,1.978527 -0.5050866,0.168538 -2.7627705,0.433163 -2.6758262,0.588792 0.1980726,0.354546 0.7304316,1.441151 1.3436357,2.462645 1.7004263,3.418984 4.8590216,5.872737 8.2567996,7.619178 4.800257,2.339012 10.511372,2.257756 15.561136,0.803748 4.419549,-1.225748 7.940688,-4.255355 11.612707,-6.850347 C 43.359739,21.722904 43.264736,10.861315 43.253906,0"
        sodipodi:nodetypes="ccccssccccc" inkscape:label="s1" />
    <path style="fill:none;stroke:#000000;stroke-width:1px;stroke-linecap:butt;stroke-linejoin:miter;stroke-opacity:1"
        d="m 43.256706,32.526905 c 0.0026,5.090156 0.0093,10.180241 0.0247,15.270178 0.09354,2.772034 0.571143,5.890438 2.888377,7.720948 2.192388,1.912444 5.226226,2.096442 7.996369,2.213674 0.439424,0.02823 0.878849,0.05647 1.318273,0.0847"
        id="path395" inkscape:label="s2" />
</svg>