<svg xmlns="http://www.w3.org/2000/svg" xmlns:xlink="http://www.w3.org/1999/xlink" width="57.1" height="130.4"><path d="M25.70 72.20L25.70 72.20Q11.10 72.20 4.60 56.70L4.60 56.70Q10.80 54.90 14.35 51.90Q17.90 48.90 17.90 43.80L17.90 43.80Q17.90 39.40 15.10 36.80Q12.30 34.20 7.60 34.20L7.60 34.20Q5.90 34.20 4.75 34.40Q3.60 34.60 2.40 34.80L2.40 34.80L1.10 30.10Q2.40 29.80 4 29.55Q5.60 29.30 7.90 29.30L7.90 29.30Q14.80 29.30 19.05 33.20Q23.30 37.10 23.30 43.80L23.30 43.80Q23.30 49.30 20.25 53.05Q17.20 56.80 11.70 59.30L11.70 59.30Q13.70 62.90 17.10 65.10Q20.50 67.30 25.60 67.30L25.60 67.30Q30.50 67.30 34.60 65.40Q38.70 63.50 41.70 60.40L41.70 60.40L41.70 29.30L47 30.00L47 75.50Q47 78.80 47.50 80.40Q48 82.00 49.30 83.00L49.30 83.00Q50.50 84.10 52.35 84.35Q54.20 84.60 56.60 84.60L56.60 84.60L56.10 89.60L55.10 89.60Q48.50 89.60 45.20 86.60L45.20 86.60Q43.40 85.00 42.55 82.50Q41.70 80 41.70 75.80L41.70 75.80L41.70 66.70Q38.60 69.30 34.60 70.75Q30.60 72.20 25.70 72.20ZM39.60 116.10L39.60 116.10Q32.50 116.10 28.60 112.50Q24.70 108.90 24.70 103.00L24.70 103.00Q24.70 97.60 28.80 93.85Q32.90 90.10 40.80 90.10L40.80 90.10Q48.10 90.10 53.45 92.85Q58.80 95.60 62.90 99.95Q67 104.30 70.40 109.20L70.40 109.20L66.30 111.90Q62.60 106.80 58.95 102.95Q55.30 99.10 50.95 96.95Q46.60 94.80 41 94.80L41 94.80Q35.20 94.80 32.45 97.15Q29.70 99.50 29.70 103.10L29.70 103.10Q29.70 107.30 32.40 109.25Q35.10 111.20 39.30 111.20L39.30 111.20Q42 111.20 44.25 110.65Q46.50 110.10 48.70 109.10L48.70 109.10L50.40 113.90Q47.80 114.90 45.10 115.50Q42.40 116.10 39.60 116.10Z"/></svg>