<svg xmlns="http://www.w3.org/2000/svg" xmlns:xlink="http://www.w3.org/1999/xlink" width="57.1" height="130.4"><path d="M25.70 72.20L25.70 72.20Q11.10 72.20 4.60 56.70L4.60 56.70Q10.80 54.90 14.35 51.90Q17.90 48.90 17.90 43.80L17.90 43.80Q17.90 39.40 15.10 36.80Q12.30 34.20 7.60 34.20L7.60 34.20Q5.90 34.20 4.75 34.40Q3.60 34.60 2.40 34.80L2.40 34.80L1.10 30.10Q2.40 29.80 4 29.55Q5.60 29.30 7.90 29.30L7.90 29.30Q14.80 29.30 19.05 33.20Q23.30 37.10 23.30 43.80L23.30 43.80Q23.30 49.30 20.25 53.05Q17.20 56.80 11.70 59.30L11.70 59.30Q13.70 62.90 17.10 65.10Q20.50 67.30 25.60 67.30L25.60 67.30Q30.50 67.30 34.60 65.40Q38.70 63.50 41.70 60.40L41.70 60.40L41.70 29.30L47 30.00L47 75.50Q47 78.80 47.50 80.40Q48 82.00 49.30 83.00L49.30 83.00Q50.50 84.10 52.35 84.35Q54.20 84.60 56.60 84.60L56.60 84.60L56.10 89.60L55.10 89.60Q48.50 89.60 45.20 86.60L45.20 86.60Q43.40 85.00 42.55 82.50Q41.70 80 41.70 75.80L41.70 75.80L41.70 66.70Q38.60 69.30 34.60 70.75Q30.60 72.20 25.70 72.20ZM46.60 25.50L42.20 25.50Q40.30 17.70 38.45 13.15Q36.60 8.60 34.15 6.70Q31.70 4.80 27.90 4.80L27.90 4.80Q26.70 4.80 25.35 5Q24 5.20 22.50 5.70L22.50 5.70L21 1.10Q22.90 0.50 24.70 0.25Q26.50 0 28.20 0L28.20 0Q32.80 0 36.15 2.25Q39.50 4.50 42 10.05Q44.50 15.60 46.60 25.50L46.60 25.50ZM41.30 23.70L38.50 26.60Q32.40 21.20 28.20 18.85Q24 16.50 19.10 16.50L19.10 16.50Q15.60 16.50 12.70 17.40L12.70 17.40L11.20 12.70Q13 12.30 14.95 12Q16.90 11.70 19.10 11.70L19.10 11.70Q22.90 11.70 26.25 12.90Q29.60 14.10 33.15 16.75Q36.70 19.40 41.30 23.70L41.30 23.70Z"/></svg>