<svg xmlns="http://www.w3.org/2000/svg" xmlns:xlink="http://www.w3.org/1999/xlink" width="57.1" height="130.4">
    <path
        d="M25.70 72.20L25.70 72.20Q11.10 72.20 4.60 56.70L4.60 56.70Q10.80 54.90 14.35 51.90Q17.90 48.90 17.90 43.80L17.90 43.80Q17.90 39.40 15.10 36.80Q12.30 34.20 7.60 34.20L7.60 34.20Q5.90 34.20 4.75 34.40Q3.60 34.60 2.40 34.80L2.40 34.80L1.10 30.10Q2.40 29.80 4 29.55Q5.60 29.30 7.90 29.30L7.90 29.30Q14.80 29.30 19.05 33.20Q23.30 37.10 23.30 43.80L23.30 43.80Q23.30 49.30 20.25 53.05Q17.20 56.80 11.70 59.30L11.70 59.30Q13.70 62.90 17.10 65.10Q20.50 67.30 25.60 67.30L25.60 67.30Q30.50 67.30 34.60 65.40Q38.70 63.50 41.70 60.40L41.70 60.40L41.70 29.30L47 30.00L47 75.50Q47 78.80 47.50 80.40Q48 82.00 49.30 83.00L49.30 83.00Q50.50 84.10 52.35 84.35Q54.20 84.60 56.60 84.60L56.60 84.60L56.10 89.60L55.10 89.60Q48.50 89.60 45.20 86.60L45.20 86.60Q43.40 85.00 42.55 82.50Q41.70 80 41.70 75.80L41.70 75.80L41.70 66.70Q38.60 69.30 34.60 70.75Q30.60 72.20 25.70 72.20ZM46.60 25.50L42.20 25.50Q40.30 17.70 38.45 13.15Q36.60 8.60 34.15 6.70Q31.70 4.80 27.90 4.80L27.90 4.80Q26.70 4.80 25.35 5Q24 5.20 22.50 5.70L22.50 5.70L21 1.10Q22.90 0.50 24.70 0.25Q26.50 0 28.20 0L28.20 0Q32.80 0 36.15 2.25Q39.50 4.50 42 10.05Q44.50 15.60 46.60 25.50L46.60 25.50ZM41.30 23.70L38.50 26.60Q32.40 21.20 28.20 18.85Q24 16.50 19.10 16.50L19.10 16.50Q15.60 16.50 12.70 17.40L12.70 17.40L11.20 12.70Q13 12.30 14.95 12Q16.90 11.70 19.10 11.70L19.10 11.70Q22.90 11.70 26.25 12.90Q29.60 14.10 33.15 16.75Q36.70 19.40 41.30 23.70L41.30 23.70Z" />
      <g
     id="g522"
     inkscape:label="g2">
    <path
       style="display:inline"
       d="M 30.8,23.7 28,26.6 Q 21.9,21.2 17.7,18.85 13.5,16.5 8.6,16.5 v 0 q -3.5,0 -6.4,0.9 v 0 L 0.7,12.7 Q 2.5,12.3 4.45,12 6.4,11.7 8.6,11.7 v 0 q 3.8,0 7.15,1.2 3.35,1.2 6.9,3.85 3.55,2.65 8.15,6.95 z"
       id="path513"
       inkscape:label="p2" />
    <path
       style="display:inline;fill:none;stroke:#000000;stroke-width:1px;stroke-linecap:butt;stroke-linejoin:miter;stroke-opacity:1"
       d="m 1.2484854,15.037068 c 2.0296352,-0.33742 4.0471341,-0.823273 6.106769,-0.926121 1.7144665,-0.03627 3.4419196,-0.0066 5.1213336,0.377952 1.626492,0.286246 3.200444,0.851561 4.696094,1.542318 3.239677,1.543111 6.000222,3.881137 8.751411,6.145612 1.177108,1.030396 2.354216,2.060791 3.531324,3.091187"
       id="path660"
       inkscape:label="s3" />
  </g>
  <g
     id="g526"
     inkscape:label="g3">
    <path
       style="display:inline"
       d="M 36.1,25.5 H 31.7 Q 29.8,17.7 27.95,13.15 26.1,8.6 23.65,6.7 21.2,4.8 17.4,4.8 v 0 Q 16.2,4.8 14.85,5 13.5,5.2 12,5.7 v 0 L 10.5,1.1 Q 12.4,0.5 14.2,0.25 16,0 17.7,0 v 0 q 4.6,0 7.95,2.25 3.35,2.25 5.85,7.8 2.5,5.55 4.6,15.45 z"
       id="path511"
       inkscape:label="p3" />
    <path
       style="display:inline;fill:none;stroke:#000000;stroke-width:1px;stroke-linecap:butt;stroke-linejoin:miter;stroke-opacity:1"
       d="m 11.023437,3.453125 c 2.182778,-0.4976057 4.36528,-1.1946393 6.631852,-1.0710196 2.053103,-0.044291 4.123749,0.4216957 5.902797,1.4638298 1.290672,0.6572076 2.43165,1.6018918 3.277933,2.7802163 1.787546,2.2624393 2.976329,4.9290225 3.905851,7.6409995 1.112879,3.208175 2.009172,6.487831 2.71558,9.809147 0.117031,0.515091 0.234062,1.030183 0.351093,1.545274"
       id="path662"
       inkscape:label="s4" />
  </g>
    <path id="path329"
        style="fill:none;stroke:#000000;stroke-width:1px;stroke-linecap:butt;stroke-linejoin:miter;stroke-opacity:1"
        d="M 0.00390625,3.2478282 C 4.7980827,2.2332998 10.308624,1.6977166 14.588316,4.61086 c 3.743708,2.3370133 5.304598,6.982828 4.87395,11.222874 -0.24855,4.284069 -3.026243,8.026587 -6.657507,10.147766 -0.950007,0.779375 -2.390478,1.558847 -3.6482051,1.978527 -0.5050866,0.168538 -2.7627705,0.433163 -2.6758262,0.588792 0.1980726,0.354546 0.7304316,1.441151 1.3436357,2.462645 1.7004263,3.418984 4.8590216,5.872737 8.2567996,7.619178 4.800257,2.339012 10.511372,2.257756 15.561136,0.803748 4.419549,-1.225748 7.940688,-4.255355 11.612707,-6.850347 C 43.359739,21.722904 43.264736,10.861315 43.253906,0"
        sodipodi:nodetypes="ccccssccccc" inkscape:label="s1" />
    <path style="fill:none;stroke:#000000;stroke-width:1px;stroke-linecap:butt;stroke-linejoin:miter;stroke-opacity:1"
        d="m 43.256706,32.526905 c 0.0026,5.090156 0.0093,10.180241 0.0247,15.270178 0.09354,2.772034 0.571143,5.890438 2.888377,7.720948 2.192388,1.912444 5.226226,2.096442 7.996369,2.213674 0.439424,0.02823 0.878849,0.05647 1.318273,0.0847"
        id="path395" inkscape:label="s2" />
</svg>