<svg xmlns="http://www.w3.org/2000/svg" xmlns:xlink="http://www.w3.org/1999/xlink" width="82.2" height="130.4"><path d="M25.70 72.20L25.70 72.20Q11.10 72.20 4.60 56.70L4.60 56.70Q10.80 54.90 14.35 51.90Q17.90 48.90 17.90 43.80L17.90 43.80Q17.90 39.40 15.10 36.80Q12.30 34.20 7.60 34.20L7.60 34.20Q5.90 34.20 4.75 34.40Q3.60 34.60 2.40 34.80L2.40 34.80L1.10 30.10Q2.40 29.80 4 29.55Q5.60 29.30 7.90 29.30L7.90 29.30Q14.80 29.30 19.05 33.20Q23.30 37.10 23.30 43.80L23.30 43.80Q23.30 49.30 20.25 53.05Q17.20 56.80 11.70 59.30L11.70 59.30Q13.70 62.90 17.10 65.10Q20.50 67.30 25.60 67.30L25.60 67.30Q30.50 67.30 34.60 65.40Q38.70 63.50 41.70 60.40L41.70 60.40L41.70 29.30L47 30.00L47 75.50Q47 78.80 47.50 80.40Q48 82.00 49.30 83.00L49.30 83.00Q50.50 84.10 52.35 84.35Q54.20 84.60 56.60 84.60L56.60 84.60L56.10 89.60L55.10 89.60Q48.50 89.60 45.20 86.60L45.20 86.60Q43.40 85.00 42.55 82.50Q41.70 80 41.70 75.80L41.70 75.80L41.70 66.70Q38.60 69.30 34.60 70.75Q30.60 72.20 25.70 72.20ZM81.20 89.60L80.20 89.60Q73.60 89.60 70.30 86.60L70.30 86.60Q68.50 85.00 67.65 82.50Q66.80 80 66.80 75.80L66.80 75.80L66.80 29.30L72.10 30.00L72.10 75.50Q72.10 78.80 72.60 80.40Q73.10 82.00 74.40 83.00L74.40 83.00Q75.60 84.10 77.45 84.35Q79.30 84.60 81.70 84.60L81.70 84.60L81.20 89.60ZM71.70 25.50L67.30 25.50Q65.40 17.70 63.55 13.15Q61.70 8.60 59.25 6.70Q56.80 4.80 53 4.80L53 4.80Q51.80 4.80 50.45 5Q49.10 5.20 47.60 5.70L47.60 5.70L46.10 1.10Q48 0.50 49.80 0.25Q51.60 0 53.30 0L53.30 0Q57.90 0 61.25 2.25Q64.60 4.50 67.10 10.05Q69.60 15.60 71.70 25.50L71.70 25.50ZM66.40 23.70L63.60 26.60Q57.50 21.20 53.30 18.85Q49.10 16.50 44.20 16.50L44.20 16.50Q40.70 16.50 37.80 17.40L37.80 17.40L36.30 12.70Q38.10 12.30 40.05 12Q42 11.70 44.20 11.70L44.20 11.70Q48 11.70 51.35 12.90Q54.70 14.10 58.25 16.75Q61.80 19.40 66.40 23.70L66.40 23.70Z"/></svg>