<?xml version="1.0" encoding="UTF-8" standalone="no"?>
<svg
   width="64.699997"
   height="60.299999"
   version="1.1"
   id="svg4"
   sodipodi:docname="0_s.svg"
   inkscape:version="1.2.1 (9c6d41e410, 2022-07-14)"
   xmlns:inkscape="http://www.inkscape.org/namespaces/inkscape"
   xmlns:sodipodi="http://sodipodi.sourceforge.net/DTD/sodipodi-0.dtd"
   xmlns="http://www.w3.org/2000/svg"
   xmlns:svg="http://www.w3.org/2000/svg">
  <defs
     id="defs8" />
  <sodipodi:namedview
     id="namedview6"
     pagecolor="#ffffff"
     bordercolor="#666666"
     borderopacity="1.0"
     inkscape:showpageshadow="2"
     inkscape:pageopacity="0.0"
     inkscape:pagecheckerboard="0"
     inkscape:deskcolor="#d1d1d1"
     showgrid="false"
     inkscape:zoom="8"
     inkscape:cx="10.8125"
     inkscape:cy="36.125"
     inkscape:window-width="1920"
     inkscape:window-height="1027"
     inkscape:window-x="-8"
     inkscape:window-y="-8"
     inkscape:window-maximized="1"
     inkscape:current-layer="svg4" />
  <path
     d="M 38.4,60.3 H 36.9 Q 31.1,60.3 26.5,57.65 21.9,55 18.05,50.5 14.2,46 10.7,40.5 v 0 q -1.2,0 -2.3,0 v 0 q -8.3,0 -8.3,-5.1 v 0 q 0,-2 1.35,-3.1 1.35,-1.1 3.75,-1.1 v 0 q 2,0 4,0.85 2,0.85 4.2,2.85 v 0 Q 19.7,33.6 24,29.45 28.3,25.3 28.3,18.7 v 0 Q 28.3,12.1 24.55,8.55 20.8,5 14.5,5 V 5 Q 8.7,5 1.8,8 V 8 L 0,3.3 Q 3.6,1.8 7.35,0.9 11.1,0 14.7,0 v 0 q 8.5,0 13.75,4.9 5.25,4.9 5.25,13.7 v 0 q 0,3.2 -0.9,6.1 v 0 q 3,1.2 6.4,1.2 v 0 q 3.3,0 5.7,-0.7 2.4,-0.7 4.9,-2.3 v 0 V 0 l 5.3,0.8 v 45.4 q 0,3.2 0.5,4.85 0.5,1.65 1.7,2.55 v 0 q 1.2,1.2 3.15,1.45 1.95,0.25 4.25,0.25 v 0 l -0.6,5 h -0.9 q -3.1,0 -5.6,-0.65 Q 55.1,59 53.3,57.3 v 0 q -1.9,-1.7 -2.7,-4.2 -0.8,-2.5 -0.8,-6.6 v 0 -18.2 q -2.3,1.3 -4.75,1.85 -2.45,0.55 -5.75,0.55 v 0 Q 37.2,30.7 35,30.3 32.8,29.9 30.9,29 v 0 q -2.3,4 -6.2,6.7 -3.9,2.7 -8.7,3.9 v 0 q 3.9,5.8 7.2,9.2 3.3,3.4 6.7,4.9 3.4,1.5 7.6,1.5 v 0 H 39 Z"
     id="path2"
     inkscape:label="p1" />
  <path
     style="fill:none;stroke:#000000;stroke-width:1px;stroke-linecap:butt;stroke-linejoin:miter;stroke-opacity:1"
     d="M 0.94624216,5.7690248 C 7.631373,2.8810914 15.578666,0.97157336 22.533445,4.0724425 c 5.108916,2.1496621 8.257264,7.5315065 8.425423,12.9652175 0.427436,5.272064 -1.334055,10.749138 -5.251145,14.400195 -4.620118,4.532002 -11.214792,6.508684 -17.5640162,6.614233 -1.9828211,-0.146625 -6.059372,-0.149005 -5.4317643,-3.124054 1.4058622,-2.359487 5.3452686,-0.771918 7.2320392,0.399418 2.8988863,3.002002 4.5147993,6.974752 7.2126003,10.149263 4.013799,5.28556 9.092501,10.740916 15.963874,11.839896 1.840559,0.307467 3.707502,0.392494 5.565579,0.532358"
     id="path358"
     sodipodi:nodetypes="cccccccccccccc"
     inkscape:label="s1" />
  <path
     style="fill:none;stroke:#000000;stroke-width:1px;stroke-linecap:butt;stroke-linejoin:miter;stroke-opacity:1"
     d="m 31.441406,26.667969 c 3.656572,1.718061 7.839958,1.897265 11.787906,1.362751 2.195776,-0.314088 4.284304,-1.13355 6.215845,-2.205322 0.525672,-0.274182 1.051345,-0.548363 1.577017,-0.822545"
     id="path360"
     inkscape:label="s2"
     sodipodi:nodetypes="ccccc" />
  <path
     style="fill:none;stroke:#000000;stroke-width:1px;stroke-linecap:butt;stroke-linejoin:miter;stroke-opacity:1"
     d="m 52.464009,0 c 0.01863,15.96103 -0.03083,31.923084 0.03097,47.883474 0.07355,2.767423 0.604772,5.858015 2.901807,7.685433 2.034774,1.851093 4.894464,2.047336 7.507849,2.143361 0.594269,0.03602 1.188537,0.07203 1.782806,0.108049"
     id="path362"
     inkscape:label="s3" />
</svg>
