<svg xmlns="http://www.w3.org/2000/svg" xmlns:xlink="http://www.w3.org/1999/xlink" width="90.60000000000001"
    height="130.4">
    <path
        d="M41.40 89.60L39.90 89.60Q34.10 89.60 29.50 86.95Q24.90 84.30 21.05 79.80Q17.20 75.30 13.70 69.80L13.70 69.80Q12.50 69.80 11.40 69.80L11.40 69.80Q3.10 69.80 3.10 64.70L3.10 64.70Q3.10 62.70 4.45 61.60Q5.80 60.50 8.20 60.50L8.20 60.50Q10.20 60.50 12.20 61.35Q14.20 62.20 16.40 64.20L16.40 64.20Q22.70 62.90 27 58.75Q31.30 54.60 31.30 48.00L31.30 48.00Q31.30 41.40 27.55 37.85Q23.80 34.30 17.50 34.30L17.50 34.30Q11.70 34.30 4.80 37.30L4.80 37.30L3 32.60Q6.60 31.10 10.35 30.20Q14.10 29.30 17.70 29.30L17.70 29.30Q26.20 29.30 31.45 34.20Q36.70 39.10 36.70 47.90L36.70 47.90Q36.70 51.10 35.80 54.00L35.80 54.00Q38.80 55.20 42.20 55.20L42.20 55.20Q45.50 55.20 47.90 54.50Q50.30 53.80 52.80 52.20L52.80 52.20L52.80 29.30L58.10 30.10L58.10 75.50Q58.10 78.70 58.60 80.35Q59.10 82.00 60.30 82.90L60.30 82.90Q61.50 84.10 63.45 84.35Q65.40 84.60 67.70 84.60L67.70 84.60L67.10 89.60L66.20 89.60Q63.10 89.60 60.60 88.95Q58.10 88.30 56.30 86.60L56.30 86.60Q54.40 84.90 53.60 82.40Q52.80 79.90 52.80 75.80L52.80 75.80L52.80 57.60Q50.50 58.90 48.05 59.45Q45.60 60.00 42.30 60.00L42.30 60.00Q40.20 60.00 38 59.60Q35.80 59.20 33.90 58.30L33.90 58.30Q31.60 62.30 27.70 65Q23.80 67.70 19 68.90L19 68.90Q22.90 74.70 26.20 78.10Q29.50 81.50 32.90 83.00Q36.30 84.50 40.50 84.50L40.50 84.50L42 84.50L41.40 89.60ZM79.40 51.30L79.40 51.30Q77.60 51.30 76.20 49.95Q74.80 48.60 74.80 46.20L74.80 46.20Q74.80 43.80 76.15 42.45Q77.50 41.10 79.40 41.10L79.40 41.10Q81.40 41.10 82.70 42.45Q84 43.80 84 46.20L84 46.20Q84 48.70 82.65 50.00Q81.30 51.30 79.40 51.30ZM79.40 84.60L79.40 84.60Q77.60 84.60 76.20 83.25Q74.80 81.90 74.80 79.50L74.80 79.50Q74.80 77.10 76.15 75.75Q77.50 74.40 79.40 74.40L79.40 74.40Q81.40 74.40 82.70 75.75Q84 77.10 84 79.50L84 79.50Q84 82.00 82.65 83.30Q81.30 84.60 79.40 84.60Z" />
     <g
     id="g686"
     inkscape:label="g2">
    <path
       style="display:inline"
       d="m 57.8,22 v 0 Q 56,22 54.6,20.65 53.2,19.3 53.2,16.9 v 0 q 0,-2.4 1.35,-3.75 1.35,-1.35 3.25,-1.35 v 0 q 2,0 3.3,1.35 1.3,1.35 1.3,3.75 v 0 q 0,2.5 -1.35,3.8 Q 59.7,22 57.8,22 Z"
       id="path675"
       inkscape:label="p2" />
    <path
       d="m 57.837008,13.391934 c -0.820403,0 -1.515467,0.311801 -2.085191,0.935405 -0.569724,0.623603 -0.854587,1.707464 -0.854587,2.59035 0,1.055328 0.273468,1.894793 0.820403,2.518396 0.546936,0.623603 1.347168,0.935404 2.119375,0.935404 0.865981,0 1.572439,-0.311801 2.119375,-0.935404 0.546935,-0.623603 0.820403,-1.597773 0.820403,-2.518396 0,-1.151267 -0.284863,-2.02671 -0.854587,-2.626328 -0.569724,-0.599617 -1.264788,-0.899427 -2.085191,-0.899427 z"
       style="display:inline;stroke-width:0.701376"
       id="path950"
       sodipodi:nodetypes="sssssssss"
       inkscape:label="s3" />
  </g>
  <g
     id="g690"
     inkscape:label="g3">
    <path
       style="display:inline"
       d="m 57.8,55.3 v 0 Q 56,55.3 54.6,53.95 53.2,52.6 53.2,50.2 v 0 q 0,-2.4 1.35,-3.75 1.35,-1.35 3.25,-1.35 v 0 q 2,0 3.3,1.35 1.3,1.35 1.3,3.75 v 0 q 0,2.5 -1.35,3.8 -1.35,1.3 -3.25,1.3 z"
       id="path677"
       inkscape:label="p3" />
    <path
       d="m 57.836778,46.680782 c -0.820403,0 -1.515467,0.311801 -2.085191,0.935405 -0.569724,0.623603 -0.854587,1.707464 -0.854587,2.59035 0,1.055328 0.273468,1.894793 0.820403,2.518396 0.546936,0.623603 1.347168,0.935404 2.119375,0.935404 0.865981,0 1.572439,-0.311801 2.119375,-0.935404 0.546935,-0.623603 0.820403,-1.597773 0.820403,-2.518396 0,-1.151267 -0.284863,-2.02671 -0.854587,-2.626328 -0.569724,-0.599617 -1.264788,-0.899427 -2.085191,-0.899427 z"
       style="display:inline;stroke-width:0.701376"
       id="path950-5"
       sodipodi:nodetypes="sssssssss"
       inkscape:label="s4" />
  </g>
    <path style="fill:none;stroke:#000000;stroke-width:1px;stroke-linecap:butt;stroke-linejoin:miter;stroke-opacity:1"
        d="M 0.94624216,5.7690248 C 7.631373,2.8810914 15.578666,0.97157336 22.533445,4.0724425 c 5.108916,2.1496621 8.257264,7.5315065 8.425423,12.9652175 0.427436,5.272064 -1.334055,10.749138 -5.251145,14.400195 -4.620118,4.532002 -11.214792,6.508684 -17.5640162,6.614233 -1.9828211,-0.146625 -6.059372,-0.149005 -5.4317643,-3.124054 1.4058622,-2.359487 5.3452686,-0.771918 7.2320392,0.399418 2.8988863,3.002002 4.5147993,6.974752 7.2126003,10.149263 4.013799,5.28556 9.092501,10.740916 15.963874,11.839896 1.840559,0.307467 3.707502,0.392494 5.565579,0.532358"
        id="path358" sodipodi:nodetypes="cccccccccccccc" inkscape:label="s1" />
    <path style="fill:none;stroke:#000000;stroke-width:1px;stroke-linecap:butt;stroke-linejoin:miter;stroke-opacity:1"
        d="m 31.441406,26.667969 c 3.656572,1.718061 7.839958,1.897265 11.787906,1.362751 2.195776,-0.314088 4.284304,-1.13355 6.215845,-2.205322 0.525672,-0.274182 1.051345,-0.548363 1.577017,-0.822545"
        id="path360" inkscape:label="s2" sodipodi:nodetypes="ccccc" />
    <path style="fill:none;stroke:#000000;stroke-width:1px;stroke-linecap:butt;stroke-linejoin:miter;stroke-opacity:1"
        d="m 52.464009,0 c 0.01863,15.96103 -0.03083,31.923084 0.03097,47.883474 0.07355,2.767423 0.604772,5.858015 2.901807,7.685433 2.034774,1.851093 4.894464,2.047336 7.507849,2.143361 0.594269,0.03602 1.188537,0.07203 1.782806,0.108049"
        id="path362" inkscape:label="s3" />
</svg>