<svg xmlns="http://www.w3.org/2000/svg" xmlns:xlink="http://www.w3.org/1999/xlink" width="93.30000000000001"
    height="130.4">
    <path
        d="M24 89.60L23.10 89.60Q20 89.60 17.50 88.95Q15 88.30 13.20 86.60L13.20 86.60Q11.30 84.90 10.50 82.40Q9.70 79.90 9.70 75.80L9.70 75.80L9.70 22.40Q9.70 15.80 11.05 11.70Q12.40 7.60 15.80 4.70L15.80 4.70Q18 2.80 21.15 1.70Q24.30 0.60 28.40 0.60L28.40 0.60Q37.50 0.60 44.75 5.85Q52 11.10 59.30 19.60L59.30 19.60L55.40 22.70Q49 15.10 42.65 10.30Q36.30 5.50 28.70 5.50L28.70 5.50Q22.80 5.50 19.40 8.40L19.40 8.40Q17 10.50 16 14Q15 17.50 15 24.10L15 24.10L15 75.50Q15 78.70 15.50 80.35Q16 82.00 17.20 82.90L17.20 82.90Q18.40 84.10 20.35 84.35Q22.30 84.60 24.60 84.60L24.60 84.60L24 89.60ZM66.50 89.60L65 89.60Q59.20 89.60 54.60 86.95Q50 84.30 46.15 79.80Q42.30 75.30 38.80 69.80L38.80 69.80Q37.60 69.80 36.50 69.80L36.50 69.80Q28.20 69.80 28.20 64.70L28.20 64.70Q28.20 62.70 29.55 61.60Q30.90 60.50 33.30 60.50L33.30 60.50Q35.30 60.50 37.30 61.35Q39.30 62.20 41.50 64.20L41.50 64.20Q47.80 62.90 52.10 58.75Q56.40 54.60 56.40 48.00L56.40 48.00Q56.40 41.40 52.65 37.85Q48.90 34.30 42.60 34.30L42.60 34.30Q36.80 34.30 29.90 37.30L29.90 37.30L28.10 32.60Q31.70 31.10 35.45 30.20Q39.20 29.30 42.80 29.30L42.80 29.30Q51.30 29.30 56.55 34.20Q61.80 39.10 61.80 47.90L61.80 47.90Q61.80 51.10 60.90 54.00L60.90 54.00Q63.90 55.20 67.30 55.20L67.30 55.20Q70.60 55.20 73 54.50Q75.40 53.80 77.90 52.20L77.90 52.20L77.90 29.30L83.20 30.10L83.20 75.50Q83.20 78.70 83.70 80.35Q84.20 82.00 85.40 82.90L85.40 82.90Q86.60 84.10 88.55 84.35Q90.50 84.60 92.80 84.60L92.80 84.60L92.20 89.60L91.30 89.60Q88.20 89.60 85.70 88.95Q83.20 88.30 81.40 86.60L81.40 86.60Q79.50 84.90 78.70 82.40Q77.90 79.90 77.90 75.80L77.90 75.80L77.90 57.60Q75.60 58.90 73.15 59.45Q70.70 60.00 67.40 60.00L67.40 60.00Q65.30 60.00 63.10 59.60Q60.90 59.20 59 58.30L59 58.30Q56.70 62.30 52.80 65Q48.90 67.70 44.10 68.90L44.10 68.90Q48 74.70 51.30 78.10Q54.60 81.50 58 83.00Q61.40 84.50 65.60 84.50L65.60 84.50L67.10 84.50L66.50 89.60Z" />
      <g
     id="g309"
     inkscape:label="g2">
    <path
       style="display:inline"
       d="M 14.3,89 H 13.4 Q 10.3,89 7.8,88.35 5.3,87.7 3.5,86 v 0 Q 1.6,84.3 0.8,81.8 0,79.3 0,75.2 v 0 -53.4 Q 0,15.2 1.35,11.1 2.7,7 6.1,4.1 v 0 Q 8.3,2.2 11.45,1.1 14.6,0 18.7,0 V 0 Q 27.8,0 35.05,5.25 42.3,10.5 49.6,19 v 0 l -3.9,3.1 Q 39.3,14.5 32.95,9.7 26.6,4.9 19,4.9 v 0 q -5.9,0 -9.3,2.9 v 0 q -2.4,2.1 -3.4,5.6 -1,3.5 -1,10.1 v 0 51.4 q 0,3.2 0.5,4.85 0.5,1.65 1.7,2.55 v 0 q 1.2,1.2 3.15,1.45 Q 12.6,84 14.9,84 v 0 z"
       id="path2"
       inkscape:label="p2" />
    <path
       style="display:inline;fill:none;stroke:#000000;stroke-width:1px;stroke-linecap:butt;stroke-linejoin:miter;stroke-opacity:1"
       d="M 47.652368,20.738116 C 42.912163,15.169343 37.771996,9.7590782 31.535156,5.8554687 25.556372,2.3479405 17.925665,1.3282836 11.384063,3.8090168 7.098823,5.5445734 4.0571601,9.6376118 3.3691387,14.177325 2.2636698,19.814013 2.8760079,25.587166 2.7106596,31.290784 c 0.017146,15.362435 -0.08206,30.727062 0.00809,46.088122 0.1319749,2.783277 1.0109143,5.743286 3.4696807,7.348394 2.457118,1.869621 5.6943627,1.540296 8.5928207,1.741457"
       id="path491"
       inkscape:label="s3" /></g>
    <path style="fill:none;stroke:#000000;stroke-width:1px;stroke-linecap:butt;stroke-linejoin:miter;stroke-opacity:1"
        d="M 0.94624216,5.7690248 C 7.631373,2.8810914 15.578666,0.97157336 22.533445,4.0724425 c 5.108916,2.1496621 8.257264,7.5315065 8.425423,12.9652175 0.427436,5.272064 -1.334055,10.749138 -5.251145,14.400195 -4.620118,4.532002 -11.214792,6.508684 -17.5640162,6.614233 -1.9828211,-0.146625 -6.059372,-0.149005 -5.4317643,-3.124054 1.4058622,-2.359487 5.3452686,-0.771918 7.2320392,0.399418 2.8988863,3.002002 4.5147993,6.974752 7.2126003,10.149263 4.013799,5.28556 9.092501,10.740916 15.963874,11.839896 1.840559,0.307467 3.707502,0.392494 5.565579,0.532358"
        id="path358" sodipodi:nodetypes="cccccccccccccc" inkscape:label="s1" />
    <path style="fill:none;stroke:#000000;stroke-width:1px;stroke-linecap:butt;stroke-linejoin:miter;stroke-opacity:1"
        d="m 31.441406,26.667969 c 3.656572,1.718061 7.839958,1.897265 11.787906,1.362751 2.195776,-0.314088 4.284304,-1.13355 6.215845,-2.205322 0.525672,-0.274182 1.051345,-0.548363 1.577017,-0.822545"
        id="path360" inkscape:label="s2" sodipodi:nodetypes="ccccc" />
    <path style="fill:none;stroke:#000000;stroke-width:1px;stroke-linecap:butt;stroke-linejoin:miter;stroke-opacity:1"
        d="m 52.464009,0 c 0.01863,15.96103 -0.03083,31.923084 0.03097,47.883474 0.07355,2.767423 0.604772,5.858015 2.901807,7.685433 2.034774,1.851093 4.894464,2.047336 7.507849,2.143361 0.594269,0.03602 1.188537,0.07203 1.782806,0.108049"
        id="path362" inkscape:label="s3" />
</svg>