<svg xmlns="http://www.w3.org/2000/svg" xmlns:xlink="http://www.w3.org/1999/xlink" width="93.30000000000001" height="130.4"><path d="M24 89.60L23.10 89.60Q20 89.60 17.50 88.95Q15 88.30 13.20 86.60L13.20 86.60Q11.30 84.90 10.50 82.40Q9.70 79.90 9.70 75.80L9.70 75.80L9.70 22.40Q9.70 15.80 11.05 11.70Q12.40 7.60 15.80 4.70L15.80 4.70Q18 2.80 21.15 1.70Q24.30 0.60 28.40 0.60L28.40 0.60Q37.50 0.60 44.75 5.85Q52 11.10 59.30 19.60L59.30 19.60L55.40 22.70Q49 15.10 42.65 10.30Q36.30 5.50 28.70 5.50L28.70 5.50Q22.80 5.50 19.40 8.40L19.40 8.40Q17 10.50 16 14Q15 17.50 15 24.10L15 24.10L15 75.50Q15 78.70 15.50 80.35Q16 82.00 17.20 82.90L17.20 82.90Q18.40 84.10 20.35 84.35Q22.30 84.60 24.60 84.60L24.60 84.60L24 89.60ZM66.50 89.60L65 89.60Q59.20 89.60 54.60 86.95Q50 84.30 46.15 79.80Q42.30 75.30 38.80 69.80L38.80 69.80Q37.60 69.80 36.50 69.80L36.50 69.80Q28.20 69.80 28.20 64.70L28.20 64.70Q28.20 62.70 29.55 61.60Q30.90 60.50 33.30 60.50L33.30 60.50Q35.30 60.50 37.30 61.35Q39.30 62.20 41.50 64.20L41.50 64.20Q47.80 62.90 52.10 58.75Q56.40 54.60 56.40 48.00L56.40 48.00Q56.40 41.40 52.65 37.85Q48.90 34.30 42.60 34.30L42.60 34.30Q36.80 34.30 29.90 37.30L29.90 37.30L28.10 32.60Q31.70 31.10 35.45 30.20Q39.20 29.30 42.80 29.30L42.80 29.30Q51.30 29.30 56.55 34.20Q61.80 39.10 61.80 47.90L61.80 47.90Q61.80 51.10 60.90 54.00L60.90 54.00Q63.90 55.20 67.30 55.20L67.30 55.20Q70.60 55.20 73 54.50Q75.40 53.80 77.90 52.20L77.90 52.20L77.90 29.30L83.20 30.10L83.20 75.50Q83.20 78.70 83.70 80.35Q84.20 82.00 85.40 82.90L85.40 82.90Q86.60 84.10 88.55 84.35Q90.50 84.60 92.80 84.60L92.80 84.60L92.20 89.60L91.30 89.60Q88.20 89.60 85.70 88.95Q83.20 88.30 81.40 86.60L81.40 86.60Q79.50 84.90 78.70 82.40Q77.90 79.90 77.90 75.80L77.90 75.80L77.90 57.60Q75.60 58.90 73.15 59.45Q70.70 60.00 67.40 60.00L67.40 60.00Q65.30 60.00 63.10 59.60Q60.90 59.20 59 58.30L59 58.30Q56.70 62.30 52.80 65Q48.90 67.70 44.10 68.90L44.10 68.90Q48 74.70 51.30 78.10Q54.60 81.50 58 83.00Q61.40 84.50 65.60 84.50L65.60 84.50L67.10 84.50L66.50 89.60Z"/></svg>