<svg xmlns="http://www.w3.org/2000/svg" xmlns:xlink="http://www.w3.org/1999/xlink" width="68.2" height="130.4"><path d="M41.40 89.60L39.90 89.60Q34.10 89.60 29.50 86.95Q24.90 84.30 21.05 79.80Q17.20 75.30 13.70 69.80L13.70 69.80Q12.50 69.80 11.40 69.80L11.40 69.80Q3.10 69.80 3.10 64.70L3.10 64.70Q3.10 62.70 4.45 61.60Q5.80 60.50 8.20 60.50L8.20 60.50Q10.20 60.50 12.20 61.35Q14.20 62.20 16.40 64.20L16.40 64.20Q22.70 62.90 27 58.75Q31.30 54.60 31.30 48.00L31.30 48.00Q31.30 41.40 27.55 37.85Q23.80 34.30 17.50 34.30L17.50 34.30Q11.70 34.30 4.80 37.30L4.80 37.30L3 32.60Q6.60 31.10 10.35 30.20Q14.10 29.30 17.70 29.30L17.70 29.30Q26.20 29.30 31.45 34.20Q36.70 39.10 36.70 47.90L36.70 47.90Q36.70 51.10 35.80 54.00L35.80 54.00Q38.80 55.20 42.20 55.20L42.20 55.20Q45.50 55.20 47.90 54.50Q50.30 53.80 52.80 52.20L52.80 52.20L52.80 29.30L58.10 30.10L58.10 75.50Q58.10 78.70 58.60 80.35Q59.10 82.00 60.30 82.90L60.30 82.90Q61.50 84.10 63.45 84.35Q65.40 84.60 67.70 84.60L67.70 84.60L67.10 89.60L66.20 89.60Q63.10 89.60 60.60 88.95Q58.10 88.30 56.30 86.60L56.30 86.60Q54.40 84.90 53.60 82.40Q52.80 79.90 52.80 75.80L52.80 75.80L52.80 57.60Q50.50 58.90 48.05 59.45Q45.60 60.00 42.30 60.00L42.30 60.00Q40.20 60.00 38 59.60Q35.80 59.20 33.90 58.30L33.90 58.30Q31.60 62.30 27.70 65Q23.80 67.70 19 68.90L19 68.90Q22.90 74.70 26.20 78.10Q29.50 81.50 32.90 83.00Q36.30 84.50 40.50 84.50L40.50 84.50L42 84.50L41.40 89.60ZM57.60 25.50L52.80 25.50Q50.60 17.90 48.60 13.40Q46.60 8.90 44.05 6.90Q41.50 4.90 37.60 4.90L37.60 4.90Q34.80 4.90 31.80 5.80L31.80 5.80L30.20 1.20Q32.20 0.60 34.15 0.30Q36.10 0 37.90 0L37.90 0Q42.60 0 46.10 2.15Q49.60 4.30 52.35 9.80Q55.10 15.30 57.60 25.50L57.60 25.50Z"/></svg>