<?xml version="1.0" encoding="UTF-8" standalone="no"?><svg width="89.800003" height="89.599998" version="1.1" id="svg1251" sodipodi:docname="9_sau.svg" inkscape:version="1.2.1 (9c6d41e410, 2022-07-14)" xmlns:inkscape="http://www.inkscape.org/namespaces/inkscape" xmlns:sodipodi="http://sodipodi.sourceforge.net/DTD/sodipodi-0.dtd" xmlns="http://www.w3.org/2000/svg" xmlns:svg="http://www.w3.org/2000/svg"><defs id="defs1255"></defs><sodipodi:namedview id="namedview1253" pagecolor="#ffffff" bordercolor="#666666" borderopacity="1.0" inkscape:showpageshadow="2" inkscape:pageopacity="0.0" inkscape:pagecheckerboard="0" inkscape:deskcolor="#d1d1d1" showgrid="false" inkscape:zoom="1.809816" inkscape:cx="43.927117" inkscape:cy="65.199997" inkscape:window-width="1920" inkscape:window-height="1027" inkscape:window-x="-8" inkscape:window-y="-8" inkscape:window-maximized="1" inkscape:current-layer="svg1251"></sodipodi:namedview><g id="g0" inkscape:label="g0" transform="matrix(0.99972661,0,0,0.99999032,0,29.300584)"><path d="m 38.410501,60.3 h -1.50041 q -5.801586,0 -10.402844,-2.650025 -4.601258,-2.650026 -8.452311,-7.15007 -3.851053,-4.500043 -7.35201,-10.000097 v 0 q -1.2003281,0 -2.3006289,0 v 0 q -8.30226975,0 -8.30226975,-5.100049 v 0 q 0,-2.000019 1.35036915,-3.10003 1.3503692,-1.100011 3.7510255,-1.100011 v 0 q 2.0005469,0 4.0010939,0.850008 2.0005471,0.850009 4.2011481,2.850028 v 0 q 6.301723,-1.300012 10.602899,-5.450053 4.301176,-4.15004 4.301176,-10.750104 v 0 q 0,-6.600064 -3.751025,-10.1500977 Q 20.805688,4.9994649 14.503965,4.9994649 v 0 q -5.8015859,0 -12.7034728,3.0000291 v 0 L 0,3.2994485 Q 3.6009845,1.7994339 7.35201,0.89942519 11.103035,-5.8353161e-4 14.70402,-5.8353161e-4 v 0 q 8.502324,0 13.75376,4.90004753161 5.251436,4.9000474 5.251436,13.700132 v 0 q 0,3.200031 -0.900246,6.100059 v 0 q 3.00082,1.200012 6.40175,1.200012 v 0 q 3.300902,0 5.701559,-0.700007 2.400656,-0.700007 4.90134,-2.300022 v 0 V -5.8353161e-4 L 55.115068,0.79942422 V 46.199864 q 0,3.200031 0.500137,4.850047 0.500136,1.650016 1.700465,2.550024 v 0 q 1.200328,1.200012 3.150861,1.450014 1.950533,0.250003 4.251162,0.250003 v 0 L 64.117529,60.3 h -0.900246 q -3.100848,0 -5.601531,-0.650006 -2.500684,-0.650006 -4.301176,-2.350023 v 0 q -1.90052,-1.700016 -2.700739,-4.200041 -0.800218,-2.500024 -0.800218,-6.600064 v 0 -18.200176 q -2.300629,1.300013 -4.751299,1.850018 -2.45067,0.550005 -5.751573,0.550005 v 0 q -2.100574,0 -4.301176,-0.400003 -2.200601,-0.400004 -4.101121,-1.300013 v 0 q -2.300629,4.000039 -6.201695,6.700065 -3.901067,2.700026 -8.70238,3.900038 v 0 q 3.901067,5.800056 7.201969,9.200089 3.300903,3.400033 6.701833,4.900047 3.400929,1.500015 7.602078,1.500015 v 0 h 1.50041 z" id="g0p0" inkscape:label="g0p0" style="stroke-width:1.00014"></path><path style="fill:none;stroke:#000000;stroke-width:1px;stroke-linecap:butt;stroke-linejoin:miter;stroke-opacity:1" d="M 0.94624216,5.7690248 C 7.631373,2.8810914 15.578666,0.97157336 22.533445,4.0724425 c 5.108916,2.1496621 8.257264,7.5315065 8.425423,12.9652175 0.427436,5.272064 -1.334055,10.749138 -5.251145,14.400195 -4.620118,4.532002 -11.214792,6.508684 -17.5640162,6.614233 -1.9828211,-0.146625 -6.059372,-0.149005 -5.4317643,-3.124054 1.4058622,-2.359487 5.3452686,-0.771918 7.2320392,0.399418 2.8988863,3.002002 4.5147993,6.974752 7.2126003,10.149263 4.013799,5.28556 9.092501,10.740916 15.963874,11.839896 1.840559,0.307467 3.707502,0.392494 5.565579,0.532358" id="g0s0" sodipodi:nodetypes="cccccccccccccc" inkscape:label="g0s0"></path><path style="fill:none;stroke:#000000;stroke-width:1px;stroke-linecap:butt;stroke-linejoin:miter;stroke-opacity:1" d="m 31.441406,26.667969 c 3.656572,1.718061 7.839958,1.897265 11.787906,1.362751 2.195776,-0.314088 4.284304,-1.13355 6.215845,-2.205322 0.525672,-0.274182 1.051345,-0.548363 1.577017,-0.822545" id="g0s1" inkscape:label="g0s1" sodipodi:nodetypes="ccccc"></path><path style="fill:none;stroke:#000000;stroke-width:1px;stroke-linecap:butt;stroke-linejoin:miter;stroke-opacity:1" d="m 52.464009,0 c 0.01863,15.96103 -0.03083,31.923084 0.03097,47.883474 0.07355,2.767423 0.604772,5.858015 2.901807,7.685433 2.034774,1.851093 4.894464,2.047336 7.507849,2.143361 0.594269,0.03602 1.188537,0.07203 1.782806,0.108049" id="g0s2" inkscape:label="g0s2"></path></g><g id="g1" inkscape:label="g1" transform="translate(18.6)"><path style="display:inline" d="m 70.7,89.6 h -1 q -6.6,0 -9.9,-3 v 0 Q 58,85 57.15,82.5 56.3,80 56.3,75.8 v 0 -46.5 l 5.3,0.7 v 45.5 q 0,3.3 0.5,4.9 0.5,1.6 1.8,2.6 v 0 q 1.2,1.1 3.05,1.35 1.85,0.25 4.25,0.25 v 0 z" id="g1p0" inkscape:label="g1p0"></path><path style="display:inline;fill:none;stroke:#000000;stroke-width:1px;stroke-linecap:butt;stroke-linejoin:miter;stroke-opacity:1" d="m 58.945814,29.339077 c 0.0052,15.660703 -0.0419,31.322813 -0.004,46.982637 0.07316,2.661925 0.300705,5.531206 2.06529,7.674603 1.94562,2.285428 5.076188,2.956219 7.950186,3.001875 0.734456,0.05113 1.468913,0.102253 2.203369,0.15338" id="g1s0" inkscape:label="g1s0"></path></g><g id="g2" inkscape:label="g2" transform="translate(18.6)"><path style="display:inline" d="m 55.9,23.7 -2.8,2.9 Q 47,21.2 42.8,18.85 38.6,16.5 33.7,16.5 v 0 q -3.5,0 -6.4,0.9 v 0 l -1.5,-4.7 q 1.8,-0.4 3.75,-0.7 1.95,-0.3 4.15,-0.3 v 0 q 3.8,0 7.15,1.2 3.35,1.2 6.9,3.85 3.55,2.65 8.15,6.95 z" id="g2p0" inkscape:label="g2p0"></path><path style="display:inline;fill:none;stroke:#000000;stroke-width:1px;stroke-linecap:butt;stroke-linejoin:miter;stroke-opacity:1" d="m 26.306582,15.114407 c 2.688785,-0.568456 5.416241,-1.1935 8.183739,-0.988483 1.810938,0.02306 3.595689,0.410136 5.328375,0.908621 1.446215,0.495326 2.860202,1.115629 4.178036,1.890495 3.847011,2.308963 7.136989,5.387765 10.538424,8.281996" id="g2s0" inkscape:label="g2s0"></path></g><g id="g3" inkscape:label="g3" transform="matrix(1,0,0,0.99067711,18.6,0)"><path style="display:inline" d="M 61.2,25.5 H 56.8 Q 54.9,17.7 53.05,13.15 51.2,8.6 48.75,6.7 46.3,4.8 42.5,4.8 v 0 Q 41.3,4.8 39.95,5 38.6,5.2 37.1,5.7 v 0 L 35.6,1.1 Q 37.5,0.5 39.3,0.25 41.1,0 42.8,0 v 0 q 4.6,0 7.95,2.25 3.35,2.25 5.85,7.8 2.5,5.55 4.6,15.45 z" id="g3p0" inkscape:label="g3p0"></path><path style="display:inline;fill:none;stroke:#000000;stroke-width:1px;stroke-linecap:butt;stroke-linejoin:miter;stroke-opacity:1" d="m 36.195028,3.4913397 2.773185,-0.7181553 0.82864,-0.1767767 0.806544,-0.099437 1.138,-0.088388 h 0.905981 l 1.027514,0.033146 0.983321,0.121534 0.872835,0.1325825 1.237436,0.2872621 1.071709,0.4198447 1.347922,0.6960582 1.016466,0.6960583 0.696059,0.5966213 0.82864,0.9612233 0.950175,1.2042912 0.839689,1.3368738 0.806544,1.6130879 0.651864,1.425262 0.662913,1.635184 0.53033,1.679379 0.50108,1.557697 0.367187,1.382813 0.5,1.734375 0.453125,1.757812 1.007035,3.936361" id="g3s0" inkscape:label="g3s0"></path></g></svg>