<?xml version="1.0" encoding="UTF-8" standalone="no"?>
<svg
   width="49.299999"
   height="60.299999"
   version="1.1"
   id="svg4"
   sodipodi:docname="0_n.svg"
   inkscape:version="1.2.1 (9c6d41e410, 2022-07-14)"
   xmlns:inkscape="http://www.inkscape.org/namespaces/inkscape"
   xmlns:sodipodi="http://sodipodi.sourceforge.net/DTD/sodipodi-0.dtd"
   xmlns="http://www.w3.org/2000/svg"
   xmlns:svg="http://www.w3.org/2000/svg">
  <defs
     id="defs8" />
  <sodipodi:namedview
     id="namedview6"
     pagecolor="#ffffff"
     bordercolor="#666666"
     borderopacity="1.0"
     inkscape:showpageshadow="2"
     inkscape:pageopacity="0.0"
     inkscape:pagecheckerboard="0"
     inkscape:deskcolor="#d1d1d1"
     showgrid="false"
     inkscape:zoom="5.6568543"
     inkscape:cx="38.802485"
     inkscape:cy="58.866639"
     inkscape:window-width="1920"
     inkscape:window-height="1027"
     inkscape:window-x="-8"
     inkscape:window-y="-8"
     inkscape:window-maximized="1"
     inkscape:current-layer="svg4" />
  <path
     style="fill:none;stroke:#000000;stroke-width:1px;stroke-linecap:butt;stroke-linejoin:miter;stroke-opacity:1"
     d="m 37.0625,0.00390625 c 0.01228,15.94448075 -0.03,31.88994175 0.01653,47.83381175 0.104906,2.798013 0.693693,5.871892 2.970521,7.747553 1.948879,1.839047 4.749608,2.025244 7.28697,2.120108 0.56881,0.03831 1.137619,0.07663 1.706429,0.114941"
     id="path282"
     inkscape:label="s2" />
  <path
     style="fill:none;stroke:#000000;stroke-width:1px;stroke-linecap:butt;stroke-linejoin:miter;stroke-opacity:1"
     d="m 9.4465046,26.450213 c -2.077e-4,1.682698 0.098008,3.36857 0.033145,5.049184 C 9.3222984,32.345183 8.2274691,32.561372 7.5381911,32.248613 6.8112396,31.902967 6.3148187,31.219259 5.7861037,30.632721 5.0590347,29.744479 4.3629491,28.803454 4.0298707,27.689965 3.7702211,26.985767 3.6033928,26.220122 3.6570678,25.466893 3.7524797,25.037112 4.1094423,24.872105 4.4857085,24.72664 7.3828211,24.311825 10.311784,24.2306 13.229092,24.050755 c 7.134574,-0.0013 14.269147,-0.0026 21.40372,-0.0039"
     id="path280"
     inkscape:label="s1" />
  <path
     d="m 9.2,36.6 v 0 q -2,0 -4.15,-1.7 Q 2.9,33.2 1.45,30.7 0,28.2 0,25.8 v 0 q 0,-1.9 1.1,-3.05 1.1,-1.15 4,-1.15 v 0 H 34.4 V 0 l 5.3,0.8 v 45.4 q 0,3.2 0.55,4.85 0.55,1.65 1.65,2.55 v 0 q 1.2,1.2 3.15,1.45 1.95,0.25 4.25,0.25 v 0 l -0.5,5 h -1 q -3,0 -5.55,-0.65 Q 39.7,59 37.9,57.3 v 0 Q 36.1,55.6 35.25,53.1 34.4,50.6 34.4,46.5 v 0 -20 H 13.2 v 5.3 q 0,2.5 -1.1,3.65 Q 11,36.6 9.2,36.6 Z"
     id="path2"
     inkscape:label="p1" />
</svg>
