<svg xmlns="http://www.w3.org/2000/svg" xmlns:xlink="http://www.w3.org/1999/xlink" width="52.400000000000006" height="130.4"><path d="M11.80 65.90L11.80 65.90Q9.80 65.90 7.65 64.20Q5.50 62.50 4.05 60.00Q2.60 57.50 2.60 55.10L2.60 55.10Q2.60 53.20 3.70 52.05Q4.80 50.90 7.70 50.90L7.70 50.90L37 50.90L37 29.30L42.30 30.10L42.30 75.50Q42.30 78.70 42.85 80.35Q43.40 82.00 44.50 82.90L44.50 82.90Q45.70 84.10 47.65 84.35Q49.60 84.60 51.90 84.60L51.90 84.60L51.40 89.60L50.40 89.60Q47.40 89.60 44.85 88.95Q42.30 88.30 40.50 86.60L40.50 86.60Q38.70 84.90 37.85 82.40Q37 79.90 37 75.80L37 75.80L37 55.80L15.80 55.80L15.80 61.10Q15.80 63.60 14.70 64.75Q13.60 65.90 11.80 65.90ZM39.70 19.10L39.70 19.10Q37.90 19.10 36.65 17.80Q35.40 16.50 35.40 14.20L35.40 14.20Q35.40 12 36.60 10.70Q37.80 9.40 39.70 9.40L39.70 9.40Q41.60 9.40 42.80 10.70Q44.00 12 44.00 14.20L44.00 14.20Q44.00 16.60 42.75 17.85Q41.50 19.10 39.70 19.10Z"/></svg>