<svg xmlns="http://www.w3.org/2000/svg" xmlns:xlink="http://www.w3.org/1999/xlink" width="52.400000000000006"
    height="130.4">
    <path
        d="M11.80 65.90L11.80 65.90Q9.80 65.90 7.65 64.20Q5.50 62.50 4.05 60.00Q2.60 57.50 2.60 55.10L2.60 55.10Q2.60 53.20 3.70 52.05Q4.80 50.90 7.70 50.90L7.70 50.90L37 50.90L37 29.30L42.30 30.10L42.30 75.50Q42.30 78.70 42.85 80.35Q43.40 82.00 44.50 82.90L44.50 82.90Q45.70 84.10 47.65 84.35Q49.60 84.60 51.90 84.60L51.90 84.60L51.40 89.60L50.40 89.60Q47.40 89.60 44.85 88.95Q42.30 88.30 40.50 86.60L40.50 86.60Q38.70 84.90 37.85 82.40Q37 79.90 37 75.80L37 75.80L37 55.80L15.80 55.80L15.80 61.10Q15.80 63.60 14.70 64.75Q13.60 65.90 11.80 65.90ZM39.70 19.10L39.70 19.10Q37.90 19.10 36.65 17.80Q35.40 16.50 35.40 14.20L35.40 14.20Q35.40 12 36.60 10.70Q37.80 9.40 39.70 9.40L39.70 9.40Q41.60 9.40 42.80 10.70Q44.00 12 44.00 14.20L44.00 14.20Q44.00 16.60 42.75 17.85Q41.50 19.10 39.70 19.10Z" />
      <g
     id="g653"
     inkscape:label="g2">
    <path
       style="display:inline"
       d="m 33.9,9.7 v 0 Q 32.1,9.7 30.85,8.4 29.6,7.1 29.6,4.8 v 0 Q 29.6,2.6 30.8,1.3 32,0 33.9,0 v 0 q 1.9,0 3.1,1.3 1.2,1.3 1.2,3.5 v 0 q 0,2.4 -1.25,3.65 Q 35.7,9.7 33.9,9.7 Z"
       id="path644"
       inkscape:label="p2" />
    <path
       d="m 33.9375,1.3352194 c -0.820403,0 -1.515467,0.3118012 -2.085191,0.9354043 -0.569724,0.6236031 -0.854587,1.7074649 -0.854587,2.5903504 0,1.0553281 0.273468,1.8947931 0.820403,2.5183962 0.546936,0.6236031 1.347168,0.9354042 2.119375,0.9354042 0.865981,0 1.572439,-0.3118011 2.119375,-0.9354042 0.546935,-0.6236031 0.820403,-1.5977735 0.820403,-2.5183962 0,-1.1512668 -0.284863,-2.0267096 -0.854587,-2.6263275 C 35.452967,1.6350287 34.757903,1.3352194 33.9375,1.3352194 Z"
       style="display:inline;stroke-width:0.701376"
       id="path950"
       sodipodi:nodetypes="sssssssss"
       inkscape:label="s3" />
  </g>
    <path style="fill:none;stroke:#000000;stroke-width:1px;stroke-linecap:butt;stroke-linejoin:miter;stroke-opacity:1"
        d="m 10.507165,26.538601 c -0.02488,2.099271 0.352667,4.218018 0.07983,6.303657 -0.492967,1.466184 -2.5820407,1.38496 -3.4906831,0.373546 C 5.4245239,31.649731 3.7195205,29.897585 3.0109238,27.665532 2.6811556,26.489295 2.2991858,25.015001 3.5317635,24.31398 4.3125648,23.690243 5.3957829,23.9171 6.3282356,23.837413 c 2.507178,0.03546 5.0077374,0.34555 7.5170824,0.213234 6.929165,-0.0013 13.858329,-0.0025 20.787494,-0.0038"
        id="path280" inkscape:label="s1" sodipodi:nodetypes="cccccccc" />
    <path style="fill:none;stroke:#000000;stroke-width:1px;stroke-linecap:butt;stroke-linejoin:miter;stroke-opacity:1"
        d="m 37.0625,0.00390625 c 0.01228,15.94448075 -0.03,31.88994175 0.01653,47.83381175 0.104906,2.798013 0.693693,5.871892 2.970521,7.747553 1.948879,1.839047 4.749608,2.025244 7.28697,2.120108 0.56881,0.03831 1.137619,0.07663 1.706429,0.114941"
        id="path282" inkscape:label="s2" />
</svg>