<svg xmlns="http://www.w3.org/2000/svg" xmlns:xlink="http://www.w3.org/1999/xlink" width="74.80000000000001" height="130.4"><path d="M11.80 65.90L11.80 65.90Q9.80 65.90 7.65 64.20Q5.50 62.50 4.05 60.00Q2.60 57.50 2.60 55.10L2.60 55.10Q2.60 53.20 3.70 52.05Q4.80 50.90 7.70 50.90L7.70 50.90L37 50.90L37 29.30L42.30 30.10L42.30 75.50Q42.30 78.70 42.85 80.35Q43.40 82.00 44.50 82.90L44.50 82.90Q45.70 84.10 47.65 84.35Q49.60 84.60 51.90 84.60L51.90 84.60L51.40 89.60L50.40 89.60Q47.40 89.60 44.85 88.95Q42.30 88.30 40.50 86.60L40.50 86.60Q38.70 84.90 37.85 82.40Q37 79.90 37 75.80L37 75.80L37 55.80L15.80 55.80L15.80 61.10Q15.80 63.60 14.70 64.75Q13.60 65.90 11.80 65.90ZM63.60 51.30L63.60 51.30Q61.80 51.30 60.40 49.95Q59.00 48.60 59.00 46.20L59.00 46.20Q59.00 43.80 60.35 42.45Q61.70 41.10 63.60 41.10L63.60 41.10Q65.60 41.10 66.90 42.45Q68.20 43.80 68.20 46.20L68.20 46.20Q68.20 48.70 66.85 50.00Q65.50 51.30 63.60 51.30ZM63.60 84.60L63.60 84.60Q61.80 84.60 60.40 83.25Q59.00 81.90 59.00 79.50L59.00 79.50Q59.00 77.10 60.35 75.75Q61.70 74.40 63.60 74.40L63.60 74.40Q65.60 74.40 66.90 75.75Q68.20 77.10 68.20 79.50L68.20 79.50Q68.20 82.00 66.85 83.30Q65.50 84.60 63.60 84.60Z"/></svg>