<svg xmlns="http://www.w3.org/2000/svg" xmlns:xlink="http://www.w3.org/1999/xlink" width="74.80000000000001"
    height="130.4">
    <path
        d="M11.80 65.90L11.80 65.90Q9.80 65.90 7.65 64.20Q5.50 62.50 4.05 60.00Q2.60 57.50 2.60 55.10L2.60 55.10Q2.60 53.20 3.70 52.05Q4.80 50.90 7.70 50.90L7.70 50.90L37 50.90L37 29.30L42.30 30.10L42.30 75.50Q42.30 78.70 42.85 80.35Q43.40 82.00 44.50 82.90L44.50 82.90Q45.70 84.10 47.65 84.35Q49.60 84.60 51.90 84.60L51.90 84.60L51.40 89.60L50.40 89.60Q47.40 89.60 44.85 88.95Q42.30 88.30 40.50 86.60L40.50 86.60Q38.70 84.90 37.85 82.40Q37 79.90 37 75.80L37 75.80L37 55.80L15.80 55.80L15.80 61.10Q15.80 63.60 14.70 64.75Q13.60 65.90 11.80 65.90ZM63.60 51.30L63.60 51.30Q61.80 51.30 60.40 49.95Q59.00 48.60 59.00 46.20L59.00 46.20Q59.00 43.80 60.35 42.45Q61.70 41.10 63.60 41.10L63.60 41.10Q65.60 41.10 66.90 42.45Q68.20 43.80 68.20 46.20L68.20 46.20Q68.20 48.70 66.85 50.00Q65.50 51.30 63.60 51.30ZM63.60 84.60L63.60 84.60Q61.80 84.60 60.40 83.25Q59.00 81.90 59.00 79.50L59.00 79.50Q59.00 77.10 60.35 75.75Q61.70 74.40 63.60 74.40L63.60 74.40Q65.60 74.40 66.90 75.75Q68.20 77.10 68.20 79.50L68.20 79.50Q68.20 82.00 66.85 83.30Q65.50 84.60 63.60 84.60Z" />
     <g
     id="g686"
     inkscape:label="g2">
    <path
       style="display:inline"
       d="m 57.8,22 v 0 Q 56,22 54.6,20.65 53.2,19.3 53.2,16.9 v 0 q 0,-2.4 1.35,-3.75 1.35,-1.35 3.25,-1.35 v 0 q 2,0 3.3,1.35 1.3,1.35 1.3,3.75 v 0 q 0,2.5 -1.35,3.8 Q 59.7,22 57.8,22 Z"
       id="path675"
       inkscape:label="p2" />
    <path
       d="m 57.837008,13.391934 c -0.820403,0 -1.515467,0.311801 -2.085191,0.935405 -0.569724,0.623603 -0.854587,1.707464 -0.854587,2.59035 0,1.055328 0.273468,1.894793 0.820403,2.518396 0.546936,0.623603 1.347168,0.935404 2.119375,0.935404 0.865981,0 1.572439,-0.311801 2.119375,-0.935404 0.546935,-0.623603 0.820403,-1.597773 0.820403,-2.518396 0,-1.151267 -0.284863,-2.02671 -0.854587,-2.626328 -0.569724,-0.599617 -1.264788,-0.899427 -2.085191,-0.899427 z"
       style="display:inline;stroke-width:0.701376"
       id="path950"
       sodipodi:nodetypes="sssssssss"
       inkscape:label="s3" />
  </g>
  <g
     id="g690"
     inkscape:label="g3">
    <path
       style="display:inline"
       d="m 57.8,55.3 v 0 Q 56,55.3 54.6,53.95 53.2,52.6 53.2,50.2 v 0 q 0,-2.4 1.35,-3.75 1.35,-1.35 3.25,-1.35 v 0 q 2,0 3.3,1.35 1.3,1.35 1.3,3.75 v 0 q 0,2.5 -1.35,3.8 -1.35,1.3 -3.25,1.3 z"
       id="path677"
       inkscape:label="p3" />
    <path
       d="m 57.836778,46.680782 c -0.820403,0 -1.515467,0.311801 -2.085191,0.935405 -0.569724,0.623603 -0.854587,1.707464 -0.854587,2.59035 0,1.055328 0.273468,1.894793 0.820403,2.518396 0.546936,0.623603 1.347168,0.935404 2.119375,0.935404 0.865981,0 1.572439,-0.311801 2.119375,-0.935404 0.546935,-0.623603 0.820403,-1.597773 0.820403,-2.518396 0,-1.151267 -0.284863,-2.02671 -0.854587,-2.626328 -0.569724,-0.599617 -1.264788,-0.899427 -2.085191,-0.899427 z"
       style="display:inline;stroke-width:0.701376"
       id="path950-5"
       sodipodi:nodetypes="sssssssss"
       inkscape:label="s4" />
  </g>
    <path style="fill:none;stroke:#000000;stroke-width:1px;stroke-linecap:butt;stroke-linejoin:miter;stroke-opacity:1"
        d="m 10.507165,26.538601 c -0.02488,2.099271 0.352667,4.218018 0.07983,6.303657 -0.492967,1.466184 -2.5820407,1.38496 -3.4906831,0.373546 C 5.4245239,31.649731 3.7195205,29.897585 3.0109238,27.665532 2.6811556,26.489295 2.2991858,25.015001 3.5317635,24.31398 4.3125648,23.690243 5.3957829,23.9171 6.3282356,23.837413 c 2.507178,0.03546 5.0077374,0.34555 7.5170824,0.213234 6.929165,-0.0013 13.858329,-0.0025 20.787494,-0.0038"
        id="path280" inkscape:label="s1" sodipodi:nodetypes="cccccccc" />
    <path style="fill:none;stroke:#000000;stroke-width:1px;stroke-linecap:butt;stroke-linejoin:miter;stroke-opacity:1"
        d="m 37.0625,0.00390625 c 0.01228,15.94448075 -0.03,31.88994175 0.01653,47.83381175 0.104906,2.798013 0.693693,5.871892 2.970521,7.747553 1.948879,1.839047 4.749608,2.025244 7.28697,2.120108 0.56881,0.03831 1.137619,0.07663 1.706429,0.114941"
        id="path282" inkscape:label="s2" />
</svg>