<svg xmlns="http://www.w3.org/2000/svg" xmlns:xlink="http://www.w3.org/1999/xlink" width="77.5" height="130.4"><path d="M24 89.60L23.10 89.60Q20 89.60 17.50 88.95Q15 88.30 13.20 86.60L13.20 86.60Q11.30 84.90 10.50 82.40Q9.70 79.90 9.70 75.80L9.70 75.80L9.70 22.40Q9.70 15.80 11.05 11.70Q12.40 7.60 15.80 4.70L15.80 4.70Q18 2.80 21.15 1.70Q24.30 0.60 28.40 0.60L28.40 0.60Q37.50 0.60 44.75 5.85Q52 11.10 59.30 19.60L59.30 19.60L55.40 22.70Q49 15.10 42.65 10.30Q36.30 5.50 28.70 5.50L28.70 5.50Q22.80 5.50 19.40 8.40L19.40 8.40Q17 10.50 16 14Q15 17.50 15 24.10L15 24.10L15 75.50Q15 78.70 15.50 80.35Q16 82.00 17.20 82.90L17.20 82.90Q18.40 84.10 20.35 84.35Q22.30 84.60 24.60 84.60L24.60 84.60L24 89.60ZM36.90 65.90L36.90 65.90Q34.90 65.90 32.75 64.20Q30.60 62.50 29.15 60.00Q27.70 57.50 27.70 55.10L27.70 55.10Q27.70 53.20 28.80 52.05Q29.90 50.90 32.80 50.90L32.80 50.90L62.10 50.90L62.10 29.30L67.40 30.10L67.40 75.50Q67.40 78.70 67.95 80.35Q68.50 82.00 69.60 82.90L69.60 82.90Q70.80 84.10 72.75 84.35Q74.70 84.60 77 84.60L77 84.60L76.50 89.60L75.50 89.60Q72.50 89.60 69.95 88.95Q67.40 88.30 65.60 86.60L65.60 86.60Q63.80 84.90 62.95 82.40Q62.10 79.90 62.10 75.80L62.10 75.80L62.10 55.80L40.90 55.80L40.90 61.10Q40.90 63.60 39.80 64.75Q38.70 65.90 36.90 65.90Z"/></svg>