<svg xmlns="http://www.w3.org/2000/svg" xmlns:xlink="http://www.w3.org/1999/xlink" width="77.5" height="130.4">
    <path
        d="M24 89.60L23.10 89.60Q20 89.60 17.50 88.95Q15 88.30 13.20 86.60L13.20 86.60Q11.30 84.90 10.50 82.40Q9.70 79.90 9.70 75.80L9.70 75.80L9.70 22.40Q9.70 15.80 11.05 11.70Q12.40 7.60 15.80 4.70L15.80 4.70Q18 2.80 21.15 1.70Q24.30 0.60 28.40 0.60L28.40 0.60Q37.50 0.60 44.75 5.85Q52 11.10 59.30 19.60L59.30 19.60L55.40 22.70Q49 15.10 42.65 10.30Q36.30 5.50 28.70 5.50L28.70 5.50Q22.80 5.50 19.40 8.40L19.40 8.40Q17 10.50 16 14Q15 17.50 15 24.10L15 24.10L15 75.50Q15 78.70 15.50 80.35Q16 82.00 17.20 82.90L17.20 82.90Q18.40 84.10 20.35 84.35Q22.30 84.60 24.60 84.60L24.60 84.60L24 89.60ZM36.90 65.90L36.90 65.90Q34.90 65.90 32.75 64.20Q30.60 62.50 29.15 60.00Q27.70 57.50 27.70 55.10L27.70 55.10Q27.70 53.20 28.80 52.05Q29.90 50.90 32.80 50.90L32.80 50.90L62.10 50.90L62.10 29.30L67.40 30.10L67.40 75.50Q67.40 78.70 67.95 80.35Q68.50 82.00 69.60 82.90L69.60 82.90Q70.80 84.10 72.75 84.35Q74.70 84.60 77 84.60L77 84.60L76.50 89.60L75.50 89.60Q72.50 89.60 69.95 88.95Q67.40 88.30 65.60 86.60L65.60 86.60Q63.80 84.90 62.95 82.40Q62.10 79.90 62.10 75.80L62.10 75.80L62.10 55.80L40.90 55.80L40.90 61.10Q40.90 63.60 39.80 64.75Q38.70 65.90 36.90 65.90Z" />
      <g
     id="g309"
     inkscape:label="g2">
    <path
       style="display:inline"
       d="M 14.3,89 H 13.4 Q 10.3,89 7.8,88.35 5.3,87.7 3.5,86 v 0 Q 1.6,84.3 0.8,81.8 0,79.3 0,75.2 v 0 -53.4 Q 0,15.2 1.35,11.1 2.7,7 6.1,4.1 v 0 Q 8.3,2.2 11.45,1.1 14.6,0 18.7,0 V 0 Q 27.8,0 35.05,5.25 42.3,10.5 49.6,19 v 0 l -3.9,3.1 Q 39.3,14.5 32.95,9.7 26.6,4.9 19,4.9 v 0 q -5.9,0 -9.3,2.9 v 0 q -2.4,2.1 -3.4,5.6 -1,3.5 -1,10.1 v 0 51.4 q 0,3.2 0.5,4.85 0.5,1.65 1.7,2.55 v 0 q 1.2,1.2 3.15,1.45 Q 12.6,84 14.9,84 v 0 z"
       id="path2"
       inkscape:label="p2" />
    <path
       style="display:inline;fill:none;stroke:#000000;stroke-width:1px;stroke-linecap:butt;stroke-linejoin:miter;stroke-opacity:1"
       d="M 47.652368,20.738116 C 42.912163,15.169343 37.771996,9.7590782 31.535156,5.8554687 25.556372,2.3479405 17.925665,1.3282836 11.384063,3.8090168 7.098823,5.5445734 4.0571601,9.6376118 3.3691387,14.177325 2.2636698,19.814013 2.8760079,25.587166 2.7106596,31.290784 c 0.017146,15.362435 -0.08206,30.727062 0.00809,46.088122 0.1319749,2.783277 1.0109143,5.743286 3.4696807,7.348394 2.457118,1.869621 5.6943627,1.540296 8.5928207,1.741457"
       id="path491"
       inkscape:label="s3" /></g>
    <path style="fill:none;stroke:#000000;stroke-width:1px;stroke-linecap:butt;stroke-linejoin:miter;stroke-opacity:1"
        d="m 10.507165,26.538601 c -0.02488,2.099271 0.352667,4.218018 0.07983,6.303657 -0.492967,1.466184 -2.5820407,1.38496 -3.4906831,0.373546 C 5.4245239,31.649731 3.7195205,29.897585 3.0109238,27.665532 2.6811556,26.489295 2.2991858,25.015001 3.5317635,24.31398 4.3125648,23.690243 5.3957829,23.9171 6.3282356,23.837413 c 2.507178,0.03546 5.0077374,0.34555 7.5170824,0.213234 6.929165,-0.0013 13.858329,-0.0025 20.787494,-0.0038"
        id="path280" inkscape:label="s1" sodipodi:nodetypes="cccccccc" />
    <path style="fill:none;stroke:#000000;stroke-width:1px;stroke-linecap:butt;stroke-linejoin:miter;stroke-opacity:1"
        d="m 37.0625,0.00390625 c 0.01228,15.94448075 -0.03,31.88994175 0.01653,47.83381175 0.104906,2.798013 0.693693,5.871892 2.970521,7.747553 1.948879,1.839047 4.749608,2.025244 7.28697,2.120108 0.56881,0.03831 1.137619,0.07663 1.706429,0.114941"
        id="path282" inkscape:label="s2" />
</svg>