<svg xmlns="http://www.w3.org/2000/svg" xmlns:xlink="http://www.w3.org/1999/xlink" width="77.5" height="130.4"><path d="M11.80 65.90L11.80 65.90Q9.80 65.90 7.65 64.20Q5.50 62.50 4.05 60.00Q2.60 57.50 2.60 55.10L2.60 55.10Q2.60 53.20 3.70 52.05Q4.80 50.90 7.70 50.90L7.70 50.90L37 50.90L37 29.30L42.30 30.10L42.30 75.50Q42.30 78.70 42.85 80.35Q43.40 82.00 44.50 82.90L44.50 82.90Q45.70 84.10 47.65 84.35Q49.60 84.60 51.90 84.60L51.90 84.60L51.40 89.60L50.40 89.60Q47.40 89.60 44.85 88.95Q42.30 88.30 40.50 86.60L40.50 86.60Q38.70 84.90 37.85 82.40Q37 79.90 37 75.80L37 75.80L37 55.80L15.80 55.80L15.80 61.10Q15.80 63.60 14.70 64.75Q13.60 65.90 11.80 65.90ZM76.50 89.60L75.50 89.60Q72.50 89.60 69.95 88.95Q67.40 88.30 65.60 86.60L65.60 86.60Q62.10 83.30 62.10 75.80L62.10 75.80L62.10 29.10Q60.70 17.70 57.20 11.60Q53.70 5.50 48.20 5.50L48.20 5.50Q44.60 5.50 42.60 8.10Q40.60 10.70 40.60 15.80L40.60 15.80Q40.60 19.70 41.20 22.80L41.20 22.80L36.10 22.80Q35.80 21.30 35.55 19.20Q35.30 17.10 35.30 15.20L35.30 15.20Q35.30 8.60 38.65 4.60Q42.00 0.60 48.20 0.60L48.20 0.60Q54.10 0.60 58.10 4.55Q62.10 8.50 64.35 14.95Q66.60 21.40 67.40 28.80L67.40 28.80L67.40 75.50Q67.40 78.80 67.90 80.35Q68.40 81.90 69.60 82.90L69.60 82.90Q70.80 84.10 72.80 84.35Q74.80 84.60 77 84.60L77 84.60L76.50 89.60Z"/></svg>