<svg xmlns="http://www.w3.org/2000/svg" xmlns:xlink="http://www.w3.org/1999/xlink" width="52.400000000000006" height="130.4"><path d="M11.80 65.90L11.80 65.90Q9.80 65.90 7.65 64.20Q5.50 62.50 4.05 60.00Q2.60 57.50 2.60 55.10L2.60 55.10Q2.60 53.20 3.70 52.05Q4.80 50.90 7.70 50.90L7.70 50.90L37 50.90L37 29.30L42.30 30.10L42.30 75.50Q42.30 78.70 42.85 80.35Q43.40 82.00 44.50 82.90L44.50 82.90Q45.70 84.10 47.65 84.35Q49.60 84.60 51.90 84.60L51.90 84.60L51.40 89.60L50.40 89.60Q47.40 89.60 44.85 88.95Q42.30 88.30 40.50 86.60L40.50 86.60Q38.70 84.90 37.85 82.40Q37 79.90 37 75.80L37 75.80L37 55.80L15.80 55.80L15.80 61.10Q15.80 63.60 14.70 64.75Q13.60 65.90 11.80 65.90ZM36.70 116.30L36.70 116.30Q30.10 116.30 24.95 114.05Q19.80 111.80 15.65 108.00Q11.50 104.20 8 99.40L8 99.40L12.20 96.50Q17.30 103.20 22.90 107.30Q28.50 111.40 36.70 111.40L36.70 111.40Q42.40 111.40 45.40 109.20Q48.40 107.00 48.40 102.70L48.40 102.70Q48.40 98.80 45.80 96.80Q43.20 94.80 38.80 94.80L38.80 94.80Q36.30 94.80 34.10 95.35Q31.90 95.90 29.70 96.80L29.70 96.80L27.90 92.30Q30.50 91.20 33.10 90.65Q35.70 90.10 38.50 90.10L38.50 90.10Q45.60 90.10 49.50 93.65Q53.40 97.20 53.40 103.10L53.40 103.10Q53.40 109.30 48.95 112.80Q44.50 116.30 36.70 116.30Z"/></svg>