<svg xmlns="http://www.w3.org/2000/svg" xmlns:xlink="http://www.w3.org/1999/xlink" width="52.400000000000006" height="130.4"><path d="M11.80 65.90L11.80 65.90Q9.80 65.90 7.65 64.20Q5.50 62.50 4.05 60.00Q2.60 57.50 2.60 55.10L2.60 55.10Q2.60 53.20 3.70 52.05Q4.80 50.90 7.70 50.90L7.70 50.90L37 50.90L37 29.30L42.30 30.10L42.30 75.50Q42.30 78.70 42.85 80.35Q43.40 82.00 44.50 82.90L44.50 82.90Q45.70 84.10 47.65 84.35Q49.60 84.60 51.90 84.60L51.90 84.60L51.40 89.60L50.40 89.60Q47.40 89.60 44.85 88.95Q42.30 88.30 40.50 86.60L40.50 86.60Q38.70 84.90 37.85 82.40Q37 79.90 37 75.80L37 75.80L37 55.80L15.80 55.80L15.80 61.10Q15.80 63.60 14.70 64.75Q13.60 65.90 11.80 65.90ZM34.90 116.10L34.90 116.10Q27.80 116.10 23.90 112.50Q20.00 108.90 20.00 103.00L20.00 103.00Q20.00 97.60 24.10 93.85Q28.20 90.10 36.10 90.10L36.10 90.10Q43.40 90.10 48.75 92.85Q54.10 95.60 58.20 99.95Q62.30 104.30 65.70 109.20L65.70 109.20L61.60 111.90Q57.90 106.80 54.25 102.95Q50.60 99.10 46.25 96.95Q41.90 94.80 36.30 94.80L36.30 94.80Q30.50 94.80 27.75 97.15Q25.00 99.50 25.00 103.10L25.00 103.10Q25.00 107.30 27.70 109.25Q30.40 111.20 34.60 111.20L34.60 111.20Q37.30 111.20 39.55 110.65Q41.80 110.10 44.00 109.10L44.00 109.10L45.70 113.90Q43.10 114.90 40.40 115.50Q37.70 116.10 34.90 116.10Z"/></svg>