<?xml version="1.0" encoding="UTF-8" standalone="no"?>
<svg
   width="49.299999"
   height="89.599998"
   version="1.1"
   id="svg783"
   sodipodi:docname="6_ne.svg"
   inkscape:version="1.2.1 (9c6d41e410, 2022-07-14)"
   xmlns:inkscape="http://www.inkscape.org/namespaces/inkscape"
   xmlns:sodipodi="http://sodipodi.sourceforge.net/DTD/sodipodi-0.dtd"
   xmlns="http://www.w3.org/2000/svg"
   xmlns:svg="http://www.w3.org/2000/svg">
  <defs
     id="defs787" />
  <sodipodi:namedview
     id="namedview785"
     pagecolor="#ffffff"
     bordercolor="#666666"
     borderopacity="1.0"
     inkscape:showpageshadow="2"
     inkscape:pageopacity="0.0"
     inkscape:pagecheckerboard="0"
     inkscape:deskcolor="#d1d1d1"
     showgrid="false"
     inkscape:zoom="1.809816"
     inkscape:cx="23.48305"
     inkscape:cy="65.199997"
     inkscape:window-width="1920"
     inkscape:window-height="1027"
     inkscape:window-x="-8"
     inkscape:window-y="-8"
     inkscape:window-maximized="1"
     inkscape:current-layer="svg783" />
  <g
     id="g11"
     inkscape:label="g1"
     transform="translate(0,29.3)">
    <path
       d="m 9.2,36.6 v 0 q -2,0 -4.15,-1.7 Q 2.9,33.2 1.45,30.7 0,28.2 0,25.8 v 0 q 0,-1.9 1.1,-3.05 1.1,-1.15 4,-1.15 v 0 H 34.4 V 0 l 5.3,0.8 v 45.4 q 0,3.2 0.55,4.85 0.55,1.65 1.65,2.55 v 0 q 1.2,1.2 3.15,1.45 1.95,0.25 4.25,0.25 v 0 l -0.5,5 h -1 q -3,0 -5.55,-0.65 Q 39.7,59 37.9,57.3 v 0 Q 36.1,55.6 35.25,53.1 34.4,50.6 34.4,46.5 v 0 -20 H 13.2 v 5.3 q 0,2.5 -1.1,3.65 Q 11,36.6 9.2,36.6 Z"
       id="path2"
       inkscape:label="p1" />
    <path
       style="fill:none;stroke:#000000;stroke-width:1px;stroke-linecap:butt;stroke-linejoin:miter;stroke-opacity:1"
       d="m 10.507165,26.538601 c -0.02488,2.099271 0.352667,4.218018 0.07983,6.303657 -0.492967,1.466184 -2.5820407,1.38496 -3.4906831,0.373546 C 5.4245239,31.649731 3.7195205,29.897585 3.0109238,27.665532 2.6811556,26.489295 2.2991858,25.015001 3.5317635,24.31398 4.3125648,23.690243 5.3957829,23.9171 6.3282356,23.837413 c 2.507178,0.03546 5.0077374,0.34555 7.5170824,0.213234 6.929165,-0.0013 13.858329,-0.0025 20.787494,-0.0038"
       id="path280-8"
       inkscape:label="s1"
       sodipodi:nodetypes="cccccccc" />
    <path
       style="fill:none;stroke:#000000;stroke-width:1px;stroke-linecap:butt;stroke-linejoin:miter;stroke-opacity:1"
       d="m 37.0625,0.00390625 c 0.01228,15.94448075 -0.03,31.88994175 0.01653,47.83381175 0.104906,2.798013 0.693693,5.871892 2.970521,7.747553 1.948879,1.839047 4.749608,2.025244 7.28697,2.120108 0.56881,0.03831 1.137619,0.07663 1.706429,0.114941"
       id="path282-5"
       inkscape:label="s2" />
  </g>
  <g
     id="g489"
     inkscape:label="g2"
     transform="matrix(1,0,0,0.99011452,3.2,0)">
    <path
       style="display:inline"
       d="M 36,25.5 H 31.2 Q 29,17.9 27,13.4 25,8.9 22.45,6.9 19.9,4.9 16,4.9 v 0 q -2.8,0 -5.8,0.9 v 0 L 8.6,1.2 Q 10.6,0.6 12.55,0.3 14.5,0 16.3,0 V 0 Q 21,0 24.5,2.15 28,4.3 30.75,9.8 33.5,15.3 36,25.5 Z"
       id="path480"
       inkscape:label="p2" />
    <path
       style="display:inline;fill:none;stroke:#000000;stroke-width:1px;stroke-linecap:butt;stroke-linejoin:miter;stroke-opacity:1"
       d="M 9.1953125,3.65625 C 11.885187,3.0547747 14.602752,2.1924171 17.392371,2.5147776 c 2.933702,0.1444617 5.855129,1.3548567 7.857702,3.5355896 2.358946,2.4575826 3.759606,5.6375698 4.974188,8.7751108 1.29204,3.54249 2.32594,7.16808 3.361676,10.791709"
       id="path595"
       inkscape:label="s3" />
  </g>
</svg>
