<svg xmlns="http://www.w3.org/2000/svg" xmlns:xlink="http://www.w3.org/1999/xlink" width="52.400000000000006" height="130.4"><path d="M11.80 65.90L11.80 65.90Q9.80 65.90 7.65 64.20Q5.50 62.50 4.05 60.00Q2.60 57.50 2.60 55.10L2.60 55.10Q2.60 53.20 3.70 52.05Q4.80 50.90 7.70 50.90L7.70 50.90L37 50.90L37 29.30L42.30 30.10L42.30 75.50Q42.30 78.70 42.85 80.35Q43.40 82.00 44.50 82.90L44.50 82.90Q45.70 84.10 47.65 84.35Q49.60 84.60 51.90 84.60L51.90 84.60L51.40 89.60L50.40 89.60Q47.40 89.60 44.85 88.95Q42.30 88.30 40.50 86.60L40.50 86.60Q38.70 84.90 37.85 82.40Q37 79.90 37 75.80L37 75.80L37 55.80L15.80 55.80L15.80 61.10Q15.80 63.60 14.70 64.75Q13.60 65.90 11.80 65.90ZM41.80 25.50L37.00 25.50Q34.80 17.90 32.80 13.40Q30.80 8.90 28.25 6.90Q25.70 4.90 21.80 4.90L21.80 4.90Q19.00 4.90 16.00 5.80L16.00 5.80L14.40 1.20Q16.40 0.60 18.35 0.30Q20.30 0 22.10 0L22.10 0Q26.80 0 30.30 2.15Q33.80 4.30 36.55 9.80Q39.30 15.30 41.80 25.50L41.80 25.50Z"/></svg>