<svg xmlns="http://www.w3.org/2000/svg" xmlns:xlink="http://www.w3.org/1999/xlink" width="52.400000000000006" height="130.4"><path d="M11.80 65.90L11.80 65.90Q9.80 65.90 7.65 64.20Q5.50 62.50 4.05 60.00Q2.60 57.50 2.60 55.10L2.60 55.10Q2.60 53.20 3.70 52.05Q4.80 50.90 7.70 50.90L7.70 50.90L37 50.90L37 29.30L42.30 30.10L42.30 75.50Q42.30 78.70 42.85 80.35Q43.40 82.00 44.50 82.90L44.50 82.90Q45.70 84.10 47.65 84.35Q49.60 84.60 51.90 84.60L51.90 84.60L51.40 89.60L50.40 89.60Q47.40 89.60 44.85 88.95Q42.30 88.30 40.50 86.60L40.50 86.60Q38.70 84.90 37.85 82.40Q37 79.90 37 75.80L37 75.80L37 55.80L15.80 55.80L15.80 61.10Q15.80 63.60 14.70 64.75Q13.60 65.90 11.80 65.90ZM41.90 25.50L37.50 25.50Q35.60 17.70 33.75 13.15Q31.90 8.60 29.45 6.70Q27.00 4.80 23.20 4.80L23.20 4.80Q22.00 4.80 20.65 5Q19.30 5.20 17.80 5.70L17.80 5.70L16.30 1.10Q18.20 0.50 20.00 0.25Q21.80 0 23.50 0L23.50 0Q28.10 0 31.45 2.25Q34.80 4.50 37.30 10.05Q39.80 15.60 41.90 25.50L41.90 25.50ZM36.60 23.70L33.80 26.60Q27.70 21.20 23.50 18.85Q19.30 16.50 14.40 16.50L14.40 16.50Q10.90 16.50 8 17.40L8 17.40L6.50 12.70Q8.30 12.30 10.25 12Q12.20 11.70 14.40 11.70L14.40 11.70Q18.20 11.70 21.55 12.90Q24.90 14.10 28.45 16.75Q32 19.40 36.60 23.70L36.60 23.70Z"/></svg>