<?xml version="1.0" encoding="UTF-8" standalone="no"?>
<svg
   width="74.400002"
   height="89.599998"
   version="1.1"
   id="svg1125"
   sodipodi:docname="8_no.svg"
   inkscape:version="1.2.1 (9c6d41e410, 2022-07-14)"
   xmlns:inkscape="http://www.inkscape.org/namespaces/inkscape"
   xmlns:sodipodi="http://sodipodi.sourceforge.net/DTD/sodipodi-0.dtd"
   xmlns="http://www.w3.org/2000/svg"
   xmlns:svg="http://www.w3.org/2000/svg">
  <defs
     id="defs1129" />
  <sodipodi:namedview
     id="namedview1127"
     pagecolor="#ffffff"
     bordercolor="#666666"
     borderopacity="1.0"
     inkscape:showpageshadow="2"
     inkscape:pageopacity="0.0"
     inkscape:pagecheckerboard="0"
     inkscape:deskcolor="#d1d1d1"
     showgrid="false"
     inkscape:zoom="1.809816"
     inkscape:cx="36.191524"
     inkscape:cy="65.199997"
     inkscape:window-width="1920"
     inkscape:window-height="1027"
     inkscape:window-x="-8"
     inkscape:window-y="-8"
     inkscape:window-maximized="1"
     inkscape:current-layer="svg1125" />
  <g
     id="g11"
     inkscape:label="g1"
     transform="translate(0,29.3)">
    <path
       d="m 9.2,36.6 v 0 q -2,0 -4.15,-1.7 Q 2.9,33.2 1.45,30.7 0,28.2 0,25.8 v 0 q 0,-1.9 1.1,-3.05 1.1,-1.15 4,-1.15 v 0 H 34.4 V 0 l 5.3,0.8 v 45.4 q 0,3.2 0.55,4.85 0.55,1.65 1.65,2.55 v 0 q 1.2,1.2 3.15,1.45 1.95,0.25 4.25,0.25 v 0 l -0.5,5 h -1 q -3,0 -5.55,-0.65 Q 39.7,59 37.9,57.3 v 0 Q 36.1,55.6 35.25,53.1 34.4,50.6 34.4,46.5 v 0 -20 H 13.2 v 5.3 q 0,2.5 -1.1,3.65 Q 11,36.6 9.2,36.6 Z"
       id="path2"
       inkscape:label="p1" />
    <path
       style="fill:none;stroke:#000000;stroke-width:1px;stroke-linecap:butt;stroke-linejoin:miter;stroke-opacity:1"
       d="m 10.507165,26.538601 c -0.02488,2.099271 0.352667,4.218018 0.07983,6.303657 -0.492967,1.466184 -2.5820407,1.38496 -3.4906831,0.373546 C 5.4245239,31.649731 3.7195205,29.897585 3.0109238,27.665532 2.6811556,26.489295 2.2991858,25.015001 3.5317635,24.31398 4.3125648,23.690243 5.3957829,23.9171 6.3282356,23.837413 c 2.507178,0.03546 5.0077374,0.34555 7.5170824,0.213234 6.929165,-0.0013 13.858329,-0.0025 20.787494,-0.0038"
       id="path280-4"
       inkscape:label="s1"
       sodipodi:nodetypes="cccccccc" />
    <path
       style="fill:none;stroke:#000000;stroke-width:1px;stroke-linecap:butt;stroke-linejoin:miter;stroke-opacity:1"
       d="m 37.0625,0.00390625 c 0.01228,15.94448075 -0.03,31.88994175 0.01653,47.83381175 0.104906,2.798013 0.693693,5.871892 2.970521,7.747553 1.948879,1.839047 4.749608,2.025244 7.28697,2.120108 0.56881,0.03831 1.137619,0.07663 1.706429,0.114941"
       id="path282-9"
       inkscape:label="s2" />
  </g>
  <g
     id="g562"
     inkscape:label="g2"
     transform="translate(3.2)">
    <path
       style="display:inline"
       d="m 70.7,89.6 h -1 q -6.6,0 -9.9,-3 v 0 Q 58,85 57.15,82.5 56.3,80 56.3,75.8 v 0 -46.5 l 5.3,0.7 v 45.5 q 0,3.3 0.5,4.9 0.5,1.6 1.8,2.6 v 0 q 1.2,1.1 3.05,1.35 1.85,0.25 4.25,0.25 v 0 z"
       id="path551"
       inkscape:label="p2" />
    <path
       style="display:inline;fill:none;stroke:#000000;stroke-width:1px;stroke-linecap:butt;stroke-linejoin:miter;stroke-opacity:1"
       d="m 58.92722,29.304293 c 0.0052,15.660703 -0.0419,31.322813 -0.004,46.982637 0.07316,2.661925 0.300704,5.531206 2.06529,7.674603 1.94562,2.285428 5.076187,2.956219 7.950186,3.001875 0.734456,0.05113 1.468913,0.102253 2.203369,0.15338"
       id="path81"
       inkscape:label="s3" />
  </g>
  <g
     id="g566"
     inkscape:label="g3"
     transform="matrix(1,0,0,0.99166813,3.2,0)">
    <path
       style="display:inline"
       d="M 61.1,25.5 H 56.3 Q 54.1,17.9 52.1,13.4 50.1,8.9 47.55,6.9 45,4.9 41.1,4.9 v 0 q -2.8,0 -5.8,0.9 v 0 L 33.7,1.2 Q 35.7,0.6 37.65,0.3 39.6,0 41.4,0 v 0 q 4.7,0 8.2,2.15 3.5,2.15 6.25,7.65 2.75,5.5 5.25,15.7 z"
       id="path553"
       inkscape:label="p3" />
    <path
       style="display:inline;fill:none;stroke:#000000;stroke-width:1px;stroke-linecap:butt;stroke-linejoin:miter;stroke-opacity:1"
       d="m 34.390625,3.625 c 2.407735,-0.5487371 4.818668,-1.2842266 7.316349,-1.1718755 2.367913,0.061684 4.769179,0.644832 6.746194,1.9883103 2.283908,1.5216174 3.856335,3.867577 5.081293,6.2795292 0.985525,1.850814 1.702889,3.830646 2.400769,5.803765 1.025962,2.981686 1.857827,6.023718 2.740551,9.04949"
       id="path814"
       inkscape:label="s4" />
  </g>
</svg>
