<svg xmlns="http://www.w3.org/2000/svg" xmlns:xlink="http://www.w3.org/1999/xlink" width="77.5" height="130.4"><path d="M11.80 65.90L11.80 65.90Q9.80 65.90 7.65 64.20Q5.50 62.50 4.05 60.00Q2.60 57.50 2.60 55.10L2.60 55.10Q2.60 53.20 3.70 52.05Q4.80 50.90 7.70 50.90L7.70 50.90L37 50.90L37 29.30L42.30 30.10L42.30 75.50Q42.30 78.70 42.85 80.35Q43.40 82.00 44.50 82.90L44.50 82.90Q45.70 84.10 47.65 84.35Q49.60 84.60 51.90 84.60L51.90 84.60L51.40 89.60L50.40 89.60Q47.40 89.60 44.85 88.95Q42.30 88.30 40.50 86.60L40.50 86.60Q38.70 84.90 37.85 82.40Q37 79.90 37 75.80L37 75.80L37 55.80L15.80 55.80L15.80 61.10Q15.80 63.60 14.70 64.75Q13.60 65.90 11.80 65.90ZM76.50 89.60L75.50 89.60Q68.90 89.60 65.60 86.60L65.60 86.60Q63.80 85.00 62.95 82.50Q62.10 80 62.10 75.80L62.10 75.80L62.10 29.30L67.40 30.00L67.40 75.50Q67.40 78.80 67.90 80.40Q68.40 82.00 69.70 83.00L69.70 83.00Q70.90 84.10 72.75 84.35Q74.60 84.60 77 84.60L77 84.60L76.50 89.60ZM66.90 25.50L62.10 25.50Q59.90 17.90 57.90 13.40Q55.90 8.90 53.35 6.90Q50.80 4.90 46.90 4.90L46.90 4.90Q44.10 4.90 41.10 5.80L41.10 5.80L39.50 1.20Q41.50 0.60 43.45 0.30Q45.40 0 47.20 0L47.20 0Q51.90 0 55.40 2.15Q58.90 4.30 61.65 9.80Q64.40 15.30 66.90 25.50L66.90 25.50Z"/></svg>