<svg xmlns="http://www.w3.org/2000/svg" xmlns:xlink="http://www.w3.org/1999/xlink" width="77.5" height="130.4"><path d="M11.80 65.90L11.80 65.90Q9.80 65.90 7.65 64.20Q5.50 62.50 4.05 60.00Q2.60 57.50 2.60 55.10L2.60 55.10Q2.60 53.20 3.70 52.05Q4.80 50.90 7.70 50.90L7.70 50.90L37 50.90L37 29.30L42.30 30.10L42.30 75.50Q42.30 78.70 42.85 80.35Q43.40 82.00 44.50 82.90L44.50 82.90Q45.70 84.10 47.65 84.35Q49.60 84.60 51.90 84.60L51.90 84.60L51.40 89.60L50.40 89.60Q47.40 89.60 44.85 88.95Q42.30 88.30 40.50 86.60L40.50 86.60Q38.70 84.90 37.85 82.40Q37 79.90 37 75.80L37 75.80L37 55.80L15.80 55.80L15.80 61.10Q15.80 63.60 14.70 64.75Q13.60 65.90 11.80 65.90ZM76.50 89.60L75.50 89.60Q68.90 89.60 65.60 86.60L65.60 86.60Q63.80 85.00 62.95 82.50Q62.10 80 62.10 75.80L62.10 75.80L62.10 29.30L67.40 30.00L67.40 75.50Q67.40 78.80 67.90 80.40Q68.40 82.00 69.70 83.00L69.70 83.00Q70.90 84.10 72.75 84.35Q74.60 84.60 77 84.60L77 84.60L76.50 89.60ZM67 25.50L62.60 25.50Q60.70 17.70 58.85 13.15Q57.00 8.60 54.55 6.70Q52.10 4.80 48.30 4.80L48.30 4.80Q47.10 4.80 45.75 5Q44.40 5.20 42.90 5.70L42.90 5.70L41.40 1.10Q43.30 0.50 45.10 0.25Q46.90 0 48.60 0L48.60 0Q53.20 0 56.55 2.25Q59.90 4.50 62.40 10.05Q64.90 15.60 67 25.50L67 25.50ZM61.70 23.70L58.90 26.60Q52.80 21.20 48.60 18.85Q44.40 16.50 39.50 16.50L39.50 16.50Q36 16.50 33.10 17.40L33.10 17.40L31.60 12.70Q33.40 12.30 35.35 12Q37.30 11.70 39.50 11.70L39.50 11.70Q43.30 11.70 46.65 12.90Q50.00 14.10 53.55 16.75Q57.10 19.40 61.70 23.70L61.70 23.70Z"/></svg>