<svg xmlns="http://www.w3.org/2000/svg" xmlns:xlink="http://www.w3.org/1999/xlink" width="98.5" height="130.4">
    <path
        d="M72.40 89.60L71.40 89.60Q64.70 89.60 61.50 86.60L61.50 86.60Q59.70 85.00 58.85 82.50Q58 80 58 75.80L58 75.80L58 48.70Q58 44.10 57.40 41.60Q56.80 39.10 55.40 37.60L55.40 37.60Q53.30 35.10 49.40 35.10L49.40 35.10Q45.70 35.10 43.40 37.60L43.40 37.60Q42 39.10 41.45 41.45Q40.90 43.80 40.90 48.10L40.90 48.10L40.90 54.40Q40.90 59.40 39.90 63.25Q38.90 67.10 36.20 69.90L36.20 69.90Q34.10 72.30 30.85 73.60Q27.60 74.90 23.20 74.90L23.20 74.90Q15.10 74.90 10 69.45Q4.90 64 4.90 54.70L4.90 54.70Q4.90 37.50 25.50 29.30L25.50 29.30L27.30 34.20Q18.40 37.70 14.40 42.90Q10.40 48.10 10.40 54.90L10.40 54.90Q10.40 62.50 14.10 66.25Q17.80 70 23.10 70L23.10 70Q26.30 70 28.60 69Q30.90 68 32.50 66.20L32.50 66.20Q34.10 64.40 34.85 61.80Q35.60 59.20 35.60 55.10L35.60 55.10L35.60 47.30Q35.60 43.40 36.30 40.00Q37 36.60 39.70 33.90L39.70 33.90Q41.40 32.20 43.85 31.25Q46.30 30.30 49.40 30.30L49.40 30.30Q52.60 30.30 55.10 31.30Q57.60 32.30 59.30 34.10L59.30 34.10Q61.40 36.30 62.35 39.15Q63.30 42.00 63.30 47.40L63.30 47.40L63.30 75.50Q63.30 78.70 63.80 80.35Q64.30 82.00 65.50 82.90L65.50 82.90Q66.70 84.10 68.65 84.35Q70.60 84.60 72.90 84.60L72.90 84.60L72.40 89.60ZM97.50 89.60L96.50 89.60Q89.90 89.60 86.60 86.60L86.60 86.60Q84.80 85.00 83.95 82.50Q83.10 80 83.10 75.80L83.10 75.80L83.10 29.30L88.40 30.00L88.40 75.50Q88.40 78.80 88.90 80.40Q89.40 82.00 90.70 83.00L90.70 83.00Q91.90 84.10 93.75 84.35Q95.60 84.60 98 84.60L98 84.60L97.50 89.60Z" />
      <g
     id="g225"
     inkscape:label="g2">
    <path
       style="display:inline"
       d="m 70.7,60.3 h -1 q -6.6,0 -9.9,-3 v 0 Q 58,55.7 57.15,53.2 56.3,50.7 56.3,46.5 v 0 V 0 l 5.3,0.7 v 45.5 q 0,3.3 0.5,4.9 0.5,1.6 1.8,2.6 v 0 q 1.2,1.1 3.05,1.35 1.85,0.25 4.25,0.25 v 0 z"
       id="path216"
       inkscape:label="p2" />
    <path
       style="display:inline;fill:none;stroke:#000000;stroke-width:1px;stroke-linecap:butt;stroke-linejoin:miter;stroke-opacity:1"
       d="m 58.96875,0.03125 c 0.0052,15.660703 -0.0419,31.322813 -0.004,46.982637 0.07316,2.661925 0.300704,5.531206 2.06529,7.674603 1.94562,2.285428 5.076187,2.956219 7.950186,3.001875 0.734456,0.05113 1.468913,0.102253 2.203369,0.15338"
       id="path81"
       inkscape:label="s3" />
  </g>
    <path style="fill:none;stroke:#000000;stroke-width:1px;stroke-linecap:butt;stroke-linejoin:miter;stroke-opacity:1"
        d="M 21.531588,2.5334871 C 15.027476,5.1748991 8.4166038,9.0169177 5.109375,15.484375 2.4069128,20.670234 2.1827494,26.898588 3.679165,32.477193 c 1.568085,5.676326 6.788919,10.095388 12.676965,10.574718 4.855333,0.509892 10.262144,-0.733352 13.451723,-4.679673 3.491367,-4.077343 3.608662,-9.777241 3.556793,-14.871529 0.113409,-4.631291 -0.45838,-9.474427 1.202347,-13.9002535 1.465528,-3.8242664 5.51097,-6.1760344 9.531883,-6.0975734 3.44229,-0.1098191 7.154685,1.0351517 9.148247,4.0232558 2.851194,3.9221491 2.450903,9.0334251 2.514611,13.6271921 0.05967,9.126731 -0.09067,18.259502 0.06602,27.382614 0.09723,3.050674 1.185143,6.438577 4.122463,7.865561 2.452316,1.38533 5.340975,1.176816 8.048039,1.432093"
        id="path329" inkscape:label="s1" />
</svg>