<?xml version="1.0" encoding="UTF-8" standalone="no"?>
<svg
   width="93.099998"
   height="60.299999"
   version="1.1"
   id="svg138"
   sodipodi:docname="1_la.svg"
   inkscape:version="1.2.1 (9c6d41e410, 2022-07-14)"
   xmlns:inkscape="http://www.inkscape.org/namespaces/inkscape"
   xmlns:sodipodi="http://sodipodi.sourceforge.net/DTD/sodipodi-0.dtd"
   xmlns="http://www.w3.org/2000/svg"
   xmlns:svg="http://www.w3.org/2000/svg">
  <defs
     id="defs142" />
  <sodipodi:namedview
     id="namedview140"
     pagecolor="#ffffff"
     bordercolor="#666666"
     borderopacity="1.0"
     inkscape:showpageshadow="2"
     inkscape:pageopacity="0.0"
     inkscape:pagecheckerboard="0"
     inkscape:deskcolor="#d1d1d1"
     showgrid="false"
     inkscape:zoom="1.809816"
     inkscape:cx="44.479659"
     inkscape:cy="35.915253"
     inkscape:window-width="1920"
     inkscape:window-height="1027"
     inkscape:window-x="-8"
     inkscape:window-y="-8"
     inkscape:window-maximized="1"
     inkscape:current-layer="svg138" />
  <g
     id="g113"
     inkscape:label="g1">
    <path
       d="m 67.5,60.3 h -1 q -6.7,0 -9.9,-3 v 0 Q 54.8,55.7 53.95,53.2 53.1,50.7 53.1,46.5 v 0 -27.1 q 0,-4.6 -0.6,-7.1 -0.6,-2.5 -2,-4 v 0 q -2.1,-2.5 -6,-2.5 v 0 q -3.7,0 -6,2.5 v 0 Q 37.1,9.8 36.55,12.15 36,14.5 36,18.8 v 0 6.3 q 0,5 -1,8.85 -1,3.85 -3.7,6.65 v 0 q -2.1,2.4 -5.35,3.7 -3.25,1.3 -7.65,1.3 v 0 Q 10.2,45.6 5.1,40.15 0,34.7 0,25.4 v 0 Q 0,8.2 20.6,0 v 0 l 1.8,4.9 q -8.9,3.5 -12.9,8.7 -4,5.2 -4,12 v 0 q 0,7.6 3.7,11.35 3.7,3.75 9,3.75 v 0 q 3.2,0 5.5,-1 2.3,-1 3.9,-2.8 v 0 q 1.6,-1.8 2.35,-4.4 0.75,-2.6 0.75,-6.7 v 0 -7.8 q 0,-3.9 0.7,-7.3 0.7,-3.4 3.4,-6.1 v 0 Q 36.5,2.9 38.95,1.95 41.4,1 44.5,1 v 0 q 3.2,0 5.7,1 2.5,1 4.2,2.8 v 0 q 2.1,2.2 3.05,5.05 0.95,2.85 0.95,8.25 v 0 28.1 q 0,3.2 0.5,4.85 0.5,1.65 1.7,2.55 v 0 q 1.2,1.2 3.15,1.45 1.95,0.25 4.25,0.25 v 0 z"
       id="path2"
       inkscape:label="p1" />
    <path
       style="fill:none;stroke:#000000;stroke-width:1px;stroke-linecap:butt;stroke-linejoin:miter;stroke-opacity:1"
       d="M 21.531588,2.5334871 C 15.027476,5.1748991 8.4166038,9.0169177 5.109375,15.484375 2.4069128,20.670234 2.1827494,26.898588 3.679165,32.477193 c 1.568085,5.676326 6.788919,10.095388 12.676965,10.574718 4.855333,0.509892 10.262144,-0.733352 13.451723,-4.679673 3.491367,-4.077343 3.608662,-9.777241 3.556793,-14.871529 0.113409,-4.631291 -0.45838,-9.474427 1.202347,-13.9002535 1.465528,-3.8242664 5.51097,-6.1760344 9.531883,-6.0975734 3.44229,-0.1098191 7.154685,1.0351517 9.148247,4.0232558 2.851194,3.9221491 2.450903,9.0334251 2.514611,13.6271921 0.05967,9.126731 -0.09067,18.259502 0.06602,27.382614 0.09723,3.050674 1.185143,6.438577 4.122463,7.865561 2.452316,1.38533 5.340975,1.176816 8.048039,1.432093"
       id="path329-7"
       inkscape:label="s1" />
  </g>
  <g
     id="g225"
     inkscape:label="g2"
     transform="matrix(0.99877143,0,0,1,21.969169,0)">
    <path
       style="display:inline"
       d="m 70.7,60.3 h -1 q -6.6,0 -9.9,-3 v 0 Q 58,55.7 57.15,53.2 56.3,50.7 56.3,46.5 v 0 V 0 l 5.3,0.7 v 45.5 q 0,3.3 0.5,4.9 0.5,1.6 1.8,2.6 v 0 q 1.2,1.1 3.05,1.35 1.85,0.25 4.25,0.25 v 0 z"
       id="path216"
       inkscape:label="p2" />
    <path
       style="display:inline;fill:none;stroke:#000000;stroke-width:1px;stroke-linecap:butt;stroke-linejoin:miter;stroke-opacity:1"
       d="m 58.96875,0.03125 c 0.0052,15.660703 -0.0419,31.322813 -0.004,46.982637 0.07316,2.661925 0.300704,5.531206 2.06529,7.674603 1.94562,2.285428 5.076187,2.956219 7.950186,3.001875 0.734456,0.05113 1.468913,0.102253 2.203369,0.15338"
       id="path81"
       inkscape:label="s3" />
  </g>
</svg>
