<svg xmlns="http://www.w3.org/2000/svg" xmlns:xlink="http://www.w3.org/1999/xlink" width="98.5" height="130.4">
    <path
        d="M24 89.60L23.10 89.60Q20 89.60 17.50 88.95Q15 88.30 13.20 86.60L13.20 86.60Q11.30 84.90 10.50 82.40Q9.70 79.90 9.70 75.80L9.70 75.80L9.70 22.40Q9.70 15.80 11.05 11.70Q12.40 7.60 15.80 4.70L15.80 4.70Q18 2.80 21.15 1.70Q24.30 0.60 28.40 0.60L28.40 0.60Q37.50 0.60 44.75 5.85Q52 11.10 59.30 19.60L59.30 19.60L55.40 22.70Q49 15.10 42.65 10.30Q36.30 5.50 28.70 5.50L28.70 5.50Q22.80 5.50 19.40 8.40L19.40 8.40Q17 10.50 16 14Q15 17.50 15 24.10L15 24.10L15 75.50Q15 78.70 15.50 80.35Q16 82.00 17.20 82.90L17.20 82.90Q18.40 84.10 20.35 84.35Q22.30 84.60 24.60 84.60L24.60 84.60L24 89.60ZM97.50 89.60L96.50 89.60Q89.80 89.60 86.60 86.60L86.60 86.60Q84.80 85.00 83.95 82.50Q83.10 80 83.10 75.80L83.10 75.80L83.10 48.70Q83.10 44.10 82.50 41.60Q81.90 39.10 80.50 37.60L80.50 37.60Q78.40 35.10 74.50 35.10L74.50 35.10Q70.80 35.10 68.50 37.60L68.50 37.60Q67.10 39.10 66.55 41.45Q66 43.80 66 48.10L66 48.10L66 54.40Q66 59.40 65 63.25Q64 67.10 61.30 69.90L61.30 69.90Q59.20 72.30 55.95 73.60Q52.70 74.90 48.30 74.90L48.30 74.90Q40.20 74.90 35.10 69.45Q30 64 30 54.70L30 54.70Q30 37.50 50.60 29.30L50.60 29.30L52.40 34.20Q43.50 37.70 39.50 42.90Q35.50 48.10 35.50 54.90L35.50 54.90Q35.50 62.50 39.20 66.25Q42.90 70 48.20 70L48.20 70Q51.40 70 53.70 69Q56 68 57.60 66.20L57.60 66.20Q59.20 64.40 59.95 61.80Q60.70 59.20 60.70 55.10L60.70 55.10L60.70 47.30Q60.70 43.40 61.40 40.00Q62.10 36.60 64.80 33.90L64.80 33.90Q66.50 32.20 68.95 31.25Q71.40 30.30 74.50 30.30L74.50 30.30Q77.70 30.30 80.20 31.30Q82.70 32.30 84.40 34.10L84.40 34.10Q86.50 36.30 87.45 39.15Q88.40 42.00 88.40 47.40L88.40 47.40L88.40 75.50Q88.40 78.70 88.90 80.35Q89.40 82.00 90.60 82.90L90.60 82.90Q91.80 84.10 93.75 84.35Q95.70 84.60 98 84.60L98 84.60L97.50 89.60Z" />
      <g
     id="g309"
     inkscape:label="g2">
    <path
       style="display:inline"
       d="M 14.3,89 H 13.4 Q 10.3,89 7.8,88.35 5.3,87.7 3.5,86 v 0 Q 1.6,84.3 0.8,81.8 0,79.3 0,75.2 v 0 -53.4 Q 0,15.2 1.35,11.1 2.7,7 6.1,4.1 v 0 Q 8.3,2.2 11.45,1.1 14.6,0 18.7,0 V 0 Q 27.8,0 35.05,5.25 42.3,10.5 49.6,19 v 0 l -3.9,3.1 Q 39.3,14.5 32.95,9.7 26.6,4.9 19,4.9 v 0 q -5.9,0 -9.3,2.9 v 0 q -2.4,2.1 -3.4,5.6 -1,3.5 -1,10.1 v 0 51.4 q 0,3.2 0.5,4.85 0.5,1.65 1.7,2.55 v 0 q 1.2,1.2 3.15,1.45 Q 12.6,84 14.9,84 v 0 z"
       id="path2"
       inkscape:label="p2" />
    <path
       style="display:inline;fill:none;stroke:#000000;stroke-width:1px;stroke-linecap:butt;stroke-linejoin:miter;stroke-opacity:1"
       d="M 47.652368,20.738116 C 42.912163,15.169343 37.771996,9.7590782 31.535156,5.8554687 25.556372,2.3479405 17.925665,1.3282836 11.384063,3.8090168 7.098823,5.5445734 4.0571601,9.6376118 3.3691387,14.177325 2.2636698,19.814013 2.8760079,25.587166 2.7106596,31.290784 c 0.017146,15.362435 -0.08206,30.727062 0.00809,46.088122 0.1319749,2.783277 1.0109143,5.743286 3.4696807,7.348394 2.457118,1.869621 5.6943627,1.540296 8.5928207,1.741457"
       id="path491"
       inkscape:label="s3" /></g>
    <path style="fill:none;stroke:#000000;stroke-width:1px;stroke-linecap:butt;stroke-linejoin:miter;stroke-opacity:1"
        d="M 21.531588,2.5334871 C 15.027476,5.1748991 8.4166038,9.0169177 5.109375,15.484375 2.4069128,20.670234 2.1827494,26.898588 3.679165,32.477193 c 1.568085,5.676326 6.788919,10.095388 12.676965,10.574718 4.855333,0.509892 10.262144,-0.733352 13.451723,-4.679673 3.491367,-4.077343 3.608662,-9.777241 3.556793,-14.871529 0.113409,-4.631291 -0.45838,-9.474427 1.202347,-13.9002535 1.465528,-3.8242664 5.51097,-6.1760344 9.531883,-6.0975734 3.44229,-0.1098191 7.154685,1.0351517 9.148247,4.0232558 2.851194,3.9221491 2.450903,9.0334251 2.514611,13.6271921 0.05967,9.126731 -0.09067,18.259502 0.06602,27.382614 0.09723,3.050674 1.185143,6.438577 4.122463,7.865561 2.452316,1.38533 5.340975,1.176816 8.048039,1.432093"
        id="path329" inkscape:label="s1" />
</svg>