<svg xmlns="http://www.w3.org/2000/svg" xmlns:xlink="http://www.w3.org/1999/xlink" width="98.5" height="130.4"><path d="M24 89.60L23.10 89.60Q20 89.60 17.50 88.95Q15 88.30 13.20 86.60L13.20 86.60Q11.30 84.90 10.50 82.40Q9.70 79.90 9.70 75.80L9.70 75.80L9.70 22.40Q9.70 15.80 11.05 11.70Q12.40 7.60 15.80 4.70L15.80 4.70Q18 2.80 21.15 1.70Q24.30 0.60 28.40 0.60L28.40 0.60Q37.50 0.60 44.75 5.85Q52 11.10 59.30 19.60L59.30 19.60L55.40 22.70Q49 15.10 42.65 10.30Q36.30 5.50 28.70 5.50L28.70 5.50Q22.80 5.50 19.40 8.40L19.40 8.40Q17 10.50 16 14Q15 17.50 15 24.10L15 24.10L15 75.50Q15 78.70 15.50 80.35Q16 82.00 17.20 82.90L17.20 82.90Q18.40 84.10 20.35 84.35Q22.30 84.60 24.60 84.60L24.60 84.60L24 89.60ZM97.50 89.60L96.50 89.60Q89.80 89.60 86.60 86.60L86.60 86.60Q84.80 85.00 83.95 82.50Q83.10 80 83.10 75.80L83.10 75.80L83.10 48.70Q83.10 44.10 82.50 41.60Q81.90 39.10 80.50 37.60L80.50 37.60Q78.40 35.10 74.50 35.10L74.50 35.10Q70.80 35.10 68.50 37.60L68.50 37.60Q67.10 39.10 66.55 41.45Q66 43.80 66 48.10L66 48.10L66 54.40Q66 59.40 65 63.25Q64 67.10 61.30 69.90L61.30 69.90Q59.20 72.30 55.95 73.60Q52.70 74.90 48.30 74.90L48.30 74.90Q40.20 74.90 35.10 69.45Q30 64 30 54.70L30 54.70Q30 37.50 50.60 29.30L50.60 29.30L52.40 34.20Q43.50 37.70 39.50 42.90Q35.50 48.10 35.50 54.90L35.50 54.90Q35.50 62.50 39.20 66.25Q42.90 70 48.20 70L48.20 70Q51.40 70 53.70 69Q56 68 57.60 66.20L57.60 66.20Q59.20 64.40 59.95 61.80Q60.70 59.20 60.70 55.10L60.70 55.10L60.70 47.30Q60.70 43.40 61.40 40.00Q62.10 36.60 64.80 33.90L64.80 33.90Q66.50 32.20 68.95 31.25Q71.40 30.30 74.50 30.30L74.50 30.30Q77.70 30.30 80.20 31.30Q82.70 32.30 84.40 34.10L84.40 34.10Q86.50 36.30 87.45 39.15Q88.40 42.00 88.40 47.40L88.40 47.40L88.40 75.50Q88.40 78.70 88.90 80.35Q89.40 82.00 90.60 82.90L90.60 82.90Q91.80 84.10 93.75 84.35Q95.70 84.60 98 84.60L98 84.60L97.50 89.60Z"/></svg>