<?xml version="1.0" encoding="UTF-8" standalone="no"?>
<svg
   width="93.099998"
   height="89"
   version="1.1"
   id="svg457"
   sodipodi:docname="3_lee.svg"
   inkscape:version="1.2.1 (9c6d41e410, 2022-07-14)"
   xmlns:inkscape="http://www.inkscape.org/namespaces/inkscape"
   xmlns:sodipodi="http://sodipodi.sourceforge.net/DTD/sodipodi-0.dtd"
   xmlns="http://www.w3.org/2000/svg"
   xmlns:svg="http://www.w3.org/2000/svg">
  <defs
     id="defs461" />
  <sodipodi:namedview
     id="namedview459"
     pagecolor="#ffffff"
     bordercolor="#666666"
     borderopacity="1.0"
     inkscape:showpageshadow="2"
     inkscape:pageopacity="0.0"
     inkscape:pagecheckerboard="0"
     inkscape:deskcolor="#d1d1d1"
     showgrid="false"
     inkscape:zoom="1.809816"
     inkscape:cx="44.479659"
     inkscape:cy="64.647455"
     inkscape:window-width="1920"
     inkscape:window-height="1027"
     inkscape:window-x="-8"
     inkscape:window-y="-8"
     inkscape:window-maximized="1"
     inkscape:current-layer="svg457" />
  <g
     id="g113"
     inkscape:label="g1"
     transform="matrix(0.99933555,0,0,1,0,28.7)">
    <path
       d="m 67.54488,60.3 h -1.000665 q -6.704454,0 -9.906582,-3 v 0 q -1.801197,-1.6 -2.651762,-4.1 -0.850565,-2.5 -0.850565,-6.7 v 0 -27.1 q 0,-4.6 -0.600399,-7.1 -0.600399,-2.5 -2.00133,-4 v 0 Q 48.432181,5.8 44.529588,5.8 v 0 q -3.70246,0 -6.00399,2.5 v 0 q -1.400931,1.5 -1.951296,3.85 -0.550366,2.35 -0.550366,6.65 v 0 6.3 q 0,5 -1.000665,8.85 -1.000665,3.85 -3.70246,6.65 v 0 q -2.101396,2.4 -5.353557,3.7 -3.252161,1.3 -7.655086,1.3 v 0 Q 10.206782,45.6 5.1033909,40.15 0,34.7 0,25.4 v 0 Q 0,8.2 20.613697,0 v 0 l 1.801197,4.9 q -8.905918,3.5 -12.9085775,8.7 -4.0026596,5.2 -4.0026596,12 v 0 q 0,7.6 3.7024601,11.35 3.70246,3.75 9.005984,3.75 v 0 q 3.202128,0 5.503657,-1 2.301529,-1 3.902593,-2.8 v 0 q 1.601064,-1.8 2.351563,-4.4 0.750498,-2.6 0.750498,-6.7 v 0 -7.8 q 0,-3.9 0.700466,-7.3 0.700465,-3.4 3.40226,-6.1 v 0 Q 36.524269,2.9 38.975898,1.95 41.427527,1 44.529588,1 v 0 q 3.202127,0 5.70379,1 2.501662,1 4.202792,2.8 v 0 q 2.101396,2.2 3.052028,5.05 0.950632,2.85 0.950632,8.25 v 0 28.1 q 0,3.2 0.500332,4.85 0.500333,1.65 1.70113,2.55 v 0 q 1.200798,1.2 3.152095,1.45 1.951296,0.25 4.252826,0.25 v 0 z"
       id="path2-8"
       inkscape:label="p1"
       style="stroke-width:1.00033" />
    <path
       style="fill:none;stroke:#000000;stroke-width:1px;stroke-linecap:butt;stroke-linejoin:miter;stroke-opacity:1"
       d="M 21.531588,2.5334871 C 15.027476,5.1748991 8.4166038,9.0169177 5.109375,15.484375 2.4069128,20.670234 2.1827494,26.898588 3.679165,32.477193 c 1.568085,5.676326 6.788919,10.095388 12.676965,10.574718 4.855333,0.509892 10.262144,-0.733352 13.451723,-4.679673 3.491367,-4.077343 3.608662,-9.777241 3.556793,-14.871529 0.113409,-4.631291 -0.45838,-9.474427 1.202347,-13.9002535 1.465528,-3.8242664 5.51097,-6.1760344 9.531883,-6.0975734 3.44229,-0.1098191 7.154685,1.0351517 9.148247,4.0232558 2.851194,3.9221491 2.450903,9.0334251 2.514611,13.6271921 0.05967,9.126731 -0.09067,18.259502 0.06602,27.382614 0.09723,3.050674 1.185143,6.438577 4.122463,7.865561 2.452316,1.38533 5.340975,1.176816 8.048039,1.432093"
       id="path329-7"
       inkscape:label="s1" />
  </g>
  <g
     id="g399"
     inkscape:label="g2"
     transform="matrix(0.99899518,0,0,1,21.929642,0)">
    <path
       style="display:inline"
       d="m 70.7,89 h -1 q -3,0 -5.55,-0.65 Q 61.6,87.7 59.8,86 v 0 Q 56.3,82.7 56.3,75.2 v 0 -46.7 Q 54.9,17.1 51.4,11 47.9,4.9 42.4,4.9 v 0 q -3.6,0 -5.6,2.6 -2,2.6 -2,7.7 v 0 q 0,3.9 0.6,7 v 0 H 30.3 Q 30,20.7 29.75,18.6 29.5,16.5 29.5,14.6 v 0 Q 29.5,8 32.85,4 36.2,0 42.4,0 v 0 q 5.9,0 9.9,3.95 4,3.95 6.25,10.4 2.25,6.45 3.05,13.85 v 0 46.7 q 0,3.3 0.5,4.85 0.5,1.55 1.7,2.55 v 0 Q 65,83.5 67,83.75 69,84 71.2,84 v 0 z"
       id="path330"
       inkscape:label="p2" />
    <path
       style="display:inline;fill:none;stroke:#000000;stroke-width:1px;stroke-linecap:butt;stroke-linejoin:miter;stroke-opacity:1"
       d="M 32.90625,22.296875 C 32.189196,17.24716 31.309374,11.67002 33.948338,7.0048776 36.015851,3.1824285 40.814237,1.7827514 44.871275,2.7018315 c 5.299598,1.0610536 8.634255,5.9944562 10.53375,10.6924095 1.94946,4.911209 3.041647,10.154719 3.53254,15.40287 0.03373,16.081561 -0.05668,32.165472 0.05492,48.245568 0.09206,3.485135 1.641413,7.400064 5.196702,8.60873 2.224083,0.864628 4.672997,0.637872 7.006103,0.85642"
       id="path80"
       inkscape:label="s3" />
  </g>
</svg>
