<?xml version="1.0" encoding="UTF-8" standalone="no"?><svg width="81.800003" height="86.800003" version="1.1" id="svg685" sodipodi:docname="5_loo.svg" inkscape:version="1.2.1 (9c6d41e410, 2022-07-14)" xmlns:inkscape="http://www.inkscape.org/namespaces/inkscape" xmlns:sodipodi="http://sodipodi.sourceforge.net/DTD/sodipodi-0.dtd" xmlns="http://www.w3.org/2000/svg" xmlns:svg="http://www.w3.org/2000/svg"><defs id="defs689"></defs><sodipodi:namedview id="namedview687" pagecolor="#ffffff" bordercolor="#666666" borderopacity="1.0" inkscape:showpageshadow="2" inkscape:pageopacity="0.0" inkscape:pagecheckerboard="0" inkscape:deskcolor="#d1d1d1" showgrid="false" inkscape:zoom="1.809816" inkscape:cx="31.771185" inkscape:cy="35.915253" inkscape:window-width="1920" inkscape:window-height="1027" inkscape:window-x="-8" inkscape:window-y="-8" inkscape:window-maximized="1" inkscape:current-layer="svg685"></sodipodi:namedview><g id="g0" inkscape:label="g0" transform="scale(0.99933555,1)"><path d="m 67.54488,60.3 h -1.000665 q -6.704454,0 -9.906582,-3 v 0 q -1.801197,-1.6 -2.651762,-4.1 -0.850565,-2.5 -0.850565,-6.7 v 0 -27.1 q 0,-4.6 -0.600399,-7.1 -0.600399,-2.5 -2.00133,-4 v 0 Q 48.432181,5.8 44.529588,5.8 v 0 q -3.70246,0 -6.00399,2.5 v 0 q -1.400931,1.5 -1.951296,3.85 -0.550366,2.35 -0.550366,6.65 v 0 6.3 q 0,5 -1.000665,8.85 -1.000665,3.85 -3.70246,6.65 v 0 q -2.101396,2.4 -5.353557,3.7 -3.252161,1.3 -7.655086,1.3 v 0 Q 10.206782,45.6 5.1033909,40.15 0,34.7 0,25.4 v 0 Q 0,8.2 20.613697,0 v 0 l 1.801197,4.9 q -8.905918,3.5 -12.9085775,8.7 -4.0026596,5.2 -4.0026596,12 v 0 q 0,7.6 3.7024601,11.35 3.70246,3.75 9.005984,3.75 v 0 q 3.202128,0 5.503657,-1 2.301529,-1 3.902593,-2.8 v 0 q 1.601064,-1.8 2.351563,-4.4 0.750498,-2.6 0.750498,-6.7 v 0 -7.8 q 0,-3.9 0.700466,-7.3 0.700465,-3.4 3.40226,-6.1 v 0 Q 36.524269,2.9 38.975898,1.95 41.427527,1 44.529588,1 v 0 q 3.202127,0 5.70379,1 2.501662,1 4.202792,2.8 v 0 q 2.101396,2.2 3.052028,5.05 0.950632,2.85 0.950632,8.25 v 0 28.1 q 0,3.2 0.500332,4.85 0.500333,1.65 1.70113,2.55 v 0 q 1.200798,1.2 3.152095,1.45 1.951296,0.25 4.252826,0.25 v 0 z" id="g0p0" inkscape:label="g0p0" style="stroke-width:1.00033"></path><path style="fill:none;stroke:#000000;stroke-width:1px;stroke-linecap:butt;stroke-linejoin:miter;stroke-opacity:1" d="M 21.531588,2.5334871 C 15.027476,5.1748991 8.4166038,9.0169177 5.109375,15.484375 2.4069128,20.670234 2.1827494,26.898588 3.679165,32.477193 c 1.568085,5.676326 6.788919,10.095388 12.676965,10.574718 4.855333,0.509892 10.262144,-0.733352 13.451723,-4.679673 3.491367,-4.077343 3.608662,-9.777241 3.556793,-14.871529 0.113409,-4.631291 -0.45838,-9.474427 1.202347,-13.9002535 1.465528,-3.8242664 5.51097,-6.1760344 9.531883,-6.0975734 3.44229,-0.1098191 7.154685,1.0351517 9.148247,4.0232558 2.851194,3.9221491 2.450903,9.0334251 2.514611,13.6271921 0.05967,9.126731 -0.09067,18.259502 0.06602,27.382614 0.09723,3.050674 1.185143,6.438577 4.122463,7.865561 2.452316,1.38533 5.340975,1.176816 8.048039,1.432093" id="g0s0" inkscape:label="g0s0"></path></g><g id="g1" inkscape:label="g1" transform="translate(21.9)"><path style="display:inline" d="m 29.1,86.8 v 0 q -7.1,0 -11,-3.6 -3.9,-3.6 -3.9,-9.5 v 0 q 0,-5.4 4.1,-9.15 4.1,-3.75 12,-3.75 v 0 q 7.3,0 12.65,2.75 5.35,2.75 9.45,7.1 4.1,4.35 7.5,9.25 v 0 l -4.1,2.7 q -3.7,-5.1 -7.35,-8.95 -3.65,-3.85 -8,-6 Q 36.1,65.5 30.5,65.5 v 0 q -5.8,0 -8.55,2.35 -2.75,2.35 -2.75,5.95 v 0 q 0,4.2 2.7,6.15 2.7,1.95 6.9,1.95 v 0 q 2.7,0 4.95,-0.55 Q 36,80.8 38.2,79.8 v 0 l 1.7,4.8 q -2.6,1 -5.3,1.6 -2.7,0.6 -5.5,0.6 z" id="g1p0" inkscape:label="g1p0"></path><path style="display:inline;fill:none;stroke:#000000;stroke-width:1px;stroke-linecap:butt;stroke-linejoin:miter;stroke-opacity:1" d="m 39.156038,82.101726 c -2.559475,0.870519 -5.086907,1.981239 -7.823193,2.132839 -3.656068,0.346073 -7.630959,0.02382 -10.710525,-2.159471 -1.994947,-1.389787 -3.307503,-3.602927 -3.721038,-5.984024 -0.524339,-2.865919 -0.09409,-6.035968 1.795561,-8.342771 1.97195,-2.740177 5.319724,-4.087889 8.589416,-4.419381 5.402628,-0.588506 11.078052,0.234292 15.808321,3.017688 4.134381,2.336077 7.55606,5.727729 10.466774,9.443934 1.484877,1.838423 2.884191,3.743963 4.305828,5.631338" id="g1s0" inkscape:label="g1s0"></path></g></svg>