<svg xmlns="http://www.w3.org/2000/svg" xmlns:xlink="http://www.w3.org/1999/xlink" width="73.4" height="130.4">
    <path
        d="M72.40 89.60L71.40 89.60Q64.70 89.60 61.50 86.60L61.50 86.60Q59.70 85.00 58.85 82.50Q58 80 58 75.80L58 75.80L58 48.70Q58 44.10 57.40 41.60Q56.80 39.10 55.40 37.60L55.40 37.60Q53.30 35.10 49.40 35.10L49.40 35.10Q45.70 35.10 43.40 37.60L43.40 37.60Q42 39.10 41.45 41.45Q40.90 43.80 40.90 48.10L40.90 48.10L40.90 54.40Q40.90 59.40 39.90 63.25Q38.90 67.10 36.20 69.90L36.20 69.90Q34.10 72.30 30.85 73.60Q27.60 74.90 23.20 74.90L23.20 74.90Q15.10 74.90 10 69.45Q4.90 64 4.90 54.70L4.90 54.70Q4.90 37.50 25.50 29.30L25.50 29.30L27.30 34.20Q18.40 37.70 14.40 42.90Q10.40 48.10 10.40 54.90L10.40 54.90Q10.40 62.50 14.10 66.25Q17.80 70 23.10 70L23.10 70Q26.30 70 28.60 69Q30.90 68 32.50 66.20L32.50 66.20Q34.10 64.40 34.85 61.80Q35.60 59.20 35.60 55.10L35.60 55.10L35.60 47.30Q35.60 43.40 36.30 40.00Q37 36.60 39.70 33.90L39.70 33.90Q41.40 32.20 43.85 31.25Q46.30 30.30 49.40 30.30L49.40 30.30Q52.60 30.30 55.10 31.30Q57.60 32.30 59.30 34.10L59.30 34.10Q61.40 36.30 62.35 39.15Q63.30 42.00 63.30 47.40L63.30 47.40L63.30 75.50Q63.30 78.70 63.80 80.35Q64.30 82.00 65.50 82.90L65.50 82.90Q66.70 84.10 68.65 84.35Q70.60 84.60 72.90 84.60L72.90 84.60L72.40 89.60ZM55.90 116.10L55.90 116.10Q48.80 116.10 44.90 112.50Q41.00 108.90 41.00 103.00L41.00 103.00Q41.00 97.60 45.10 93.85Q49.20 90.10 57.10 90.10L57.10 90.10Q64.40 90.10 69.75 92.85Q75.10 95.60 79.20 99.95Q83.30 104.30 86.70 109.20L86.70 109.20L82.60 111.90Q78.90 106.80 75.25 102.95Q71.60 99.10 67.25 96.95Q62.90 94.80 57.30 94.80L57.30 94.80Q51.50 94.80 48.75 97.15Q46 99.50 46 103.10L46 103.10Q46 107.30 48.70 109.25Q51.40 111.20 55.60 111.20L55.60 111.20Q58.30 111.20 60.55 110.65Q62.80 110.10 65 109.10L65 109.10L66.70 113.90Q64.10 114.90 61.40 115.50Q58.70 116.10 55.90 116.10Z" />
    <g
     id="g459"
     inkscape:label="g2">
    <path
       style="display:inline"
       d="m 29.1,86.8 v 0 q -7.1,0 -11,-3.6 -3.9,-3.6 -3.9,-9.5 v 0 q 0,-5.4 4.1,-9.15 4.1,-3.75 12,-3.75 v 0 q 7.3,0 12.65,2.75 5.35,2.75 9.45,7.1 4.1,4.35 7.5,9.25 v 0 l -4.1,2.7 q -3.7,-5.1 -7.35,-8.95 -3.65,-3.85 -8,-6 Q 36.1,65.5 30.5,65.5 v 0 q -5.8,0 -8.55,2.35 -2.75,2.35 -2.75,5.95 v 0 q 0,4.2 2.7,6.15 2.7,1.95 6.9,1.95 v 0 q 2.7,0 4.95,-0.55 Q 36,80.8 38.2,79.8 v 0 l 1.7,4.8 q -2.6,1 -5.3,1.6 -2.7,0.6 -5.5,0.6 z"
       id="path450"
       inkscape:label="p2" />
    <path
       style="display:inline;fill:none;stroke:#000000;stroke-width:1px;stroke-linecap:butt;stroke-linejoin:miter;stroke-opacity:1"
       d="m 39.156038,82.101726 c -2.559475,0.870519 -5.086907,1.981239 -7.823193,2.132839 -3.656068,0.346073 -7.630959,0.02382 -10.710525,-2.159471 -1.994947,-1.389787 -3.307503,-3.602927 -3.721038,-5.984024 -0.524339,-2.865919 -0.09409,-6.035968 1.795561,-8.342771 1.97195,-2.740177 5.319724,-4.087889 8.589416,-4.419381 5.402628,-0.588506 11.078052,0.234292 15.808321,3.017688 4.134381,2.336077 7.55606,5.727729 10.466774,9.443934 1.484877,1.838423 2.884191,3.743963 4.305828,5.631338"
       id="path546"
       inkscape:label="s3" />
  </g>
    <path style="fill:none;stroke:#000000;stroke-width:1px;stroke-linecap:butt;stroke-linejoin:miter;stroke-opacity:1"
        d="M 21.531588,2.5334871 C 15.027476,5.1748991 8.4166038,9.0169177 5.109375,15.484375 2.4069128,20.670234 2.1827494,26.898588 3.679165,32.477193 c 1.568085,5.676326 6.788919,10.095388 12.676965,10.574718 4.855333,0.509892 10.262144,-0.733352 13.451723,-4.679673 3.491367,-4.077343 3.608662,-9.777241 3.556793,-14.871529 0.113409,-4.631291 -0.45838,-9.474427 1.202347,-13.9002535 1.465528,-3.8242664 5.51097,-6.1760344 9.531883,-6.0975734 3.44229,-0.1098191 7.154685,1.0351517 9.148247,4.0232558 2.851194,3.9221491 2.450903,9.0334251 2.514611,13.6271921 0.05967,9.126731 -0.09067,18.259502 0.06602,27.382614 0.09723,3.050674 1.185143,6.438577 4.122463,7.865561 2.452316,1.38533 5.340975,1.176816 8.048039,1.432093"
        id="path329" inkscape:label="s1" />
</svg>