<?xml version="1.0" encoding="UTF-8" standalone="no"?>
<svg
   width="68"
   height="89.599998"
   version="1.1"
   id="svg990"
   sodipodi:docname="7_lai.svg"
   inkscape:version="1.2.1 (9c6d41e410, 2022-07-14)"
   xmlns:inkscape="http://www.inkscape.org/namespaces/inkscape"
   xmlns:sodipodi="http://sodipodi.sourceforge.net/DTD/sodipodi-0.dtd"
   xmlns="http://www.w3.org/2000/svg"
   xmlns:svg="http://www.w3.org/2000/svg">
  <defs
     id="defs994" />
  <sodipodi:namedview
     id="namedview992"
     pagecolor="#ffffff"
     bordercolor="#666666"
     borderopacity="1.0"
     inkscape:showpageshadow="2"
     inkscape:pageopacity="0.0"
     inkscape:pagecheckerboard="0"
     inkscape:deskcolor="#d1d1d1"
     showgrid="false"
     inkscape:zoom="1.809816"
     inkscape:cx="31.771185"
     inkscape:cy="65.199997"
     inkscape:window-width="1920"
     inkscape:window-height="1027"
     inkscape:window-x="-8"
     inkscape:window-y="-8"
     inkscape:window-maximized="1"
     inkscape:current-layer="svg990" />
  <g
     id="g113"
     inkscape:label="g1"
     transform="matrix(0.99933555,0,0,1,0,29.3)">
    <path
       d="m 67.54488,60.3 h -1.000665 q -6.704454,0 -9.906582,-3 v 0 q -1.801197,-1.6 -2.651762,-4.1 -0.850565,-2.5 -0.850565,-6.7 v 0 -27.1 q 0,-4.6 -0.600399,-7.1 -0.600399,-2.5 -2.00133,-4 v 0 Q 48.432181,5.8 44.529588,5.8 v 0 q -3.70246,0 -6.00399,2.5 v 0 q -1.400931,1.5 -1.951296,3.85 -0.550366,2.35 -0.550366,6.65 v 0 6.3 q 0,5 -1.000665,8.85 -1.000665,3.85 -3.70246,6.65 v 0 q -2.101396,2.4 -5.353557,3.7 -3.252161,1.3 -7.655086,1.3 v 0 Q 10.206782,45.6 5.1033909,40.15 0,34.7 0,25.4 v 0 Q 0,8.2 20.613697,0 v 0 l 1.801197,4.9 q -8.905918,3.5 -12.9085775,8.7 -4.0026596,5.2 -4.0026596,12 v 0 q 0,7.6 3.7024601,11.35 3.70246,3.75 9.005984,3.75 v 0 q 3.202128,0 5.503657,-1 2.301529,-1 3.902593,-2.8 v 0 q 1.601064,-1.8 2.351563,-4.4 0.750498,-2.6 0.750498,-6.7 v 0 -7.8 q 0,-3.9 0.700466,-7.3 0.700465,-3.4 3.40226,-6.1 v 0 Q 36.524269,2.9 38.975898,1.95 41.427527,1 44.529588,1 v 0 q 3.202127,0 5.70379,1 2.501662,1 4.202792,2.8 v 0 q 2.101396,2.2 3.052028,5.05 0.950632,2.85 0.950632,8.25 v 0 28.1 q 0,3.2 0.500332,4.85 0.500333,1.65 1.70113,2.55 v 0 q 1.200798,1.2 3.152095,1.45 1.951296,0.25 4.252826,0.25 v 0 z"
       id="path2-8"
       inkscape:label="p1"
       style="stroke-width:1.00033" />
    <path
       style="fill:none;stroke:#000000;stroke-width:1px;stroke-linecap:butt;stroke-linejoin:miter;stroke-opacity:1"
       d="M 21.531588,2.5334871 C 15.027476,5.1748991 8.4166038,9.0169177 5.109375,15.484375 2.4069128,20.670234 2.1827494,26.898588 3.679165,32.477193 c 1.568085,5.676326 6.788919,10.095388 12.676965,10.574718 4.855333,0.509892 10.262144,-0.733352 13.451723,-4.679673 3.491367,-4.077343 3.608662,-9.777241 3.556793,-14.871529 0.113409,-4.631291 -0.45838,-9.474427 1.202347,-13.9002535 1.465528,-3.8242664 5.51097,-6.1760344 9.531883,-6.0975734 3.44229,-0.1098191 7.154685,1.0351517 9.148247,4.0232558 2.851194,3.9221491 2.450903,9.0334251 2.514611,13.6271921 0.05967,9.126731 -0.09067,18.259502 0.06602,27.382614 0.09723,3.050674 1.185143,6.438577 4.122463,7.865561 2.452316,1.38533 5.340975,1.176816 8.048039,1.432093"
       id="path329-7"
       inkscape:label="s1" />
  </g>
  <g
     id="g522"
     inkscape:label="g2"
     transform="translate(21.9)">
    <path
       style="display:inline"
       d="M 30.8,23.7 28,26.6 Q 21.9,21.2 17.7,18.85 13.5,16.5 8.6,16.5 v 0 q -3.5,0 -6.4,0.9 v 0 L 0.7,12.7 Q 2.5,12.3 4.45,12 6.4,11.7 8.6,11.7 v 0 q 3.8,0 7.15,1.2 3.35,1.2 6.9,3.85 3.55,2.65 8.15,6.95 z"
       id="path513"
       inkscape:label="p2" />
    <path
       style="display:inline;fill:none;stroke:#000000;stroke-width:1px;stroke-linecap:butt;stroke-linejoin:miter;stroke-opacity:1"
       d="m 1.2484854,15.037068 c 2.0296352,-0.33742 4.0471341,-0.823273 6.106769,-0.926121 1.7144665,-0.03627 3.4419196,-0.0066 5.1213336,0.377952 1.626492,0.286246 3.200444,0.851561 4.696094,1.542318 3.239677,1.543111 6.000222,3.881137 8.751411,6.145612 1.177108,1.030396 2.354216,2.060791 3.531324,3.091187"
       id="path660"
       inkscape:label="s3" />
  </g>
  <g
     id="g526"
     inkscape:label="g3"
     transform="matrix(1,0,0,0.99097052,21.9,0)">
    <path
       style="display:inline"
       d="M 36.1,25.5 H 31.7 Q 29.8,17.7 27.95,13.15 26.1,8.6 23.65,6.7 21.2,4.8 17.4,4.8 v 0 Q 16.2,4.8 14.85,5 13.5,5.2 12,5.7 v 0 L 10.5,1.1 Q 12.4,0.5 14.2,0.25 16,0 17.7,0 v 0 q 4.6,0 7.95,2.25 3.35,2.25 5.85,7.8 2.5,5.55 4.6,15.45 z"
       id="path511"
       inkscape:label="p3" />
    <path
       style="display:inline;fill:none;stroke:#000000;stroke-width:1px;stroke-linecap:butt;stroke-linejoin:miter;stroke-opacity:1"
       d="m 11.023437,3.453125 c 2.182778,-0.4976057 4.36528,-1.1946393 6.631852,-1.0710196 2.053103,-0.044291 4.123749,0.4216957 5.902797,1.4638298 1.290672,0.6572076 2.43165,1.6018918 3.277933,2.7802163 1.787546,2.2624393 2.976329,4.9290225 3.905851,7.6409995 1.112879,3.208175 2.009172,6.487831 2.71558,9.809147 0.117031,0.515091 0.234062,1.030183 0.351093,1.545274"
       id="path662"
       inkscape:label="s4" />
  </g>
</svg>
