<?xml version="1.0" encoding="UTF-8" standalone="no"?><svg width="93.099998" height="89.599998" version="1.1" id="svg1362" sodipodi:docname="9_lau.svg" inkscape:version="1.2.1 (9c6d41e410, 2022-07-14)" xmlns:inkscape="http://www.inkscape.org/namespaces/inkscape" xmlns:sodipodi="http://sodipodi.sourceforge.net/DTD/sodipodi-0.dtd" xmlns="http://www.w3.org/2000/svg" xmlns:svg="http://www.w3.org/2000/svg"><defs id="defs1366"></defs><sodipodi:namedview id="namedview1364" pagecolor="#ffffff" bordercolor="#666666" borderopacity="1.0" inkscape:showpageshadow="2" inkscape:pageopacity="0.0" inkscape:pagecheckerboard="0" inkscape:deskcolor="#d1d1d1" showgrid="false" inkscape:zoom="1.809816" inkscape:cx="44.479659" inkscape:cy="65.199997" inkscape:window-width="1920" inkscape:window-height="1027" inkscape:window-x="-8" inkscape:window-y="-8" inkscape:window-maximized="1" inkscape:current-layer="svg1362"></sodipodi:namedview><g id="g0" inkscape:label="g0" transform="matrix(0.99933555,0,0,1,0,29.3)"><path d="m 67.54488,60.3 h -1.000665 q -6.704454,0 -9.906582,-3 v 0 q -1.801197,-1.6 -2.651762,-4.1 -0.850565,-2.5 -0.850565,-6.7 v 0 -27.1 q 0,-4.6 -0.600399,-7.1 -0.600399,-2.5 -2.00133,-4 v 0 Q 48.432181,5.8 44.529588,5.8 v 0 q -3.70246,0 -6.00399,2.5 v 0 q -1.400931,1.5 -1.951296,3.85 -0.550366,2.35 -0.550366,6.65 v 0 6.3 q 0,5 -1.000665,8.85 -1.000665,3.85 -3.70246,6.65 v 0 q -2.101396,2.4 -5.353557,3.7 -3.252161,1.3 -7.655086,1.3 v 0 Q 10.206782,45.6 5.1033909,40.15 0,34.7 0,25.4 v 0 Q 0,8.2 20.613697,0 v 0 l 1.801197,4.9 q -8.905918,3.5 -12.9085775,8.7 -4.0026596,5.2 -4.0026596,12 v 0 q 0,7.6 3.7024601,11.35 3.70246,3.75 9.005984,3.75 v 0 q 3.202128,0 5.503657,-1 2.301529,-1 3.902593,-2.8 v 0 q 1.601064,-1.8 2.351563,-4.4 0.750498,-2.6 0.750498,-6.7 v 0 -7.8 q 0,-3.9 0.700466,-7.3 0.700465,-3.4 3.40226,-6.1 v 0 Q 36.524269,2.9 38.975898,1.95 41.427527,1 44.529588,1 v 0 q 3.202127,0 5.70379,1 2.501662,1 4.202792,2.8 v 0 q 2.101396,2.2 3.052028,5.05 0.950632,2.85 0.950632,8.25 v 0 28.1 q 0,3.2 0.500332,4.85 0.500333,1.65 1.70113,2.55 v 0 q 1.200798,1.2 3.152095,1.45 1.951296,0.25 4.252826,0.25 v 0 z" id="g0p0" inkscape:label="g0p0" style="stroke-width:1.00033"></path><path style="fill:none;stroke:#000000;stroke-width:1px;stroke-linecap:butt;stroke-linejoin:miter;stroke-opacity:1" d="M 21.531588,2.5334871 C 15.027476,5.1748991 8.4166038,9.0169177 5.109375,15.484375 2.4069128,20.670234 2.1827494,26.898588 3.679165,32.477193 c 1.568085,5.676326 6.788919,10.095388 12.676965,10.574718 4.855333,0.509892 10.262144,-0.733352 13.451723,-4.679673 3.491367,-4.077343 3.608662,-9.777241 3.556793,-14.871529 0.113409,-4.631291 -0.45838,-9.474427 1.202347,-13.9002535 1.465528,-3.8242664 5.51097,-6.1760344 9.531883,-6.0975734 3.44229,-0.1098191 7.154685,1.0351517 9.148247,4.0232558 2.851194,3.9221491 2.450903,9.0334251 2.514611,13.6271921 0.05967,9.126731 -0.09067,18.259502 0.06602,27.382614 0.09723,3.050674 1.185143,6.438577 4.122463,7.865561 2.452316,1.38533 5.340975,1.176816 8.048039,1.432093" id="g0s0" inkscape:label="g0s0"></path></g><g id="g1" inkscape:label="g1" transform="translate(21.9)"><path style="display:inline" d="m 70.7,89.6 h -1 q -6.6,0 -9.9,-3 v 0 Q 58,85 57.15,82.5 56.3,80 56.3,75.8 v 0 -46.5 l 5.3,0.7 v 45.5 q 0,3.3 0.5,4.9 0.5,1.6 1.8,2.6 v 0 q 1.2,1.1 3.05,1.35 1.85,0.25 4.25,0.25 v 0 z" id="g1p0" inkscape:label="g1p0"></path><path style="display:inline;fill:none;stroke:#000000;stroke-width:1px;stroke-linecap:butt;stroke-linejoin:miter;stroke-opacity:1" d="m 58.945814,29.339077 c 0.0052,15.660703 -0.0419,31.322813 -0.004,46.982637 0.07316,2.661925 0.300705,5.531206 2.06529,7.674603 1.94562,2.285428 5.076188,2.956219 7.950186,3.001875 0.734456,0.05113 1.468913,0.102253 2.203369,0.15338" id="g1s0" inkscape:label="g1s0"></path></g><g id="g2" inkscape:label="g2" transform="translate(21.9)"><path style="display:inline" d="m 55.9,23.7 -2.8,2.9 Q 47,21.2 42.8,18.85 38.6,16.5 33.7,16.5 v 0 q -3.5,0 -6.4,0.9 v 0 l -1.5,-4.7 q 1.8,-0.4 3.75,-0.7 1.95,-0.3 4.15,-0.3 v 0 q 3.8,0 7.15,1.2 3.35,1.2 6.9,3.85 3.55,2.65 8.15,6.95 z" id="g2p0" inkscape:label="g2p0"></path><path style="display:inline;fill:none;stroke:#000000;stroke-width:1px;stroke-linecap:butt;stroke-linejoin:miter;stroke-opacity:1" d="m 26.306582,15.114407 c 2.688785,-0.568456 5.416241,-1.1935 8.183739,-0.988483 1.810938,0.02306 3.595689,0.410136 5.328375,0.908621 1.446215,0.495326 2.860202,1.115629 4.178036,1.890495 3.847011,2.308963 7.136989,5.387765 10.538424,8.281996" id="g2s0" inkscape:label="g2s0"></path></g><g id="g3" inkscape:label="g3" transform="matrix(1,0,0,0.99067711,21.9,0)"><path style="display:inline" d="M 61.2,25.5 H 56.8 Q 54.9,17.7 53.05,13.15 51.2,8.6 48.75,6.7 46.3,4.8 42.5,4.8 v 0 Q 41.3,4.8 39.95,5 38.6,5.2 37.1,5.7 v 0 L 35.6,1.1 Q 37.5,0.5 39.3,0.25 41.1,0 42.8,0 v 0 q 4.6,0 7.95,2.25 3.35,2.25 5.85,7.8 2.5,5.55 4.6,15.45 z" id="g3p0" inkscape:label="g3p0"></path><path style="display:inline;fill:none;stroke:#000000;stroke-width:1px;stroke-linecap:butt;stroke-linejoin:miter;stroke-opacity:1" d="m 36.195028,3.4913397 2.773185,-0.7181553 0.82864,-0.1767767 0.806544,-0.099437 1.138,-0.088388 h 0.905981 l 1.027514,0.033146 0.983321,0.121534 0.872835,0.1325825 1.237436,0.2872621 1.071709,0.4198447 1.347922,0.6960582 1.016466,0.6960583 0.696059,0.5966213 0.82864,0.9612233 0.950175,1.2042912 0.839689,1.3368738 0.806544,1.6130879 0.651864,1.425262 0.662913,1.635184 0.53033,1.679379 0.50108,1.557697 0.367187,1.382813 0.5,1.734375 0.453125,1.757812 1.007035,3.936361" id="g3s0" inkscape:label="g3s0"></path></g></svg>