<?xml version="1.0" encoding="UTF-8" standalone="no"?>
<svg
   width="39"
   height="60.299999"
   version="1.1"
   id="svg4"
   sodipodi:docname="0_r.svg"
   inkscape:version="1.2.1 (9c6d41e410, 2022-07-14)"
   xmlns:inkscape="http://www.inkscape.org/namespaces/inkscape"
   xmlns:sodipodi="http://sodipodi.sourceforge.net/DTD/sodipodi-0.dtd"
   xmlns="http://www.w3.org/2000/svg"
   xmlns:svg="http://www.w3.org/2000/svg">
  <defs
     id="defs8" />
  <sodipodi:namedview
     id="namedview6"
     pagecolor="#ffffff"
     bordercolor="#666666"
     borderopacity="1.0"
     inkscape:showpageshadow="2"
     inkscape:pageopacity="0.0"
     inkscape:pagecheckerboard="0"
     inkscape:deskcolor="#d1d1d1"
     showgrid="false"
     inkscape:zoom="16"
     inkscape:cx="6.59375"
     inkscape:cy="44.75"
     inkscape:window-width="1920"
     inkscape:window-height="1027"
     inkscape:window-x="-8"
     inkscape:window-y="-8"
     inkscape:window-maximized="1"
     inkscape:current-layer="svg4" />
  <path
     style="fill:none;stroke:#000000;stroke-width:1px;stroke-linecap:butt;stroke-linejoin:miter;stroke-opacity:1"
     d="M 0.94104869,5.7498938 C 5.115098,4.040132 9.4870483,2.6418142 14.031232,2.4964904 c 4.955281,-0.2242553 10.270156,0.9401401 13.902943,4.522798 2.937897,2.8293097 4.311202,6.9396146 4.368378,10.9588596 0.221141,5.341333 -2.071396,10.754947 -6.239983,14.145774 -3.451913,2.930661 -7.788777,4.617674 -12.202168,5.446647 -1.734903,0.421541 -2.701499,-1.329572 -4.0187821,-2.07044 -1.8280251,-1.368482 -4.4395844,-2.255306 -6.6043967,-1.205445 -0.6836397,0.922021 -0.3633962,2.4259 0.82864,2.740039 2.4113106,1.081842 5.132892,0.445147 7.6506828,0.879292 1.722897,0.61391 1.751798,2.734362 2.871097,3.946465 2.509901,3.586395 5.15466,7.135663 8.368164,10.124073 2.825316,2.627757 6.266456,4.722911 10.122196,5.34428 1.952295,0.342668 3.951259,0.380574 5.921997,0.585229"
     id="path280"
     inkscape:label="s1" />
  <path
     d="M 38.4,60.3 H 36.8 Q 31,60.3 26.45,57.65 21.9,55 18.1,50.5 14.3,46 10.7,40.5 v 0 q -1,0 -2.1,0 v 0 q -8.5,0 -8.5,-5.1 v 0 q 0,-2 1.35,-3.1 1.35,-1.1 3.75,-1.1 v 0 q 2.1,0 4.1,0.85 2,0.85 4.2,2.95 v 0 q 6.8,-1.2 11.4,-5.4 4.6,-4.2 4.6,-11 v 0 Q 29.5,12.1 25.65,8.55 21.8,5 15.1,5 V 5 Q 8.7,5 1.8,8 V 8 L 0,3.3 Q 3.6,1.8 7.45,0.9 11.3,0 15.2,0 V 0 Q 24.1,0 29.55,4.9 35,9.8 35,18.6 v 0 q 0,5.5 -2.5,9.85 -2.5,4.35 -6.75,7.2 -4.25,2.85 -9.65,4.05 v 0 q 3.9,5.8 7.2,9.2 3.3,3.4 6.65,4.85 3.35,1.45 7.55,1.45 v 0 H 39 Z"
     id="path2"
     inkscape:label="p1" />
</svg>
