<svg xmlns="http://www.w3.org/2000/svg" xmlns:xlink="http://www.w3.org/1999/xlink" width="43.300000000000004"
    height="130.4">
    <path
        d="M41.40 89.60L39.80 89.60Q34 89.60 29.45 86.95Q24.90 84.30 21.10 79.80Q17.30 75.30 13.70 69.80L13.70 69.80Q12.70 69.80 11.60 69.80L11.60 69.80Q3.10 69.80 3.10 64.70L3.10 64.70Q3.10 62.70 4.45 61.60Q5.80 60.50 8.20 60.50L8.20 60.50Q10.30 60.50 12.30 61.35Q14.30 62.20 16.50 64.30L16.50 64.30Q23.30 63.10 27.90 58.90Q32.50 54.70 32.50 47.90L32.50 47.90Q32.50 41.40 28.65 37.85Q24.80 34.30 18.10 34.30L18.10 34.30Q11.70 34.30 4.80 37.30L4.80 37.30L3 32.60Q6.60 31.10 10.45 30.20Q14.30 29.30 18.20 29.30L18.20 29.30Q27.10 29.30 32.55 34.20Q38 39.10 38 47.90L38 47.90Q38 53.40 35.50 57.75Q33 62.10 28.75 64.95Q24.50 67.80 19.10 69L19.10 69Q23 74.80 26.30 78.20Q29.60 81.60 32.95 83.05Q36.30 84.50 40.50 84.50L40.50 84.50L42 84.50L41.40 89.60ZM30.60 19.10L30.60 19.10Q28.80 19.10 27.55 17.80Q26.30 16.50 26.30 14.20L26.30 14.20Q26.30 12 27.50 10.70Q28.70 9.40 30.60 9.40L30.60 9.40Q32.50 9.40 33.70 10.70Q34.90 12 34.90 14.20L34.90 14.20Q34.90 16.60 33.65 17.85Q32.40 19.10 30.60 19.10Z" />
      <g
     id="g653"
     inkscape:label="g2">
    <path
       style="display:inline"
       d="m 33.9,9.7 v 0 Q 32.1,9.7 30.85,8.4 29.6,7.1 29.6,4.8 v 0 Q 29.6,2.6 30.8,1.3 32,0 33.9,0 v 0 q 1.9,0 3.1,1.3 1.2,1.3 1.2,3.5 v 0 q 0,2.4 -1.25,3.65 Q 35.7,9.7 33.9,9.7 Z"
       id="path644"
       inkscape:label="p2" />
    <path
       d="m 33.9375,1.3352194 c -0.820403,0 -1.515467,0.3118012 -2.085191,0.9354043 -0.569724,0.6236031 -0.854587,1.7074649 -0.854587,2.5903504 0,1.0553281 0.273468,1.8947931 0.820403,2.5183962 0.546936,0.6236031 1.347168,0.9354042 2.119375,0.9354042 0.865981,0 1.572439,-0.3118011 2.119375,-0.9354042 0.546935,-0.6236031 0.820403,-1.5977735 0.820403,-2.5183962 0,-1.1512668 -0.284863,-2.0267096 -0.854587,-2.6263275 C 35.452967,1.6350287 34.757903,1.3352194 33.9375,1.3352194 Z"
       style="display:inline;stroke-width:0.701376"
       id="path950"
       sodipodi:nodetypes="sssssssss"
       inkscape:label="s3" />
  </g>
    <path style="fill:none;stroke:#000000;stroke-width:1px;stroke-linecap:butt;stroke-linejoin:miter;stroke-opacity:1"
        d="M 0.94104869,5.7498938 C 5.115098,4.040132 9.4870483,2.6418142 14.031232,2.4964904 c 4.955281,-0.2242553 10.270156,0.9401401 13.902943,4.522798 2.937897,2.8293097 4.311202,6.9396146 4.368378,10.9588596 0.221141,5.341333 -2.071396,10.754947 -6.239983,14.145774 -3.451913,2.930661 -7.788777,4.617674 -12.202168,5.446647 -1.734903,0.421541 -5.435874,0.436053 -7.3625321,0.24206 -2.7655251,-0.368482 -4.0802094,-0.880306 -3.9012717,-2.674195 0.1132353,-1.296729 1.8042188,-1.980327 4.531765,-1.213086 2.2598869,0.635691 3.8689038,2.001605 4.8694328,3.582417 0.863496,1.364302 1.470548,3.140612 2.589847,4.352715 2.509901,3.586395 5.15466,7.135663 8.368164,10.124073 2.825316,2.627757 6.266456,4.722911 10.122196,5.34428 1.952295,0.342668 3.951259,0.380574 5.921997,0.585229"
        id="path280" inkscape:label="s1" sodipodi:nodetypes="ccccccccsscccc" />
</svg>