<svg xmlns="http://www.w3.org/2000/svg" xmlns:xlink="http://www.w3.org/1999/xlink" width="65.7" height="130.4"><path d="M41.40 89.60L39.80 89.60Q34 89.60 29.45 86.95Q24.90 84.30 21.10 79.80Q17.30 75.30 13.70 69.80L13.70 69.80Q12.70 69.80 11.60 69.80L11.60 69.80Q3.10 69.80 3.10 64.70L3.10 64.70Q3.10 62.70 4.45 61.60Q5.80 60.50 8.20 60.50L8.20 60.50Q10.30 60.50 12.30 61.35Q14.30 62.20 16.50 64.30L16.50 64.30Q23.30 63.10 27.90 58.90Q32.50 54.70 32.50 47.90L32.50 47.90Q32.50 41.40 28.65 37.85Q24.80 34.30 18.10 34.30L18.10 34.30Q11.70 34.30 4.80 37.30L4.80 37.30L3 32.60Q6.60 31.10 10.45 30.20Q14.30 29.30 18.20 29.30L18.20 29.30Q27.10 29.30 32.55 34.20Q38 39.10 38 47.90L38 47.90Q38 53.40 35.50 57.75Q33 62.10 28.75 64.95Q24.50 67.80 19.10 69L19.10 69Q23 74.80 26.30 78.20Q29.60 81.60 32.95 83.05Q36.30 84.50 40.50 84.50L40.50 84.50L42 84.50L41.40 89.60ZM54.50 51.30L54.50 51.30Q52.70 51.30 51.30 49.95Q49.90 48.60 49.90 46.20L49.90 46.20Q49.90 43.80 51.25 42.45Q52.60 41.10 54.50 41.10L54.50 41.10Q56.50 41.10 57.80 42.45Q59.10 43.80 59.10 46.20L59.10 46.20Q59.10 48.70 57.75 50.00Q56.40 51.30 54.50 51.30ZM54.50 84.60L54.50 84.60Q52.70 84.60 51.30 83.25Q49.90 81.90 49.90 79.50L49.90 79.50Q49.90 77.10 51.25 75.75Q52.60 74.40 54.50 74.40L54.50 74.40Q56.50 74.40 57.80 75.75Q59.10 77.10 59.10 79.50L59.10 79.50Q59.10 82.00 57.75 83.30Q56.40 84.60 54.50 84.60Z"/></svg>