<svg xmlns="http://www.w3.org/2000/svg" xmlns:xlink="http://www.w3.org/1999/xlink" width="68.4" height="130.4"><path d="M24 89.60L23.10 89.60Q20 89.60 17.50 88.95Q15 88.30 13.20 86.60L13.20 86.60Q11.30 84.90 10.50 82.40Q9.70 79.90 9.70 75.80L9.70 75.80L9.70 22.40Q9.70 15.80 11.05 11.70Q12.40 7.60 15.80 4.70L15.80 4.70Q18 2.80 21.15 1.70Q24.30 0.60 28.40 0.60L28.40 0.60Q37.50 0.60 44.75 5.85Q52 11.10 59.30 19.60L59.30 19.60L55.40 22.70Q49 15.10 42.65 10.30Q36.30 5.50 28.70 5.50L28.70 5.50Q22.80 5.50 19.40 8.40L19.40 8.40Q17 10.50 16 14Q15 17.50 15 24.10L15 24.10L15 75.50Q15 78.70 15.50 80.35Q16 82.00 17.20 82.90L17.20 82.90Q18.40 84.10 20.35 84.35Q22.30 84.60 24.60 84.60L24.60 84.60L24 89.60ZM66.50 89.60L64.90 89.60Q59.10 89.60 54.55 86.95Q50 84.30 46.20 79.80Q42.40 75.30 38.80 69.80L38.80 69.80Q37.80 69.80 36.70 69.80L36.70 69.80Q28.20 69.80 28.20 64.70L28.20 64.70Q28.20 62.70 29.55 61.60Q30.90 60.50 33.30 60.50L33.30 60.50Q35.40 60.50 37.40 61.35Q39.40 62.20 41.60 64.30L41.60 64.30Q48.40 63.10 53 58.90Q57.60 54.70 57.60 47.90L57.60 47.90Q57.60 41.40 53.75 37.85Q49.90 34.30 43.20 34.30L43.20 34.30Q36.80 34.30 29.90 37.30L29.90 37.30L28.10 32.60Q31.70 31.10 35.55 30.20Q39.40 29.30 43.30 29.30L43.30 29.30Q52.20 29.30 57.65 34.20Q63.10 39.10 63.10 47.90L63.10 47.90Q63.10 53.40 60.60 57.75Q58.10 62.10 53.85 64.95Q49.60 67.80 44.20 69L44.20 69Q48.10 74.80 51.40 78.20Q54.70 81.60 58.05 83.05Q61.40 84.50 65.60 84.50L65.60 84.50L67.10 84.50L66.50 89.60Z"/></svg>