<?xml version="1.0" encoding="UTF-8" standalone="no"?>
<svg
   width="64.900002"
   height="89"
   version="1.1"
   id="svg385"
   sodipodi:docname="3_ree.svg"
   inkscape:version="1.2.1 (9c6d41e410, 2022-07-14)"
   xmlns:inkscape="http://www.inkscape.org/namespaces/inkscape"
   xmlns:sodipodi="http://sodipodi.sourceforge.net/DTD/sodipodi-0.dtd"
   xmlns="http://www.w3.org/2000/svg"
   xmlns:svg="http://www.w3.org/2000/svg">
  <defs
     id="defs389" />
  <sodipodi:namedview
     id="namedview387"
     pagecolor="#ffffff"
     bordercolor="#666666"
     borderopacity="1.0"
     inkscape:showpageshadow="2"
     inkscape:pageopacity="0.0"
     inkscape:pagecheckerboard="0"
     inkscape:deskcolor="#d1d1d1"
     showgrid="false"
     inkscape:zoom="1.809816"
     inkscape:cx="31.771185"
     inkscape:cy="64.647455"
     inkscape:window-width="1920"
     inkscape:window-height="1027"
     inkscape:window-x="-8"
     inkscape:window-y="-8"
     inkscape:window-maximized="1"
     inkscape:current-layer="svg385" />
  <g
     id="g9"
     inkscape:label="g1"
     transform="matrix(0.99867663,0,0,1,0,28.7)">
    <path
       d="m 38.450885,60.3 h -1.60212 Q 31.041079,60.3 26.48505,57.65 21.92902,55 18.123985,50.5 14.318949,46 10.714179,40.5 v 0 q -1.0013253,0 -2.1027829,0 v 0 q -8.51126359,0 -8.51126359,-5.1 v 0 q 0,-2 1.35178889,-3.1 1.3517889,-1.1 3.7549692,-1.1 v 0 q 2.1027828,0 4.105433,0.85 2.0026504,0.85 4.2055654,2.95 v 0 q 6.809011,-1.2 11.415107,-5.4 4.606095,-4.2 4.606095,-11 v 0 q 0,-6.5 -3.855102,-10.05 Q 21.828888,5 15.120009,5 V 5 Q 8.7115286,5 1.8023852,8 V 8 L 0,3.3 Q 3.6047704,1.8 7.4598722,0.9 11.314974,0 15.220142,0 v 0 q 8.911793,0 14.369015,4.9 5.457222,4.9 5.457222,13.7 v 0 q 0,5.5 -2.503312,9.85 -2.503313,4.35 -6.758945,7.2 -4.255632,2.85 -9.662788,4.05 v 0 q 3.905168,5.8 7.209541,9.2 3.304373,3.4 6.658812,4.85 3.35444,1.45 7.560005,1.45 v 0 h 1.501988 z"
       id="path2-3"
       inkscape:label="p1"
       style="stroke-width:1.00066" />
    <path
       style="fill:none;stroke:#000000;stroke-width:1px;stroke-linecap:butt;stroke-linejoin:miter;stroke-opacity:1"
       d="M 0.94104869,5.7498938 C 5.115098,4.040132 9.4870483,2.6418142 14.031232,2.4964904 c 4.955281,-0.2242553 10.270156,0.9401401 13.902943,4.522798 2.937897,2.8293097 4.311202,6.9396146 4.368378,10.9588596 0.221141,5.341333 -2.071396,10.754947 -6.239983,14.145774 -3.451913,2.930661 -7.788777,4.617674 -12.202168,5.446647 -1.734903,0.421541 -5.435874,0.436053 -7.3625321,0.24206 -2.7655251,-0.368482 -4.0802094,-0.880306 -3.9012717,-2.674195 0.1132353,-1.296729 1.8042188,-1.980327 4.531765,-1.213086 2.2598869,0.635691 3.8689038,2.001605 4.8694328,3.582417 0.863496,1.364302 1.470548,3.140612 2.589847,4.352715 2.509901,3.586395 5.15466,7.135663 8.368164,10.124073 2.825316,2.627757 6.266456,4.722911 10.122196,5.34428 1.952295,0.342668 3.951259,0.380574 5.921997,0.585229"
       id="path280-4"
       inkscape:label="s1"
       sodipodi:nodetypes="ccccccccsscccc" />
  </g>
  <g
     id="g399"
     inkscape:label="g2"
     transform="matrix(0.99899518,0,0,1,-6.2703578,0)">
    <path
       style="display:inline"
       d="m 70.7,89 h -1 q -3,0 -5.55,-0.65 Q 61.6,87.7 59.8,86 v 0 Q 56.3,82.7 56.3,75.2 v 0 -46.7 Q 54.9,17.1 51.4,11 47.9,4.9 42.4,4.9 v 0 q -3.6,0 -5.6,2.6 -2,2.6 -2,7.7 v 0 q 0,3.9 0.6,7 v 0 H 30.3 Q 30,20.7 29.75,18.6 29.5,16.5 29.5,14.6 v 0 Q 29.5,8 32.85,4 36.2,0 42.4,0 v 0 q 5.9,0 9.9,3.95 4,3.95 6.25,10.4 2.25,6.45 3.05,13.85 v 0 46.7 q 0,3.3 0.5,4.85 0.5,1.55 1.7,2.55 v 0 Q 65,83.5 67,83.75 69,84 71.2,84 v 0 z"
       id="path330"
       inkscape:label="p2" />
    <path
       style="display:inline;fill:none;stroke:#000000;stroke-width:1px;stroke-linecap:butt;stroke-linejoin:miter;stroke-opacity:1"
       d="M 32.90625,22.296875 C 32.189196,17.24716 31.309374,11.67002 33.948338,7.0048776 36.015851,3.1824285 40.814237,1.7827514 44.871275,2.7018315 c 5.299598,1.0610536 8.634255,5.9944562 10.53375,10.6924095 1.94946,4.911209 3.041647,10.154719 3.53254,15.40287 0.03373,16.081561 -0.05668,32.165472 0.05492,48.245568 0.09206,3.485135 1.641413,7.400064 5.196702,8.60873 2.224083,0.864628 4.672997,0.637872 7.006103,0.85642"
       id="path80"
       inkscape:label="s2" />
  </g>
</svg>
