<svg xmlns="http://www.w3.org/2000/svg" xmlns:xlink="http://www.w3.org/1999/xlink" width="68.4" height="130.4"><path d="M41.40 89.60L39.80 89.60Q34 89.60 29.45 86.95Q24.90 84.30 21.10 79.80Q17.30 75.30 13.70 69.80L13.70 69.80Q12.70 69.80 11.60 69.80L11.60 69.80Q3.10 69.80 3.10 64.70L3.10 64.70Q3.10 62.70 4.45 61.60Q5.80 60.50 8.20 60.50L8.20 60.50Q10.30 60.50 12.30 61.35Q14.30 62.20 16.50 64.30L16.50 64.30Q23.30 63.10 27.90 58.90Q32.50 54.70 32.50 47.90L32.50 47.90Q32.50 41.40 28.65 37.85Q24.80 34.30 18.10 34.30L18.10 34.30Q11.70 34.30 4.80 37.30L4.80 37.30L3 32.60Q6.60 31.10 10.45 30.20Q14.30 29.30 18.20 29.30L18.20 29.30Q27.10 29.30 32.55 34.20Q38 39.10 38 47.90L38 47.90Q38 53.40 35.50 57.75Q33 62.10 28.75 64.95Q24.50 67.80 19.10 69L19.10 69Q23 74.80 26.30 78.20Q29.60 81.60 32.95 83.05Q36.30 84.50 40.50 84.50L40.50 84.50L42 84.50L41.40 89.60ZM67.40 89.60L66.40 89.60Q63.40 89.60 60.85 88.95Q58.30 88.30 56.50 86.60L56.50 86.60Q53.00 83.30 53.00 75.80L53.00 75.80L53.00 29.10Q51.60 17.70 48.10 11.60Q44.60 5.50 39.10 5.50L39.10 5.50Q35.50 5.50 33.50 8.10Q31.50 10.70 31.50 15.80L31.50 15.80Q31.50 19.70 32.10 22.80L32.10 22.80L27.00 22.80Q26.70 21.30 26.45 19.20Q26.20 17.10 26.20 15.20L26.20 15.20Q26.20 8.60 29.55 4.60Q32.90 0.60 39.10 0.60L39.10 0.60Q45.00 0.60 49.00 4.55Q53.00 8.50 55.25 14.95Q57.50 21.40 58.30 28.80L58.30 28.80L58.30 75.50Q58.30 78.80 58.80 80.35Q59.30 81.90 60.50 82.90L60.50 82.90Q61.70 84.10 63.70 84.35Q65.70 84.60 67.90 84.60L67.90 84.60L67.40 89.60Z"/></svg>