<svg xmlns="http://www.w3.org/2000/svg" xmlns:xlink="http://www.w3.org/1999/xlink" width="68.4" height="130.4">
    <path
        d="M41.40 89.60L39.80 89.60Q34 89.60 29.45 86.95Q24.90 84.30 21.10 79.80Q17.30 75.30 13.70 69.80L13.70 69.80Q12.70 69.80 11.60 69.80L11.60 69.80Q3.10 69.80 3.10 64.70L3.10 64.70Q3.10 62.70 4.45 61.60Q5.80 60.50 8.20 60.50L8.20 60.50Q10.30 60.50 12.30 61.35Q14.30 62.20 16.50 64.30L16.50 64.30Q23.30 63.10 27.90 58.90Q32.50 54.70 32.50 47.90L32.50 47.90Q32.50 41.40 28.65 37.85Q24.80 34.30 18.10 34.30L18.10 34.30Q11.70 34.30 4.80 37.30L4.80 37.30L3 32.60Q6.60 31.10 10.45 30.20Q14.30 29.30 18.20 29.30L18.20 29.30Q27.10 29.30 32.55 34.20Q38 39.10 38 47.90L38 47.90Q38 53.40 35.50 57.75Q33 62.10 28.75 64.95Q24.50 67.80 19.10 69L19.10 69Q23 74.80 26.30 78.20Q29.60 81.60 32.95 83.05Q36.30 84.50 40.50 84.50L40.50 84.50L42 84.50L41.40 89.60ZM67.40 89.60L66.40 89.60Q63.40 89.60 60.85 88.95Q58.30 88.30 56.50 86.60L56.50 86.60Q53.00 83.30 53.00 75.80L53.00 75.80L53.00 29.10Q51.60 17.70 48.10 11.60Q44.60 5.50 39.10 5.50L39.10 5.50Q35.50 5.50 33.50 8.10Q31.50 10.70 31.50 15.80L31.50 15.80Q31.50 19.70 32.10 22.80L32.10 22.80L27.00 22.80Q26.70 21.30 26.45 19.20Q26.20 17.10 26.20 15.20L26.20 15.20Q26.20 8.60 29.55 4.60Q32.90 0.60 39.10 0.60L39.10 0.60Q45.00 0.60 49.00 4.55Q53.00 8.50 55.25 14.95Q57.50 21.40 58.30 28.80L58.30 28.80L58.30 75.50Q58.30 78.80 58.80 80.35Q59.30 81.90 60.50 82.90L60.50 82.90Q61.70 84.10 63.70 84.35Q65.70 84.60 67.90 84.60L67.90 84.60L67.40 89.60Z" />
      <g
     id="g399"
     inkscape:label="g2">
    <path
       style="display:inline"
       d="m 70.7,89 h -1 q -3,0 -5.55,-0.65 Q 61.6,87.7 59.8,86 v 0 Q 56.3,82.7 56.3,75.2 v 0 -46.7 Q 54.9,17.1 51.4,11 47.9,4.9 42.4,4.9 v 0 q -3.6,0 -5.6,2.6 -2,2.6 -2,7.7 v 0 q 0,3.9 0.6,7 v 0 H 30.3 Q 30,20.7 29.75,18.6 29.5,16.5 29.5,14.6 v 0 Q 29.5,8 32.85,4 36.2,0 42.4,0 v 0 q 5.9,0 9.9,3.95 4,3.95 6.25,10.4 2.25,6.45 3.05,13.85 v 0 46.7 q 0,3.3 0.5,4.85 0.5,1.55 1.7,2.55 v 0 Q 65,83.5 67,83.75 69,84 71.2,84 v 0 z"
       id="path330"
       inkscape:label="p2" />
    <path
       style="display:inline;fill:none;stroke:#000000;stroke-width:1px;stroke-linecap:butt;stroke-linejoin:miter;stroke-opacity:1"
       d="M 32.90625,22.296875 C 32.189196,17.24716 31.309374,11.67002 33.948338,7.0048776 36.015851,3.1824285 40.814237,1.7827514 44.871275,2.7018315 c 5.299598,1.0610536 8.634255,5.9944562 10.53375,10.6924095 1.94946,4.911209 3.041647,10.154719 3.53254,15.40287 0.03373,16.081561 -0.05668,32.165472 0.05492,48.245568 0.09206,3.485135 1.641413,7.400064 5.196702,8.60873 2.224083,0.864628 4.672997,0.637872 7.006103,0.85642"
       id="path80"
       inkscape:label="s3" />
  </g>
    <path style="fill:none;stroke:#000000;stroke-width:1px;stroke-linecap:butt;stroke-linejoin:miter;stroke-opacity:1"
        d="M 0.94104869,5.7498938 C 5.115098,4.040132 9.4870483,2.6418142 14.031232,2.4964904 c 4.955281,-0.2242553 10.270156,0.9401401 13.902943,4.522798 2.937897,2.8293097 4.311202,6.9396146 4.368378,10.9588596 0.221141,5.341333 -2.071396,10.754947 -6.239983,14.145774 -3.451913,2.930661 -7.788777,4.617674 -12.202168,5.446647 -1.734903,0.421541 -5.435874,0.436053 -7.3625321,0.24206 -2.7655251,-0.368482 -4.0802094,-0.880306 -3.9012717,-2.674195 0.1132353,-1.296729 1.8042188,-1.980327 4.531765,-1.213086 2.2598869,0.635691 3.8689038,2.001605 4.8694328,3.582417 0.863496,1.364302 1.470548,3.140612 2.589847,4.352715 2.509901,3.586395 5.15466,7.135663 8.368164,10.124073 2.825316,2.627757 6.266456,4.722911 10.122196,5.34428 1.952295,0.342668 3.951259,0.380574 5.921997,0.585229"
        id="path280" inkscape:label="s1" sodipodi:nodetypes="ccccccccsscccc" />
</svg>