<svg xmlns="http://www.w3.org/2000/svg" xmlns:xlink="http://www.w3.org/1999/xlink" width="43.300000000000004"
    height="130.4">
    <path
        d="M41.40 89.60L39.80 89.60Q34 89.60 29.45 86.95Q24.90 84.30 21.10 79.80Q17.30 75.30 13.70 69.80L13.70 69.80Q12.70 69.80 11.60 69.80L11.60 69.80Q3.10 69.80 3.10 64.70L3.10 64.70Q3.10 62.70 4.45 61.60Q5.80 60.50 8.20 60.50L8.20 60.50Q10.30 60.50 12.30 61.35Q14.30 62.20 16.50 64.30L16.50 64.30Q23.30 63.10 27.90 58.90Q32.50 54.70 32.50 47.90L32.50 47.90Q32.50 41.40 28.65 37.85Q24.80 34.30 18.10 34.30L18.10 34.30Q11.70 34.30 4.80 37.30L4.80 37.30L3 32.60Q6.60 31.10 10.45 30.20Q14.30 29.30 18.20 29.30L18.20 29.30Q27.10 29.30 32.55 34.20Q38 39.10 38 47.90L38 47.90Q38 53.40 35.50 57.75Q33 62.10 28.75 64.95Q24.50 67.80 19.10 69L19.10 69Q23 74.80 26.30 78.20Q29.60 81.60 32.95 83.05Q36.30 84.50 40.50 84.50L40.50 84.50L42 84.50L41.40 89.60ZM27.60 116.30L27.60 116.30Q21.00 116.30 15.85 114.05Q10.70 111.80 6.55 108.00Q2.40 104.20-1.10 99.40L-1.10 99.40L3.10 96.50Q8.20 103.20 13.80 107.30Q19.40 111.40 27.60 111.40L27.60 111.40Q33.30 111.40 36.30 109.20Q39.30 107.00 39.30 102.70L39.30 102.70Q39.30 98.80 36.70 96.80Q34.10 94.80 29.70 94.80L29.70 94.80Q27.20 94.80 25.00 95.35Q22.80 95.90 20.60 96.80L20.60 96.80L18.80 92.30Q21.40 91.20 24.00 90.65Q26.60 90.10 29.40 90.10L29.40 90.10Q36.50 90.10 40.40 93.65Q44.30 97.20 44.30 103.10L44.30 103.10Q44.30 109.30 39.85 112.80Q35.40 116.30 27.60 116.30Z" />
      <g
     id="g429"
     inkscape:label="g2">
    <path
       style="display:inline"
       d="m 30.9,87 v 0 Q 24.3,87 19.15,84.75 14,82.5 9.85,78.7 5.7,74.9 2.2,70.1 v 0 l 4.2,-2.9 q 5.1,6.7 10.7,10.8 5.6,4.1 13.8,4.1 v 0 q 5.7,0 8.7,-2.2 3,-2.2 3,-6.5 v 0 q 0,-3.9 -2.6,-5.9 -2.6,-2 -7,-2 v 0 q -2.5,0 -4.7,0.55 -2.2,0.55 -4.4,1.45 v 0 L 22.1,63 q 2.6,-1.1 5.2,-1.65 2.6,-0.55 5.4,-0.55 v 0 q 7.1,0 11,3.55 3.9,3.55 3.9,9.45 v 0 q 0,6.2 -4.45,9.7 Q 38.7,87 30.9,87 Z"
       id="path420"
       inkscape:label="p2" />
    <path
       style="display:inline;fill:none;stroke:#000000;stroke-width:1px;stroke-linecap:butt;stroke-linejoin:miter;stroke-opacity:1"
       d="m 22.914062,65.289062 c 2.323807,-0.692195 4.562347,-1.731347 7.000658,-1.966609 3.549036,-0.376084 7.376537,-0.234926 10.53575,1.599631 2.719286,1.540051 4.469061,4.52798 4.601284,7.636307 0.253017,2.845818 -0.456653,5.883237 -2.460912,7.998761 -2.433486,2.67518 -6.157635,3.68678 -9.656459,3.920638 C 27.700261,84.79836 22.284886,83.938844 17.69019,81.310728 14.906965,79.755209 12.447616,77.671348 10.188095,75.437432 8.1199862,73.202596 6.1412982,70.891325 4.1757812,68.566406"
       id="path198"
       inkscape:label="s3" />
  </g>
    <path style="fill:none;stroke:#000000;stroke-width:1px;stroke-linecap:butt;stroke-linejoin:miter;stroke-opacity:1"
        d="M 0.94104869,5.7498938 C 5.115098,4.040132 9.4870483,2.6418142 14.031232,2.4964904 c 4.955281,-0.2242553 10.270156,0.9401401 13.902943,4.522798 2.937897,2.8293097 4.311202,6.9396146 4.368378,10.9588596 0.221141,5.341333 -2.071396,10.754947 -6.239983,14.145774 -3.451913,2.930661 -7.788777,4.617674 -12.202168,5.446647 -1.734903,0.421541 -5.435874,0.436053 -7.3625321,0.24206 -2.7655251,-0.368482 -4.0802094,-0.880306 -3.9012717,-2.674195 0.1132353,-1.296729 1.8042188,-1.980327 4.531765,-1.213086 2.2598869,0.635691 3.8689038,2.001605 4.8694328,3.582417 0.863496,1.364302 1.470548,3.140612 2.589847,4.352715 2.509901,3.586395 5.15466,7.135663 8.368164,10.124073 2.825316,2.627757 6.266456,4.722911 10.122196,5.34428 1.952295,0.342668 3.951259,0.380574 5.921997,0.585229"
        id="path280" inkscape:label="s1" sodipodi:nodetypes="ccccccccsscccc" />
</svg>