<svg xmlns="http://www.w3.org/2000/svg" xmlns:xlink="http://www.w3.org/1999/xlink" width="43.300000000000004" height="130.4"><path d="M41.40 89.60L39.80 89.60Q34 89.60 29.45 86.95Q24.90 84.30 21.10 79.80Q17.30 75.30 13.70 69.80L13.70 69.80Q12.70 69.80 11.60 69.80L11.60 69.80Q3.10 69.80 3.10 64.70L3.10 64.70Q3.10 62.70 4.45 61.60Q5.80 60.50 8.20 60.50L8.20 60.50Q10.30 60.50 12.30 61.35Q14.30 62.20 16.50 64.30L16.50 64.30Q23.30 63.10 27.90 58.90Q32.50 54.70 32.50 47.90L32.50 47.90Q32.50 41.40 28.65 37.85Q24.80 34.30 18.10 34.30L18.10 34.30Q11.70 34.30 4.80 37.30L4.80 37.30L3 32.60Q6.60 31.10 10.45 30.20Q14.30 29.30 18.20 29.30L18.20 29.30Q27.10 29.30 32.55 34.20Q38 39.10 38 47.90L38 47.90Q38 53.40 35.50 57.75Q33 62.10 28.75 64.95Q24.50 67.80 19.10 69L19.10 69Q23 74.80 26.30 78.20Q29.60 81.60 32.95 83.05Q36.30 84.50 40.50 84.50L40.50 84.50L42 84.50L41.40 89.60ZM27.60 116.30L27.60 116.30Q21.00 116.30 15.85 114.05Q10.70 111.80 6.55 108.00Q2.40 104.20-1.10 99.40L-1.10 99.40L3.10 96.50Q8.20 103.20 13.80 107.30Q19.40 111.40 27.60 111.40L27.60 111.40Q33.30 111.40 36.30 109.20Q39.30 107.00 39.30 102.70L39.30 102.70Q39.30 98.80 36.70 96.80Q34.10 94.80 29.70 94.80L29.70 94.80Q27.20 94.80 25.00 95.35Q22.80 95.90 20.60 96.80L20.60 96.80L18.80 92.30Q21.40 91.20 24.00 90.65Q26.60 90.10 29.40 90.10L29.40 90.10Q36.50 90.10 40.40 93.65Q44.30 97.20 44.30 103.10L44.30 103.10Q44.30 109.30 39.85 112.80Q35.40 116.30 27.60 116.30Z"/></svg>