<svg xmlns="http://www.w3.org/2000/svg" xmlns:xlink="http://www.w3.org/1999/xlink" width="43.300000000000004" height="130.4"><path d="M41.40 89.60L39.80 89.60Q34 89.60 29.45 86.95Q24.90 84.30 21.10 79.80Q17.30 75.30 13.70 69.80L13.70 69.80Q12.70 69.80 11.60 69.80L11.60 69.80Q3.10 69.80 3.10 64.70L3.10 64.70Q3.10 62.70 4.45 61.60Q5.80 60.50 8.20 60.50L8.20 60.50Q10.30 60.50 12.30 61.35Q14.30 62.20 16.50 64.30L16.50 64.30Q23.30 63.10 27.90 58.90Q32.50 54.70 32.50 47.90L32.50 47.90Q32.50 41.40 28.65 37.85Q24.80 34.30 18.10 34.30L18.10 34.30Q11.70 34.30 4.80 37.30L4.80 37.30L3 32.60Q6.60 31.10 10.45 30.20Q14.30 29.30 18.20 29.30L18.20 29.30Q27.10 29.30 32.55 34.20Q38 39.10 38 47.90L38 47.90Q38 53.40 35.50 57.75Q33 62.10 28.75 64.95Q24.50 67.80 19.10 69L19.10 69Q23 74.80 26.30 78.20Q29.60 81.60 32.95 83.05Q36.30 84.50 40.50 84.50L40.50 84.50L42 84.50L41.40 89.60ZM25.80 116.10L25.80 116.10Q18.70 116.10 14.80 112.50Q10.90 108.90 10.90 103.00L10.90 103.00Q10.90 97.60 15.00 93.85Q19.10 90.10 27.00 90.10L27.00 90.10Q34.30 90.10 39.65 92.85Q45.00 95.60 49.10 99.95Q53.20 104.30 56.60 109.20L56.60 109.20L52.50 111.90Q48.80 106.80 45.15 102.95Q41.50 99.10 37.15 96.95Q32.80 94.80 27.20 94.80L27.20 94.80Q21.40 94.80 18.65 97.15Q15.90 99.50 15.90 103.10L15.90 103.10Q15.90 107.30 18.60 109.25Q21.30 111.20 25.50 111.20L25.50 111.20Q28.20 111.20 30.45 110.65Q32.70 110.10 34.90 109.10L34.90 109.10L36.60 113.90Q34 114.90 31.30 115.50Q28.60 116.10 25.80 116.10Z"/></svg>