<?xml version="1.0" encoding="UTF-8" standalone="no"?>
<svg
   width="53.599998"
   height="86.800003"
   version="1.1"
   id="svg615"
   sodipodi:docname="5_roo.svg"
   inkscape:version="1.2.1 (9c6d41e410, 2022-07-14)"
   xmlns:inkscape="http://www.inkscape.org/namespaces/inkscape"
   xmlns:sodipodi="http://sodipodi.sourceforge.net/DTD/sodipodi-0.dtd"
   xmlns="http://www.w3.org/2000/svg"
   xmlns:svg="http://www.w3.org/2000/svg">
  <defs
     id="defs619" />
  <sodipodi:namedview
     id="namedview617"
     pagecolor="#ffffff"
     bordercolor="#666666"
     borderopacity="1.0"
     inkscape:showpageshadow="2"
     inkscape:pageopacity="0.0"
     inkscape:pagecheckerboard="0"
     inkscape:deskcolor="#d1d1d1"
     showgrid="false"
     inkscape:zoom="1.809816"
     inkscape:cx="19.062711"
     inkscape:cy="35.915253"
     inkscape:window-width="1920"
     inkscape:window-height="1027"
     inkscape:window-x="-8"
     inkscape:window-y="-8"
     inkscape:window-maximized="1"
     inkscape:current-layer="svg615" />
  <g
     id="g9"
     inkscape:label="g1"
     transform="scale(0.99867663,1)">
    <path
       d="m 38.450885,60.3 h -1.60212 Q 31.041079,60.3 26.48505,57.65 21.92902,55 18.123985,50.5 14.318949,46 10.714179,40.5 v 0 q -1.0013253,0 -2.1027829,0 v 0 q -8.51126359,0 -8.51126359,-5.1 v 0 q 0,-2 1.35178889,-3.1 1.3517889,-1.1 3.7549692,-1.1 v 0 q 2.1027828,0 4.105433,0.85 2.0026504,0.85 4.2055654,2.95 v 0 q 6.809011,-1.2 11.415107,-5.4 4.606095,-4.2 4.606095,-11 v 0 q 0,-6.5 -3.855102,-10.05 Q 21.828888,5 15.120009,5 V 5 Q 8.7115286,5 1.8023852,8 V 8 L 0,3.3 Q 3.6047704,1.8 7.4598722,0.9 11.314974,0 15.220142,0 v 0 q 8.911793,0 14.369015,4.9 5.457222,4.9 5.457222,13.7 v 0 q 0,5.5 -2.503312,9.85 -2.503313,4.35 -6.758945,7.2 -4.255632,2.85 -9.662788,4.05 v 0 q 3.905168,5.8 7.209541,9.2 3.304373,3.4 6.658812,4.85 3.35444,1.45 7.560005,1.45 v 0 h 1.501988 z"
       id="path2-3"
       inkscape:label="p1"
       style="stroke-width:1.00066" />
    <path
       style="fill:none;stroke:#000000;stroke-width:1px;stroke-linecap:butt;stroke-linejoin:miter;stroke-opacity:1"
       d="M 0.94104869,5.7498938 C 5.115098,4.040132 9.4870483,2.6418142 14.031232,2.4964904 c 4.955281,-0.2242553 10.270156,0.9401401 13.902943,4.522798 2.937897,2.8293097 4.311202,6.9396146 4.368378,10.9588596 0.221141,5.341333 -2.071396,10.754947 -6.239983,14.145774 -3.451913,2.930661 -7.788777,4.617674 -12.202168,5.446647 -1.734903,0.421541 -5.435874,0.436053 -7.3625321,0.24206 -2.7655251,-0.368482 -4.0802094,-0.880306 -3.9012717,-2.674195 0.1132353,-1.296729 1.8042188,-1.980327 4.531765,-1.213086 2.2598869,0.635691 3.8689038,2.001605 4.8694328,3.582417 0.863496,1.364302 1.470548,3.140612 2.589847,4.352715 2.509901,3.586395 5.15466,7.135663 8.368164,10.124073 2.825316,2.627757 6.266456,4.722911 10.122196,5.34428 1.952295,0.342668 3.951259,0.380574 5.921997,0.585229"
       id="path280-4"
       inkscape:label="s1"
       sodipodi:nodetypes="ccccccccsscccc" />
  </g>
  <g
     id="g459"
     inkscape:label="g2"
     transform="translate(-6.3)">
    <path
       style="display:inline"
       d="m 29.1,86.8 v 0 q -7.1,0 -11,-3.6 -3.9,-3.6 -3.9,-9.5 v 0 q 0,-5.4 4.1,-9.15 4.1,-3.75 12,-3.75 v 0 q 7.3,0 12.65,2.75 5.35,2.75 9.45,7.1 4.1,4.35 7.5,9.25 v 0 l -4.1,2.7 q -3.7,-5.1 -7.35,-8.95 -3.65,-3.85 -8,-6 Q 36.1,65.5 30.5,65.5 v 0 q -5.8,0 -8.55,2.35 -2.75,2.35 -2.75,5.95 v 0 q 0,4.2 2.7,6.15 2.7,1.95 6.9,1.95 v 0 q 2.7,0 4.95,-0.55 Q 36,80.8 38.2,79.8 v 0 l 1.7,4.8 q -2.6,1 -5.3,1.6 -2.7,0.6 -5.5,0.6 z"
       id="path450"
       inkscape:label="p2" />
    <path
       style="display:inline;fill:none;stroke:#000000;stroke-width:1px;stroke-linecap:butt;stroke-linejoin:miter;stroke-opacity:1"
       d="m 39.156038,82.101726 c -2.559475,0.870519 -5.086907,1.981239 -7.823193,2.132839 -3.656068,0.346073 -7.630959,0.02382 -10.710525,-2.159471 -1.994947,-1.389787 -3.307503,-3.602927 -3.721038,-5.984024 -0.524339,-2.865919 -0.09409,-6.035968 1.795561,-8.342771 1.97195,-2.740177 5.319724,-4.087889 8.589416,-4.419381 5.402628,-0.588506 11.078052,0.234292 15.808321,3.017688 4.134381,2.336077 7.55606,5.727729 10.466774,9.443934 1.484877,1.838423 2.884191,3.743963 4.305828,5.631338"
       id="path546"
       inkscape:label="s3" />
  </g>
</svg>
