<svg xmlns="http://www.w3.org/2000/svg" xmlns:xlink="http://www.w3.org/1999/xlink" width="43.300000000000004" height="130.4"><path d="M41.40 89.60L39.80 89.60Q34 89.60 29.45 86.95Q24.90 84.30 21.10 79.80Q17.30 75.30 13.70 69.80L13.70 69.80Q12.70 69.80 11.60 69.80L11.60 69.80Q3.10 69.80 3.10 64.70L3.10 64.70Q3.10 62.70 4.45 61.60Q5.80 60.50 8.20 60.50L8.20 60.50Q10.30 60.50 12.30 61.35Q14.30 62.20 16.50 64.30L16.50 64.30Q23.30 63.10 27.90 58.90Q32.50 54.70 32.50 47.90L32.50 47.90Q32.50 41.40 28.65 37.85Q24.80 34.30 18.10 34.30L18.10 34.30Q11.70 34.30 4.80 37.30L4.80 37.30L3 32.60Q6.60 31.10 10.45 30.20Q14.30 29.30 18.20 29.30L18.20 29.30Q27.10 29.30 32.55 34.20Q38 39.10 38 47.90L38 47.90Q38 53.40 35.50 57.75Q33 62.10 28.75 64.95Q24.50 67.80 19.10 69L19.10 69Q23 74.80 26.30 78.20Q29.60 81.60 32.95 83.05Q36.30 84.50 40.50 84.50L40.50 84.50L42 84.50L41.40 89.60ZM32.80 25.50L28.40 25.50Q26.50 17.70 24.65 13.15Q22.80 8.60 20.35 6.70Q17.90 4.80 14.10 4.80L14.10 4.80Q12.90 4.80 11.55 5Q10.20 5.20 8.70 5.70L8.70 5.70L7.20 1.10Q9.10 0.50 10.90 0.25Q12.70 0 14.40 0L14.40 0Q19.00 0 22.35 2.25Q25.70 4.50 28.20 10.05Q30.70 15.60 32.80 25.50L32.80 25.50ZM27.50 23.70L24.70 26.60Q18.60 21.20 14.40 18.85Q10.20 16.50 5.30 16.50L5.30 16.50Q1.80 16.50-1.10 17.40L-1.10 17.40L-2.60 12.70Q-0.80 12.30 1.15 12Q3.10 11.70 5.30 11.70L5.30 11.70Q9.10 11.70 12.45 12.90Q15.80 14.10 19.35 16.75Q22.90 19.40 27.50 23.70L27.50 23.70Z"/></svg>