<svg xmlns="http://www.w3.org/2000/svg" xmlns:xlink="http://www.w3.org/1999/xlink" width="68.4" height="130.4"><path d="M41.40 89.60L39.80 89.60Q34 89.60 29.45 86.95Q24.90 84.30 21.10 79.80Q17.30 75.30 13.70 69.80L13.70 69.80Q12.70 69.80 11.60 69.80L11.60 69.80Q3.10 69.80 3.10 64.70L3.10 64.70Q3.10 62.70 4.45 61.60Q5.80 60.50 8.20 60.50L8.20 60.50Q10.30 60.50 12.30 61.35Q14.30 62.20 16.50 64.30L16.50 64.30Q23.30 63.10 27.90 58.90Q32.50 54.70 32.50 47.90L32.50 47.90Q32.50 41.40 28.65 37.85Q24.80 34.30 18.10 34.30L18.10 34.30Q11.70 34.30 4.80 37.30L4.80 37.30L3 32.60Q6.60 31.10 10.45 30.20Q14.30 29.30 18.20 29.30L18.20 29.30Q27.10 29.30 32.55 34.20Q38 39.10 38 47.90L38 47.90Q38 53.40 35.50 57.75Q33 62.10 28.75 64.95Q24.50 67.80 19.10 69L19.10 69Q23 74.80 26.30 78.20Q29.60 81.60 32.95 83.05Q36.30 84.50 40.50 84.50L40.50 84.50L42 84.50L41.40 89.60ZM67.40 89.60L66.40 89.60Q59.80 89.60 56.50 86.60L56.50 86.60Q54.70 85.00 53.85 82.50Q53.00 80 53.00 75.80L53.00 75.80L53.00 29.30L58.30 30.00L58.30 75.50Q58.30 78.80 58.80 80.40Q59.30 82.00 60.60 83.00L60.60 83.00Q61.80 84.10 63.65 84.35Q65.50 84.60 67.90 84.60L67.90 84.60L67.40 89.60ZM57.90 25.50L53.50 25.50Q51.60 17.70 49.75 13.15Q47.90 8.60 45.45 6.70Q43.00 4.80 39.20 4.80L39.20 4.80Q38 4.80 36.65 5Q35.30 5.20 33.80 5.70L33.80 5.70L32.30 1.10Q34.20 0.50 36 0.25Q37.80 0 39.50 0L39.50 0Q44.10 0 47.45 2.25Q50.80 4.50 53.30 10.05Q55.80 15.60 57.90 25.50L57.90 25.50ZM52.60 23.70L49.80 26.60Q43.70 21.20 39.50 18.85Q35.30 16.50 30.40 16.50L30.40 16.50Q26.90 16.50 24.00 17.40L24.00 17.40L22.50 12.70Q24.30 12.30 26.25 12Q28.20 11.70 30.40 11.70L30.40 11.70Q34.20 11.70 37.55 12.90Q40.90 14.10 44.45 16.75Q48.00 19.40 52.60 23.70L52.60 23.70Z"/></svg>