<?xml version="1.0" encoding="UTF-8" standalone="no"?>
<svg
   width="73.199997"
   height="60.299999"
   version="1.1"
   id="svg4"
   sodipodi:docname="0_bh.svg"
   inkscape:version="1.2.1 (9c6d41e410, 2022-07-14)"
   xmlns:inkscape="http://www.inkscape.org/namespaces/inkscape"
   xmlns:sodipodi="http://sodipodi.sourceforge.net/DTD/sodipodi-0.dtd"
   xmlns="http://www.w3.org/2000/svg"
   xmlns:svg="http://www.w3.org/2000/svg">
  <defs
     id="defs8" />
  <sodipodi:namedview
     id="namedview6"
     pagecolor="#ffffff"
     bordercolor="#666666"
     borderopacity="1.0"
     inkscape:showpageshadow="2"
     inkscape:pageopacity="0.0"
     inkscape:pagecheckerboard="0"
     inkscape:deskcolor="#d1d1d1"
     showgrid="false"
     inkscape:zoom="16"
     inkscape:cx="38.40625"
     inkscape:cy="17.6875"
     inkscape:window-width="1920"
     inkscape:window-height="1027"
     inkscape:window-x="-8"
     inkscape:window-y="-8"
     inkscape:window-maximized="1"
     inkscape:current-layer="svg4" />
  <path
     style="fill:none;stroke:#000000;stroke-width:1px;stroke-linecap:butt;stroke-linejoin:miter;stroke-opacity:1"
     d="m 60.890625,0 c 0.0047,15.888641 -0.04727,31.777881 -0.007,47.666148 0.05302,2.85202 0.640582,6.027824 3.022662,7.884633 2.1593,1.844632 5.106018,2.097685 7.825241,2.152834 0.487941,0.02588 0.975881,0.05175 1.463821,0.07763"
     id="path282"
     sodipodi:nodetypes="ccccccccccccccccccccccccc"
     inkscape:label="s2" />
  <path
     style="fill:none;stroke:#000000;stroke-width:1px;stroke-linecap:butt;stroke-linejoin:miter;stroke-opacity:1"
     d="M 20.402344,52.742187 C 14.548564,47.63854 8.8211343,42.007112 5.507789,34.869836 2.8142348,28.744873 1.9476904,21.740992 3.4029516,15.186223 4.6216127,10.105384 8.0834229,5.3784836 13.102032,3.5532449 c 3.920616,-1.3952965 8.363479,-1.4331702 12.300312,-0.076683 4.237883,1.6888724 7.338397,5.612186 8.312676,10.0332618 1.480408,5.917324 0.748796,12.06234 0.836136,18.090214 -0.124628,1.29563 0.260443,2.859835 -0.551131,3.946364 -1.242023,0.625651 -2.584075,-0.531427 -3.528143,-1.284871 -1.476983,-1.497229 -3.023948,-3.28971 -3.215124,-5.469029 0.644029,-0.831385 1.969209,-0.381172 2.9031,-0.521831 3.522778,-0.0828 7.028127,-0.58313 10.559272,-0.423012 5.915238,0 11.830477,0 17.745715,0"
     id="path280"
     inkscape:label="s1" />
  <path
     d="m 22.2,51 -3.7,3.6 Q 10,47.5 5,39.45 0,31.4 0,21.3 v 0 Q 0,15 2.4,10.2 4.8,5.4 9.15,2.7 13.5,0 19.3,0 v 0 q 4.5,0 7.6,1.4 3.1,1.4 5.3,3.8 v 0 q 2.6,2.7 3.85,6.8 1.25,4.1 1.25,10.1 v 0 3.3 H 58.2 V 0.1 l 5.3,0.7 v 45.4 q 0,3.3 0.55,4.9 0.55,1.6 1.85,2.6 v 0 q 1.2,1.1 3,1.35 1.8,0.25 4.3,0.25 v 0 l -0.6,5 h -0.9 q -6.7,0 -9.9,-3 v 0 Q 60,55.7 59.1,53.2 58.2,50.7 58.2,46.5 v 0 -16.2 H 37.3 v 3.1 q 0,2.8 -1.1,4 -1.1,1.2 -2.8,1.2 v 0 Q 31.3,38.6 29.25,37 27.2,35.4 25.8,33.15 24.4,30.9 24.4,29 v 0 q 0,-1.5 1.1,-2.55 1.1,-1.05 3.6,-1.05 v 0 H 32 v -3.1 q 0,-8.8 -3,-13 v 0 Q 27.4,7.3 25.2,6.15 23,5 19.3,5 V 5 Q 12.6,5 9,9.6 5.4,14.2 5.4,21.4 v 0 q 0,8.9 4.5,16.1 4.5,7.2 12.3,13.5 z"
     id="path2"
     inkscape:label="p1" />
</svg>
