<?xml version="1.0" encoding="UTF-8" standalone="no"?>
<svg
   width="73.199997"
   height="60.299999"
   version="1.1"
   id="svg4"
   sodipodi:docname="0_bh.svg"
   inkscape:version="1.2.1 (9c6d41e410, 2022-07-14)"
   xmlns:inkscape="http://www.inkscape.org/namespaces/inkscape"
   xmlns:sodipodi="http://sodipodi.sourceforge.net/DTD/sodipodi-0.dtd"
   xmlns="http://www.w3.org/2000/svg"
   xmlns:svg="http://www.w3.org/2000/svg">
  <defs
     id="defs8" />
  <sodipodi:namedview
     id="namedview6"
     pagecolor="#ffffff"
     bordercolor="#666666"
     borderopacity="1.0"
     inkscape:showpageshadow="2"
     inkscape:pageopacity="0.0"
     inkscape:pagecheckerboard="0"
     inkscape:deskcolor="#d1d1d1"
     showgrid="false"
     inkscape:zoom="8"
     inkscape:cx="18.6875"
     inkscape:cy="35.125"
     inkscape:window-width="1920"
     inkscape:window-height="1027"
     inkscape:window-x="-8"
     inkscape:window-y="-8"
     inkscape:window-maximized="1"
     inkscape:current-layer="svg4"
     showguides="false" />
  <path
     d="m 22.2,51 -3.7,3.6 Q 10,47.5 5,39.45 0,31.4 0,21.3 v 0 Q 0,15 2.4,10.2 4.8,5.4 9.15,2.7 13.5,0 19.3,0 v 0 q 4.5,0 7.6,1.4 3.1,1.4 5.3,3.8 v 0 q 2.6,2.7 3.85,6.8 1.25,4.1 1.25,10.1 v 0 3.3 H 58.2 V 0.1 l 5.3,0.7 v 45.4 q 0,3.3 0.55,4.9 0.55,1.6 1.85,2.6 v 0 q 1.2,1.1 3,1.35 1.8,0.25 4.3,0.25 v 0 l -0.6,5 h -0.9 q -6.7,0 -9.9,-3 v 0 Q 60,55.7 59.1,53.2 58.2,50.7 58.2,46.5 v 0 -16.2 H 37.3 v 3.1 q 0,2.8 -1.1,4 -1.1,1.2 -2.8,1.2 v 0 Q 31.3,38.6 29.25,37 27.2,35.4 25.8,33.15 24.4,30.9 24.4,29 v 0 q 0,-1.5 1.1,-2.55 1.1,-1.05 3.6,-1.05 v 0 H 32 v -3.1 q 0,-8.8 -3,-13 v 0 Q 27.4,7.3 25.2,6.15 23,5 19.3,5 V 5 Q 12.6,5 9,9.6 5.4,14.2 5.4,21.4 v 0 q 0,8.9 4.5,16.1 4.5,7.2 12.3,13.5 z"
     id="path2"
     inkscape:label="p1" />
  <path
     id="path282"
     style="fill:none;stroke:#000000;stroke-width:1px;stroke-linecap:butt;stroke-linejoin:miter;stroke-opacity:1"
     d="M 20.402344,52.742187 C 13.509054,46.718651 6.5650107,39.808143 4.0075992,30.738057 2.1013147,23.759339 1.857158,15.612353 5.9527987,9.340009 9.0376745,4.3522308 15.120771,2.0111308 20.814151,2.5368119 c 5.005714,0.1349283 9.692173,3.2315025 11.786942,7.7776711 3.054857,7.020665 1.771551,14.874089 1.925499,22.295973 0.263064,2.794444 -1.917122,4.175183 -3.683002,1.948265 -1.481368,-1.457049 -4.471639,-4.264548 -2.992851,-6.178717 2.844331,-0.148035 5.721157,-0.242191 8.574682,-0.472767 6.706522,-0.13687 13.42065,-0.02173 20.130716,-0.05958 1.68177,0.133681 3.809306,-0.03008 4.296388,-2.00309 C 60.879035,17.229739 60.893125,8.6148695 60.890625,0"
     sodipodi:nodetypes="ccccccsssscc"
     inkscape:label="s1" />
  <path
     style="fill:none;stroke:#000000;stroke-width:1px;stroke-linecap:butt;stroke-linejoin:miter;stroke-opacity:1"
     d="m 60.853258,25.810902 c -0.006,7.285683 0.09466,15.961937 0.113133,23.247362 0.05302,2.85202 0.552194,4.635708 2.934274,6.492517 2.1593,1.844632 5.106018,2.097685 7.825241,2.152834 0.487941,0.02588 0.975881,0.05175 1.463821,0.07763"
     id="path268"
     sodipodi:nodetypes="ccccc"
     inkscape:label="s2" />
</svg>
