<svg xmlns="http://www.w3.org/2000/svg" xmlns:xlink="http://www.w3.org/1999/xlink" width="101.10000000000001" height="130.4"><path d="M27.20 80.30L23.50 83.90Q15 76.80 10 68.75Q5 60.70 5 50.60L5 50.60Q5 44.30 7.40 39.50Q9.80 34.70 14.15 32.00Q18.50 29.30 24.30 29.30L24.30 29.30Q28.80 29.30 31.90 30.70Q35 32.10 37.20 34.50L37.20 34.50Q39.80 37.20 41.05 41.30Q42.30 45.40 42.30 51.40L42.30 51.40L42.30 54.70L63.20 54.70L63.20 29.40L68.50 30.10L68.50 75.50Q68.50 78.80 69.05 80.40Q69.60 82.00 70.90 83.00L70.90 83.00Q72.10 84.10 73.90 84.35Q75.70 84.60 78.20 84.60L78.20 84.60L77.60 89.60L76.70 89.60Q70 89.60 66.80 86.60L66.80 86.60Q65 85.00 64.10 82.50Q63.20 80 63.20 75.80L63.20 75.80L63.20 59.60L42.30 59.60L42.30 62.70Q42.30 65.50 41.20 66.70Q40.10 67.90 38.40 67.90L38.40 67.90Q36.30 67.90 34.25 66.30Q32.20 64.70 30.80 62.45Q29.40 60.20 29.40 58.30L29.40 58.30Q29.40 56.80 30.50 55.75Q31.60 54.70 34.10 54.70L34.10 54.70L37 54.70L37 51.60Q37 42.80 34 38.60L34 38.60Q32.40 36.60 30.20 35.45Q28 34.30 24.30 34.30L24.30 34.30Q17.60 34.30 14 38.90Q10.40 43.50 10.40 50.70L10.40 50.70Q10.40 59.60 14.90 66.80Q19.40 74 27.20 80.30L27.20 80.30ZM89.90 51.30L89.90 51.30Q88.10 51.30 86.70 49.95Q85.30 48.60 85.30 46.20L85.30 46.20Q85.30 43.80 86.65 42.45Q88 41.10 89.90 41.10L89.90 41.10Q91.90 41.10 93.20 42.45Q94.50 43.80 94.50 46.20L94.50 46.20Q94.50 48.70 93.15 50.00Q91.80 51.30 89.90 51.30ZM89.90 84.60L89.90 84.60Q88.10 84.60 86.70 83.25Q85.30 81.90 85.30 79.50L85.30 79.50Q85.30 77.10 86.65 75.75Q88 74.40 89.90 74.40L89.90 74.40Q91.90 74.40 93.20 75.75Q94.50 77.10 94.50 79.50L94.50 79.50Q94.50 82.00 93.15 83.30Q91.80 84.60 89.90 84.60Z"/></svg>