<svg xmlns="http://www.w3.org/2000/svg" xmlns:xlink="http://www.w3.org/1999/xlink" width="103.80000000000001"
    height="130.4">
    <path
        d="M27.20 80.30L23.50 83.90Q15 76.80 10 68.75Q5 60.70 5 50.60L5 50.60Q5 44.30 7.40 39.50Q9.80 34.70 14.15 32.00Q18.50 29.30 24.30 29.30L24.30 29.30Q28.80 29.30 31.90 30.70Q35 32.10 37.20 34.50L37.20 34.50Q39.80 37.20 41.05 41.30Q42.30 45.40 42.30 51.40L42.30 51.40L42.30 54.70L63.20 54.70L63.20 29.40L68.50 30.10L68.50 75.50Q68.50 78.80 69.05 80.40Q69.60 82.00 70.90 83.00L70.90 83.00Q72.10 84.10 73.90 84.35Q75.70 84.60 78.20 84.60L78.20 84.60L77.60 89.60L76.70 89.60Q70 89.60 66.80 86.60L66.80 86.60Q65 85.00 64.10 82.50Q63.20 80 63.20 75.80L63.20 75.80L63.20 59.60L42.30 59.60L42.30 62.70Q42.30 65.50 41.20 66.70Q40.10 67.90 38.40 67.90L38.40 67.90Q36.30 67.90 34.25 66.30Q32.20 64.70 30.80 62.45Q29.40 60.20 29.40 58.30L29.40 58.30Q29.40 56.80 30.50 55.75Q31.60 54.70 34.10 54.70L34.10 54.70L37 54.70L37 51.60Q37 42.80 34 38.60L34 38.60Q32.40 36.60 30.20 35.45Q28 34.30 24.30 34.30L24.30 34.30Q17.60 34.30 14 38.90Q10.40 43.50 10.40 50.70L10.40 50.70Q10.40 59.60 14.90 66.80Q19.40 74 27.20 80.30L27.20 80.30ZM102.80 89.60L101.80 89.60Q95.20 89.60 91.90 86.60L91.90 86.60Q90.10 85.00 89.25 82.50Q88.40 80 88.40 75.80L88.40 75.80L88.40 29.30L93.70 30.00L93.70 75.50Q93.70 78.80 94.20 80.40Q94.70 82.00 96 83.00L96 83.00Q97.20 84.10 99.05 84.35Q100.90 84.60 103.30 84.60L103.30 84.60L102.80 89.60Z" />
      <g
     id="g225"
     inkscape:label="g2">
    <path
       style="display:inline"
       d="m 70.7,60.3 h -1 q -6.6,0 -9.9,-3 v 0 Q 58,55.7 57.15,53.2 56.3,50.7 56.3,46.5 v 0 V 0 l 5.3,0.7 v 45.5 q 0,3.3 0.5,4.9 0.5,1.6 1.8,2.6 v 0 q 1.2,1.1 3.05,1.35 1.85,0.25 4.25,0.25 v 0 z"
       id="path216"
       inkscape:label="p2" />
    <path
       style="display:inline;fill:none;stroke:#000000;stroke-width:1px;stroke-linecap:butt;stroke-linejoin:miter;stroke-opacity:1"
       d="m 58.96875,0.03125 c 0.0052,15.660703 -0.0419,31.322813 -0.004,46.982637 0.07316,2.661925 0.300704,5.531206 2.06529,7.674603 1.94562,2.285428 5.076187,2.956219 7.950186,3.001875 0.734456,0.05113 1.468913,0.102253 2.203369,0.15338"
       id="path81"
       inkscape:label="s3" />
  </g>
    <path id="path282"
        style="fill:none;stroke:#000000;stroke-width:1px;stroke-linecap:butt;stroke-linejoin:miter;stroke-opacity:1"
        d="M 20.402344,52.742187 C 13.509054,46.718651 6.5650107,39.808143 4.0075992,30.738057 2.1013147,23.759339 1.857158,15.612353 5.9527987,9.340009 9.0376745,4.3522308 15.120771,2.0111308 20.814151,2.5368119 c 5.005714,0.1349283 9.692173,3.2315025 11.786942,7.7776711 3.054857,7.020665 1.771551,14.874089 1.925499,22.295973 0.263064,2.794444 -1.917122,4.175183 -3.683002,1.948265 -1.481368,-1.457049 -4.471639,-4.264548 -2.992851,-6.178717 2.844331,-0.148035 5.721157,-0.242191 8.574682,-0.472767 6.706522,-0.13687 13.42065,-0.02173 20.130716,-0.05958 1.68177,0.133681 3.809306,-0.03008 4.296388,-2.00309 C 60.879035,17.229739 60.893125,8.6148695 60.890625,0"
        sodipodi:nodetypes="ccccccsssscc" inkscape:label="s1" />
    <path style="fill:none;stroke:#000000;stroke-width:1px;stroke-linecap:butt;stroke-linejoin:miter;stroke-opacity:1"
        d="m 60.853258,25.810902 c -0.006,7.285683 0.09466,15.961937 0.113133,23.247362 0.05302,2.85202 0.552194,4.635708 2.934274,6.492517 2.1593,1.844632 5.106018,2.097685 7.825241,2.152834 0.487941,0.02588 0.975881,0.05175 1.463821,0.07763"
        id="path268" sodipodi:nodetypes="ccccc" inkscape:label="s2" />
</svg>