<svg xmlns="http://www.w3.org/2000/svg" xmlns:xlink="http://www.w3.org/1999/xlink" width="103.80000000000001"
    height="130.4">
    <path
        d="M24 89.60L23.10 89.60Q20 89.60 17.50 88.95Q15 88.30 13.20 86.60L13.20 86.60Q11.30 84.90 10.50 82.40Q9.70 79.90 9.70 75.80L9.70 75.80L9.70 22.40Q9.70 15.80 11.05 11.70Q12.40 7.60 15.80 4.70L15.80 4.70Q18 2.80 21.15 1.70Q24.30 0.60 28.40 0.60L28.40 0.60Q37.50 0.60 44.75 5.85Q52 11.10 59.30 19.60L59.30 19.60L55.40 22.70Q49 15.10 42.65 10.30Q36.30 5.50 28.70 5.50L28.70 5.50Q22.80 5.50 19.40 8.40L19.40 8.40Q17 10.50 16 14Q15 17.50 15 24.10L15 24.10L15 75.50Q15 78.70 15.50 80.35Q16 82.00 17.20 82.90L17.20 82.90Q18.40 84.10 20.35 84.35Q22.30 84.60 24.60 84.60L24.60 84.60L24 89.60ZM52.30 80.30L48.60 83.90Q40.10 76.80 35.10 68.75Q30.10 60.70 30.10 50.60L30.10 50.60Q30.10 44.30 32.50 39.50Q34.90 34.70 39.25 32.00Q43.60 29.30 49.40 29.30L49.40 29.30Q53.90 29.30 57 30.70Q60.10 32.10 62.30 34.50L62.30 34.50Q64.90 37.20 66.15 41.30Q67.40 45.40 67.40 51.40L67.40 51.40L67.40 54.70L88.30 54.70L88.30 29.40L93.60 30.10L93.60 75.50Q93.60 78.80 94.15 80.40Q94.70 82.00 96 83.00L96 83.00Q97.20 84.10 99 84.35Q100.80 84.60 103.30 84.60L103.30 84.60L102.70 89.60L101.80 89.60Q95.10 89.60 91.90 86.60L91.90 86.60Q90.10 85.00 89.20 82.50Q88.30 80 88.30 75.80L88.30 75.80L88.30 59.60L67.40 59.60L67.40 62.70Q67.40 65.50 66.30 66.70Q65.20 67.90 63.50 67.90L63.50 67.90Q61.40 67.90 59.35 66.30Q57.30 64.70 55.90 62.45Q54.50 60.20 54.50 58.30L54.50 58.30Q54.50 56.80 55.60 55.75Q56.70 54.70 59.20 54.70L59.20 54.70L62.10 54.70L62.10 51.60Q62.10 42.80 59.10 38.60L59.10 38.60Q57.50 36.60 55.30 35.45Q53.10 34.30 49.40 34.30L49.40 34.30Q42.70 34.30 39.10 38.90Q35.50 43.50 35.50 50.70L35.50 50.70Q35.50 59.60 40 66.80Q44.50 74 52.30 80.30L52.30 80.30Z" />
      <g
     id="g309"
     inkscape:label="g2">
    <path
       style="display:inline"
       d="M 14.3,89 H 13.4 Q 10.3,89 7.8,88.35 5.3,87.7 3.5,86 v 0 Q 1.6,84.3 0.8,81.8 0,79.3 0,75.2 v 0 -53.4 Q 0,15.2 1.35,11.1 2.7,7 6.1,4.1 v 0 Q 8.3,2.2 11.45,1.1 14.6,0 18.7,0 V 0 Q 27.8,0 35.05,5.25 42.3,10.5 49.6,19 v 0 l -3.9,3.1 Q 39.3,14.5 32.95,9.7 26.6,4.9 19,4.9 v 0 q -5.9,0 -9.3,2.9 v 0 q -2.4,2.1 -3.4,5.6 -1,3.5 -1,10.1 v 0 51.4 q 0,3.2 0.5,4.85 0.5,1.65 1.7,2.55 v 0 q 1.2,1.2 3.15,1.45 Q 12.6,84 14.9,84 v 0 z"
       id="path2"
       inkscape:label="p2" />
    <path
       style="display:inline;fill:none;stroke:#000000;stroke-width:1px;stroke-linecap:butt;stroke-linejoin:miter;stroke-opacity:1"
       d="M 47.652368,20.738116 C 42.912163,15.169343 37.771996,9.7590782 31.535156,5.8554687 25.556372,2.3479405 17.925665,1.3282836 11.384063,3.8090168 7.098823,5.5445734 4.0571601,9.6376118 3.3691387,14.177325 2.2636698,19.814013 2.8760079,25.587166 2.7106596,31.290784 c 0.017146,15.362435 -0.08206,30.727062 0.00809,46.088122 0.1319749,2.783277 1.0109143,5.743286 3.4696807,7.348394 2.457118,1.869621 5.6943627,1.540296 8.5928207,1.741457"
       id="path491"
       inkscape:label="s3" /></g>
    <path id="path282"
        style="fill:none;stroke:#000000;stroke-width:1px;stroke-linecap:butt;stroke-linejoin:miter;stroke-opacity:1"
        d="M 20.402344,52.742187 C 13.509054,46.718651 6.5650107,39.808143 4.0075992,30.738057 2.1013147,23.759339 1.857158,15.612353 5.9527987,9.340009 9.0376745,4.3522308 15.120771,2.0111308 20.814151,2.5368119 c 5.005714,0.1349283 9.692173,3.2315025 11.786942,7.7776711 3.054857,7.020665 1.771551,14.874089 1.925499,22.295973 0.263064,2.794444 -1.917122,4.175183 -3.683002,1.948265 -1.481368,-1.457049 -4.471639,-4.264548 -2.992851,-6.178717 2.844331,-0.148035 5.721157,-0.242191 8.574682,-0.472767 6.706522,-0.13687 13.42065,-0.02173 20.130716,-0.05958 1.68177,0.133681 3.809306,-0.03008 4.296388,-2.00309 C 60.879035,17.229739 60.893125,8.6148695 60.890625,0"
        sodipodi:nodetypes="ccccccsssscc" inkscape:label="s1" />
    <path style="fill:none;stroke:#000000;stroke-width:1px;stroke-linecap:butt;stroke-linejoin:miter;stroke-opacity:1"
        d="m 60.853258,25.810902 c -0.006,7.285683 0.09466,15.961937 0.113133,23.247362 0.05302,2.85202 0.552194,4.635708 2.934274,6.492517 2.1593,1.844632 5.106018,2.097685 7.825241,2.152834 0.487941,0.02588 0.975881,0.05175 1.463821,0.07763"
        id="path268" sodipodi:nodetypes="ccccc" inkscape:label="s2" />
</svg>