<svg xmlns="http://www.w3.org/2000/svg" xmlns:xlink="http://www.w3.org/1999/xlink" width="103.80000000000001" height="130.4"><path d="M24 89.60L23.10 89.60Q20 89.60 17.50 88.95Q15 88.30 13.20 86.60L13.20 86.60Q11.30 84.90 10.50 82.40Q9.70 79.90 9.70 75.80L9.70 75.80L9.70 22.40Q9.70 15.80 11.05 11.70Q12.40 7.60 15.80 4.70L15.80 4.70Q18 2.80 21.15 1.70Q24.30 0.60 28.40 0.60L28.40 0.60Q37.50 0.60 44.75 5.85Q52 11.10 59.30 19.60L59.30 19.60L55.40 22.70Q49 15.10 42.65 10.30Q36.30 5.50 28.70 5.50L28.70 5.50Q22.80 5.50 19.40 8.40L19.40 8.40Q17 10.50 16 14Q15 17.50 15 24.10L15 24.10L15 75.50Q15 78.70 15.50 80.35Q16 82.00 17.20 82.90L17.20 82.90Q18.40 84.10 20.35 84.35Q22.30 84.60 24.60 84.60L24.60 84.60L24 89.60ZM52.30 80.30L48.60 83.90Q40.10 76.80 35.10 68.75Q30.10 60.70 30.10 50.60L30.10 50.60Q30.10 44.30 32.50 39.50Q34.90 34.70 39.25 32.00Q43.60 29.30 49.40 29.30L49.40 29.30Q53.90 29.30 57 30.70Q60.10 32.10 62.30 34.50L62.30 34.50Q64.90 37.20 66.15 41.30Q67.40 45.40 67.40 51.40L67.40 51.40L67.40 54.70L88.30 54.70L88.30 29.40L93.60 30.10L93.60 75.50Q93.60 78.80 94.15 80.40Q94.70 82.00 96 83.00L96 83.00Q97.20 84.10 99 84.35Q100.80 84.60 103.30 84.60L103.30 84.60L102.70 89.60L101.80 89.60Q95.10 89.60 91.90 86.60L91.90 86.60Q90.10 85.00 89.20 82.50Q88.30 80 88.30 75.80L88.30 75.80L88.30 59.60L67.40 59.60L67.40 62.70Q67.40 65.50 66.30 66.70Q65.20 67.90 63.50 67.90L63.50 67.90Q61.40 67.90 59.35 66.30Q57.30 64.70 55.90 62.45Q54.50 60.20 54.50 58.30L54.50 58.30Q54.50 56.80 55.60 55.75Q56.70 54.70 59.20 54.70L59.20 54.70L62.10 54.70L62.10 51.60Q62.10 42.80 59.10 38.60L59.10 38.60Q57.50 36.60 55.30 35.45Q53.10 34.30 49.40 34.30L49.40 34.30Q42.70 34.30 39.10 38.90Q35.50 43.50 35.50 50.70L35.50 50.70Q35.50 59.60 40 66.80Q44.50 74 52.30 80.30L52.30 80.30Z"/></svg>