<svg xmlns="http://www.w3.org/2000/svg" xmlns:xlink="http://www.w3.org/1999/xlink" width="78.7" height="130.4"><path d="M27.20 80.30L23.50 83.90Q15 76.80 10 68.75Q5 60.70 5 50.60L5 50.60Q5 44.30 7.40 39.50Q9.80 34.70 14.15 32.00Q18.50 29.30 24.30 29.30L24.30 29.30Q28.80 29.30 31.90 30.70Q35 32.10 37.20 34.50L37.20 34.50Q39.80 37.20 41.05 41.30Q42.30 45.40 42.30 51.40L42.30 51.40L42.30 54.70L63.20 54.70L63.20 29.40L68.50 30.10L68.50 75.50Q68.50 78.80 69.05 80.40Q69.60 82.00 70.90 83.00L70.90 83.00Q72.10 84.10 73.90 84.35Q75.70 84.60 78.20 84.60L78.20 84.60L77.60 89.60L76.70 89.60Q70 89.60 66.80 86.60L66.80 86.60Q65 85.00 64.10 82.50Q63.20 80 63.20 75.80L63.20 75.80L63.20 59.60L42.30 59.60L42.30 62.70Q42.30 65.50 41.20 66.70Q40.10 67.90 38.40 67.90L38.40 67.90Q36.30 67.90 34.25 66.30Q32.20 64.70 30.80 62.45Q29.40 60.20 29.40 58.30L29.40 58.30Q29.40 56.80 30.50 55.75Q31.60 54.70 34.10 54.70L34.10 54.70L37 54.70L37 51.60Q37 42.80 34 38.60L34 38.60Q32.40 36.60 30.20 35.45Q28 34.30 24.30 34.30L24.30 34.30Q17.60 34.30 14 38.90Q10.40 43.50 10.40 50.70L10.40 50.70Q10.40 59.60 14.90 66.80Q19.40 74 27.20 80.30L27.20 80.30ZM63 116.30L63 116.30Q56.40 116.30 51.25 114.05Q46.10 111.80 41.95 108.00Q37.80 104.20 34.30 99.40L34.30 99.40L38.50 96.50Q43.60 103.20 49.20 107.30Q54.80 111.40 63 111.40L63 111.40Q68.70 111.40 71.70 109.20Q74.70 107.00 74.70 102.70L74.70 102.70Q74.70 98.80 72.10 96.80Q69.50 94.80 65.10 94.80L65.10 94.80Q62.60 94.80 60.40 95.35Q58.20 95.90 56 96.80L56 96.80L54.20 92.30Q56.80 91.20 59.40 90.65Q62 90.10 64.80 90.10L64.80 90.10Q71.90 90.10 75.80 93.65Q79.70 97.20 79.70 103.10L79.70 103.10Q79.70 109.30 75.25 112.80Q70.80 116.30 63 116.30Z"/></svg>