<?xml version="1.0" encoding="UTF-8" standalone="no"?>
<svg
   width="87"
   height="86.800003"
   version="1.1"
   id="svg4349"
   sodipodi:docname="5_bhoo.svg"
   inkscape:version="1.2.1 (9c6d41e410, 2022-07-14)"
   xmlns:inkscape="http://www.inkscape.org/namespaces/inkscape"
   xmlns:sodipodi="http://sodipodi.sourceforge.net/DTD/sodipodi-0.dtd"
   xmlns="http://www.w3.org/2000/svg"
   xmlns:svg="http://www.w3.org/2000/svg">
  <defs
     id="defs4353" />
  <sodipodi:namedview
     id="namedview4351"
     pagecolor="#ffffff"
     bordercolor="#666666"
     borderopacity="1.0"
     inkscape:showpageshadow="2"
     inkscape:pageopacity="0.0"
     inkscape:pagecheckerboard="0"
     inkscape:deskcolor="#d1d1d1"
     showgrid="false"
     inkscape:zoom="1.809816"
     inkscape:cx="34.533897"
     inkscape:cy="35.915253"
     inkscape:window-width="1920"
     inkscape:window-height="1027"
     inkscape:window-x="-8"
     inkscape:window-y="-8"
     inkscape:window-maximized="1"
     inkscape:current-layer="svg4349" />
  <g
     id="g3561"
     inkscape:label="g1"
     transform="matrix(0.99977858,0,0,1,0,1.4509796e-4)">
    <path
       d="m 22.204917,51 -3.70082,3.6 Q 10.002215,47.5 5.0011073,39.45 0,31.4 0,21.3 v 0 Q 0,15 2.4005315,10.2 4.8010631,5.4 9.1520264,2.7 13.50299,0 19.304274,0 v 0 q 4.500997,0 7.601684,1.4 3.100686,1.4 5.301173,3.8 v 0 q 2.600576,2.7 3.850853,6.8 1.250277,4.1 1.250277,10.1 v 0 3.3 H 58.212889 V 0.1 l 5.301174,0.7 v 45.4 q 0,3.3 0.550122,4.9 0.550122,1.6 1.85041,2.6 v 0 q 1.200266,1.1 3.000664,1.35 1.800399,0.25 4.300953,0.25 v 0 l -0.600133,5 h -0.9002 q -6.701484,0 -9.902192,-3 v 0 q -1.800399,-1.6 -2.700598,-4.1 -0.9002,-2.5 -0.9002,-6.7 v 0 -16.2 H 37.308261 v 3.1 q 0,2.8 -1.100244,4 -1.100243,1.2 -2.80062,1.2 v 0 Q 31.306932,38.6 29.256478,37 27.206024,35.4 25.805714,33.15 24.405404,30.9 24.405404,29 v 0 q 0,-1.5 1.100243,-2.55 1.100244,-1.05 3.600798,-1.05 v 0 h 2.900642 v -3.1 q 0,-8.8 -3.000664,-13 v 0 Q 27.406068,7.3 25.205581,6.15 23.005094,5 19.304274,5 V 5 Q 12.602791,5 9.0019932,9.6 5.4011959,14.2 5.4011959,21.4 v 0 q 0,8.9 4.5009966,16.1 4.5009965,7.2 12.3027245,13.5 z"
       id="path2"
       inkscape:label="p1"
       style="stroke-width:1.00011" />
    <path
       id="path282-8"
       style="fill:none;stroke:#000000;stroke-width:1px;stroke-linecap:butt;stroke-linejoin:miter;stroke-opacity:1"
       d="M 20.402344,52.742187 C 13.509054,46.718651 6.5650107,39.808143 4.0075992,30.738057 2.1013147,23.759339 1.857158,15.612353 5.9527987,9.340009 9.0376745,4.3522308 15.120771,2.0111308 20.814151,2.5368119 c 5.005714,0.1349283 9.692173,3.2315025 11.786942,7.7776711 3.054857,7.020665 1.771551,14.874089 1.925499,22.295973 0.263064,2.794444 -1.917122,4.175183 -3.683002,1.948265 -1.481368,-1.457049 -4.471639,-4.264548 -2.992851,-6.178717 2.844331,-0.148035 5.721157,-0.242191 8.574682,-0.472767 6.706522,-0.13687 13.42065,-0.02173 20.130716,-0.05958 1.68177,0.133681 3.809306,-0.03008 4.296388,-2.00309 C 60.879035,17.229739 60.893125,8.6148695 60.890625,0"
       sodipodi:nodetypes="ccccccsssscc"
       inkscape:label="s1" />
    <path
       style="fill:none;stroke:#000000;stroke-width:1px;stroke-linecap:butt;stroke-linejoin:miter;stroke-opacity:1"
       d="m 60.853258,25.810902 c -0.006,7.285683 0.09466,15.961937 0.113133,23.247362 0.05302,2.85202 0.552194,4.635708 2.934274,6.492517 2.1593,1.844632 5.106018,2.097685 7.825241,2.152834 0.487941,0.02588 0.975881,0.05175 1.463821,0.07763"
       id="path268-0"
       sodipodi:nodetypes="ccccc"
       inkscape:label="s2" />
  </g>
  <g
     id="g459"
     inkscape:label="g2"
     transform="translate(27.1)">
    <path
       style="display:inline"
       d="m 29.1,86.8 v 0 q -7.1,0 -11,-3.6 -3.9,-3.6 -3.9,-9.5 v 0 q 0,-5.4 4.1,-9.15 4.1,-3.75 12,-3.75 v 0 q 7.3,0 12.65,2.75 5.35,2.75 9.45,7.1 4.1,4.35 7.5,9.25 v 0 l -4.1,2.7 q -3.7,-5.1 -7.35,-8.95 -3.65,-3.85 -8,-6 Q 36.1,65.5 30.5,65.5 v 0 q -5.8,0 -8.55,2.35 -2.75,2.35 -2.75,5.95 v 0 q 0,4.2 2.7,6.15 2.7,1.95 6.9,1.95 v 0 q 2.7,0 4.95,-0.55 Q 36,80.8 38.2,79.8 v 0 l 1.7,4.8 q -2.6,1 -5.3,1.6 -2.7,0.6 -5.5,0.6 z"
       id="path450"
       inkscape:label="p2" />
    <path
       style="display:inline;fill:none;stroke:#000000;stroke-width:1px;stroke-linecap:butt;stroke-linejoin:miter;stroke-opacity:1"
       d="m 39.156038,82.101726 c -2.559475,0.870519 -5.086907,1.981239 -7.823193,2.132839 -3.656068,0.346073 -7.630959,0.02382 -10.710525,-2.159471 -1.994947,-1.389787 -3.307503,-3.602927 -3.721038,-5.984024 -0.524339,-2.865919 -0.09409,-6.035968 1.795561,-8.342771 1.97195,-2.740177 5.319724,-4.087889 8.589416,-4.419381 5.402628,-0.588506 11.078052,0.234292 15.808321,3.017688 4.134381,2.336077 7.55606,5.727729 10.466774,9.443934 1.484877,1.838423 2.884191,3.743963 4.305828,5.631338"
       id="path546"
       inkscape:label="s3" />
  </g>
</svg>
