<svg xmlns="http://www.w3.org/2000/svg" xmlns:xlink="http://www.w3.org/1999/xlink" width="78.7" height="130.4">
    <path
        d="M27.20 80.30L23.50 83.90Q15 76.80 10 68.75Q5 60.70 5 50.60L5 50.60Q5 44.30 7.40 39.50Q9.80 34.70 14.15 32.00Q18.50 29.30 24.30 29.30L24.30 29.30Q28.80 29.30 31.90 30.70Q35 32.10 37.20 34.50L37.20 34.50Q39.80 37.20 41.05 41.30Q42.30 45.40 42.30 51.40L42.30 51.40L42.30 54.70L63.20 54.70L63.20 29.40L68.50 30.10L68.50 75.50Q68.50 78.80 69.05 80.40Q69.60 82.00 70.90 83.00L70.90 83.00Q72.10 84.10 73.90 84.35Q75.70 84.60 78.20 84.60L78.20 84.60L77.60 89.60L76.70 89.60Q70 89.60 66.80 86.60L66.80 86.60Q65 85.00 64.10 82.50Q63.20 80 63.20 75.80L63.20 75.80L63.20 59.60L42.30 59.60L42.30 62.70Q42.30 65.50 41.20 66.70Q40.10 67.90 38.40 67.90L38.40 67.90Q36.30 67.90 34.25 66.30Q32.20 64.70 30.80 62.45Q29.40 60.20 29.40 58.30L29.40 58.30Q29.40 56.80 30.50 55.75Q31.60 54.70 34.10 54.70L34.10 54.70L37 54.70L37 51.60Q37 42.80 34 38.60L34 38.60Q32.40 36.60 30.20 35.45Q28 34.30 24.30 34.30L24.30 34.30Q17.60 34.30 14 38.90Q10.40 43.50 10.40 50.70L10.40 50.70Q10.40 59.60 14.90 66.80Q19.40 74 27.20 80.30L27.20 80.30ZM61.20 116.10L61.20 116.10Q54.10 116.10 50.20 112.50Q46.30 108.90 46.30 103.00L46.30 103.00Q46.30 97.60 50.40 93.85Q54.50 90.10 62.40 90.10L62.40 90.10Q69.70 90.10 75.05 92.85Q80.40 95.60 84.50 99.95Q88.60 104.30 92 109.20L92 109.20L87.90 111.90Q84.20 106.80 80.55 102.95Q76.90 99.10 72.55 96.95Q68.20 94.80 62.60 94.80L62.60 94.80Q56.80 94.80 54.05 97.15Q51.30 99.50 51.30 103.10L51.30 103.10Q51.30 107.30 54 109.25Q56.70 111.20 60.90 111.20L60.90 111.20Q63.60 111.20 65.85 110.65Q68.10 110.10 70.30 109.10L70.30 109.10L72 113.90Q69.40 114.90 66.70 115.50Q64 116.10 61.20 116.10Z" />
    <g
     id="g459"
     inkscape:label="g2">
    <path
       style="display:inline"
       d="m 29.1,86.8 v 0 q -7.1,0 -11,-3.6 -3.9,-3.6 -3.9,-9.5 v 0 q 0,-5.4 4.1,-9.15 4.1,-3.75 12,-3.75 v 0 q 7.3,0 12.65,2.75 5.35,2.75 9.45,7.1 4.1,4.35 7.5,9.25 v 0 l -4.1,2.7 q -3.7,-5.1 -7.35,-8.95 -3.65,-3.85 -8,-6 Q 36.1,65.5 30.5,65.5 v 0 q -5.8,0 -8.55,2.35 -2.75,2.35 -2.75,5.95 v 0 q 0,4.2 2.7,6.15 2.7,1.95 6.9,1.95 v 0 q 2.7,0 4.95,-0.55 Q 36,80.8 38.2,79.8 v 0 l 1.7,4.8 q -2.6,1 -5.3,1.6 -2.7,0.6 -5.5,0.6 z"
       id="path450"
       inkscape:label="p2" />
    <path
       style="display:inline;fill:none;stroke:#000000;stroke-width:1px;stroke-linecap:butt;stroke-linejoin:miter;stroke-opacity:1"
       d="m 39.156038,82.101726 c -2.559475,0.870519 -5.086907,1.981239 -7.823193,2.132839 -3.656068,0.346073 -7.630959,0.02382 -10.710525,-2.159471 -1.994947,-1.389787 -3.307503,-3.602927 -3.721038,-5.984024 -0.524339,-2.865919 -0.09409,-6.035968 1.795561,-8.342771 1.97195,-2.740177 5.319724,-4.087889 8.589416,-4.419381 5.402628,-0.588506 11.078052,0.234292 15.808321,3.017688 4.134381,2.336077 7.55606,5.727729 10.466774,9.443934 1.484877,1.838423 2.884191,3.743963 4.305828,5.631338"
       id="path546"
       inkscape:label="s3" />
  </g>
    <path id="path282"
        style="fill:none;stroke:#000000;stroke-width:1px;stroke-linecap:butt;stroke-linejoin:miter;stroke-opacity:1"
        d="M 20.402344,52.742187 C 13.509054,46.718651 6.5650107,39.808143 4.0075992,30.738057 2.1013147,23.759339 1.857158,15.612353 5.9527987,9.340009 9.0376745,4.3522308 15.120771,2.0111308 20.814151,2.5368119 c 5.005714,0.1349283 9.692173,3.2315025 11.786942,7.7776711 3.054857,7.020665 1.771551,14.874089 1.925499,22.295973 0.263064,2.794444 -1.917122,4.175183 -3.683002,1.948265 -1.481368,-1.457049 -4.471639,-4.264548 -2.992851,-6.178717 2.844331,-0.148035 5.721157,-0.242191 8.574682,-0.472767 6.706522,-0.13687 13.42065,-0.02173 20.130716,-0.05958 1.68177,0.133681 3.809306,-0.03008 4.296388,-2.00309 C 60.879035,17.229739 60.893125,8.6148695 60.890625,0"
        sodipodi:nodetypes="ccccccsssscc" inkscape:label="s1" />
    <path style="fill:none;stroke:#000000;stroke-width:1px;stroke-linecap:butt;stroke-linejoin:miter;stroke-opacity:1"
        d="m 60.853258,25.810902 c -0.006,7.285683 0.09466,15.961937 0.113133,23.247362 0.05302,2.85202 0.552194,4.635708 2.934274,6.492517 2.1593,1.844632 5.106018,2.097685 7.825241,2.152834 0.487941,0.02588 0.975881,0.05175 1.463821,0.07763"
        id="path268" sodipodi:nodetypes="ccccc" inkscape:label="s2" />
</svg>