<svg xmlns="http://www.w3.org/2000/svg" xmlns:xlink="http://www.w3.org/1999/xlink" width="103.80000000000001" height="130.4"><path d="M27.20 80.30L23.50 83.90Q15 76.80 10 68.75Q5 60.70 5 50.60L5 50.60Q5 44.30 7.40 39.50Q9.80 34.70 14.15 32.00Q18.50 29.30 24.30 29.30L24.30 29.30Q28.80 29.30 31.90 30.70Q35 32.10 37.20 34.50L37.20 34.50Q39.80 37.20 41.05 41.30Q42.30 45.40 42.30 51.40L42.30 51.40L42.30 54.70L63.20 54.70L63.20 29.40L68.50 30.10L68.50 75.50Q68.50 78.80 69.05 80.40Q69.60 82.00 70.90 83.00L70.90 83.00Q72.10 84.10 73.90 84.35Q75.70 84.60 78.20 84.60L78.20 84.60L77.60 89.60L76.70 89.60Q70 89.60 66.80 86.60L66.80 86.60Q65 85.00 64.10 82.50Q63.20 80 63.20 75.80L63.20 75.80L63.20 59.60L42.30 59.60L42.30 62.70Q42.30 65.50 41.20 66.70Q40.10 67.90 38.40 67.90L38.40 67.90Q36.30 67.90 34.25 66.30Q32.20 64.70 30.80 62.45Q29.40 60.20 29.40 58.30L29.40 58.30Q29.40 56.80 30.50 55.75Q31.60 54.70 34.10 54.70L34.10 54.70L37 54.70L37 51.60Q37 42.80 34 38.60L34 38.60Q32.40 36.60 30.20 35.45Q28 34.30 24.30 34.30L24.30 34.30Q17.60 34.30 14 38.90Q10.40 43.50 10.40 50.70L10.40 50.70Q10.40 59.60 14.90 66.80Q19.40 74 27.20 80.30L27.20 80.30ZM102.80 89.60L101.80 89.60Q95.20 89.60 91.90 86.60L91.90 86.60Q90.10 85.00 89.25 82.50Q88.40 80 88.40 75.80L88.40 75.80L88.40 29.30L93.70 30.00L93.70 75.50Q93.70 78.80 94.20 80.40Q94.70 82.00 96 83.00L96 83.00Q97.20 84.10 99.05 84.35Q100.90 84.60 103.30 84.60L103.30 84.60L102.80 89.60ZM93.30 25.50L88.90 25.50Q87 17.70 85.15 13.15Q83.30 8.60 80.85 6.70Q78.40 4.80 74.60 4.80L74.60 4.80Q73.40 4.80 72.05 5Q70.70 5.20 69.20 5.70L69.20 5.70L67.70 1.10Q69.60 0.50 71.40 0.25Q73.20 0 74.90 0L74.90 0Q79.50 0 82.85 2.25Q86.20 4.50 88.70 10.05Q91.20 15.60 93.30 25.50L93.30 25.50ZM88 23.70L85.20 26.60Q79.10 21.20 74.90 18.85Q70.70 16.50 65.80 16.50L65.80 16.50Q62.30 16.50 59.40 17.40L59.40 17.40L57.90 12.70Q59.70 12.30 61.65 12Q63.60 11.70 65.80 11.70L65.80 11.70Q69.60 11.70 72.95 12.90Q76.30 14.10 79.85 16.75Q83.40 19.40 88 23.70L88 23.70Z"/></svg>