<?xml version="1.0" encoding="UTF-8" standalone="no"?>
<svg
   width="98.300003"
   height="89.599998"
   version="1.1"
   id="svg4925"
   sodipodi:docname="9_bhau.svg"
   inkscape:version="1.2.1 (9c6d41e410, 2022-07-14)"
   xmlns:inkscape="http://www.inkscape.org/namespaces/inkscape"
   xmlns:sodipodi="http://sodipodi.sourceforge.net/DTD/sodipodi-0.dtd"
   xmlns="http://www.w3.org/2000/svg"
   xmlns:svg="http://www.w3.org/2000/svg">
  <defs
     id="defs4929" />
  <sodipodi:namedview
     id="namedview4927"
     pagecolor="#ffffff"
     bordercolor="#666666"
     borderopacity="1.0"
     inkscape:showpageshadow="2"
     inkscape:pageopacity="0.0"
     inkscape:pagecheckerboard="0"
     inkscape:deskcolor="#d1d1d1"
     showgrid="false"
     inkscape:zoom="1.809816"
     inkscape:cx="47.242371"
     inkscape:cy="65.199997"
     inkscape:window-width="1920"
     inkscape:window-height="1027"
     inkscape:window-x="-8"
     inkscape:window-y="-8"
     inkscape:window-maximized="1"
     inkscape:current-layer="svg4925" />
  <g
     id="g3561"
     inkscape:label="g1"
     transform="matrix(0.99977858,0,0,1,0,29.300145)">
    <path
       d="m 22.204917,51 -3.70082,3.6 Q 10.002215,47.5 5.0011073,39.45 0,31.4 0,21.3 v 0 Q 0,15 2.4005315,10.2 4.8010631,5.4 9.1520264,2.7 13.50299,0 19.304274,0 v 0 q 4.500997,0 7.601684,1.4 3.100686,1.4 5.301173,3.8 v 0 q 2.600576,2.7 3.850853,6.8 1.250277,4.1 1.250277,10.1 v 0 3.3 H 58.212889 V 0.1 l 5.301174,0.7 v 45.4 q 0,3.3 0.550122,4.9 0.550122,1.6 1.85041,2.6 v 0 q 1.200266,1.1 3.000664,1.35 1.800399,0.25 4.300953,0.25 v 0 l -0.600133,5 h -0.9002 q -6.701484,0 -9.902192,-3 v 0 q -1.800399,-1.6 -2.700598,-4.1 -0.9002,-2.5 -0.9002,-6.7 v 0 -16.2 H 37.308261 v 3.1 q 0,2.8 -1.100244,4 -1.100243,1.2 -2.80062,1.2 v 0 Q 31.306932,38.6 29.256478,37 27.206024,35.4 25.805714,33.15 24.405404,30.9 24.405404,29 v 0 q 0,-1.5 1.100243,-2.55 1.100244,-1.05 3.600798,-1.05 v 0 h 2.900642 v -3.1 q 0,-8.8 -3.000664,-13 v 0 Q 27.406068,7.3 25.205581,6.15 23.005094,5 19.304274,5 V 5 Q 12.602791,5 9.0019932,9.6 5.4011959,14.2 5.4011959,21.4 v 0 q 0,8.9 4.5009966,16.1 4.5009965,7.2 12.3027245,13.5 z"
       id="path2"
       inkscape:label="p1"
       style="stroke-width:1.00011" />
    <path
       id="path282-2"
       style="fill:none;stroke:#000000;stroke-width:1px;stroke-linecap:butt;stroke-linejoin:miter;stroke-opacity:1"
       d="M 20.402344,52.742187 C 13.509054,46.718651 6.5650107,39.808143 4.0075992,30.738057 2.1013147,23.759339 1.857158,15.612353 5.9527987,9.340009 9.0376745,4.3522308 15.120771,2.0111308 20.814151,2.5368119 c 5.005714,0.1349283 9.692173,3.2315025 11.786942,7.7776711 3.054857,7.020665 1.771551,14.874089 1.925499,22.295973 0.263064,2.794444 -1.917122,4.175183 -3.683002,1.948265 -1.481368,-1.457049 -4.471639,-4.264548 -2.992851,-6.178717 2.844331,-0.148035 5.721157,-0.242191 8.574682,-0.472767 6.706522,-0.13687 13.42065,-0.02173 20.130716,-0.05958 1.68177,0.133681 3.809306,-0.03008 4.296388,-2.00309 C 60.879035,17.229739 60.893125,8.6148695 60.890625,0"
       sodipodi:nodetypes="ccccccsssscc"
       inkscape:label="s1" />
    <path
       style="fill:none;stroke:#000000;stroke-width:1px;stroke-linecap:butt;stroke-linejoin:miter;stroke-opacity:1"
       d="m 60.853258,25.810902 c -0.006,7.285683 0.09466,15.961937 0.113133,23.247362 0.05302,2.85202 0.552194,4.635708 2.934274,6.492517 2.1593,1.844632 5.106018,2.097685 7.825241,2.152834 0.487941,0.02588 0.975881,0.05175 1.463821,0.07763"
       id="path268-7"
       sodipodi:nodetypes="ccccc"
       inkscape:label="s2" />
  </g>
  <g
     id="g605"
     inkscape:label="g2"
     transform="translate(27.1)">
    <path
       style="display:inline"
       d="m 70.7,89.6 h -1 q -6.6,0 -9.9,-3 v 0 Q 58,85 57.15,82.5 56.3,80 56.3,75.8 v 0 -46.5 l 5.3,0.7 v 45.5 q 0,3.3 0.5,4.9 0.5,1.6 1.8,2.6 v 0 q 1.2,1.1 3.05,1.35 1.85,0.25 4.25,0.25 v 0 z"
       id="path592"
       inkscape:label="p2" />
    <path
       style="display:inline;fill:none;stroke:#000000;stroke-width:1px;stroke-linecap:butt;stroke-linejoin:miter;stroke-opacity:1"
       d="m 58.945814,29.339077 c 0.0052,15.660703 -0.0419,31.322813 -0.004,46.982637 0.07316,2.661925 0.300705,5.531206 2.06529,7.674603 1.94562,2.285428 5.076188,2.956219 7.950186,3.001875 0.734456,0.05113 1.468913,0.102253 2.203369,0.15338"
       id="path81"
       inkscape:label="s3" />
  </g>
  <g
     id="g609"
     inkscape:label="g3"
     transform="translate(27.1)">
    <path
       style="display:inline"
       d="m 55.9,23.7 -2.8,2.9 Q 47,21.2 42.8,18.85 38.6,16.5 33.7,16.5 v 0 q -3.5,0 -6.4,0.9 v 0 l -1.5,-4.7 q 1.8,-0.4 3.75,-0.7 1.95,-0.3 4.15,-0.3 v 0 q 3.8,0 7.15,1.2 3.35,1.2 6.9,3.85 3.55,2.65 8.15,6.95 z"
       id="path596"
       inkscape:label="p3" />
    <path
       style="display:inline;fill:none;stroke:#000000;stroke-width:1px;stroke-linecap:butt;stroke-linejoin:miter;stroke-opacity:1"
       d="m 26.306582,15.114407 c 2.688785,-0.568456 5.416241,-1.1935 8.183739,-0.988483 1.810938,0.02306 3.595689,0.410136 5.328375,0.908621 1.446215,0.495326 2.860202,1.115629 4.178036,1.890495 3.847011,2.308963 7.136989,5.387765 10.538424,8.281996"
       id="path905"
       inkscape:label="s4" />
  </g>
  <g
     id="g613"
     inkscape:label="g4"
     transform="matrix(1,0,0,0.99069355,27.1,0)">
    <path
       style="display:inline"
       d="M 61.2,25.5 H 56.8 Q 54.9,17.7 53.05,13.15 51.2,8.6 48.75,6.7 46.3,4.8 42.5,4.8 v 0 Q 41.3,4.8 39.95,5 38.6,5.2 37.1,5.7 v 0 L 35.6,1.1 Q 37.5,0.5 39.3,0.25 41.1,0 42.8,0 v 0 q 4.6,0 7.95,2.25 3.35,2.25 5.85,7.8 2.5,5.55 4.6,15.45 z"
       id="path594"
       inkscape:label="p4" />
    <path
       style="display:inline;fill:none;stroke:#000000;stroke-width:1px;stroke-linecap:butt;stroke-linejoin:miter;stroke-opacity:1"
       d="m 36.195028,3.4913397 2.773185,-0.7181553 0.82864,-0.1767767 0.806544,-0.099437 1.138,-0.088388 h 0.905981 l 1.027514,0.033146 0.983321,0.121534 0.872835,0.1325825 1.237436,0.2872621 1.071709,0.4198447 1.347922,0.6960582 1.016466,0.6960583 0.696059,0.5966213 0.82864,0.9612233 0.950175,1.2042912 0.839689,1.3368738 0.806544,1.6130879 0.651864,1.425262 0.662913,1.635184 0.53033,1.679379 0.50108,1.557697 0.367187,1.382813 0.5,1.734375 0.453125,1.757812 1.007035,3.936361"
       id="path970"
       inkscape:label="s5" />
  </g>
</svg>
