<?xml version="1.0" encoding="UTF-8" standalone="no"?>
<svg
   width="53.400002"
   height="64.199997"
   version="1.1"
   id="svg4"
   sodipodi:docname="0_dh.svg"
   inkscape:version="1.2.1 (9c6d41e410, 2022-07-14)"
   xmlns:inkscape="http://www.inkscape.org/namespaces/inkscape"
   xmlns:sodipodi="http://sodipodi.sourceforge.net/DTD/sodipodi-0.dtd"
   xmlns="http://www.w3.org/2000/svg"
   xmlns:svg="http://www.w3.org/2000/svg">
  <defs
     id="defs8" />
  <sodipodi:namedview
     id="namedview6"
     pagecolor="#ffffff"
     bordercolor="#666666"
     borderopacity="1.0"
     inkscape:showpageshadow="2"
     inkscape:pageopacity="0.0"
     inkscape:pagecheckerboard="0"
     inkscape:deskcolor="#d1d1d1"
     showgrid="false"
     inkscape:zoom="8"
     inkscape:cx="55.6875"
     inkscape:cy="34.75"
     inkscape:window-width="1920"
     inkscape:window-height="1027"
     inkscape:window-x="-8"
     inkscape:window-y="-8"
     inkscape:window-maximized="1"
     inkscape:current-layer="svg4" />
  <path
     d="m 22,53 v 0 Q 13.7,53 8.8,48.8 3.9,44.6 3.9,38.1 v 0 q 0,-5.7 3.5,-9.5 v 0 Q 4.2,26.3 2.1,23.2 0,20.1 0,15.9 v 0 Q 0,10.3 4.05,6.35 8.1,2.4 15.7,0 v 0 l 1.9,4.8 Q 11,6.7 8.2,9.65 5.4,12.6 5.4,16.3 v 0 q 0,5.7 5.9,9.4 v 0 q 3.9,-2.1 9.2,-2.1 v 0 q 1.4,0 2.95,0.2 1.55,0.2 2.85,0.4 v 0 l -0.8,4.9 Q 24.4,28.9 23.1,28.75 21.8,28.6 20.4,28.6 v 0 q -4.9,0 -8,2.45 -3.1,2.45 -3.1,6.85 v 0 q 0,4.8 3.35,7.5 3.35,2.7 9.35,2.7 v 0 q 4.7,0 8.6,-1.55 3.9,-1.55 7.8,-4.95 v 0 -37.7 l 5.3,0.8 v 45.4 q 0,3.2 0.55,4.85 0.55,1.65 1.65,2.55 v 0 q 1.2,1.2 3.2,1.45 2,0.25 4.3,0.25 v 0 l -0.6,5 h -0.9 q -6.8,0 -10,-3 v 0 q -1.7,-1.6 -2.6,-4.1 -0.9,-2.5 -0.9,-6.7 v 0 -2.6 Q 35,50.2 31.1,51.6 27.2,53 22,53 Z"
     id="path2"
     inkscape:label="p1" />
  <path
     style="fill:none;stroke:#000000;stroke-width:1px;stroke-linecap:butt;stroke-linejoin:miter;stroke-opacity:1"
     d="M 16.679872,2.4778071 C 12.709051,3.8706131 8.4966504,5.3712771 5.5923956,8.5660461 3.5160999,10.84356 2.4992865,13.971602 2.7306219,17.035431 c 0.1712762,3.887746 2.7956035,7.145171 5.7470975,9.442054 0.8683875,0.687119 1.7591896,1.795177 2.9934406,1.622776 1.576718,-0.324274 2.948598,-1.240491 4.52643,-1.56396 1.684299,-0.377216 3.426981,-0.461627 5.14804,-0.471485 1.616819,0.09142 3.208323,0.352962 4.803589,0.618782"
     id="path280"
     inkscape:label="s1" />
  <path
     style="fill:none;stroke:#000000;stroke-width:1px;stroke-linecap:butt;stroke-linejoin:miter;stroke-opacity:1"
     d="m 10.886049,28.933871 c -4.6148122,3.438775 -5.5372158,10.445447 -2.6655489,15.275951 2.7290249,4.575112 8.3506949,6.35428 13.4195799,6.34828 5.441927,0.186504 10.836678,-1.568451 15.287547,-4.66689 1.379942,-1.218195 3.485051,-1.887373 4.086696,-3.783741 0.06509,-12.788333 0.0243,-25.576867 0.04818,-38.3652835"
     id="path399"
     sodipodi:nodetypes="cccccc"
     inkscape:label="s2" />
  <path
     style="fill:none;stroke:#000000;stroke-width:1px;stroke-linecap:butt;stroke-linejoin:miter;stroke-opacity:1"
     d="m 41.039,43.186 c 0.04667,2.528133 -0.086,7.245812 0.134776,9.767486 0.172765,2.154761 0.821655,4.357589 2.311879,5.978388 1.086193,1.213106 2.654261,1.895287 4.210058,2.276075 1.872667,0.383815 3.803053,0.345932 5.701898,0.50369"
     id="path395"
     sodipodi:nodetypes="ccccc"
     inkscape:label="s3" />
</svg>
