<svg xmlns="http://www.w3.org/2000/svg" xmlns:xlink="http://www.w3.org/1999/xlink" width="58.800000000000004"
    height="130.4">
    <path
        d="M26.90 78.40L26.90 78.40Q18.60 78.40 13.70 74.20Q8.80 70 8.80 63.50L8.80 63.50Q8.80 57.80 12.30 54.00L12.30 54.00Q9.10 51.70 7 48.60Q4.90 45.50 4.90 41.30L4.90 41.30Q4.90 35.70 8.95 31.75Q13 27.80 20.60 25.40L20.60 25.40L22.50 30.20Q15.90 32.10 13.10 35.05Q10.30 38.00 10.30 41.70L10.30 41.70Q10.30 47.40 16.20 51.10L16.20 51.10Q20.10 49.00 25.40 49.00L25.40 49.00Q26.80 49.00 28.35 49.20Q29.90 49.40 31.20 49.60L31.20 49.60L30.40 54.50Q29.30 54.30 28 54.15Q26.70 54.00 25.30 54.00L25.30 54.00Q20.40 54.00 17.30 56.45Q14.20 58.90 14.20 63.30L14.20 63.30Q14.20 68.10 17.55 70.80Q20.90 73.50 26.90 73.50L26.90 73.50Q31.60 73.50 35.50 71.95Q39.40 70.40 43.30 67L43.30 67L43.30 29.30L48.60 30.10L48.60 75.50Q48.60 78.70 49.15 80.35Q49.70 82.00 50.80 82.90L50.80 82.90Q52 84.10 54 84.35Q56 84.60 58.30 84.60L58.30 84.60L57.70 89.60L56.80 89.60Q50 89.60 46.80 86.60L46.80 86.60Q45.10 85.00 44.20 82.50Q43.30 80 43.30 75.80L43.30 75.80L43.30 73.20Q39.90 75.60 36 77Q32.10 78.40 26.90 78.40ZM46.10 19.10L46.10 19.10Q44.30 19.10 43.05 17.80Q41.80 16.50 41.80 14.20L41.80 14.20Q41.80 12 43 10.70Q44.20 9.40 46.10 9.40L46.10 9.40Q48 9.40 49.20 10.70Q50.40 12 50.40 14.20L50.40 14.20Q50.40 16.60 49.15 17.85Q47.90 19.10 46.10 19.10Z" />
      <g
     id="g653"
     inkscape:label="g2">
    <path
       style="display:inline"
       d="m 33.9,9.7 v 0 Q 32.1,9.7 30.85,8.4 29.6,7.1 29.6,4.8 v 0 Q 29.6,2.6 30.8,1.3 32,0 33.9,0 v 0 q 1.9,0 3.1,1.3 1.2,1.3 1.2,3.5 v 0 q 0,2.4 -1.25,3.65 Q 35.7,9.7 33.9,9.7 Z"
       id="path644"
       inkscape:label="p2" />
    <path
       d="m 33.9375,1.3352194 c -0.820403,0 -1.515467,0.3118012 -2.085191,0.9354043 -0.569724,0.6236031 -0.854587,1.7074649 -0.854587,2.5903504 0,1.0553281 0.273468,1.8947931 0.820403,2.5183962 0.546936,0.6236031 1.347168,0.9354042 2.119375,0.9354042 0.865981,0 1.572439,-0.3118011 2.119375,-0.9354042 0.546935,-0.6236031 0.820403,-1.5977735 0.820403,-2.5183962 0,-1.1512668 -0.284863,-2.0267096 -0.854587,-2.6263275 C 35.452967,1.6350287 34.757903,1.3352194 33.9375,1.3352194 Z"
       style="display:inline;stroke-width:0.701376"
       id="path950"
       sodipodi:nodetypes="sssssssss"
       inkscape:label="s3" />
  </g>
    <path style="fill:none;stroke:#000000;stroke-width:1px;stroke-linecap:butt;stroke-linejoin:miter;stroke-opacity:1"
        d="M 16.679872,2.4778071 C 12.709051,3.8706131 8.4966504,5.3712771 5.5923956,8.5660461 3.5160999,10.84356 2.4992865,13.971602 2.7306219,17.035431 c 0.1712762,3.887746 2.7956035,7.145171 5.7470975,9.442054 0.8683875,0.687119 1.7591896,1.795177 2.9934406,1.622776 1.576718,-0.324274 2.948598,-1.240491 4.52643,-1.56396 1.684299,-0.377216 3.426981,-0.461627 5.14804,-0.471485 1.616819,0.09142 3.208323,0.352962 4.803589,0.618782"
        id="path280" inkscape:label="s1" />
    <path style="fill:none;stroke:#000000;stroke-width:1px;stroke-linecap:butt;stroke-linejoin:miter;stroke-opacity:1"
        d="m 10.886049,28.933871 c -4.6148122,3.438775 -5.5372158,10.445447 -2.6655489,15.275951 2.7290249,4.575112 8.3506949,6.35428 13.4195799,6.34828 5.441927,0.186504 10.836678,-1.568451 15.287547,-4.66689 1.379942,-1.218195 3.485051,-1.887373 4.086696,-3.783741 0.06509,-12.788333 0.0243,-25.576867 0.04818,-38.3652835"
        id="path399" sodipodi:nodetypes="cccccc" inkscape:label="s2" />
    <path style="fill:none;stroke:#000000;stroke-width:1px;stroke-linecap:butt;stroke-linejoin:miter;stroke-opacity:1"
        d="m 41.039,43.186 c 0.04667,2.528133 -0.086,7.245812 0.134776,9.767486 0.172765,2.154761 0.821655,4.357589 2.311879,5.978388 1.086193,1.213106 2.654261,1.895287 4.210058,2.276075 1.872667,0.383815 3.803053,0.345932 5.701898,0.50369"
        id="path395" sodipodi:nodetypes="ccccc" inkscape:label="s3" />
</svg>