<svg xmlns="http://www.w3.org/2000/svg" xmlns:xlink="http://www.w3.org/1999/xlink" width="81.2" height="130.4"><path d="M26.90 78.40L26.90 78.40Q18.60 78.40 13.70 74.20Q8.80 70 8.80 63.50L8.80 63.50Q8.80 57.80 12.30 54.00L12.30 54.00Q9.10 51.70 7 48.60Q4.90 45.50 4.90 41.30L4.90 41.30Q4.90 35.70 8.95 31.75Q13 27.80 20.60 25.40L20.60 25.40L22.50 30.20Q15.90 32.10 13.10 35.05Q10.30 38.00 10.30 41.70L10.30 41.70Q10.30 47.40 16.20 51.10L16.20 51.10Q20.10 49.00 25.40 49.00L25.40 49.00Q26.80 49.00 28.35 49.20Q29.90 49.40 31.20 49.60L31.20 49.60L30.40 54.50Q29.30 54.30 28 54.15Q26.70 54.00 25.30 54.00L25.30 54.00Q20.40 54.00 17.30 56.45Q14.20 58.90 14.20 63.30L14.20 63.30Q14.20 68.10 17.55 70.80Q20.90 73.50 26.90 73.50L26.90 73.50Q31.60 73.50 35.50 71.95Q39.40 70.40 43.30 67L43.30 67L43.30 29.30L48.60 30.10L48.60 75.50Q48.60 78.70 49.15 80.35Q49.70 82.00 50.80 82.90L50.80 82.90Q52 84.10 54 84.35Q56 84.60 58.30 84.60L58.30 84.60L57.70 89.60L56.80 89.60Q50 89.60 46.80 86.60L46.80 86.60Q45.10 85.00 44.20 82.50Q43.30 80 43.30 75.80L43.30 75.80L43.30 73.20Q39.90 75.60 36 77Q32.10 78.40 26.90 78.40ZM70 51.30L70 51.30Q68.20 51.30 66.80 49.95Q65.40 48.60 65.40 46.20L65.40 46.20Q65.40 43.80 66.75 42.45Q68.10 41.10 70 41.10L70 41.10Q72 41.10 73.30 42.45Q74.60 43.80 74.60 46.20L74.60 46.20Q74.60 48.70 73.25 50.00Q71.90 51.30 70 51.30ZM70 84.60L70 84.60Q68.20 84.60 66.80 83.25Q65.40 81.90 65.40 79.50L65.40 79.50Q65.40 77.10 66.75 75.75Q68.10 74.40 70 74.40L70 74.40Q72 74.40 73.30 75.75Q74.60 77.10 74.60 79.50L74.60 79.50Q74.60 82.00 73.25 83.30Q71.90 84.60 70 84.60Z"/></svg>