<svg xmlns="http://www.w3.org/2000/svg" xmlns:xlink="http://www.w3.org/1999/xlink" width="83.9" height="130.4"><path d="M24 89.60L23.10 89.60Q20 89.60 17.50 88.95Q15 88.30 13.20 86.60L13.20 86.60Q11.30 84.90 10.50 82.40Q9.70 79.90 9.70 75.80L9.70 75.80L9.70 22.40Q9.70 15.80 11.05 11.70Q12.40 7.60 15.80 4.70L15.80 4.70Q18 2.80 21.15 1.70Q24.30 0.60 28.40 0.60L28.40 0.60Q37.50 0.60 44.75 5.85Q52 11.10 59.30 19.60L59.30 19.60L55.40 22.70Q49 15.10 42.65 10.30Q36.30 5.50 28.70 5.50L28.70 5.50Q22.80 5.50 19.40 8.40L19.40 8.40Q17 10.50 16 14Q15 17.50 15 24.10L15 24.10L15 75.50Q15 78.70 15.50 80.35Q16 82.00 17.20 82.90L17.20 82.90Q18.40 84.10 20.35 84.35Q22.30 84.60 24.60 84.60L24.60 84.60L24 89.60ZM52 78.40L52 78.40Q43.70 78.40 38.80 74.20Q33.90 70 33.90 63.50L33.90 63.50Q33.90 57.80 37.40 54.00L37.40 54.00Q34.20 51.70 32.10 48.60Q30 45.50 30 41.30L30 41.30Q30 35.70 34.05 31.75Q38.10 27.80 45.70 25.40L45.70 25.40L47.60 30.20Q41 32.10 38.20 35.05Q35.40 38.00 35.40 41.70L35.40 41.70Q35.40 47.40 41.30 51.10L41.30 51.10Q45.20 49.00 50.50 49.00L50.50 49.00Q51.90 49.00 53.45 49.20Q55 49.40 56.30 49.60L56.30 49.60L55.50 54.50Q54.40 54.30 53.10 54.15Q51.80 54.00 50.40 54.00L50.40 54.00Q45.50 54.00 42.40 56.45Q39.30 58.90 39.30 63.30L39.30 63.30Q39.30 68.10 42.65 70.80Q46 73.50 52 73.50L52 73.50Q56.70 73.50 60.60 71.95Q64.50 70.40 68.40 67L68.40 67L68.40 29.30L73.70 30.10L73.70 75.50Q73.70 78.70 74.25 80.35Q74.80 82.00 75.90 82.90L75.90 82.90Q77.10 84.10 79.10 84.35Q81.10 84.60 83.40 84.60L83.40 84.60L82.80 89.60L81.90 89.60Q75.10 89.60 71.90 86.60L71.90 86.60Q70.20 85.00 69.30 82.50Q68.40 80 68.40 75.80L68.40 75.80L68.40 73.20Q65 75.60 61.10 77Q57.20 78.40 52 78.40Z"/></svg>