<svg xmlns="http://www.w3.org/2000/svg" xmlns:xlink="http://www.w3.org/1999/xlink" width="83.9" height="130.4">
    <path
        d="M26.90 78.40L26.90 78.40Q18.60 78.40 13.70 74.20Q8.80 70 8.80 63.50L8.80 63.50Q8.80 57.80 12.30 54.00L12.30 54.00Q9.10 51.70 7 48.60Q4.90 45.50 4.90 41.30L4.90 41.30Q4.90 35.70 8.95 31.75Q13 27.80 20.60 25.40L20.60 25.40L22.50 30.20Q15.90 32.10 13.10 35.05Q10.30 38.00 10.30 41.70L10.30 41.70Q10.30 47.40 16.20 51.10L16.20 51.10Q20.10 49.00 25.40 49.00L25.40 49.00Q26.80 49.00 28.35 49.20Q29.90 49.40 31.20 49.60L31.20 49.60L30.40 54.50Q29.30 54.30 28 54.15Q26.70 54.00 25.30 54.00L25.30 54.00Q20.40 54.00 17.30 56.45Q14.20 58.90 14.20 63.30L14.20 63.30Q14.20 68.10 17.55 70.80Q20.90 73.50 26.90 73.50L26.90 73.50Q31.60 73.50 35.50 71.95Q39.40 70.40 43.30 67L43.30 67L43.30 29.30L48.60 30.10L48.60 75.50Q48.60 78.70 49.15 80.35Q49.70 82.00 50.80 82.90L50.80 82.90Q52 84.10 54 84.35Q56 84.60 58.30 84.60L58.30 84.60L57.70 89.60L56.80 89.60Q50 89.60 46.80 86.60L46.80 86.60Q45.10 85.00 44.20 82.50Q43.30 80 43.30 75.80L43.30 75.80L43.30 73.20Q39.90 75.60 36 77Q32.10 78.40 26.90 78.40ZM82.90 89.60L81.90 89.60Q78.90 89.60 76.35 88.95Q73.80 88.30 72 86.60L72 86.60Q68.50 83.30 68.50 75.80L68.50 75.80L68.50 29.10Q67.10 17.70 63.60 11.60Q60.10 5.50 54.60 5.50L54.60 5.50Q51 5.50 49 8.10Q47 10.70 47 15.80L47 15.80Q47 19.70 47.60 22.80L47.60 22.80L42.50 22.80Q42.20 21.30 41.95 19.20Q41.70 17.10 41.70 15.20L41.70 15.20Q41.70 8.60 45.05 4.60Q48.40 0.60 54.60 0.60L54.60 0.60Q60.50 0.60 64.50 4.55Q68.50 8.50 70.75 14.95Q73 21.40 73.80 28.80L73.80 28.80L73.80 75.50Q73.80 78.80 74.30 80.35Q74.80 81.90 76 82.90L76 82.90Q77.20 84.10 79.20 84.35Q81.20 84.60 83.40 84.60L83.40 84.60L82.90 89.60Z" />
      <g
     id="g399"
     inkscape:label="g2">
    <path
       style="display:inline"
       d="m 70.7,89 h -1 q -3,0 -5.55,-0.65 Q 61.6,87.7 59.8,86 v 0 Q 56.3,82.7 56.3,75.2 v 0 -46.7 Q 54.9,17.1 51.4,11 47.9,4.9 42.4,4.9 v 0 q -3.6,0 -5.6,2.6 -2,2.6 -2,7.7 v 0 q 0,3.9 0.6,7 v 0 H 30.3 Q 30,20.7 29.75,18.6 29.5,16.5 29.5,14.6 v 0 Q 29.5,8 32.85,4 36.2,0 42.4,0 v 0 q 5.9,0 9.9,3.95 4,3.95 6.25,10.4 2.25,6.45 3.05,13.85 v 0 46.7 q 0,3.3 0.5,4.85 0.5,1.55 1.7,2.55 v 0 Q 65,83.5 67,83.75 69,84 71.2,84 v 0 z"
       id="path330"
       inkscape:label="p2" />
    <path
       style="display:inline;fill:none;stroke:#000000;stroke-width:1px;stroke-linecap:butt;stroke-linejoin:miter;stroke-opacity:1"
       d="M 32.90625,22.296875 C 32.189196,17.24716 31.309374,11.67002 33.948338,7.0048776 36.015851,3.1824285 40.814237,1.7827514 44.871275,2.7018315 c 5.299598,1.0610536 8.634255,5.9944562 10.53375,10.6924095 1.94946,4.911209 3.041647,10.154719 3.53254,15.40287 0.03373,16.081561 -0.05668,32.165472 0.05492,48.245568 0.09206,3.485135 1.641413,7.400064 5.196702,8.60873 2.224083,0.864628 4.672997,0.637872 7.006103,0.85642"
       id="path80"
       inkscape:label="s3" />
  </g>
    <path style="fill:none;stroke:#000000;stroke-width:1px;stroke-linecap:butt;stroke-linejoin:miter;stroke-opacity:1"
        d="M 16.679872,2.4778071 C 12.709051,3.8706131 8.4966504,5.3712771 5.5923956,8.5660461 3.5160999,10.84356 2.4992865,13.971602 2.7306219,17.035431 c 0.1712762,3.887746 2.7956035,7.145171 5.7470975,9.442054 0.8683875,0.687119 1.7591896,1.795177 2.9934406,1.622776 1.576718,-0.324274 2.948598,-1.240491 4.52643,-1.56396 1.684299,-0.377216 3.426981,-0.461627 5.14804,-0.471485 1.616819,0.09142 3.208323,0.352962 4.803589,0.618782"
        id="path280" inkscape:label="s1" />
    <path style="fill:none;stroke:#000000;stroke-width:1px;stroke-linecap:butt;stroke-linejoin:miter;stroke-opacity:1"
        d="m 10.886049,28.933871 c -4.6148122,3.438775 -5.5372158,10.445447 -2.6655489,15.275951 2.7290249,4.575112 8.3506949,6.35428 13.4195799,6.34828 5.441927,0.186504 10.836678,-1.568451 15.287547,-4.66689 1.379942,-1.218195 3.485051,-1.887373 4.086696,-3.783741 0.06509,-12.788333 0.0243,-25.576867 0.04818,-38.3652835"
        id="path399" sodipodi:nodetypes="cccccc" inkscape:label="s2" />
    <path style="fill:none;stroke:#000000;stroke-width:1px;stroke-linecap:butt;stroke-linejoin:miter;stroke-opacity:1"
        d="m 41.039,43.186 c 0.04667,2.528133 -0.086,7.245812 0.134776,9.767486 0.172765,2.154761 0.821655,4.357589 2.311879,5.978388 1.086193,1.213106 2.654261,1.895287 4.210058,2.276075 1.872667,0.383815 3.803053,0.345932 5.701898,0.50369"
        id="path395" sodipodi:nodetypes="ccccc" inkscape:label="s3" />
</svg>