<svg xmlns="http://www.w3.org/2000/svg" xmlns:xlink="http://www.w3.org/1999/xlink" width="58.800000000000004" height="130.4"><path d="M26.90 78.40L26.90 78.40Q18.60 78.40 13.70 74.20Q8.80 70 8.80 63.50L8.80 63.50Q8.80 57.80 12.30 54.00L12.30 54.00Q9.10 51.70 7 48.60Q4.90 45.50 4.90 41.30L4.90 41.30Q4.90 35.70 8.95 31.75Q13 27.80 20.60 25.40L20.60 25.40L22.50 30.20Q15.90 32.10 13.10 35.05Q10.30 38.00 10.30 41.70L10.30 41.70Q10.30 47.40 16.20 51.10L16.20 51.10Q20.10 49.00 25.40 49.00L25.40 49.00Q26.80 49.00 28.35 49.20Q29.90 49.40 31.20 49.60L31.20 49.60L30.40 54.50Q29.30 54.30 28 54.15Q26.70 54.00 25.30 54.00L25.30 54.00Q20.40 54.00 17.30 56.45Q14.20 58.90 14.20 63.30L14.20 63.30Q14.20 68.10 17.55 70.80Q20.90 73.50 26.90 73.50L26.90 73.50Q31.60 73.50 35.50 71.95Q39.40 70.40 43.30 67L43.30 67L43.30 29.30L48.60 30.10L48.60 75.50Q48.60 78.70 49.15 80.35Q49.70 82.00 50.80 82.90L50.80 82.90Q52 84.10 54 84.35Q56 84.60 58.30 84.60L58.30 84.60L57.70 89.60L56.80 89.60Q50 89.60 46.80 86.60L46.80 86.60Q45.10 85.00 44.20 82.50Q43.30 80 43.30 75.80L43.30 75.80L43.30 73.20Q39.90 75.60 36 77Q32.10 78.40 26.90 78.40ZM43.10 116.30L43.10 116.30Q36.50 116.30 31.35 114.05Q26.20 111.80 22.05 108.00Q17.90 104.20 14.40 99.40L14.40 99.40L18.60 96.50Q23.70 103.20 29.30 107.30Q34.90 111.40 43.10 111.40L43.10 111.40Q48.80 111.40 51.80 109.20Q54.80 107.00 54.80 102.70L54.80 102.70Q54.80 98.80 52.20 96.80Q49.60 94.80 45.20 94.80L45.20 94.80Q42.70 94.80 40.50 95.35Q38.30 95.90 36.10 96.80L36.10 96.80L34.30 92.30Q36.90 91.20 39.50 90.65Q42.10 90.10 44.90 90.10L44.90 90.10Q52 90.10 55.90 93.65Q59.80 97.20 59.80 103.10L59.80 103.10Q59.80 109.30 55.35 112.80Q50.90 116.30 43.10 116.30Z"/></svg>