<?xml version="1.0" encoding="UTF-8" standalone="no"?>
<svg
   width="54.900002"
   height="90.900002"
   version="1.1"
   id="svg643"
   sodipodi:docname="4_dhu.svg"
   inkscape:version="1.2.1 (9c6d41e410, 2022-07-14)"
   xmlns:inkscape="http://www.inkscape.org/namespaces/inkscape"
   xmlns:sodipodi="http://sodipodi.sourceforge.net/DTD/sodipodi-0.dtd"
   xmlns="http://www.w3.org/2000/svg"
   xmlns:svg="http://www.w3.org/2000/svg">
  <defs
     id="defs647" />
  <sodipodi:namedview
     id="namedview645"
     pagecolor="#ffffff"
     bordercolor="#666666"
     borderopacity="1.0"
     inkscape:showpageshadow="2"
     inkscape:pageopacity="0.0"
     inkscape:pagecheckerboard="0"
     inkscape:deskcolor="#d1d1d1"
     showgrid="false"
     inkscape:zoom="1.809816"
     inkscape:cx="24.588134"
     inkscape:cy="39.783049"
     inkscape:window-width="1920"
     inkscape:window-height="1027"
     inkscape:window-x="-8"
     inkscape:window-y="-8"
     inkscape:window-maximized="1"
     inkscape:current-layer="svg643" />
  <g
     id="g13"
     inkscape:label="g1"
     transform="scale(0.99926976,1)">
    <path
       d="m 22.016077,53 v 0 Q 13.710012,53 8.8064308,48.8 3.90285,44.6 3.90285,38.1 v 0 q 0,-5.7 3.5025577,-9.5 v 0 Q 4.2030692,26.3 2.1015346,23.2 0,20.1 0,15.9 v 0 Q 0,10.3 4.0529596,6.35 8.1059193,2.4 15.711473,0 v 0 l 1.901389,4.8 Q 11.008039,6.7 8.2059923,9.65 5.4039462,12.6 5.4039462,16.3 v 0 q 0,5.7 5.9043118,9.4 v 0 q 3.90285,-2.1 9.206723,-2.1 v 0 q 1.401023,0 2.952156,0.2 1.551132,0.2 2.852082,0.4 v 0 l -0.800584,4.9 Q 24.417831,28.9 23.116881,28.75 21.815931,28.6 20.414908,28.6 v 0 q -4.903581,0 -8.005846,2.45 -3.1022658,2.45 -3.1022658,6.85 v 0 q 0,4.8 3.3524478,7.5 3.352448,2.7 9.356833,2.7 v 0 q 4.703435,0 8.606285,-1.55 3.90285,-1.55 7.8057,-4.95 v 0 -37.7 l 5.303873,0.8 v 45.4 q 0,3.2 0.550402,4.85 0.550402,1.65 1.651206,2.55 v 0 q 1.200876,1.2 3.202338,1.45 2.001462,0.25 4.303142,0.25 v 0 l -0.600438,5 h -0.900658 q -6.804969,0 -10.007308,-3 v 0 q -1.701242,-1.6 -2.6019,-4.1 -0.900657,-2.5 -0.900657,-6.7 v 0 -2.6 q -3.402485,2.4 -7.305335,3.8 -3.90285,1.4 -9.10665,1.4 z"
       id="path2"
       inkscape:label="p1"
       style="stroke-width:1.00037" />
    <path
       style="fill:none;stroke:#000000;stroke-width:1px;stroke-linecap:butt;stroke-linejoin:miter;stroke-opacity:1"
       d="M 16.679872,2.4778071 C 12.709051,3.8706131 8.4966504,5.3712771 5.5923956,8.5660461 3.5160999,10.84356 2.4992865,13.971602 2.7306219,17.035431 c 0.1712762,3.887746 2.7956035,7.145171 5.7470975,9.442054 0.8683875,0.687119 1.7591896,1.795177 2.9934406,1.622776 1.576718,-0.324274 2.948598,-1.240491 4.52643,-1.56396 1.684299,-0.377216 3.426981,-0.461627 5.14804,-0.471485 1.616819,0.09142 3.208323,0.352962 4.803589,0.618782"
       id="path280-6"
       inkscape:label="s1" />
    <path
       style="fill:none;stroke:#000000;stroke-width:1px;stroke-linecap:butt;stroke-linejoin:miter;stroke-opacity:1"
       d="m 10.886049,28.933871 c -4.6148122,3.438775 -5.5372158,10.445447 -2.6655489,15.275951 2.7290249,4.575112 8.3506949,6.35428 13.4195799,6.34828 5.441927,0.186504 10.836678,-1.568451 15.287547,-4.66689 1.379942,-1.218195 3.485051,-1.887373 4.086696,-3.783741 0.06509,-12.788333 0.0243,-25.576867 0.04818,-38.3652835"
       id="path399-6"
       sodipodi:nodetypes="cccccc"
       inkscape:label="s2" />
    <path
       style="fill:none;stroke:#000000;stroke-width:1px;stroke-linecap:butt;stroke-linejoin:miter;stroke-opacity:1"
       d="m 41.039,43.186 c 0.04667,2.528133 -0.086,7.245812 0.134776,9.767486 0.172765,2.154761 0.821655,4.357589 2.311879,5.978388 1.086193,1.213106 2.654261,1.895287 4.210058,2.276075 1.872667,0.383815 3.803053,0.345932 5.701898,0.50369"
       id="path395-2"
       sodipodi:nodetypes="ccccc"
       inkscape:label="s3" />
  </g>
  <g
     id="g429"
     inkscape:label="g2"
     transform="translate(7.3,3.9)">
    <path
       style="display:inline"
       d="m 30.9,87 v 0 Q 24.3,87 19.15,84.75 14,82.5 9.85,78.7 5.7,74.9 2.2,70.1 v 0 l 4.2,-2.9 q 5.1,6.7 10.7,10.8 5.6,4.1 13.8,4.1 v 0 q 5.7,0 8.7,-2.2 3,-2.2 3,-6.5 v 0 q 0,-3.9 -2.6,-5.9 -2.6,-2 -7,-2 v 0 q -2.5,0 -4.7,0.55 -2.2,0.55 -4.4,1.45 v 0 L 22.1,63 q 2.6,-1.1 5.2,-1.65 2.6,-0.55 5.4,-0.55 v 0 q 7.1,0 11,3.55 3.9,3.55 3.9,9.45 v 0 q 0,6.2 -4.45,9.7 Q 38.7,87 30.9,87 Z"
       id="path420"
       inkscape:label="p2" />
    <path
       style="display:inline;fill:none;stroke:#000000;stroke-width:1px;stroke-linecap:butt;stroke-linejoin:miter;stroke-opacity:1"
       d="m 22.914062,65.289062 c 2.323807,-0.692195 4.562347,-1.731347 7.000658,-1.966609 3.549036,-0.376084 7.376537,-0.234926 10.53575,1.599631 2.719286,1.540051 4.469061,4.52798 4.601284,7.636307 0.253017,2.845818 -0.456653,5.883237 -2.460912,7.998761 -2.433486,2.67518 -6.157635,3.68678 -9.656459,3.920638 C 27.700261,84.79836 22.284886,83.938844 17.69019,81.310728 14.906965,79.755209 12.447616,77.671348 10.188095,75.437432 8.1199862,73.202596 6.1412982,70.891325 4.1757812,68.566406"
       id="path198"
       inkscape:label="s3" />
  </g>
</svg>
