<svg xmlns="http://www.w3.org/2000/svg" xmlns:xlink="http://www.w3.org/1999/xlink" width="58.800000000000004" height="130.4"><path d="M26.90 78.40L26.90 78.40Q18.60 78.40 13.70 74.20Q8.80 70 8.80 63.50L8.80 63.50Q8.80 57.80 12.30 54.00L12.30 54.00Q9.10 51.70 7 48.60Q4.90 45.50 4.90 41.30L4.90 41.30Q4.90 35.70 8.95 31.75Q13 27.80 20.60 25.40L20.60 25.40L22.50 30.20Q15.90 32.10 13.10 35.05Q10.30 38.00 10.30 41.70L10.30 41.70Q10.30 47.40 16.20 51.10L16.20 51.10Q20.10 49.00 25.40 49.00L25.40 49.00Q26.80 49.00 28.35 49.20Q29.90 49.40 31.20 49.60L31.20 49.60L30.40 54.50Q29.30 54.30 28 54.15Q26.70 54.00 25.30 54.00L25.30 54.00Q20.40 54.00 17.30 56.45Q14.20 58.90 14.20 63.30L14.20 63.30Q14.20 68.10 17.55 70.80Q20.90 73.50 26.90 73.50L26.90 73.50Q31.60 73.50 35.50 71.95Q39.40 70.40 43.30 67L43.30 67L43.30 29.30L48.60 30.10L48.60 75.50Q48.60 78.70 49.15 80.35Q49.70 82.00 50.80 82.90L50.80 82.90Q52 84.10 54 84.35Q56 84.60 58.30 84.60L58.30 84.60L57.70 89.60L56.80 89.60Q50 89.60 46.80 86.60L46.80 86.60Q45.10 85.00 44.20 82.50Q43.30 80 43.30 75.80L43.30 75.80L43.30 73.20Q39.90 75.60 36 77Q32.10 78.40 26.90 78.40ZM41.30 116.10L41.30 116.10Q34.20 116.10 30.30 112.50Q26.40 108.90 26.40 103.00L26.40 103.00Q26.40 97.60 30.50 93.85Q34.60 90.10 42.50 90.10L42.50 90.10Q49.80 90.10 55.15 92.85Q60.50 95.60 64.60 99.95Q68.70 104.30 72.10 109.20L72.10 109.20L68 111.90Q64.30 106.80 60.65 102.95Q57.00 99.10 52.65 96.95Q48.30 94.80 42.70 94.80L42.70 94.80Q36.90 94.80 34.15 97.15Q31.40 99.50 31.40 103.10L31.40 103.10Q31.40 107.30 34.10 109.25Q36.80 111.20 41 111.20L41 111.20Q43.70 111.20 45.95 110.65Q48.20 110.10 50.40 109.10L50.40 109.10L52.10 113.90Q49.50 114.90 46.80 115.50Q44.10 116.10 41.30 116.10Z"/></svg>