<svg xmlns="http://www.w3.org/2000/svg" xmlns:xlink="http://www.w3.org/1999/xlink" width="58.800000000000004" height="130.4"><path d="M26.90 78.40L26.90 78.40Q18.60 78.40 13.70 74.20Q8.80 70 8.80 63.50L8.80 63.50Q8.80 57.80 12.30 54.00L12.30 54.00Q9.10 51.70 7 48.60Q4.90 45.50 4.90 41.30L4.90 41.30Q4.90 35.70 8.95 31.75Q13 27.80 20.60 25.40L20.60 25.40L22.50 30.20Q15.90 32.10 13.10 35.05Q10.30 38.00 10.30 41.70L10.30 41.70Q10.30 47.40 16.20 51.10L16.20 51.10Q20.10 49.00 25.40 49.00L25.40 49.00Q26.80 49.00 28.35 49.20Q29.90 49.40 31.20 49.60L31.20 49.60L30.40 54.50Q29.30 54.30 28 54.15Q26.70 54.00 25.30 54.00L25.30 54.00Q20.40 54.00 17.30 56.45Q14.20 58.90 14.20 63.30L14.20 63.30Q14.20 68.10 17.55 70.80Q20.90 73.50 26.90 73.50L26.90 73.50Q31.60 73.50 35.50 71.95Q39.40 70.40 43.30 67L43.30 67L43.30 29.30L48.60 30.10L48.60 75.50Q48.60 78.70 49.15 80.35Q49.70 82.00 50.80 82.90L50.80 82.90Q52 84.10 54 84.35Q56 84.60 58.30 84.60L58.30 84.60L57.70 89.60L56.80 89.60Q50 89.60 46.80 86.60L46.80 86.60Q45.10 85.00 44.20 82.50Q43.30 80 43.30 75.80L43.30 75.80L43.30 73.20Q39.90 75.60 36 77Q32.10 78.40 26.90 78.40ZM48.30 25.50L43.90 25.50Q42 17.70 40.15 13.15Q38.30 8.60 35.85 6.70Q33.40 4.80 29.60 4.80L29.60 4.80Q28.40 4.80 27.05 5Q25.70 5.20 24.20 5.70L24.20 5.70L22.70 1.10Q24.60 0.50 26.40 0.25Q28.20 0 29.90 0L29.90 0Q34.50 0 37.85 2.25Q41.20 4.50 43.70 10.05Q46.20 15.60 48.30 25.50L48.30 25.50ZM43 23.70L40.20 26.60Q34.10 21.20 29.90 18.85Q25.70 16.50 20.80 16.50L20.80 16.50Q17.30 16.50 14.40 17.40L14.40 17.40L12.90 12.70Q14.70 12.30 16.65 12Q18.60 11.70 20.80 11.70L20.80 11.70Q24.60 11.70 27.95 12.90Q31.30 14.10 34.85 16.75Q38.40 19.40 43 23.70L43 23.70Z"/></svg>