<?xml version="1.0" encoding="UTF-8" standalone="no"?>
<svg
   width="53.400002"
   height="89.599998"
   version="1.1"
   id="svg1054"
   sodipodi:docname="7_dhai.svg"
   inkscape:version="1.2.1 (9c6d41e410, 2022-07-14)"
   xmlns:inkscape="http://www.inkscape.org/namespaces/inkscape"
   xmlns:sodipodi="http://sodipodi.sourceforge.net/DTD/sodipodi-0.dtd"
   xmlns="http://www.w3.org/2000/svg"
   xmlns:svg="http://www.w3.org/2000/svg">
  <defs
     id="defs1058" />
  <sodipodi:namedview
     id="namedview1056"
     pagecolor="#ffffff"
     bordercolor="#666666"
     borderopacity="1.0"
     inkscape:showpageshadow="2"
     inkscape:pageopacity="0.0"
     inkscape:pagecheckerboard="0"
     inkscape:deskcolor="#d1d1d1"
     showgrid="false"
     inkscape:zoom="7.2392641"
     inkscape:cx="4.0749998"
     inkscape:cy="21.825423"
     inkscape:window-width="1920"
     inkscape:window-height="1027"
     inkscape:window-x="-8"
     inkscape:window-y="-8"
     inkscape:window-maximized="1"
     inkscape:current-layer="svg1054" />
  <g
     id="g13"
     inkscape:label="g1"
     transform="matrix(0.99926976,0,0,1,0,25.4)">
    <path
       d="m 22.016077,53 v 0 Q 13.710012,53 8.8064308,48.8 3.90285,44.6 3.90285,38.1 v 0 q 0,-5.7 3.5025577,-9.5 v 0 Q 4.2030692,26.3 2.1015346,23.2 0,20.1 0,15.9 v 0 Q 0,10.3 4.0529596,6.35 8.1059193,2.4 15.711473,0 v 0 l 1.901389,4.8 Q 11.008039,6.7 8.2059923,9.65 5.4039462,12.6 5.4039462,16.3 v 0 q 0,5.7 5.9043118,9.4 v 0 q 3.90285,-2.1 9.206723,-2.1 v 0 q 1.401023,0 2.952156,0.2 1.551132,0.2 2.852082,0.4 v 0 l -0.800584,4.9 Q 24.417831,28.9 23.116881,28.75 21.815931,28.6 20.414908,28.6 v 0 q -4.903581,0 -8.005846,2.45 -3.1022658,2.45 -3.1022658,6.85 v 0 q 0,4.8 3.3524478,7.5 3.352448,2.7 9.356833,2.7 v 0 q 4.703435,0 8.606285,-1.55 3.90285,-1.55 7.8057,-4.95 v 0 -37.7 l 5.303873,0.8 v 45.4 q 0,3.2 0.550402,4.85 0.550402,1.65 1.651206,2.55 v 0 q 1.200876,1.2 3.202338,1.45 2.001462,0.25 4.303142,0.25 v 0 l -0.600438,5 h -0.900658 q -6.804969,0 -10.007308,-3 v 0 q -1.701242,-1.6 -2.6019,-4.1 -0.900657,-2.5 -0.900657,-6.7 v 0 -2.6 q -3.402485,2.4 -7.305335,3.8 -3.90285,1.4 -9.10665,1.4 z"
       id="path2"
       inkscape:label="p1"
       style="stroke-width:1.00037" />
    <path
       style="fill:none;stroke:#000000;stroke-width:1px;stroke-linecap:butt;stroke-linejoin:miter;stroke-opacity:1"
       d="M 16.679872,2.4778071 C 12.709051,3.8706131 8.4966504,5.3712771 5.5923956,8.5660461 3.5160999,10.84356 2.4992865,13.971602 2.7306219,17.035431 c 0.1712762,3.887746 2.7956035,7.145171 5.7470975,9.442054 0.8683875,0.687119 1.7591896,1.795177 2.9934406,1.622776 1.576718,-0.324274 2.948598,-1.240491 4.52643,-1.56396 1.684299,-0.377216 3.426981,-0.461627 5.14804,-0.471485 1.616819,0.09142 3.208323,0.352962 4.803589,0.618782"
       id="path280-7"
       inkscape:label="s1" />
    <path
       style="fill:none;stroke:#000000;stroke-width:1px;stroke-linecap:butt;stroke-linejoin:miter;stroke-opacity:1"
       d="m 10.886049,28.933871 c -4.6148122,3.438775 -5.5372158,10.445447 -2.6655489,15.275951 2.7290249,4.575112 8.3506949,6.35428 13.4195799,6.34828 5.441927,0.186504 10.836678,-1.568451 15.287547,-4.66689 1.379942,-1.218195 3.485051,-1.887373 4.086696,-3.783741 0.06509,-12.788333 0.0243,-25.576867 0.04818,-38.3652835"
       id="path399-0"
       sodipodi:nodetypes="cccccc"
       inkscape:label="s2" />
    <path
       style="fill:none;stroke:#000000;stroke-width:1px;stroke-linecap:butt;stroke-linejoin:miter;stroke-opacity:1"
       d="m 41.039,43.186 c 0.04667,2.528133 -0.086,7.245812 0.134776,9.767486 0.172765,2.154761 0.821655,4.357589 2.311879,5.978388 1.086193,1.213106 2.654261,1.895287 4.210058,2.276075 1.872667,0.383815 3.803053,0.345932 5.701898,0.50369"
       id="path395-3"
       sodipodi:nodetypes="ccccc"
       inkscape:label="s3" />
  </g>
  <g
     id="g522"
     inkscape:label="g2"
     transform="translate(7.3)">
    <path
       style="display:inline"
       d="M 30.8,23.7 28,26.6 Q 21.9,21.2 17.7,18.85 13.5,16.5 8.6,16.5 v 0 q -3.5,0 -6.4,0.9 v 0 L 0.7,12.7 Q 2.5,12.3 4.45,12 6.4,11.7 8.6,11.7 v 0 q 3.8,0 7.15,1.2 3.35,1.2 6.9,3.85 3.55,2.65 8.15,6.95 z"
       id="path513"
       inkscape:label="p2" />
    <path
       style="display:inline;fill:none;stroke:#000000;stroke-width:1px;stroke-linecap:butt;stroke-linejoin:miter;stroke-opacity:1"
       d="m 1.2484854,15.037068 c 2.0296352,-0.33742 4.0471341,-0.823273 6.106769,-0.926121 1.7144665,-0.03627 3.4419196,-0.0066 5.1213336,0.377952 1.626492,0.286246 3.200444,0.851561 4.696094,1.542318 3.239677,1.543111 6.000222,3.881137 8.751411,6.145612 1.177108,1.030396 2.354216,2.060791 3.531324,3.091187"
       id="path660"
       inkscape:label="s4" />
  </g>
  <g
     id="g526"
     inkscape:label="g3"
     transform="matrix(1,0,0,0.99095104,7.3,0)">
    <path
       style="display:inline"
       d="M 36.1,25.5 H 31.7 Q 29.8,17.7 27.95,13.15 26.1,8.6 23.65,6.7 21.2,4.8 17.4,4.8 v 0 Q 16.2,4.8 14.85,5 13.5,5.2 12,5.7 v 0 L 10.5,1.1 Q 12.4,0.5 14.2,0.25 16,0 17.7,0 v 0 q 4.6,0 7.95,2.25 3.35,2.25 5.85,7.8 2.5,5.55 4.6,15.45 z"
       id="path511"
       inkscape:label="p3" />
    <path
       style="display:inline;fill:none;stroke:#000000;stroke-width:1px;stroke-linecap:butt;stroke-linejoin:miter;stroke-opacity:1"
       d="m 11.023437,3.453125 c 2.182778,-0.4976057 4.36528,-1.1946393 6.631852,-1.0710196 2.053103,-0.044291 4.123749,0.4216957 5.902797,1.4638298 1.290672,0.6572076 2.43165,1.6018918 3.277933,2.7802163 1.787546,2.2624393 2.976329,4.9290225 3.905851,7.6409995 1.112879,3.208175 2.009172,6.487831 2.71558,9.809147 0.117031,0.515091 0.234062,1.030183 0.351093,1.545274"
       id="path662"
       inkscape:label="s5" />
  </g>
</svg>
