<svg xmlns="http://www.w3.org/2000/svg" xmlns:xlink="http://www.w3.org/1999/xlink" width="83.9" height="130.4">
    <path
        d="M26.90 78.40L26.90 78.40Q18.60 78.40 13.70 74.20Q8.80 70 8.80 63.50L8.80 63.50Q8.80 57.80 12.30 54.00L12.30 54.00Q9.10 51.70 7 48.60Q4.90 45.50 4.90 41.30L4.90 41.30Q4.90 35.70 8.95 31.75Q13 27.80 20.60 25.40L20.60 25.40L22.50 30.20Q15.90 32.10 13.10 35.05Q10.30 38.00 10.30 41.70L10.30 41.70Q10.30 47.40 16.20 51.10L16.20 51.10Q20.10 49.00 25.40 49.00L25.40 49.00Q26.80 49.00 28.35 49.20Q29.90 49.40 31.20 49.60L31.20 49.60L30.40 54.50Q29.30 54.30 28 54.15Q26.70 54.00 25.30 54.00L25.30 54.00Q20.40 54.00 17.30 56.45Q14.20 58.90 14.20 63.30L14.20 63.30Q14.20 68.10 17.55 70.80Q20.90 73.50 26.90 73.50L26.90 73.50Q31.60 73.50 35.50 71.95Q39.40 70.40 43.30 67L43.30 67L43.30 29.30L48.60 30.10L48.60 75.50Q48.60 78.70 49.15 80.35Q49.70 82.00 50.80 82.90L50.80 82.90Q52 84.10 54 84.35Q56 84.60 58.30 84.60L58.30 84.60L57.70 89.60L56.80 89.60Q50 89.60 46.80 86.60L46.80 86.60Q45.10 85.00 44.20 82.50Q43.30 80 43.30 75.80L43.30 75.80L43.30 73.20Q39.90 75.60 36 77Q32.10 78.40 26.90 78.40ZM82.90 89.60L81.90 89.60Q75.30 89.60 72 86.60L72 86.60Q70.20 85.00 69.35 82.50Q68.50 80 68.50 75.80L68.50 75.80L68.50 29.30L73.80 30.00L73.80 75.50Q73.80 78.80 74.30 80.40Q74.80 82.00 76.10 83.00L76.10 83.00Q77.30 84.10 79.15 84.35Q81 84.60 83.40 84.60L83.40 84.60L82.90 89.60ZM73.40 25.50L69 25.50Q67.10 17.70 65.25 13.15Q63.40 8.60 60.95 6.70Q58.50 4.80 54.70 4.80L54.70 4.80Q53.50 4.80 52.15 5Q50.80 5.20 49.30 5.70L49.30 5.70L47.80 1.10Q49.70 0.50 51.50 0.25Q53.30 0 55.00 0L55.00 0Q59.60 0 62.95 2.25Q66.30 4.50 68.80 10.05Q71.30 15.60 73.40 25.50L73.40 25.50ZM68.10 23.70L65.30 26.60Q59.20 21.20 55.00 18.85Q50.80 16.50 45.90 16.50L45.90 16.50Q42.40 16.50 39.50 17.40L39.50 17.40L38 12.70Q39.80 12.30 41.75 12Q43.70 11.70 45.90 11.70L45.90 11.70Q49.70 11.70 53.05 12.90Q56.40 14.10 59.95 16.75Q63.50 19.40 68.10 23.70L68.10 23.70Z" />
      <g
     id="g605"
     inkscape:label="g2">
    <path
       style="display:inline"
       d="m 70.7,89.6 h -1 q -6.6,0 -9.9,-3 v 0 Q 58,85 57.15,82.5 56.3,80 56.3,75.8 v 0 -46.5 l 5.3,0.7 v 45.5 q 0,3.3 0.5,4.9 0.5,1.6 1.8,2.6 v 0 q 1.2,1.1 3.05,1.35 1.85,0.25 4.25,0.25 v 0 z"
       id="path592"
       inkscape:label="p2" />
    <path
       style="display:inline;fill:none;stroke:#000000;stroke-width:1px;stroke-linecap:butt;stroke-linejoin:miter;stroke-opacity:1"
       d="m 58.945814,29.339077 c 0.0052,15.660703 -0.0419,31.322813 -0.004,46.982637 0.07316,2.661925 0.300705,5.531206 2.06529,7.674603 1.94562,2.285428 5.076188,2.956219 7.950186,3.001875 0.734456,0.05113 1.468913,0.102253 2.203369,0.15338"
       id="path81"
       inkscape:label="s3" />
  </g>
  <g
     id="g609"
     inkscape:label="g3">
    <path
       style="display:inline"
       d="m 55.9,23.7 -2.8,2.9 Q 47,21.2 42.8,18.85 38.6,16.5 33.7,16.5 v 0 q -3.5,0 -6.4,0.9 v 0 l -1.5,-4.7 q 1.8,-0.4 3.75,-0.7 1.95,-0.3 4.15,-0.3 v 0 q 3.8,0 7.15,1.2 3.35,1.2 6.9,3.85 3.55,2.65 8.15,6.95 z"
       id="path596"
       inkscape:label="p3" />
    <path
       style="display:inline;fill:none;stroke:#000000;stroke-width:1px;stroke-linecap:butt;stroke-linejoin:miter;stroke-opacity:1"
       d="m 26.306582,15.114407 c 2.688785,-0.568456 5.416241,-1.1935 8.183739,-0.988483 1.810938,0.02306 3.595689,0.410136 5.328375,0.908621 1.446215,0.495326 2.860202,1.115629 4.178036,1.890495 3.847011,2.308963 7.136989,5.387765 10.538424,8.281996"
       id="path905"
       inkscape:label="s4" />
  </g>
  <g
     id="g613"
     inkscape:label="g4">
    <path
       style="display:inline"
       d="M 61.2,25.5 H 56.8 Q 54.9,17.7 53.05,13.15 51.2,8.6 48.75,6.7 46.3,4.8 42.5,4.8 v 0 Q 41.3,4.8 39.95,5 38.6,5.2 37.1,5.7 v 0 L 35.6,1.1 Q 37.5,0.5 39.3,0.25 41.1,0 42.8,0 v 0 q 4.6,0 7.95,2.25 3.35,2.25 5.85,7.8 2.5,5.55 4.6,15.45 z"
       id="path594"
       inkscape:label="p4" />
    <path
       style="display:inline;fill:none;stroke:#000000;stroke-width:1px;stroke-linecap:butt;stroke-linejoin:miter;stroke-opacity:1"
       d="m 36.195028,3.4913397 2.773185,-0.7181553 0.82864,-0.1767767 0.806544,-0.099437 1.138,-0.088388 h 0.905981 l 1.027514,0.033146 0.983321,0.121534 0.872835,0.1325825 1.237436,0.2872621 1.071709,0.4198447 1.347922,0.6960582 1.016466,0.6960583 0.696059,0.5966213 0.82864,0.9612233 0.950175,1.2042912 0.839689,1.3368738 0.806544,1.6130879 0.651864,1.425262 0.662913,1.635184 0.53033,1.679379 0.50108,1.557697 0.367187,1.382813 0.5,1.734375 0.453125,1.757812 1.007035,3.936361"
       id="path970"
       inkscape:label="s5" />
  </g>
    <path style="fill:none;stroke:#000000;stroke-width:1px;stroke-linecap:butt;stroke-linejoin:miter;stroke-opacity:1"
        d="M 16.679872,2.4778071 C 12.709051,3.8706131 8.4966504,5.3712771 5.5923956,8.5660461 3.5160999,10.84356 2.4992865,13.971602 2.7306219,17.035431 c 0.1712762,3.887746 2.7956035,7.145171 5.7470975,9.442054 0.8683875,0.687119 1.7591896,1.795177 2.9934406,1.622776 1.576718,-0.324274 2.948598,-1.240491 4.52643,-1.56396 1.684299,-0.377216 3.426981,-0.461627 5.14804,-0.471485 1.616819,0.09142 3.208323,0.352962 4.803589,0.618782"
        id="path280" inkscape:label="s1" />
    <path style="fill:none;stroke:#000000;stroke-width:1px;stroke-linecap:butt;stroke-linejoin:miter;stroke-opacity:1"
        d="m 10.886049,28.933871 c -4.6148122,3.438775 -5.5372158,10.445447 -2.6655489,15.275951 2.7290249,4.575112 8.3506949,6.35428 13.4195799,6.34828 5.441927,0.186504 10.836678,-1.568451 15.287547,-4.66689 1.379942,-1.218195 3.485051,-1.887373 4.086696,-3.783741 0.06509,-12.788333 0.0243,-25.576867 0.04818,-38.3652835"
        id="path399" sodipodi:nodetypes="cccccc" inkscape:label="s2" />
    <path style="fill:none;stroke:#000000;stroke-width:1px;stroke-linecap:butt;stroke-linejoin:miter;stroke-opacity:1"
        d="m 41.039,43.186 c 0.04667,2.528133 -0.086,7.245812 0.134776,9.767486 0.172765,2.154761 0.821655,4.357589 2.311879,5.978388 1.086193,1.213106 2.654261,1.895287 4.210058,2.276075 1.872667,0.383815 3.803053,0.345932 5.701898,0.50369"
        id="path395" sodipodi:nodetypes="ccccc" inkscape:label="s3" />
</svg>