<svg xmlns="http://www.w3.org/2000/svg" xmlns:xlink="http://www.w3.org/1999/xlink" width="83.9" height="130.4"><path d="M26.90 78.40L26.90 78.40Q18.60 78.40 13.70 74.20Q8.80 70 8.80 63.50L8.80 63.50Q8.80 57.80 12.30 54.00L12.30 54.00Q9.10 51.70 7 48.60Q4.90 45.50 4.90 41.30L4.90 41.30Q4.90 35.70 8.95 31.75Q13 27.80 20.60 25.40L20.60 25.40L22.50 30.20Q15.90 32.10 13.10 35.05Q10.30 38.00 10.30 41.70L10.30 41.70Q10.30 47.40 16.20 51.10L16.20 51.10Q20.10 49.00 25.40 49.00L25.40 49.00Q26.80 49.00 28.35 49.20Q29.90 49.40 31.20 49.60L31.20 49.60L30.40 54.50Q29.30 54.30 28 54.15Q26.70 54.00 25.30 54.00L25.30 54.00Q20.40 54.00 17.30 56.45Q14.20 58.90 14.20 63.30L14.20 63.30Q14.20 68.10 17.55 70.80Q20.90 73.50 26.90 73.50L26.90 73.50Q31.60 73.50 35.50 71.95Q39.40 70.40 43.30 67L43.30 67L43.30 29.30L48.60 30.10L48.60 75.50Q48.60 78.70 49.15 80.35Q49.70 82.00 50.80 82.90L50.80 82.90Q52 84.10 54 84.35Q56 84.60 58.30 84.60L58.30 84.60L57.70 89.60L56.80 89.60Q50 89.60 46.80 86.60L46.80 86.60Q45.10 85.00 44.20 82.50Q43.30 80 43.30 75.80L43.30 75.80L43.30 73.20Q39.90 75.60 36 77Q32.10 78.40 26.90 78.40ZM82.90 89.60L81.90 89.60Q75.30 89.60 72 86.60L72 86.60Q70.20 85.00 69.35 82.50Q68.50 80 68.50 75.80L68.50 75.80L68.50 29.30L73.80 30.00L73.80 75.50Q73.80 78.80 74.30 80.40Q74.80 82.00 76.10 83.00L76.10 83.00Q77.30 84.10 79.15 84.35Q81 84.60 83.40 84.60L83.40 84.60L82.90 89.60ZM73.40 25.50L69 25.50Q67.10 17.70 65.25 13.15Q63.40 8.60 60.95 6.70Q58.50 4.80 54.70 4.80L54.70 4.80Q53.50 4.80 52.15 5Q50.80 5.20 49.30 5.70L49.30 5.70L47.80 1.10Q49.70 0.50 51.50 0.25Q53.30 0 55.00 0L55.00 0Q59.60 0 62.95 2.25Q66.30 4.50 68.80 10.05Q71.30 15.60 73.40 25.50L73.40 25.50ZM68.10 23.70L65.30 26.60Q59.20 21.20 55.00 18.85Q50.80 16.50 45.90 16.50L45.90 16.50Q42.40 16.50 39.50 17.40L39.50 17.40L38 12.70Q39.80 12.30 41.75 12Q43.70 11.70 45.90 11.70L45.90 11.70Q49.70 11.70 53.05 12.90Q56.40 14.10 59.95 16.75Q63.50 19.40 68.10 23.70L68.10 23.70Z"/></svg>