<?xml version="1.0" encoding="UTF-8" standalone="no"?><svg width="74.426865" height="60.299999" version="1.1" id="svg12" sodipodi:docname="11_gyah.svg" inkscape:version="1.2.1 (9c6d41e410, 2022-07-14)" xmlns:inkscape="http://www.inkscape.org/namespaces/inkscape" xmlns:sodipodi="http://sodipodi.sourceforge.net/DTD/sodipodi-0.dtd" xmlns="http://www.w3.org/2000/svg" xmlns:svg="http://www.w3.org/2000/svg"><defs id="defs16"></defs><sodipodi:namedview id="namedview14" pagecolor="#ffffff" bordercolor="#666666" borderopacity="1.0" inkscape:showpageshadow="2" inkscape:pageopacity="0.0" inkscape:pagecheckerboard="0" inkscape:deskcolor="#d1d1d1" showgrid="false" inkscape:zoom="5.1189327" inkscape:cx="22.367944" inkscape:cy="39.656705" inkscape:window-width="1920" inkscape:window-height="1027" inkscape:window-x="-8" inkscape:window-y="-8" inkscape:window-maximized="1" inkscape:current-layer="svg12"></sodipodi:namedview><g id="g0" inkscape:label="g0" transform="scale(0.99960582,0.99999999)"><path d="m 26.357549,60.300001 q -5.973114,0 -9.95519,-2.654717 Q 12.420283,54.990567 8.7226419,49.681132 4.5509437,49.017453 2.275472,47.405659 2.037078e-7,45.699056 2.037078e-7,43.328774 q 0,-1.422171 0.9481132262922,-2.559907 1.04292457,-1.137734 2.93915097,-1.137734 2.4650944,0 4.4561313,1.51698 2.0858493,1.51698 3.9820763,4.266511 1.896226,0.189623 3.223586,0.189623 6.257546,0 9.38632,-2.275471 3.223586,-2.275472 3.223586,-5.973114 0,-4.171699 -2.749528,-6.067925 Q 22.754717,29.39151 16.876417,28.158965 9.5759436,26.736794 5.5938683,23.608019 1.6117927,20.384436 1.6117927,14.411322 q 0,-4.9301895 3.3183963,-8.1537755 3.4132067,-3.3183951 9.575944,-3.3183951 4.266511,0 7.395283,1.4221687 3.128774,1.3273594 5.783491,3.1287743 2.654716,1.8014149 5.499056,3.2235856 2.939151,1.327357 6.826415,1.327357 2.654719,0 4.740567,-0.663678 V 1.56905e-7 L 49.775945,0.75849027 V 43.802832 q 0,3.033963 0.474058,4.645754 0.568867,1.516983 1.611792,2.370285 1.137736,1.137736 3.033963,1.422168 1.896226,0.189623 4.076885,0.189623 l -0.568867,4.740567 h -0.853302 q -6.447169,0 -9.481132,-2.84434 -1.611792,-1.51698 -2.465096,-3.887265 -0.853301,-2.370281 -0.853301,-6.352357 V 16.307546 q -2.085848,0.474055 -4.835378,0.474055 -4.456132,0 -7.774527,-1.327357 -3.223586,-1.422171 -5.973114,-3.223586 -2.749528,-1.896226 -5.593868,-3.2235833 -2.749528,-1.4221711 -6.162737,-1.4221711 -3.60283,0 -5.5938675,1.8962265 -1.991038,1.8962269 -1.991038,5.0250009 0,3.697641 2.7495281,5.783491 2.7495284,2.085849 9.0070764,3.318395 7.110848,1.422171 10.903301,4.456134 3.887265,3.033963 3.887265,8.912263 0,4.740566 -2.559905,7.679717 -2.559905,2.939151 -6.731604,4.266511 -4.076888,1.232548 -8.912266,1.232548 -0.284432,0 -0.474055,0 2.749528,3.318395 5.499056,4.36132 2.84434,1.042924 6.921228,1.042924 h 1.042924 l -0.568869,4.740567 z" style="font-weight:300;font-size:39.9999px;line-height:1.25;font-family:&apos;Noto Sans Gujarati&apos;;-inkscape-font-specification:&apos;Noto Sans Gujarati, Light&apos;;stroke-width:2.37029" id="g0p0" inkscape:label="g0p0"></path><path style="fill:none;stroke:#000000;stroke-width:1px;stroke-linecap:butt;stroke-linejoin:miter;stroke-opacity:1" d="M 27.897572,57.971707 C 24.114831,57.822567 20.05195,57.503051 16.902099,55.168246 14.959796,53.728527 13.402435,51.890297 11.863132,50.048016 10.965121,48.973252 9.973629,46.052807 9.0338881,45.121445 8.4076682,44.500809 6.7868375,42.491339 4.7041809,42.088153 3.0832312,41.77435 1.5787629,43.019555 2.8829915,44.733568 c 1.2311965,1.618034 3.2645788,1.995008 5.6252559,2.456774 2.6378306,0.515979 3.1927006,0.645418 4.4279436,0.652014 4.153382,0.02218 8.506107,-0.08861 12.306684,-1.92394 3.231427,-1.560486 5.479417,-4.898519 5.526106,-8.559109 0.04148,-3.252492 -1.341563,-6.558031 -4.168425,-8.294551 C 22.792584,26.725548 18.299952,26.225152 14.097307,25.008286 10.781882,24.048312 7.0669826,22.634267 5.3767397,19.408955 3.6410922,16.097002 3.7786282,11.682786 6.1520351,8.6609843 8.5800052,5.569713 12.85163,4.9956812 16.521138,5.3796766 21.64056,5.9153982 25.772499,9.245612 30.05985,11.756231 c 3.038707,1.779429 6.509801,2.724822 10.026975,2.63977 2.071165,-0.05008 4.333243,-0.02016 6.154168,-1.035688 C 47.644527,12.57756 47.299,12.220196 47.297111,10.55833 47.2937,7.5584154 47.263091,3.0038184 47.257811,0.00390625" id="g0s0" sodipodi:nodetypes="cssssssssssssssssssc" inkscape:label="g0s0"></path><path style="fill:none;stroke:#000000;stroke-width:1px;stroke-linecap:butt;stroke-linejoin:miter;stroke-opacity:1" d="m 47.335937,11.507813 c 0.01102,11.124024 -0.139525,22.487304 -0.03227,33.610553 0.02186,2.266755 0.387705,4.664759 1.80596,6.531187 1.679117,2.209724 4.568082,2.945364 7.21431,3.021837 0.88256,0.0255 1.763211,0.09667 2.644816,0.145007" id="g0s1" inkscape:label="g0s1" sodipodi:nodetypes="csssc"></path></g><g id="g1" inkscape:label="g1" transform="matrix(0.94811494,0,0,0.94811494,15.264285,2.43708e-4)"><path style="display:inline" d="m 57.8,22 v 0 Q 56,22 54.6,20.65 53.2,19.3 53.2,16.9 v 0 q 0,-2.4 1.35,-3.75 1.35,-1.35 3.25,-1.35 v 0 q 2,0 3.3,1.35 1.3,1.35 1.3,3.75 v 0 q 0,2.5 -1.35,3.8 Q 59.7,22 57.8,22 Z" id="g1p0" inkscape:label="g1p0"></path><path d="m 57.838,13.392 c -0.820403,0 -1.516459,0.311735 -2.086183,0.935339 -0.569724,0.623603 -0.854587,1.707464 -0.854587,2.59035 0,1.055328 0.273468,1.894793 0.820403,2.518396 0.546936,0.623603 1.347168,0.935404 2.119375,0.935404 0.865981,0 1.572439,-0.311801 2.119375,-0.935404 0.546935,-0.623603 0.820403,-1.597773 0.820403,-2.518396 0,-1.151267 -0.284863,-2.02671 -0.854587,-2.626328 C 59.352475,13.691744 58.656403,13.391934 57.836,13.391934" style="display:inline;stroke-width:0.701376" id="g1s0" sodipodi:nodetypes="sssssssss" inkscape:label="g1s0"></path></g><g id="g2" inkscape:label="g2" transform="matrix(0.94811494,0,0,0.94811494,15.264285,2.43708e-4)"><path style="display:inline" d="m 57.8,55.3 v 0 Q 56,55.3 54.6,53.95 53.2,52.6 53.2,50.2 v 0 q 0,-2.4 1.35,-3.75 1.35,-1.35 3.25,-1.35 v 0 q 2,0 3.3,1.35 1.3,1.35 1.3,3.75 v 0 q 0,2.5 -1.35,3.8 -1.35,1.3 -3.25,1.3 z" id="g2p0" inkscape:label="g2p0"></path><path d="m 57.838,46.680782 c -0.820403,0 -1.516689,0.311801 -2.086413,0.935405 -0.569724,0.623603 -0.854587,1.707464 -0.854587,2.59035 0,1.055328 0.273468,1.894793 0.820403,2.518396 0.546936,0.623603 1.347168,0.935404 2.119375,0.935404 0.865981,0 1.572439,-0.311801 2.119375,-0.935404 0.546935,-0.623603 0.820403,-1.597773 0.820403,-2.518396 0,-1.151267 -0.284863,-2.02671 -0.854587,-2.626328 C 59.352245,46.980592 58.656403,46.680782 57.836,46.680782" style="display:inline;stroke-width:0.701376" id="g2s0" sodipodi:nodetypes="sssssssss" inkscape:label="g2s0"></path></g></svg>