<?xml version="1.0" encoding="UTF-8" standalone="no"?>
<svg
   width="38.400002"
   height="61.299999"
   version="1.1"
   id="svg4"
   sodipodi:docname="0_t.svg"
   inkscape:version="1.2.1 (9c6d41e410, 2022-07-14)"
   xmlns:inkscape="http://www.inkscape.org/namespaces/inkscape"
   xmlns:sodipodi="http://sodipodi.sourceforge.net/DTD/sodipodi-0.dtd"
   xmlns:xlink="http://www.w3.org/1999/xlink"
   xmlns="http://www.w3.org/2000/svg"
   xmlns:svg="http://www.w3.org/2000/svg">
  <defs
     id="defs8">
    <inkscape:path-effect
       effect="simplify"
       id="path-effect1008"
       is_visible="true"
       lpeversion="1"
       steps="1"
       threshold="0.002"
       smooth_angles="0"
       helper_size="5"
       simplify_individual_paths="false"
       simplify_just_coalesce="false" />
  </defs>
  <sodipodi:namedview
     id="namedview6"
     pagecolor="#ffffff"
     bordercolor="#666666"
     borderopacity="1.0"
     inkscape:showpageshadow="2"
     inkscape:pageopacity="0.0"
     inkscape:pagecheckerboard="0"
     inkscape:deskcolor="#d1d1d1"
     showgrid="false"
     inkscape:zoom="11.313709"
     inkscape:cx="25.323262"
     inkscape:cy="29.786873"
     inkscape:window-width="1920"
     inkscape:window-height="1057"
     inkscape:window-x="-8"
     inkscape:window-y="-8"
     inkscape:window-maximized="1"
     inkscape:current-layer="svg4" />
  <path
     sodipodi:type="inkscape:offset"
     inkscape:radius="-2.2936625"
     inkscape:original="M 18.300781 0 C 15.767448 0 13.333333 0.25 11 0.75 C 8.6666667 1.25 6.3992187 1.9670573 4.1992188 2.9003906 L 5.9003906 7.5 C 8.033724 6.6333333 10.084115 5.9841146 12.050781 5.5507812 C 14.017448 5.1174479 16.065885 4.9003906 18.199219 4.9003906 C 21.332552 4.9003906 23.799609 5.5341146 25.599609 6.8007812 C 27.399609 8.0674479 28.300781 9.9996094 28.300781 12.599609 C 28.300781 15.266276 27.300781 17.465885 25.300781 19.199219 C 23.300781 20.932552 20.066276 23.033333 15.599609 25.5 C 10.399609 28.366667 6.5003906 31.250391 3.9003906 34.150391 C 1.3003906 37.050391 0 40.666667 0 45 C 0 49.866667 1.7170573 53.800781 5.1503906 56.800781 C 8.583724 59.800781 13.300781 61.300781 19.300781 61.300781 C 23.167448 61.300781 26.516276 60.866667 29.349609 60 C 32.182943 59.133333 35.200391 57.767057 38.400391 55.900391 L 35.900391 51.099609 C 32.967057 52.966276 30.267448 54.299609 27.800781 55.099609 C 25.334115 55.899609 22.533724 56.300781 19.400391 56.300781 C 15.000391 56.300781 11.583724 55.300781 9.1503906 53.300781 C 6.7170573 51.300781 5.5 48.667057 5.5 45.400391 C 5.5 43.133724 5.9670573 41.133724 6.9003906 39.400391 C 7.833724 37.667057 9.3492188 36.015885 11.449219 34.449219 C 13.549219 32.882552 16.299219 31.132552 19.699219 29.199219 C 24.165885 26.665885 27.617448 24.233724 30.050781 21.900391 C 32.484115 19.567057 33.699219 16.433333 33.699219 12.5 C 33.699219 8.7666667 32.383333 5.7492187 29.75 3.4492188 C 27.116667 1.1492187 23.300781 0 18.300781 0 z "
     xlink:href="#path2"
     id="path264"
     inkscape:href="#path2"
     d="m 18.300781,2.2929688 c -2.382434,0 -4.653374,0.2348746 -6.820312,0.6992187 -1.476235,0.3163361 -2.881852,0.8584793 -4.3007815,1.359375 L 7.2949219,4.6601562 C 8.7284258,4.1655004 10.177592,3.6144053 11.556641,3.3105469 c 2.136328,-0.4707164 4.353664,-0.703125 6.642578,-0.703125 3.442599,0 6.408505,0.691257 8.720703,2.3183593 2.403105,1.6910742 3.673828,4.5438325 3.673828,7.6738278 0,3.240083 -1.351222,6.217543 -3.791016,8.332032 -2.23177,1.9342 -5.554845,4.069612 -10.09375,6.576171 a 2.2938919,2.2938919 0 0 1 -0.002,0 C 11.652025,30.294547 7.9510538,33.06759 5.6074219,35.681641 3.3863292,38.159013 2.2929688,41.125537 2.2929688,45 c 0,4.327167 1.3967019,7.478649 4.3671874,10.074219 2.9347462,2.564341 7.0229018,3.933593 12.6406248,3.933593 3.694993,0 6.822167,-0.419707 9.376953,-1.201171 2.053273,-0.62806 4.294207,-1.645521 6.628907,-2.878907 l -0.34375,-0.662109 c -2.238397,1.276136 -4.405973,2.35105 -6.455079,3.015625 -2.737209,0.887744 -5.778311,1.3125 -9.107421,1.3125 -4.747525,0 -8.749794,-1.090878 -11.7070316,-3.521484 C 4.786772,52.68329 3.2070312,49.236754 3.2070312,45.400391 c 0,-2.581747 0.5427566,-4.98733 1.6738282,-7.087891 1.1364331,-2.110519 2.9020814,-3.988892 5.1972656,-5.701172 2.213079,-1.651027 5.03325,-3.441625 8.488281,-5.40625 a 2.2938919,2.2938919 0 0 1 0.002,0 c 4.359747,-2.472693 7.668561,-4.826445 9.894532,-6.960937 1.968173,-1.88729 2.943359,-4.283187 2.943359,-7.744141 0,-3.1943693 -0.996144,-5.429014 -3.166016,-7.3242188 C 26.148638,3.3489435 22.949325,2.2929688 18.300781,2.2929688 Z" />
  <path
     d="m 19.3,61.3 v 0 q -9,0 -14.15,-4.5 Q 0,52.3 0,45 v 0 Q 0,38.5 3.9,34.15 7.8,29.8 15.6,25.5 v 0 q 6.7,-3.7 9.7,-6.3 3,-2.6 3,-6.6 v 0 Q 28.3,8.7 25.6,6.8 22.9,4.9 18.2,4.9 v 0 Q 15,4.9 12.05,5.55 9.1,6.2 5.9,7.5 v 0 L 4.2,2.9 Q 7.5,1.5 11,0.75 14.5,0 18.3,0 v 0 q 7.5,0 11.45,3.45 3.95,3.45 3.95,9.05 v 0 q 0,5.9 -3.65,9.4 -3.65,3.5 -10.35,7.3 v 0 Q 14.6,32.1 11.45,34.45 8.3,36.8 6.9,39.4 5.5,42 5.5,45.4 v 0 q 0,4.9 3.65,7.9 3.65,3 10.25,3 v 0 q 4.7,0 8.4,-1.2 3.7,-1.2 8.1,-4 v 0 l 2.5,4.8 Q 33.6,58.7 29.35,60 25.1,61.3 19.3,61.3 Z"
     id="path2" />
  <path
     style="fill:none;stroke:#000000;stroke-width:1px;stroke-linecap:butt;stroke-linejoin:miter;stroke-opacity:1"
     d="M 5.0742187,5.265625 C 8.4984758,4.0331615 11.955358,2.696674 15.638108,2.5569756 c 4.083904,-0.2999653 8.61717,-0.097406 11.97953,2.5162961 2.590929,1.946484 3.676574,5.3260533 3.374739,8.4757753 -0.137744,3.164843 -1.851152,6.101845 -4.389303,7.958941 -5.734551,4.704037 -12.879293,7.330624 -18.4657022,12.231234 -2.3466305,2.05405 -4.3732359,4.645965 -4.9654968,7.776403 -0.8021364,3.69765 -0.4981885,7.799564 1.684107,10.992533 2.3563554,3.574106 6.522706,5.473645 10.656435,6.045592 5.5886,0.628322 11.454865,0.112028 16.557548,-2.394739 1.753211,-0.757904 3.383153,-1.774551 5.078472,-2.651204"
     id="path1006" />
</svg>
