<svg xmlns="http://www.w3.org/2000/svg" xmlns:xlink="http://www.w3.org/1999/xlink" width="43.6" height="130.4">
    <path
        d="M24.30 90.60L24.30 90.60Q15.30 90.60 10.15 86.10Q5 81.60 5 74.30L5 74.30Q5 67.80 8.90 63.45Q12.80 59.10 20.60 54.80L20.60 54.80Q27.30 51.10 30.30 48.50Q33.30 45.90 33.30 41.90L33.30 41.90Q33.30 38.00 30.60 36.10Q27.90 34.20 23.20 34.20L23.20 34.20Q20 34.20 17.05 34.85Q14.10 35.50 10.90 36.80L10.90 36.80L9.20 32.20Q12.50 30.80 16 30.05Q19.50 29.30 23.30 29.30L23.30 29.30Q30.80 29.30 34.75 32.75Q38.70 36.20 38.70 41.80L38.70 41.80Q38.70 47.70 35.05 51.20Q31.40 54.70 24.70 58.50L24.70 58.50Q19.60 61.40 16.45 63.75Q13.30 66.10 11.90 68.70Q10.50 71.30 10.50 74.70L10.50 74.70Q10.50 79.60 14.15 82.60Q17.80 85.60 24.40 85.60L24.40 85.60Q29.10 85.60 32.80 84.40Q36.50 83.20 40.90 80.40L40.90 80.40L43.40 85.20Q38.60 88.00 34.35 89.30Q30.10 90.60 24.30 90.60ZM30.90 19.10L30.90 19.10Q29.10 19.10 27.85 17.80Q26.60 16.50 26.60 14.20L26.60 14.20Q26.60 12 27.80 10.70Q29 9.40 30.90 9.40L30.90 9.40Q32.80 9.40 34 10.70Q35.20 12 35.20 14.20L35.20 14.20Q35.20 16.60 33.95 17.85Q32.70 19.10 30.90 19.10Z" />
      <g
     id="g653"
     inkscape:label="g2">
    <path
       style="display:inline"
       d="m 33.9,9.7 v 0 Q 32.1,9.7 30.85,8.4 29.6,7.1 29.6,4.8 v 0 Q 29.6,2.6 30.8,1.3 32,0 33.9,0 v 0 q 1.9,0 3.1,1.3 1.2,1.3 1.2,3.5 v 0 q 0,2.4 -1.25,3.65 Q 35.7,9.7 33.9,9.7 Z"
       id="path644"
       inkscape:label="p2" />
    <path
       d="m 33.9375,1.3352194 c -0.820403,0 -1.515467,0.3118012 -2.085191,0.9354043 -0.569724,0.6236031 -0.854587,1.7074649 -0.854587,2.5903504 0,1.0553281 0.273468,1.8947931 0.820403,2.5183962 0.546936,0.6236031 1.347168,0.9354042 2.119375,0.9354042 0.865981,0 1.572439,-0.3118011 2.119375,-0.9354042 0.546935,-0.6236031 0.820403,-1.5977735 0.820403,-2.5183962 0,-1.1512668 -0.284863,-2.0267096 -0.854587,-2.6263275 C 35.452967,1.6350287 34.757903,1.3352194 33.9375,1.3352194 Z"
       style="display:inline;stroke-width:0.701376"
       id="path950"
       sodipodi:nodetypes="sssssssss"
       inkscape:label="s3" />
  </g>
    <path style="fill:none;stroke:#000000;stroke-width:1px;stroke-linecap:butt;stroke-linejoin:miter;stroke-opacity:1"
        d="M 5.0742187,5.265625 C 8.4984758,4.0331615 11.955358,2.696674 15.638108,2.5569756 c 4.083904,-0.2999653 8.61717,-0.097406 11.97953,2.5162961 2.590929,1.946484 3.676574,5.3260533 3.374739,8.4757753 -0.137744,3.164843 -1.851152,6.101845 -4.389303,7.958941 -5.734551,4.704037 -12.879293,7.330624 -18.4657022,12.231234 -2.3466305,2.05405 -4.3732359,4.645965 -4.9654968,7.776403 -0.8021364,3.69765 -0.4981885,7.799564 1.684107,10.992533 2.3563554,3.574106 6.522706,5.473645 10.656435,6.045592 5.5886,0.628322 11.454865,0.112028 16.557548,-2.394739 1.753211,-0.757904 3.383153,-1.774551 5.078472,-2.651204"
        id="path1006" inkscape:label="s1" />
</svg>