<?xml version="1.0" encoding="UTF-8" standalone="no"?><svg width="54.400002" height="61.299999" version="1.1" id="svg1644" sodipodi:docname="11_tah.svg" inkscape:version="1.2.1 (9c6d41e410, 2022-07-14)" xmlns:inkscape="http://www.inkscape.org/namespaces/inkscape" xmlns:sodipodi="http://sodipodi.sourceforge.net/DTD/sodipodi-0.dtd" xmlns="http://www.w3.org/2000/svg" xmlns:svg="http://www.w3.org/2000/svg"><defs id="defs1648"></defs><sodipodi:namedview id="namedview1646" pagecolor="#ffffff" bordercolor="#666666" borderopacity="1.0" inkscape:showpageshadow="2" inkscape:pageopacity="0.0" inkscape:pagecheckerboard="0" inkscape:deskcolor="#d1d1d1" showgrid="false" inkscape:zoom="1.809816" inkscape:cx="28.455931" inkscape:cy="35.915253" inkscape:window-width="1920" inkscape:window-height="1027" inkscape:window-x="-8" inkscape:window-y="-8" inkscape:window-maximized="1" inkscape:current-layer="svg1644"></sodipodi:namedview><g id="g0" inkscape:label="g0"><path d="m 19.3,61.3 v 0 q -9,0 -14.15,-4.5 Q 0,52.3 0,45 v 0 Q 0,38.5 3.9,34.15 7.8,29.8 15.6,25.5 v 0 q 6.7,-3.7 9.7,-6.3 3,-2.6 3,-6.6 v 0 Q 28.3,8.7 25.6,6.8 22.9,4.9 18.2,4.9 v 0 Q 15,4.9 12.05,5.55 9.1,6.2 5.9,7.5 v 0 L 4.2,2.9 Q 7.5,1.5 11,0.75 14.5,0 18.3,0 v 0 q 7.5,0 11.45,3.45 3.95,3.45 3.95,9.05 v 0 q 0,5.9 -3.65,9.4 -3.65,3.5 -10.35,7.3 v 0 Q 14.6,32.1 11.45,34.45 8.3,36.8 6.9,39.4 5.5,42 5.5,45.4 v 0 q 0,4.9 3.65,7.9 3.65,3 10.25,3 v 0 q 4.7,0 8.4,-1.2 3.7,-1.2 8.1,-4 v 0 l 2.5,4.8 Q 33.6,58.7 29.35,60 25.1,61.3 19.3,61.3 Z" id="g0p0" inkscape:label="g0p0"></path><path style="fill:none;stroke:#000000;stroke-width:1px;stroke-linecap:butt;stroke-linejoin:miter;stroke-opacity:1" d="M 5.0742187,5.265625 C 8.4984758,4.0331615 11.955358,2.696674 15.638108,2.5569756 c 4.083904,-0.2999653 8.61717,-0.097406 11.97953,2.5162961 2.590929,1.946484 3.676574,5.3260533 3.374739,8.4757753 -0.137744,3.164843 -1.851152,6.101845 -4.389303,7.958941 -5.734551,4.704037 -12.879293,7.330624 -18.4657022,12.231234 -2.3466305,2.05405 -4.3732359,4.645965 -4.9654968,7.776403 -0.8021364,3.69765 -0.4981885,7.799564 1.684107,10.992533 2.3563554,3.574106 6.522706,5.473645 10.656435,6.045592 5.5886,0.628322 11.454865,0.112028 16.557548,-2.394739 1.753211,-0.757904 3.383153,-1.774551 5.078472,-2.651204" id="g0s0" inkscape:label="g0s0"></path></g><g id="g1" inkscape:label="g1" transform="translate(-8)"><path style="display:inline" d="m 57.8,22 v 0 Q 56,22 54.6,20.65 53.2,19.3 53.2,16.9 v 0 q 0,-2.4 1.35,-3.75 1.35,-1.35 3.25,-1.35 v 0 q 2,0 3.3,1.35 1.3,1.35 1.3,3.75 v 0 q 0,2.5 -1.35,3.8 Q 59.7,22 57.8,22 Z" id="g1p0" inkscape:label="g1p0"></path><path d="m 57.837008,13.391934 c -0.820403,0 -1.515467,0.311801 -2.085191,0.935405 -0.569724,0.623603 -0.854587,1.707464 -0.854587,2.59035 0,1.055328 0.273468,1.894793 0.820403,2.518396 0.546936,0.623603 1.347168,0.935404 2.119375,0.935404 0.865981,0 1.572439,-0.311801 2.119375,-0.935404 0.546935,-0.623603 0.820403,-1.597773 0.820403,-2.518396 0,-1.151267 -0.284863,-2.02671 -0.854587,-2.626328 -0.569724,-0.599617 -1.264788,-0.899427 -2.085191,-0.899427 z" style="display:inline;stroke-width:0.701376" id="g1s0" sodipodi:nodetypes="sssssssss" inkscape:label="g1s0"></path></g><g id="g2" inkscape:label="g2" transform="translate(-8)"><path style="display:inline" d="m 57.8,55.3 v 0 Q 56,55.3 54.6,53.95 53.2,52.6 53.2,50.2 v 0 q 0,-2.4 1.35,-3.75 1.35,-1.35 3.25,-1.35 v 0 q 2,0 3.3,1.35 1.3,1.35 1.3,3.75 v 0 q 0,2.5 -1.35,3.8 -1.35,1.3 -3.25,1.3 z" id="g2p0" inkscape:label="g2p0"></path><path d="m 57.836778,46.680782 c -0.820403,0 -1.515467,0.311801 -2.085191,0.935405 -0.569724,0.623603 -0.854587,1.707464 -0.854587,2.59035 0,1.055328 0.273468,1.894793 0.820403,2.518396 0.546936,0.623603 1.347168,0.935404 2.119375,0.935404 0.865981,0 1.572439,-0.311801 2.119375,-0.935404 0.546935,-0.623603 0.820403,-1.597773 0.820403,-2.518396 0,-1.151267 -0.284863,-2.02671 -0.854587,-2.626328 -0.569724,-0.599617 -1.264788,-0.899427 -2.085191,-0.899427 z" style="display:inline;stroke-width:0.701376" id="g2s0" sodipodi:nodetypes="sssssssss" inkscape:label="g2s0"></path></g></svg>