<svg xmlns="http://www.w3.org/2000/svg" xmlns:xlink="http://www.w3.org/1999/xlink" width="68.7" height="130.4">
    <path
        d="M24.30 90.60L24.30 90.60Q15.30 90.60 10.15 86.10Q5 81.60 5 74.30L5 74.30Q5 67.80 8.90 63.45Q12.80 59.10 20.60 54.80L20.60 54.80Q27.30 51.10 30.30 48.50Q33.30 45.90 33.30 41.90L33.30 41.90Q33.30 38.00 30.60 36.10Q27.90 34.20 23.20 34.20L23.20 34.20Q20 34.20 17.05 34.85Q14.10 35.50 10.90 36.80L10.90 36.80L9.20 32.20Q12.50 30.80 16 30.05Q19.50 29.30 23.30 29.30L23.30 29.30Q30.80 29.30 34.75 32.75Q38.70 36.20 38.70 41.80L38.70 41.80Q38.70 47.70 35.05 51.20Q31.40 54.70 24.70 58.50L24.70 58.50Q19.60 61.40 16.45 63.75Q13.30 66.10 11.90 68.70Q10.50 71.30 10.50 74.70L10.50 74.70Q10.50 79.60 14.15 82.60Q17.80 85.60 24.40 85.60L24.40 85.60Q29.10 85.60 32.80 84.40Q36.50 83.20 40.90 80.40L40.90 80.40L43.40 85.20Q38.60 88.00 34.35 89.30Q30.10 90.60 24.30 90.60ZM67.70 89.60L66.70 89.60Q60.10 89.60 56.80 86.60L56.80 86.60Q55 85.00 54.15 82.50Q53.30 80 53.30 75.80L53.30 75.80L53.30 29.30L58.60 30.00L58.60 75.50Q58.60 78.80 59.10 80.40Q59.60 82.00 60.90 83.00L60.90 83.00Q62.10 84.10 63.95 84.35Q65.80 84.60 68.20 84.60L68.20 84.60L67.70 89.60Z" />

    <g id="g225" inkscape:label="g2">
        <path style="display:inline"
            d="m 70.7,60.3 h -1 q -6.6,0 -9.9,-3 v 0 Q 58,55.7 57.15,53.2 56.3,50.7 56.3,46.5 v 0 V 0 l 5.3,0.7 v 45.5 q 0,3.3 0.5,4.9 0.5,1.6 1.8,2.6 v 0 q 1.2,1.1 3.05,1.35 1.85,0.25 4.25,0.25 v 0 z"
            id="path216" inkscape:label="p2" />
        <path
            style="display:inline;fill:none;stroke:#000000;stroke-width:1px;stroke-linecap:butt;stroke-linejoin:miter;stroke-opacity:1"
            d="m 58.96875,0.03125 c 0.0052,15.660703 -0.0419,31.322813 -0.004,46.982637 0.07316,2.661925 0.300704,5.531206 2.06529,7.674603 1.94562,2.285428 5.076187,2.956219 7.950186,3.001875 0.734456,0.05113 1.468913,0.102253 2.203369,0.15338"
            id="path81" inkscape:label="s3" />
    </g>
</svg>