<?xml version="1.0" encoding="UTF-8" standalone="no"?>
<svg
   width="58.799999"
   height="90"
   version="1.1"
   id="svg235"
   sodipodi:docname="2_ti.svg"
   inkscape:version="1.2.1 (9c6d41e410, 2022-07-14)"
   xmlns:inkscape="http://www.inkscape.org/namespaces/inkscape"
   xmlns:sodipodi="http://sodipodi.sourceforge.net/DTD/sodipodi-0.dtd"
   xmlns="http://www.w3.org/2000/svg"
   xmlns:svg="http://www.w3.org/2000/svg">
  <defs
     id="defs239" />
  <sodipodi:namedview
     id="namedview237"
     pagecolor="#ffffff"
     bordercolor="#666666"
     borderopacity="1.0"
     inkscape:showpageshadow="2"
     inkscape:pageopacity="0.0"
     inkscape:pagecheckerboard="0"
     inkscape:deskcolor="#d1d1d1"
     showgrid="false"
     inkscape:zoom="1.809816"
     inkscape:cx="24.588134"
     inkscape:cy="64.647455"
     inkscape:window-width="1920"
     inkscape:window-height="1027"
     inkscape:window-x="-8"
     inkscape:window-y="-8"
     inkscape:window-maximized="1"
     inkscape:current-layer="svg235" />
  <g
     id="g114"
     inkscape:label="g1"
     transform="translate(20.4,28.7)">
    <path
       d="m 19.3,61.3 v 0 q -9,0 -14.15,-4.5 Q 0,52.3 0,45 v 0 Q 0,38.5 3.9,34.15 7.8,29.8 15.6,25.5 v 0 q 6.7,-3.7 9.7,-6.3 3,-2.6 3,-6.6 v 0 Q 28.3,8.7 25.6,6.8 22.9,4.9 18.2,4.9 v 0 Q 15,4.9 12.05,5.55 9.1,6.2 5.9,7.5 v 0 L 4.2,2.9 Q 7.5,1.5 11,0.75 14.5,0 18.3,0 v 0 q 7.5,0 11.45,3.45 3.95,3.45 3.95,9.05 v 0 q 0,5.9 -3.65,9.4 -3.65,3.5 -10.35,7.3 v 0 Q 14.6,32.1 11.45,34.45 8.3,36.8 6.9,39.4 5.5,42 5.5,45.4 v 0 q 0,4.9 3.65,7.9 3.65,3 10.25,3 v 0 q 4.7,0 8.4,-1.2 3.7,-1.2 8.1,-4 v 0 l 2.5,4.8 Q 33.6,58.7 29.35,60 25.1,61.3 19.3,61.3 Z"
       id="path2-6"
       inkscape:label="p1" />
    <path
       style="fill:none;stroke:#000000;stroke-width:1px;stroke-linecap:butt;stroke-linejoin:miter;stroke-opacity:1"
       d="M 5.0742187,5.265625 C 8.4984758,4.0331615 11.955358,2.696674 15.638108,2.5569756 c 4.083904,-0.2999653 8.61717,-0.097406 11.97953,2.5162961 2.590929,1.946484 3.676574,5.3260533 3.374739,8.4757753 -0.137744,3.164843 -1.851152,6.101845 -4.389303,7.958941 -5.734551,4.704037 -12.879293,7.330624 -18.4657022,12.231234 -2.3466305,2.05405 -4.3732359,4.645965 -4.9654968,7.776403 -0.8021364,3.69765 -0.4981885,7.799564 1.684107,10.992533 2.3563554,3.574106 6.522706,5.473645 10.656435,6.045592 5.5886,0.628322 11.454865,0.112028 16.557548,-2.394739 1.753211,-0.757904 3.383153,-1.774551 5.078472,-2.651204"
       id="path1006-8"
       inkscape:label="s1" />
  </g>
  <g
     id="g309"
     inkscape:label="g2">
    <path
       style="display:inline"
       d="M 14.3,89 H 13.4 Q 10.3,89 7.8,88.35 5.3,87.7 3.5,86 v 0 Q 1.6,84.3 0.8,81.8 0,79.3 0,75.2 v 0 -53.4 Q 0,15.2 1.35,11.1 2.7,7 6.1,4.1 v 0 Q 8.3,2.2 11.45,1.1 14.6,0 18.7,0 V 0 Q 27.8,0 35.05,5.25 42.3,10.5 49.6,19 v 0 l -3.9,3.1 Q 39.3,14.5 32.95,9.7 26.6,4.9 19,4.9 v 0 q -5.9,0 -9.3,2.9 v 0 q -2.4,2.1 -3.4,5.6 -1,3.5 -1,10.1 v 0 51.4 q 0,3.2 0.5,4.85 0.5,1.65 1.7,2.55 v 0 q 1.2,1.2 3.15,1.45 Q 12.6,84 14.9,84 v 0 z"
       id="path2"
       inkscape:label="p2" />
    <path
       style="display:inline;fill:none;stroke:#000000;stroke-width:1px;stroke-linecap:butt;stroke-linejoin:miter;stroke-opacity:1"
       d="M 47.652368,20.738116 C 42.912163,15.169343 37.771996,9.7590782 31.535156,5.8554687 25.556372,2.3479405 17.925665,1.3282836 11.384063,3.8090168 7.098823,5.5445734 4.0571601,9.6376118 3.3691387,14.177325 2.2636698,19.814013 2.8760079,25.587166 2.7106596,31.290784 c 0.017146,15.362435 -0.08206,30.727062 0.00809,46.088122 0.1319749,2.783277 1.0109143,5.743286 3.4696807,7.348394 2.457118,1.869621 5.6943627,1.540296 8.5928207,1.741457"
       id="path491"
       inkscape:label="s2" />
  </g>
</svg>
