<svg xmlns="http://www.w3.org/2000/svg" xmlns:xlink="http://www.w3.org/1999/xlink" width="68.7" height="130.4"><path d="M24 89.60L23.10 89.60Q20 89.60 17.50 88.95Q15 88.30 13.20 86.60L13.20 86.60Q11.30 84.90 10.50 82.40Q9.70 79.90 9.70 75.80L9.70 75.80L9.70 22.40Q9.70 15.80 11.05 11.70Q12.40 7.60 15.80 4.70L15.80 4.70Q18 2.80 21.15 1.70Q24.30 0.60 28.40 0.60L28.40 0.60Q37.50 0.60 44.75 5.85Q52 11.10 59.30 19.60L59.30 19.60L55.40 22.70Q49 15.10 42.65 10.30Q36.30 5.50 28.70 5.50L28.70 5.50Q22.80 5.50 19.40 8.40L19.40 8.40Q17 10.50 16 14Q15 17.50 15 24.10L15 24.10L15 75.50Q15 78.70 15.50 80.35Q16 82.00 17.20 82.90L17.20 82.90Q18.40 84.10 20.35 84.35Q22.30 84.60 24.60 84.60L24.60 84.60L24 89.60ZM49.40 90.60L49.40 90.60Q40.40 90.60 35.25 86.10Q30.10 81.60 30.10 74.30L30.10 74.30Q30.10 67.80 34 63.45Q37.90 59.10 45.70 54.80L45.70 54.80Q52.40 51.10 55.40 48.50Q58.40 45.90 58.40 41.90L58.40 41.90Q58.40 38.00 55.70 36.10Q53 34.20 48.30 34.20L48.30 34.20Q45.10 34.20 42.15 34.85Q39.20 35.50 36 36.80L36 36.80L34.30 32.20Q37.60 30.80 41.10 30.05Q44.60 29.30 48.40 29.30L48.40 29.30Q55.90 29.30 59.85 32.75Q63.80 36.20 63.80 41.80L63.80 41.80Q63.80 47.70 60.15 51.20Q56.50 54.70 49.80 58.50L49.80 58.50Q44.70 61.40 41.55 63.75Q38.40 66.10 37 68.70Q35.60 71.30 35.60 74.70L35.60 74.70Q35.60 79.60 39.25 82.60Q42.90 85.60 49.50 85.60L49.50 85.60Q54.20 85.60 57.90 84.40Q61.60 83.20 66 80.40L66 80.40L68.50 85.20Q63.70 88.00 59.45 89.30Q55.20 90.60 49.40 90.60Z"/></svg>