<?xml version="1.0" encoding="UTF-8" standalone="no"?><svg width="63.200001" height="90" version="1.1" id="svg351" sodipodi:docname="3_tee.svg" inkscape:version="1.2.1 (9c6d41e410, 2022-07-14)" xmlns:inkscape="http://www.inkscape.org/namespaces/inkscape" xmlns:sodipodi="http://sodipodi.sourceforge.net/DTD/sodipodi-0.dtd" xmlns="http://www.w3.org/2000/svg" xmlns:svg="http://www.w3.org/2000/svg"><defs id="defs355"></defs><sodipodi:namedview id="namedview353" pagecolor="#ffffff" bordercolor="#666666" borderopacity="1.0" inkscape:showpageshadow="2" inkscape:pageopacity="0.0" inkscape:pagecheckerboard="0" inkscape:deskcolor="#d1d1d1" showgrid="false" inkscape:zoom="1.809816" inkscape:cx="29.561016" inkscape:cy="64.647455" inkscape:window-width="1920" inkscape:window-height="1027" inkscape:window-x="-8" inkscape:window-y="-8" inkscape:window-maximized="1" inkscape:current-layer="svg351"></sodipodi:namedview><g id="g0" inkscape:label="g0" transform="translate(0,28.7)"><path d="m 19.3,61.3 v 0 q -9,0 -14.15,-4.5 Q 0,52.3 0,45 v 0 Q 0,38.5 3.9,34.15 7.8,29.8 15.6,25.5 v 0 q 6.7,-3.7 9.7,-6.3 3,-2.6 3,-6.6 v 0 Q 28.3,8.7 25.6,6.8 22.9,4.9 18.2,4.9 v 0 Q 15,4.9 12.05,5.55 9.1,6.2 5.9,7.5 v 0 L 4.2,2.9 Q 7.5,1.5 11,0.75 14.5,0 18.3,0 v 0 q 7.5,0 11.45,3.45 3.95,3.45 3.95,9.05 v 0 q 0,5.9 -3.65,9.4 -3.65,3.5 -10.35,7.3 v 0 Q 14.6,32.1 11.45,34.45 8.3,36.8 6.9,39.4 5.5,42 5.5,45.4 v 0 q 0,4.9 3.65,7.9 3.65,3 10.25,3 v 0 q 4.7,0 8.4,-1.2 3.7,-1.2 8.1,-4 v 0 l 2.5,4.8 Q 33.6,58.7 29.35,60 25.1,61.3 19.3,61.3 Z" id="g0p0" inkscape:label="g0p0"></path><path style="fill:none;stroke:#000000;stroke-width:1px;stroke-linecap:butt;stroke-linejoin:miter;stroke-opacity:1" d="M 5.0742187,5.265625 C 8.4984758,4.0331615 11.955358,2.696674 15.638108,2.5569756 c 4.083904,-0.2999653 8.61717,-0.097406 11.97953,2.5162961 2.590929,1.946484 3.676574,5.3260533 3.374739,8.4757753 -0.137744,3.164843 -1.851152,6.101845 -4.389303,7.958941 -5.734551,4.704037 -12.879293,7.330624 -18.4657022,12.231234 -2.3466305,2.05405 -4.3732359,4.645965 -4.9654968,7.776403 -0.8021364,3.69765 -0.4981885,7.799564 1.684107,10.992533 2.3563554,3.574106 6.522706,5.473645 10.656435,6.045592 5.5886,0.628322 11.454865,0.112028 16.557548,-2.394739 1.753211,-0.757904 3.383153,-1.774551 5.078472,-2.651204" id="g0s0" inkscape:label="g0s0"></path></g><g id="g1" inkscape:label="g1" transform="matrix(0.99899518,0,0,1,-7.9703578,0)"><path style="display:inline" d="m 70.7,89 h -1 q -3,0 -5.55,-0.65 Q 61.6,87.7 59.8,86 v 0 Q 56.3,82.7 56.3,75.2 v 0 -46.7 Q 54.9,17.1 51.4,11 47.9,4.9 42.4,4.9 v 0 q -3.6,0 -5.6,2.6 -2,2.6 -2,7.7 v 0 q 0,3.9 0.6,7 v 0 H 30.3 Q 30,20.7 29.75,18.6 29.5,16.5 29.5,14.6 v 0 Q 29.5,8 32.85,4 36.2,0 42.4,0 v 0 q 5.9,0 9.9,3.95 4,3.95 6.25,10.4 2.25,6.45 3.05,13.85 v 0 46.7 q 0,3.3 0.5,4.85 0.5,1.55 1.7,2.55 v 0 Q 65,83.5 67,83.75 69,84 71.2,84 v 0 z" id="g1p0" inkscape:label="g1p0"></path><path style="display:inline;fill:none;stroke:#000000;stroke-width:1px;stroke-linecap:butt;stroke-linejoin:miter;stroke-opacity:1" d="M 32.90625,22.296875 C 32.189196,17.24716 31.309374,11.67002 33.948338,7.0048776 36.015851,3.1824285 40.814237,1.7827514 44.871275,2.7018315 c 5.299598,1.0610536 8.634255,5.9944562 10.53375,10.6924095 1.94946,4.911209 3.041647,10.154719 3.53254,15.40287 0.03373,16.081561 -0.05668,32.165472 0.05492,48.245568 0.09206,3.485135 1.641413,7.400064 5.196702,8.60873 2.224083,0.864628 4.672997,0.637872 7.006103,0.85642" id="g1s0" inkscape:label="g1s0"></path></g></svg>