<svg xmlns="http://www.w3.org/2000/svg" xmlns:xlink="http://www.w3.org/1999/xlink" width="43.6" height="130.4"><path d="M24.30 90.60L24.30 90.60Q15.30 90.60 10.15 86.10Q5 81.60 5 74.30L5 74.30Q5 67.80 8.90 63.45Q12.80 59.10 20.60 54.80L20.60 54.80Q27.30 51.10 30.30 48.50Q33.30 45.90 33.30 41.90L33.30 41.90Q33.30 38.00 30.60 36.10Q27.90 34.20 23.20 34.20L23.20 34.20Q20 34.20 17.05 34.85Q14.10 35.50 10.90 36.80L10.90 36.80L9.20 32.20Q12.50 30.80 16 30.05Q19.50 29.30 23.30 29.30L23.30 29.30Q30.80 29.30 34.75 32.75Q38.70 36.20 38.70 41.80L38.70 41.80Q38.70 47.70 35.05 51.20Q31.40 54.70 24.70 58.50L24.70 58.50Q19.60 61.40 16.45 63.75Q13.30 66.10 11.90 68.70Q10.50 71.30 10.50 74.70L10.50 74.70Q10.50 79.60 14.15 82.60Q17.80 85.60 24.40 85.60L24.40 85.60Q29.10 85.60 32.80 84.40Q36.50 83.20 40.90 80.40L40.90 80.40L43.40 85.20Q38.60 88.00 34.35 89.30Q30.10 90.60 24.30 90.60ZM27.90 116.30L27.90 116.30Q21.30 116.30 16.15 114.05Q11 111.80 6.85 108.00Q2.70 104.20-0.80 99.40L-0.80 99.40L3.40 96.50Q8.50 103.20 14.10 107.30Q19.70 111.40 27.90 111.40L27.90 111.40Q33.60 111.40 36.60 109.20Q39.60 107.00 39.60 102.70L39.60 102.70Q39.60 98.80 37 96.80Q34.40 94.80 30 94.80L30 94.80Q27.50 94.80 25.30 95.35Q23.10 95.90 20.90 96.80L20.90 96.80L19.10 92.30Q21.70 91.20 24.30 90.65Q26.90 90.10 29.70 90.10L29.70 90.10Q36.80 90.10 40.70 93.65Q44.60 97.20 44.60 103.10L44.60 103.10Q44.60 109.30 40.15 112.80Q35.70 116.30 27.90 116.30Z"/></svg>