<svg xmlns="http://www.w3.org/2000/svg" xmlns:xlink="http://www.w3.org/1999/xlink" width="43.6" height="130.4"><path d="M24.30 90.60L24.30 90.60Q15.30 90.60 10.15 86.10Q5 81.60 5 74.30L5 74.30Q5 67.80 8.90 63.45Q12.80 59.10 20.60 54.80L20.60 54.80Q27.30 51.10 30.30 48.50Q33.30 45.90 33.30 41.90L33.30 41.90Q33.30 38.00 30.60 36.10Q27.90 34.20 23.20 34.20L23.20 34.20Q20 34.20 17.05 34.85Q14.10 35.50 10.90 36.80L10.90 36.80L9.20 32.20Q12.50 30.80 16 30.05Q19.50 29.30 23.30 29.30L23.30 29.30Q30.80 29.30 34.75 32.75Q38.70 36.20 38.70 41.80L38.70 41.80Q38.70 47.70 35.05 51.20Q31.40 54.70 24.70 58.50L24.70 58.50Q19.60 61.40 16.45 63.75Q13.30 66.10 11.90 68.70Q10.50 71.30 10.50 74.70L10.50 74.70Q10.50 79.60 14.15 82.60Q17.80 85.60 24.40 85.60L24.40 85.60Q29.10 85.60 32.80 84.40Q36.50 83.20 40.90 80.40L40.90 80.40L43.40 85.20Q38.60 88.00 34.35 89.30Q30.10 90.60 24.30 90.60ZM26.10 116.10L26.10 116.10Q19 116.10 15.10 112.50Q11.20 108.90 11.20 103.00L11.20 103.00Q11.20 97.60 15.30 93.85Q19.40 90.10 27.30 90.10L27.30 90.10Q34.60 90.10 39.95 92.85Q45.30 95.60 49.40 99.95Q53.50 104.30 56.90 109.20L56.90 109.20L52.80 111.90Q49.10 106.80 45.45 102.95Q41.80 99.10 37.45 96.95Q33.10 94.80 27.50 94.80L27.50 94.80Q21.70 94.80 18.95 97.15Q16.20 99.50 16.20 103.10L16.20 103.10Q16.20 107.30 18.90 109.25Q21.60 111.20 25.80 111.20L25.80 111.20Q28.50 111.20 30.75 110.65Q33 110.10 35.20 109.10L35.20 109.10L36.90 113.90Q34.30 114.90 31.60 115.50Q28.90 116.10 26.10 116.10Z"/></svg>