<svg xmlns="http://www.w3.org/2000/svg" xmlns:xlink="http://www.w3.org/1999/xlink" width="43.6" height="130.4"><path d="M24.30 90.60L24.30 90.60Q15.30 90.60 10.15 86.10Q5 81.60 5 74.30L5 74.30Q5 67.80 8.90 63.45Q12.80 59.10 20.60 54.80L20.60 54.80Q27.30 51.10 30.30 48.50Q33.30 45.90 33.30 41.90L33.30 41.90Q33.30 38.00 30.60 36.10Q27.90 34.20 23.20 34.20L23.20 34.20Q20 34.20 17.05 34.85Q14.10 35.50 10.90 36.80L10.90 36.80L9.20 32.20Q12.50 30.80 16 30.05Q19.50 29.30 23.30 29.30L23.30 29.30Q30.80 29.30 34.75 32.75Q38.70 36.20 38.70 41.80L38.70 41.80Q38.70 47.70 35.05 51.20Q31.40 54.70 24.70 58.50L24.70 58.50Q19.60 61.40 16.45 63.75Q13.30 66.10 11.90 68.70Q10.50 71.30 10.50 74.70L10.50 74.70Q10.50 79.60 14.15 82.60Q17.80 85.60 24.40 85.60L24.40 85.60Q29.10 85.60 32.80 84.40Q36.50 83.20 40.90 80.40L40.90 80.40L43.40 85.20Q38.60 88.00 34.35 89.30Q30.10 90.60 24.30 90.60ZM33.10 25.50L28.70 25.50Q26.80 17.70 24.95 13.15Q23.10 8.60 20.65 6.70Q18.20 4.80 14.40 4.80L14.40 4.80Q13.20 4.80 11.85 5Q10.50 5.20 9 5.70L9 5.70L7.50 1.10Q9.40 0.50 11.20 0.25Q13 0 14.70 0L14.70 0Q19.30 0 22.65 2.25Q26 4.50 28.50 10.05Q31 15.60 33.10 25.50L33.10 25.50ZM27.80 23.70L25 26.60Q18.90 21.20 14.70 18.85Q10.50 16.50 5.60 16.50L5.60 16.50Q2.10 16.50-0.80 17.40L-0.80 17.40L-2.30 12.70Q-0.50 12.30 1.45 12Q3.40 11.70 5.60 11.70L5.60 11.70Q9.40 11.70 12.75 12.90Q16.10 14.10 19.65 16.75Q23.20 19.40 27.80 23.70L27.80 23.70Z"/></svg>