<?xml version="1.0" encoding="UTF-8" standalone="no"?>
<svg
   width="45.700001"
   height="90.599998"
   version="1.1"
   id="svg793"
   sodipodi:docname="7_tai.svg"
   inkscape:version="1.2.1 (9c6d41e410, 2022-07-14)"
   xmlns:inkscape="http://www.inkscape.org/namespaces/inkscape"
   xmlns:sodipodi="http://sodipodi.sourceforge.net/DTD/sodipodi-0.dtd"
   xmlns="http://www.w3.org/2000/svg"
   xmlns:svg="http://www.w3.org/2000/svg">
  <defs
     id="defs797" />
  <sodipodi:namedview
     id="namedview795"
     pagecolor="#ffffff"
     bordercolor="#666666"
     borderopacity="1.0"
     inkscape:showpageshadow="2"
     inkscape:pageopacity="0.0"
     inkscape:pagecheckerboard="0"
     inkscape:deskcolor="#d1d1d1"
     showgrid="false"
     inkscape:zoom="1.809816"
     inkscape:cx="24.035592"
     inkscape:cy="65.199997"
     inkscape:window-width="1920"
     inkscape:window-height="1027"
     inkscape:window-x="-8"
     inkscape:window-y="-8"
     inkscape:window-maximized="1"
     inkscape:current-layer="svg793" />
  <g
     id="g114"
     inkscape:label="g1"
     transform="translate(7.3,29.3)">
    <path
       d="m 19.3,61.3 v 0 q -9,0 -14.15,-4.5 Q 0,52.3 0,45 v 0 Q 0,38.5 3.9,34.15 7.8,29.8 15.6,25.5 v 0 q 6.7,-3.7 9.7,-6.3 3,-2.6 3,-6.6 v 0 Q 28.3,8.7 25.6,6.8 22.9,4.9 18.2,4.9 v 0 Q 15,4.9 12.05,5.55 9.1,6.2 5.9,7.5 v 0 L 4.2,2.9 Q 7.5,1.5 11,0.75 14.5,0 18.3,0 v 0 q 7.5,0 11.45,3.45 3.95,3.45 3.95,9.05 v 0 q 0,5.9 -3.65,9.4 -3.65,3.5 -10.35,7.3 v 0 Q 14.6,32.1 11.45,34.45 8.3,36.8 6.9,39.4 5.5,42 5.5,45.4 v 0 q 0,4.9 3.65,7.9 3.65,3 10.25,3 v 0 q 4.7,0 8.4,-1.2 3.7,-1.2 8.1,-4 v 0 l 2.5,4.8 Q 33.6,58.7 29.35,60 25.1,61.3 19.3,61.3 Z"
       id="path2"
       inkscape:label="p1" />
    <path
       style="fill:none;stroke:#000000;stroke-width:1px;stroke-linecap:butt;stroke-linejoin:miter;stroke-opacity:1"
       d="M 5.0742187,5.265625 C 8.4984758,4.0331615 11.955358,2.696674 15.638108,2.5569756 c 4.083904,-0.2999653 8.61717,-0.097406 11.97953,2.5162961 2.590929,1.946484 3.676574,5.3260533 3.374739,8.4757753 -0.137744,3.164843 -1.851152,6.101845 -4.389303,7.958941 -5.734551,4.704037 -12.879293,7.330624 -18.4657022,12.231234 -2.3466305,2.05405 -4.3732359,4.645965 -4.9654968,7.776403 -0.8021364,3.69765 -0.4981885,7.799564 1.684107,10.992533 2.3563554,3.574106 6.522706,5.473645 10.656435,6.045592 5.5886,0.628322 11.454865,0.112028 16.557548,-2.394739 1.753211,-0.757904 3.383153,-1.774551 5.078472,-2.651204"
       id="path1006-7"
       inkscape:label="s1" />
  </g>
  <g
     id="g522"
     inkscape:label="g2"
     transform="translate(-0.7)">
    <path
       style="display:inline"
       d="M 30.8,23.7 28,26.6 Q 21.9,21.2 17.7,18.85 13.5,16.5 8.6,16.5 v 0 q -3.5,0 -6.4,0.9 v 0 L 0.7,12.7 Q 2.5,12.3 4.45,12 6.4,11.7 8.6,11.7 v 0 q 3.8,0 7.15,1.2 3.35,1.2 6.9,3.85 3.55,2.65 8.15,6.95 z"
       id="path513"
       inkscape:label="p2" />
    <path
       style="display:inline;fill:none;stroke:#000000;stroke-width:1px;stroke-linecap:butt;stroke-linejoin:miter;stroke-opacity:1"
       d="m 1.2484854,15.037068 c 2.0296352,-0.33742 4.0471341,-0.823273 6.106769,-0.926121 1.7144665,-0.03627 3.4419196,-0.0066 5.1213336,0.377952 1.626492,0.286246 3.200444,0.851561 4.696094,1.542318 3.239677,1.543111 6.000222,3.881137 8.751411,6.145612 1.177108,1.030396 2.354216,2.060791 3.531324,3.091187"
       id="path660"
       inkscape:label="s2" />
  </g>
  <g
     id="g526"
     inkscape:label="g3"
     transform="translate(-0.7)">
    <path
       style="display:inline"
       d="M 36.1,25.5 H 31.7 Q 29.8,17.7 27.95,13.15 26.1,8.6 23.65,6.7 21.2,4.8 17.4,4.8 v 0 Q 16.2,4.8 14.85,5 13.5,5.2 12,5.7 v 0 L 10.5,1.1 Q 12.4,0.5 14.2,0.25 16,0 17.7,0 v 0 q 4.6,0 7.95,2.25 3.35,2.25 5.85,7.8 2.5,5.55 4.6,15.45 z"
       id="path511"
       inkscape:label="p3" />
    <path
       style="display:inline;fill:none;stroke:#000000;stroke-width:1px;stroke-linecap:butt;stroke-linejoin:miter;stroke-opacity:1"
       d="m 11.023437,3.453125 c 2.182778,-0.4976057 4.36528,-1.1946393 6.631852,-1.0710196 2.053103,-0.044291 4.123749,0.4216957 5.902797,1.4638298 1.290672,0.6572076 2.43165,1.6018918 3.277933,2.7802163 1.787546,2.2624393 2.976329,4.9290225 3.905851,7.6409995 1.112879,3.208175 2.009172,6.487831 2.71558,9.809147 0.117031,0.515091 0.234062,1.030183 0.351093,1.545274"
       id="path662"
       inkscape:label="s3" />
  </g>
</svg>
