<?xml version="1.0" encoding="UTF-8" standalone="no"?>
<svg
   width="55.299999"
   height="60.299999"
   version="1.1"
   id="svg4"
   sodipodi:docname="0_gh.svg"
   inkscape:version="1.2.1 (9c6d41e410, 2022-07-14)"
   xmlns:inkscape="http://www.inkscape.org/namespaces/inkscape"
   xmlns:sodipodi="http://sodipodi.sourceforge.net/DTD/sodipodi-0.dtd"
   xmlns="http://www.w3.org/2000/svg"
   xmlns:svg="http://www.w3.org/2000/svg">
  <defs
     id="defs8" />
  <sodipodi:namedview
     id="namedview6"
     pagecolor="#ffffff"
     bordercolor="#666666"
     borderopacity="1.0"
     inkscape:showpageshadow="2"
     inkscape:pageopacity="0.0"
     inkscape:pagecheckerboard="0"
     inkscape:deskcolor="#d1d1d1"
     showgrid="false"
     inkscape:zoom="16"
     inkscape:cx="20.03125"
     inkscape:cy="17.875"
     inkscape:window-width="1920"
     inkscape:window-height="1017"
     inkscape:window-x="-8"
     inkscape:window-y="-8"
     inkscape:window-maximized="1"
     inkscape:current-layer="svg4" />
  <path
     style="display:inline;fill:none;stroke:#000000;stroke-width:1px;stroke-linecap:butt;stroke-linejoin:miter;stroke-opacity:1"
     d="M 24.046875,3.515625 C 18.883556,2.422831 13.22993,1.6388162 8.2539063,3.8867188 5.0703867,5.4169767 2.6880077,8.6915741 2.7340407,12.297513 c -0.2698355,4.420603 2.7001784,8.321779 6.2168579,10.675941 1.0289027,0.843306 2.3477234,1.546284 3.6837414,0.953044 3.613375,-1.873559 7.856153,-2.031314 11.796355,-1.306361 1.635011,0.229479 2.361458,0.353009 0.129818,0.01853 -4.000504,-0.739853 -8.304694,-0.615968 -11.969537,1.318752 -3.543736,1.740876 -5.9891317,5.586954 -5.9981156,9.556037 -0.4131812,4.630875 2.3927818,9.151383 6.4952856,11.199104 4.719639,2.377178 10.311928,2.330631 15.371687,1.221191 5.297918,-1.2076 9.829378,-4.513069 13.75286,-8.135252 1.338554,-1.072065 0.678257,-2.882271 0.833293,-4.352953 0.0041,-11.148514 0.0082,-22.297027 0.01231,-33.445541 0.02863,15.911724 -0.03602,31.825225 0.05097,47.735837 0.02234,3.027854 0.773843,6.411151 3.424714,8.226674 2.554086,1.858648 5.791278,1.544308 8.758696,1.943739"
     id="path340"
     sodipodi:nodetypes="ccccccccccccccccc"
     inkscape:label="s1" />
  <path
     d="m 22.1,49.1 v 0 Q 13.8,49.1 8.85,44.9 3.9,40.7 3.8,34.2 v 0 q 0,-5.7 3.6,-9.5 v 0 Q 4.2,22.5 2.1,19.5 0,16.5 0,12.3 v 0 Q 0,7.1 4.1,3.55 8.2,0 15.6,0 v 0 q 2,0 4.4,0.3 2.4,0.3 4.5,0.8 v 0 l -1,4.8 q -3.8,-1 -7.5,-1 v 0 q -5.4,0 -8,2.2 -2.6,2.2 -2.6,5.7 v 0 q 0,5.5 5.9,8.9 v 0 q 3.9,-2 9.1,-2 v 0 q 3,0 5.9,0.6 v 0 l -0.8,4.9 q -2.1,-0.5 -5.2,-0.5 v 0 q -4.8,0 -7.9,2.45 Q 9.3,29.6 9.3,34 v 0 q 0,4.8 3.5,7.5 3.5,2.7 9.3,2.7 v 0 q 5.5,0 9.85,-2.05 Q 36.3,40.1 40.4,36 V 36 0 l 5.3,0.8 v 45.4 q 0,3.2 0.55,4.85 0.55,1.65 1.65,2.55 v 0 q 1.2,1.2 3.15,1.45 1.95,0.25 4.25,0.25 v 0 l -0.5,5 h -1 q -6.7,0 -9.9,-3 v 0 q -1.7,-1.6 -2.6,-4.1 -0.9,-2.5 -0.9,-6.7 v 0 -4 q -4,3.2 -8.35,4.9 -4.35,1.7 -9.95,1.7 z"
     id="path2"
     style="display:inline"
     inkscape:label="p1" />
</svg>
