<?xml version="1.0" encoding="UTF-8" standalone="no"?><svg width="75.599998" height="89" version="1.1" id="svg14" sodipodi:docname="2_ghi.svg" inkscape:version="1.2.1 (9c6d41e410, 2022-07-14)" xmlns:inkscape="http://www.inkscape.org/namespaces/inkscape" xmlns:sodipodi="http://sodipodi.sourceforge.net/DTD/sodipodi-0.dtd" xmlns="http://www.w3.org/2000/svg" xmlns:svg="http://www.w3.org/2000/svg"><defs id="defs18"></defs><sodipodi:namedview id="namedview16" pagecolor="#ffffff" bordercolor="#666666" borderopacity="1.0" inkscape:showpageshadow="2" inkscape:pageopacity="0.0" inkscape:pagecheckerboard="0" inkscape:deskcolor="#d1d1d1" showgrid="false" inkscape:zoom="3.6196321" inkscape:cx="14.780508" inkscape:cy="51.386438" inkscape:window-width="1920" inkscape:window-height="1027" inkscape:window-x="-8" inkscape:window-y="-8" inkscape:window-maximized="1" inkscape:current-layer="svg14"></sodipodi:namedview><g id="g0" inkscape:label="g0" transform="translate(20.3,28.700894)" style="display:inline"><path style="display:inline" d="m 22.1,49.1 v 0 Q 13.8,49.1 8.85,44.9 3.9,40.7 3.8,34.2 v 0 q 0,-5.7 3.6,-9.5 v 0 Q 4.2,22.5 2.1,19.5 0,16.5 0,12.3 v 0 Q 0,7.1 4.1,3.55 8.2,0 15.6,0 v 0 q 2,0 4.4,0.3 2.4,0.3 4.5,0.8 v 0 l -1,4.8 q -3.8,-1 -7.5,-1 v 0 q -5.4,0 -8,2.2 -2.6,2.2 -2.6,5.7 v 0 q 0,5.5 5.9,8.9 v 0 q 3.9,-2 9.1,-2 v 0 q 3,0 5.9,0.6 v 0 l -0.8,4.9 q -2.1,-0.5 -5.2,-0.5 v 0 q -4.8,0 -7.9,2.45 Q 9.3,29.6 9.3,34 v 0 q 0,4.8 3.5,7.5 3.5,2.7 9.3,2.7 v 0 q 5.5,0 9.85,-2.05 Q 36.3,40.1 40.4,36 V 36 0 l 5.3,0.8 v 45.4 q 0,3.2 0.55,4.85 0.55,1.65 1.65,2.55 v 0 q 1.2,1.2 3.15,1.45 1.95,0.25 4.25,0.25 v 0 l -0.5,5 h -1 q -6.7,0 -9.9,-3 v 0 q -1.7,-1.6 -2.6,-4.1 -0.9,-2.5 -0.9,-6.7 v 0 -4 q -4,3.2 -8.35,4.9 -4.35,1.7 -9.95,1.7 z" id="g0p0" inkscape:label="g0p0"></path><path style="display:inline;fill:none;stroke:#000000;stroke-width:1px;stroke-linecap:butt;stroke-linejoin:miter;stroke-opacity:1" d="M 24.046875,3.515625 C 19.427429,2.542189 14.513866,1.813018 9.9094542,3.2543742 6.1052068,4.3090891 2.9419526,7.7756895 2.7434073,11.792758 c -0.2926764,3.012391 0.9108014,6.003766 2.8840984,8.246302 1.1871188,1.405854 2.6465661,2.541729 4.205698,3.505386" id="g0s0" inkscape:label="g0s0"></path><path id="g0s1" style="display:inline;fill:none;stroke:#000000;stroke-width:1px;stroke-linecap:butt;stroke-linejoin:miter;stroke-opacity:1" inkscape:label="g0s1" d="m 25.962734,22.826285 c -3.876256,-0.571126 -7.96293,-1.166643 -11.711762,0.366216 -4.260747,1.452127 -7.5920425,5.474396 -7.7197537,10.049286 -0.394964,5.071637 2.7954798,10.082388 7.5331557,11.920456 5.784684,2.351568 12.488285,1.833539 18.199623,-0.485093 4.083601,-1.792839 7.606063,-4.616598 10.809636,-7.677228 C 43.065151,24.666618 43.079438,12.3333 43.057253,5e-6" sodipodi:nodetypes="ccccccccc"></path><path style="display:inline;fill:none;stroke:#000000;stroke-width:1px;stroke-linecap:butt;stroke-linejoin:miter;stroke-opacity:1" d="m 43.071066,36.984297 c 0.007,3.583959 0.01891,7.167826 0.0385,10.751545 0.02234,3.027854 0.773843,6.411151 3.424714,8.226674 2.554086,1.858648 5.791278,1.544308 8.758696,1.943739" id="g0s2" inkscape:label="g0s2"></path></g><g id="g1" inkscape:label="g1"><path style="display:inline" d="M 14.3,89 H 13.4 Q 10.3,89 7.8,88.35 5.3,87.7 3.5,86 v 0 Q 1.6,84.3 0.8,81.8 0,79.3 0,75.2 v 0 -53.4 Q 0,15.2 1.35,11.1 2.7,7 6.1,4.1 v 0 Q 8.3,2.2 11.45,1.1 14.6,0 18.7,0 V 0 Q 27.8,0 35.05,5.25 42.3,10.5 49.6,19 v 0 l -3.9,3.1 Q 39.3,14.5 32.95,9.7 26.6,4.9 19,4.9 v 0 q -5.9,0 -9.3,2.9 v 0 q -2.4,2.1 -3.4,5.6 -1,3.5 -1,10.1 v 0 51.4 q 0,3.2 0.5,4.85 0.5,1.65 1.7,2.55 v 0 q 1.2,1.2 3.15,1.45 Q 12.6,84 14.9,84 v 0 z" id="g1p0" inkscape:label="g1p0"></path><path style="display:inline;fill:none;stroke:#000000;stroke-width:1px;stroke-linecap:butt;stroke-linejoin:miter;stroke-opacity:1" d="M 47.652368,20.738116 C 42.912163,15.169343 37.771996,9.7590782 31.535156,5.8554687 25.556372,2.3479405 17.925665,1.3282836 11.384063,3.8090168 7.098823,5.5445734 4.0571601,9.6376118 3.3691387,14.177325 2.2636698,19.814013 2.8760079,25.587166 2.7106596,31.290784 c 0.017146,15.362435 -0.08206,30.727062 0.00809,46.088122 0.1319749,2.783277 1.0109143,5.743286 3.4696807,7.348394 2.457118,1.869621 5.6943627,1.540296 8.5928207,1.741457" id="g1s0" inkscape:label="g1s0"></path></g></svg>