<svg xmlns="http://www.w3.org/2000/svg" xmlns:xlink="http://www.w3.org/1999/xlink" width="85.80000000000001" height="130.4"><path d="M24 89.60L23.10 89.60Q20 89.60 17.50 88.95Q15 88.30 13.20 86.60L13.20 86.60Q11.30 84.90 10.50 82.40Q9.70 79.90 9.70 75.80L9.70 75.80L9.70 22.40Q9.70 15.80 11.05 11.70Q12.40 7.60 15.80 4.70L15.80 4.70Q18 2.80 21.15 1.70Q24.30 0.60 28.40 0.60L28.40 0.60Q37.50 0.60 44.75 5.85Q52 11.10 59.30 19.60L59.30 19.60L55.40 22.70Q49 15.10 42.65 10.30Q36.30 5.50 28.70 5.50L28.70 5.50Q22.80 5.50 19.40 8.40L19.40 8.40Q17 10.50 16 14Q15 17.50 15 24.10L15 24.10L15 75.50Q15 78.70 15.50 80.35Q16 82.00 17.20 82.90L17.20 82.90Q18.40 84.10 20.35 84.35Q22.30 84.60 24.60 84.60L24.60 84.60L24 89.60ZM52.10 78.40L52.10 78.40Q43.80 78.40 38.85 74.20Q33.90 70 33.80 63.50L33.80 63.50Q33.80 57.80 37.40 54.00L37.40 54.00Q34.20 51.80 32.10 48.80Q30 45.80 30 41.60L30 41.60Q30 36.40 34.10 32.85Q38.20 29.30 45.60 29.30L45.60 29.30Q47.60 29.30 50 29.60Q52.40 29.90 54.50 30.40L54.50 30.40L53.50 35.20Q49.70 34.20 46 34.20L46 34.20Q40.60 34.20 38 36.40Q35.40 38.60 35.40 42.10L35.40 42.10Q35.40 47.60 41.30 51.00L41.30 51.00Q45.20 49.00 50.40 49.00L50.40 49.00Q53.40 49.00 56.30 49.60L56.30 49.60L55.50 54.50Q53.40 54.00 50.30 54.00L50.30 54.00Q45.50 54.00 42.40 56.45Q39.30 58.90 39.30 63.30L39.30 63.30Q39.30 68.10 42.80 70.80Q46.30 73.50 52.10 73.50L52.10 73.50Q57.60 73.50 61.95 71.45Q66.30 69.40 70.40 65.30L70.40 65.30L70.40 29.30L75.70 30.10L75.70 75.50Q75.70 78.70 76.25 80.35Q76.80 82.00 77.90 82.90L77.90 82.90Q79.10 84.10 81.05 84.35Q83 84.60 85.30 84.60L85.30 84.60L84.80 89.60L83.80 89.60Q77.10 89.60 73.90 86.60L73.90 86.60Q72.20 85.00 71.30 82.50Q70.40 80 70.40 75.80L70.40 75.80L70.40 71.80Q66.40 75 62.05 76.70Q57.70 78.40 52.10 78.40Z"/></svg>