<svg xmlns="http://www.w3.org/2000/svg" xmlns:xlink="http://www.w3.org/1999/xlink" width="85.80000000000001" height="130.4"><path d="M27 78.40L27 78.40Q18.70 78.40 13.75 74.20Q8.80 70 8.70 63.50L8.70 63.50Q8.70 57.80 12.30 54.00L12.30 54.00Q9.10 51.80 7 48.80Q4.90 45.80 4.90 41.60L4.90 41.60Q4.90 36.40 9 32.85Q13.10 29.30 20.50 29.30L20.50 29.30Q22.50 29.30 24.90 29.60Q27.30 29.90 29.40 30.40L29.40 30.40L28.40 35.20Q24.60 34.20 20.90 34.20L20.90 34.20Q15.50 34.20 12.90 36.40Q10.30 38.60 10.30 42.10L10.30 42.10Q10.30 47.60 16.20 51.00L16.20 51.00Q20.10 49.00 25.30 49.00L25.30 49.00Q28.30 49.00 31.20 49.60L31.20 49.60L30.40 54.50Q28.30 54.00 25.20 54.00L25.20 54.00Q20.40 54.00 17.30 56.45Q14.20 58.90 14.20 63.30L14.20 63.30Q14.20 68.10 17.70 70.80Q21.20 73.50 27 73.50L27 73.50Q32.50 73.50 36.85 71.45Q41.20 69.40 45.30 65.30L45.30 65.30L45.30 29.30L50.60 30.10L50.60 75.50Q50.60 78.70 51.15 80.35Q51.70 82.00 52.80 82.90L52.80 82.90Q54 84.10 55.95 84.35Q57.90 84.60 60.20 84.60L60.20 84.60L59.70 89.60L58.70 89.60Q52 89.60 48.80 86.60L48.80 86.60Q47.10 85.00 46.20 82.50Q45.30 80 45.30 75.80L45.30 75.80L45.30 71.80Q41.30 75 36.95 76.70Q32.60 78.40 27 78.40ZM84.80 89.60L83.80 89.60Q80.80 89.60 78.25 88.95Q75.70 88.30 73.90 86.60L73.90 86.60Q70.40 83.30 70.40 75.80L70.40 75.80L70.40 29.10Q69 17.70 65.50 11.60Q62 5.50 56.50 5.50L56.50 5.50Q52.90 5.50 50.90 8.10Q48.90 10.70 48.90 15.80L48.90 15.80Q48.90 19.70 49.50 22.80L49.50 22.80L44.40 22.80Q44.10 21.30 43.85 19.20Q43.60 17.10 43.60 15.20L43.60 15.20Q43.60 8.60 46.95 4.60Q50.30 0.60 56.50 0.60L56.50 0.60Q62.40 0.60 66.40 4.55Q70.40 8.50 72.65 14.95Q74.90 21.40 75.70 28.80L75.70 28.80L75.70 75.50Q75.70 78.80 76.20 80.35Q76.70 81.90 77.90 82.90L77.90 82.90Q79.10 84.10 81.10 84.35Q83.10 84.60 85.30 84.60L85.30 84.60L84.80 89.60Z"/></svg>