<?xml version="1.0" encoding="UTF-8" standalone="no"?>
<svg
   width="80.400002"
   height="89"
   version="1.1"
   id="svg13"
   sodipodi:docname="3_ghee.svg"
   inkscape:version="1.2.1 (9c6d41e410, 2022-07-14)"
   xmlns:inkscape="http://www.inkscape.org/namespaces/inkscape"
   xmlns:sodipodi="http://sodipodi.sourceforge.net/DTD/sodipodi-0.dtd"
   xmlns="http://www.w3.org/2000/svg"
   xmlns:svg="http://www.w3.org/2000/svg">
  <defs
     id="defs17" />
  <sodipodi:namedview
     id="namedview15"
     pagecolor="#ffffff"
     bordercolor="#666666"
     borderopacity="1.0"
     inkscape:showpageshadow="2"
     inkscape:pageopacity="0.0"
     inkscape:pagecheckerboard="0"
     inkscape:deskcolor="#d1d1d1"
     showgrid="false"
     inkscape:zoom="3.6196321"
     inkscape:cx="28.732202"
     inkscape:cy="49.728811"
     inkscape:window-width="1920"
     inkscape:window-height="1027"
     inkscape:window-x="-8"
     inkscape:window-y="-8"
     inkscape:window-maximized="1"
     inkscape:current-layer="svg13" />
  <g
     id="g119"
     inkscape:label="g1"
     transform="matrix(0.99892143,0,0,0.99998518,0,28.700894)">
    <path
       style="display:inline"
       d="m 22.1,49.1 v 0 Q 13.8,49.1 8.85,44.9 3.9,40.7 3.8,34.2 v 0 q 0,-5.7 3.6,-9.5 v 0 Q 4.2,22.5 2.1,19.5 0,16.5 0,12.3 v 0 Q 0,7.1 4.1,3.55 8.2,0 15.6,0 v 0 q 2,0 4.4,0.3 2.4,0.3 4.5,0.8 v 0 l -1,4.8 q -3.8,-1 -7.5,-1 v 0 q -5.4,0 -8,2.2 -2.6,2.2 -2.6,5.7 v 0 q 0,5.5 5.9,8.9 v 0 q 3.9,-2 9.1,-2 v 0 q 3,0 5.9,0.6 v 0 l -0.8,4.9 q -2.1,-0.5 -5.2,-0.5 v 0 q -4.8,0 -7.9,2.45 Q 9.3,29.6 9.3,34 v 0 q 0,4.8 3.5,7.5 3.5,2.7 9.3,2.7 v 0 q 5.5,0 9.85,-2.05 Q 36.3,40.1 40.4,36 V 36 0 l 5.3,0.8 v 45.4 q 0,3.2 0.55,4.85 0.55,1.65 1.65,2.55 v 0 q 1.2,1.2 3.15,1.45 1.95,0.25 4.25,0.25 v 0 l -0.5,5 h -1 q -6.7,0 -9.9,-3 v 0 q -1.7,-1.6 -2.6,-4.1 -0.9,-2.5 -0.9,-6.7 v 0 -4 q -4,3.2 -8.35,4.9 -4.35,1.7 -9.95,1.7 z"
       id="path7"
       inkscape:label="p1" />
    <path
       style="display:inline;fill:none;stroke:#000000;stroke-width:1px;stroke-linecap:butt;stroke-linejoin:miter;stroke-opacity:1"
       d="M 24.046875,3.515625 C 19.427429,2.542189 14.513866,1.813018 9.9094542,3.2543742 6.1052068,4.3090891 2.9419526,7.7756895 2.7434073,11.792758 c -0.2926764,3.012391 0.9108014,6.003766 2.8840984,8.246302 1.1871188,1.405854 2.6465661,2.541729 4.205698,3.505386"
       id="path340"
       inkscape:label="s1" />
    <path
       id="path572"
       style="display:inline;fill:none;stroke:#000000;stroke-width:1px;stroke-linecap:butt;stroke-linejoin:miter;stroke-opacity:1"
       inkscape:label="s2"
       d="m 25.962734,22.826285 c -3.876256,-0.571126 -7.96293,-1.166643 -11.711762,0.366216 -4.260747,1.452127 -7.5920425,5.474396 -7.7197537,10.049286 -0.394964,5.071637 2.7954798,10.082388 7.5331557,11.920456 5.784684,2.351568 12.488285,1.833539 18.199623,-0.485093 4.083601,-1.792839 7.606063,-4.616598 10.809636,-7.677228 C 43.065151,24.666618 43.079438,12.3333 43.057253,5e-6"
       sodipodi:nodetypes="ccccccccc" />
    <path
       style="display:inline;fill:none;stroke:#000000;stroke-width:1px;stroke-linecap:butt;stroke-linejoin:miter;stroke-opacity:1"
       d="m 43.071066,36.984297 c 0.007,3.583959 0.01891,7.167826 0.0385,10.751545 0.02234,3.027854 0.773843,6.411151 3.424714,8.226674 2.554086,1.858648 5.791278,1.544308 8.758696,1.943739"
       id="path265"
       inkscape:label="s3" />
  </g>
  <g
     id="g399"
     inkscape:label="g2"
     transform="matrix(0.99899518,0,0,1,9.2296422,0)">
    <path
       style="display:inline"
       d="m 70.7,89 h -1 q -3,0 -5.55,-0.65 Q 61.6,87.7 59.8,86 v 0 Q 56.3,82.7 56.3,75.2 v 0 -46.7 Q 54.9,17.1 51.4,11 47.9,4.9 42.4,4.9 v 0 q -3.6,0 -5.6,2.6 -2,2.6 -2,7.7 v 0 q 0,3.9 0.6,7 v 0 H 30.3 Q 30,20.7 29.75,18.6 29.5,16.5 29.5,14.6 v 0 Q 29.5,8 32.85,4 36.2,0 42.4,0 v 0 q 5.9,0 9.9,3.95 4,3.95 6.25,10.4 2.25,6.45 3.05,13.85 v 0 46.7 q 0,3.3 0.5,4.85 0.5,1.55 1.7,2.55 v 0 Q 65,83.5 67,83.75 69,84 71.2,84 v 0 z"
       id="path330"
       inkscape:label="p2" />
    <path
       style="display:inline;fill:none;stroke:#000000;stroke-width:1px;stroke-linecap:butt;stroke-linejoin:miter;stroke-opacity:1"
       d="M 32.90625,22.296875 C 32.189196,17.24716 31.309374,11.67002 33.948338,7.0048776 36.015851,3.1824285 40.814237,1.7827514 44.871275,2.7018315 c 5.299598,1.0610536 8.634255,5.9944562 10.53375,10.6924095 1.94946,4.911209 3.041647,10.154719 3.53254,15.40287 0.03373,16.081561 -0.05668,32.165472 0.05492,48.245568 0.09206,3.485135 1.641413,7.400064 5.196702,8.60873 2.224083,0.864628 4.672997,0.637872 7.006103,0.85642"
       id="path80"
       inkscape:label="s4" />
  </g>
</svg>
