<svg xmlns="http://www.w3.org/2000/svg" xmlns:xlink="http://www.w3.org/1999/xlink" width="60.7" height="130.4"><path d="M27 78.40L27 78.40Q18.70 78.40 13.75 74.20Q8.80 70 8.70 63.50L8.70 63.50Q8.70 57.80 12.30 54.00L12.30 54.00Q9.10 51.80 7 48.80Q4.90 45.80 4.90 41.60L4.90 41.60Q4.90 36.40 9 32.85Q13.10 29.30 20.50 29.30L20.50 29.30Q22.50 29.30 24.90 29.60Q27.30 29.90 29.40 30.40L29.40 30.40L28.40 35.20Q24.60 34.20 20.90 34.20L20.90 34.20Q15.50 34.20 12.90 36.40Q10.30 38.60 10.30 42.10L10.30 42.10Q10.30 47.60 16.20 51.00L16.20 51.00Q20.10 49.00 25.30 49.00L25.30 49.00Q28.30 49.00 31.20 49.60L31.20 49.60L30.40 54.50Q28.30 54.00 25.20 54.00L25.20 54.00Q20.40 54.00 17.30 56.45Q14.20 58.90 14.20 63.30L14.20 63.30Q14.20 68.10 17.70 70.80Q21.20 73.50 27 73.50L27 73.50Q32.50 73.50 36.85 71.45Q41.20 69.40 45.30 65.30L45.30 65.30L45.30 29.30L50.60 30.10L50.60 75.50Q50.60 78.70 51.15 80.35Q51.70 82.00 52.80 82.90L52.80 82.90Q54 84.10 55.95 84.35Q57.90 84.60 60.20 84.60L60.20 84.60L59.70 89.60L58.70 89.60Q52 89.60 48.80 86.60L48.80 86.60Q47.10 85.00 46.20 82.50Q45.30 80 45.30 75.80L45.30 75.80L45.30 71.80Q41.30 75 36.95 76.70Q32.60 78.40 27 78.40ZM45 116.30L45 116.30Q38.40 116.30 33.25 114.05Q28.10 111.80 23.95 108.00Q19.80 104.20 16.30 99.40L16.30 99.40L20.50 96.50Q25.60 103.20 31.20 107.30Q36.80 111.40 45 111.40L45 111.40Q50.70 111.40 53.70 109.20Q56.70 107.00 56.70 102.70L56.70 102.70Q56.70 98.80 54.10 96.80Q51.50 94.80 47.10 94.80L47.10 94.80Q44.60 94.80 42.40 95.35Q40.20 95.90 38 96.80L38 96.80L36.20 92.30Q38.80 91.20 41.40 90.65Q44 90.10 46.80 90.10L46.80 90.10Q53.90 90.10 57.80 93.65Q61.70 97.20 61.70 103.10L61.70 103.10Q61.70 109.30 57.25 112.80Q52.80 116.30 45 116.30Z"/></svg>