<svg xmlns="http://www.w3.org/2000/svg" xmlns:xlink="http://www.w3.org/1999/xlink" width="60.7" height="130.4"><path d="M27 78.40L27 78.40Q18.70 78.40 13.75 74.20Q8.80 70 8.70 63.50L8.70 63.50Q8.70 57.80 12.30 54.00L12.30 54.00Q9.10 51.80 7 48.80Q4.90 45.80 4.90 41.60L4.90 41.60Q4.90 36.40 9 32.85Q13.10 29.30 20.50 29.30L20.50 29.30Q22.50 29.30 24.90 29.60Q27.30 29.90 29.40 30.40L29.40 30.40L28.40 35.20Q24.60 34.20 20.90 34.20L20.90 34.20Q15.50 34.20 12.90 36.40Q10.30 38.60 10.30 42.10L10.30 42.10Q10.30 47.60 16.20 51.00L16.20 51.00Q20.10 49.00 25.30 49.00L25.30 49.00Q28.30 49.00 31.20 49.60L31.20 49.60L30.40 54.50Q28.30 54.00 25.20 54.00L25.20 54.00Q20.40 54.00 17.30 56.45Q14.20 58.90 14.20 63.30L14.20 63.30Q14.20 68.10 17.70 70.80Q21.20 73.50 27 73.50L27 73.50Q32.50 73.50 36.85 71.45Q41.20 69.40 45.30 65.30L45.30 65.30L45.30 29.30L50.60 30.10L50.60 75.50Q50.60 78.70 51.15 80.35Q51.70 82.00 52.80 82.90L52.80 82.90Q54 84.10 55.95 84.35Q57.90 84.60 60.20 84.60L60.20 84.60L59.70 89.60L58.70 89.60Q52 89.60 48.80 86.60L48.80 86.60Q47.10 85.00 46.20 82.50Q45.30 80 45.30 75.80L45.30 75.80L45.30 71.80Q41.30 75 36.95 76.70Q32.60 78.40 27 78.40ZM43.20 116.10L43.20 116.10Q36.10 116.10 32.20 112.50Q28.30 108.90 28.30 103.00L28.30 103.00Q28.30 97.60 32.40 93.85Q36.50 90.10 44.40 90.10L44.40 90.10Q51.70 90.10 57.05 92.85Q62.40 95.60 66.50 99.95Q70.60 104.30 74 109.20L74 109.20L69.90 111.90Q66.20 106.80 62.55 102.95Q58.90 99.10 54.55 96.95Q50.20 94.80 44.60 94.80L44.60 94.80Q38.80 94.80 36.05 97.15Q33.30 99.50 33.30 103.10L33.30 103.10Q33.30 107.30 36 109.25Q38.70 111.20 42.90 111.20L42.90 111.20Q45.60 111.20 47.85 110.65Q50.10 110.10 52.30 109.10L52.30 109.10L54 113.90Q51.40 114.90 48.70 115.50Q46 116.10 43.20 116.10Z"/></svg>