<svg xmlns="http://www.w3.org/2000/svg" xmlns:xlink="http://www.w3.org/1999/xlink" width="85.80000000000001" height="130.4"><path d="M27 78.40L27 78.40Q18.70 78.40 13.75 74.20Q8.80 70 8.70 63.50L8.70 63.50Q8.70 57.80 12.30 54.00L12.30 54.00Q9.10 51.80 7 48.80Q4.90 45.80 4.90 41.60L4.90 41.60Q4.90 36.40 9 32.85Q13.10 29.30 20.50 29.30L20.50 29.30Q22.50 29.30 24.90 29.60Q27.30 29.90 29.40 30.40L29.40 30.40L28.40 35.20Q24.60 34.20 20.90 34.20L20.90 34.20Q15.50 34.20 12.90 36.40Q10.30 38.60 10.30 42.10L10.30 42.10Q10.30 47.60 16.20 51.00L16.20 51.00Q20.10 49.00 25.30 49.00L25.30 49.00Q28.30 49.00 31.20 49.60L31.20 49.60L30.40 54.50Q28.30 54.00 25.20 54.00L25.20 54.00Q20.40 54.00 17.30 56.45Q14.20 58.90 14.20 63.30L14.20 63.30Q14.20 68.10 17.70 70.80Q21.20 73.50 27 73.50L27 73.50Q32.50 73.50 36.85 71.45Q41.20 69.40 45.30 65.30L45.30 65.30L45.30 29.30L50.60 30.10L50.60 75.50Q50.60 78.70 51.15 80.35Q51.70 82.00 52.80 82.90L52.80 82.90Q54 84.10 55.95 84.35Q57.90 84.60 60.20 84.60L60.20 84.60L59.70 89.60L58.70 89.60Q52 89.60 48.80 86.60L48.80 86.60Q47.10 85.00 46.20 82.50Q45.30 80 45.30 75.80L45.30 75.80L45.30 71.80Q41.30 75 36.95 76.70Q32.60 78.40 27 78.40ZM84.80 89.60L83.80 89.60Q77.20 89.60 73.90 86.60L73.90 86.60Q72.10 85.00 71.25 82.50Q70.40 80 70.40 75.80L70.40 75.80L70.40 29.30L75.70 30.00L75.70 75.50Q75.70 78.80 76.20 80.40Q76.70 82.00 78 83.00L78 83.00Q79.20 84.10 81.05 84.35Q82.90 84.60 85.30 84.60L85.30 84.60L84.80 89.60ZM75.30 25.50L70.90 25.50Q69 17.70 67.15 13.15Q65.30 8.60 62.85 6.70Q60.40 4.80 56.60 4.80L56.60 4.80Q55.40 4.80 54.05 5Q52.70 5.20 51.20 5.70L51.20 5.70L49.70 1.10Q51.60 0.50 53.40 0.25Q55.20 0 56.90 0L56.90 0Q61.50 0 64.85 2.25Q68.20 4.50 70.70 10.05Q73.20 15.60 75.30 25.50L75.30 25.50ZM70 23.70L67.20 26.60Q61.10 21.20 56.90 18.85Q52.70 16.50 47.80 16.50L47.80 16.50Q44.30 16.50 41.40 17.40L41.40 17.40L39.90 12.70Q41.70 12.30 43.65 12Q45.60 11.70 47.80 11.70L47.80 11.70Q51.60 11.70 54.95 12.90Q58.30 14.10 61.85 16.75Q65.40 19.40 70 23.70L70 23.70Z"/></svg>