<?xml version="1.0" encoding="UTF-8" standalone="no"?>
<svg
   width="83.099998"
   height="61.299999"
   version="1.1"
   id="svg1976"
   sodipodi:docname="11_jhah.svg"
   inkscape:version="1.2.1 (9c6d41e410, 2022-07-14)"
   xmlns:inkscape="http://www.inkscape.org/namespaces/inkscape"
   xmlns:sodipodi="http://sodipodi.sourceforge.net/DTD/sodipodi-0.dtd"
   xmlns="http://www.w3.org/2000/svg"
   xmlns:svg="http://www.w3.org/2000/svg">
  <defs
     id="defs1980" />
  <sodipodi:namedview
     id="namedview1978"
     pagecolor="#ffffff"
     bordercolor="#666666"
     borderopacity="1.0"
     inkscape:showpageshadow="2"
     inkscape:pageopacity="0.0"
     inkscape:pagecheckerboard="0"
     inkscape:deskcolor="#d1d1d1"
     showgrid="false"
     inkscape:zoom="1.809816"
     inkscape:cx="44.479659"
     inkscape:cy="35.915253"
     inkscape:window-width="1920"
     inkscape:window-height="1027"
     inkscape:window-x="-8"
     inkscape:window-y="-8"
     inkscape:window-maximized="1"
     inkscape:current-layer="svg1976" />
  <g
     id="g117"
     inkscape:label="g1">
    <path
       d="m 19.3,61.3 v 0 Q 13.5,61.3 8.65,58.15 3.8,55 0,48.1 v 0 l 4.3,-2.7 q 2.9,5.3 6.3,8.1 3.4,2.8 8.6,2.8 v 0 q 6.6,0 9.5,-5.3 2.9,-5.3 2.9,-14.4 v 0 q 0,-10 -3.7,-15.3 Q 24.2,16 17.1,16 v 0 q -3.3,0 -6,0.75 -2.7,0.75 -5.4,2.15 v 0 L 3.9,14.3 q 3,-1.5 6.5,-2.35 3.5,-0.85 7,-0.85 v 0 q 12,0 16.8,10.7 v 0 q 2.4,-1.3 5.05,-2 2.65,-0.7 5.55,-0.7 v 0 h 0.4 V 0 l 5.3,0.8 v 19.1 q 5.6,1.6 8.85,6.35 Q 62.6,31 62.6,37.8 v 0 q 0,7 -3.1,12.5 -3.1,5.5 -9.6,10.6 v 0 l -3.7,-4.1 q 5.6,-4.2 8.3,-8.6 2.7,-4.4 2.7,-10.6 v 0 q 0,-6.2 -3.35,-9.95 Q 50.5,23.9 44.9,23.9 v 0 q -4.8,0.1 -9,2.7 v 0 Q 37,31.1 37,36.8 v 0 q 0,12.7 -5,18.6 -5,5.9 -12.7,5.9 z"
       id="path2"
       style="display:inline"
       inkscape:label="p1" />
    <path
       style="fill:none;stroke:#000000;stroke-width:1px;stroke-linecap:butt;stroke-linejoin:miter;stroke-opacity:1"
       d="m 4.7225104,16.688506 c 2.6738162,-1.041814 5.2581683,-2.408578 8.1380546,-2.798166 4.457538,-0.667164 9.366827,-0.520891 13.25539,2.012762 3.260691,2.135232 5.375126,5.623702 6.570078,9.270727 1.333025,3.990064 1.656931,8.24244 1.610559,12.428101 0.02188,4.023501 -0.605224,8.059264 -1.903864,11.867901 -0.989877,2.206977 -2.111906,4.437091 -4.020803,5.999275 -2.79526,2.664049 -6.823961,3.628935 -10.597292,3.2717 C 14.434615,58.501261 11.147682,57.255425 8.6028088,55.054266 5.9108406,52.753298 4.0680561,49.67898 2.1639955,46.738303"
       id="path281-6"
       inkscape:label="s1" />
    <path
       style="fill:none;stroke:#000000;stroke-width:1px;stroke-linecap:butt;stroke-linejoin:miter;stroke-opacity:1"
       d="m 34.874727,24.257077 c 2.971397,-1.649862 6.298394,-2.726367 9.718193,-2.750247 3.401647,-0.126351 6.876102,0.89405 9.597308,2.953916 2.950285,2.354856 4.871665,5.878814 5.422624,9.600948 0.435542,2.208805 0.332645,4.466933 0.126353,6.693716 -0.103716,1.578876 -0.528329,3.122788 -0.980247,4.631732 -0.838416,2.449554 -2.107182,4.744347 -3.786475,6.719141 -1.934636,2.608097 -4.550289,4.559084 -6.937343,6.721845"
       id="path332-2"
       inkscape:label="s2" />
    <path
       style="display:inline;fill:none;stroke:#000000;stroke-width:1px;stroke-linecap:butt;stroke-linejoin:miter;stroke-opacity:1"
       d="m 47.851562,19.34375 c 0.0054,-6.446075 0.01084,-12.8921505 0.01625,-19.33822573"
       id="path334-2"
       inkscape:label="s3" />
  </g>
  <g
     id="g686"
     inkscape:label="g2"
     transform="translate(20.7)">
    <path
       style="display:inline"
       d="m 57.8,22 v 0 Q 56,22 54.6,20.65 53.2,19.3 53.2,16.9 v 0 q 0,-2.4 1.35,-3.75 1.35,-1.35 3.25,-1.35 v 0 q 2,0 3.3,1.35 1.3,1.35 1.3,3.75 v 0 q 0,2.5 -1.35,3.8 Q 59.7,22 57.8,22 Z"
       id="path675"
       inkscape:label="p2" />
    <path
       d="m 57.837008,13.391934 c -0.820403,0 -1.515467,0.311801 -2.085191,0.935405 -0.569724,0.623603 -0.854587,1.707464 -0.854587,2.59035 0,1.055328 0.273468,1.894793 0.820403,2.518396 0.546936,0.623603 1.347168,0.935404 2.119375,0.935404 0.865981,0 1.572439,-0.311801 2.119375,-0.935404 0.546935,-0.623603 0.820403,-1.597773 0.820403,-2.518396 0,-1.151267 -0.284863,-2.02671 -0.854587,-2.626328 -0.569724,-0.599617 -1.264788,-0.899427 -2.085191,-0.899427 z"
       style="display:inline;stroke-width:0.701376"
       id="path950"
       sodipodi:nodetypes="sssssssss"
       inkscape:label="s4" />
  </g>
  <g
     id="g690"
     inkscape:label="g3"
     transform="translate(20.7)">
    <path
       style="display:inline"
       d="m 57.8,55.3 v 0 Q 56,55.3 54.6,53.95 53.2,52.6 53.2,50.2 v 0 q 0,-2.4 1.35,-3.75 1.35,-1.35 3.25,-1.35 v 0 q 2,0 3.3,1.35 1.3,1.35 1.3,3.75 v 0 q 0,2.5 -1.35,3.8 -1.35,1.3 -3.25,1.3 z"
       id="path677"
       inkscape:label="p3" />
    <path
       d="m 57.836778,46.680782 c -0.820403,0 -1.515467,0.311801 -2.085191,0.935405 -0.569724,0.623603 -0.854587,1.707464 -0.854587,2.59035 0,1.055328 0.273468,1.894793 0.820403,2.518396 0.546936,0.623603 1.347168,0.935404 2.119375,0.935404 0.865981,0 1.572439,-0.311801 2.119375,-0.935404 0.546935,-0.623603 0.820403,-1.597773 0.820403,-2.518396 0,-1.151267 -0.284863,-2.02671 -0.854587,-2.626328 -0.569724,-0.599617 -1.264788,-0.899427 -2.085191,-0.899427 z"
       style="display:inline;stroke-width:0.701376"
       id="path950-5"
       sodipodi:nodetypes="sssssssss"
       inkscape:label="s5" />
  </g>
</svg>
