<svg xmlns="http://www.w3.org/2000/svg" xmlns:xlink="http://www.w3.org/1999/xlink" width="90.9" height="130.4"><path d="M20.50 90.60L20.50 90.60Q14.70 90.60 9.85 87.45Q5 84.30 1.20 77.40L1.20 77.40L5.50 74.70Q8.40 80 11.80 82.80Q15.20 85.60 20.40 85.60L20.40 85.60Q27 85.60 29.90 80.30Q32.80 75 32.80 65.90L32.80 65.90Q32.80 55.90 29.10 50.60Q25.40 45.30 18.30 45.30L18.30 45.30Q15 45.30 12.30 46.05Q9.60 46.80 6.90 48.20L6.90 48.20L5.10 43.60Q8.10 42.10 11.60 41.25Q15.10 40.40 18.60 40.40L18.60 40.40Q30.60 40.40 35.40 51.10L35.40 51.10Q37.80 49.80 40.45 49.10Q43.10 48.40 46 48.40L46 48.40L46.40 48.40L46.40 29.30L51.70 30.10L51.70 49.20Q57.30 50.80 60.55 55.55Q63.80 60.30 63.80 67.10L63.80 67.10Q63.80 74.10 60.70 79.60Q57.60 85.10 51.10 90.20L51.10 90.20L47.40 86.10Q53 81.90 55.70 77.50Q58.40 73.10 58.40 66.90L58.40 66.90Q58.40 60.70 55.05 56.95Q51.70 53.20 46.10 53.20L46.10 53.20Q41.30 53.30 37.10 55.90L37.10 55.90Q38.20 60.40 38.20 66.10L38.20 66.10Q38.20 78.80 33.20 84.70Q28.20 90.60 20.50 90.60ZM79.70 51.30L79.70 51.30Q77.90 51.30 76.50 49.95Q75.10 48.60 75.10 46.20L75.10 46.20Q75.10 43.80 76.45 42.45Q77.80 41.10 79.70 41.10L79.70 41.10Q81.70 41.10 83 42.45Q84.30 43.80 84.30 46.20L84.30 46.20Q84.30 48.70 82.95 50.00Q81.60 51.30 79.70 51.30ZM79.70 84.60L79.70 84.60Q77.90 84.60 76.50 83.25Q75.10 81.90 75.10 79.50L75.10 79.50Q75.10 77.10 76.45 75.75Q77.80 74.40 79.70 74.40L79.70 74.40Q81.70 74.40 83 75.75Q84.30 77.10 84.30 79.50L84.30 79.50Q84.30 82.00 82.95 83.30Q81.60 84.60 79.70 84.60Z"/></svg>