<svg xmlns="http://www.w3.org/2000/svg" xmlns:xlink="http://www.w3.org/1999/xlink" width="93.6" height="130.4">
    <path
        d="M24 89.60L23.10 89.60Q20 89.60 17.50 88.95Q15 88.30 13.20 86.60L13.20 86.60Q11.30 84.90 10.50 82.40Q9.70 79.90 9.70 75.80L9.70 75.80L9.70 22.40Q9.70 15.80 11.05 11.70Q12.40 7.60 15.80 4.70L15.80 4.70Q18 2.80 21.15 1.70Q24.30 0.60 28.40 0.60L28.40 0.60Q37.50 0.60 44.75 5.85Q52 11.10 59.30 19.60L59.30 19.60L55.40 22.70Q49 15.10 42.65 10.30Q36.30 5.50 28.70 5.50L28.70 5.50Q22.80 5.50 19.40 8.40L19.40 8.40Q17 10.50 16 14Q15 17.50 15 24.10L15 24.10L15 75.50Q15 78.70 15.50 80.35Q16 82.00 17.20 82.90L17.20 82.90Q18.40 84.10 20.35 84.35Q22.30 84.60 24.60 84.60L24.60 84.60L24 89.60ZM45.60 90.60L45.60 90.60Q39.80 90.60 34.95 87.45Q30.10 84.30 26.30 77.40L26.30 77.40L30.60 74.70Q33.50 80 36.90 82.80Q40.30 85.60 45.50 85.60L45.50 85.60Q52.10 85.60 55 80.30Q57.90 75 57.90 65.90L57.90 65.90Q57.90 55.90 54.20 50.60Q50.50 45.30 43.40 45.30L43.40 45.30Q40.10 45.30 37.40 46.05Q34.70 46.80 32 48.20L32 48.20L30.20 43.60Q33.20 42.10 36.70 41.25Q40.20 40.40 43.70 40.40L43.70 40.40Q55.70 40.40 60.50 51.10L60.50 51.10Q62.90 49.80 65.55 49.10Q68.20 48.40 71.10 48.40L71.10 48.40L71.50 48.40L71.50 29.30L76.80 30.10L76.80 49.20Q82.40 50.80 85.65 55.55Q88.90 60.30 88.90 67.10L88.90 67.10Q88.90 74.10 85.80 79.60Q82.70 85.10 76.20 90.20L76.20 90.20L72.50 86.10Q78.10 81.90 80.80 77.50Q83.50 73.10 83.50 66.90L83.50 66.90Q83.50 60.70 80.15 56.95Q76.80 53.20 71.20 53.20L71.20 53.20Q66.40 53.30 62.20 55.90L62.20 55.90Q63.30 60.40 63.30 66.10L63.30 66.10Q63.30 78.80 58.30 84.70Q53.30 90.60 45.60 90.60Z" />
      <g
     id="g309"
     inkscape:label="g2">
    <path
       style="display:inline"
       d="M 14.3,89 H 13.4 Q 10.3,89 7.8,88.35 5.3,87.7 3.5,86 v 0 Q 1.6,84.3 0.8,81.8 0,79.3 0,75.2 v 0 -53.4 Q 0,15.2 1.35,11.1 2.7,7 6.1,4.1 v 0 Q 8.3,2.2 11.45,1.1 14.6,0 18.7,0 V 0 Q 27.8,0 35.05,5.25 42.3,10.5 49.6,19 v 0 l -3.9,3.1 Q 39.3,14.5 32.95,9.7 26.6,4.9 19,4.9 v 0 q -5.9,0 -9.3,2.9 v 0 q -2.4,2.1 -3.4,5.6 -1,3.5 -1,10.1 v 0 51.4 q 0,3.2 0.5,4.85 0.5,1.65 1.7,2.55 v 0 q 1.2,1.2 3.15,1.45 Q 12.6,84 14.9,84 v 0 z"
       id="path2"
       inkscape:label="p2" />
    <path
       style="display:inline;fill:none;stroke:#000000;stroke-width:1px;stroke-linecap:butt;stroke-linejoin:miter;stroke-opacity:1"
       d="M 47.652368,20.738116 C 42.912163,15.169343 37.771996,9.7590782 31.535156,5.8554687 25.556372,2.3479405 17.925665,1.3282836 11.384063,3.8090168 7.098823,5.5445734 4.0571601,9.6376118 3.3691387,14.177325 2.2636698,19.814013 2.8760079,25.587166 2.7106596,31.290784 c 0.017146,15.362435 -0.08206,30.727062 0.00809,46.088122 0.1319749,2.783277 1.0109143,5.743286 3.4696807,7.348394 2.457118,1.869621 5.6943627,1.540296 8.5928207,1.741457"
       id="path491"
       inkscape:label="s3" /></g>
    <path style="fill:none;stroke:#000000;stroke-width:1px;stroke-linecap:butt;stroke-linejoin:miter;stroke-opacity:1"
        d="m 4.7225104,16.688506 c 2.6738162,-1.041814 5.2581683,-2.408578 8.1380546,-2.798166 4.457538,-0.667164 9.366827,-0.520891 13.25539,2.012762 3.260691,2.135232 5.375126,5.623702 6.570078,9.270727 1.333025,3.990064 1.656931,8.24244 1.610559,12.428101 0.02188,4.023501 -0.605224,8.059264 -1.903864,11.867901 -0.989877,2.206977 -2.111906,4.437091 -4.020803,5.999275 -2.79526,2.664049 -6.823961,3.628935 -10.597292,3.2717 C 14.434615,58.501261 11.147682,57.255425 8.6028088,55.054266 5.9108406,52.753298 4.0680561,49.67898 2.1639955,46.738303"
        id="path281" inkscape:label="s1" />
    <path style="fill:none;stroke:#000000;stroke-width:1px;stroke-linecap:butt;stroke-linejoin:miter;stroke-opacity:1"
        d="m 34.874727,24.257077 c 2.971397,-1.649862 6.298394,-2.726367 9.718193,-2.750247 3.401647,-0.126351 6.876102,0.89405 9.597308,2.953916 2.950285,2.354856 4.871665,5.878814 5.422624,9.600948 0.435542,2.208805 0.332645,4.466933 0.126353,6.693716 -0.103716,1.578876 -0.528329,3.122788 -0.980247,4.631732 -0.838416,2.449554 -2.107182,4.744347 -3.786475,6.719141 -1.934636,2.608097 -4.550289,4.559084 -6.937343,6.721845"
        id="path332" inkscape:label="s2" />
    <path
        style="display:inline;fill:none;stroke:#000000;stroke-width:1px;stroke-linecap:butt;stroke-linejoin:miter;stroke-opacity:1"
        d="m 47.851562,19.34375 c 0.0054,-6.446075 0.01084,-12.8921505 0.01625,-19.33822573" id="path334"
        inkscape:label="s3" />
</svg>