<svg xmlns="http://www.w3.org/2000/svg" xmlns:xlink="http://www.w3.org/1999/xlink" width="93.6" height="130.4"><path d="M24 89.60L23.10 89.60Q20 89.60 17.50 88.95Q15 88.30 13.20 86.60L13.20 86.60Q11.30 84.90 10.50 82.40Q9.70 79.90 9.70 75.80L9.70 75.80L9.70 22.40Q9.70 15.80 11.05 11.70Q12.40 7.60 15.80 4.70L15.80 4.70Q18 2.80 21.15 1.70Q24.30 0.60 28.40 0.60L28.40 0.60Q37.50 0.60 44.75 5.85Q52 11.10 59.30 19.60L59.30 19.60L55.40 22.70Q49 15.10 42.65 10.30Q36.30 5.50 28.70 5.50L28.70 5.50Q22.80 5.50 19.40 8.40L19.40 8.40Q17 10.50 16 14Q15 17.50 15 24.10L15 24.10L15 75.50Q15 78.70 15.50 80.35Q16 82.00 17.20 82.90L17.20 82.90Q18.40 84.10 20.35 84.35Q22.30 84.60 24.60 84.60L24.60 84.60L24 89.60ZM45.60 90.60L45.60 90.60Q39.80 90.60 34.95 87.45Q30.10 84.30 26.30 77.40L26.30 77.40L30.60 74.70Q33.50 80 36.90 82.80Q40.30 85.60 45.50 85.60L45.50 85.60Q52.10 85.60 55 80.30Q57.90 75 57.90 65.90L57.90 65.90Q57.90 55.90 54.20 50.60Q50.50 45.30 43.40 45.30L43.40 45.30Q40.10 45.30 37.40 46.05Q34.70 46.80 32 48.20L32 48.20L30.20 43.60Q33.20 42.10 36.70 41.25Q40.20 40.40 43.70 40.40L43.70 40.40Q55.70 40.40 60.50 51.10L60.50 51.10Q62.90 49.80 65.55 49.10Q68.20 48.40 71.10 48.40L71.10 48.40L71.50 48.40L71.50 29.30L76.80 30.10L76.80 49.20Q82.40 50.80 85.65 55.55Q88.90 60.30 88.90 67.10L88.90 67.10Q88.90 74.10 85.80 79.60Q82.70 85.10 76.20 90.20L76.20 90.20L72.50 86.10Q78.10 81.90 80.80 77.50Q83.50 73.10 83.50 66.90L83.50 66.90Q83.50 60.70 80.15 56.95Q76.80 53.20 71.20 53.20L71.20 53.20Q66.40 53.30 62.20 55.90L62.20 55.90Q63.30 60.40 63.30 66.10L63.30 66.10Q63.30 78.80 58.30 84.70Q53.30 90.60 45.60 90.60Z"/></svg>