<svg xmlns="http://www.w3.org/2000/svg" xmlns:xlink="http://www.w3.org/1999/xlink" width="93.6" height="130.4">
    <path
        d="M20.50 90.60L20.50 90.60Q14.70 90.60 9.85 87.45Q5 84.30 1.20 77.40L1.20 77.40L5.50 74.70Q8.40 80 11.80 82.80Q15.20 85.60 20.40 85.60L20.40 85.60Q27 85.60 29.90 80.30Q32.80 75 32.80 65.90L32.80 65.90Q32.80 55.90 29.10 50.60Q25.40 45.30 18.30 45.30L18.30 45.30Q15 45.30 12.30 46.05Q9.60 46.80 6.90 48.20L6.90 48.20L5.10 43.60Q8.10 42.10 11.60 41.25Q15.10 40.40 18.60 40.40L18.60 40.40Q30.60 40.40 35.40 51.10L35.40 51.10Q37.80 49.80 40.45 49.10Q43.10 48.40 46 48.40L46 48.40L46.40 48.40L46.40 29.30L51.70 30.10L51.70 49.20Q57.30 50.80 60.55 55.55Q63.80 60.30 63.80 67.10L63.80 67.10Q63.80 74.10 60.70 79.60Q57.60 85.10 51.10 90.20L51.10 90.20L47.40 86.10Q53 81.90 55.70 77.50Q58.40 73.10 58.40 66.90L58.40 66.90Q58.40 60.70 55.05 56.95Q51.70 53.20 46.10 53.20L46.10 53.20Q41.30 53.30 37.10 55.90L37.10 55.90Q38.20 60.40 38.20 66.10L38.20 66.10Q38.20 78.80 33.20 84.70Q28.20 90.60 20.50 90.60ZM92.60 89.60L91.60 89.60Q88.60 89.60 86.05 88.95Q83.50 88.30 81.70 86.60L81.70 86.60Q78.20 83.30 78.20 75.80L78.20 75.80L78.20 29.10Q76.80 17.70 73.30 11.60Q69.80 5.50 64.30 5.50L64.30 5.50Q60.70 5.50 58.70 8.10Q56.70 10.70 56.70 15.80L56.70 15.80Q56.70 19.70 57.30 22.80L57.30 22.80L52.20 22.80Q51.90 21.30 51.65 19.20Q51.40 17.10 51.40 15.20L51.40 15.20Q51.40 8.60 54.75 4.60Q58.10 0.60 64.30 0.60L64.30 0.60Q70.20 0.60 74.20 4.55Q78.20 8.50 80.45 14.95Q82.70 21.40 83.50 28.80L83.50 28.80L83.50 75.50Q83.50 78.80 84 80.35Q84.50 81.90 85.70 82.90L85.70 82.90Q86.90 84.10 88.90 84.35Q90.90 84.60 93.10 84.60L93.10 84.60L92.60 89.60Z" />
      <g
     id="g399"
     inkscape:label="g2">
    <path
       style="display:inline"
       d="m 70.7,89 h -1 q -3,0 -5.55,-0.65 Q 61.6,87.7 59.8,86 v 0 Q 56.3,82.7 56.3,75.2 v 0 -46.7 Q 54.9,17.1 51.4,11 47.9,4.9 42.4,4.9 v 0 q -3.6,0 -5.6,2.6 -2,2.6 -2,7.7 v 0 q 0,3.9 0.6,7 v 0 H 30.3 Q 30,20.7 29.75,18.6 29.5,16.5 29.5,14.6 v 0 Q 29.5,8 32.85,4 36.2,0 42.4,0 v 0 q 5.9,0 9.9,3.95 4,3.95 6.25,10.4 2.25,6.45 3.05,13.85 v 0 46.7 q 0,3.3 0.5,4.85 0.5,1.55 1.7,2.55 v 0 Q 65,83.5 67,83.75 69,84 71.2,84 v 0 z"
       id="path330"
       inkscape:label="p2" />
    <path
       style="display:inline;fill:none;stroke:#000000;stroke-width:1px;stroke-linecap:butt;stroke-linejoin:miter;stroke-opacity:1"
       d="M 32.90625,22.296875 C 32.189196,17.24716 31.309374,11.67002 33.948338,7.0048776 36.015851,3.1824285 40.814237,1.7827514 44.871275,2.7018315 c 5.299598,1.0610536 8.634255,5.9944562 10.53375,10.6924095 1.94946,4.911209 3.041647,10.154719 3.53254,15.40287 0.03373,16.081561 -0.05668,32.165472 0.05492,48.245568 0.09206,3.485135 1.641413,7.400064 5.196702,8.60873 2.224083,0.864628 4.672997,0.637872 7.006103,0.85642"
       id="path80"
       inkscape:label="s3" />
  </g>
    <path style="fill:none;stroke:#000000;stroke-width:1px;stroke-linecap:butt;stroke-linejoin:miter;stroke-opacity:1"
        d="m 4.7225104,16.688506 c 2.6738162,-1.041814 5.2581683,-2.408578 8.1380546,-2.798166 4.457538,-0.667164 9.366827,-0.520891 13.25539,2.012762 3.260691,2.135232 5.375126,5.623702 6.570078,9.270727 1.333025,3.990064 1.656931,8.24244 1.610559,12.428101 0.02188,4.023501 -0.605224,8.059264 -1.903864,11.867901 -0.989877,2.206977 -2.111906,4.437091 -4.020803,5.999275 -2.79526,2.664049 -6.823961,3.628935 -10.597292,3.2717 C 14.434615,58.501261 11.147682,57.255425 8.6028088,55.054266 5.9108406,52.753298 4.0680561,49.67898 2.1639955,46.738303"
        id="path281" inkscape:label="s1" />
    <path style="fill:none;stroke:#000000;stroke-width:1px;stroke-linecap:butt;stroke-linejoin:miter;stroke-opacity:1"
        d="m 34.874727,24.257077 c 2.971397,-1.649862 6.298394,-2.726367 9.718193,-2.750247 3.401647,-0.126351 6.876102,0.89405 9.597308,2.953916 2.950285,2.354856 4.871665,5.878814 5.422624,9.600948 0.435542,2.208805 0.332645,4.466933 0.126353,6.693716 -0.103716,1.578876 -0.528329,3.122788 -0.980247,4.631732 -0.838416,2.449554 -2.107182,4.744347 -3.786475,6.719141 -1.934636,2.608097 -4.550289,4.559084 -6.937343,6.721845"
        id="path332" inkscape:label="s2" />
    <path
        style="display:inline;fill:none;stroke:#000000;stroke-width:1px;stroke-linecap:butt;stroke-linejoin:miter;stroke-opacity:1"
        d="m 47.851562,19.34375 c 0.0054,-6.446075 0.01084,-12.8921505 0.01625,-19.33822573" id="path334"
        inkscape:label="s3" />
</svg>