<svg xmlns="http://www.w3.org/2000/svg" xmlns:xlink="http://www.w3.org/1999/xlink" width="93.6" height="130.4"><path d="M20.50 90.60L20.50 90.60Q14.70 90.60 9.85 87.45Q5 84.30 1.20 77.40L1.20 77.40L5.50 74.70Q8.40 80 11.80 82.80Q15.20 85.60 20.40 85.60L20.40 85.60Q27 85.60 29.90 80.30Q32.80 75 32.80 65.90L32.80 65.90Q32.80 55.90 29.10 50.60Q25.40 45.30 18.30 45.30L18.30 45.30Q15 45.30 12.30 46.05Q9.60 46.80 6.90 48.20L6.90 48.20L5.10 43.60Q8.10 42.10 11.60 41.25Q15.10 40.40 18.60 40.40L18.60 40.40Q30.60 40.40 35.40 51.10L35.40 51.10Q37.80 49.80 40.45 49.10Q43.10 48.40 46 48.40L46 48.40L46.40 48.40L46.40 29.30L51.70 30.10L51.70 49.20Q57.30 50.80 60.55 55.55Q63.80 60.30 63.80 67.10L63.80 67.10Q63.80 74.10 60.70 79.60Q57.60 85.10 51.10 90.20L51.10 90.20L47.40 86.10Q53 81.90 55.70 77.50Q58.40 73.10 58.40 66.90L58.40 66.90Q58.40 60.70 55.05 56.95Q51.70 53.20 46.10 53.20L46.10 53.20Q41.30 53.30 37.10 55.90L37.10 55.90Q38.20 60.40 38.20 66.10L38.20 66.10Q38.20 78.80 33.20 84.70Q28.20 90.60 20.50 90.60ZM92.60 89.60L91.60 89.60Q88.60 89.60 86.05 88.95Q83.50 88.30 81.70 86.60L81.70 86.60Q78.20 83.30 78.20 75.80L78.20 75.80L78.20 29.10Q76.80 17.70 73.30 11.60Q69.80 5.50 64.30 5.50L64.30 5.50Q60.70 5.50 58.70 8.10Q56.70 10.70 56.70 15.80L56.70 15.80Q56.70 19.70 57.30 22.80L57.30 22.80L52.20 22.80Q51.90 21.30 51.65 19.20Q51.40 17.10 51.40 15.20L51.40 15.20Q51.40 8.60 54.75 4.60Q58.10 0.60 64.30 0.60L64.30 0.60Q70.20 0.60 74.20 4.55Q78.20 8.50 80.45 14.95Q82.70 21.40 83.50 28.80L83.50 28.80L83.50 75.50Q83.50 78.80 84 80.35Q84.50 81.90 85.70 82.90L85.70 82.90Q86.90 84.10 88.90 84.35Q90.90 84.60 93.10 84.60L93.10 84.60L92.60 89.60Z"/></svg>