<svg xmlns="http://www.w3.org/2000/svg" xmlns:xlink="http://www.w3.org/1999/xlink" width="68.5" height="130.4"><path d="M20.50 90.60L20.50 90.60Q14.70 90.60 9.85 87.45Q5 84.30 1.20 77.40L1.20 77.40L5.50 74.70Q8.40 80 11.80 82.80Q15.20 85.60 20.40 85.60L20.40 85.60Q27 85.60 29.90 80.30Q32.80 75 32.80 65.90L32.80 65.90Q32.80 55.90 29.10 50.60Q25.40 45.30 18.30 45.30L18.30 45.30Q15 45.30 12.30 46.05Q9.60 46.80 6.90 48.20L6.90 48.20L5.10 43.60Q8.10 42.10 11.60 41.25Q15.10 40.40 18.60 40.40L18.60 40.40Q30.60 40.40 35.40 51.10L35.40 51.10Q37.80 49.80 40.45 49.10Q43.10 48.40 46 48.40L46 48.40L46.40 48.40L46.40 29.30L51.70 30.10L51.70 49.20Q57.30 50.80 60.55 55.55Q63.80 60.30 63.80 67.10L63.80 67.10Q63.80 74.10 60.70 79.60Q57.60 85.10 51.10 90.20L51.10 90.20L47.40 86.10Q53 81.90 55.70 77.50Q58.40 73.10 58.40 66.90L58.40 66.90Q58.40 60.70 55.05 56.95Q51.70 53.20 46.10 53.20L46.10 53.20Q41.30 53.30 37.10 55.90L37.10 55.90Q38.20 60.40 38.20 66.10L38.20 66.10Q38.20 78.80 33.20 84.70Q28.20 90.60 20.50 90.60ZM52.80 116.30L52.80 116.30Q46.20 116.30 41.05 114.05Q35.90 111.80 31.75 108.00Q27.60 104.20 24.10 99.40L24.10 99.40L28.30 96.50Q33.40 103.20 39 107.30Q44.60 111.40 52.80 111.40L52.80 111.40Q58.50 111.40 61.50 109.20Q64.50 107.00 64.50 102.70L64.50 102.70Q64.50 98.80 61.90 96.80Q59.30 94.80 54.90 94.80L54.90 94.80Q52.40 94.80 50.20 95.35Q48 95.90 45.80 96.80L45.80 96.80L44 92.30Q46.60 91.20 49.20 90.65Q51.80 90.10 54.60 90.10L54.60 90.10Q61.70 90.10 65.60 93.65Q69.50 97.20 69.50 103.10L69.50 103.10Q69.50 109.30 65.05 112.80Q60.60 116.30 52.80 116.30Z"/></svg>