<svg xmlns="http://www.w3.org/2000/svg" xmlns:xlink="http://www.w3.org/1999/xlink" width="68.5" height="130.4"><path d="M20.50 90.60L20.50 90.60Q14.70 90.60 9.85 87.45Q5 84.30 1.20 77.40L1.20 77.40L5.50 74.70Q8.40 80 11.80 82.80Q15.20 85.60 20.40 85.60L20.40 85.60Q27 85.60 29.90 80.30Q32.80 75 32.80 65.90L32.80 65.90Q32.80 55.90 29.10 50.60Q25.40 45.30 18.30 45.30L18.30 45.30Q15 45.30 12.30 46.05Q9.60 46.80 6.90 48.20L6.90 48.20L5.10 43.60Q8.10 42.10 11.60 41.25Q15.10 40.40 18.60 40.40L18.60 40.40Q30.60 40.40 35.40 51.10L35.40 51.10Q37.80 49.80 40.45 49.10Q43.10 48.40 46 48.40L46 48.40L46.40 48.40L46.40 29.30L51.70 30.10L51.70 49.20Q57.30 50.80 60.55 55.55Q63.80 60.30 63.80 67.10L63.80 67.10Q63.80 74.10 60.70 79.60Q57.60 85.10 51.10 90.20L51.10 90.20L47.40 86.10Q53 81.90 55.70 77.50Q58.40 73.10 58.40 66.90L58.40 66.90Q58.40 60.70 55.05 56.95Q51.70 53.20 46.10 53.20L46.10 53.20Q41.30 53.30 37.10 55.90L37.10 55.90Q38.20 60.40 38.20 66.10L38.20 66.10Q38.20 78.80 33.20 84.70Q28.20 90.60 20.50 90.60ZM51 116.10L51 116.10Q43.90 116.10 40 112.50Q36.10 108.90 36.10 103.00L36.10 103.00Q36.10 97.60 40.20 93.85Q44.30 90.10 52.20 90.10L52.20 90.10Q59.50 90.10 64.85 92.85Q70.20 95.60 74.30 99.95Q78.40 104.30 81.80 109.20L81.80 109.20L77.70 111.90Q74 106.80 70.35 102.95Q66.70 99.10 62.35 96.95Q58 94.80 52.40 94.80L52.40 94.80Q46.60 94.80 43.85 97.15Q41.10 99.50 41.10 103.10L41.10 103.10Q41.10 107.30 43.80 109.25Q46.50 111.20 50.70 111.20L50.70 111.20Q53.40 111.20 55.65 110.65Q57.90 110.10 60.10 109.10L60.10 109.10L61.80 113.90Q59.20 114.90 56.50 115.50Q53.80 116.10 51 116.10Z"/></svg>