<svg xmlns="http://www.w3.org/2000/svg" xmlns:xlink="http://www.w3.org/1999/xlink" width="68.5" height="130.4"><path d="M20.50 90.60L20.50 90.60Q14.70 90.60 9.85 87.45Q5 84.30 1.20 77.40L1.20 77.40L5.50 74.70Q8.40 80 11.80 82.80Q15.20 85.60 20.40 85.60L20.40 85.60Q27 85.60 29.90 80.30Q32.80 75 32.80 65.90L32.80 65.90Q32.80 55.90 29.10 50.60Q25.40 45.30 18.30 45.30L18.30 45.30Q15 45.30 12.30 46.05Q9.60 46.80 6.90 48.20L6.90 48.20L5.10 43.60Q8.10 42.10 11.60 41.25Q15.10 40.40 18.60 40.40L18.60 40.40Q30.60 40.40 35.40 51.10L35.40 51.10Q37.80 49.80 40.45 49.10Q43.10 48.40 46 48.40L46 48.40L46.40 48.40L46.40 29.30L51.70 30.10L51.70 49.20Q57.30 50.80 60.55 55.55Q63.80 60.30 63.80 67.10L63.80 67.10Q63.80 74.10 60.70 79.60Q57.60 85.10 51.10 90.20L51.10 90.20L47.40 86.10Q53 81.90 55.70 77.50Q58.40 73.10 58.40 66.90L58.40 66.90Q58.40 60.70 55.05 56.95Q51.70 53.20 46.10 53.20L46.10 53.20Q41.30 53.30 37.10 55.90L37.10 55.90Q38.20 60.40 38.20 66.10L38.20 66.10Q38.20 78.80 33.20 84.70Q28.20 90.60 20.50 90.60ZM58 25.50L53.60 25.50Q51.70 17.70 49.85 13.15Q48 8.60 45.55 6.70Q43.10 4.80 39.30 4.80L39.30 4.80Q38.10 4.80 36.75 5Q35.40 5.20 33.90 5.70L33.90 5.70L32.40 1.10Q34.30 0.50 36.10 0.25Q37.90 0 39.60 0L39.60 0Q44.20 0 47.55 2.25Q50.90 4.50 53.40 10.05Q55.90 15.60 58 25.50L58 25.50ZM52.70 23.70L49.90 26.60Q43.80 21.20 39.60 18.85Q35.40 16.50 30.50 16.50L30.50 16.50Q27 16.50 24.10 17.40L24.10 17.40L22.60 12.70Q24.40 12.30 26.35 12Q28.30 11.70 30.50 11.70L30.50 11.70Q34.30 11.70 37.65 12.90Q41 14.10 44.55 16.75Q48.10 19.40 52.70 23.70L52.70 23.70Z"/></svg>