<svg xmlns="http://www.w3.org/2000/svg" xmlns:xlink="http://www.w3.org/1999/xlink" width="93.6" height="130.4"><path d="M20.50 90.60L20.50 90.60Q14.70 90.60 9.85 87.45Q5 84.30 1.20 77.40L1.20 77.40L5.50 74.70Q8.40 80 11.80 82.80Q15.20 85.60 20.40 85.60L20.40 85.60Q27 85.60 29.90 80.30Q32.80 75 32.80 65.90L32.80 65.90Q32.80 55.90 29.10 50.60Q25.40 45.30 18.30 45.30L18.30 45.30Q15 45.30 12.30 46.05Q9.60 46.80 6.90 48.20L6.90 48.20L5.10 43.60Q8.10 42.10 11.60 41.25Q15.10 40.40 18.60 40.40L18.60 40.40Q30.60 40.40 35.40 51.10L35.40 51.10Q37.80 49.80 40.45 49.10Q43.10 48.40 46 48.40L46 48.40L46.40 48.40L46.40 29.30L51.70 30.10L51.70 49.20Q57.30 50.80 60.55 55.55Q63.80 60.30 63.80 67.10L63.80 67.10Q63.80 74.10 60.70 79.60Q57.60 85.10 51.10 90.20L51.10 90.20L47.40 86.10Q53 81.90 55.70 77.50Q58.40 73.10 58.40 66.90L58.40 66.90Q58.40 60.70 55.05 56.95Q51.70 53.20 46.10 53.20L46.10 53.20Q41.30 53.30 37.10 55.90L37.10 55.90Q38.20 60.40 38.20 66.10L38.20 66.10Q38.20 78.80 33.20 84.70Q28.20 90.60 20.50 90.60ZM92.60 89.60L91.60 89.60Q85 89.60 81.70 86.60L81.70 86.60Q79.90 85.00 79.05 82.50Q78.20 80 78.20 75.80L78.20 75.80L78.20 29.30L83.50 30.00L83.50 75.50Q83.50 78.80 84 80.40Q84.50 82.00 85.80 83.00L85.80 83.00Q87 84.10 88.85 84.35Q90.70 84.60 93.10 84.60L93.10 84.60L92.60 89.60ZM83 25.50L78.20 25.50Q76 17.90 74 13.40Q72 8.90 69.45 6.90Q66.90 4.90 63 4.90L63 4.90Q60.20 4.90 57.20 5.80L57.20 5.80L55.60 1.20Q57.60 0.60 59.55 0.30Q61.50 0 63.30 0L63.30 0Q68 0 71.50 2.15Q75 4.30 77.75 9.80Q80.50 15.30 83 25.50L83 25.50Z"/></svg>