<svg xmlns="http://www.w3.org/2000/svg" xmlns:xlink="http://www.w3.org/1999/xlink" width="93.6" height="130.4">
    <path
        d="M20.50 90.60L20.50 90.60Q14.70 90.60 9.85 87.45Q5 84.30 1.20 77.40L1.20 77.40L5.50 74.70Q8.40 80 11.80 82.80Q15.20 85.60 20.40 85.60L20.40 85.60Q27 85.60 29.90 80.30Q32.80 75 32.80 65.90L32.80 65.90Q32.80 55.90 29.10 50.60Q25.40 45.30 18.30 45.30L18.30 45.30Q15 45.30 12.30 46.05Q9.60 46.80 6.90 48.20L6.90 48.20L5.10 43.60Q8.10 42.10 11.60 41.25Q15.10 40.40 18.60 40.40L18.60 40.40Q30.60 40.40 35.40 51.10L35.40 51.10Q37.80 49.80 40.45 49.10Q43.10 48.40 46 48.40L46 48.40L46.40 48.40L46.40 29.30L51.70 30.10L51.70 49.20Q57.30 50.80 60.55 55.55Q63.80 60.30 63.80 67.10L63.80 67.10Q63.80 74.10 60.70 79.60Q57.60 85.10 51.10 90.20L51.10 90.20L47.40 86.10Q53 81.90 55.70 77.50Q58.40 73.10 58.40 66.90L58.40 66.90Q58.40 60.70 55.05 56.95Q51.70 53.20 46.10 53.20L46.10 53.20Q41.30 53.30 37.10 55.90L37.10 55.90Q38.20 60.40 38.20 66.10L38.20 66.10Q38.20 78.80 33.20 84.70Q28.20 90.60 20.50 90.60ZM92.60 89.60L91.60 89.60Q85 89.60 81.70 86.60L81.70 86.60Q79.90 85.00 79.05 82.50Q78.20 80 78.20 75.80L78.20 75.80L78.20 29.30L83.50 30.00L83.50 75.50Q83.50 78.80 84 80.40Q84.50 82.00 85.80 83.00L85.80 83.00Q87 84.10 88.85 84.35Q90.70 84.60 93.10 84.60L93.10 84.60L92.60 89.60ZM83 25.50L78.20 25.50Q76 17.90 74 13.40Q72 8.90 69.45 6.90Q66.90 4.90 63 4.90L63 4.90Q60.20 4.90 57.20 5.80L57.20 5.80L55.60 1.20Q57.60 0.60 59.55 0.30Q61.50 0 63.30 0L63.30 0Q68 0 71.50 2.15Q75 4.30 77.75 9.80Q80.50 15.30 83 25.50L83 25.50Z" />
      <g
     id="g562"
     inkscape:label="g2">
    <path
       style="display:inline"
       d="m 70.7,89.6 h -1 q -6.6,0 -9.9,-3 v 0 Q 58,85 57.15,82.5 56.3,80 56.3,75.8 v 0 -46.5 l 5.3,0.7 v 45.5 q 0,3.3 0.5,4.9 0.5,1.6 1.8,2.6 v 0 q 1.2,1.1 3.05,1.35 1.85,0.25 4.25,0.25 v 0 z"
       id="path551"
       inkscape:label="p2" />
    <path
       style="display:inline;fill:none;stroke:#000000;stroke-width:1px;stroke-linecap:butt;stroke-linejoin:miter;stroke-opacity:1"
       d="m 58.92722,29.304293 c 0.0052,15.660703 -0.0419,31.322813 -0.004,46.982637 0.07316,2.661925 0.300704,5.531206 2.06529,7.674603 1.94562,2.285428 5.076187,2.956219 7.950186,3.001875 0.734456,0.05113 1.468913,0.102253 2.203369,0.15338"
       id="path81"
       inkscape:label="s3" />
  </g>
  <g
     id="g566"
     inkscape:label="g3">
    <path
       style="display:inline"
       d="M 61.1,25.5 H 56.3 Q 54.1,17.9 52.1,13.4 50.1,8.9 47.55,6.9 45,4.9 41.1,4.9 v 0 q -2.8,0 -5.8,0.9 v 0 L 33.7,1.2 Q 35.7,0.6 37.65,0.3 39.6,0 41.4,0 v 0 q 4.7,0 8.2,2.15 3.5,2.15 6.25,7.65 2.75,5.5 5.25,15.7 z"
       id="path553"
       inkscape:label="p3" />
    <path
       style="display:inline;fill:none;stroke:#000000;stroke-width:1px;stroke-linecap:butt;stroke-linejoin:miter;stroke-opacity:1"
       d="m 34.390625,3.625 c 2.407735,-0.5487371 4.818668,-1.2842266 7.316349,-1.1718755 2.367913,0.061684 4.769179,0.644832 6.746194,1.9883103 2.283908,1.5216174 3.856335,3.867577 5.081293,6.2795292 0.985525,1.850814 1.702889,3.830646 2.400769,5.803765 1.025962,2.981686 1.857827,6.023718 2.740551,9.04949"
       id="path814"
       inkscape:label="s4" />
  </g>
    <path style="fill:none;stroke:#000000;stroke-width:1px;stroke-linecap:butt;stroke-linejoin:miter;stroke-opacity:1"
        d="m 4.7225104,16.688506 c 2.6738162,-1.041814 5.2581683,-2.408578 8.1380546,-2.798166 4.457538,-0.667164 9.366827,-0.520891 13.25539,2.012762 3.260691,2.135232 5.375126,5.623702 6.570078,9.270727 1.333025,3.990064 1.656931,8.24244 1.610559,12.428101 0.02188,4.023501 -0.605224,8.059264 -1.903864,11.867901 -0.989877,2.206977 -2.111906,4.437091 -4.020803,5.999275 -2.79526,2.664049 -6.823961,3.628935 -10.597292,3.2717 C 14.434615,58.501261 11.147682,57.255425 8.6028088,55.054266 5.9108406,52.753298 4.0680561,49.67898 2.1639955,46.738303"
        id="path281" inkscape:label="s1" />
    <path style="fill:none;stroke:#000000;stroke-width:1px;stroke-linecap:butt;stroke-linejoin:miter;stroke-opacity:1"
        d="m 34.874727,24.257077 c 2.971397,-1.649862 6.298394,-2.726367 9.718193,-2.750247 3.401647,-0.126351 6.876102,0.89405 9.597308,2.953916 2.950285,2.354856 4.871665,5.878814 5.422624,9.600948 0.435542,2.208805 0.332645,4.466933 0.126353,6.693716 -0.103716,1.578876 -0.528329,3.122788 -0.980247,4.631732 -0.838416,2.449554 -2.107182,4.744347 -3.786475,6.719141 -1.934636,2.608097 -4.550289,4.559084 -6.937343,6.721845"
        id="path332" inkscape:label="s2" />
    <path
        style="display:inline;fill:none;stroke:#000000;stroke-width:1px;stroke-linecap:butt;stroke-linejoin:miter;stroke-opacity:1"
        d="m 47.851562,19.34375 c 0.0054,-6.446075 0.01084,-12.8921505 0.01625,-19.33822573" id="path334"
        inkscape:label="s3" />
</svg>