<svg xmlns="http://www.w3.org/2000/svg" xmlns:xlink="http://www.w3.org/1999/xlink" width="93.6" height="130.4"><path d="M20.50 90.60L20.50 90.60Q14.70 90.60 9.85 87.45Q5 84.30 1.20 77.40L1.20 77.40L5.50 74.70Q8.40 80 11.80 82.80Q15.20 85.60 20.40 85.60L20.40 85.60Q27 85.60 29.90 80.30Q32.80 75 32.80 65.90L32.80 65.90Q32.80 55.90 29.10 50.60Q25.40 45.30 18.30 45.30L18.30 45.30Q15 45.30 12.30 46.05Q9.60 46.80 6.90 48.20L6.90 48.20L5.10 43.60Q8.10 42.10 11.60 41.25Q15.10 40.40 18.60 40.40L18.60 40.40Q30.60 40.40 35.40 51.10L35.40 51.10Q37.80 49.80 40.45 49.10Q43.10 48.40 46 48.40L46 48.40L46.40 48.40L46.40 29.30L51.70 30.10L51.70 49.20Q57.30 50.80 60.55 55.55Q63.80 60.30 63.80 67.10L63.80 67.10Q63.80 74.10 60.70 79.60Q57.60 85.10 51.10 90.20L51.10 90.20L47.40 86.10Q53 81.90 55.70 77.50Q58.40 73.10 58.40 66.90L58.40 66.90Q58.40 60.70 55.05 56.95Q51.70 53.20 46.10 53.20L46.10 53.20Q41.30 53.30 37.10 55.90L37.10 55.90Q38.20 60.40 38.20 66.10L38.20 66.10Q38.20 78.80 33.20 84.70Q28.20 90.60 20.50 90.60ZM92.60 89.60L91.60 89.60Q85 89.60 81.70 86.60L81.70 86.60Q79.90 85.00 79.05 82.50Q78.20 80 78.20 75.80L78.20 75.80L78.20 29.30L83.50 30.00L83.50 75.50Q83.50 78.80 84 80.40Q84.50 82.00 85.80 83.00L85.80 83.00Q87 84.10 88.85 84.35Q90.70 84.60 93.10 84.60L93.10 84.60L92.60 89.60ZM83.10 25.50L78.70 25.50Q76.80 17.70 74.95 13.15Q73.10 8.60 70.65 6.70Q68.20 4.80 64.40 4.80L64.40 4.80Q63.20 4.80 61.85 5Q60.50 5.20 59 5.70L59 5.70L57.50 1.10Q59.40 0.50 61.20 0.25Q63 0 64.70 0L64.70 0Q69.30 0 72.65 2.25Q76 4.50 78.50 10.05Q81 15.60 83.10 25.50L83.10 25.50ZM77.80 23.70L75 26.60Q68.90 21.20 64.70 18.85Q60.50 16.50 55.60 16.50L55.60 16.50Q52.10 16.50 49.20 17.40L49.20 17.40L47.70 12.70Q49.50 12.30 51.45 12Q53.40 11.70 55.60 11.70L55.60 11.70Q59.40 11.70 62.75 12.90Q66.10 14.10 69.65 16.75Q73.20 19.40 77.80 23.70L77.80 23.70Z"/></svg>