<?xml version="1.0" encoding="UTF-8" standalone="no"?>
<svg
   width="81.900002"
   height="60.299999"
   version="1.1"
   id="svg4"
   sodipodi:docname="0_aa.svg"
   inkscape:version="1.1.2 (b8e25be833, 2022-02-05)"
   xmlns:inkscape="http://www.inkscape.org/namespaces/inkscape"
   xmlns:sodipodi="http://sodipodi.sourceforge.net/DTD/sodipodi-0.dtd"
   xmlns="http://www.w3.org/2000/svg"
   xmlns:svg="http://www.w3.org/2000/svg">
  <defs
     id="defs8" />
  <sodipodi:namedview
     id="namedview6"
     pagecolor="#ffffff"
     bordercolor="#666666"
     borderopacity="1.0"
     inkscape:pageshadow="2"
     inkscape:pageopacity="0.0"
     inkscape:pagecheckerboard="0"
     showgrid="false"
     inkscape:zoom="8"
     inkscape:cx="35.8125"
     inkscape:cy="47.25"
     inkscape:window-width="1920"
     inkscape:window-height="1057"
     inkscape:window-x="-8"
     inkscape:window-y="-8"
     inkscape:window-maximized="1"
     inkscape:current-layer="svg4" />
  <path
     d="m 30.1,49 v 0 Q 23.3,49 17.95,45.75 12.6,42.5 9.1,35.7 v 0 q -0.6,0 -1.3,0 v 0 q -7.4,0 -7.4,-5 v 0 q 0,-1.6 1.2,-2.8 1.2,-1.2 3.7,-1.2 v 0 q 2.4,0 4.15,1.05 1.75,1.05 3.25,2.85 v 0 Q 18.2,29.3 21.6,25.7 25,22.1 25,17 v 0 Q 25,11.6 21.75,8.3 18.5,5 11.7,5 V 5 Q 9.4,5 6.8,5.6 4.2,6.2 1.8,7.1 v 0 L 0,2.4 Q 2.4,1.4 5.5,0.7 8.6,0 11.9,0 v 0 q 8.7,0 13.6,4.75 4.9,4.75 4.9,12.45 v 0 q 0,6.5 -4.45,11.25 Q 21.5,33.2 14.6,34.9 v 0 q 2.2,4.2 5.95,6.65 Q 24.3,44 29.8,44 v 0 q 7.3,0 11.3,-4.1 v 0 q 2.4,-2.5 3.4,-6.05 1,-3.55 1,-8.55 v 0 -9.6 l 5.3,0.7 v 10 q 0,0.8 0,1.5 v 0 q 2.2,3.5 6.7,3.4 v 0 q 3,0 5.3,-1.35 2.3,-1.35 4.2,-3.65 v 0 V 0 l 5.3,0.8 v 45.4 q 0,3.2 0.5,4.85 0.5,1.65 1.7,2.55 v 0 q 1.2,1.2 3.15,1.45 1.95,0.25 4.25,0.25 v 0 l -0.5,5 h -1 q -6.7,0 -9.9,-3 v 0 Q 68.7,55.7 67.85,53.2 67,50.7 67,46.5 v 0 -13.7 q -1.8,1.6 -4.1,2.5 -2.3,0.9 -5.3,1 v 0 Q 55.6,36.2 53.65,35.65 51.7,35.1 50,33.7 v 0 Q 48.3,41.1 43.05,45 37.8,48.9 30.1,49 Z"
     id="path2"
     inkscape:label="p1" />
  <path
     style="display:inline;fill:none;stroke:#000000;stroke-width:1px;stroke-linecap:butt;stroke-linejoin:miter;stroke-opacity:1"
     d="M 0.65709985,4.962575 C 4.5080975,3.4615736 8.5501024,2.1957618 12.738202,2.5050451 c 4.848101,0.014292 10.052134,1.906574 12.640699,6.23651 2.706408,3.8361229 2.864604,9.0012359 1.475919,13.3627369 -2.117389,5.612094 -7.586039,9.270234 -13.241928,10.660941 -2.135214,0.798501 -4.4777893,0.746524 -6.7177111,0.755338 -1.3740316,-0.04729 -2.2564582,-0.08535 -3.7939606,-1.42246 -0.7185346,-0.970424 -0.625936,-2.407007 0.5236036,-2.77457 1.6201141,-0.748151 3.0590718,-0.211952 4.6394826,0.242361 1.6155672,0.960371 2.2323665,1.662484 2.9333305,3.467674 1.058484,3.837866 3.507226,7.254801 6.685345,9.624213 4.918753,3.848199 11.709889,4.52349 17.647537,3.114191 5.493313,-1.267885 10.11971,-5.704379 11.481494,-11.194784 0.590485,-1.875504 1.390116,-3.718685 1.112987,-5.728281 V 15.375 30.28125 c 1.720215,0.647313 3.35662,1.490476 4.838518,2.558252 4.196733,1.749919 9.247061,0.939895 12.723982,-1.980127 1.421247,-0.915237 3.101012,-1.563322 3.795265,-3.229827 0.36993,-1.862476 0.05149,-3.931821 0.15786,-5.873503 V 0.01171875 c 0.02406,15.91385625 -0.0481,31.83203025 0.03604,47.74319125 0.131397,2.988746 0.674967,6.489921 3.516946,8.121806 2.463499,1.932788 5.767086,1.692766 8.673579,2.060784"
     id="path1222"
     inkscape:label="s1"
     sodipodi:nodetypes="cccccccccccccccccccccccc" />
</svg>
