<?xml version="1.0" encoding="UTF-8" standalone="no"?>
<svg
   width="81.900002"
   height="80.199997"
   version="1.1"
   id="svg4"
   sodipodi:docname="10_am_or_an.svg"
   inkscape:version="1.1.2 (b8e25be833, 2022-02-05)"
   xmlns:inkscape="http://www.inkscape.org/namespaces/inkscape"
   xmlns:sodipodi="http://sodipodi.sourceforge.net/DTD/sodipodi-0.dtd"
   xmlns="http://www.w3.org/2000/svg"
   xmlns:svg="http://www.w3.org/2000/svg">
  <defs
     id="defs8" />
  <sodipodi:namedview
     id="namedview6"
     pagecolor="#ffffff"
     bordercolor="#666666"
     borderopacity="1.0"
     inkscape:pageshadow="2"
     inkscape:pageopacity="0.0"
     inkscape:pagecheckerboard="0"
     showgrid="false"
     inkscape:zoom="11.027608"
     inkscape:cx="53.728788"
     inkscape:cy="20.766063"
     inkscape:window-width="1920"
     inkscape:window-height="1057"
     inkscape:window-x="-8"
     inkscape:window-y="-8"
     inkscape:window-maximized="1"
     inkscape:current-layer="svg4" />
  <path
     style="fill:none;stroke:#000000;stroke-width:1px;stroke-linecap:butt;stroke-linejoin:miter;stroke-opacity:1"
     d="M 69.7,0 V 9.7"
     id="path479"
     inkscape:label="s2" />
  <path
     style="display:inline;fill:none;stroke:#000000;stroke-width:1px;stroke-linecap:butt;stroke-linejoin:miter;stroke-opacity:1"
     d="M 0.65757941,24.858613 C 4.5085764,23.357612 8.5505814,22.0918 12.738681,22.401083 c 4.848101,0.01429 10.052134,1.906574 12.640699,6.23651 2.706408,3.836123 2.864604,9.001236 1.475919,13.362737 -2.117389,5.612094 -7.586039,9.270234 -13.241928,10.660941 -2.135214,0.798501 -4.4777886,0.746524 -6.7177106,0.755338 -1.311532,-0.391045 -2.555986,-0.05572 -3.793961,-1.42246 -0.564165,-1.036917 -0.6183317,-2.224505 0.523604,-2.77457 1.5344062,-0.559732 3.0955687,-0.167823 4.639482,0.242361 1.4369863,0.925067 2.4421986,1.660052 2.9333306,3.467674 1.058484,3.837866 3.507226,7.254801 6.685345,9.624213 4.918753,3.848199 11.709889,4.52349 17.647537,3.114191 5.493313,-1.267885 10.119712,-5.704379 11.481502,-11.194784 0.59048,-1.875504 1.39011,-3.718685 1.11298,-5.728281 v -13.473915 14.90625 c 1.72022,0.647313 3.35662,1.490476 4.83852,2.558252 4.19673,1.749919 9.24706,0.939895 12.72398,-1.980127 1.42125,-0.915237 3.10102,-1.563322 3.79527,-3.229827 0.36993,-1.862476 0.0515,-3.931821 0.15786,-5.873503 V 19.907757 c 0.0241,15.913856 -0.0481,31.83203 0.036,47.743191 0.1314,2.988746 0.67497,6.489921 3.51694,8.121806 2.4635,1.932788 5.76709,1.692766 8.67358,2.060784"
     id="path1222"
     inkscape:label="s1"
     sodipodi:nodetypes="cccccccccccccccccccccccc" />
  <path
     d="m 30.1,68.9 v 0 Q 23.3,68.9 17.95,65.65 12.6,62.4 9.1,55.6 v 0 q -0.6,0 -1.3,0 v 0 q -7.4,0 -7.4,-5 v 0 q 0,-1.6 1.2,-2.8 1.2,-1.2 3.7,-1.2 v 0 q 2.4,0 4.15,1.05 1.75,1.05 3.25,2.85 v 0 Q 18.2,49.2 21.6,45.6 25,42 25,36.9 v 0 Q 25,31.5 21.75,28.2 18.5,24.9 11.7,24.9 v 0 q -2.3,0 -4.9,0.6 -2.6,0.6 -5,1.5 v 0 L 0,22.3 q 2.4,-1 5.5,-1.7 3.1,-0.7 6.4,-0.7 v 0 q 8.7,0 13.6,4.75 4.9,4.75 4.9,12.45 v 0 q 0,6.5 -4.45,11.25 Q 21.5,53.1 14.6,54.8 v 0 q 2.2,4.2 5.95,6.65 3.75,2.45 9.25,2.45 v 0 q 7.3,0 11.3,-4.1 v 0 q 2.4,-2.5 3.4,-6.05 1,-3.55 1,-8.55 v 0 -9.6 l 5.3,0.7 v 10 q 0,0.8 0,1.5 v 0 q 2.2,3.5 6.7,3.4 v 0 q 3,0 5.3,-1.35 2.3,-1.35 4.2,-3.65 v 0 -26.3 l 5.3,0.8 v 45.4 q 0,3.2 0.5,4.85 0.5,1.65 1.7,2.55 v 0 q 1.2,1.2 3.15,1.45 1.95,0.25 4.25,0.25 v 0 l -0.5,5 h -1 q -6.7,0 -9.9,-3 v 0 Q 68.7,75.6 67.85,73.1 67,70.6 67,66.4 v 0 -13.7 q -1.8,1.6 -4.1,2.5 -2.3,0.9 -5.3,1 v 0 Q 55.6,56.1 53.65,55.55 51.7,55 50,53.6 v 0 Q 48.3,61 43.05,64.9 37.8,68.8 30.1,68.9 Z M 69.7,9.7 v 0 Q 67.9,9.7 66.65,8.4 65.4,7.1 65.4,4.8 v 0 Q 65.4,2.6 66.6,1.3 67.8,0 69.7,0 v 0 q 1.9,0 3.1,1.3 1.2,1.3 1.2,3.5 v 0 Q 74,7.2 72.75,8.45 71.5,9.7 69.7,9.7 Z"
     id="path2"
     style="display:inline"
     inkscape:label="p1" />
</svg>
