<?xml version="1.0" encoding="UTF-8" standalone="no"?>
<svg
   width="81.900002"
   height="80.199997"
   version="1.1"
   id="svg4"
   sodipodi:docname="10_am_or_an.svg"
   inkscape:version="1.2.1 (9c6d41e410, 2022-07-14)"
   xmlns:inkscape="http://www.inkscape.org/namespaces/inkscape"
   xmlns:sodipodi="http://sodipodi.sourceforge.net/DTD/sodipodi-0.dtd"
   xmlns="http://www.w3.org/2000/svg"
   xmlns:svg="http://www.w3.org/2000/svg">
  <defs
     id="defs8" />
  <sodipodi:namedview
     id="namedview6"
     pagecolor="#ffffff"
     bordercolor="#666666"
     borderopacity="1.0"
     inkscape:pageshadow="2"
     inkscape:pageopacity="0.0"
     inkscape:pagecheckerboard="0"
     showgrid="false"
     inkscape:zoom="5.513804"
     inkscape:cx="61.391373"
     inkscape:cy="69.280663"
     inkscape:window-width="1920"
     inkscape:window-height="1027"
     inkscape:window-x="-8"
     inkscape:window-y="-8"
     inkscape:window-maximized="1"
     inkscape:current-layer="svg4"
     inkscape:showpageshadow="2"
     inkscape:deskcolor="#d1d1d1" />
  <g
     id="g122"
     inkscape:label="g1">
    <path
       style="display:inline"
       d="m 30.1,68.9 v 0 C 25.566667,68.9 21.516667,67.816667 17.95,65.65 14.383333,63.483333 11.433333,60.133333 9.1,55.6 v 0 H 7.8 v 0 c -4.9333333,0 -7.4,-1.666667 -7.4,-5 v 0 c 0,-1.066667 0.4,-2 1.2,-2.8 0.8,-0.8 2.0333333,-1.2 3.7,-1.2 v 0 c 1.6,0 2.9833333,0.35 4.15,1.05 1.166667,0.7 2.25,1.65 3.25,2.85 v 0 c 3.666667,-0.866667 6.633333,-2.5 8.9,-4.9 2.266667,-2.4 3.4,-5.3 3.4,-8.7 v 0 C 25,33.3 23.916667,30.4 21.75,28.2 19.583333,26 16.233333,24.9 11.7,24.9 v 0 c -1.533333,0 -3.1666667,0.2 -4.9,0.6 -1.7333333,0.4 -3.4,0.9 -5,1.5 v 0 L 0,22.3 c 1.6,-0.666667 3.4333333,-1.233333 5.5,-1.7 2.0666667,-0.466667 4.2,-0.7 6.4,-0.7 v 0 c 5.8,0 10.333333,1.583333 13.6,4.75 3.266667,3.166667 4.9,7.316667 4.9,12.45 v 0 c 0,4.333333 -1.483333,8.083333 -4.45,11.25 -2.966667,3.166667 -6.75,5.316667 -11.35,6.45 v 0 c 1.466667,2.8 3.45,5.016667 5.95,6.65 2.5,1.633333 5.583333,2.45 9.25,2.45 v 0 c 4.866667,0 8.633333,-1.366667 11.3,-4.1 v 0 c 1.6,-1.666667 2.733333,-3.683333 3.4,-6.05 0.666667,-2.366667 1,-5.216667 1,-8.55 v 0 -9.6 l 5.3,0.7 v 10 1.5 0 c 1.466667,2.333333 3.7,3.466667 6.7,3.4 v 0 c 2,0 3.766667,-0.45 5.3,-1.35 1.533333,-0.9 2.933333,-2.116667 4.2,-3.65 v 0 -26.3 l 5.3,0.8 v 45.4 c 0,2.133333 0.166667,3.75 0.5,4.85 0.333333,1.1 0.9,1.95 1.7,2.55 v 0 c 0.8,0.8 1.85,1.283333 3.15,1.45 1.3,0.166667 2.716667,0.25 4.25,0.25 v 0 l -0.5,5 h -1 c -4.466667,0 -7.766667,-1 -9.9,-3 v 0 C 69.3,76.133333 68.416667,74.766667 67.85,73.1 67.283333,71.433333 67,69.2 67,66.4 v 0 -13.7 c -1.2,1.066667 -2.566667,1.9 -4.1,2.5 -1.533333,0.6 -3.3,0.933333 -5.3,1 v 0 C 56.266667,56.133333 54.95,55.916667 53.65,55.55 52.35,55.183333 51.133333,54.533333 50,53.6 v 0 c -1.133333,4.933333 -3.45,8.7 -6.95,11.3 -3.5,2.6 -7.816667,3.933333 -12.95,4 z"
       id="path2"
       inkscape:label="p1" />
    <path
       style="display:inline;fill:none;stroke:#000000;stroke-width:1px;stroke-linecap:butt;stroke-linejoin:miter;stroke-opacity:1"
       d="M 0.65757941,24.862869 C 4.5085764,23.361868 8.5505814,22.096056 12.738681,22.405339 c 4.848101,0.01429 10.052134,1.906574 12.6407,6.23651 2.706408,3.836123 2.864604,9.001236 1.475919,13.362737 -2.117389,5.612094 -7.58604,9.270234 -13.241929,10.660941 -2.135214,0.798501 -4.4777886,0.746524 -6.7177106,0.755338 -1.374032,-0.04729 -2.256458,-0.08535 -3.793961,-1.42246 -0.718534,-0.970424 -0.625936,-2.407007 0.523604,-2.77457 1.620114,-0.748151 3.059072,-0.211952 4.639483,0.242361 1.615567,0.960371 2.2323656,1.662484 2.9333296,3.467674 1.058484,3.837866 3.507226,7.254801 6.685345,9.624213 4.918753,3.848199 11.70989,4.52349 17.647538,3.114191 5.493313,-1.267885 10.119709,-5.704379 11.481493,-11.194784 0.590485,-1.875504 1.030741,-3.507747 1.112987,-5.728281 V 35.275294"
       id="path1222"
       inkscape:label="s1" />
    <path
       id="path467"
       style="fill:none;stroke:#000000;stroke-width:1px;stroke-linecap:butt;stroke-linejoin:miter;stroke-opacity:1"
       d="m 49.90675,50.990895 c 1.494494,0.528195 2.697125,1.656937 4.212003,2.146321 1.873017,0.625309 3.909604,0.639841 5.845426,0.318255 2.447421,-0.405626 4.647839,-1.699206 6.46839,-3.346291 1.154536,-1.037607 2.393463,-2.042168 3.145336,-3.427628 l 0.111262,-26.775734"
       sodipodi:nodetypes="cccccc"
       inkscape:label="s2" />
    <path
       style="fill:none;stroke:#000000;stroke-width:1px;stroke-linecap:butt;stroke-linejoin:miter;stroke-opacity:1"
       d="m 69.57543,46.625984 c 0.02558,5.463549 0.412507,10.926281 0.141942,16.389964 -0.151801,3.19707 -0.449067,6.554798 0.725971,9.613934 0.682263,1.784111 2.192423,3.171418 3.896548,3.971442 1.558088,0.697867 3.270766,0.867624 4.956327,0.950385 0.82899,0.06121 1.657979,0.122431 2.486969,0.183646"
       id="path265"
       sodipodi:nodetypes="cccccccccccccccccccccccccc"
       inkscape:label="s3" />
  </g>
  <g
     id="g126"
     inkscape:label="g2">
    <path
       style="display:inline"
       d="m 69.7,9.7 v 0 C 68.5,9.7 67.483333,9.2666667 66.65,8.4 65.816667,7.5333333 65.4,6.3333333 65.4,4.8 v 0 C 65.4,3.3333333 65.8,2.1666667 66.6,1.3 67.4,0.43333333 68.433333,0 69.7,0 v 0 c 1.266667,0 2.3,0.43333333 3.1,1.3 0.8,0.8666667 1.2,2.0333333 1.2,3.5 v 0 C 74,6.4 73.583333,7.6166667 72.75,8.45 71.916667,9.2833333 70.9,9.7 69.7,9.7 Z"
       id="path116"
       inkscape:label="p2" />
    <path
       d="m 69.711401,1.3312255 c -0.820403,0 -1.515467,0.3118012 -2.085191,0.9354043 -0.569724,0.6236031 -0.854587,1.7074649 -0.854587,2.5903504 0,1.0553281 0.273468,1.8947931 0.820403,2.5183962 0.546936,0.6236031 1.347168,0.9354042 2.119375,0.9354042 0.865981,0 1.572439,-0.3118011 2.119375,-0.9354042 0.546935,-0.6236031 0.820403,-1.5977735 0.820403,-2.5183962 0,-1.1512668 -0.284863,-2.0267096 -0.854587,-2.6263275 C 71.226868,1.6310348 70.531804,1.3312255 69.711401,1.3312255 Z"
       style="fill:none;stroke:#000000;stroke-width:1px;stroke-linecap:butt;stroke-linejoin:miter;stroke-opacity:1"
       id="path950"
       sodipodi:nodetypes="sssssssss"
       inkscape:label="s4" />
  </g>
</svg>
