<?xml version="1.0" encoding="UTF-8" standalone="no"?>
<svg
   width="98.199997"
   height="60.299999"
   version="1.1"
   id="svg4"
   sodipodi:docname="11_ah.svg"
   inkscape:version="1.1.2 (b8e25be833, 2022-02-05)"
   xmlns:inkscape="http://www.inkscape.org/namespaces/inkscape"
   xmlns:sodipodi="http://sodipodi.sourceforge.net/DTD/sodipodi-0.dtd"
   xmlns="http://www.w3.org/2000/svg"
   xmlns:svg="http://www.w3.org/2000/svg">
  <defs
     id="defs8" />
  <sodipodi:namedview
     id="namedview6"
     pagecolor="#ffffff"
     bordercolor="#666666"
     borderopacity="1.0"
     inkscape:pageshadow="2"
     inkscape:pageopacity="0.0"
     inkscape:pagecheckerboard="0"
     showgrid="false"
     inkscape:zoom="8"
     inkscape:cx="48.9375"
     inkscape:cy="30.875"
     inkscape:window-width="1920"
     inkscape:window-height="1057"
     inkscape:window-x="-8"
     inkscape:window-y="-8"
     inkscape:window-maximized="1"
     inkscape:current-layer="svg4" />
  <path
     style="display:inline;fill:none;stroke:#000000;stroke-width:1px;stroke-linecap:butt;stroke-linejoin:miter;stroke-opacity:1"
     d="M 93.6,45.1 V 55.3"
     id="path218"
     inkscape:label="s3" />
  <path
     style="display:inline;fill:none;stroke:#000000;stroke-width:1px;stroke-linecap:butt;stroke-linejoin:miter;stroke-opacity:1"
     d="M 93.6,11.8 V 22"
     id="path70"
     inkscape:label="s2" />
  <path
     style="display:inline;fill:none;stroke:#000000;stroke-width:1px;stroke-linecap:butt;stroke-linejoin:miter;stroke-opacity:1"
     d="M 0.65757941,4.9626119 C 4.5085764,3.4616109 8.5505814,2.1957989 12.738681,2.5050819 c 4.848101,0.01429 10.052134,1.906574 12.640699,6.23651 2.706408,3.8361231 2.864604,9.0012361 1.475919,13.3627371 -2.117389,5.612094 -7.586039,9.270234 -13.241928,10.660941 -2.135214,0.798501 -4.4777886,0.746524 -6.7177106,0.755338 -1.374032,-0.04729 -2.256458,-0.08535 -3.793961,-1.42246 -0.718534,-0.970424 -0.625936,-2.407007 0.523604,-2.77457 1.620114,-0.748151 3.059072,-0.211952 4.639483,0.242361 1.615567,0.960371 2.2323656,1.662484 2.9333296,3.467674 1.058484,3.837866 3.507226,7.254801 6.685345,9.624213 4.918753,3.848199 11.709889,4.52349 17.647537,3.114191 5.493313,-1.267885 10.11971,-5.704379 11.481494,-11.194784 0.590485,-1.875504 1.390116,-3.718685 1.112987,-5.728281 v -13.473915 14.90625 c 1.720215,0.647313 3.35662,1.490476 4.838518,2.558252 4.196733,1.749919 9.247061,0.939895 12.723982,-1.980127 1.421247,-0.915237 3.101012,-1.563322 3.795265,-3.229827 0.36993,-1.862476 0.05149,-3.931821 0.15786,-5.873503 V 0.01175594 c 0.02406,15.91385606 -0.0481,31.83203006 0.03604,47.74319106 0.131397,2.988746 0.674967,6.489921 3.516946,8.121806 2.463499,1.932788 5.767086,1.692766 8.673579,2.060784"
     id="path1222"
     inkscape:label="s1"
     sodipodi:nodetypes="cccccccccccccccccccccccc" />
  <path
     d="m 30.1,49 v 0 Q 23.3,49 17.95,45.75 12.6,42.5 9.1,35.7 v 0 q -0.6,0 -1.3,0 v 0 q -7.4,0 -7.4,-5 v 0 q 0,-1.6 1.2,-2.8 1.2,-1.2 3.7,-1.2 v 0 q 2.4,0 4.15,1.05 1.75,1.05 3.25,2.85 v 0 Q 18.2,29.3 21.6,25.7 25,22.1 25,17 v 0 Q 25,11.6 21.75,8.3 18.5,5 11.7,5 V 5 Q 9.4,5 6.8,5.6 4.2,6.2 1.8,7.1 v 0 L 0,2.4 Q 2.4,1.4 5.5,0.7 8.6,0 11.9,0 v 0 q 8.7,0 13.6,4.75 4.9,4.75 4.9,12.45 v 0 q 0,6.5 -4.45,11.25 Q 21.5,33.2 14.6,34.9 v 0 q 2.2,4.2 5.95,6.65 Q 24.3,44 29.8,44 v 0 q 7.3,0 11.3,-4.1 v 0 q 2.4,-2.5 3.4,-6.05 1,-3.55 1,-8.55 v 0 -9.6 l 5.3,0.7 v 10 q 0,0.8 0,1.5 v 0 q 2.2,3.5 6.7,3.4 v 0 q 3,0 5.3,-1.35 2.3,-1.35 4.2,-3.65 v 0 V 0 l 5.3,0.8 v 45.4 q 0,3.2 0.5,4.85 0.5,1.65 1.7,2.55 v 0 q 1.2,1.2 3.15,1.45 1.95,0.25 4.25,0.25 v 0 l -0.5,5 h -1 q -6.7,0 -9.9,-3 v 0 Q 68.7,55.7 67.85,53.2 67,50.7 67,46.5 v 0 -13.7 q -1.8,1.6 -4.1,2.5 -2.3,0.9 -5.3,1 v 0 Q 55.6,36.2 53.65,35.65 51.7,35.1 50,33.7 v 0 Q 48.3,41.1 43.05,45 37.8,48.9 30.1,49 Z M 93.6,22 v 0 Q 91.8,22 90.4,20.65 89,19.3 89,16.9 v 0 q 0,-2.4 1.35,-3.75 1.35,-1.35 3.25,-1.35 v 0 q 2,0 3.3,1.35 1.3,1.35 1.3,3.75 v 0 q 0,2.5 -1.35,3.8 Q 95.5,22 93.6,22 Z m 0,33.3 v 0 q -1.8,0 -3.2,-1.35 Q 89,52.6 89,50.2 v 0 q 0,-2.4 1.35,-3.75 1.35,-1.35 3.25,-1.35 v 0 q 2,0 3.3,1.35 1.3,1.35 1.3,3.75 v 0 q 0,2.5 -1.35,3.8 -1.35,1.3 -3.25,1.3 z"
     id="path2"
     style="display:inline"
     inkscape:label="p1" />
</svg>
