<?xml version="1.0" encoding="UTF-8" standalone="no"?>
<svg
   width="107"
   height="60.299999"
   version="1.1"
   id="svg4"
   sodipodi:docname="1_aa.svg"
   inkscape:version="1.1.2 (b8e25be833, 2022-02-05)"
   xmlns:inkscape="http://www.inkscape.org/namespaces/inkscape"
   xmlns:sodipodi="http://sodipodi.sourceforge.net/DTD/sodipodi-0.dtd"
   xmlns="http://www.w3.org/2000/svg"
   xmlns:svg="http://www.w3.org/2000/svg">
  <defs
     id="defs8" />
  <sodipodi:namedview
     id="namedview6"
     pagecolor="#ffffff"
     bordercolor="#666666"
     borderopacity="1.0"
     inkscape:pageshadow="2"
     inkscape:pageopacity="0.0"
     inkscape:pagecheckerboard="0"
     showgrid="false"
     inkscape:zoom="5.6568543"
     inkscape:cx="19.887378"
     inkscape:cy="42.603184"
     inkscape:window-width="1920"
     inkscape:window-height="1057"
     inkscape:window-x="-8"
     inkscape:window-y="-8"
     inkscape:window-maximized="1"
     inkscape:current-layer="svg4" />
  <path
     style="display:inline;fill:none;stroke:#000000;stroke-width:1px;stroke-linecap:butt;stroke-linejoin:miter;stroke-opacity:1"
     d="m 94.730212,0.03314563 c 0.01513,15.71237937 -0.03027,31.42667437 0.02271,47.13785537 0.09939,2.717602 0.315252,5.743939 2.348965,7.780693 1.406207,1.440823 3.334803,2.382777 5.365383,2.450116 1.49419,0.189485 3.01779,0.353191 4.49368,0.55885"
     id="path253"
     inkscape:label="s2" />
  <path
     style="display:inline;fill:none;stroke:#000000;stroke-width:1px;stroke-linecap:butt;stroke-linejoin:miter;stroke-opacity:1"
     d="M 0.85757939,4.9626119 C 4.7085769,3.4616109 8.7505818,2.1957989 12.938682,2.5050819 c 4.848101,0.01429 10.052134,1.906574 12.640699,6.23651 2.706408,3.8361231 2.864604,9.0012361 1.475919,13.3627371 -2.117389,5.612094 -7.586039,9.270234 -13.241928,10.660941 -2.135214,0.798501 -4.4777902,0.746524 -6.7177117,0.755338 -1.5615316,-0.03167 -2.9439582,0.0709 -3.8720856,-1.32871 -0.5466596,-1.032924 -0.532186,-2.516382 0.5704786,-2.96207 1.6044891,-0.529401 3.2778218,-0.08695 4.6238575,0.429861 1.5999422,1.007246 2.5604922,1.771859 2.9802062,3.373924 1.058484,3.837866 3.507226,7.254801 6.685345,9.624213 4.918753,3.848199 11.709889,4.52349 17.647537,3.114191 5.493313,-1.267885 10.11971,-5.704379 11.481494,-11.194784 0.590485,-1.875504 1.390116,-3.718685 1.112987,-5.728281 v -13.473915 14.90625 c 1.720215,0.647313 3.20194,1.623059 4.838518,2.558252 4.196733,1.749919 9.247061,0.939895 12.723982,-1.980127 1.421247,-0.915237 3.101012,-1.563322 3.795265,-3.229827 0.36993,-1.862476 0.05149,-3.931821 0.15786,-5.873503 V 0.01175594 c 0.02406,15.91385606 -0.0481,31.83203006 0.03604,47.74319106 0.131397,2.988746 0.674967,6.489921 3.516946,8.121806 2.463499,1.932788 5.767086,1.692766 8.673579,2.060784"
     id="path1222"
     inkscape:label="s1"
     sodipodi:nodetypes="cccccccccccccccccccccccc" />
  <path
     d="m 30.1,49 v 0 Q 23.3,49 17.95,45.75 12.6,42.5 9.1,35.7 v 0 q -0.6,0 -1.3,0 v 0 q -7.4,0 -7.4,-5 v 0 q 0,-1.6 1.2,-2.8 1.2,-1.2 3.7,-1.2 v 0 q 2.4,0 4.15,1.05 1.75,1.05 3.25,2.85 v 0 Q 18.2,29.3 21.6,25.7 25,22.1 25,17 v 0 Q 25,11.6 21.75,8.3 18.5,5 11.7,5 V 5 Q 9.4,5 6.8,5.6 4.2,6.2 1.8,7.1 v 0 L 0,2.4 Q 2.4,1.4 5.5,0.7 8.6,0 11.9,0 v 0 q 8.7,0 13.6,4.75 4.9,4.75 4.9,12.45 v 0 q 0,6.5 -4.45,11.25 Q 21.5,33.2 14.6,34.9 v 0 q 2.2,4.2 5.95,6.65 Q 24.3,44 29.8,44 v 0 q 7.3,0 11.3,-4.1 v 0 q 2.4,-2.5 3.4,-6.05 1,-3.55 1,-8.55 v 0 -9.6 l 5.3,0.7 v 10 q 0,0.8 0,1.5 v 0 q 2.2,3.5 6.7,3.4 v 0 q 3,0 5.3,-1.35 2.3,-1.35 4.2,-3.65 v 0 V 0 l 5.3,0.8 v 45.4 q 0,3.2 0.5,4.85 0.5,1.65 1.7,2.55 v 0 q 1.2,1.2 3.15,1.45 1.95,0.25 4.25,0.25 v 0 l -0.5,5 h -1 q -6.7,0 -9.9,-3 v 0 Q 68.7,55.7 67.85,53.2 67,50.7 67,46.5 v 0 -13.7 q -1.8,1.6 -4.1,2.5 -2.3,0.9 -5.3,1 v 0 Q 55.6,36.2 53.65,35.65 51.7,35.1 50,33.7 v 0 Q 48.3,41.1 43.05,45 37.8,48.9 30.1,49 Z m 76.4,11.3 h -1 q -6.7,0 -9.9,-3 v 0 Q 93.8,55.7 92.95,53.2 92.1,50.7 92.1,46.5 v 0 V 0 l 5.3,0.8 v 45.4 q 0,3.2 0.5,4.85 0.5,1.65 1.7,2.55 v 0 q 1.2,1.2 3.15,1.45 1.95,0.25 4.25,0.25 v 0 z"
     id="path2"
     style="display:inline"
     inkscape:label="p1" />
</svg>
