<?xml version="1.0" encoding="UTF-8" standalone="no"?>
<svg
   width="52"
   height="73.800003"
   version="1.1"
   id="svg128"
   sodipodi:docname="2_i.svg"
   inkscape:version="1.1.2 (b8e25be833, 2022-02-05)"
   xmlns:inkscape="http://www.inkscape.org/namespaces/inkscape"
   xmlns:sodipodi="http://sodipodi.sourceforge.net/DTD/sodipodi-0.dtd"
   xmlns="http://www.w3.org/2000/svg"
   xmlns:svg="http://www.w3.org/2000/svg">
  <defs
     id="defs132" />
  <sodipodi:namedview
     id="namedview130"
     pagecolor="#ffffff"
     bordercolor="#666666"
     borderopacity="1.0"
     inkscape:pageshadow="2"
     inkscape:pageopacity="0.0"
     inkscape:pagecheckerboard="0"
     showgrid="false"
     inkscape:zoom="8"
     inkscape:cx="37.6875"
     inkscape:cy="12.5"
     inkscape:window-width="1920"
     inkscape:window-height="1057"
     inkscape:window-x="-8"
     inkscape:window-y="-8"
     inkscape:window-maximized="1"
     inkscape:current-layer="svg128" />
  <path
     style="fill:none;stroke:#000000;stroke-width:1px;stroke-linecap:butt;stroke-linejoin:miter;stroke-opacity:1"
     d="m 24.639626,16.157349 c -2.381246,-0.657738 -4.795386,-1.124335 -7.273765,-1.142041 -3.681611,-0.22705 -7.4743481,0.666491 -10.5051671,2.82353 -1.6271695,1.519676 -3.1123608,3.266615 -3.6853329,5.47298 -1.2124552,4.629142 0.016364,9.952137 3.4374687,13.375481 1.9666327,2.120613 4.4674733,3.643313 6.8365033,5.244844 1.577646,0.626035 3.021444,-0.844632 4.574696,-1.065546 3.250329,-0.921503 6.646884,-0.833718 9.989982,-1.009157 -3.604448,0.20558 -7.30948,0.02233 -10.736929,1.34699 -1.460764,0.541597 -2.960531,1.062713 -4.213292,1.958245 -1.736434,1.242163 -2.961363,2.279564 -3.8410464,3.99892 -0.9544407,1.515061 -1.5573114,3.291592 -1.9392926,5.030197 -0.4485279,3.099106 -0.309815,6.307261 0.9018922,9.227962 1.2569533,3.408147 4.0355528,6.139249 7.2893338,7.68938 1.74141,1.015865 3.793894,1.333673 5.722626,1.831109 5.650373,0.665548 11.624872,0.468618 16.85932,-1.953765 2.869646,-1.393449 5.398507,-3.498458 7.308677,-6.045401 2.341403,-3.15412 3.429934,-7.032371 3.838348,-10.896271 0.346748,-4.846745 -0.408992,-9.811312 -2.604572,-14.179213 -2.274188,-5.755748 -5.926535,-10.904109 -7.769609,-16.832698 -0.739679,-2.559332 -0.926794,-5.314356 -0.569086,-7.944622 0.338879,-2.661225 1.586634,-5.1397243 3.563444,-6.9584845 1.394687,-1.668989 3.229792,-2.8629759 4.867316,-4.2736332"
     id="path189"
     inkscape:label="s1"
     sodipodi:nodetypes="ccccccccccccccccccccccc" />
  <path
     d="m 26.2,73.8 v 0 Q 15.8,73.8 10.1,68.65 4.4,63.5 4.4,55.4 v 0 q 0,-8 5.6,-13 v 0 Q 5.6,39.8 2.8,36 0,32.2 0,26.8 v 0 q 0,-6.3 4.45,-10.3 4.45,-4 12.05,-4 v 0 q 4.5,0 8.5,1 v 0 l -1,4.9 Q 22.4,18 20.6,17.75 18.8,17.5 16.9,17.5 v 0 q -5.3,0 -8.4,2.55 Q 5.4,22.6 5.4,27 v 0 q 0,4.2 2.25,7.2 2.25,3 6.85,5.3 v 0 q 4.3,-1.9 9.7,-1.9 v 0 q 0.9,0 1.9,0.05 1,0.05 1.9,0.15 v 0 l -0.6,4.9 Q 26,42.5 24.2,42.5 v 0 q -6.3,0 -10.4,3.35 -4.1,3.35 -4.1,9.55 v 0 q 0,6.3 4.35,9.85 4.35,3.55 12.25,3.55 v 0 q 9.4,0 14.8,-5.1 5.4,-5.1 5.4,-13.8 v 0 q 0,-5.3 -1.7,-9.5 -1.7,-4.2 -4.3,-9.1 v 0 Q 38.1,27 36.7,23.4 35.3,19.8 35.3,15.5 v 0 q 0,-4.6 2.2,-8.35 Q 39.7,3.4 44.5,0 V 0 L 48,4.4 q -3.8,2.7 -5.5,5.2 -1.7,2.5 -1.7,6.1 v 0 q 0,3.5 1.3,6.65 1.3,3.15 3.7,7.65 v 0 q 2.5,4.8 4.35,9.5 Q 52,44.2 52,49.9 v 0 q 0,6.7 -2.8,12.1 -2.8,5.4 -8.5,8.6 -5.7,3.2 -14.5,3.2 z"
     id="path126"
     inkscape:label="p1" />
</svg>
