<?xml version="1.0" encoding="UTF-8" standalone="no"?>
<svg
   width="62.900002"
   height="90.599998"
   version="1.1"
   id="svg4"
   sodipodi:docname="3_ee.svg"
   inkscape:version="1.1.2 (b8e25be833, 2022-02-05)"
   xmlns:inkscape="http://www.inkscape.org/namespaces/inkscape"
   xmlns:sodipodi="http://sodipodi.sourceforge.net/DTD/sodipodi-0.dtd"
   xmlns="http://www.w3.org/2000/svg"
   xmlns:svg="http://www.w3.org/2000/svg">
  <defs
     id="defs8" />
  <sodipodi:namedview
     id="namedview6"
     pagecolor="#ffffff"
     bordercolor="#666666"
     borderopacity="1.0"
     inkscape:pageshadow="2"
     inkscape:pageopacity="0.0"
     inkscape:pagecheckerboard="0"
     showgrid="false"
     inkscape:zoom="11.313709"
     inkscape:cx="19.578019"
     inkscape:cy="50.116193"
     inkscape:window-width="1920"
     inkscape:window-height="1057"
     inkscape:window-x="-8"
     inkscape:window-y="-8"
     inkscape:window-maximized="1"
     inkscape:current-layer="svg4" />
  <path
     d="m 26.2,90.6 v 0 Q 15.8,90.6 10.1,85.45 4.4,80.3 4.4,72.2 v 0 q 0,-8 5.6,-13 v 0 Q 5.6,56.6 2.8,52.8 0,49 0,43.6 v 0 q 0,-6.3 4.45,-10.3 4.45,-4 12.05,-4 v 0 q 4.5,0 8.5,1 v 0 l -1,4.9 Q 22.4,34.8 20.6,34.55 18.8,34.3 16.9,34.3 v 0 q -5.3,0 -8.4,2.55 -3.1,2.55 -3.1,6.95 v 0 q 0,4.2 2.25,7.2 2.25,3 6.85,5.3 v 0 q 4.3,-1.9 9.7,-1.9 v 0 q 0.9,0 1.9,0.05 1,0.05 1.9,0.15 v 0 l -0.6,4.9 Q 26,59.3 24.2,59.3 v 0 q -6.3,0 -10.4,3.35 Q 9.7,66 9.7,72.2 v 0 q 0,6.3 4.35,9.85 4.35,3.55 12.25,3.55 v 0 q 9.6,0 14.9,-5.1 5.3,-5.1 5.3,-13.8 v 0 q 0,-4.3 -0.75,-8.05 Q 45,54.9 43.4,50.75 41.8,46.6 39.1,41.2 v 0 Q 35.9,34.8 33.85,30.45 31.8,26.1 30.85,22.6 29.9,19.1 29.9,15.4 v 0 q 0,-6.6 4.05,-11 Q 38,0 45.1,0 v 0 q 4.8,0 8.15,1.85 3.35,1.85 5.65,5 2.3,3.15 4,6.95 v 0 L 58,15.5 Q 55.9,10.8 52.95,7.8 50,4.8 45.2,4.8 v 0 q -4.3,0 -7.05,2.75 -2.75,2.75 -2.75,7.95 v 0 q 0,5 2.3,10.5 2.3,5.5 5.9,12.5 v 0 q 4.1,8.1 6.25,14.6 Q 52,59.6 52,66.7 v 0 q 0,6.6 -2.8,12.05 -2.8,5.45 -8.5,8.65 -5.7,3.2 -14.5,3.2 z"
     id="path2"
     inkscape:label="s1" />
  <path
     style="fill:none;stroke:#000000;stroke-width:1px;stroke-linecap:butt;stroke-linejoin:miter;stroke-opacity:1"
     d="M 24.811653,32.857245 C 19.363436,31.701242 13.179665,30.821485 8.1715795,33.87189 4.7043996,35.843257 2.555794,39.736227 2.7066441,43.720274 c -0.2104959,4.743464 2.4695052,9.148655 6.2110116,11.899592 1.6959483,1.099031 3.2992403,2.559079 5.2698443,3.098889 1.979816,0.0188 3.683963,-1.302554 5.664417,-1.480589 2.680469,-0.544563 5.42197,-0.367662 8.132458,-0.222536 -4.962238,-0.45771 -10.246873,-0.082 -14.529896,2.715905 -4.3057637,2.691792 -6.6543319,7.817122 -6.3869021,12.829494 -0.042699,4.767529 2.2837095,9.500512 6.2692971,12.182914 5.182243,3.532988 11.843299,3.720309 17.875263,3.036737 6.737559,-0.813936 13.283984,-4.838841 16.01937,-11.212074 2.934905,-6.473657 2.284195,-13.922065 0.65288,-20.651928 C 44.721601,44.194357 37.469469,34.148385 33.671856,22.673699 32.506334,18.523863 32.128926,13.918863 33.60473,9.8104155 34.952959,6.2047876 38.156164,3.457273 41.947728,2.7457853 46.72649,1.6827791 52.192861,2.9231948 55.448279,6.7570138 c 2.305753,2.2816216 3.448392,5.3644242 5.086691,8.1032782"
     id="path1875"
     inkscape:label="p1" />
</svg>
