<?xml version="1.0" encoding="UTF-8" standalone="no"?>
<svg
   width="49.200001"
   height="84.400002"
   version="1.1"
   id="svg4"
   sodipodi:docname="4_u.svg"
   inkscape:version="1.1.2 (b8e25be833, 2022-02-05)"
   xmlns:inkscape="http://www.inkscape.org/namespaces/inkscape"
   xmlns:sodipodi="http://sodipodi.sourceforge.net/DTD/sodipodi-0.dtd"
   xmlns="http://www.w3.org/2000/svg"
   xmlns:svg="http://www.w3.org/2000/svg">
  <defs
     id="defs8" />
  <sodipodi:namedview
     id="namedview6"
     pagecolor="#ffffff"
     bordercolor="#666666"
     borderopacity="1.0"
     inkscape:pageshadow="2"
     inkscape:pageopacity="0.0"
     inkscape:pagecheckerboard="0"
     showgrid="false"
     inkscape:zoom="8"
     inkscape:cx="-8.3125"
     inkscape:cy="35.625"
     inkscape:window-width="1920"
     inkscape:window-height="1057"
     inkscape:window-x="-8"
     inkscape:window-y="-8"
     inkscape:window-maximized="1"
     inkscape:current-layer="svg4" />
  <path
     d="m 29.5,84.4 v 0 Q 20.7,84.4 14.05,80.1 7.4,75.8 3.7,66.9 0,58 0,44.2 v 0 Q 0,34.9 2.1,26.9 4.2,18.9 8.45,12.85 12.7,6.8 19.15,3.4 25.6,0 34.3,0 v 0 q 3,0 5.2,0.3 2.2,0.3 4.2,0.8 v 0 L 42.7,6 Q 39.3,5 34.5,5 v 0 q -7.6,0 -13.1,3.05 -5.5,3.05 -9,8.5 Q 8.9,22 7.2,29.1 5.5,36.2 5.5,44.3 v 0 q 0,12.2 3,19.95 3,7.75 8.4,11.45 5.4,3.7 12.5,3.7 v 0 q 6.6,0 10.5,-3.3 3.9,-3.3 3.9,-9.1 v 0 q 0,-8.5 -7.5,-13.6 v 0 q -4.5,1.4 -10.2,1.8 v 0 l -1,-5 Q 33.4,49.8 38.55,47 43.7,44.2 43.7,38.3 v 0 q 0,-4.5 -3.05,-7.35 Q 37.6,28.1 32,28.1 v 0 q -3.2,0 -6.4,0.85 -3.2,0.85 -6.6,2.35 v 0 l -1.8,-4.6 q 3.6,-1.6 7.3,-2.6 3.7,-1 7.5,-1 v 0 q 8.4,0 12.7,4.35 Q 49,31.8 49,38.1 v 0 q 0,4.5 -2,7.7 -2,3.2 -5.5,5.3 v 0 q 3.8,3.4 5.75,7.55 1.95,4.15 1.95,8.45 v 0 q 0,7.8 -5.25,12.55 Q 38.7,84.4 29.5,84.4 Z"
     id="path2"
     inkscape:label="p1"
     style="display:inline" />
  <path
     style="display:inline;fill:none;stroke:#000000;stroke-width:1px;stroke-linecap:butt;stroke-linejoin:miter;stroke-opacity:1"
     d="m 17.777344,29.195312 c 4.501197,-1.813336 9.138011,-3.715967 14.084553,-3.582796 4.473798,-0.0883 9.437966,1.181442 12.082883,5.083351 2.663674,3.426037 3.092326,8.3721 1.495481,12.34432 -2.067591,5.035603 -7.431872,7.598385 -12.493511,8.57862 -2.641667,0.590296 -5.339965,0.821562 -8.024882,1.119486 3.843011,-0.328095 7.658615,-0.941155 11.390625,-1.89844 1.951574,0.206208 3.232397,1.995726 4.640729,3.188196 5.181391,5.035213 7.275069,13.467372 3.950587,20.061902 -2.513303,4.906223 -8.037983,7.469797 -13.364879,7.733131 C 24.020019,82.443562 16.042494,79.865574 11.072878,74.020938 5.747408,67.801673 3.7246282,59.493441 3.0462773,51.504588 2.2751451,41.233468 2.929792,30.560956 7.0044611,20.981639 9.5617867,15.002933 13.648024,9.4992329 19.371183,6.2392352 25.636376,2.549973 33.295072,1.8334405 40.367187,3 41.410898,3.2214038 42.455798,3.4371784 43.5,3.65625"
     id="path87"
     inkscape:label="s1" />
</svg>
