<?xml version="1.0" encoding="UTF-8" standalone="no"?>
<svg
   width="79.5"
   height="84.400002"
   version="1.1"
   id="svg4"
   sodipodi:docname="5_oo.svg"
   inkscape:version="1.2.1 (9c6d41e410, 2022-07-14)"
   xmlns:inkscape="http://www.inkscape.org/namespaces/inkscape"
   xmlns:sodipodi="http://sodipodi.sourceforge.net/DTD/sodipodi-0.dtd"
   xmlns="http://www.w3.org/2000/svg"
   xmlns:svg="http://www.w3.org/2000/svg">
  <defs
     id="defs8" />
  <sodipodi:namedview
     id="namedview6"
     pagecolor="#ffffff"
     bordercolor="#666666"
     borderopacity="1.0"
     inkscape:pageshadow="2"
     inkscape:pageopacity="0.0"
     inkscape:pagecheckerboard="0"
     showgrid="false"
     inkscape:zoom="8"
     inkscape:cx="23.8125"
     inkscape:cy="41.375"
     inkscape:window-width="1920"
     inkscape:window-height="1027"
     inkscape:window-x="-8"
     inkscape:window-y="-8"
     inkscape:window-maximized="1"
     inkscape:current-layer="svg4"
     inkscape:showpageshadow="2"
     inkscape:deskcolor="#d1d1d1" />
  <g
     id="g117"
     inkscape:label="g1">
    <path
       d="m 29.3,84.4 v 0 Q 20.6,84.4 14,80.15 7.4,75.9 3.7,67.25 0,58.6 0,45.4 v 0 Q 0,35.7 2.3,27.45 4.6,19.2 9.2,13 13.8,6.8 20.55,3.4 27.3,0 36.3,0 v 0 q 8.4,0 14.9,3.25 6.5,3.25 11.1,8.95 4.6,5.7 7.6,13 v 0 44.1 q 0,3.2 0.5,4.85 0.5,1.65 1.7,2.55 v 0 q 1.2,1.2 3.15,1.45 1.95,0.25 4.25,0.25 v 0 l -0.5,5 h -1 q -6.7,0 -9.9,-3 v 0 Q 66.3,78.8 65.45,76.3 64.6,73.8 64.6,69.6 v 0 -43 Q 61,17 53.9,11 46.8,5 36.5,5 V 5 Q 28.6,5 22.8,8.1 17,11.2 13.15,16.7 9.3,22.2 7.4,29.55 5.5,36.9 5.5,45.3 v 0 q 0,17.5 6.6,25.8 6.6,8.3 17.3,8.3 v 0 q 6.6,0 10.5,-3.3 3.9,-3.3 3.9,-9.1 v 0 q 0,-8.5 -7.5,-13.6 v 0 q -4.5,1.4 -10.2,1.8 v 0 l -1,-5 Q 33.4,49.8 38.55,47 43.7,44.2 43.7,38.3 v 0 q 0,-4.5 -3.05,-7.35 Q 37.6,28.1 32,28.1 v 0 q -3.2,0 -6.4,0.85 -3.2,0.85 -6.6,2.35 v 0 l -1.8,-4.6 q 3.6,-1.6 7.3,-2.6 3.7,-1 7.5,-1 v 0 q 8.4,0 12.7,4.35 Q 49,31.8 49,38.1 v 0 q 0,4.5 -2,7.7 -2,3.2 -5.5,5.3 v 0 q 3.8,3.4 5.75,7.55 1.95,4.15 1.95,8.45 v 0 q 0,7.9 -5.3,12.6 -5.3,4.7 -14.6,4.7 z"
       id="path2"
       inkscape:label="p1" />
    <path
       style="fill:none;stroke:#000000;stroke-width:1px;stroke-linecap:butt;stroke-linejoin:miter;stroke-opacity:1"
       d="m 17.640625,29.1875 c 4.692685,-1.787808 9.47915,-3.820308 14.613281,-3.578134 4.929197,-0.130019 10.320362,1.892063 12.63159,6.521356 2.871624,5.23898 1.540368,12.52738 -3.463624,16.002079 -4.685079,3.437395 -10.644814,3.903354 -16.210938,4.671879"
       id="path367"
       inkscape:label="s1" />
    <path
       style="fill:none;stroke:#000000;stroke-width:1px;stroke-linecap:butt;stroke-linejoin:miter;stroke-opacity:1"
       d="m 36.25205,50.878975 c 2.38856,0.135279 3.814654,2.498695 5.464222,3.957665 5.120525,5.492774 6.628868,14.624983 2.168546,20.950836 -3.737752,4.969087 -10.346893,6.466101 -16.263759,6.064072 C 19.8703,81.532324 12.330333,77.282749 8.4204414,70.518192 3.4433909,62.479456 2.7057878,52.709709 2.7826972,43.479751 3.1025219,33.053786 5.4158044,22.195659 11.98306,13.833675 17.100062,7.1336546 25.224392,2.9399583 33.644118,2.5935426 c 8.213576,-0.700036 16.833572,1.64515 22.938117,7.3390098 4.830481,4.3426766 8.341459,10.0070506 10.6592,16.0425736 0.04764,15.309045 -0.0802,30.622533 0.07734,45.928795 0.05552,3.097248 1.479492,6.254577 4.352806,7.689572 2.36287,1.376193 5.206396,0.98891 7.801075,1.476819"
       id="path382"
       inkscape:label="s2" />
  </g>
</svg>
