<?xml version="1.0" encoding="UTF-8" standalone="no"?>
<svg
   width="81.900002"
   height="89.599998"
   version="1.1"
   id="svg4"
   sodipodi:docname="7_ai.svg"
   inkscape:version="1.2.1 (9c6d41e410, 2022-07-14)"
   xmlns:inkscape="http://www.inkscape.org/namespaces/inkscape"
   xmlns:sodipodi="http://sodipodi.sourceforge.net/DTD/sodipodi-0.dtd"
   xmlns="http://www.w3.org/2000/svg"
   xmlns:svg="http://www.w3.org/2000/svg">
  <defs
     id="defs8" />
  <sodipodi:namedview
     id="namedview6"
     pagecolor="#ffffff"
     bordercolor="#666666"
     borderopacity="1.0"
     inkscape:pageshadow="2"
     inkscape:pageopacity="0.0"
     inkscape:pagecheckerboard="0"
     showgrid="false"
     inkscape:zoom="4"
     inkscape:cx="39.125"
     inkscape:cy="58"
     inkscape:window-width="1920"
     inkscape:window-height="1027"
     inkscape:window-x="-8"
     inkscape:window-y="-8"
     inkscape:window-maximized="1"
     inkscape:current-layer="svg4"
     inkscape:showpageshadow="2"
     inkscape:deskcolor="#d1d1d1" />
  <g
     id="g125"
     inkscape:label="g1">
    <path
       style="display:inline"
       d="m 30.1,78.3 v 0 Q 23.3,78.3 17.95,75.05 12.6,71.8 9.1,65 v 0 q -0.6,0 -1.3,0 v 0 Q 0.4,65 0.4,60 v 0 Q 0.4,58.4 1.6,57.2 2.8,56 5.3,56 v 0 q 2.4,0 4.15,1.05 1.75,1.05 3.25,2.85 v 0 Q 18.2,58.6 21.6,55 25,51.4 25,46.3 v 0 Q 25,40.9 21.75,37.6 18.5,34.3 11.7,34.3 v 0 q -2.3,0 -4.9,0.6 -2.6,0.6 -5,1.5 v 0 L 0,31.7 q 2.4,-1 5.5,-1.7 3.1,-0.7 6.4,-0.7 v 0 q 8.7,0 13.6,4.75 4.9,4.75 4.9,12.45 v 0 Q 30.4,53 25.95,57.75 21.5,62.5 14.6,64.2 v 0 q 2.2,4.2 5.95,6.65 3.75,2.45 9.25,2.45 v 0 q 7.3,0 11.3,-4.1 v 0 q 2.4,-2.5 3.4,-6.05 1,-3.55 1,-8.55 v 0 -9.6 l 5.3,0.7 v 10 q 0,0.8 0,1.5 v 0 q 2.2,3.5 6.7,3.4 v 0 q 3,0 5.3,-1.35 2.3,-1.35 4.2,-3.65 v 0 -26.3 l 5.3,0.8 v 45.4 q 0,3.2 0.5,4.85 0.5,1.65 1.7,2.55 v 0 q 1.2,1.2 3.15,1.45 1.95,0.25 4.25,0.25 v 0 l -0.5,5 h -1 q -6.7,0 -9.9,-3 v 0 Q 68.7,85 67.85,82.5 67,80 67,75.8 v 0 -13.7 q -1.8,1.6 -4.1,2.5 -2.3,0.9 -5.3,1 v 0 Q 55.6,65.5 53.65,64.95 51.7,64.4 50,63 v 0 q -1.7,7.4 -6.95,11.3 -5.25,3.9 -12.95,4 z"
       id="path2"
       inkscape:label="p1" />
    <path
       style="display:inline;fill:none;stroke:#000000;stroke-width:1px;stroke-linecap:butt;stroke-linejoin:miter;stroke-opacity:1"
       d="M 0.65757941,34.26287 C 4.5085764,32.761869 8.5505814,31.496057 12.738681,31.80534 c 4.848101,0.01429 10.052134,1.906574 12.640699,6.23651 2.706408,3.836123 2.864604,9.001236 1.475919,13.362737 -2.117389,5.612094 -7.586039,9.270234 -13.241928,10.660941 -2.135214,0.798501 -4.4777886,0.746524 -6.7177106,0.755338 -1.374032,-0.04729 -2.256458,-0.08535 -3.793961,-1.42246 -0.718534,-0.970424 -0.625936,-2.407007 0.523604,-2.77457 1.620114,-0.748151 3.059072,-0.211952 4.639483,0.242361 1.615567,0.960371 2.2323656,1.662484 2.9333296,3.467674 1.058484,3.837866 3.507226,7.254801 6.685345,9.624213 4.918753,3.848199 11.709889,4.52349 17.647537,3.114191 5.493313,-1.267885 10.11971,-5.704379 11.481494,-11.194784 0.590485,-1.875504 1.030741,-3.507747 1.112987,-5.728281 V 44.675295"
       id="path1222"
       inkscape:label="s1" />
    <path
       id="path467"
       style="fill:none;stroke:#000000;stroke-width:1px;stroke-linecap:butt;stroke-linejoin:miter;stroke-opacity:1"
       d="m 49.90675,60.390896 c 1.494494,0.528195 2.697125,1.656937 4.212003,2.146321 1.873017,0.625309 3.909604,0.639841 5.845426,0.318255 2.447425,-0.405626 4.647835,-1.699206 6.468395,-3.346291 1.15453,-1.037607 2.39346,-2.042168 3.14533,-3.427628 l 0.11126,-26.775734"
       sodipodi:nodetypes="cccccc"
       inkscape:label="s2" />
    <path
       style="fill:none;stroke:#000000;stroke-width:1px;stroke-linecap:butt;stroke-linejoin:miter;stroke-opacity:1"
       d="m 69.575434,56.025985 c 0.0256,5.463549 0.4125,10.926281 0.14194,16.389964 -0.1518,3.19707 -0.44907,6.554798 0.72597,9.613934 0.68226,1.784111 2.19242,3.171418 3.89655,3.971442 1.55808,0.697867 3.27076,0.867624 4.95632,0.950385 0.82899,0.06121 1.65798,0.122431 2.48697,0.183646"
       id="path265"
       sodipodi:nodetypes="cccccccccccccccccccccccccc"
       inkscape:label="s3" />
  </g>
  <g
     id="g129"
     inkscape:label="g2">
    <path
       style="display:inline"
       d="m 66.6,23.7 -2.8,2.9 Q 57.7,21.2 53.5,18.85 49.3,16.5 44.4,16.5 v 0 q -3.5,0 -6.4,0.9 v 0 l -1.5,-4.7 q 1.8,-0.4 3.75,-0.7 1.95,-0.3 4.15,-0.3 v 0 q 3.8,0 7.15,1.2 3.35,1.2 6.9,3.85 3.55,2.65 8.15,6.95 z"
       id="path119"
       inkscape:label="p2" />
    <path
       style="display:inline;fill:none;stroke:#000000;stroke-width:1px;stroke-linecap:butt;stroke-linejoin:miter;stroke-opacity:1"
       d="m 36.975381,15.030458 c 2.109893,-0.378313 4.223365,-0.790934 6.363989,-0.931796 2.600139,-0.04899 5.241808,0.229607 7.701618,1.103552 1.735833,0.63291 3.356083,1.54086 4.926083,2.504648 3.301973,2.240913 6.274622,4.911793 9.27121,7.53533"
       id="path1298"
       inkscape:label="s4" />
  </g>
  <g
     id="g133"
     inkscape:label="g3">
    <path
       style="display:inline"
       d="M 71.9,25.5 H 67.5 Q 65.6,17.7 63.75,13.15 61.9,8.6 59.45,6.7 57,4.8 53.2,4.8 v 0 Q 52,4.8 50.65,5 49.3,5.2 47.8,5.7 v 0 L 46.3,1.1 Q 48.2,0.5 50,0.25 51.8,0 53.5,0 v 0 q 4.6,0 7.95,2.25 3.35,2.25 5.85,7.8 2.5,5.55 4.6,15.45 z"
       id="path117"
       inkscape:label="p3" />
    <path
       style="display:inline;fill:none;stroke:#000000;stroke-width:1px;stroke-linecap:butt;stroke-linejoin:miter;stroke-opacity:1"
       d="m 46.882812,3.5234375 c 1.385335,-0.3461019 2.728457,-0.910184 4.167761,-0.9797876 1.600582,-0.2150487 3.237556,-0.1744199 4.830135,0.084796 2.51349,0.4206463 4.896788,1.7064756 6.525062,3.6827458 0.985178,1.2611489 1.862595,2.6218045 2.578191,4.0541623 1.540366,3.266067 2.457738,6.772516 3.455614,10.22954 0.422385,1.665481 0.835007,3.332052 1.185425,5.014481"
       id="path1371"
       inkscape:label="s5" />
  </g>
</svg>
