<?xml version="1.0" encoding="UTF-8" standalone="no"?>
<svg
   width="107"
   height="89.599998"
   version="1.1"
   id="svg4"
   sodipodi:docname="8_o.svg"
   inkscape:version="1.1.2 (b8e25be833, 2022-02-05)"
   xmlns:inkscape="http://www.inkscape.org/namespaces/inkscape"
   xmlns:sodipodi="http://sodipodi.sourceforge.net/DTD/sodipodi-0.dtd"
   xmlns="http://www.w3.org/2000/svg"
   xmlns:svg="http://www.w3.org/2000/svg">
  <defs
     id="defs8" />
  <sodipodi:namedview
     id="namedview6"
     pagecolor="#ffffff"
     bordercolor="#666666"
     borderopacity="1.0"
     inkscape:pageshadow="2"
     inkscape:pageopacity="0.0"
     inkscape:pagecheckerboard="0"
     showgrid="true"
     inkscape:zoom="3.8988482"
     inkscape:cx="17.825778"
     inkscape:cy="68.481764"
     inkscape:window-width="1920"
     inkscape:window-height="1057"
     inkscape:window-x="-8"
     inkscape:window-y="-8"
     inkscape:window-maximized="1"
     inkscape:current-layer="svg4">
    <inkscape:grid
       type="xygrid"
       id="grid10" />
  </sodipodi:namedview>
  <path
     style="display:inline;fill:none;stroke:#000000;stroke-width:1px;stroke-linecap:butt;stroke-linejoin:miter;stroke-opacity:1"
     d="m 70.25368,3.6875 c 2.30969,-0.6219566 4.66186,-1.2236163 7.06499,-1.2570132 2.02693,0.063999 4.07372,0.4213119 5.88902,1.3609311 0.63379,0.2889127 1.19025,0.7287152 1.79231,1.0755155 1.22374,1.0953227 2.31843,2.3383272 3.18611,3.7354807 1.38364,2.1145589 2.37433,4.4624849 3.22497,6.8340689 0.78307,2.133596 1.47901,4.296437 2.07568,6.489732 0.3598,1.261574 0.71961,2.523148 1.07942,3.784722"
     id="path1388"
     inkscape:label="s3" />
  <path
     style="display:inline;fill:none;stroke:#000000;stroke-width:1px;stroke-linecap:butt;stroke-linejoin:miter;stroke-opacity:1"
     d="m 94.730212,29.352146 c 0.01513,15.712379 -0.03027,31.426674 0.02271,47.137855 0.09939,2.717602 0.315252,5.743939 2.348965,7.780693 1.406203,1.440823 3.334803,2.382777 5.365383,2.450116 1.49419,0.189485 3.01779,0.353191 4.49368,0.55885"
     id="path253"
     inkscape:label="s2" />
  <path
     style="display:inline;fill:none;stroke:#000000;stroke-width:1px;stroke-linecap:butt;stroke-linejoin:miter;stroke-opacity:1"
     d="M 0.85757937,34.281612 C 4.7085774,32.780611 8.7505824,31.514799 12.938682,31.824082 c 4.848101,0.01429 10.052134,1.906574 12.640699,6.23651 2.706408,3.836123 2.864604,9.001236 1.475919,13.362737 -2.117389,5.612094 -7.586039,9.270234 -13.241928,10.660941 -2.135214,0.798501 -4.4777896,0.746524 -6.7177116,0.755338 -1.561531,-0.03167 -2.943958,0.0709 -3.872085,-1.32871 -0.54666,-1.032924 -0.532186,-2.516382 0.570478,-2.96207 1.604489,-0.529401 3.277822,-0.08695 4.623858,0.429861 1.5999416,1.007246 2.5604916,1.771859 2.9802056,3.373924 1.058484,3.837866 3.507226,7.254801 6.685345,9.624213 4.918753,3.848199 11.709889,4.52349 17.647537,3.114191 5.493313,-1.267885 10.11971,-5.704379 11.481494,-11.194784 0.590485,-1.875504 1.390116,-3.718685 1.112987,-5.728281 v -13.473915 14.90625 c 1.720215,0.647313 3.20194,1.623059 4.838518,2.558252 4.196733,1.749919 9.247061,0.939895 12.723982,-1.980127 1.421247,-0.915237 3.101012,-1.563322 3.795265,-3.229827 0.36993,-1.862476 0.05149,-3.931821 0.15786,-5.873503 V 29.330756 c 0.02406,15.913856 -0.0481,31.83203 0.03604,47.743191 0.131397,2.988746 0.674967,6.489921 3.516946,8.121806 2.463499,1.932788 5.767086,1.692766 8.673579,2.060784"
     id="path1222"
     inkscape:label="s1"
     sodipodi:nodetypes="cccccccccccccccccccccccc" />
  <path
     d="m 30.1,78.3 v 0 Q 23.3,78.3 17.95,75.05 12.6,71.8 9.1,65 v 0 q -0.6,0 -1.3,0 v 0 Q 0.4,65 0.4,60 v 0 Q 0.4,58.4 1.6,57.2 2.8,56 5.3,56 v 0 q 2.4,0 4.15,1.05 1.75,1.05 3.25,2.85 v 0 Q 18.2,58.6 21.6,55 25,51.4 25,46.3 v 0 Q 25,40.9 21.75,37.6 18.5,34.3 11.7,34.3 v 0 q -2.3,0 -4.9,0.6 -2.6,0.6 -5,1.5 v 0 L 0,31.7 q 2.4,-1 5.5,-1.7 3.1,-0.7 6.4,-0.7 v 0 q 8.7,0 13.6,4.75 4.9,4.75 4.9,12.45 v 0 Q 30.4,53 25.95,57.75 21.5,62.5 14.6,64.2 v 0 q 2.2,4.2 5.95,6.65 3.75,2.45 9.25,2.45 v 0 q 7.3,0 11.3,-4.1 v 0 q 2.4,-2.5 3.4,-6.05 1,-3.55 1,-8.55 v 0 -9.6 l 5.3,0.7 v 10 q 0,0.8 0,1.5 v 0 q 2.2,3.5 6.7,3.4 v 0 q 3,0 5.3,-1.35 2.3,-1.35 4.2,-3.65 v 0 -26.3 l 5.3,0.8 v 45.4 q 0,3.2 0.5,4.85 0.5,1.65 1.7,2.55 v 0 q 1.2,1.2 3.15,1.45 1.95,0.25 4.25,0.25 v 0 l -0.5,5 h -1 q -6.7,0 -9.9,-3 v 0 Q 68.7,85 67.85,82.5 67,80 67,75.8 v 0 -13.7 q -1.8,1.6 -4.1,2.5 -2.3,0.9 -5.3,1 v 0 Q 55.6,65.5 53.65,64.95 51.7,64.4 50,63 v 0 q -1.7,7.4 -6.95,11.3 -5.25,3.9 -12.95,4 z m 76.4,11.3 h -1 q -6.7,0 -9.9,-3 v 0 Q 93.8,85 92.95,82.5 92.1,80 92.1,75.8 v 0 -46.5 l 5.3,0.8 v 45.4 q 0,3.2 0.5,4.85 0.5,1.65 1.7,2.55 v 0 q 1.2,1.2 3.15,1.45 1.95,0.25 4.25,0.25 v 0 z M 96.9,25.5 H 92.1 Q 89.9,17.9 87.9,13.4 85.9,8.9 83.35,6.9 80.8,4.9 76.9,4.9 v 0 q -2.8,0 -5.8,0.9 v 0 L 69.5,1.2 Q 71.5,0.6 73.45,0.3 75.4,0 77.2,0 v 0 q 4.7,0 8.2,2.15 3.5,2.15 6.25,7.65 2.75,5.5 5.25,15.7 z"
     id="path2"
     style="display:inline"
     inkscape:label="p1" />
</svg>
