<?xml version="1.0" encoding="UTF-8" standalone="no"?>
<svg
   width="107"
   height="89.599998"
   version="1.1"
   id="svg4"
   sodipodi:docname="9_au.svg"
   inkscape:version="1.2.1 (9c6d41e410, 2022-07-14)"
   xmlns:inkscape="http://www.inkscape.org/namespaces/inkscape"
   xmlns:sodipodi="http://sodipodi.sourceforge.net/DTD/sodipodi-0.dtd"
   xmlns="http://www.w3.org/2000/svg"
   xmlns:svg="http://www.w3.org/2000/svg">
  <defs
     id="defs8" />
  <sodipodi:namedview
     id="namedview6"
     pagecolor="#ffffff"
     bordercolor="#666666"
     borderopacity="1.0"
     inkscape:pageshadow="2"
     inkscape:pageopacity="0.0"
     inkscape:pagecheckerboard="0"
     showgrid="false"
     inkscape:zoom="3.8988482"
     inkscape:cx="15.132674"
     inkscape:cy="92.334962"
     inkscape:window-width="1920"
     inkscape:window-height="1027"
     inkscape:window-x="-8"
     inkscape:window-y="-8"
     inkscape:window-maximized="1"
     inkscape:current-layer="svg4"
     inkscape:showpageshadow="2"
     inkscape:deskcolor="#d1d1d1" />
  <g
     id="g119"
     inkscape:label="g1"
     transform="translate(0,29.3)">
    <path
       d="m 30.1,49 v 0 Q 23.3,49 17.95,45.75 12.6,42.5 9.1,35.7 v 0 q -0.6,0 -1.3,0 v 0 q -7.4,0 -7.4,-5 v 0 q 0,-1.6 1.2,-2.8 1.2,-1.2 3.7,-1.2 v 0 q 2.4,0 4.15,1.05 1.75,1.05 3.25,2.85 v 0 Q 18.2,29.3 21.6,25.7 25,22.1 25,17 v 0 Q 25,11.6 21.75,8.3 18.5,5 11.7,5 V 5 Q 9.4,5 6.8,5.6 4.2,6.2 1.8,7.1 v 0 L 0,2.4 Q 2.4,1.4 5.5,0.7 8.6,0 11.9,0 v 0 q 8.7,0 13.6,4.75 4.9,4.75 4.9,12.45 v 0 q 0,6.5 -4.45,11.25 Q 21.5,33.2 14.6,34.9 v 0 q 2.2,4.2 5.95,6.65 Q 24.3,44 29.8,44 v 0 q 7.3,0 11.3,-4.1 v 0 q 2.4,-2.5 3.4,-6.05 1,-3.55 1,-8.55 v 0 -9.6 l 5.3,0.7 v 10 q 0,0.8 0,1.5 v 0 q 2.2,3.5 6.7,3.4 v 0 q 3,0 5.3,-1.35 2.3,-1.35 4.2,-3.65 v 0 V 0 l 5.3,0.8 v 45.4 q 0,3.2 0.5,4.85 0.5,1.65 1.7,2.55 v 0 q 1.2,1.2 3.15,1.45 1.95,0.25 4.25,0.25 v 0 l -0.5,5 h -1 q -6.7,0 -9.9,-3 v 0 Q 68.7,55.7 67.85,53.2 67,50.7 67,46.5 v 0 -13.7 q -1.8,1.6 -4.1,2.5 -2.3,0.9 -5.3,1 v 0 Q 55.6,36.2 53.65,35.65 51.7,35.1 50,33.7 v 0 Q 48.3,41.1 43.05,45 37.8,48.9 30.1,49 Z"
       id="path2-9"
       inkscape:label="p1" />
    <path
       style="display:inline;fill:none;stroke:#000000;stroke-width:1px;stroke-linecap:butt;stroke-linejoin:miter;stroke-opacity:1"
       d="M 0.65709985,4.962575 C 4.5080975,3.4615736 8.5501024,2.1957618 12.738202,2.5050451 c 4.848101,0.014292 10.052134,1.906574 12.640699,6.23651 2.706408,3.8361229 2.864604,9.0012359 1.475919,13.3627369 -2.117389,5.612094 -7.586039,9.270234 -13.241928,10.660941 -2.135214,0.798501 -4.4777893,0.746524 -6.7177111,0.755338 -1.3740316,-0.04729 -2.2564582,-0.08535 -3.7939606,-1.42246 -0.7185346,-0.970424 -0.625936,-2.407007 0.5236036,-2.77457 1.6201141,-0.748151 3.0590718,-0.211952 4.6394826,0.242361 1.6155672,0.960371 2.2323665,1.662484 2.9333305,3.467674 1.058484,3.837866 3.507226,7.254801 6.685345,9.624213 4.918753,3.848199 11.709889,4.52349 17.647537,3.114191 5.493313,-1.267885 10.11971,-5.704379 11.481494,-11.194784 0.590485,-1.875504 1.030741,-3.507747 1.112987,-5.728281 V 15.375"
       id="path1222-6"
       inkscape:label="s1" />
    <path
       id="path467-1"
       style="fill:none;stroke:#000000;stroke-width:1px;stroke-linecap:butt;stroke-linejoin:miter;stroke-opacity:1"
       d="m 49.906271,31.090601 c 1.494494,0.528195 2.697125,1.656937 4.212003,2.146321 1.873017,0.625309 3.909604,0.639841 5.845426,0.318255 2.447421,-0.405626 4.647839,-1.699206 6.46839,-3.346291 1.154536,-1.037607 2.393463,-2.042168 3.145336,-3.427628 L 69.688688,0.00552427"
       sodipodi:nodetypes="cccccc"
       inkscape:label="s2" />
    <path
       style="fill:none;stroke:#000000;stroke-width:1px;stroke-linecap:butt;stroke-linejoin:miter;stroke-opacity:1"
       d="m 69.574951,26.72569 c 0.02558,5.463549 0.412507,10.926281 0.141942,16.389964 -0.151801,3.19707 -0.449067,6.554798 0.725971,9.613934 0.682263,1.784111 2.192423,3.171418 3.896548,3.971442 1.558088,0.697867 3.270766,0.867624 4.956327,0.950385 0.82899,0.06121 1.657979,0.122431 2.486969,0.183646"
       id="path265-4"
       sodipodi:nodetypes="cccccccccccccccccccccccccc"
       inkscape:label="s3" />
  </g>
  <g
     id="g78"
     inkscape:label="g2">
    <path
       style="display:inline"
       d="m 106.5,89.6 h -1 q -6.7,0 -9.9,-3 v 0 Q 93.8,85 92.95,82.5 92.1,80 92.1,75.8 v 0 -46.5 l 5.3,0.8 v 45.4 q 0,3.2 0.5,4.85 0.5,1.65 1.7,2.55 v 0 q 1.2,1.2 3.15,1.45 1.95,0.25 4.25,0.25 v 0 z"
       id="path14"
       inkscape:label="p2" />
    <path
       style="display:inline;fill:none;stroke:#000000;stroke-width:1px;stroke-linecap:butt;stroke-linejoin:miter;stroke-opacity:1"
       d="m 94.730213,28.933454 c 0.0151,15.712379 -0.0303,31.426674 0.0227,47.137855 0.0994,2.717602 0.31525,5.743939 2.34896,7.780693 1.40621,1.440823 3.334807,2.382777 5.365387,2.450116 1.49419,0.189485 3.01779,0.353191 4.49368,0.55885"
       id="path253"
       inkscape:label="s4" />
  </g>
  <g
     id="g82"
     inkscape:label="g3">
    <path
       style="display:inline"
       d="m 91.7,23.7 -2.8,2.9 Q 82.8,21.2 78.6,18.85 74.4,16.5 69.5,16.5 v 0 q -3.5,0 -6.4,0.9 v 0 l -1.5,-4.7 q 1.8,-0.4 3.75,-0.7 1.95,-0.3 4.15,-0.3 v 0 q 3.8,0 7.15,1.2 3.35,1.2 6.9,3.85 3.55,2.65 8.15,6.95 z"
       id="path18"
       inkscape:label="p3" />
    <path
       style="display:inline;fill:none;stroke:#000000;stroke-width:1px;stroke-linecap:butt;stroke-linejoin:miter;stroke-opacity:1"
       d="m 61.980804,15.075799 c 2.561118,-0.446917 5.126492,-1.037928 7.743796,-0.929484 1.165847,0.0082 2.336144,0.03121 3.4762,0.299615 1.289219,0.231957 2.545151,0.610649 3.757299,1.10605 1.124872,0.546608 2.26523,1.079571 3.356295,1.690047 1.230942,0.813082 2.495688,1.579959 3.602438,2.562793 2.235736,1.721914 4.323486,3.620242 6.469951,5.449977"
       id="path950"
       inkscape:label="s5" />
  </g>
  <g
     id="g86"
     inkscape:label="g4">
    <path
       style="display:inline"
       d="M 97,25.5 H 92.6 Q 90.7,17.7 88.85,13.15 87,8.6 84.55,6.7 82.1,4.8 78.3,4.8 v 0 Q 77.1,4.8 75.75,5 74.4,5.2 72.9,5.7 v 0 L 71.4,1.1 Q 73.3,0.5 75.1,0.25 76.9,0 78.6,0 v 0 q 4.6,0 7.95,2.25 3.35,2.25 5.85,7.8 2.5,5.55 4.6,15.45 z"
       id="path16"
       inkscape:label="p4" />
    <path
       style="fill:none;stroke:#000000;stroke-width:1px;stroke-linecap:butt;stroke-linejoin:miter;stroke-opacity:1"
       d="m 71.921763,3.5252432 c 1.861468,-0.4697272 3.707502,-1.1372837 5.652062,-1.105751 1.022212,-0.016594 2.063596,-0.073044 3.072385,0.099846 0.940606,0.1722449 1.869806,0.3832384 2.743958,0.7812307 0.863207,0.3280915 1.637306,0.8647628 2.430985,1.3257093 1.054979,1.0379058 2.161817,2.0560907 2.90919,3.3490937 1.104255,1.7247201 1.972566,3.5944156 2.622093,5.5355036 0.870193,2.303689 1.562193,4.670247 2.195346,7.048605 0.435038,1.698638 0.785865,3.417723 1.180378,5.126053"
       id="path985"
       inkscape:label="s6" />
  </g>
</svg>
