<?xml version="1.0" encoding="UTF-8" standalone="no"?>
<svg
   width="107"
   height="89.599998"
   version="1.1"
   id="svg4"
   sodipodi:docname="9_au.svg"
   inkscape:version="1.1.2 (b8e25be833, 2022-02-05)"
   xmlns:inkscape="http://www.inkscape.org/namespaces/inkscape"
   xmlns:sodipodi="http://sodipodi.sourceforge.net/DTD/sodipodi-0.dtd"
   xmlns="http://www.w3.org/2000/svg"
   xmlns:svg="http://www.w3.org/2000/svg">
  <defs
     id="defs8" />
  <sodipodi:namedview
     id="namedview6"
     pagecolor="#ffffff"
     bordercolor="#666666"
     borderopacity="1.0"
     inkscape:pageshadow="2"
     inkscape:pageopacity="0.0"
     inkscape:pagecheckerboard="0"
     showgrid="false"
     inkscape:zoom="3.8988482"
     inkscape:cx="76.048101"
     inkscape:cy="92.334963"
     inkscape:window-width="1920"
     inkscape:window-height="1057"
     inkscape:window-x="-8"
     inkscape:window-y="-8"
     inkscape:window-maximized="1"
     inkscape:current-layer="svg4" />
  <path
     style="fill:none;stroke:#000000;stroke-width:1px;stroke-linecap:butt;stroke-linejoin:miter;stroke-opacity:1"
     d="m 71.921763,3.5252432 c 1.861468,-0.4697272 3.707502,-1.1372837 5.652062,-1.105751 1.022212,-0.016594 2.063596,-0.073044 3.072385,0.099846 0.940606,0.1722449 1.869806,0.3832384 2.743958,0.7812307 0.863207,0.3280915 1.637306,0.8647628 2.430985,1.3257093 1.054979,1.0379058 2.161817,2.0560907 2.90919,3.3490937 1.104255,1.7247201 1.972566,3.5944156 2.622093,5.5355036 0.870193,2.303689 1.562193,4.670247 2.195346,7.048605 0.435038,1.698638 0.785865,3.417723 1.180378,5.126053"
     id="path985"
     inkscape:label="s4" />
  <path
     style="display:inline;fill:none;stroke:#000000;stroke-width:1px;stroke-linecap:butt;stroke-linejoin:miter;stroke-opacity:1"
     d="m 61.980804,15.075799 c 2.561118,-0.446917 5.126492,-1.037928 7.743796,-0.929484 1.165847,0.0082 2.336144,0.03121 3.4762,0.299615 1.289219,0.231957 2.545151,0.610649 3.757299,1.10605 1.124872,0.546608 2.26523,1.079571 3.356295,1.690047 1.230942,0.813082 2.495688,1.579959 3.602438,2.562793 2.235736,1.721914 4.323486,3.620242 6.469951,5.449977"
     id="path950"
     inkscape:label="s3" />
  <path
     style="display:inline;fill:none;stroke:#000000;stroke-width:1px;stroke-linecap:butt;stroke-linejoin:miter;stroke-opacity:1"
     d="m 94.730213,28.933454 c 0.0151,15.712379 -0.0303,31.426674 0.0227,47.137855 0.0994,2.717602 0.31525,5.743939 2.34896,7.780693 1.40621,1.440823 3.334807,2.382777 5.365387,2.450116 1.49419,0.189485 3.01779,0.353191 4.49368,0.55885"
     id="path253"
     inkscape:label="s2" />
  <path
     style="display:inline;fill:none;stroke:#000000;stroke-width:0.999998px;stroke-linecap:butt;stroke-linejoin:miter;stroke-opacity:1"
     d="m 0.857579,34.262613 c 3.8509771,-1.501001 7.8929602,-2.766813 12.081037,-2.45753 4.848075,0.01429 10.052076,1.906574 12.640633,6.23651 2.706394,3.836123 2.864583,9.001236 1.475912,13.362738 -2.117378,5.612095 -7.586,9.270235 -13.241859,10.660941 -2.135204,0.798501 -4.477766,0.746524 -6.7176759,0.755338 -1.5615225,-0.03167 -2.943942,0.0709 -3.8720639,-1.32871 -0.546657,-1.032923 -0.5321832,-2.516382 0.5704749,-2.96207 1.6044803,-0.5294 3.2778042,-0.08695 4.6238329,0.429862 1.599933,1.007245 2.560478,1.771858 2.980189,3.373923 1.058479,3.837866 3.507207,7.254801 6.68531,9.624214 4.918723,3.848199 11.709826,4.523489 17.647444,3.11419 5.493281,-1.267885 10.119655,-5.704379 11.481428,-11.194784 0.590477,-1.875503 1.390112,-3.718685 1.112984,-5.728281 V 44.675038 59.581289 c 1.7202,0.647313 3.201922,1.623059 4.838483,2.558252 4.196718,1.74992 9.247021,0.939895 12.723922,-1.980127 1.421232,-0.915237 3.100993,-1.563322 3.795239,-3.229827 0.369928,-1.862476 0.0515,-3.93182 0.157859,-5.873503 V 29.311757 c 0.0241,15.913856 -0.0481,31.832031 0.036,47.743192 0.131399,2.988746 0.674966,6.489921 3.516931,8.121807 2.463486,1.932787 5.767048,1.692766 8.673533,2.060784"
     id="path1222"
     inkscape:label="s1"
     sodipodi:nodetypes="cccccccccccccccccccccccc" />
  <path
     d="m 30.1,78.3 v 0 Q 23.3,78.3 17.95,75.05 12.6,71.8 9.1,65 v 0 q -0.6,0 -1.3,0 v 0 Q 0.4,65 0.4,60 v 0 Q 0.4,58.4 1.6,57.2 2.8,56 5.3,56 v 0 q 2.4,0 4.15,1.05 1.75,1.05 3.25,2.85 v 0 Q 18.2,58.6 21.6,55 25,51.4 25,46.3 v 0 Q 25,40.9 21.75,37.6 18.5,34.3 11.7,34.3 v 0 q -2.3,0 -4.9,0.6 -2.6,0.6 -5,1.5 v 0 L 0,31.7 q 2.4,-1 5.5,-1.7 3.1,-0.7 6.4,-0.7 v 0 q 8.7,0 13.6,4.75 4.9,4.75 4.9,12.45 v 0 Q 30.4,53 25.95,57.75 21.5,62.5 14.6,64.2 v 0 q 2.2,4.2 5.95,6.65 3.75,2.45 9.25,2.45 v 0 q 7.3,0 11.3,-4.1 v 0 q 2.4,-2.5 3.4,-6.05 1,-3.55 1,-8.55 v 0 -9.6 l 5.3,0.7 v 10 q 0,0.8 0,1.5 v 0 q 2.2,3.5 6.7,3.4 v 0 q 3,0 5.3,-1.35 2.3,-1.35 4.2,-3.65 v 0 -26.3 l 5.3,0.8 v 45.4 q 0,3.2 0.5,4.85 0.5,1.65 1.7,2.55 v 0 q 1.2,1.2 3.15,1.45 1.95,0.25 4.25,0.25 v 0 l -0.5,5 h -1 q -6.7,0 -9.9,-3 v 0 Q 68.7,85 67.85,82.5 67,80 67,75.8 v 0 -13.7 q -1.8,1.6 -4.1,2.5 -2.3,0.9 -5.3,1 v 0 Q 55.6,65.5 53.65,64.95 51.7,64.4 50,63 v 0 q -1.7,7.4 -6.95,11.3 -5.25,3.9 -12.95,4 z m 76.4,11.3 h -1 q -6.7,0 -9.9,-3 v 0 Q 93.8,85 92.95,82.5 92.1,80 92.1,75.8 v 0 -46.5 l 5.3,0.8 v 45.4 q 0,3.2 0.5,4.85 0.5,1.65 1.7,2.55 v 0 q 1.2,1.2 3.15,1.45 1.95,0.25 4.25,0.25 v 0 z M 97,25.5 H 92.6 Q 90.7,17.7 88.85,13.15 87,8.6 84.55,6.7 82.1,4.8 78.3,4.8 v 0 Q 77.1,4.8 75.75,5 74.4,5.2 72.9,5.7 v 0 L 71.4,1.1 Q 73.3,0.5 75.1,0.25 76.9,0 78.6,0 v 0 q 4.6,0 7.95,2.25 3.35,2.25 5.85,7.8 2.5,5.55 4.6,15.45 z m -5.3,-1.8 -2.8,2.9 Q 82.8,21.2 78.6,18.85 74.4,16.5 69.5,16.5 v 0 q -3.5,0 -6.4,0.9 v 0 l -1.5,-4.7 q 1.8,-0.4 3.75,-0.7 1.95,-0.3 4.15,-0.3 v 0 q 3.8,0 7.15,1.2 3.35,1.2 6.9,3.85 3.55,2.65 8.15,6.95 z"
     id="path2"
     style="display:inline"
     inkscape:label="p1" />
</svg>
