<?xml version="1.0" encoding="UTF-8" standalone="no"?>
<svg
   width="43.400002"
   height="76.800003"
   version="1.1"
   id="svg4"
   sodipodi:docname="0_f.svg"
   inkscape:version="1.2.1 (9c6d41e410, 2022-07-14)"
   xmlns:inkscape="http://www.inkscape.org/namespaces/inkscape"
   xmlns:sodipodi="http://sodipodi.sourceforge.net/DTD/sodipodi-0.dtd"
   xmlns="http://www.w3.org/2000/svg"
   xmlns:svg="http://www.w3.org/2000/svg">
  <defs
     id="defs8" />
  <sodipodi:namedview
     id="namedview6"
     pagecolor="#ffffff"
     bordercolor="#666666"
     borderopacity="1.0"
     inkscape:showpageshadow="2"
     inkscape:pageopacity="0.0"
     inkscape:pagecheckerboard="0"
     inkscape:deskcolor="#d1d1d1"
     showgrid="false"
     inkscape:zoom="8"
     inkscape:cx="1.0625"
     inkscape:cy="27.125"
     inkscape:window-width="1920"
     inkscape:window-height="1027"
     inkscape:window-x="-8"
     inkscape:window-y="-8"
     inkscape:window-maximized="1"
     inkscape:current-layer="svg4" />
  <path
     style="fill:none;stroke:#000000;stroke-width:1px;stroke-linecap:butt;stroke-linejoin:miter;stroke-opacity:1"
     d="M 42.390625,20.539062 1.0963158,35.45368"
     id="path331"
     sodipodi:nodetypes="cc"
     inkscape:label="s2" />
  <path
     style="fill:none;stroke:#000000;stroke-width:1px;stroke-linecap:butt;stroke-linejoin:miter;stroke-opacity:1"
     d="M 33.679183,3.9541312 C 28.297076,2.6000421 22.530384,1.7844164 17.085245,3.247072 13.191167,4.262509 9.6893478,7.3428848 9.0195313,11.433594 c -0.7034792,3.505573 0.2443946,7.362651 2.8332407,9.901531 4.550094,4.778833 10.634863,7.619155 15.828884,11.593 3.615467,2.70953 7.308997,6.082586 8.136227,10.746798 0.909242,4.238055 -0.479789,8.948071 -3.863257,11.742703 -4.066938,3.429451 -9.740317,3.658919 -14.808173,3.300159 -1.916048,-0.17018 -3.98828,-0.312697 -5.678237,-1.265188 C 9.6852928,55.430933 8.0326622,52.82378 5.2817409,52.083479 4.2633268,51.77963 2.4689647,52.078014 2.8267576,53.506034 c 0.4210555,1.856225 2.3974864,2.837731 4.0016746,3.537184 1.5297121,0.641956 3.4313948,0.396674 4.7383508,1.488748 1.434496,1.783377 2.1802,4.031677 3.724476,5.753275 2.175434,2.786541 4.517491,5.562925 7.497803,7.51554 3.105687,1.977564 6.831195,2.483382 10.440681,2.542396 0.384356,0.02233 0.768713,0.04465 1.153069,0.06698"
     id="path329"
     inkscape:label="s1" />
  <path
     d="M 20.6,31 2,37.8 0.2,33.1 15.6,27.6 Q 11.5,24.8 8.8,21.55 6.1,18.3 6.1,13.6 v 0 Q 6.1,7.5 10.6,3.75 15.1,0 22.8,0 v 0 q 3.1,0 5.85,0.4 2.75,0.4 5.55,1 v 0 l -1,4.9 Q 30.6,5.7 28.3,5.35 26,5 23.3,5 v 0 q -5.8,0 -8.8,2.35 -3,2.35 -3,6.55 v 0 q 0,3.6 2.6,6.35 2.6,2.75 7,5.35 v 0 l 20.3,-7.4 2,4.7 -17.3,6.1 q 5.5,3.4 9.1,7.45 3.6,4.05 3.6,9.95 v 0 q 0,3.9 -1.95,7.3 -1.95,3.4 -6,5.5 -4.05,2.1 -10.45,2.1 v 0 q -2.2,0 -4.7,-0.2 v 0 q 4,5.7 7.75,8.2 3.75,2.5 8.95,2.5 v 0 h 2.3 l -0.6,5 H 32.4 Q 24.7,76.8 19.65,72.55 14.6,68.3 9.7,60.4 v 0 Q 4.9,59.6 2.45,57.55 0,55.5 0,53.2 v 0 q 0,-1.8 1.2,-2.85 1.2,-1.05 3,-1.05 v 0 q 2.6,0 4.8,1.7 2.2,1.7 4.2,4.6 v 0 q 3.1,0.8 7.1,0.8 v 0 q 6.5,0 9.75,-2.8 3.25,-2.8 3.25,-7.3 v 0 q 0,-4.5 -3.25,-8.05 Q 26.8,34.7 20.6,31 Z"
     id="path2"
     inkscape:label="p1" />
</svg>
