<svg xmlns="http://www.w3.org/2000/svg" xmlns:xlink="http://www.w3.org/1999/xlink" width="48.6" height="130.4">
    <path
        d="M24.40 60.30L5.80 67.10L4 62.40L19.40 56.90Q15.30 54.10 12.60 50.85Q9.90 47.60 9.90 42.90L9.90 42.90Q9.90 36.80 14.40 33.05Q18.90 29.30 26.60 29.30L26.60 29.30Q29.70 29.30 32.45 29.70Q35.20 30.10 38 30.70L38 30.70L37 35.60Q34.40 35.00 32.10 34.65Q29.80 34.30 27.10 34.30L27.10 34.30Q21.30 34.30 18.30 36.65Q15.30 39.00 15.30 43.20L15.30 43.20Q15.30 46.80 17.90 49.55Q20.50 52.30 24.90 54.90L24.90 54.90L45.20 47.50L47.20 52.20L29.90 58.30Q35.40 61.70 39 65.75Q42.60 69.80 42.60 75.70L42.60 75.70Q42.60 79.60 40.65 83.00Q38.70 86.40 34.65 88.50Q30.60 90.60 24.20 90.60L24.20 90.60Q22 90.60 19.50 90.40L19.50 90.40Q23.50 96.10 27.25 98.60Q31 101.10 36.20 101.10L36.20 101.10L38.50 101.10L37.90 106.10L36.20 106.10Q28.50 106.10 23.45 101.85Q18.40 97.60 13.50 89.70L13.50 89.70Q8.70 88.90 6.25 86.85Q3.80 84.80 3.80 82.50L3.80 82.50Q3.80 80.70 5 79.65Q6.20 78.60 8 78.60L8 78.60Q10.60 78.60 12.80 80.30Q15 82.00 17 84.90L17 84.90Q20.10 85.70 24.10 85.70L24.10 85.70Q30.60 85.70 33.85 82.90Q37.10 80.10 37.10 75.60L37.10 75.60Q37.10 71.10 33.85 67.55Q30.60 64 24.40 60.30L24.40 60.30ZM35.90 19.10L35.90 19.10Q34.10 19.10 32.85 17.80Q31.60 16.50 31.60 14.20L31.60 14.20Q31.60 12 32.80 10.70Q34 9.40 35.90 9.40L35.90 9.40Q37.80 9.40 39 10.70Q40.20 12 40.20 14.20L40.20 14.20Q40.20 16.60 38.95 17.85Q37.70 19.10 35.90 19.10Z" />
      <g
     id="g653"
     inkscape:label="g2">
    <path
       style="display:inline"
       d="m 33.9,9.7 v 0 Q 32.1,9.7 30.85,8.4 29.6,7.1 29.6,4.8 v 0 Q 29.6,2.6 30.8,1.3 32,0 33.9,0 v 0 q 1.9,0 3.1,1.3 1.2,1.3 1.2,3.5 v 0 q 0,2.4 -1.25,3.65 Q 35.7,9.7 33.9,9.7 Z"
       id="path644"
       inkscape:label="p2" />
    <path
       d="m 33.9375,1.3352194 c -0.820403,0 -1.515467,0.3118012 -2.085191,0.9354043 -0.569724,0.6236031 -0.854587,1.7074649 -0.854587,2.5903504 0,1.0553281 0.273468,1.8947931 0.820403,2.5183962 0.546936,0.6236031 1.347168,0.9354042 2.119375,0.9354042 0.865981,0 1.572439,-0.3118011 2.119375,-0.9354042 0.546935,-0.6236031 0.820403,-1.5977735 0.820403,-2.5183962 0,-1.1512668 -0.284863,-2.0267096 -0.854587,-2.6263275 C 35.452967,1.6350287 34.757903,1.3352194 33.9375,1.3352194 Z"
       style="display:inline;stroke-width:0.701376"
       id="path950"
       sodipodi:nodetypes="sssssssss"
       inkscape:label="s3" />
  </g>
    <path id="path329"
        style="fill:none;stroke:#000000;stroke-width:1px;stroke-linecap:butt;stroke-linejoin:miter;stroke-opacity:1"
        d="M 33.679183,3.9541312 C 27.392336,2.4204307 20.296177,1.3728146 14.276356,4.3793476 10.182246,6.4568439 8.0624781,11.328626 8.9790833,15.768098 c 0.7809119,4.930596 5.2851387,7.919 9.0163417,10.637411 5.705715,3.99691 12.41813,7.222258 16.297048,13.25583 3.421684,5.482817 1.852452,13.664301 -3.93393,16.897433 -5.31554,3.144396 -11.724046,2.212655 -17.586265,1.916778 C 10.418433,58.226387 7.984237,58.10662 5.8471596,56.957036 4.191871,56.251295 2.2911025,54.965137 2.1876116,52.999863 c 0.236352,-1.732027 2.4329789,-1.658378 3.6989045,-1.187705 2.372271,0.999433 4.3387999,2.969562 5.4161439,5.231482 1.525198,3.202206 2.929964,6.499725 5.36283,9.11513 3.11343,3.75685 7.125454,7.22864 12.157085,7.822544 1.836641,0.326403 3.70454,0.321524 5.560238,0.428843"
        sodipodi:nodetypes="ccccccccccsccc" inkscape:label="s1" />
    <path style="fill:none;stroke:#000000;stroke-width:1px;stroke-linecap:butt;stroke-linejoin:miter;stroke-opacity:1"
        d="M 42.390625,20.539062 1.0963158,35.45368" id="path331" sodipodi:nodetypes="cc" inkscape:label="s2" />
</svg>