<svg xmlns="http://www.w3.org/2000/svg" xmlns:xlink="http://www.w3.org/1999/xlink" width="71" height="130.4"><path d="M24.40 60.30L5.80 67.10L4 62.40L19.40 56.90Q15.30 54.10 12.60 50.85Q9.90 47.60 9.90 42.90L9.90 42.90Q9.90 36.80 14.40 33.05Q18.90 29.30 26.60 29.30L26.60 29.30Q29.70 29.30 32.45 29.70Q35.20 30.10 38 30.70L38 30.70L37 35.60Q34.40 35.00 32.10 34.65Q29.80 34.30 27.10 34.30L27.10 34.30Q21.30 34.30 18.30 36.65Q15.30 39.00 15.30 43.20L15.30 43.20Q15.30 46.80 17.90 49.55Q20.50 52.30 24.90 54.90L24.90 54.90L45.20 47.50L47.20 52.20L29.90 58.30Q35.40 61.70 39 65.75Q42.60 69.80 42.60 75.70L42.60 75.70Q42.60 79.60 40.65 83.00Q38.70 86.40 34.65 88.50Q30.60 90.60 24.20 90.60L24.20 90.60Q22 90.60 19.50 90.40L19.50 90.40Q23.50 96.10 27.25 98.60Q31 101.10 36.20 101.10L36.20 101.10L38.50 101.10L37.90 106.10L36.20 106.10Q28.50 106.10 23.45 101.85Q18.40 97.60 13.50 89.70L13.50 89.70Q8.70 88.90 6.25 86.85Q3.80 84.80 3.80 82.50L3.80 82.50Q3.80 80.70 5 79.65Q6.20 78.60 8 78.60L8 78.60Q10.60 78.60 12.80 80.30Q15 82.00 17 84.90L17 84.90Q20.10 85.70 24.10 85.70L24.10 85.70Q30.60 85.70 33.85 82.90Q37.10 80.10 37.10 75.60L37.10 75.60Q37.10 71.10 33.85 67.55Q30.60 64 24.40 60.30L24.40 60.30ZM59.80 51.30L59.80 51.30Q58 51.30 56.60 49.95Q55.20 48.60 55.20 46.20L55.20 46.20Q55.20 43.80 56.55 42.45Q57.90 41.10 59.80 41.10L59.80 41.10Q61.80 41.10 63.10 42.45Q64.40 43.80 64.40 46.20L64.40 46.20Q64.40 48.70 63.05 50.00Q61.70 51.30 59.80 51.30ZM59.80 84.60L59.80 84.60Q58 84.60 56.60 83.25Q55.20 81.90 55.20 79.50L55.20 79.50Q55.20 77.10 56.55 75.75Q57.90 74.40 59.80 74.40L59.80 74.40Q61.80 74.40 63.10 75.75Q64.40 77.10 64.40 79.50L64.40 79.50Q64.40 82.00 63.05 83.30Q61.70 84.60 59.80 84.60Z"/></svg>