<svg xmlns="http://www.w3.org/2000/svg" xmlns:xlink="http://www.w3.org/1999/xlink" width="73.7" height="130.4"><path d="M24 89.60L23.10 89.60Q20 89.60 17.50 88.95Q15 88.30 13.20 86.60L13.20 86.60Q11.30 84.90 10.50 82.40Q9.70 79.90 9.70 75.80L9.70 75.80L9.70 22.40Q9.70 15.80 11.05 11.70Q12.40 7.60 15.80 4.70L15.80 4.70Q18 2.80 21.15 1.70Q24.30 0.60 28.40 0.60L28.40 0.60Q37.50 0.60 44.75 5.85Q52 11.10 59.30 19.60L59.30 19.60L55.40 22.70Q49 15.10 42.65 10.30Q36.30 5.50 28.70 5.50L28.70 5.50Q22.80 5.50 19.40 8.40L19.40 8.40Q17 10.50 16 14Q15 17.50 15 24.10L15 24.10L15 75.50Q15 78.70 15.50 80.35Q16 82.00 17.20 82.90L17.20 82.90Q18.40 84.10 20.35 84.35Q22.30 84.60 24.60 84.60L24.60 84.60L24 89.60ZM49.50 60.30L30.90 67.10L29.10 62.40L44.50 56.90Q40.40 54.10 37.70 50.85Q35 47.60 35 42.90L35 42.90Q35 36.80 39.50 33.05Q44 29.30 51.70 29.30L51.70 29.30Q54.80 29.30 57.55 29.70Q60.30 30.10 63.10 30.70L63.10 30.70L62.10 35.60Q59.50 35.00 57.20 34.65Q54.90 34.30 52.20 34.30L52.20 34.30Q46.40 34.30 43.40 36.65Q40.40 39.00 40.40 43.20L40.40 43.20Q40.40 46.80 43 49.55Q45.60 52.30 50 54.90L50 54.90L70.30 47.50L72.30 52.20L55 58.30Q60.50 61.70 64.10 65.75Q67.70 69.80 67.70 75.70L67.70 75.70Q67.70 79.60 65.75 83.00Q63.80 86.40 59.75 88.50Q55.70 90.60 49.30 90.60L49.30 90.60Q47.10 90.60 44.60 90.40L44.60 90.40Q48.60 96.10 52.35 98.60Q56.10 101.10 61.30 101.10L61.30 101.10L63.60 101.10L63 106.10L61.30 106.10Q53.60 106.10 48.55 101.85Q43.50 97.60 38.60 89.70L38.60 89.70Q33.80 88.90 31.35 86.85Q28.90 84.80 28.90 82.50L28.90 82.50Q28.90 80.70 30.10 79.65Q31.30 78.60 33.10 78.60L33.10 78.60Q35.70 78.60 37.90 80.30Q40.10 82.00 42.10 84.90L42.10 84.90Q45.20 85.70 49.20 85.70L49.20 85.70Q55.70 85.70 58.95 82.90Q62.20 80.10 62.20 75.60L62.20 75.60Q62.20 71.10 58.95 67.55Q55.70 64 49.50 60.30L49.50 60.30Z"/></svg>