<?xml version="1.0" encoding="UTF-8" standalone="no"?>
<svg
   width="69.400002"
   height="105.5"
   version="1.1"
   id="svg405"
   sodipodi:docname="3_fee.svg"
   inkscape:version="1.2.1 (9c6d41e410, 2022-07-14)"
   xmlns:inkscape="http://www.inkscape.org/namespaces/inkscape"
   xmlns:sodipodi="http://sodipodi.sourceforge.net/DTD/sodipodi-0.dtd"
   xmlns="http://www.w3.org/2000/svg"
   xmlns:svg="http://www.w3.org/2000/svg">
  <defs
     id="defs409" />
  <sodipodi:namedview
     id="namedview407"
     pagecolor="#ffffff"
     bordercolor="#666666"
     borderopacity="1.0"
     inkscape:showpageshadow="2"
     inkscape:pageopacity="0.0"
     inkscape:pagecheckerboard="0"
     inkscape:deskcolor="#d1d1d1"
     showgrid="false"
     inkscape:zoom="1.809816"
     inkscape:cx="33.428812"
     inkscape:cy="64.647455"
     inkscape:window-width="1920"
     inkscape:window-height="1027"
     inkscape:window-x="-8"
     inkscape:window-y="-8"
     inkscape:window-maximized="1"
     inkscape:current-layer="svg405" />
  <g
     id="g115"
     inkscape:label="g1"
     transform="translate(0,28.7)">
    <path
       d="M 20.6,31 2,37.8 0.2,33.1 15.6,27.6 Q 11.5,24.8 8.8,21.55 6.1,18.3 6.1,13.6 v 0 Q 6.1,7.5 10.6,3.75 15.1,0 22.8,0 v 0 q 3.1,0 5.85,0.4 2.75,0.4 5.55,1 v 0 l -1,4.9 Q 30.6,5.7 28.3,5.35 26,5 23.3,5 v 0 q -5.8,0 -8.8,2.35 -3,2.35 -3,6.55 v 0 q 0,3.6 2.6,6.35 2.6,2.75 7,5.35 v 0 l 20.3,-7.4 2,4.7 -17.3,6.1 q 5.5,3.4 9.1,7.45 3.6,4.05 3.6,9.95 v 0 q 0,3.9 -1.95,7.3 -1.95,3.4 -6,5.5 -4.05,2.1 -10.45,2.1 v 0 q -2.2,0 -4.7,-0.2 v 0 q 4,5.7 7.75,8.2 3.75,2.5 8.95,2.5 v 0 h 2.3 l -0.6,5 H 32.4 Q 24.7,76.8 19.65,72.55 14.6,68.3 9.7,60.4 v 0 Q 4.9,59.6 2.45,57.55 0,55.5 0,53.2 v 0 q 0,-1.8 1.2,-2.85 1.2,-1.05 3,-1.05 v 0 q 2.6,0 4.8,1.7 2.2,1.7 4.2,4.6 v 0 q 3.1,0.8 7.1,0.8 v 0 q 6.5,0 9.75,-2.8 3.25,-2.8 3.25,-7.3 v 0 q 0,-4.5 -3.25,-8.05 Q 26.8,34.7 20.6,31 Z"
       id="path420"
       inkscape:label="p1" />
    <path
       id="path329-6"
       style="fill:none;stroke:#000000;stroke-width:1px;stroke-linecap:butt;stroke-linejoin:miter;stroke-opacity:1"
       d="M 33.679183,3.9541312 C 27.392336,2.4204307 20.296177,1.3728146 14.276356,4.3793476 10.182246,6.4568439 8.0624781,11.328626 8.9790833,15.768098 c 0.7809119,4.930596 5.2851387,7.919 9.0163417,10.637411 5.705715,3.99691 12.41813,7.222258 16.297048,13.25583 3.421684,5.482817 1.852452,13.664301 -3.93393,16.897433 -5.31554,3.144396 -11.724046,2.212655 -17.586265,1.916778 C 10.418433,58.226387 7.984237,58.10662 5.8471596,56.957036 4.191871,56.251295 2.2911025,54.965137 2.1876116,52.999863 c 0.236352,-1.732027 2.4329789,-1.658378 3.6989045,-1.187705 2.372271,0.999433 4.3387999,2.969562 5.4161439,5.231482 1.525198,3.202206 2.929964,6.499725 5.36283,9.11513 3.11343,3.75685 7.125454,7.22864 12.157085,7.822544 1.836641,0.326403 3.70454,0.321524 5.560238,0.428843"
       sodipodi:nodetypes="ccccccccccsccc"
       inkscape:label="s1" />
    <path
       style="fill:none;stroke:#000000;stroke-width:1px;stroke-linecap:butt;stroke-linejoin:miter;stroke-opacity:1"
       d="M 42.390625,20.539062 1.0963158,35.45368"
       id="path331-9"
       sodipodi:nodetypes="cc"
       inkscape:label="s2" />
  </g>
  <g
     id="g399"
     inkscape:label="g2"
     transform="matrix(0.99899518,0,0,1,-1.7703578,0)">
    <path
       style="display:inline"
       d="m 70.7,89 h -1 q -3,0 -5.55,-0.65 Q 61.6,87.7 59.8,86 v 0 Q 56.3,82.7 56.3,75.2 v 0 -46.7 Q 54.9,17.1 51.4,11 47.9,4.9 42.4,4.9 v 0 q -3.6,0 -5.6,2.6 -2,2.6 -2,7.7 v 0 q 0,3.9 0.6,7 v 0 H 30.3 Q 30,20.7 29.75,18.6 29.5,16.5 29.5,14.6 v 0 Q 29.5,8 32.85,4 36.2,0 42.4,0 v 0 q 5.9,0 9.9,3.95 4,3.95 6.25,10.4 2.25,6.45 3.05,13.85 v 0 46.7 q 0,3.3 0.5,4.85 0.5,1.55 1.7,2.55 v 0 Q 65,83.5 67,83.75 69,84 71.2,84 v 0 z"
       id="path330"
       inkscape:label="p2" />
    <path
       style="display:inline;fill:none;stroke:#000000;stroke-width:1px;stroke-linecap:butt;stroke-linejoin:miter;stroke-opacity:1"
       d="M 32.90625,22.296875 C 32.189196,17.24716 31.309374,11.67002 33.948338,7.0048776 36.015851,3.1824285 40.814237,1.7827514 44.871275,2.7018315 c 5.299598,1.0610536 8.634255,5.9944562 10.53375,10.6924095 1.94946,4.911209 3.041647,10.154719 3.53254,15.40287 0.03373,16.081561 -0.05668,32.165472 0.05492,48.245568 0.09206,3.485135 1.641413,7.400064 5.196702,8.60873 2.224083,0.864628 4.672997,0.637872 7.006103,0.85642"
       id="path80"
       inkscape:label="s3" />
  </g>
</svg>
