<svg xmlns="http://www.w3.org/2000/svg" xmlns:xlink="http://www.w3.org/1999/xlink" width="73.7" height="130.4"><path d="M24.40 60.30L5.80 67.10L4 62.40L19.40 56.90Q15.30 54.10 12.60 50.85Q9.90 47.60 9.90 42.90L9.90 42.90Q9.90 36.80 14.40 33.05Q18.90 29.30 26.60 29.30L26.60 29.30Q29.70 29.30 32.45 29.70Q35.20 30.10 38 30.70L38 30.70L37 35.60Q34.40 35.00 32.10 34.65Q29.80 34.30 27.10 34.30L27.10 34.30Q21.30 34.30 18.30 36.65Q15.30 39.00 15.30 43.20L15.30 43.20Q15.30 46.80 17.90 49.55Q20.50 52.30 24.90 54.90L24.90 54.90L45.20 47.50L47.20 52.20L29.90 58.30Q35.40 61.70 39 65.75Q42.60 69.80 42.60 75.70L42.60 75.70Q42.60 79.60 40.65 83.00Q38.70 86.40 34.65 88.50Q30.60 90.60 24.20 90.60L24.20 90.60Q22 90.60 19.50 90.40L19.50 90.40Q23.50 96.10 27.25 98.60Q31 101.10 36.20 101.10L36.20 101.10L38.50 101.10L37.90 106.10L36.20 106.10Q28.50 106.10 23.45 101.85Q18.40 97.60 13.50 89.70L13.50 89.70Q8.70 88.90 6.25 86.85Q3.80 84.80 3.80 82.50L3.80 82.50Q3.80 80.70 5 79.65Q6.20 78.60 8 78.60L8 78.60Q10.60 78.60 12.80 80.30Q15 82.00 17 84.90L17 84.90Q20.10 85.70 24.10 85.70L24.10 85.70Q30.60 85.70 33.85 82.90Q37.10 80.10 37.10 75.60L37.10 75.60Q37.10 71.10 33.85 67.55Q30.60 64 24.40 60.30L24.40 60.30ZM72.70 89.60L71.70 89.60Q68.70 89.60 66.15 88.95Q63.60 88.30 61.80 86.60L61.80 86.60Q58.30 83.30 58.30 75.80L58.30 75.80L58.30 29.10Q56.90 17.70 53.40 11.60Q49.90 5.50 44.40 5.50L44.40 5.50Q40.80 5.50 38.80 8.10Q36.80 10.70 36.80 15.80L36.80 15.80Q36.80 19.70 37.40 22.80L37.40 22.80L32.30 22.80Q32 21.30 31.75 19.20Q31.50 17.10 31.50 15.20L31.50 15.20Q31.50 8.60 34.85 4.60Q38.20 0.60 44.40 0.60L44.40 0.60Q50.30 0.60 54.30 4.55Q58.30 8.50 60.55 14.95Q62.80 21.40 63.60 28.80L63.60 28.80L63.60 75.50Q63.60 78.80 64.10 80.35Q64.60 81.90 65.80 82.90L65.80 82.90Q67 84.10 69 84.35Q71 84.60 73.20 84.60L73.20 84.60L72.70 89.60Z"/></svg>