<svg xmlns="http://www.w3.org/2000/svg" xmlns:xlink="http://www.w3.org/1999/xlink" width="48.6" height="130.4"><path d="M24.40 60.30L5.80 67.10L4 62.40L19.40 56.90Q15.30 54.10 12.60 50.85Q9.90 47.60 9.90 42.90L9.90 42.90Q9.90 36.80 14.40 33.05Q18.90 29.30 26.60 29.30L26.60 29.30Q29.70 29.30 32.45 29.70Q35.20 30.10 38 30.70L38 30.70L37 35.60Q34.40 35.00 32.10 34.65Q29.80 34.30 27.10 34.30L27.10 34.30Q21.30 34.30 18.30 36.65Q15.30 39.00 15.30 43.20L15.30 43.20Q15.30 46.80 17.90 49.55Q20.50 52.30 24.90 54.90L24.90 54.90L45.20 47.50L47.20 52.20L29.90 58.30Q35.40 61.70 39 65.75Q42.60 69.80 42.60 75.70L42.60 75.70Q42.60 79.60 40.65 83.00Q38.70 86.40 34.65 88.50Q30.60 90.60 24.20 90.60L24.20 90.60Q22 90.60 19.50 90.40L19.50 90.40Q23.50 96.10 27.25 98.60Q31 101.10 36.20 101.10L36.20 101.10L38.50 101.10L37.90 106.10L36.20 106.10Q28.50 106.10 23.45 101.85Q18.40 97.60 13.50 89.70L13.50 89.70Q8.70 88.90 6.25 86.85Q3.80 84.80 3.80 82.50L3.80 82.50Q3.80 80.70 5 79.65Q6.20 78.60 8 78.60L8 78.60Q10.60 78.60 12.80 80.30Q15 82.00 17 84.90L17 84.90Q20.10 85.70 24.10 85.70L24.10 85.70Q30.60 85.70 33.85 82.90Q37.10 80.10 37.10 75.60L37.10 75.60Q37.10 71.10 33.85 67.55Q30.60 64 24.40 60.30L24.40 60.30ZM31.10 116.10L31.10 116.10Q24 116.10 20.10 112.50Q16.20 108.90 16.20 103.00L16.20 103.00Q16.20 97.60 20.30 93.85Q24.40 90.10 32.30 90.10L32.30 90.10Q39.60 90.10 44.95 92.85Q50.30 95.60 54.40 99.95Q58.50 104.30 61.90 109.20L61.90 109.20L57.80 111.90Q54.10 106.80 50.45 102.95Q46.80 99.10 42.45 96.95Q38.10 94.80 32.50 94.80L32.50 94.80Q26.70 94.80 23.95 97.15Q21.20 99.50 21.20 103.10L21.20 103.10Q21.20 107.30 23.90 109.25Q26.60 111.20 30.80 111.20L30.80 111.20Q33.50 111.20 35.75 110.65Q38 110.10 40.20 109.10L40.20 109.10L41.90 113.90Q39.30 114.90 36.60 115.50Q33.90 116.10 31.10 116.10Z"/></svg>