<svg xmlns="http://www.w3.org/2000/svg" xmlns:xlink="http://www.w3.org/1999/xlink" width="48.6" height="130.4"><path d="M24.40 60.30L5.80 67.10L4 62.40L19.40 56.90Q15.30 54.10 12.60 50.85Q9.90 47.60 9.90 42.90L9.90 42.90Q9.90 36.80 14.40 33.05Q18.90 29.30 26.60 29.30L26.60 29.30Q29.70 29.30 32.45 29.70Q35.20 30.10 38 30.70L38 30.70L37 35.60Q34.40 35.00 32.10 34.65Q29.80 34.30 27.10 34.30L27.10 34.30Q21.30 34.30 18.30 36.65Q15.30 39.00 15.30 43.20L15.30 43.20Q15.30 46.80 17.90 49.55Q20.50 52.30 24.90 54.90L24.90 54.90L45.20 47.50L47.20 52.20L29.90 58.30Q35.40 61.70 39 65.75Q42.60 69.80 42.60 75.70L42.60 75.70Q42.60 79.60 40.65 83.00Q38.70 86.40 34.65 88.50Q30.60 90.60 24.20 90.60L24.20 90.60Q22 90.60 19.50 90.40L19.50 90.40Q23.50 96.10 27.25 98.60Q31 101.10 36.20 101.10L36.20 101.10L38.50 101.10L37.90 106.10L36.20 106.10Q28.50 106.10 23.45 101.85Q18.40 97.60 13.50 89.70L13.50 89.70Q8.70 88.90 6.25 86.85Q3.80 84.80 3.80 82.50L3.80 82.50Q3.80 80.70 5 79.65Q6.20 78.60 8 78.60L8 78.60Q10.60 78.60 12.80 80.30Q15 82.00 17 84.90L17 84.90Q20.10 85.70 24.10 85.70L24.10 85.70Q30.60 85.70 33.85 82.90Q37.10 80.10 37.10 75.60L37.10 75.60Q37.10 71.10 33.85 67.55Q30.60 64 24.40 60.30L24.40 60.30ZM38.10 25.50L33.70 25.50Q31.80 17.70 29.95 13.15Q28.10 8.60 25.65 6.70Q23.20 4.80 19.40 4.80L19.40 4.80Q18.20 4.80 16.85 5Q15.50 5.20 14 5.70L14 5.70L12.50 1.10Q14.40 0.50 16.20 0.25Q18 0 19.70 0L19.70 0Q24.30 0 27.65 2.25Q31 4.50 33.50 10.05Q36 15.60 38.10 25.50L38.10 25.50ZM32.80 23.70L30 26.60Q23.90 21.20 19.70 18.85Q15.50 16.50 10.60 16.50L10.60 16.50Q7.10 16.50 4.20 17.40L4.20 17.40L2.70 12.70Q4.50 12.30 6.45 12Q8.40 11.70 10.60 11.70L10.60 11.70Q14.40 11.70 17.75 12.90Q21.10 14.10 24.65 16.75Q28.20 19.40 32.80 23.70L32.80 23.70Z"/></svg>