<svg xmlns="http://www.w3.org/2000/svg" xmlns:xlink="http://www.w3.org/1999/xlink" width="48.6" height="130.4">
    <path
        d="M24.40 60.30L5.80 67.10L4 62.40L19.40 56.90Q15.30 54.10 12.60 50.85Q9.90 47.60 9.90 42.90L9.90 42.90Q9.90 36.80 14.40 33.05Q18.90 29.30 26.60 29.30L26.60 29.30Q29.70 29.30 32.45 29.70Q35.20 30.10 38 30.70L38 30.70L37 35.60Q34.40 35.00 32.10 34.65Q29.80 34.30 27.10 34.30L27.10 34.30Q21.30 34.30 18.30 36.65Q15.30 39.00 15.30 43.20L15.30 43.20Q15.30 46.80 17.90 49.55Q20.50 52.30 24.90 54.90L24.90 54.90L45.20 47.50L47.20 52.20L29.90 58.30Q35.40 61.70 39 65.75Q42.60 69.80 42.60 75.70L42.60 75.70Q42.60 79.60 40.65 83.00Q38.70 86.40 34.65 88.50Q30.60 90.60 24.20 90.60L24.20 90.60Q22 90.60 19.50 90.40L19.50 90.40Q23.50 96.10 27.25 98.60Q31 101.10 36.20 101.10L36.20 101.10L38.50 101.10L37.90 106.10L36.20 106.10Q28.50 106.10 23.45 101.85Q18.40 97.60 13.50 89.70L13.50 89.70Q8.70 88.90 6.25 86.85Q3.80 84.80 3.80 82.50L3.80 82.50Q3.80 80.70 5 79.65Q6.20 78.60 8 78.60L8 78.60Q10.60 78.60 12.80 80.30Q15 82.00 17 84.90L17 84.90Q20.10 85.70 24.10 85.70L24.10 85.70Q30.60 85.70 33.85 82.90Q37.10 80.10 37.10 75.60L37.10 75.60Q37.10 71.10 33.85 67.55Q30.60 64 24.40 60.30L24.40 60.30ZM38.10 25.50L33.70 25.50Q31.80 17.70 29.95 13.15Q28.10 8.60 25.65 6.70Q23.20 4.80 19.40 4.80L19.40 4.80Q18.20 4.80 16.85 5Q15.50 5.20 14 5.70L14 5.70L12.50 1.10Q14.40 0.50 16.20 0.25Q18 0 19.70 0L19.70 0Q24.30 0 27.65 2.25Q31 4.50 33.50 10.05Q36 15.60 38.10 25.50L38.10 25.50ZM32.80 23.70L30 26.60Q23.90 21.20 19.70 18.85Q15.50 16.50 10.60 16.50L10.60 16.50Q7.10 16.50 4.20 17.40L4.20 17.40L2.70 12.70Q4.50 12.30 6.45 12Q8.40 11.70 10.60 11.70L10.60 11.70Q14.40 11.70 17.75 12.90Q21.10 14.10 24.65 16.75Q28.20 19.40 32.80 23.70L32.80 23.70Z" />
      <g
     id="g522"
     inkscape:label="g2">
    <path
       style="display:inline"
       d="M 30.8,23.7 28,26.6 Q 21.9,21.2 17.7,18.85 13.5,16.5 8.6,16.5 v 0 q -3.5,0 -6.4,0.9 v 0 L 0.7,12.7 Q 2.5,12.3 4.45,12 6.4,11.7 8.6,11.7 v 0 q 3.8,0 7.15,1.2 3.35,1.2 6.9,3.85 3.55,2.65 8.15,6.95 z"
       id="path513"
       inkscape:label="p2" />
    <path
       style="display:inline;fill:none;stroke:#000000;stroke-width:1px;stroke-linecap:butt;stroke-linejoin:miter;stroke-opacity:1"
       d="m 1.2484854,15.037068 c 2.0296352,-0.33742 4.0471341,-0.823273 6.106769,-0.926121 1.7144665,-0.03627 3.4419196,-0.0066 5.1213336,0.377952 1.626492,0.286246 3.200444,0.851561 4.696094,1.542318 3.239677,1.543111 6.000222,3.881137 8.751411,6.145612 1.177108,1.030396 2.354216,2.060791 3.531324,3.091187"
       id="path660"
       inkscape:label="s3" />
  </g>
  <g
     id="g526"
     inkscape:label="g3">
    <path
       style="display:inline"
       d="M 36.1,25.5 H 31.7 Q 29.8,17.7 27.95,13.15 26.1,8.6 23.65,6.7 21.2,4.8 17.4,4.8 v 0 Q 16.2,4.8 14.85,5 13.5,5.2 12,5.7 v 0 L 10.5,1.1 Q 12.4,0.5 14.2,0.25 16,0 17.7,0 v 0 q 4.6,0 7.95,2.25 3.35,2.25 5.85,7.8 2.5,5.55 4.6,15.45 z"
       id="path511"
       inkscape:label="p3" />
    <path
       style="display:inline;fill:none;stroke:#000000;stroke-width:1px;stroke-linecap:butt;stroke-linejoin:miter;stroke-opacity:1"
       d="m 11.023437,3.453125 c 2.182778,-0.4976057 4.36528,-1.1946393 6.631852,-1.0710196 2.053103,-0.044291 4.123749,0.4216957 5.902797,1.4638298 1.290672,0.6572076 2.43165,1.6018918 3.277933,2.7802163 1.787546,2.2624393 2.976329,4.9290225 3.905851,7.6409995 1.112879,3.208175 2.009172,6.487831 2.71558,9.809147 0.117031,0.515091 0.234062,1.030183 0.351093,1.545274"
       id="path662"
       inkscape:label="s4" />
  </g>
    <path id="path329"
        style="fill:none;stroke:#000000;stroke-width:1px;stroke-linecap:butt;stroke-linejoin:miter;stroke-opacity:1"
        d="M 33.679183,3.9541312 C 27.392336,2.4204307 20.296177,1.3728146 14.276356,4.3793476 10.182246,6.4568439 8.0624781,11.328626 8.9790833,15.768098 c 0.7809119,4.930596 5.2851387,7.919 9.0163417,10.637411 5.705715,3.99691 12.41813,7.222258 16.297048,13.25583 3.421684,5.482817 1.852452,13.664301 -3.93393,16.897433 -5.31554,3.144396 -11.724046,2.212655 -17.586265,1.916778 C 10.418433,58.226387 7.984237,58.10662 5.8471596,56.957036 4.191871,56.251295 2.2911025,54.965137 2.1876116,52.999863 c 0.236352,-1.732027 2.4329789,-1.658378 3.6989045,-1.187705 2.372271,0.999433 4.3387999,2.969562 5.4161439,5.231482 1.525198,3.202206 2.929964,6.499725 5.36283,9.11513 3.11343,3.75685 7.125454,7.22864 12.157085,7.822544 1.836641,0.326403 3.70454,0.321524 5.560238,0.428843"
        sodipodi:nodetypes="ccccccccccsccc" inkscape:label="s1" />
    <path style="fill:none;stroke:#000000;stroke-width:1px;stroke-linecap:butt;stroke-linejoin:miter;stroke-opacity:1"
        d="M 42.390625,20.539062 1.0963158,35.45368" id="path331" sodipodi:nodetypes="cc" inkscape:label="s2" />
</svg>