<svg xmlns="http://www.w3.org/2000/svg" xmlns:xlink="http://www.w3.org/1999/xlink" width="73.7" height="130.4">
    <path
        d="M24.40 60.30L5.80 67.10L4 62.40L19.40 56.90Q15.30 54.10 12.60 50.85Q9.90 47.60 9.90 42.90L9.90 42.90Q9.90 36.80 14.40 33.05Q18.90 29.30 26.60 29.30L26.60 29.30Q29.70 29.30 32.45 29.70Q35.20 30.10 38 30.70L38 30.70L37 35.60Q34.40 35.00 32.10 34.65Q29.80 34.30 27.10 34.30L27.10 34.30Q21.30 34.30 18.30 36.65Q15.30 39.00 15.30 43.20L15.30 43.20Q15.30 46.80 17.90 49.55Q20.50 52.30 24.90 54.90L24.90 54.90L45.20 47.50L47.20 52.20L29.90 58.30Q35.40 61.70 39 65.75Q42.60 69.80 42.60 75.70L42.60 75.70Q42.60 79.60 40.65 83.00Q38.70 86.40 34.65 88.50Q30.60 90.60 24.20 90.60L24.20 90.60Q22 90.60 19.50 90.40L19.50 90.40Q23.50 96.10 27.25 98.60Q31 101.10 36.20 101.10L36.20 101.10L38.50 101.10L37.90 106.10L36.20 106.10Q28.50 106.10 23.45 101.85Q18.40 97.60 13.50 89.70L13.50 89.70Q8.70 88.90 6.25 86.85Q3.80 84.80 3.80 82.50L3.80 82.50Q3.80 80.70 5 79.65Q6.20 78.60 8 78.60L8 78.60Q10.60 78.60 12.80 80.30Q15 82.00 17 84.90L17 84.90Q20.10 85.70 24.10 85.70L24.10 85.70Q30.60 85.70 33.85 82.90Q37.10 80.10 37.10 75.60L37.10 75.60Q37.10 71.10 33.85 67.55Q30.60 64 24.40 60.30L24.40 60.30ZM72.70 89.60L71.70 89.60Q65.10 89.60 61.80 86.60L61.80 86.60Q60 85.00 59.15 82.50Q58.30 80 58.30 75.80L58.30 75.80L58.30 29.30L63.60 30.00L63.60 75.50Q63.60 78.80 64.10 80.40Q64.60 82.00 65.90 83.00L65.90 83.00Q67.10 84.10 68.95 84.35Q70.80 84.60 73.20 84.60L73.20 84.60L72.70 89.60ZM63.10 25.50L58.30 25.50Q56.10 17.90 54.10 13.40Q52.10 8.90 49.55 6.90Q47 4.90 43.10 4.90L43.10 4.90Q40.30 4.90 37.30 5.80L37.30 5.80L35.70 1.20Q37.70 0.60 39.65 0.30Q41.60 0 43.40 0L43.40 0Q48.10 0 51.60 2.15Q55.10 4.30 57.85 9.80Q60.60 15.30 63.10 25.50L63.10 25.50Z" />
      <g
     id="g562"
     inkscape:label="g2">
    <path
       style="display:inline"
       d="m 70.7,89.6 h -1 q -6.6,0 -9.9,-3 v 0 Q 58,85 57.15,82.5 56.3,80 56.3,75.8 v 0 -46.5 l 5.3,0.7 v 45.5 q 0,3.3 0.5,4.9 0.5,1.6 1.8,2.6 v 0 q 1.2,1.1 3.05,1.35 1.85,0.25 4.25,0.25 v 0 z"
       id="path551"
       inkscape:label="p2" />
    <path
       style="display:inline;fill:none;stroke:#000000;stroke-width:1px;stroke-linecap:butt;stroke-linejoin:miter;stroke-opacity:1"
       d="m 58.92722,29.304293 c 0.0052,15.660703 -0.0419,31.322813 -0.004,46.982637 0.07316,2.661925 0.300704,5.531206 2.06529,7.674603 1.94562,2.285428 5.076187,2.956219 7.950186,3.001875 0.734456,0.05113 1.468913,0.102253 2.203369,0.15338"
       id="path81"
       inkscape:label="s3" />
  </g>
  <g
     id="g566"
     inkscape:label="g3">
    <path
       style="display:inline"
       d="M 61.1,25.5 H 56.3 Q 54.1,17.9 52.1,13.4 50.1,8.9 47.55,6.9 45,4.9 41.1,4.9 v 0 q -2.8,0 -5.8,0.9 v 0 L 33.7,1.2 Q 35.7,0.6 37.65,0.3 39.6,0 41.4,0 v 0 q 4.7,0 8.2,2.15 3.5,2.15 6.25,7.65 2.75,5.5 5.25,15.7 z"
       id="path553"
       inkscape:label="p3" />
    <path
       style="display:inline;fill:none;stroke:#000000;stroke-width:1px;stroke-linecap:butt;stroke-linejoin:miter;stroke-opacity:1"
       d="m 34.390625,3.625 c 2.407735,-0.5487371 4.818668,-1.2842266 7.316349,-1.1718755 2.367913,0.061684 4.769179,0.644832 6.746194,1.9883103 2.283908,1.5216174 3.856335,3.867577 5.081293,6.2795292 0.985525,1.850814 1.702889,3.830646 2.400769,5.803765 1.025962,2.981686 1.857827,6.023718 2.740551,9.04949"
       id="path814"
       inkscape:label="s4" />
  </g>
    <path id="path329"
        style="fill:none;stroke:#000000;stroke-width:1px;stroke-linecap:butt;stroke-linejoin:miter;stroke-opacity:1"
        d="M 33.679183,3.9541312 C 27.392336,2.4204307 20.296177,1.3728146 14.276356,4.3793476 10.182246,6.4568439 8.0624781,11.328626 8.9790833,15.768098 c 0.7809119,4.930596 5.2851387,7.919 9.0163417,10.637411 5.705715,3.99691 12.41813,7.222258 16.297048,13.25583 3.421684,5.482817 1.852452,13.664301 -3.93393,16.897433 -5.31554,3.144396 -11.724046,2.212655 -17.586265,1.916778 C 10.418433,58.226387 7.984237,58.10662 5.8471596,56.957036 4.191871,56.251295 2.2911025,54.965137 2.1876116,52.999863 c 0.236352,-1.732027 2.4329789,-1.658378 3.6989045,-1.187705 2.372271,0.999433 4.3387999,2.969562 5.4161439,5.231482 1.525198,3.202206 2.929964,6.499725 5.36283,9.11513 3.11343,3.75685 7.125454,7.22864 12.157085,7.822544 1.836641,0.326403 3.70454,0.321524 5.560238,0.428843"
        sodipodi:nodetypes="ccccccccccsccc" inkscape:label="s1" />
    <path style="fill:none;stroke:#000000;stroke-width:1px;stroke-linecap:butt;stroke-linejoin:miter;stroke-opacity:1"
        d="M 42.390625,20.539062 1.0963158,35.45368" id="path331" sodipodi:nodetypes="cc" inkscape:label="s2" />
</svg>