<?xml version="1.0" encoding="UTF-8" standalone="no"?>
<svg
   width="50.799999"
   height="60.299999"
   version="1.1"
   id="svg4"
   sodipodi:docname="0_v.svg"
   inkscape:version="1.2.1 (9c6d41e410, 2022-07-14)"
   xmlns:inkscape="http://www.inkscape.org/namespaces/inkscape"
   xmlns:sodipodi="http://sodipodi.sourceforge.net/DTD/sodipodi-0.dtd"
   xmlns="http://www.w3.org/2000/svg"
   xmlns:svg="http://www.w3.org/2000/svg">
  <defs
     id="defs8" />
  <sodipodi:namedview
     id="namedview6"
     pagecolor="#ffffff"
     bordercolor="#666666"
     borderopacity="1.0"
     inkscape:showpageshadow="2"
     inkscape:pageopacity="0.0"
     inkscape:pagecheckerboard="0"
     inkscape:deskcolor="#d1d1d1"
     showgrid="false"
     inkscape:zoom="8"
     inkscape:cx="39.1875"
     inkscape:cy="38.25"
     inkscape:window-width="1920"
     inkscape:window-height="1027"
     inkscape:window-x="-8"
     inkscape:window-y="-8"
     inkscape:window-maximized="1"
     inkscape:current-layer="svg4" />
  <path
     style="fill:none;stroke:#000000;stroke-width:1px;stroke-linecap:butt;stroke-linejoin:miter;stroke-opacity:1"
     d="m 38.5625,0 c 0.01358,15.836464 -0.03887,31.673848 0.01606,47.509736 0.06971,2.92999 0.62814,6.207487 3.050142,8.148934 2.275234,1.874383 5.340646,1.976757 8.14715,2.075562 0.339043,0.01828 0.678087,0.03656 1.01713,0.05484"
     id="path331"
     inkscape:label="s2" />
  <path
     style="fill:none;stroke:#000000;stroke-width:1px;stroke-linecap:butt;stroke-linejoin:miter;stroke-opacity:1"
     d="M 29.738281,9.90625 C 27.183037,9.3499677 24.600868,8.8727775 21.976562,8.8554693 17.151511,8.6823812 12.073376,9.7116786 8.2468439,12.80913 c -2.8854271,2.286952 -4.7421245,5.72753 -5.2756968,9.352167 -0.46018,2.884298 -0.3146832,5.888186 0.4626909,8.704255 0.9681564,3.513092 3.5041347,6.464115 6.69554,8.173345 4.433131,2.454523 9.760882,2.599949 14.647966,1.72673 3.94301,-0.753068 7.544166,-2.742947 10.629867,-5.264098 0.321531,-0.24392 0.643063,-0.487841 0.964594,-0.731761"
     id="path329"
     inkscape:label="s1" />
  <path
     d="m 19.5,43.7 v 0 Q 10.9,43.7 5.45,38.85 0,34 0,25.4 v 0 Q 0,19.5 2.65,15.25 5.3,11 10.05,8.7 14.8,6.4 20.9,6.4 v 0 q 2.4,0 4.85,0.3 2.45,0.3 4.45,0.8 v 0 l -0.9,4.7 Q 27.5,11.8 25.5,11.55 23.5,11.3 21,11.3 v 0 Q 13.8,11.3 9.6,15.05 5.4,18.8 5.4,25.4 v 0 q 0,6.6 3.95,10 3.95,3.4 10.05,3.4 v 0 q 5.1,0 9,-1.75 3.9,-1.75 7.5,-5.35 v 0 V 0 l 5.3,0.8 v 45.4 q 0,3.2 0.55,4.85 0.55,1.65 1.65,2.55 v 0 q 1.2,1.2 3.2,1.45 2,0.25 4.2,0.25 v 0 l -0.5,5 h -1 q -6.7,0 -9.9,-3 v 0 q -1.7,-1.6 -2.6,-4.1 -0.9,-2.5 -0.9,-6.7 v 0 -8.3 q -3,2.4 -7,3.95 -4,1.55 -9.4,1.55 z"
     id="path2"
     inkscape:label="p1" />
</svg>
