<svg xmlns="http://www.w3.org/2000/svg" xmlns:xlink="http://www.w3.org/1999/xlink" width="78.60000000000001"
    height="130.4">
    <path
        d="M24.40 73L24.40 73Q15.80 73 10.35 68.15Q4.90 63.30 4.90 54.70L4.90 54.70Q4.90 48.80 7.55 44.55Q10.20 40.30 14.95 38.00Q19.70 35.70 25.80 35.70L25.80 35.70Q28.20 35.70 30.65 36.00Q33.10 36.30 35.10 36.80L35.10 36.80L34.20 41.50Q32.40 41.10 30.40 40.85Q28.40 40.60 25.90 40.60L25.90 40.60Q18.70 40.60 14.50 44.35Q10.30 48.10 10.30 54.70L10.30 54.70Q10.30 61.30 14.25 64.70Q18.20 68.10 24.30 68.10L24.30 68.10Q29.40 68.10 33.30 66.35Q37.20 64.60 40.80 61.00L40.80 61.00L40.80 29.30L46.10 30.10L46.10 75.50Q46.10 78.70 46.65 80.35Q47.20 82.00 48.30 82.90L48.30 82.90Q49.50 84.10 51.50 84.35Q53.50 84.60 55.70 84.60L55.70 84.60L55.20 89.60L54.20 89.60Q47.50 89.60 44.30 86.60L44.30 86.60Q42.60 85.00 41.70 82.50Q40.80 80 40.80 75.80L40.80 75.80L40.80 67.50Q37.80 69.90 33.80 71.45Q29.80 73 24.40 73ZM67.40 51.30L67.40 51.30Q65.60 51.30 64.20 49.95Q62.80 48.60 62.80 46.20L62.80 46.20Q62.80 43.80 64.15 42.45Q65.50 41.10 67.40 41.10L67.40 41.10Q69.40 41.10 70.70 42.45Q72 43.80 72 46.20L72 46.20Q72 48.70 70.65 50.00Q69.30 51.30 67.40 51.30ZM67.40 84.60L67.40 84.60Q65.60 84.60 64.20 83.25Q62.80 81.90 62.80 79.50L62.80 79.50Q62.80 77.10 64.15 75.75Q65.50 74.40 67.40 74.40L67.40 74.40Q69.40 74.40 70.70 75.75Q72 77.10 72 79.50L72 79.50Q72 82.00 70.65 83.30Q69.30 84.60 67.40 84.60Z" />
     <g
     id="g686"
     inkscape:label="g2">
    <path
       style="display:inline"
       d="m 57.8,22 v 0 Q 56,22 54.6,20.65 53.2,19.3 53.2,16.9 v 0 q 0,-2.4 1.35,-3.75 1.35,-1.35 3.25,-1.35 v 0 q 2,0 3.3,1.35 1.3,1.35 1.3,3.75 v 0 q 0,2.5 -1.35,3.8 Q 59.7,22 57.8,22 Z"
       id="path675"
       inkscape:label="p2" />
    <path
       d="m 57.837008,13.391934 c -0.820403,0 -1.515467,0.311801 -2.085191,0.935405 -0.569724,0.623603 -0.854587,1.707464 -0.854587,2.59035 0,1.055328 0.273468,1.894793 0.820403,2.518396 0.546936,0.623603 1.347168,0.935404 2.119375,0.935404 0.865981,0 1.572439,-0.311801 2.119375,-0.935404 0.546935,-0.623603 0.820403,-1.597773 0.820403,-2.518396 0,-1.151267 -0.284863,-2.02671 -0.854587,-2.626328 -0.569724,-0.599617 -1.264788,-0.899427 -2.085191,-0.899427 z"
       style="display:inline;stroke-width:0.701376"
       id="path950"
       sodipodi:nodetypes="sssssssss"
       inkscape:label="s3" />
  </g>
  <g
     id="g690"
     inkscape:label="g3">
    <path
       style="display:inline"
       d="m 57.8,55.3 v 0 Q 56,55.3 54.6,53.95 53.2,52.6 53.2,50.2 v 0 q 0,-2.4 1.35,-3.75 1.35,-1.35 3.25,-1.35 v 0 q 2,0 3.3,1.35 1.3,1.35 1.3,3.75 v 0 q 0,2.5 -1.35,3.8 -1.35,1.3 -3.25,1.3 z"
       id="path677"
       inkscape:label="p3" />
    <path
       d="m 57.836778,46.680782 c -0.820403,0 -1.515467,0.311801 -2.085191,0.935405 -0.569724,0.623603 -0.854587,1.707464 -0.854587,2.59035 0,1.055328 0.273468,1.894793 0.820403,2.518396 0.546936,0.623603 1.347168,0.935404 2.119375,0.935404 0.865981,0 1.572439,-0.311801 2.119375,-0.935404 0.546935,-0.623603 0.820403,-1.597773 0.820403,-2.518396 0,-1.151267 -0.284863,-2.02671 -0.854587,-2.626328 -0.569724,-0.599617 -1.264788,-0.899427 -2.085191,-0.899427 z"
       style="display:inline;stroke-width:0.701376"
       id="path950-5"
       sodipodi:nodetypes="sssssssss"
       inkscape:label="s4" />
  </g>
    <path id="path329"
        style="fill:none;stroke:#000000;stroke-width:1px;stroke-linecap:butt;stroke-linejoin:miter;stroke-opacity:1"
        inkscape:label="s1"
        d="M 29.738281,9.90625 C 23.928323,8.5658988 17.542013,8.1561164 11.946408,10.574638 7.1110081,12.568928 3.528315,17.221032 2.9297805,22.432041 2.2174202,27.506275 3.1395063,33.276775 7.1076455,36.863657 11.600562,41.086377 18.230216,41.856562 24.087331,40.881576 29.711122,40.046774 34.477323,36.622277 38.54901,32.839847 38.59616,21.893304 38.61839,10.946644 38.60899,0"
        sodipodi:nodetypes="ccccccc" />
    <path style="fill:none;stroke:#000000;stroke-width:1px;stroke-linecap:butt;stroke-linejoin:miter;stroke-opacity:1"
        d="m 38.5533,32.796878 c 0.0016,4.904382 0.0083,9.808692 0.02529,14.712858 0.06971,2.92999 0.62814,6.207487 3.050142,8.148934 2.275234,1.874383 5.340646,1.976757 8.14715,2.075562 l 1.01713,0.05484"
        id="path463" inkscape:label="s2" />
</svg>