<svg xmlns="http://www.w3.org/2000/svg" xmlns:xlink="http://www.w3.org/1999/xlink" width="78.60000000000001" height="130.4"><path d="M24.40 73L24.40 73Q15.80 73 10.35 68.15Q4.90 63.30 4.90 54.70L4.90 54.70Q4.90 48.80 7.55 44.55Q10.20 40.30 14.95 38.00Q19.70 35.70 25.80 35.70L25.80 35.70Q28.20 35.70 30.65 36.00Q33.10 36.30 35.10 36.80L35.10 36.80L34.20 41.50Q32.40 41.10 30.40 40.85Q28.40 40.60 25.90 40.60L25.90 40.60Q18.70 40.60 14.50 44.35Q10.30 48.10 10.30 54.70L10.30 54.70Q10.30 61.30 14.25 64.70Q18.20 68.10 24.30 68.10L24.30 68.10Q29.40 68.10 33.30 66.35Q37.20 64.60 40.80 61.00L40.80 61.00L40.80 29.30L46.10 30.10L46.10 75.50Q46.10 78.70 46.65 80.35Q47.20 82.00 48.30 82.90L48.30 82.90Q49.50 84.10 51.50 84.35Q53.50 84.60 55.70 84.60L55.70 84.60L55.20 89.60L54.20 89.60Q47.50 89.60 44.30 86.60L44.30 86.60Q42.60 85.00 41.70 82.50Q40.80 80 40.80 75.80L40.80 75.80L40.80 67.50Q37.80 69.90 33.80 71.45Q29.80 73 24.40 73ZM67.40 51.30L67.40 51.30Q65.60 51.30 64.20 49.95Q62.80 48.60 62.80 46.20L62.80 46.20Q62.80 43.80 64.15 42.45Q65.50 41.10 67.40 41.10L67.40 41.10Q69.40 41.10 70.70 42.45Q72 43.80 72 46.20L72 46.20Q72 48.70 70.65 50.00Q69.30 51.30 67.40 51.30ZM67.40 84.60L67.40 84.60Q65.60 84.60 64.20 83.25Q62.80 81.90 62.80 79.50L62.80 79.50Q62.80 77.10 64.15 75.75Q65.50 74.40 67.40 74.40L67.40 74.40Q69.40 74.40 70.70 75.75Q72 77.10 72 79.50L72 79.50Q72 82.00 70.65 83.30Q69.30 84.60 67.40 84.60Z"/></svg>