<svg xmlns="http://www.w3.org/2000/svg" xmlns:xlink="http://www.w3.org/1999/xlink" width="81.30000000000001"
    height="130.4">
    <path
        d="M24 89.60L23.10 89.60Q20 89.60 17.50 88.95Q15 88.30 13.20 86.60L13.20 86.60Q11.30 84.90 10.50 82.40Q9.70 79.90 9.70 75.80L9.70 75.80L9.70 22.40Q9.70 15.80 11.05 11.70Q12.40 7.60 15.80 4.70L15.80 4.70Q18 2.80 21.15 1.70Q24.30 0.60 28.40 0.60L28.40 0.60Q37.50 0.60 44.75 5.85Q52 11.10 59.30 19.60L59.30 19.60L55.40 22.70Q49 15.10 42.65 10.30Q36.30 5.50 28.70 5.50L28.70 5.50Q22.80 5.50 19.40 8.40L19.40 8.40Q17 10.50 16 14Q15 17.50 15 24.10L15 24.10L15 75.50Q15 78.70 15.50 80.35Q16 82.00 17.20 82.90L17.20 82.90Q18.40 84.10 20.35 84.35Q22.30 84.60 24.60 84.60L24.60 84.60L24 89.60ZM49.50 73L49.50 73Q40.90 73 35.45 68.15Q30 63.30 30 54.70L30 54.70Q30 48.80 32.65 44.55Q35.30 40.30 40.05 38.00Q44.80 35.70 50.90 35.70L50.90 35.70Q53.30 35.70 55.75 36.00Q58.20 36.30 60.20 36.80L60.20 36.80L59.30 41.50Q57.50 41.10 55.50 40.85Q53.50 40.60 51 40.60L51 40.60Q43.80 40.60 39.60 44.35Q35.40 48.10 35.40 54.70L35.40 54.70Q35.40 61.30 39.35 64.70Q43.30 68.10 49.40 68.10L49.40 68.10Q54.50 68.10 58.40 66.35Q62.30 64.60 65.90 61.00L65.90 61.00L65.90 29.30L71.20 30.10L71.20 75.50Q71.20 78.70 71.75 80.35Q72.30 82.00 73.40 82.90L73.40 82.90Q74.60 84.10 76.60 84.35Q78.60 84.60 80.80 84.60L80.80 84.60L80.30 89.60L79.30 89.60Q72.60 89.60 69.40 86.60L69.40 86.60Q67.70 85.00 66.80 82.50Q65.90 80 65.90 75.80L65.90 75.80L65.90 67.50Q62.90 69.90 58.90 71.45Q54.90 73 49.50 73Z" />
      <g
     id="g309"
     inkscape:label="g2">
    <path
       style="display:inline"
       d="M 14.3,89 H 13.4 Q 10.3,89 7.8,88.35 5.3,87.7 3.5,86 v 0 Q 1.6,84.3 0.8,81.8 0,79.3 0,75.2 v 0 -53.4 Q 0,15.2 1.35,11.1 2.7,7 6.1,4.1 v 0 Q 8.3,2.2 11.45,1.1 14.6,0 18.7,0 V 0 Q 27.8,0 35.05,5.25 42.3,10.5 49.6,19 v 0 l -3.9,3.1 Q 39.3,14.5 32.95,9.7 26.6,4.9 19,4.9 v 0 q -5.9,0 -9.3,2.9 v 0 q -2.4,2.1 -3.4,5.6 -1,3.5 -1,10.1 v 0 51.4 q 0,3.2 0.5,4.85 0.5,1.65 1.7,2.55 v 0 q 1.2,1.2 3.15,1.45 Q 12.6,84 14.9,84 v 0 z"
       id="path2"
       inkscape:label="p2" />
    <path
       style="display:inline;fill:none;stroke:#000000;stroke-width:1px;stroke-linecap:butt;stroke-linejoin:miter;stroke-opacity:1"
       d="M 47.652368,20.738116 C 42.912163,15.169343 37.771996,9.7590782 31.535156,5.8554687 25.556372,2.3479405 17.925665,1.3282836 11.384063,3.8090168 7.098823,5.5445734 4.0571601,9.6376118 3.3691387,14.177325 2.2636698,19.814013 2.8760079,25.587166 2.7106596,31.290784 c 0.017146,15.362435 -0.08206,30.727062 0.00809,46.088122 0.1319749,2.783277 1.0109143,5.743286 3.4696807,7.348394 2.457118,1.869621 5.6943627,1.540296 8.5928207,1.741457"
       id="path491"
       inkscape:label="s3" /></g>
    <path id="path329"
        style="fill:none;stroke:#000000;stroke-width:1px;stroke-linecap:butt;stroke-linejoin:miter;stroke-opacity:1"
        inkscape:label="s1"
        d="M 29.738281,9.90625 C 23.928323,8.5658988 17.542013,8.1561164 11.946408,10.574638 7.1110081,12.568928 3.528315,17.221032 2.9297805,22.432041 2.2174202,27.506275 3.1395063,33.276775 7.1076455,36.863657 11.600562,41.086377 18.230216,41.856562 24.087331,40.881576 29.711122,40.046774 34.477323,36.622277 38.54901,32.839847 38.59616,21.893304 38.61839,10.946644 38.60899,0"
        sodipodi:nodetypes="ccccccc" />
    <path style="fill:none;stroke:#000000;stroke-width:1px;stroke-linecap:butt;stroke-linejoin:miter;stroke-opacity:1"
        d="m 38.5533,32.796878 c 0.0016,4.904382 0.0083,9.808692 0.02529,14.712858 0.06971,2.92999 0.62814,6.207487 3.050142,8.148934 2.275234,1.874383 5.340646,1.976757 8.14715,2.075562 l 1.01713,0.05484"
        id="path463" inkscape:label="s2" />
</svg>