<svg xmlns="http://www.w3.org/2000/svg" xmlns:xlink="http://www.w3.org/1999/xlink" width="81.30000000000001" height="130.4"><path d="M24 89.60L23.10 89.60Q20 89.60 17.50 88.95Q15 88.30 13.20 86.60L13.20 86.60Q11.30 84.90 10.50 82.40Q9.70 79.90 9.70 75.80L9.70 75.80L9.70 22.40Q9.70 15.80 11.05 11.70Q12.40 7.60 15.80 4.70L15.80 4.70Q18 2.80 21.15 1.70Q24.30 0.60 28.40 0.60L28.40 0.60Q37.50 0.60 44.75 5.85Q52 11.10 59.30 19.60L59.30 19.60L55.40 22.70Q49 15.10 42.65 10.30Q36.30 5.50 28.70 5.50L28.70 5.50Q22.80 5.50 19.40 8.40L19.40 8.40Q17 10.50 16 14Q15 17.50 15 24.10L15 24.10L15 75.50Q15 78.70 15.50 80.35Q16 82.00 17.20 82.90L17.20 82.90Q18.40 84.10 20.35 84.35Q22.30 84.60 24.60 84.60L24.60 84.60L24 89.60ZM49.50 73L49.50 73Q40.90 73 35.45 68.15Q30 63.30 30 54.70L30 54.70Q30 48.80 32.65 44.55Q35.30 40.30 40.05 38.00Q44.80 35.70 50.90 35.70L50.90 35.70Q53.30 35.70 55.75 36.00Q58.20 36.30 60.20 36.80L60.20 36.80L59.30 41.50Q57.50 41.10 55.50 40.85Q53.50 40.60 51 40.60L51 40.60Q43.80 40.60 39.60 44.35Q35.40 48.10 35.40 54.70L35.40 54.70Q35.40 61.30 39.35 64.70Q43.30 68.10 49.40 68.10L49.40 68.10Q54.50 68.10 58.40 66.35Q62.30 64.60 65.90 61.00L65.90 61.00L65.90 29.30L71.20 30.10L71.20 75.50Q71.20 78.70 71.75 80.35Q72.30 82.00 73.40 82.90L73.40 82.90Q74.60 84.10 76.60 84.35Q78.60 84.60 80.80 84.60L80.80 84.60L80.30 89.60L79.30 89.60Q72.60 89.60 69.40 86.60L69.40 86.60Q67.70 85.00 66.80 82.50Q65.90 80 65.90 75.80L65.90 75.80L65.90 67.50Q62.90 69.90 58.90 71.45Q54.90 73 49.50 73Z"/></svg>