<svg xmlns="http://www.w3.org/2000/svg" xmlns:xlink="http://www.w3.org/1999/xlink" width="56.2" height="130.4"><path d="M24.40 73L24.40 73Q15.80 73 10.35 68.15Q4.90 63.30 4.90 54.70L4.90 54.70Q4.90 48.80 7.55 44.55Q10.20 40.30 14.95 38.00Q19.70 35.70 25.80 35.70L25.80 35.70Q28.20 35.70 30.65 36.00Q33.10 36.30 35.10 36.80L35.10 36.80L34.20 41.50Q32.40 41.10 30.40 40.85Q28.40 40.60 25.90 40.60L25.90 40.60Q18.70 40.60 14.50 44.35Q10.30 48.10 10.30 54.70L10.30 54.70Q10.30 61.30 14.25 64.70Q18.20 68.10 24.30 68.10L24.30 68.10Q29.40 68.10 33.30 66.35Q37.20 64.60 40.80 61.00L40.80 61.00L40.80 29.30L46.10 30.10L46.10 75.50Q46.10 78.70 46.65 80.35Q47.20 82.00 48.30 82.90L48.30 82.90Q49.50 84.10 51.50 84.35Q53.50 84.60 55.70 84.60L55.70 84.60L55.20 89.60L54.20 89.60Q47.50 89.60 44.30 86.60L44.30 86.60Q42.60 85.00 41.70 82.50Q40.80 80 40.80 75.80L40.80 75.80L40.80 67.50Q37.80 69.90 33.80 71.45Q29.80 73 24.40 73ZM40.50 116.30L40.50 116.30Q33.90 116.30 28.75 114.05Q23.60 111.80 19.45 108.00Q15.30 104.20 11.80 99.40L11.80 99.40L16 96.50Q21.10 103.20 26.70 107.30Q32.30 111.40 40.50 111.40L40.50 111.40Q46.20 111.40 49.20 109.20Q52.20 107.00 52.20 102.70L52.20 102.70Q52.20 98.80 49.60 96.80Q47 94.80 42.60 94.80L42.60 94.80Q40.10 94.80 37.90 95.35Q35.70 95.90 33.50 96.80L33.50 96.80L31.70 92.30Q34.30 91.20 36.90 90.65Q39.50 90.10 42.30 90.10L42.30 90.10Q49.40 90.10 53.30 93.65Q57.20 97.20 57.20 103.10L57.20 103.10Q57.20 109.30 52.75 112.80Q48.30 116.30 40.50 116.30Z"/></svg>