<svg xmlns="http://www.w3.org/2000/svg" xmlns:xlink="http://www.w3.org/1999/xlink" width="56.2" height="130.4"><path d="M24.40 73L24.40 73Q15.80 73 10.35 68.15Q4.90 63.30 4.90 54.70L4.90 54.70Q4.90 48.80 7.55 44.55Q10.20 40.30 14.95 38.00Q19.70 35.70 25.80 35.70L25.80 35.70Q28.20 35.70 30.65 36.00Q33.10 36.30 35.10 36.80L35.10 36.80L34.20 41.50Q32.40 41.10 30.40 40.85Q28.40 40.60 25.90 40.60L25.90 40.60Q18.70 40.60 14.50 44.35Q10.30 48.10 10.30 54.70L10.30 54.70Q10.30 61.30 14.25 64.70Q18.20 68.10 24.30 68.10L24.30 68.10Q29.40 68.10 33.30 66.35Q37.20 64.60 40.80 61.00L40.80 61.00L40.80 29.30L46.10 30.10L46.10 75.50Q46.10 78.70 46.65 80.35Q47.20 82.00 48.30 82.90L48.30 82.90Q49.50 84.10 51.50 84.35Q53.50 84.60 55.70 84.60L55.70 84.60L55.20 89.60L54.20 89.60Q47.50 89.60 44.30 86.60L44.30 86.60Q42.60 85.00 41.70 82.50Q40.80 80 40.80 75.80L40.80 75.80L40.80 67.50Q37.80 69.90 33.80 71.45Q29.80 73 24.40 73ZM38.70 116.10L38.70 116.10Q31.60 116.10 27.70 112.50Q23.80 108.90 23.80 103.00L23.80 103.00Q23.80 97.60 27.90 93.85Q32 90.10 39.90 90.10L39.90 90.10Q47.20 90.10 52.55 92.85Q57.90 95.60 62 99.95Q66.10 104.30 69.50 109.20L69.50 109.20L65.40 111.90Q61.70 106.80 58.05 102.95Q54.40 99.10 50.05 96.95Q45.70 94.80 40.10 94.80L40.10 94.80Q34.30 94.80 31.55 97.15Q28.80 99.50 28.80 103.10L28.80 103.10Q28.80 107.30 31.50 109.25Q34.20 111.20 38.40 111.20L38.40 111.20Q41.10 111.20 43.35 110.65Q45.60 110.10 47.80 109.10L47.80 109.10L49.50 113.90Q46.90 114.90 44.20 115.50Q41.50 116.10 38.70 116.10Z"/></svg>