<svg xmlns="http://www.w3.org/2000/svg" xmlns:xlink="http://www.w3.org/1999/xlink" width="56.2" height="130.4"><path d="M24.40 73L24.40 73Q15.80 73 10.35 68.15Q4.90 63.30 4.90 54.70L4.90 54.70Q4.90 48.80 7.55 44.55Q10.20 40.30 14.95 38.00Q19.70 35.70 25.80 35.70L25.80 35.70Q28.20 35.70 30.65 36.00Q33.10 36.30 35.10 36.80L35.10 36.80L34.20 41.50Q32.40 41.10 30.40 40.85Q28.40 40.60 25.90 40.60L25.90 40.60Q18.70 40.60 14.50 44.35Q10.30 48.10 10.30 54.70L10.30 54.70Q10.30 61.30 14.25 64.70Q18.20 68.10 24.30 68.10L24.30 68.10Q29.40 68.10 33.30 66.35Q37.20 64.60 40.80 61.00L40.80 61.00L40.80 29.30L46.10 30.10L46.10 75.50Q46.10 78.70 46.65 80.35Q47.20 82.00 48.30 82.90L48.30 82.90Q49.50 84.10 51.50 84.35Q53.50 84.60 55.70 84.60L55.70 84.60L55.20 89.60L54.20 89.60Q47.50 89.60 44.30 86.60L44.30 86.60Q42.60 85.00 41.70 82.50Q40.80 80 40.80 75.80L40.80 75.80L40.80 67.50Q37.80 69.90 33.80 71.45Q29.80 73 24.40 73ZM45.70 25.50L41.30 25.50Q39.40 17.70 37.55 13.15Q35.70 8.60 33.25 6.70Q30.80 4.80 27 4.80L27 4.80Q25.80 4.80 24.45 5Q23.10 5.20 21.60 5.70L21.60 5.70L20.10 1.10Q22 0.50 23.80 0.25Q25.60 0 27.30 0L27.30 0Q31.90 0 35.25 2.25Q38.60 4.50 41.10 10.05Q43.60 15.60 45.70 25.50L45.70 25.50ZM40.40 23.70L37.60 26.60Q31.50 21.20 27.30 18.85Q23.10 16.50 18.20 16.50L18.20 16.50Q14.70 16.50 11.80 17.40L11.80 17.40L10.30 12.70Q12.10 12.30 14.05 12Q16 11.70 18.20 11.70L18.20 11.70Q22 11.70 25.35 12.90Q28.70 14.10 32.25 16.75Q35.80 19.40 40.40 23.70L40.40 23.70Z"/></svg>