<svg xmlns="http://www.w3.org/2000/svg" xmlns:xlink="http://www.w3.org/1999/xlink" width="81.30000000000001" height="130.4"><path d="M24.40 73L24.40 73Q15.80 73 10.35 68.15Q4.90 63.30 4.90 54.70L4.90 54.70Q4.90 48.80 7.55 44.55Q10.20 40.30 14.95 38.00Q19.70 35.70 25.80 35.70L25.80 35.70Q28.20 35.70 30.65 36.00Q33.10 36.30 35.10 36.80L35.10 36.80L34.20 41.50Q32.40 41.10 30.40 40.85Q28.40 40.60 25.90 40.60L25.90 40.60Q18.70 40.60 14.50 44.35Q10.30 48.10 10.30 54.70L10.30 54.70Q10.30 61.30 14.25 64.70Q18.20 68.10 24.30 68.10L24.30 68.10Q29.40 68.10 33.30 66.35Q37.20 64.60 40.80 61.00L40.80 61.00L40.80 29.30L46.10 30.10L46.10 75.50Q46.10 78.70 46.65 80.35Q47.20 82.00 48.30 82.90L48.30 82.90Q49.50 84.10 51.50 84.35Q53.50 84.60 55.70 84.60L55.70 84.60L55.20 89.60L54.20 89.60Q47.50 89.60 44.30 86.60L44.30 86.60Q42.60 85.00 41.70 82.50Q40.80 80 40.80 75.80L40.80 75.80L40.80 67.50Q37.80 69.90 33.80 71.45Q29.80 73 24.40 73ZM80.30 89.60L79.30 89.60Q72.70 89.60 69.40 86.60L69.40 86.60Q67.60 85.00 66.75 82.50Q65.90 80 65.90 75.80L65.90 75.80L65.90 29.30L71.20 30.00L71.20 75.50Q71.20 78.80 71.70 80.40Q72.20 82.00 73.50 83.00L73.50 83.00Q74.70 84.10 76.55 84.35Q78.40 84.60 80.80 84.60L80.80 84.60L80.30 89.60ZM70.70 25.50L65.90 25.50Q63.70 17.90 61.70 13.40Q59.70 8.90 57.15 6.90Q54.60 4.90 50.70 4.90L50.70 4.90Q47.90 4.90 44.90 5.80L44.90 5.80L43.30 1.20Q45.30 0.60 47.25 0.30Q49.20 0 51 0L51 0Q55.70 0 59.20 2.15Q62.70 4.30 65.45 9.80Q68.20 15.30 70.70 25.50L70.70 25.50Z"/></svg>