<svg xmlns="http://www.w3.org/2000/svg" xmlns:xlink="http://www.w3.org/1999/xlink" width="81.30000000000001" height="130.4"><path d="M24.40 73L24.40 73Q15.80 73 10.35 68.15Q4.90 63.30 4.90 54.70L4.90 54.70Q4.90 48.80 7.55 44.55Q10.20 40.30 14.95 38.00Q19.70 35.70 25.80 35.70L25.80 35.70Q28.20 35.70 30.65 36.00Q33.10 36.30 35.10 36.80L35.10 36.80L34.20 41.50Q32.40 41.10 30.40 40.85Q28.40 40.60 25.90 40.60L25.90 40.60Q18.70 40.60 14.50 44.35Q10.30 48.10 10.30 54.70L10.30 54.70Q10.30 61.30 14.25 64.70Q18.20 68.10 24.30 68.10L24.30 68.10Q29.40 68.10 33.30 66.35Q37.20 64.60 40.80 61.00L40.80 61.00L40.80 29.30L46.10 30.10L46.10 75.50Q46.10 78.70 46.65 80.35Q47.20 82.00 48.30 82.90L48.30 82.90Q49.50 84.10 51.50 84.35Q53.50 84.60 55.70 84.60L55.70 84.60L55.20 89.60L54.20 89.60Q47.50 89.60 44.30 86.60L44.30 86.60Q42.60 85.00 41.70 82.50Q40.80 80 40.80 75.80L40.80 75.80L40.80 67.50Q37.80 69.90 33.80 71.45Q29.80 73 24.40 73ZM80.30 89.60L79.30 89.60Q72.70 89.60 69.40 86.60L69.40 86.60Q67.60 85.00 66.75 82.50Q65.90 80 65.90 75.80L65.90 75.80L65.90 29.30L71.20 30.00L71.20 75.50Q71.20 78.80 71.70 80.40Q72.20 82.00 73.50 83.00L73.50 83.00Q74.70 84.10 76.55 84.35Q78.40 84.60 80.80 84.60L80.80 84.60L80.30 89.60ZM70.80 25.50L66.40 25.50Q64.50 17.70 62.65 13.15Q60.80 8.60 58.35 6.70Q55.90 4.80 52.10 4.80L52.10 4.80Q50.90 4.80 49.55 5Q48.20 5.20 46.70 5.70L46.70 5.70L45.20 1.10Q47.10 0.50 48.90 0.25Q50.70 0 52.40 0L52.40 0Q57 0 60.35 2.25Q63.70 4.50 66.20 10.05Q68.70 15.60 70.80 25.50L70.80 25.50ZM65.50 23.70L62.70 26.60Q56.60 21.20 52.40 18.85Q48.20 16.50 43.30 16.50L43.30 16.50Q39.80 16.50 36.90 17.40L36.90 17.40L35.40 12.70Q37.20 12.30 39.15 12Q41.10 11.70 43.30 11.70L43.30 11.70Q47.10 11.70 50.45 12.90Q53.80 14.10 57.35 16.75Q60.90 19.40 65.50 23.70L65.50 23.70Z"/></svg>