<?xml version="1.0" encoding="UTF-8" standalone="no"?><svg width="75.900002" height="89.599998" version="1.1" id="svg1214" sodipodi:docname="9_vau.svg" inkscape:version="1.2.1 (9c6d41e410, 2022-07-14)" xmlns:inkscape="http://www.inkscape.org/namespaces/inkscape" xmlns:sodipodi="http://sodipodi.sourceforge.net/DTD/sodipodi-0.dtd" xmlns="http://www.w3.org/2000/svg" xmlns:svg="http://www.w3.org/2000/svg"><defs id="defs1218"></defs><sodipodi:namedview id="namedview1216" pagecolor="#ffffff" bordercolor="#666666" borderopacity="1.0" inkscape:showpageshadow="2" inkscape:pageopacity="0.0" inkscape:pagecheckerboard="0" inkscape:deskcolor="#d1d1d1" showgrid="false" inkscape:zoom="1.809816" inkscape:cx="36.191524" inkscape:cy="65.199997" inkscape:window-width="1920" inkscape:window-height="1027" inkscape:window-x="-8" inkscape:window-y="-8" inkscape:window-maximized="1" inkscape:current-layer="svg1214"></sodipodi:namedview><g id="g0" inkscape:label="g0" transform="translate(0,29.300429)"><path d="m 19.5,43.7 v 0 Q 10.9,43.7 5.45,38.85 0,34 0,25.4 v 0 Q 0,19.5 2.65,15.25 5.3,11 10.05,8.7 14.8,6.4 20.9,6.4 v 0 q 2.4,0 4.85,0.3 2.45,0.3 4.45,0.8 v 0 l -0.9,4.7 Q 27.5,11.8 25.5,11.55 23.5,11.3 21,11.3 v 0 Q 13.8,11.3 9.6,15.05 5.4,18.8 5.4,25.4 v 0 q 0,6.6 3.95,10 3.95,3.4 10.05,3.4 v 0 q 5.1,0 9,-1.75 3.9,-1.75 7.5,-5.35 v 0 V 0 l 5.3,0.8 v 45.4 q 0,3.2 0.55,4.85 0.55,1.65 1.65,2.55 v 0 q 1.2,1.2 3.2,1.45 2,0.25 4.2,0.25 v 0 l -0.5,5 h -1 q -6.7,0 -9.9,-3 v 0 q -1.7,-1.6 -2.6,-4.1 -0.9,-2.5 -0.9,-6.7 v 0 -8.3 q -3,2.4 -7,3.95 -4,1.55 -9.4,1.55 z" id="g0p0" inkscape:label="g0p0"></path><path id="g0s0" style="fill:none;stroke:#000000;stroke-width:1px;stroke-linecap:butt;stroke-linejoin:miter;stroke-opacity:1" inkscape:label="g0s0" d="M 29.738281,9.90625 C 23.928323,8.5658988 17.542013,8.1561164 11.946408,10.574638 7.1110081,12.568928 3.528315,17.221032 2.9297805,22.432041 2.2174202,27.506275 3.1395063,33.276775 7.1076455,36.863657 11.600562,41.086377 18.230216,41.856562 24.087331,40.881576 29.711122,40.046774 34.477323,36.622277 38.54901,32.839847 38.59616,21.893304 38.61839,10.946644 38.60899,0" sodipodi:nodetypes="ccccccc"></path><path style="fill:none;stroke:#000000;stroke-width:1px;stroke-linecap:butt;stroke-linejoin:miter;stroke-opacity:1" d="m 38.5533,32.796878 c 0.0016,4.904382 0.0083,9.808692 0.02529,14.712858 0.06971,2.92999 0.62814,6.207487 3.050142,8.148934 2.275234,1.874383 5.340646,1.976757 8.14715,2.075562 l 1.01713,0.05484" id="g0s1" inkscape:label="g0s1"></path></g><g id="g1" inkscape:label="g1" transform="translate(4.7)"><path style="display:inline" d="m 70.7,89.6 h -1 q -6.6,0 -9.9,-3 v 0 Q 58,85 57.15,82.5 56.3,80 56.3,75.8 v 0 -46.5 l 5.3,0.7 v 45.5 q 0,3.3 0.5,4.9 0.5,1.6 1.8,2.6 v 0 q 1.2,1.1 3.05,1.35 1.85,0.25 4.25,0.25 v 0 z" id="g1p0" inkscape:label="g1p0"></path><path style="display:inline;fill:none;stroke:#000000;stroke-width:1px;stroke-linecap:butt;stroke-linejoin:miter;stroke-opacity:1" d="m 58.945814,29.339077 c 0.0052,15.660703 -0.0419,31.322813 -0.004,46.982637 0.07316,2.661925 0.300705,5.531206 2.06529,7.674603 1.94562,2.285428 5.076188,2.956219 7.950186,3.001875 0.734456,0.05113 1.468913,0.102253 2.203369,0.15338" id="g1s0" inkscape:label="g1s0"></path></g><g id="g2" inkscape:label="g2" transform="translate(4.7)"><path style="display:inline" d="m 55.9,23.7 -2.8,2.9 Q 47,21.2 42.8,18.85 38.6,16.5 33.7,16.5 v 0 q -3.5,0 -6.4,0.9 v 0 l -1.5,-4.7 q 1.8,-0.4 3.75,-0.7 1.95,-0.3 4.15,-0.3 v 0 q 3.8,0 7.15,1.2 3.35,1.2 6.9,3.85 3.55,2.65 8.15,6.95 z" id="g2p0" inkscape:label="g2p0"></path><path style="display:inline;fill:none;stroke:#000000;stroke-width:1px;stroke-linecap:butt;stroke-linejoin:miter;stroke-opacity:1" d="m 26.306582,15.114407 c 2.688785,-0.568456 5.416241,-1.1935 8.183739,-0.988483 1.810938,0.02306 3.595689,0.410136 5.328375,0.908621 1.446215,0.495326 2.860202,1.115629 4.178036,1.890495 3.847011,2.308963 7.136989,5.387765 10.538424,8.281996" id="g2s0" inkscape:label="g2s0"></path></g><g id="g3" inkscape:label="g3" transform="matrix(1,0,0,0.99067711,4.7,0)"><path style="display:inline" d="M 61.2,25.5 H 56.8 Q 54.9,17.7 53.05,13.15 51.2,8.6 48.75,6.7 46.3,4.8 42.5,4.8 v 0 Q 41.3,4.8 39.95,5 38.6,5.2 37.1,5.7 v 0 L 35.6,1.1 Q 37.5,0.5 39.3,0.25 41.1,0 42.8,0 v 0 q 4.6,0 7.95,2.25 3.35,2.25 5.85,7.8 2.5,5.55 4.6,15.45 z" id="g3p0" inkscape:label="g3p0"></path><path style="display:inline;fill:none;stroke:#000000;stroke-width:1px;stroke-linecap:butt;stroke-linejoin:miter;stroke-opacity:1" d="m 36.195028,3.4913397 2.773185,-0.7181553 0.82864,-0.1767767 0.806544,-0.099437 1.138,-0.088388 h 0.905981 l 1.027514,0.033146 0.983321,0.121534 0.872835,0.1325825 1.237436,0.2872621 1.071709,0.4198447 1.347922,0.6960582 1.016466,0.6960583 0.696059,0.5966213 0.82864,0.9612233 0.950175,1.2042912 0.839689,1.3368738 0.806544,1.6130879 0.651864,1.425262 0.662913,1.635184 0.53033,1.679379 0.50108,1.557697 0.367187,1.382813 0.5,1.734375 0.453125,1.757812 1.007035,3.936361" id="g3s0" inkscape:label="g3s0"></path></g></svg>