<svg xmlns="http://www.w3.org/2000/svg" xmlns:xlink="http://www.w3.org/1999/xlink" width="81.30000000000001"
    height="130.4">
    <path
        d="M24.40 73L24.40 73Q15.80 73 10.35 68.15Q4.90 63.30 4.90 54.70L4.90 54.70Q4.90 48.80 7.55 44.55Q10.20 40.30 14.95 38.00Q19.70 35.70 25.80 35.70L25.80 35.70Q28.20 35.70 30.65 36.00Q33.10 36.30 35.10 36.80L35.10 36.80L34.20 41.50Q32.40 41.10 30.40 40.85Q28.40 40.60 25.90 40.60L25.90 40.60Q18.70 40.60 14.50 44.35Q10.30 48.10 10.30 54.70L10.30 54.70Q10.30 61.30 14.25 64.70Q18.20 68.10 24.30 68.10L24.30 68.10Q29.40 68.10 33.30 66.35Q37.20 64.60 40.80 61.00L40.80 61.00L40.80 29.30L46.10 30.10L46.10 75.50Q46.10 78.70 46.65 80.35Q47.20 82.00 48.30 82.90L48.30 82.90Q49.50 84.10 51.50 84.35Q53.50 84.60 55.70 84.60L55.70 84.60L55.20 89.60L54.20 89.60Q47.50 89.60 44.30 86.60L44.30 86.60Q42.60 85.00 41.70 82.50Q40.80 80 40.80 75.80L40.80 75.80L40.80 67.50Q37.80 69.90 33.80 71.45Q29.80 73 24.40 73ZM80.30 89.60L79.30 89.60Q72.70 89.60 69.40 86.60L69.40 86.60Q67.60 85.00 66.75 82.50Q65.90 80 65.90 75.80L65.90 75.80L65.90 29.30L71.20 30.00L71.20 75.50Q71.20 78.80 71.70 80.40Q72.20 82.00 73.50 83.00L73.50 83.00Q74.70 84.10 76.55 84.35Q78.40 84.60 80.80 84.60L80.80 84.60L80.30 89.60ZM70.80 25.50L66.40 25.50Q64.50 17.70 62.65 13.15Q60.80 8.60 58.35 6.70Q55.90 4.80 52.10 4.80L52.10 4.80Q50.90 4.80 49.55 5Q48.20 5.20 46.70 5.70L46.70 5.70L45.20 1.10Q47.10 0.50 48.90 0.25Q50.70 0 52.40 0L52.40 0Q57 0 60.35 2.25Q63.70 4.50 66.20 10.05Q68.70 15.60 70.80 25.50L70.80 25.50ZM65.50 23.70L62.70 26.60Q56.60 21.20 52.40 18.85Q48.20 16.50 43.30 16.50L43.30 16.50Q39.80 16.50 36.90 17.40L36.90 17.40L35.40 12.70Q37.20 12.30 39.15 12Q41.10 11.70 43.30 11.70L43.30 11.70Q47.10 11.70 50.45 12.90Q53.80 14.10 57.35 16.75Q60.90 19.40 65.50 23.70L65.50 23.70Z" />
      <g
     id="g605"
     inkscape:label="g2">
    <path
       style="display:inline"
       d="m 70.7,89.6 h -1 q -6.6,0 -9.9,-3 v 0 Q 58,85 57.15,82.5 56.3,80 56.3,75.8 v 0 -46.5 l 5.3,0.7 v 45.5 q 0,3.3 0.5,4.9 0.5,1.6 1.8,2.6 v 0 q 1.2,1.1 3.05,1.35 1.85,0.25 4.25,0.25 v 0 z"
       id="path592"
       inkscape:label="p2" />
    <path
       style="display:inline;fill:none;stroke:#000000;stroke-width:1px;stroke-linecap:butt;stroke-linejoin:miter;stroke-opacity:1"
       d="m 58.945814,29.339077 c 0.0052,15.660703 -0.0419,31.322813 -0.004,46.982637 0.07316,2.661925 0.300705,5.531206 2.06529,7.674603 1.94562,2.285428 5.076188,2.956219 7.950186,3.001875 0.734456,0.05113 1.468913,0.102253 2.203369,0.15338"
       id="path81"
       inkscape:label="s3" />
  </g>
  <g
     id="g609"
     inkscape:label="g3">
    <path
       style="display:inline"
       d="m 55.9,23.7 -2.8,2.9 Q 47,21.2 42.8,18.85 38.6,16.5 33.7,16.5 v 0 q -3.5,0 -6.4,0.9 v 0 l -1.5,-4.7 q 1.8,-0.4 3.75,-0.7 1.95,-0.3 4.15,-0.3 v 0 q 3.8,0 7.15,1.2 3.35,1.2 6.9,3.85 3.55,2.65 8.15,6.95 z"
       id="path596"
       inkscape:label="p3" />
    <path
       style="display:inline;fill:none;stroke:#000000;stroke-width:1px;stroke-linecap:butt;stroke-linejoin:miter;stroke-opacity:1"
       d="m 26.306582,15.114407 c 2.688785,-0.568456 5.416241,-1.1935 8.183739,-0.988483 1.810938,0.02306 3.595689,0.410136 5.328375,0.908621 1.446215,0.495326 2.860202,1.115629 4.178036,1.890495 3.847011,2.308963 7.136989,5.387765 10.538424,8.281996"
       id="path905"
       inkscape:label="s4" />
  </g>
  <g
     id="g613"
     inkscape:label="g4">
    <path
       style="display:inline"
       d="M 61.2,25.5 H 56.8 Q 54.9,17.7 53.05,13.15 51.2,8.6 48.75,6.7 46.3,4.8 42.5,4.8 v 0 Q 41.3,4.8 39.95,5 38.6,5.2 37.1,5.7 v 0 L 35.6,1.1 Q 37.5,0.5 39.3,0.25 41.1,0 42.8,0 v 0 q 4.6,0 7.95,2.25 3.35,2.25 5.85,7.8 2.5,5.55 4.6,15.45 z"
       id="path594"
       inkscape:label="p4" />
    <path
       style="display:inline;fill:none;stroke:#000000;stroke-width:1px;stroke-linecap:butt;stroke-linejoin:miter;stroke-opacity:1"
       d="m 36.195028,3.4913397 2.773185,-0.7181553 0.82864,-0.1767767 0.806544,-0.099437 1.138,-0.088388 h 0.905981 l 1.027514,0.033146 0.983321,0.121534 0.872835,0.1325825 1.237436,0.2872621 1.071709,0.4198447 1.347922,0.6960582 1.016466,0.6960583 0.696059,0.5966213 0.82864,0.9612233 0.950175,1.2042912 0.839689,1.3368738 0.806544,1.6130879 0.651864,1.425262 0.662913,1.635184 0.53033,1.679379 0.50108,1.557697 0.367187,1.382813 0.5,1.734375 0.453125,1.757812 1.007035,3.936361"
       id="path970"
       inkscape:label="s5" />
  </g>
    <path id="path329"
        style="fill:none;stroke:#000000;stroke-width:1px;stroke-linecap:butt;stroke-linejoin:miter;stroke-opacity:1"
        inkscape:label="s1"
        d="M 29.738281,9.90625 C 23.928323,8.5658988 17.542013,8.1561164 11.946408,10.574638 7.1110081,12.568928 3.528315,17.221032 2.9297805,22.432041 2.2174202,27.506275 3.1395063,33.276775 7.1076455,36.863657 11.600562,41.086377 18.230216,41.856562 24.087331,40.881576 29.711122,40.046774 34.477323,36.622277 38.54901,32.839847 38.59616,21.893304 38.61839,10.946644 38.60899,0"
        sodipodi:nodetypes="ccccccc" />
    <path style="fill:none;stroke:#000000;stroke-width:1px;stroke-linecap:butt;stroke-linejoin:miter;stroke-opacity:1"
        d="m 38.5533,32.796878 c 0.0016,4.904382 0.0083,9.808692 0.02529,14.712858 0.06971,2.92999 0.62814,6.207487 3.050142,8.148934 2.275234,1.874383 5.340646,1.976757 8.14715,2.075562 l 1.01713,0.05484"
        id="path463" inkscape:label="s2" />
</svg>