<?xml version="1.0" encoding="UTF-8" standalone="no"?>
<svg
   width="71.699997"
   height="74"
   version="1.1"
   id="svg4"
   sodipodi:docname="0_n.svg"
   inkscape:version="1.2.1 (9c6d41e410, 2022-07-14)"
   xmlns:inkscape="http://www.inkscape.org/namespaces/inkscape"
   xmlns:sodipodi="http://sodipodi.sourceforge.net/DTD/sodipodi-0.dtd"
   xmlns="http://www.w3.org/2000/svg"
   xmlns:svg="http://www.w3.org/2000/svg">
  <defs
     id="defs8" />
  <sodipodi:namedview
     id="namedview6"
     pagecolor="#ffffff"
     bordercolor="#666666"
     borderopacity="1.0"
     inkscape:showpageshadow="2"
     inkscape:pageopacity="0.0"
     inkscape:pagecheckerboard="0"
     inkscape:deskcolor="#d1d1d1"
     showgrid="false"
     inkscape:zoom="5.6568543"
     inkscape:cx="94.487143"
     inkscape:cy="66.291261"
     inkscape:window-width="1920"
     inkscape:window-height="1027"
     inkscape:window-x="-8"
     inkscape:window-y="-8"
     inkscape:window-maximized="1"
     inkscape:current-layer="svg4" />
  <path
     style="fill:none;stroke:#000000;stroke-width:1px;stroke-linecap:butt;stroke-linejoin:miter;stroke-opacity:1"
     d="M 59.42354,0.01104854 C 59.50789,15.934301 59.35849,31.847505 59.485496,47.77013 c 0.08516,2.988843 0.809205,6.378502 3.441103,8.164797 2.525506,1.870599 5.806601,1.612129 8.768713,1.901008"
     id="path453"
     sodipodi:nodetypes="cccc"
     inkscape:label="s3" />
  <path
     style="fill:none;stroke:#000000;stroke-width:1px;stroke-linecap:butt;stroke-linejoin:miter;stroke-opacity:1"
     d="m 18.621094,5.0117187 c 2.653974,-1.0066828 5.312963,-2.1184717 8.166208,-2.3975451 3.64641,-0.4704261 7.649662,-0.058149 10.651061,2.2360858 3.014022,2.2334019 4.731281,5.8103746 5.442623,9.4235396 0.59228,3.105891 0.587077,6.307681 0.284037,9.445415 -0.311804,2.647872 -1.018792,5.320449 -2.497841,7.562738 -1.323906,1.995443 -3.313729,3.528177 -5.619468,4.204051 -4.783024,1.536637 -10.23737,0.311775 -14.096142,-2.848282 -2.059739,-1.648006 -3.698165,-3.719537 -5.378647,-5.734496"
     id="path451"
     inkscape:label="s2" />
  <path
     style="fill:none;stroke:#000000;stroke-width:1px;stroke-linecap:butt;stroke-linejoin:miter;stroke-opacity:1"
     d="M 2.5546875,0.00390625 C 2.6201709,11.484854 2.5716666,22.969494 2.7093823,34.448123 c 0.1679252,3.243283 0.8185218,6.849191 3.5548337,8.953393 2.8182571,2.251905 6.340086,3.333198 9.505315,4.993015 4.534511,2.231818 9.276553,4.075852 13.621833,6.670476 2.792417,1.65126 5.401943,4.246947 5.617796,7.664527 0.387701,2.982511 -0.967745,5.806532 -2.728761,8.124344 -0.360391,0.536988 -0.720781,1.073977 -1.081172,1.610966"
     id="path380"
     inkscape:label="s1" />
  <path
     d="m 41.3,103.3 v 0 l -4.3,-3 q 1.4,-1.7 2.3,-3.5 0.9,-1.8 0.9,-3.7 v 0 q 0,-2.7 -1.8,-4.65 Q 36.6,86.5 31.2,84 v 0 L 16.5,77.1 Q 11.3,74.7 9.6,71.35 7.9,68 7.9,61.9 v 0 -32.6 l 5.3,0.8 v 31.1 q 0,3.2 0.4,5.3 0.4,2.1 1.75,3.65 1.35,1.55 4.25,2.85 v 0 l 14.9,7 q 6.4,3.1 8.8,6 2.4,2.9 2.4,6.8 v 0 q 0,3 -1.35,5.6 Q 43,101 41.3,103.3 Z M 38.7,67.9 v 0 q -4.8,0 -9.3,-2.65 -4.5,-2.65 -8,-7.55 v 0 l 4.2,-3 q 2.5,3.8 5.7,6.05 3.2,2.25 7.3,2.25 v 0 Q 43.4,63 46,59.65 48.6,56.3 48.6,49 v 0 q 0,-7 -2.9,-10.9 -2.9,-3.9 -8.5,-3.9 v 0 q -4.9,0 -9.8,2.3 v 0 L 25.6,32 q 3,-1.4 6,-2.05 3,-0.65 5.9,-0.65 v 0 q 7.7,0 12.05,5.35 Q 53.9,40 53.9,49 v 0 q 0,6.8 -2,11 -2,4.2 -5.45,6.05 Q 43,67.9 38.7,67.9 Z m 40.4,21.7 h -1 q -6.7,0 -9.9,-3 v 0 Q 66.5,85 65.6,82.5 64.7,80 64.7,75.8 v 0 -46.5 l 5.3,0.8 v 45.4 q 0,3.2 0.55,4.85 0.55,1.65 1.65,2.55 v 0 q 1.2,1.2 3.2,1.45 2,0.25 4.2,0.25 v 0 z"
     id="path2"
     class="UnoptimicedTransforms"
     transform="translate(-7.9,-29.3)"
     inkscape:label="p1" />
</svg>
