<svg xmlns="http://www.w3.org/2000/svg" xmlns:xlink="http://www.w3.org/1999/xlink" width="80.10000000000001"
    height="130.4">
    <path
        d="M41.30 103.30L41.30 103.30L37 100.30Q38.40 98.60 39.30 96.80Q40.20 95.00 40.20 93.10L40.20 93.10Q40.20 90.40 38.40 88.45Q36.60 86.50 31.20 84.00L31.20 84.00L16.50 77.10Q11.30 74.70 9.60 71.35Q7.90 68 7.90 61.90L7.90 61.90L7.90 29.30L13.20 30.10L13.20 61.20Q13.20 64.40 13.60 66.50Q14 68.60 15.35 70.15Q16.70 71.70 19.60 73L19.60 73L34.50 80Q40.90 83.10 43.30 86.00Q45.70 88.90 45.70 92.80L45.70 92.80Q45.70 95.80 44.35 98.40Q43 101.00 41.30 103.30ZM38.70 67.90L38.70 67.90Q33.90 67.90 29.40 65.25Q24.90 62.60 21.40 57.70L21.40 57.70L25.60 54.70Q28.10 58.50 31.30 60.75Q34.50 63.00 38.60 63.00L38.60 63.00Q43.40 63.00 46 59.65Q48.60 56.30 48.60 49.00L48.60 49.00Q48.60 42.00 45.70 38.10Q42.80 34.20 37.20 34.20L37.20 34.20Q32.30 34.20 27.40 36.50L27.40 36.50L25.60 32.00Q28.60 30.60 31.60 29.95Q34.60 29.30 37.50 29.30L37.50 29.30Q45.20 29.30 49.55 34.65Q53.90 40.00 53.90 49.00L53.90 49.00Q53.90 55.80 51.90 60.00Q49.90 64.20 46.45 66.05Q43 67.90 38.70 67.90ZM79.10 89.60L78.10 89.60Q71.40 89.60 68.20 86.60L68.20 86.60Q66.50 85.00 65.60 82.50Q64.70 80 64.70 75.80L64.70 75.80L64.70 29.30L70 30.10L70 75.50Q70 78.70 70.55 80.35Q71.10 82.00 72.20 82.90L72.20 82.90Q73.40 84.10 75.40 84.35Q77.40 84.60 79.60 84.60L79.60 84.60L79.10 89.60ZM67.40 19.10L67.40 19.10Q65.60 19.10 64.35 17.80Q63.10 16.50 63.10 14.20L63.10 14.20Q63.10 12 64.30 10.70Q65.50 9.40 67.40 9.40L67.40 9.40Q69.30 9.40 70.50 10.70Q71.70 12 71.70 14.20L71.70 14.20Q71.70 16.60 70.45 17.85Q69.20 19.10 67.40 19.10Z" />
      <g
     id="g653"
     inkscape:label="g2">
    <path
       style="display:inline"
       d="m 33.9,9.7 v 0 Q 32.1,9.7 30.85,8.4 29.6,7.1 29.6,4.8 v 0 Q 29.6,2.6 30.8,1.3 32,0 33.9,0 v 0 q 1.9,0 3.1,1.3 1.2,1.3 1.2,3.5 v 0 q 0,2.4 -1.25,3.65 Q 35.7,9.7 33.9,9.7 Z"
       id="path644"
       inkscape:label="p2" />
    <path
       d="m 33.9375,1.3352194 c -0.820403,0 -1.515467,0.3118012 -2.085191,0.9354043 -0.569724,0.6236031 -0.854587,1.7074649 -0.854587,2.5903504 0,1.0553281 0.273468,1.8947931 0.820403,2.5183962 0.546936,0.6236031 1.347168,0.9354042 2.119375,0.9354042 0.865981,0 1.572439,-0.3118011 2.119375,-0.9354042 0.546935,-0.6236031 0.820403,-1.5977735 0.820403,-2.5183962 0,-1.1512668 -0.284863,-2.0267096 -0.854587,-2.6263275 C 35.452967,1.6350287 34.757903,1.3352194 33.9375,1.3352194 Z"
       style="display:inline;stroke-width:0.701376"
       id="path950"
       sodipodi:nodetypes="sssssssss"
       inkscape:label="s3" />
  </g>
    <path style="fill:none;stroke:#000000;stroke-width:1px;stroke-linecap:butt;stroke-linejoin:miter;stroke-opacity:1"
        d="M 2.5546875,0.00390625 C 2.6201709,11.484854 2.5716666,22.969494 2.7093823,34.448123 c 0.1679252,3.243283 0.8185218,6.849191 3.5548337,8.953393 2.8182571,2.251905 6.340086,3.333198 9.505315,4.993015 4.534511,2.231818 9.276553,4.075852 13.621833,6.670476 2.792417,1.65126 5.401943,4.246947 5.617796,7.664527 0.387701,2.982511 -0.967745,5.806532 -2.728761,8.124344 -0.360391,0.536988 -0.720781,1.073977 -1.081172,1.610966"
        id="path380" inkscape:label="s1" />
    <path style="fill:none;stroke:#000000;stroke-width:1px;stroke-linecap:butt;stroke-linejoin:miter;stroke-opacity:1"
        d="m 18.621094,5.0117187 c 2.653974,-1.0066828 5.312963,-2.1184717 8.166208,-2.3975451 3.64641,-0.4704261 7.649662,-0.058149 10.651061,2.2360858 3.014022,2.2334019 4.731281,5.8103746 5.442623,9.4235396 0.59228,3.105891 0.587077,6.307681 0.284037,9.445415 -0.311804,2.647872 -1.018792,5.320449 -2.497841,7.562738 -1.323906,1.995443 -3.313729,3.528177 -5.619468,4.204051 -4.783024,1.536637 -10.23737,0.311775 -14.096142,-2.848282 -2.059739,-1.648006 -3.698165,-3.719537 -5.378647,-5.734496"
        id="path451" inkscape:label="s2" />
    <path style="fill:none;stroke:#000000;stroke-width:1px;stroke-linecap:butt;stroke-linejoin:miter;stroke-opacity:1"
        d="M 59.42354,0.01104854 C 59.50789,15.934301 59.35849,31.847505 59.485496,47.77013 c 0.08516,2.988843 0.809205,6.378502 3.441103,8.164797 2.525506,1.870599 5.806601,1.612129 8.768713,1.901008"
        id="path453" sodipodi:nodetypes="cccc" inkscape:label="s3" />
</svg>