<svg xmlns="http://www.w3.org/2000/svg" xmlns:xlink="http://www.w3.org/1999/xlink" width="105.20000000000002" height="130.4"><path d="M24 89.60L23.10 89.60Q20 89.60 17.50 88.95Q15 88.30 13.20 86.60L13.20 86.60Q11.30 84.90 10.50 82.40Q9.70 79.90 9.70 75.80L9.70 75.80L9.70 22.40Q9.70 15.80 11.05 11.70Q12.40 7.60 15.80 4.70L15.80 4.70Q18 2.80 21.15 1.70Q24.30 0.60 28.40 0.60L28.40 0.60Q37.50 0.60 44.75 5.85Q52 11.10 59.30 19.60L59.30 19.60L55.40 22.70Q49 15.10 42.65 10.30Q36.30 5.50 28.70 5.50L28.70 5.50Q22.80 5.50 19.40 8.40L19.40 8.40Q17 10.50 16 14Q15 17.50 15 24.10L15 24.10L15 75.50Q15 78.70 15.50 80.35Q16 82.00 17.20 82.90L17.20 82.90Q18.40 84.10 20.35 84.35Q22.30 84.60 24.60 84.60L24.60 84.60L24 89.60ZM66.40 103.30L66.40 103.30L62.10 100.30Q63.50 98.60 64.40 96.80Q65.30 95.00 65.30 93.10L65.30 93.10Q65.30 90.40 63.50 88.45Q61.70 86.50 56.30 84.00L56.30 84.00L41.60 77.10Q36.40 74.70 34.70 71.35Q33 68 33 61.90L33 61.90L33 29.30L38.30 30.10L38.30 61.20Q38.30 64.40 38.70 66.50Q39.10 68.60 40.45 70.15Q41.80 71.70 44.70 73L44.70 73L59.60 80Q66 83.10 68.40 86.00Q70.80 88.90 70.80 92.80L70.80 92.80Q70.80 95.80 69.45 98.40Q68.10 101.00 66.40 103.30ZM63.80 67.90L63.80 67.90Q59 67.90 54.50 65.25Q50 62.60 46.50 57.70L46.50 57.70L50.70 54.70Q53.20 58.50 56.40 60.75Q59.60 63.00 63.70 63.00L63.70 63.00Q68.50 63.00 71.10 59.65Q73.70 56.30 73.70 49.00L73.70 49.00Q73.70 42.00 70.80 38.10Q67.90 34.20 62.30 34.20L62.30 34.20Q57.40 34.20 52.50 36.50L52.50 36.50L50.70 32.00Q53.70 30.60 56.70 29.95Q59.70 29.30 62.60 29.30L62.60 29.30Q70.30 29.30 74.65 34.65Q79 40.00 79 49.00L79 49.00Q79 55.80 77 60.00Q75 64.20 71.55 66.05Q68.10 67.90 63.80 67.90ZM104.20 89.60L103.20 89.60Q96.50 89.60 93.30 86.60L93.30 86.60Q91.60 85.00 90.70 82.50Q89.80 80 89.80 75.80L89.80 75.80L89.80 29.30L95.10 30.10L95.10 75.50Q95.10 78.70 95.65 80.35Q96.20 82.00 97.30 82.90L97.30 82.90Q98.50 84.10 100.50 84.35Q102.50 84.60 104.70 84.60L104.70 84.60L104.20 89.60Z"/></svg>