<svg xmlns="http://www.w3.org/2000/svg" xmlns:xlink="http://www.w3.org/1999/xlink" width="80.10000000000001" height="130.4"><path d="M41.30 103.30L41.30 103.30L37 100.30Q38.40 98.60 39.30 96.80Q40.20 95.00 40.20 93.10L40.20 93.10Q40.20 90.40 38.40 88.45Q36.60 86.50 31.20 84.00L31.20 84.00L16.50 77.10Q11.30 74.70 9.60 71.35Q7.90 68 7.90 61.90L7.90 61.90L7.90 29.30L13.20 30.10L13.20 61.20Q13.20 64.40 13.60 66.50Q14 68.60 15.35 70.15Q16.70 71.70 19.60 73L19.60 73L34.50 80Q40.90 83.10 43.30 86.00Q45.70 88.90 45.70 92.80L45.70 92.80Q45.70 95.80 44.35 98.40Q43 101.00 41.30 103.30ZM38.70 67.90L38.70 67.90Q33.90 67.90 29.40 65.25Q24.90 62.60 21.40 57.70L21.40 57.70L25.60 54.70Q28.10 58.50 31.30 60.75Q34.50 63.00 38.60 63.00L38.60 63.00Q43.40 63.00 46 59.65Q48.60 56.30 48.60 49.00L48.60 49.00Q48.60 42.00 45.70 38.10Q42.80 34.20 37.20 34.20L37.20 34.20Q32.30 34.20 27.40 36.50L27.40 36.50L25.60 32.00Q28.60 30.60 31.60 29.95Q34.60 29.30 37.50 29.30L37.50 29.30Q45.20 29.30 49.55 34.65Q53.90 40.00 53.90 49.00L53.90 49.00Q53.90 55.80 51.90 60.00Q49.90 64.20 46.45 66.05Q43 67.90 38.70 67.90ZM79.10 89.60L78.10 89.60Q71.40 89.60 68.20 86.60L68.20 86.60Q66.50 85.00 65.60 82.50Q64.70 80 64.70 75.80L64.70 75.80L64.70 29.30L70 30.10L70 75.50Q70 78.70 70.55 80.35Q71.10 82.00 72.20 82.90L72.20 82.90Q73.40 84.10 75.40 84.35Q77.40 84.60 79.60 84.60L79.60 84.60L79.10 89.60ZM64.40 116.30L64.40 116.30Q57.80 116.30 52.65 114.05Q47.50 111.80 43.35 108.00Q39.20 104.20 35.70 99.40L35.70 99.40L39.90 96.50Q45.00 103.20 50.60 107.30Q56.20 111.40 64.40 111.40L64.40 111.40Q70.10 111.40 73.10 109.20Q76.10 107.00 76.10 102.70L76.10 102.70Q76.10 98.80 73.50 96.80Q70.90 94.80 66.50 94.80L66.50 94.80Q64 94.80 61.80 95.35Q59.60 95.90 57.40 96.80L57.40 96.80L55.60 92.30Q58.20 91.20 60.80 90.65Q63.40 90.10 66.20 90.10L66.20 90.10Q73.30 90.10 77.20 93.65Q81.10 97.20 81.10 103.10L81.10 103.10Q81.10 109.30 76.65 112.80Q72.20 116.30 64.40 116.30Z"/></svg>