<svg xmlns="http://www.w3.org/2000/svg" xmlns:xlink="http://www.w3.org/1999/xlink" width="80.10000000000001" height="130.4"><path d="M41.30 103.30L41.30 103.30L37 100.30Q38.40 98.60 39.30 96.80Q40.20 95.00 40.20 93.10L40.20 93.10Q40.20 90.40 38.40 88.45Q36.60 86.50 31.20 84.00L31.20 84.00L16.50 77.10Q11.30 74.70 9.60 71.35Q7.90 68 7.90 61.90L7.90 61.90L7.90 29.30L13.20 30.10L13.20 61.20Q13.20 64.40 13.60 66.50Q14 68.60 15.35 70.15Q16.70 71.70 19.60 73L19.60 73L34.50 80Q40.90 83.10 43.30 86.00Q45.70 88.90 45.70 92.80L45.70 92.80Q45.70 95.80 44.35 98.40Q43 101.00 41.30 103.30ZM38.70 67.90L38.70 67.90Q33.90 67.90 29.40 65.25Q24.90 62.60 21.40 57.70L21.40 57.70L25.60 54.70Q28.10 58.50 31.30 60.75Q34.50 63.00 38.60 63.00L38.60 63.00Q43.40 63.00 46 59.65Q48.60 56.30 48.60 49.00L48.60 49.00Q48.60 42.00 45.70 38.10Q42.80 34.20 37.20 34.20L37.20 34.20Q32.30 34.20 27.40 36.50L27.40 36.50L25.60 32.00Q28.60 30.60 31.60 29.95Q34.60 29.30 37.50 29.30L37.50 29.30Q45.20 29.30 49.55 34.65Q53.90 40.00 53.90 49.00L53.90 49.00Q53.90 55.80 51.90 60.00Q49.90 64.20 46.45 66.05Q43 67.90 38.70 67.90ZM79.10 89.60L78.10 89.60Q71.40 89.60 68.20 86.60L68.20 86.60Q66.50 85.00 65.60 82.50Q64.70 80 64.70 75.80L64.70 75.80L64.70 29.30L70 30.10L70 75.50Q70 78.70 70.55 80.35Q71.10 82.00 72.20 82.90L72.20 82.90Q73.40 84.10 75.40 84.35Q77.40 84.60 79.60 84.60L79.60 84.60L79.10 89.60ZM62.60 116.10L62.60 116.10Q55.50 116.10 51.60 112.50Q47.70 108.90 47.70 103.00L47.70 103.00Q47.70 97.60 51.80 93.85Q55.90 90.10 63.80 90.10L63.80 90.10Q71.10 90.10 76.45 92.85Q81.80 95.60 85.90 99.95Q90.00 104.30 93.40 109.20L93.40 109.20L89.30 111.90Q85.60 106.80 81.95 102.95Q78.30 99.10 73.95 96.95Q69.60 94.80 64 94.80L64 94.80Q58.20 94.80 55.45 97.15Q52.70 99.50 52.70 103.10L52.70 103.10Q52.70 107.30 55.40 109.25Q58.10 111.20 62.30 111.20L62.30 111.20Q65 111.20 67.25 110.65Q69.50 110.10 71.70 109.10L71.70 109.10L73.40 113.90Q70.80 114.90 68.10 115.50Q65.40 116.10 62.60 116.10Z"/></svg>