<svg xmlns="http://www.w3.org/2000/svg" xmlns:xlink="http://www.w3.org/1999/xlink" width="80.10000000000001"
    height="130.4">
    <path
        d="M41.30 103.30L41.30 103.30L37 100.30Q38.40 98.60 39.30 96.80Q40.20 95.00 40.20 93.10L40.20 93.10Q40.20 90.40 38.40 88.45Q36.60 86.50 31.20 84.00L31.20 84.00L16.50 77.10Q11.30 74.70 9.60 71.35Q7.90 68 7.90 61.90L7.90 61.90L7.90 29.30L13.20 30.10L13.20 61.20Q13.20 64.40 13.60 66.50Q14 68.60 15.35 70.15Q16.70 71.70 19.60 73L19.60 73L34.50 80Q40.90 83.10 43.30 86.00Q45.70 88.90 45.70 92.80L45.70 92.80Q45.70 95.80 44.35 98.40Q43 101.00 41.30 103.30ZM38.70 67.90L38.70 67.90Q33.90 67.90 29.40 65.25Q24.90 62.60 21.40 57.70L21.40 57.70L25.60 54.70Q28.10 58.50 31.30 60.75Q34.50 63.00 38.60 63.00L38.60 63.00Q43.40 63.00 46 59.65Q48.60 56.30 48.60 49.00L48.60 49.00Q48.60 42.00 45.70 38.10Q42.80 34.20 37.20 34.20L37.20 34.20Q32.30 34.20 27.40 36.50L27.40 36.50L25.60 32.00Q28.60 30.60 31.60 29.95Q34.60 29.30 37.50 29.30L37.50 29.30Q45.20 29.30 49.55 34.65Q53.90 40.00 53.90 49.00L53.90 49.00Q53.90 55.80 51.90 60.00Q49.90 64.20 46.45 66.05Q43 67.90 38.70 67.90ZM79.10 89.60L78.10 89.60Q71.40 89.60 68.20 86.60L68.20 86.60Q66.50 85.00 65.60 82.50Q64.70 80 64.70 75.80L64.70 75.80L64.70 29.30L70 30.10L70 75.50Q70 78.70 70.55 80.35Q71.10 82.00 72.20 82.90L72.20 82.90Q73.40 84.10 75.40 84.35Q77.40 84.60 79.60 84.60L79.60 84.60L79.10 89.60ZM69.60 25.50L65.20 25.50Q63.30 17.70 61.45 13.15Q59.60 8.60 57.15 6.70Q54.70 4.80 50.90 4.80L50.90 4.80Q49.70 4.80 48.35 5Q47.00 5.20 45.50 5.70L45.50 5.70L44.00 1.10Q45.90 0.50 47.70 0.25Q49.50 0 51.20 0L51.20 0Q55.80 0 59.15 2.25Q62.50 4.50 65 10.05Q67.50 15.60 69.60 25.50L69.60 25.50ZM64.30 23.70L61.50 26.60Q55.40 21.20 51.20 18.85Q47.00 16.50 42.10 16.50L42.10 16.50Q38.60 16.50 35.70 17.40L35.70 17.40L34.20 12.70Q36.00 12.30 37.95 12Q39.90 11.70 42.10 11.70L42.10 11.70Q45.90 11.70 49.25 12.90Q52.60 14.10 56.15 16.75Q59.70 19.40 64.30 23.70L64.30 23.70Z" />
      <g
     id="g522"
     inkscape:label="g2">
    <path
       style="display:inline"
       d="M 30.8,23.7 28,26.6 Q 21.9,21.2 17.7,18.85 13.5,16.5 8.6,16.5 v 0 q -3.5,0 -6.4,0.9 v 0 L 0.7,12.7 Q 2.5,12.3 4.45,12 6.4,11.7 8.6,11.7 v 0 q 3.8,0 7.15,1.2 3.35,1.2 6.9,3.85 3.55,2.65 8.15,6.95 z"
       id="path513"
       inkscape:label="p2" />
    <path
       style="display:inline;fill:none;stroke:#000000;stroke-width:1px;stroke-linecap:butt;stroke-linejoin:miter;stroke-opacity:1"
       d="m 1.2484854,15.037068 c 2.0296352,-0.33742 4.0471341,-0.823273 6.106769,-0.926121 1.7144665,-0.03627 3.4419196,-0.0066 5.1213336,0.377952 1.626492,0.286246 3.200444,0.851561 4.696094,1.542318 3.239677,1.543111 6.000222,3.881137 8.751411,6.145612 1.177108,1.030396 2.354216,2.060791 3.531324,3.091187"
       id="path660"
       inkscape:label="s3" />
  </g>
  <g
     id="g526"
     inkscape:label="g3">
    <path
       style="display:inline"
       d="M 36.1,25.5 H 31.7 Q 29.8,17.7 27.95,13.15 26.1,8.6 23.65,6.7 21.2,4.8 17.4,4.8 v 0 Q 16.2,4.8 14.85,5 13.5,5.2 12,5.7 v 0 L 10.5,1.1 Q 12.4,0.5 14.2,0.25 16,0 17.7,0 v 0 q 4.6,0 7.95,2.25 3.35,2.25 5.85,7.8 2.5,5.55 4.6,15.45 z"
       id="path511"
       inkscape:label="p3" />
    <path
       style="display:inline;fill:none;stroke:#000000;stroke-width:1px;stroke-linecap:butt;stroke-linejoin:miter;stroke-opacity:1"
       d="m 11.023437,3.453125 c 2.182778,-0.4976057 4.36528,-1.1946393 6.631852,-1.0710196 2.053103,-0.044291 4.123749,0.4216957 5.902797,1.4638298 1.290672,0.6572076 2.43165,1.6018918 3.277933,2.7802163 1.787546,2.2624393 2.976329,4.9290225 3.905851,7.6409995 1.112879,3.208175 2.009172,6.487831 2.71558,9.809147 0.117031,0.515091 0.234062,1.030183 0.351093,1.545274"
       id="path662"
       inkscape:label="s4" />
  </g>
    <path style="fill:none;stroke:#000000;stroke-width:1px;stroke-linecap:butt;stroke-linejoin:miter;stroke-opacity:1"
        d="M 2.5546875,0.00390625 C 2.6201709,11.484854 2.5716666,22.969494 2.7093823,34.448123 c 0.1679252,3.243283 0.8185218,6.849191 3.5548337,8.953393 2.8182571,2.251905 6.340086,3.333198 9.505315,4.993015 4.534511,2.231818 9.276553,4.075852 13.621833,6.670476 2.792417,1.65126 5.401943,4.246947 5.617796,7.664527 0.387701,2.982511 -0.967745,5.806532 -2.728761,8.124344 -0.360391,0.536988 -0.720781,1.073977 -1.081172,1.610966"
        id="path380" inkscape:label="s1" />
    <path style="fill:none;stroke:#000000;stroke-width:1px;stroke-linecap:butt;stroke-linejoin:miter;stroke-opacity:1"
        d="m 18.621094,5.0117187 c 2.653974,-1.0066828 5.312963,-2.1184717 8.166208,-2.3975451 3.64641,-0.4704261 7.649662,-0.058149 10.651061,2.2360858 3.014022,2.2334019 4.731281,5.8103746 5.442623,9.4235396 0.59228,3.105891 0.587077,6.307681 0.284037,9.445415 -0.311804,2.647872 -1.018792,5.320449 -2.497841,7.562738 -1.323906,1.995443 -3.313729,3.528177 -5.619468,4.204051 -4.783024,1.536637 -10.23737,0.311775 -14.096142,-2.848282 -2.059739,-1.648006 -3.698165,-3.719537 -5.378647,-5.734496"
        id="path451" inkscape:label="s2" />
    <path style="fill:none;stroke:#000000;stroke-width:1px;stroke-linecap:butt;stroke-linejoin:miter;stroke-opacity:1"
        d="M 59.42354,0.01104854 C 59.50789,15.934301 59.35849,31.847505 59.485496,47.77013 c 0.08516,2.988843 0.809205,6.378502 3.441103,8.164797 2.525506,1.870599 5.806601,1.612129 8.768713,1.901008"
        id="path453" sodipodi:nodetypes="cccc" inkscape:label="s3" />
</svg>