<svg xmlns="http://www.w3.org/2000/svg" xmlns:xlink="http://www.w3.org/1999/xlink" width="80.10000000000001" height="130.4"><path d="M41.30 103.30L41.30 103.30L37 100.30Q38.40 98.60 39.30 96.80Q40.20 95.00 40.20 93.10L40.20 93.10Q40.20 90.40 38.40 88.45Q36.60 86.50 31.20 84.00L31.20 84.00L16.50 77.10Q11.30 74.70 9.60 71.35Q7.90 68 7.90 61.90L7.90 61.90L7.90 29.30L13.20 30.10L13.20 61.20Q13.20 64.40 13.60 66.50Q14 68.60 15.35 70.15Q16.70 71.70 19.60 73L19.60 73L34.50 80Q40.90 83.10 43.30 86.00Q45.70 88.90 45.70 92.80L45.70 92.80Q45.70 95.80 44.35 98.40Q43 101.00 41.30 103.30ZM38.70 67.90L38.70 67.90Q33.90 67.90 29.40 65.25Q24.90 62.60 21.40 57.70L21.40 57.70L25.60 54.70Q28.10 58.50 31.30 60.75Q34.50 63.00 38.60 63.00L38.60 63.00Q43.40 63.00 46 59.65Q48.60 56.30 48.60 49.00L48.60 49.00Q48.60 42.00 45.70 38.10Q42.80 34.20 37.20 34.20L37.20 34.20Q32.30 34.20 27.40 36.50L27.40 36.50L25.60 32.00Q28.60 30.60 31.60 29.95Q34.60 29.30 37.50 29.30L37.50 29.30Q45.20 29.30 49.55 34.65Q53.90 40.00 53.90 49.00L53.90 49.00Q53.90 55.80 51.90 60.00Q49.90 64.20 46.45 66.05Q43 67.90 38.70 67.90ZM79.10 89.60L78.10 89.60Q71.40 89.60 68.20 86.60L68.20 86.60Q66.50 85.00 65.60 82.50Q64.70 80 64.70 75.80L64.70 75.80L64.70 29.30L70 30.10L70 75.50Q70 78.70 70.55 80.35Q71.10 82.00 72.20 82.90L72.20 82.90Q73.40 84.10 75.40 84.35Q77.40 84.60 79.60 84.60L79.60 84.60L79.10 89.60ZM69.60 25.50L65.20 25.50Q63.30 17.70 61.45 13.15Q59.60 8.60 57.15 6.70Q54.70 4.80 50.90 4.80L50.90 4.80Q49.70 4.80 48.35 5Q47.00 5.20 45.50 5.70L45.50 5.70L44.00 1.10Q45.90 0.50 47.70 0.25Q49.50 0 51.20 0L51.20 0Q55.80 0 59.15 2.25Q62.50 4.50 65 10.05Q67.50 15.60 69.60 25.50L69.60 25.50ZM64.30 23.70L61.50 26.60Q55.40 21.20 51.20 18.85Q47.00 16.50 42.10 16.50L42.10 16.50Q38.60 16.50 35.70 17.40L35.70 17.40L34.20 12.70Q36.00 12.30 37.95 12Q39.90 11.70 42.10 11.70L42.10 11.70Q45.90 11.70 49.25 12.90Q52.60 14.10 56.15 16.75Q59.70 19.40 64.30 23.70L64.30 23.70Z"/></svg>