<svg xmlns="http://www.w3.org/2000/svg" xmlns:xlink="http://www.w3.org/1999/xlink" width="105.20000000000002" height="130.4"><path d="M41.30 103.30L41.30 103.30L37 100.30Q38.40 98.60 39.30 96.80Q40.20 95.00 40.20 93.10L40.20 93.10Q40.20 90.40 38.40 88.45Q36.60 86.50 31.20 84.00L31.20 84.00L16.50 77.10Q11.30 74.70 9.60 71.35Q7.90 68 7.90 61.90L7.90 61.90L7.90 29.30L13.20 30.10L13.20 61.20Q13.20 64.40 13.60 66.50Q14 68.60 15.35 70.15Q16.70 71.70 19.60 73L19.60 73L34.50 80Q40.90 83.10 43.30 86.00Q45.70 88.90 45.70 92.80L45.70 92.80Q45.70 95.80 44.35 98.40Q43 101.00 41.30 103.30ZM38.70 67.90L38.70 67.90Q33.90 67.90 29.40 65.25Q24.90 62.60 21.40 57.70L21.40 57.70L25.60 54.70Q28.10 58.50 31.30 60.75Q34.50 63.00 38.60 63.00L38.60 63.00Q43.40 63.00 46 59.65Q48.60 56.30 48.60 49.00L48.60 49.00Q48.60 42.00 45.70 38.10Q42.80 34.20 37.20 34.20L37.20 34.20Q32.30 34.20 27.40 36.50L27.40 36.50L25.60 32.00Q28.60 30.60 31.60 29.95Q34.60 29.30 37.50 29.30L37.50 29.30Q45.20 29.30 49.55 34.65Q53.90 40.00 53.90 49.00L53.90 49.00Q53.90 55.80 51.90 60.00Q49.90 64.20 46.45 66.05Q43 67.90 38.70 67.90ZM79.10 89.60L78.10 89.60Q71.40 89.60 68.20 86.60L68.20 86.60Q66.50 85.00 65.60 82.50Q64.70 80 64.70 75.80L64.70 75.80L64.70 29.30L70 30.10L70 75.50Q70 78.70 70.55 80.35Q71.10 82.00 72.20 82.90L72.20 82.90Q73.40 84.10 75.40 84.35Q77.40 84.60 79.60 84.60L79.60 84.60L79.10 89.60ZM104.20 89.60L103.20 89.60Q96.60 89.60 93.30 86.60L93.30 86.60Q91.50 85.00 90.65 82.50Q89.80 80 89.80 75.80L89.80 75.80L89.80 29.30L95.10 30.00L95.10 75.50Q95.10 78.80 95.60 80.40Q96.10 82.00 97.40 83.00L97.40 83.00Q98.60 84.10 100.45 84.35Q102.30 84.60 104.70 84.60L104.70 84.60L104.20 89.60ZM94.70 25.50L90.30 25.50Q88.40 17.70 86.55 13.15Q84.70 8.60 82.25 6.70Q79.80 4.80 76.00 4.80L76.00 4.80Q74.80 4.80 73.45 5Q72.10 5.20 70.60 5.70L70.60 5.70L69.10 1.10Q71.00 0.50 72.80 0.25Q74.60 0 76.30 0L76.30 0Q80.90 0 84.25 2.25Q87.60 4.50 90.10 10.05Q92.60 15.60 94.70 25.50L94.70 25.50ZM89.40 23.70L86.60 26.60Q80.50 21.20 76.30 18.85Q72.10 16.50 67.20 16.50L67.20 16.50Q63.70 16.50 60.80 17.40L60.80 17.40L59.30 12.70Q61.10 12.30 63.05 12Q65 11.70 67.20 11.70L67.20 11.70Q71.00 11.70 74.35 12.90Q77.70 14.10 81.25 16.75Q84.80 19.40 89.40 23.70L89.40 23.70Z"/></svg>