<?xml version="1.0" encoding="UTF-8" standalone="no"?>
<svg
   width="60.799999"
   height="60.299999"
   version="1.1"
   id="svg2394"
   sodipodi:docname="0_g.svg"
   inkscape:version="1.2.1 (9c6d41e410, 2022-07-14)"
   xmlns:inkscape="http://www.inkscape.org/namespaces/inkscape"
   xmlns:sodipodi="http://sodipodi.sourceforge.net/DTD/sodipodi-0.dtd"
   xmlns="http://www.w3.org/2000/svg"
   xmlns:svg="http://www.w3.org/2000/svg">
  <defs
     id="defs2398" />
  <sodipodi:namedview
     id="namedview2396"
     pagecolor="#ffffff"
     bordercolor="#666666"
     borderopacity="1.0"
     inkscape:showpageshadow="2"
     inkscape:pageopacity="0.0"
     inkscape:pagecheckerboard="0"
     inkscape:deskcolor="#d1d1d1"
     showgrid="false"
     inkscape:zoom="11.313709"
     inkscape:cx="7.9107568"
     inkscape:cy="27.488775"
     inkscape:window-width="1920"
     inkscape:window-height="1027"
     inkscape:window-x="-8"
     inkscape:window-y="-8"
     inkscape:window-maximized="1"
     inkscape:current-layer="svg2394" />
  <path
     d="m 19.1,41.7 v 0 q -5.6,0 -10.3,-3 -4.7,-3 -8.8,-9.4 v 0 l 4.4,-2.9 q 3.3,5.3 6.65,7.85 3.35,2.55 7.85,2.55 v 0 q 11,0 11,-15.2 v 0 Q 29.9,13.5 26.8,9.25 23.7,5 17.2,5 V 5 Q 14.2,5 11.35,5.75 8.5,6.5 6.1,7.7 v 0 L 4.3,3 Q 10.8,0 17.4,0 V 0 Q 26,0 30.65,5.65 35.3,11.3 35.3,21.7 v 0 q 0,7.2 -2.1,11.6 -2.1,4.4 -5.75,6.4 -3.65,2 -8.35,2 z m 41.2,18.6 h -1 q -6.7,0 -9.9,-3 v 0 Q 47.6,55.7 46.75,53.2 45.9,50.7 45.9,46.5 v 0 V 0 l 5.3,0.8 v 45.4 q 0,3.2 0.5,4.85 0.5,1.65 1.7,2.55 v 0 q 1.2,1.2 3.15,1.45 1.95,0.25 4.25,0.25 v 0 z"
     id="path2392"
     style="display:inline"
     inkscape:label="p1" />
  <path
     style="fill:none;stroke:#000000;stroke-width:1px;stroke-linecap:butt;stroke-linejoin:miter;stroke-opacity:1"
     d="M 5.1110167,5.3786544 C 7.9569982,4.4053666 10.729974,3.1187655 13.74917,2.7709717 c 3.864238,-0.5759492 8.035432,-0.3555143 11.482924,1.6478216 2.778957,1.565769 4.725982,4.3013607 5.816921,7.2558397 1.688958,4.683367 1.807164,9.780359 1.292464,14.685749 -0.511794,3.880063 -1.96099,7.9325 -5.153904,10.399892 -3.880399,2.819337 -9.169193,3.093213 -13.618228,1.593214 C 9.7051937,37.026498 6.7204676,34.011429 4.3615124,30.780452 3.6113031,29.765314 2.8610937,28.750175 2.1108844,27.735036"
     id="path2467"
     inkscape:label="s1" />
  <path
     style="fill:none;stroke:#000000;stroke-width:1px;stroke-linecap:butt;stroke-linejoin:miter;stroke-opacity:1"
     d="m 48.503106,0 c 0.03622,15.932961 0.01451,31.866641 0.087,47.799152 0.08139,2.829987 0.551096,5.907864 3.058307,7.861004 2.155272,1.77675 5.069622,2.004882 7.762579,2.043097 l 1.381953,0.06237"
     id="path2469"
     sodipodi:nodetypes="ccccc"
     inkscape:label="s2" />
</svg>
