<?xml version="1.0" encoding="UTF-8" standalone="no"?>
<svg
   width="60.799999"
   height="80.199997"
   version="1.1"
   id="svg1040"
   sodipodi:docname="10_gam.svg"
   inkscape:version="1.2.1 (9c6d41e410, 2022-07-14)"
   xmlns:inkscape="http://www.inkscape.org/namespaces/inkscape"
   xmlns:sodipodi="http://sodipodi.sourceforge.net/DTD/sodipodi-0.dtd"
   xmlns="http://www.w3.org/2000/svg"
   xmlns:svg="http://www.w3.org/2000/svg">
  <defs
     id="defs1044" />
  <sodipodi:namedview
     id="namedview1042"
     pagecolor="#ffffff"
     bordercolor="#666666"
     borderopacity="1.0"
     inkscape:showpageshadow="2"
     inkscape:pageopacity="0.0"
     inkscape:pagecheckerboard="0"
     inkscape:deskcolor="#d1d1d1"
     showgrid="false"
     inkscape:zoom="5.6568543"
     inkscape:cx="28.637825"
     inkscape:cy="40.12831"
     inkscape:window-width="1920"
     inkscape:window-height="1027"
     inkscape:window-x="-8"
     inkscape:window-y="-8"
     inkscape:window-maximized="1"
     inkscape:current-layer="svg1040" />
  <g
     id="g1100"
     inkscape:label="g1"
     transform="matrix(0.9997453,0,0,1,0,19.901137)">
    <path
       id="path1096"
       style="display:inline;stroke-width:1.00013"
       inkscape:label="p1"
       d="m 60.315362,60.298863 h -1.000254 q -6.701707,0 -9.902523,-3 v 0 q -1.800458,-1.6 -2.650675,-4.1 -0.850216,-2.5 -0.850216,-6.7 v 0 -46.49999963 l 5.30135,0.8 V 46.198863 q 0,3.2 0.500127,4.85 0.500128,1.65 1.700433,2.55 v 0 q 1.200306,1.2 3.150803,1.45 1.950497,0.25 4.251083,0.25 v 0 z m -41.210496,-18.6 v 0 q -5.601427,0 -10.3026241,-3 -4.7011974,-3 -8.8022419,-9.4 v 0 l 4.401121,-2.9 q 3.3008407,5.3 6.651694,7.85 3.350854,2.55 7.852,2.55 v 0 q 11.002802,0 11.002802,-15.2 v 0 q 0,-8.1 -3.100789,-12.3499996 -3.10079,-4.25 -9.602446,-4.25 v 0 q -3.000764,0 -5.85149,0.75 -2.8507265,0.75 -5.2513379,1.95 v 0 l -1.8004586,-4.7 Q 10.802751,-0.00113663 17.404433,-0.00113663 v 0 q 8.602191,0 13.253376,5.65000003 4.651184,5.6499996 4.651184,16.0499996 v 0 q 0,7.2 -2.100535,11.6 -2.100535,4.4 -5.751465,6.4 -3.65093,2 -8.352127,2 z" />
    <path
       style="fill:none;stroke:#000000;stroke-width:1px;stroke-linecap:butt;stroke-linejoin:miter;stroke-opacity:1"
       d="M 5.1110167,5.3786544 C 7.9569982,4.4053666 10.729974,3.1187655 13.74917,2.7709717 c 3.864238,-0.5759492 8.035432,-0.3555143 11.482924,1.6478216 2.778957,1.565769 4.725982,4.3013607 5.816921,7.2558397 1.688958,4.683367 1.807164,9.780359 1.292464,14.685749 -0.511794,3.880063 -1.96099,7.9325 -5.153904,10.399892 -3.880399,2.819337 -9.169193,3.093213 -13.618228,1.593214 C 9.7051937,37.026498 6.7204676,34.011429 4.3615124,30.780452 3.6113031,29.765314 2.8610937,28.750175 2.1108844,27.735036"
       id="path2467-9"
       inkscape:label="s1" />
    <path
       style="fill:none;stroke:#000000;stroke-width:1px;stroke-linecap:butt;stroke-linejoin:miter;stroke-opacity:1"
       d="m 48.503106,0 c 0.03622,15.932961 0.01451,31.866641 0.087,47.799152 0.08139,2.829987 0.551096,5.907864 3.058307,7.861004 2.155272,1.77675 5.069622,2.004882 7.762579,2.043097 l 1.381953,0.06237"
       id="path2469-4"
       sodipodi:nodetypes="ccccc"
       inkscape:label="s2" />
  </g>
  <g
     id="g653"
     inkscape:label="g2"
     transform="translate(14.7)">
    <path
       style="display:inline"
       d="m 33.9,9.7 v 0 Q 32.1,9.7 30.85,8.4 29.6,7.1 29.6,4.8 v 0 Q 29.6,2.6 30.8,1.3 32,0 33.9,0 v 0 q 1.9,0 3.1,1.3 1.2,1.3 1.2,3.5 v 0 q 0,2.4 -1.25,3.65 Q 35.7,9.7 33.9,9.7 Z"
       id="path644"
       inkscape:label="p3" />
    <path
       d="m 33.9375,1.3352194 c -0.820403,0 -1.515467,0.3118012 -2.085191,0.9354043 -0.569724,0.6236031 -0.854587,1.7074649 -0.854587,2.5903504 0,1.0553281 0.273468,1.8947931 0.820403,2.5183962 0.546936,0.6236031 1.347168,0.9354042 2.119375,0.9354042 0.865981,0 1.572439,-0.3118011 2.119375,-0.9354042 0.546935,-0.6236031 0.820403,-1.5977735 0.820403,-2.5183962 0,-1.1512668 -0.284863,-2.0267096 -0.854587,-2.6263275 C 35.452967,1.6350287 34.757903,1.3352194 33.9375,1.3352194 Z"
       style="display:inline;stroke-width:0.701376"
       id="path950"
       sodipodi:nodetypes="sssssssss"
       inkscape:label="s3" />
  </g>
</svg>
