<svg xmlns="http://www.w3.org/2000/svg" xmlns:xlink="http://www.w3.org/1999/xlink" width="84.80000000000001" height="130.4"><path d="M20.20 71L20.20 71Q14.60 71 9.90 68Q5.20 65 1.10 58.60L1.10 58.60L5.50 55.70Q8.80 61.00 12.15 63.55Q15.50 66.10 20 66.10L20 66.10Q31 66.10 31 50.90L31 50.90Q31 42.80 27.90 38.55Q24.80 34.30 18.30 34.30L18.30 34.30Q15.30 34.30 12.45 35.05Q9.60 35.80 7.20 37.00L7.20 37.00L5.40 32.30Q11.90 29.30 18.50 29.30L18.50 29.30Q27.10 29.30 31.75 34.95Q36.40 40.60 36.40 51.00L36.40 51.00Q36.40 58.20 34.30 62.60Q32.20 67 28.55 69Q24.90 71 20.20 71ZM61.40 89.60L60.40 89.60Q53.70 89.60 50.50 86.60L50.50 86.60Q48.70 85.00 47.85 82.50Q47 80 47 75.80L47 75.80L47 29.30L52.30 30.10L52.30 75.50Q52.30 78.70 52.80 80.35Q53.30 82.00 54.50 82.90L54.50 82.90Q55.70 84.10 57.65 84.35Q59.60 84.60 61.90 84.60L61.90 84.60L61.40 89.60ZM73.60 51.30L73.60 51.30Q71.80 51.30 70.40 49.95Q69 48.60 69 46.20L69 46.20Q69 43.80 70.35 42.45Q71.70 41.10 73.60 41.10L73.60 41.10Q75.60 41.10 76.90 42.45Q78.20 43.80 78.20 46.20L78.20 46.20Q78.20 48.70 76.85 50.00Q75.50 51.30 73.60 51.30ZM73.60 84.60L73.60 84.60Q71.80 84.60 70.40 83.25Q69 81.90 69 79.50L69 79.50Q69 77.10 70.35 75.75Q71.70 74.40 73.60 74.40L73.60 74.40Q75.60 74.40 76.90 75.75Q78.20 77.10 78.20 79.50L78.20 79.50Q78.20 82.00 76.85 83.30Q75.50 84.60 73.60 84.60Z"/></svg>