<?xml version="1.0" encoding="UTF-8" standalone="no"?>
<svg
   width="85.900002"
   height="60.299999"
   version="1.1"
   id="svg792"
   sodipodi:docname="1_ga.svg"
   inkscape:version="1.2.1 (9c6d41e410, 2022-07-14)"
   xmlns:inkscape="http://www.inkscape.org/namespaces/inkscape"
   xmlns:sodipodi="http://sodipodi.sourceforge.net/DTD/sodipodi-0.dtd"
   xmlns="http://www.w3.org/2000/svg"
   xmlns:svg="http://www.w3.org/2000/svg">
  <defs
     id="defs796" />
  <sodipodi:namedview
     id="namedview794"
     pagecolor="#ffffff"
     bordercolor="#666666"
     borderopacity="1.0"
     inkscape:showpageshadow="2"
     inkscape:pageopacity="0.0"
     inkscape:pagecheckerboard="0"
     inkscape:deskcolor="#d1d1d1"
     showgrid="false"
     inkscape:zoom="8"
     inkscape:cx="51.5625"
     inkscape:cy="20.375"
     inkscape:window-width="1920"
     inkscape:window-height="1027"
     inkscape:window-x="-8"
     inkscape:window-y="-8"
     inkscape:window-maximized="1"
     inkscape:current-layer="svg792" />
  <g
     id="g77"
     inkscape:label="g1">
    <path
       d="m 19.1,41.7 v 0 q -5.6,0 -10.3,-3 -4.7,-3 -8.8,-9.4 v 0 l 4.4,-2.9 q 3.3,5.3 6.65,7.85 3.35,2.55 7.85,2.55 v 0 q 11,0 11,-15.2 v 0 Q 29.9,13.5 26.8,9.25 23.7,5 17.2,5 V 5 Q 14.2,5 11.35,5.75 8.5,6.5 6.1,7.7 v 0 L 4.3,3 Q 10.8,0 17.4,0 V 0 Q 26,0 30.65,5.65 35.3,11.3 35.3,21.7 v 0 q 0,7.2 -2.1,11.6 -2.1,4.4 -5.75,6.4 -3.65,2 -8.35,2 z"
       id="path790"
       inkscape:label="p1" />
    <path
       style="display:inline;fill:none;stroke:#000000;stroke-width:1px;stroke-linecap:butt;stroke-linejoin:miter;stroke-opacity:1"
       d="m 5.1112489,5.3785082 c 2.84598,-0.973287 5.6189501,-2.259889 8.6381501,-2.607682 3.86424,-0.57595 8.03543,-0.355515 11.48292,1.647821 2.77896,1.565769 4.72599,4.301361 5.81692,7.2558398 1.68896,4.683367 1.80717,9.780359 1.29247,14.685749 -0.5118,3.880063 -1.96099,7.9325 -5.15391,10.399892 -3.88039,2.819337 -9.16919,3.093213 -13.61822,1.593214 -3.8641601,-1.32699 -6.8488801,-4.342059 -9.2078401,-7.573036 -0.75021,-1.015138 -1.50042,-2.030277 -2.25063,-3.045416"
       id="path2467"
       inkscape:label="s1" />
  </g>
  <g
     id="g81"
     inkscape:label="g2">
    <path
       d="m 60.3,60.3 h -1 q -6.7,0 -9.9,-3 v 0 Q 47.6,55.7 46.75,53.2 45.9,50.7 45.9,46.5 v 0 V 0 l 5.3,0.8 v 45.4 q 0,3.2 0.5,4.85 0.5,1.65 1.7,2.55 v 0 q 1.2,1.2 3.15,1.45 1.95,0.25 4.25,0.25 v 0 z"
       id="path20"
       inkscape:label="p2" />
    <path
       style="fill:none;stroke:#000000;stroke-width:1px;stroke-linecap:butt;stroke-linejoin:miter;stroke-opacity:1"
       d="M 48.503339,-1.4583678e-4 C 48.539539,15.932815 48.517839,31.866495 48.590339,47.799008 c 0.0814,2.82998 0.55109,5.90786 3.0583,7.861 2.15527,1.77675 5.06962,2.00488 7.76258,2.0431 l 1.38196,0.0624"
       id="path2469"
       sodipodi:nodetypes="ccccc"
       inkscape:label="s2" />
  </g>
  <g
     id="g86"
     inkscape:label="g3">
    <path
       style="display:inline;fill:none;stroke:#000000;stroke-width:1px;stroke-linecap:butt;stroke-linejoin:miter;stroke-opacity:1"
       d="m 73.658877,0.03125 c 0.0052,15.660703 -0.0419,31.322813 -0.004,46.982637 0.07316,2.661925 0.300704,5.531206 2.06529,7.674603 1.94562,2.285428 5.076187,2.956219 7.950186,3.001875 0.734456,0.05113 1.468913,0.102253 2.203369,0.15338"
       id="path81"
       inkscape:label="s3" />
    <path
       d="m 85.4,60.3 h -1 q -6.6,0 -9.9,-3 v 0 Q 72.7,55.7 71.85,53.2 71,50.7 71,46.5 v 0 V 0 l 5.3,0.7 v 45.5 q 0,3.3 0.5,4.9 0.5,1.6 1.8,2.6 v 0 q 1.2,1.1 3.05,1.35 1.85,0.25 4.25,0.25 v 0 z"
       id="path22"
       inkscape:label="p3"
       style="display:inline" />
  </g>
</svg>
