<?xml version="1.0" encoding="UTF-8" standalone="no"?>
<svg
   width="77.300003"
   height="89"
   version="1.1"
   id="svg472"
   sodipodi:docname="2_gi.svg"
   inkscape:version="1.2.1 (9c6d41e410, 2022-07-14)"
   xmlns:inkscape="http://www.inkscape.org/namespaces/inkscape"
   xmlns:sodipodi="http://sodipodi.sourceforge.net/DTD/sodipodi-0.dtd"
   xmlns="http://www.w3.org/2000/svg"
   xmlns:svg="http://www.w3.org/2000/svg">
  <defs
     id="defs476" />
  <sodipodi:namedview
     id="namedview474"
     pagecolor="#ffffff"
     bordercolor="#666666"
     borderopacity="1.0"
     inkscape:showpageshadow="2"
     inkscape:pageopacity="0.0"
     inkscape:pagecheckerboard="0"
     inkscape:deskcolor="#d1d1d1"
     showgrid="false"
     inkscape:zoom="5.1189328"
     inkscape:cx="29.205306"
     inkscape:cy="55.480314"
     inkscape:window-width="1920"
     inkscape:window-height="1027"
     inkscape:window-x="-8"
     inkscape:window-y="-8"
     inkscape:window-maximized="1"
     inkscape:current-layer="svg472" />
  <g
     id="g169"
     inkscape:label="g1">
    <path
       d="m 35.6,70.4 v 0 q -5.6,0 -10.3,-3 -4.7,-3 -8.8,-9.4 v 0 l 4.4,-2.9 q 3.3,5.3 6.65,7.85 3.35,2.55 7.85,2.55 v 0 q 11,0 11,-15.2 v 0 q 0,-8.1 -3.1,-12.35 -3.1,-4.25 -9.6,-4.25 v 0 q -3,0 -5.85,0.75 Q 25,35.2 22.6,36.4 v 0 l -1.8,-4.7 q 6.5,-3 13.1,-3 v 0 q 8.6,0 13.25,5.65 Q 51.8,40 51.8,50.4 v 0 q 0,7.2 -2.1,11.6 -2.1,4.4 -5.75,6.4 -3.65,2 -8.35,2 z"
       id="path163"
       inkscape:label="p1" />
    <path
       style="fill:none;stroke:#000000;stroke-width:1px;stroke-linecap:butt;stroke-linejoin:miter;stroke-opacity:1"
       d="m 21.611241,34.078539 c 2.845982,-0.973287 5.618958,-2.259889 8.638154,-2.607682 3.864238,-0.57595 8.035432,-0.355515 11.482924,1.647821 2.778957,1.565769 4.725982,4.301361 5.816921,7.25584 1.688958,4.683367 1.807164,9.780359 1.292464,14.685749 -0.511794,3.880063 -1.96099,7.9325 -5.153904,10.399892 -3.880399,2.819337 -9.169193,3.093213 -13.618228,1.593214 -3.864154,-1.32699 -6.84888,-4.342059 -9.207835,-7.573036 -0.750209,-1.015138 -1.500419,-2.030277 -2.250628,-3.045416"
       id="path2467"
       inkscape:label="s1" />
  </g>
  <g
     id="g173"
     inkscape:label="g2">
    <path
       d="m 76.8,89 h -1 q -6.7,0 -9.9,-3 v 0 Q 64.1,84.4 63.25,81.9 62.4,79.4 62.4,75.2 v 0 -46.5 l 5.3,0.8 v 45.4 q 0,3.2 0.5,4.85 0.5,1.65 1.7,2.55 v 0 q 1.2,1.2 3.15,1.45 Q 75,84 77.3,84 v 0 z"
       id="path165"
       inkscape:label="p2" />
    <path
       style="fill:none;stroke:#000000;stroke-width:1px;stroke-linecap:butt;stroke-linejoin:miter;stroke-opacity:1"
       d="m 65.003331,28.699885 c 0.03622,15.932961 0.01451,31.866641 0.087,47.799152 0.08139,2.829987 0.551096,5.907864 3.058307,7.861004 2.155272,1.77675 5.069622,2.004882 7.762579,2.043097 l 1.381953,0.06237"
       id="path2469"
       sodipodi:nodetypes="ccccc"
       inkscape:label="s2" />
  </g>
  <g
     id="g177"
     inkscape:label="g3">
    <path
       d="M 14.3,89 H 13.4 Q 10.3,89 7.8,88.35 5.3,87.7 3.5,86 v 0 Q 1.6,84.3 0.8,81.8 0,79.3 0,75.2 v 0 -53.4 Q 0,15.2 1.35,11.1 2.7,7 6.1,4.1 v 0 Q 8.3,2.2 11.45,1.1 14.6,0 18.7,0 V 0 Q 27.8,0 35.05,5.25 42.3,10.5 49.6,19 v 0 l -3.9,3.1 Q 39.3,14.5 32.95,9.7 26.6,4.9 19,4.9 v 0 q -5.9,0 -9.3,2.9 v 0 q -2.4,2.1 -3.4,5.6 -1,3.5 -1,10.1 v 0 51.4 q 0,3.2 0.5,4.85 0.5,1.65 1.7,2.55 v 0 q 1.2,1.2 3.15,1.45 Q 12.6,84 14.9,84 v 0 z"
       id="path467"
       inkscape:label="p3" />
    <path
       style="display:inline;fill:none;stroke:#000000;stroke-width:1px;stroke-linecap:butt;stroke-linejoin:miter;stroke-opacity:1"
       d="M 47.669012,20.721557 C 42.928807,15.152784 37.78864,9.7425188 31.5518,5.8389098 25.573016,2.3313808 17.942309,1.3117248 11.400707,3.7924578 7.1154666,5.5280138 4.0738036,9.6210528 3.3857816,14.160766 c -1.105469,5.636688 -0.493131,11.409841 -0.658479,17.113459 0.01715,15.362435 -0.08206,30.727062 0.0081,46.088122 0.131975,2.783277 1.010915,5.743283 3.469681,7.348393 2.457118,1.86962 5.6943634,1.5403 8.5928214,1.74146"
       id="path491"
       inkscape:label="s3" />
  </g>
</svg>
