<svg xmlns="http://www.w3.org/2000/svg" xmlns:xlink="http://www.w3.org/1999/xlink" width="87.5" height="130.4"><path d="M24 89.60L23.10 89.60Q20 89.60 17.50 88.95Q15 88.30 13.20 86.60L13.20 86.60Q11.30 84.90 10.50 82.40Q9.70 79.90 9.70 75.80L9.70 75.80L9.70 22.40Q9.70 15.80 11.05 11.70Q12.40 7.60 15.80 4.70L15.80 4.70Q18 2.80 21.15 1.70Q24.30 0.60 28.40 0.60L28.40 0.60Q37.50 0.60 44.75 5.85Q52 11.10 59.30 19.60L59.30 19.60L55.40 22.70Q49 15.10 42.65 10.30Q36.30 5.50 28.70 5.50L28.70 5.50Q22.80 5.50 19.40 8.40L19.40 8.40Q17 10.50 16 14Q15 17.50 15 24.10L15 24.10L15 75.50Q15 78.70 15.50 80.35Q16 82.00 17.20 82.90L17.20 82.90Q18.40 84.10 20.35 84.35Q22.30 84.60 24.60 84.60L24.60 84.60L24 89.60ZM45.30 71L45.30 71Q39.70 71 35 68Q30.30 65 26.20 58.60L26.20 58.60L30.60 55.70Q33.90 61.00 37.25 63.55Q40.60 66.10 45.10 66.10L45.10 66.10Q56.10 66.10 56.10 50.90L56.10 50.90Q56.10 42.80 53 38.55Q49.90 34.30 43.40 34.30L43.40 34.30Q40.40 34.30 37.55 35.05Q34.70 35.80 32.30 37.00L32.30 37.00L30.50 32.30Q37 29.30 43.60 29.30L43.60 29.30Q52.20 29.30 56.85 34.95Q61.50 40.60 61.50 51.00L61.50 51.00Q61.50 58.20 59.40 62.60Q57.30 67 53.65 69Q50 71 45.30 71ZM86.50 89.60L85.50 89.60Q78.80 89.60 75.60 86.60L75.60 86.60Q73.80 85.00 72.95 82.50Q72.10 80 72.10 75.80L72.10 75.80L72.10 29.30L77.40 30.10L77.40 75.50Q77.40 78.70 77.90 80.35Q78.40 82.00 79.60 82.90L79.60 82.90Q80.80 84.10 82.75 84.35Q84.70 84.60 87 84.60L87 84.60L86.50 89.60Z"/></svg>