<?xml version="1.0" encoding="UTF-8" standalone="no"?>
<svg
   width="77.300003"
   height="89"
   version="1.1"
   id="svg472"
   sodipodi:docname="2_gi.svg"
   inkscape:version="1.2.1 (9c6d41e410, 2022-07-14)"
   xmlns:inkscape="http://www.inkscape.org/namespaces/inkscape"
   xmlns:sodipodi="http://sodipodi.sourceforge.net/DTD/sodipodi-0.dtd"
   xmlns="http://www.w3.org/2000/svg"
   xmlns:svg="http://www.w3.org/2000/svg">
  <defs
     id="defs476" />
  <sodipodi:namedview
     id="namedview474"
     pagecolor="#ffffff"
     bordercolor="#666666"
     borderopacity="1.0"
     inkscape:showpageshadow="2"
     inkscape:pageopacity="0.0"
     inkscape:pagecheckerboard="0"
     inkscape:deskcolor="#d1d1d1"
     showgrid="false"
     inkscape:zoom="5.1189328"
     inkscape:cx="29.302983"
     inkscape:cy="55.480314"
     inkscape:window-width="1920"
     inkscape:window-height="1027"
     inkscape:window-x="-8"
     inkscape:window-y="-8"
     inkscape:window-maximized="1"
     inkscape:current-layer="svg472" />
  <g
     id="g1100"
     inkscape:label="g1"
     transform="matrix(0.9997453,0,0,1,16.5,28.701137)">
    <path
       id="path1096"
       style="display:inline;stroke-width:1.00013"
       inkscape:label="p1"
       d="m 60.315362,60.298863 h -1.000254 q -6.701707,0 -9.902523,-3 v 0 q -1.800458,-1.6 -2.650675,-4.1 -0.850216,-2.5 -0.850216,-6.7 v 0 -46.49999963 l 5.30135,0.8 V 46.198863 q 0,3.2 0.500127,4.85 0.500128,1.65 1.700433,2.55 v 0 q 1.200306,1.2 3.150803,1.45 1.950497,0.25 4.251083,0.25 v 0 z m -41.210496,-18.6 v 0 q -5.601427,0 -10.3026241,-3 -4.7011974,-3 -8.8022419,-9.4 v 0 l 4.401121,-2.9 q 3.3008407,5.3 6.651694,7.85 3.350854,2.55 7.852,2.55 v 0 q 11.002802,0 11.002802,-15.2 v 0 q 0,-8.1 -3.100789,-12.3499996 -3.10079,-4.25 -9.602446,-4.25 v 0 q -3.000764,0 -5.85149,0.75 -2.8507265,0.75 -5.2513379,1.95 v 0 l -1.8004586,-4.7 Q 10.802751,-0.00113663 17.404433,-0.00113663 v 0 q 8.602191,0 13.253376,5.65000003 4.651184,5.6499996 4.651184,16.0499996 v 0 q 0,7.2 -2.100535,11.6 -2.100535,4.4 -5.751465,6.4 -3.65093,2 -8.352127,2 z" />
    <path
       style="fill:none;stroke:#000000;stroke-width:1px;stroke-linecap:butt;stroke-linejoin:miter;stroke-opacity:1"
       d="M 5.1110167,5.3786544 C 7.9569982,4.4053666 10.729974,3.1187655 13.74917,2.7709717 c 3.864238,-0.5759492 8.035432,-0.3555143 11.482924,1.6478216 2.778957,1.565769 4.725982,4.3013607 5.816921,7.2558397 1.688958,4.683367 1.807164,9.780359 1.292464,14.685749 -0.511794,3.880063 -1.96099,7.9325 -5.153904,10.399892 -3.880399,2.819337 -9.169193,3.093213 -13.618228,1.593214 C 9.7051937,37.026498 6.7204676,34.011429 4.3615124,30.780452 3.6113031,29.765314 2.8610937,28.750175 2.1108844,27.735036"
       id="path2467-3"
       inkscape:label="s1" />
    <path
       style="fill:none;stroke:#000000;stroke-width:1px;stroke-linecap:butt;stroke-linejoin:miter;stroke-opacity:1"
       d="m 48.503106,0 c 0.03622,15.932961 0.01451,31.866641 0.087,47.799152 0.08139,2.829987 0.551096,5.907864 3.058307,7.861004 2.155272,1.77675 5.069622,2.004882 7.762579,2.043097 l 1.381953,0.06237"
       id="path2469-0"
       sodipodi:nodetypes="ccccc"
       inkscape:label="s2" />
  </g>
  <g
     id="g177"
     inkscape:label="g3">
    <path
       d="M 14.3,89 H 13.4 Q 10.3,89 7.8,88.35 5.3,87.7 3.5,86 v 0 Q 1.6,84.3 0.8,81.8 0,79.3 0,75.2 v 0 -53.4 Q 0,15.2 1.35,11.1 2.7,7 6.1,4.1 v 0 Q 8.3,2.2 11.45,1.1 14.6,0 18.7,0 V 0 Q 27.8,0 35.05,5.25 42.3,10.5 49.6,19 v 0 l -3.9,3.1 Q 39.3,14.5 32.95,9.7 26.6,4.9 19,4.9 v 0 q -5.9,0 -9.3,2.9 v 0 q -2.4,2.1 -3.4,5.6 -1,3.5 -1,10.1 v 0 51.4 q 0,3.2 0.5,4.85 0.5,1.65 1.7,2.55 v 0 q 1.2,1.2 3.15,1.45 Q 12.6,84 14.9,84 v 0 z"
       id="path467"
       inkscape:label="p2" />
    <path
       style="display:inline;fill:none;stroke:#000000;stroke-width:1px;stroke-linecap:butt;stroke-linejoin:miter;stroke-opacity:1"
       d="M 47.669012,20.721557 C 42.928807,15.152784 37.78864,9.7425188 31.5518,5.8389098 25.573016,2.3313808 17.942309,1.3117248 11.400707,3.7924578 7.1154666,5.5280138 4.0738036,9.6210528 3.3857816,14.160766 c -1.105469,5.636688 -0.493131,11.409841 -0.658479,17.113459 0.01715,15.362435 -0.08206,30.727062 0.0081,46.088122 0.131975,2.783277 1.010915,5.743283 3.469681,7.348393 2.457118,1.86962 5.6943634,1.5403 8.5928214,1.74146"
       id="path491"
       inkscape:label="s3" />
  </g>
</svg>
