<?xml version="1.0" encoding="UTF-8" standalone="no"?>
<svg
   width="85.900002"
   height="89"
   version="1.1"
   id="svg605"
   sodipodi:docname="3_gee.svg"
   inkscape:version="1.2.1 (9c6d41e410, 2022-07-14)"
   xmlns:inkscape="http://www.inkscape.org/namespaces/inkscape"
   xmlns:sodipodi="http://sodipodi.sourceforge.net/DTD/sodipodi-0.dtd"
   xmlns="http://www.w3.org/2000/svg"
   xmlns:svg="http://www.w3.org/2000/svg">
  <defs
     id="defs609" />
  <sodipodi:namedview
     id="namedview607"
     pagecolor="#ffffff"
     bordercolor="#666666"
     borderopacity="1.0"
     inkscape:showpageshadow="2"
     inkscape:pageopacity="0.0"
     inkscape:pagecheckerboard="0"
     inkscape:deskcolor="#d1d1d1"
     showgrid="false"
     inkscape:zoom="2.8284271"
     inkscape:cx="23.864854"
     inkscape:cy="77.07464"
     inkscape:window-width="1920"
     inkscape:window-height="1027"
     inkscape:window-x="-8"
     inkscape:window-y="-8"
     inkscape:window-maximized="1"
     inkscape:current-layer="svg605" />
  <g
     id="g206"
     inkscape:label="g1">
    <path
       d="m 19.1,70.4 v 0 q -5.6,0 -10.3,-3 Q 4.1,64.4 0,58 v 0 l 4.4,-2.9 q 3.3,5.3 6.65,7.85 3.35,2.55 7.85,2.55 v 0 q 11,0 11,-15.2 v 0 q 0,-8.1 -3.1,-12.35 -3.1,-4.25 -9.6,-4.25 v 0 q -3,0 -5.85,0.75 Q 8.5,35.2 6.1,36.4 v 0 L 4.3,31.7 q 6.5,-3 13.1,-3 v 0 q 8.6,0 13.25,5.65 Q 35.3,40 35.3,50.4 v 0 q 0,7.2 -2.1,11.6 -2.1,4.4 -5.75,6.4 -3.65,2 -8.35,2 z"
       id="path600"
       inkscape:label="p1" />
    <path
       style="fill:none;stroke:#000000;stroke-width:1px;stroke-linecap:butt;stroke-linejoin:miter;stroke-opacity:1"
       d="m 5.1112415,34.078539 c 2.845981,-0.973287 5.6189575,-2.259889 8.6381535,-2.607682 3.864238,-0.57595 8.035432,-0.355515 11.482924,1.647821 2.778957,1.565769 4.725982,4.301361 5.816921,7.25584 1.688958,4.683367 1.807164,9.780359 1.292464,14.685749 -0.511794,3.880063 -1.96099,7.9325 -5.153904,10.399892 -3.880399,2.819337 -9.169193,3.093213 -13.618228,1.593214 C 9.7054185,65.726383 6.7206925,62.711314 4.3617365,59.480337 3.6115277,58.465199 2.8613183,57.45006 2.111109,56.434921"
       id="path2467"
       inkscape:label="s1" />
  </g>
  <g
     id="g210"
     inkscape:label="g2">
    <path
       d="m 60.3,89 h -1 q -6.7,0 -9.9,-3 v 0 Q 47.6,84.4 46.75,81.9 45.9,79.4 45.9,75.2 v 0 -46.5 l 5.3,0.8 v 45.4 q 0,3.2 0.5,4.85 0.5,1.65 1.7,2.55 v 0 q 1.2,1.2 3.15,1.45 Q 58.5,84 60.8,84 v 0 z"
       id="path200"
       inkscape:label="p2" />
    <path
       style="fill:none;stroke:#000000;stroke-width:1px;stroke-linecap:butt;stroke-linejoin:miter;stroke-opacity:1"
       d="m 48.503331,28.699885 c 0.03622,15.932961 0.01451,31.866641 0.087,47.799152 0.08139,2.829987 0.551096,5.907864 3.058307,7.861004 2.155272,1.77675 5.069622,2.004882 7.762579,2.043097 l 1.381953,0.06237"
       id="path2469"
       sodipodi:nodetypes="ccccc"
       inkscape:label="s2" />
  </g>
  <g
     id="g214"
     inkscape:label="g3">
    <path
       d="m 85.4,89 h -1 q -3,0 -5.55,-0.65 Q 76.3,87.7 74.5,86 v 0 Q 71,82.7 71,75.2 v 0 -46.7 Q 69.6,17.1 66.1,11 62.6,4.9 57.1,4.9 v 0 q -3.6,0 -5.6,2.6 -2,2.6 -2,7.7 v 0 q 0,3.9 0.6,7 v 0 H 45 q -0.3,-1.5 -0.55,-3.6 -0.25,-2.1 -0.25,-4 v 0 Q 44.2,8 47.55,4 50.9,0 57.1,0 V 0 Q 63,0 67,3.95 71,7.9 73.25,14.35 75.5,20.8 76.3,28.2 v 0 46.7 q 0,3.3 0.5,4.85 0.5,1.55 1.7,2.55 v 0 q 1.2,1.2 3.2,1.45 2,0.25 4.2,0.25 v 0 z"
       id="path202"
       inkscape:label="p3" />
    <path
       style="display:inline;fill:none;stroke:#000000;stroke-width:1px;stroke-linecap:butt;stroke-linejoin:miter;stroke-opacity:1"
       d="m 47.611425,22.296224 c -0.717054,-5.049715 -1.596876,-10.626855 1.042088,-15.2919967 2.067513,-3.82245 6.865899,-5.222127 10.922937,-4.303046 5.299598,1.061053 8.634255,5.994456 10.53375,10.6924087 1.94946,4.911209 3.041647,10.154719 3.53254,15.40287 0.03373,16.081561 -0.05668,32.165472 0.05492,48.245568 0.09206,3.485131 1.641413,7.400061 5.196702,8.608731 2.224083,0.86463 4.672997,0.63787 7.006103,0.85642"
       id="path80"
       inkscape:label="s3" />
  </g>
</svg>
