<svg xmlns="http://www.w3.org/2000/svg" xmlns:xlink="http://www.w3.org/1999/xlink" width="87.5" height="130.4"><path d="M20.20 71L20.20 71Q14.60 71 9.90 68Q5.20 65 1.10 58.60L1.10 58.60L5.50 55.70Q8.80 61.00 12.15 63.55Q15.50 66.10 20 66.10L20 66.10Q31 66.10 31 50.90L31 50.90Q31 42.80 27.90 38.55Q24.80 34.30 18.30 34.30L18.30 34.30Q15.30 34.30 12.45 35.05Q9.60 35.80 7.20 37.00L7.20 37.00L5.40 32.30Q11.90 29.30 18.50 29.30L18.50 29.30Q27.10 29.30 31.75 34.95Q36.40 40.60 36.40 51.00L36.40 51.00Q36.40 58.20 34.30 62.60Q32.20 67 28.55 69Q24.90 71 20.20 71ZM61.40 89.60L60.40 89.60Q53.70 89.60 50.50 86.60L50.50 86.60Q48.70 85.00 47.85 82.50Q47 80 47 75.80L47 75.80L47 29.30L52.30 30.10L52.30 75.50Q52.30 78.70 52.80 80.35Q53.30 82.00 54.50 82.90L54.50 82.90Q55.70 84.10 57.65 84.35Q59.60 84.60 61.90 84.60L61.90 84.60L61.40 89.60ZM86.50 89.60L85.50 89.60Q82.50 89.60 79.95 88.95Q77.40 88.30 75.60 86.60L75.60 86.60Q72.10 83.30 72.10 75.80L72.10 75.80L72.10 29.10Q70.70 17.70 67.20 11.60Q63.70 5.50 58.20 5.50L58.20 5.50Q54.60 5.50 52.60 8.10Q50.60 10.70 50.60 15.80L50.60 15.80Q50.60 19.70 51.20 22.80L51.20 22.80L46.10 22.80Q45.80 21.30 45.55 19.20Q45.30 17.10 45.30 15.20L45.30 15.20Q45.30 8.60 48.65 4.60Q52.00 0.60 58.20 0.60L58.20 0.60Q64.10 0.60 68.10 4.55Q72.10 8.50 74.35 14.95Q76.60 21.40 77.40 28.80L77.40 28.80L77.40 75.50Q77.40 78.80 77.90 80.35Q78.40 81.90 79.60 82.90L79.60 82.90Q80.80 84.10 82.80 84.35Q84.80 84.60 87 84.60L87 84.60L86.50 89.60Z"/></svg>