<svg xmlns="http://www.w3.org/2000/svg" xmlns:xlink="http://www.w3.org/1999/xlink" width="62.400000000000006" height="130.4"><path d="M20.20 71L20.20 71Q14.60 71 9.90 68Q5.20 65 1.10 58.60L1.10 58.60L5.50 55.70Q8.80 61.00 12.15 63.55Q15.50 66.10 20 66.10L20 66.10Q31 66.10 31 50.90L31 50.90Q31 42.80 27.90 38.55Q24.80 34.30 18.30 34.30L18.30 34.30Q15.30 34.30 12.45 35.05Q9.60 35.80 7.20 37.00L7.20 37.00L5.40 32.30Q11.90 29.30 18.50 29.30L18.50 29.30Q27.10 29.30 31.75 34.95Q36.40 40.60 36.40 51.00L36.40 51.00Q36.40 58.20 34.30 62.60Q32.20 67 28.55 69Q24.90 71 20.20 71ZM61.40 89.60L60.40 89.60Q53.70 89.60 50.50 86.60L50.50 86.60Q48.70 85.00 47.85 82.50Q47 80 47 75.80L47 75.80L47 29.30L52.30 30.10L52.30 75.50Q52.30 78.70 52.80 80.35Q53.30 82.00 54.50 82.90L54.50 82.90Q55.70 84.10 57.65 84.35Q59.60 84.60 61.90 84.60L61.90 84.60L61.40 89.60ZM46.70 116.30L46.70 116.30Q40.10 116.30 34.95 114.05Q29.80 111.80 25.65 108.00Q21.50 104.20 18 99.40L18 99.40L22.20 96.50Q27.30 103.20 32.90 107.30Q38.50 111.40 46.70 111.40L46.70 111.40Q52.40 111.40 55.40 109.20Q58.40 107.00 58.40 102.70L58.40 102.70Q58.40 98.80 55.80 96.80Q53.20 94.80 48.80 94.80L48.80 94.80Q46.30 94.80 44.10 95.35Q41.90 95.90 39.70 96.80L39.70 96.80L37.90 92.30Q40.50 91.20 43.10 90.65Q45.70 90.10 48.50 90.10L48.50 90.10Q55.60 90.10 59.50 93.65Q63.40 97.20 63.40 103.10L63.40 103.10Q63.40 109.30 58.95 112.80Q54.50 116.30 46.70 116.30Z"/></svg>