<svg xmlns="http://www.w3.org/2000/svg" xmlns:xlink="http://www.w3.org/1999/xlink" width="62.400000000000006" height="130.4"><path d="M20.20 71L20.20 71Q14.60 71 9.90 68Q5.20 65 1.10 58.60L1.10 58.60L5.50 55.70Q8.80 61.00 12.15 63.55Q15.50 66.10 20 66.10L20 66.10Q31 66.10 31 50.90L31 50.90Q31 42.80 27.90 38.55Q24.80 34.30 18.30 34.30L18.30 34.30Q15.30 34.30 12.45 35.05Q9.60 35.80 7.20 37.00L7.20 37.00L5.40 32.30Q11.90 29.30 18.50 29.30L18.50 29.30Q27.10 29.30 31.75 34.95Q36.40 40.60 36.40 51.00L36.40 51.00Q36.40 58.20 34.30 62.60Q32.20 67 28.55 69Q24.90 71 20.20 71ZM61.40 89.60L60.40 89.60Q53.70 89.60 50.50 86.60L50.50 86.60Q48.70 85.00 47.85 82.50Q47 80 47 75.80L47 75.80L47 29.30L52.30 30.10L52.30 75.50Q52.30 78.70 52.80 80.35Q53.30 82.00 54.50 82.90L54.50 82.90Q55.70 84.10 57.65 84.35Q59.60 84.60 61.90 84.60L61.90 84.60L61.40 89.60ZM44.90 116.10L44.90 116.10Q37.80 116.10 33.90 112.50Q30.00 108.90 30.00 103.00L30.00 103.00Q30.00 97.60 34.10 93.85Q38.20 90.10 46.10 90.10L46.10 90.10Q53.40 90.10 58.75 92.85Q64.10 95.60 68.20 99.95Q72.30 104.30 75.70 109.20L75.70 109.20L71.60 111.90Q67.90 106.80 64.25 102.95Q60.60 99.10 56.25 96.95Q51.90 94.80 46.30 94.80L46.30 94.80Q40.50 94.80 37.75 97.15Q35 99.50 35 103.10L35 103.10Q35 107.30 37.70 109.25Q40.40 111.20 44.60 111.20L44.60 111.20Q47.30 111.20 49.55 110.65Q51.80 110.10 54.00 109.10L54.00 109.10L55.70 113.90Q53.10 114.90 50.40 115.50Q47.70 116.10 44.90 116.10Z"/></svg>