<?xml version="1.0" encoding="UTF-8" standalone="no"?>
<svg
   width="60.799999"
   height="89.599998"
   version="1.1"
   id="svg761"
   sodipodi:docname="6_ge.svg"
   inkscape:version="1.2.1 (9c6d41e410, 2022-07-14)"
   xmlns:inkscape="http://www.inkscape.org/namespaces/inkscape"
   xmlns:sodipodi="http://sodipodi.sourceforge.net/DTD/sodipodi-0.dtd"
   xmlns="http://www.w3.org/2000/svg"
   xmlns:svg="http://www.w3.org/2000/svg">
  <defs
     id="defs765" />
  <sodipodi:namedview
     id="namedview763"
     pagecolor="#ffffff"
     bordercolor="#666666"
     borderopacity="1.0"
     inkscape:showpageshadow="2"
     inkscape:pageopacity="0.0"
     inkscape:pagecheckerboard="0"
     inkscape:deskcolor="#d1d1d1"
     showgrid="false"
     inkscape:zoom="10.237865"
     inkscape:cx="30.426266"
     inkscape:cy="48.740631"
     inkscape:window-width="1920"
     inkscape:window-height="1027"
     inkscape:window-x="-8"
     inkscape:window-y="-8"
     inkscape:window-maximized="1"
     inkscape:current-layer="svg761" />
  <g
     id="g469"
     inkscape:label="g1">
    <path
       d="m 19.1,71 v 0 Q 13.5,71 8.8,68 4.1,65 0,58.6 v 0 l 4.4,-2.9 q 3.3,5.3 6.65,7.85 3.35,2.55 7.85,2.55 v 0 q 11,0 11,-15.2 v 0 q 0,-8.1 -3.1,-12.35 -3.1,-4.25 -9.6,-4.25 v 0 q -3,0 -5.85,0.75 Q 8.5,35.8 6.1,37 v 0 L 4.3,32.3 q 6.5,-3 13.1,-3 v 0 q 8.6,0 13.25,5.65 Q 35.3,40.6 35.3,51 v 0 q 0,7.2 -2.1,11.6 -2.1,4.4 -5.75,6.4 -3.65,2 -8.35,2 z"
       id="path756"
       inkscape:label="p1" />
    <path
       style="fill:none;stroke:#000000;stroke-width:1px;stroke-linecap:butt;stroke-linejoin:miter;stroke-opacity:1"
       d="m 5.1112413,34.678538 c 2.8459815,-0.973287 5.6189577,-2.259888 8.6381527,-2.607682 3.864238,-0.57595 8.035432,-0.355515 11.482924,1.647821 2.778957,1.565769 4.725982,4.301361 5.816921,7.25584 1.688958,4.683367 1.807164,9.780359 1.292464,14.685749 -0.511794,3.880063 -1.96099,7.9325 -5.153904,10.399892 C 23.3074,68.879495 18.018606,69.153371 13.569571,67.653372 9.7054183,66.326382 6.7206922,63.311313 4.361737,60.080336 3.6115277,59.065198 2.8613183,58.050059 2.111109,57.03492"
       id="path2467"
       inkscape:label="s1" />
  </g>
  <g
     id="g473"
     inkscape:label="g2">
    <path
       d="m 60.3,89.6 h -1 q -6.7,0 -9.9,-3 v 0 Q 47.6,85 46.75,82.5 45.9,80 45.9,75.8 v 0 -46.5 l 5.3,0.8 v 45.4 q 0,3.2 0.5,4.85 0.5,1.65 1.7,2.55 v 0 q 1.2,1.2 3.15,1.45 1.95,0.25 4.25,0.25 v 0 z"
       id="path463"
       inkscape:label="p2" />
    <path
       style="fill:none;stroke:#000000;stroke-width:1px;stroke-linecap:butt;stroke-linejoin:miter;stroke-opacity:1"
       d="m 48.50333,29.299884 c 0.03622,15.932961 0.01451,31.866641 0.087,47.799152 0.08139,2.829987 0.551096,5.907864 3.058307,7.861004 2.155272,1.77675 5.069622,2.004882 7.762579,2.043097 l 1.381953,0.06237"
       id="path2469"
       sodipodi:nodetypes="ccccc"
       inkscape:label="s2" />
  </g>
  <g
     id="g477"
     inkscape:label="g3">
    <path
       d="M 50.7,25.5 H 45.9 Q 43.7,17.9 41.7,13.4 39.7,8.9 37.15,6.9 34.6,4.9 30.7,4.9 v 0 q -2.8,0 -5.8,0.9 v 0 L 23.3,1.2 Q 25.3,0.6 27.25,0.3 29.2,0 31,0 v 0 q 4.7,0 8.2,2.15 3.5,2.15 6.25,7.65 2.75,5.5 5.25,15.7 z"
       id="path465"
       inkscape:label="p3" />
    <path
       style="display:inline;fill:none;stroke:#000000;stroke-width:1px;stroke-linecap:butt;stroke-linejoin:miter;stroke-opacity:1"
       d="m 23.906946,3.6726502 c 2.689874,-0.601475 5.407439,-1.463833 8.197058,-1.141472 2.933702,0.144461 5.855129,1.354856 7.857702,3.535589 2.358946,2.457583 3.759606,5.6375698 4.974188,8.7751108 1.29204,3.54249 2.32594,7.16808 3.361676,10.791709"
       id="path595"
       inkscape:label="s3" />
  </g>
</svg>
