<svg xmlns="http://www.w3.org/2000/svg" xmlns:xlink="http://www.w3.org/1999/xlink" width="62.400000000000006" height="130.4"><path d="M20.20 71L20.20 71Q14.60 71 9.90 68Q5.20 65 1.10 58.60L1.10 58.60L5.50 55.70Q8.80 61.00 12.15 63.55Q15.50 66.10 20 66.10L20 66.10Q31 66.10 31 50.90L31 50.90Q31 42.80 27.90 38.55Q24.80 34.30 18.30 34.30L18.30 34.30Q15.30 34.30 12.45 35.05Q9.60 35.80 7.20 37.00L7.20 37.00L5.40 32.30Q11.90 29.30 18.50 29.30L18.50 29.30Q27.10 29.30 31.75 34.95Q36.40 40.60 36.40 51.00L36.40 51.00Q36.40 58.20 34.30 62.60Q32.20 67 28.55 69Q24.90 71 20.20 71ZM61.40 89.60L60.40 89.60Q53.70 89.60 50.50 86.60L50.50 86.60Q48.70 85.00 47.85 82.50Q47 80 47 75.80L47 75.80L47 29.30L52.30 30.10L52.30 75.50Q52.30 78.70 52.80 80.35Q53.30 82.00 54.50 82.90L54.50 82.90Q55.70 84.10 57.65 84.35Q59.60 84.60 61.90 84.60L61.90 84.60L61.40 89.60ZM51.80 25.50L47.00 25.50Q44.80 17.90 42.80 13.40Q40.80 8.90 38.25 6.90Q35.70 4.90 31.80 4.90L31.80 4.90Q29.00 4.90 26.00 5.80L26.00 5.80L24.40 1.20Q26.40 0.60 28.35 0.30Q30.30 0 32.10 0L32.10 0Q36.80 0 40.30 2.15Q43.80 4.30 46.55 9.80Q49.30 15.30 51.80 25.50L51.80 25.50Z"/></svg>