<svg xmlns="http://www.w3.org/2000/svg" xmlns:xlink="http://www.w3.org/1999/xlink" width="62.400000000000006" height="130.4"><path d="M20.20 71L20.20 71Q14.60 71 9.90 68Q5.20 65 1.10 58.60L1.10 58.60L5.50 55.70Q8.80 61.00 12.15 63.55Q15.50 66.10 20 66.10L20 66.10Q31 66.10 31 50.90L31 50.90Q31 42.80 27.90 38.55Q24.80 34.30 18.30 34.30L18.30 34.30Q15.30 34.30 12.45 35.05Q9.60 35.80 7.20 37.00L7.20 37.00L5.40 32.30Q11.90 29.30 18.50 29.30L18.50 29.30Q27.10 29.30 31.75 34.95Q36.40 40.60 36.40 51.00L36.40 51.00Q36.40 58.20 34.30 62.60Q32.20 67 28.55 69Q24.90 71 20.20 71ZM61.40 89.60L60.40 89.60Q53.70 89.60 50.50 86.60L50.50 86.60Q48.70 85.00 47.85 82.50Q47 80 47 75.80L47 75.80L47 29.30L52.30 30.10L52.30 75.50Q52.30 78.70 52.80 80.35Q53.30 82.00 54.50 82.90L54.50 82.90Q55.70 84.10 57.65 84.35Q59.60 84.60 61.90 84.60L61.90 84.60L61.40 89.60ZM51.90 25.50L47.50 25.50Q45.60 17.70 43.75 13.15Q41.90 8.60 39.45 6.70Q37 4.80 33.20 4.80L33.20 4.80Q32 4.80 30.65 5Q29.30 5.20 27.80 5.70L27.80 5.70L26.30 1.10Q28.20 0.50 30.00 0.25Q31.80 0 33.50 0L33.50 0Q38.10 0 41.45 2.25Q44.80 4.50 47.30 10.05Q49.80 15.60 51.90 25.50L51.90 25.50ZM46.60 23.70L43.80 26.60Q37.70 21.20 33.50 18.85Q29.30 16.50 24.40 16.50L24.40 16.50Q20.90 16.50 18 17.40L18 17.40L16.50 12.70Q18.30 12.30 20.25 12Q22.20 11.70 24.40 11.70L24.40 11.70Q28.20 11.70 31.55 12.90Q34.90 14.10 38.45 16.75Q42 19.40 46.60 23.70L46.60 23.70Z"/></svg>