<?xml version="1.0" encoding="UTF-8" standalone="no"?>
<svg
   width="60.799999"
   height="89.599998"
   version="1.1"
   id="svg814"
   sodipodi:docname="7_gai.svg"
   inkscape:version="1.2.1 (9c6d41e410, 2022-07-14)"
   xmlns:inkscape="http://www.inkscape.org/namespaces/inkscape"
   xmlns:sodipodi="http://sodipodi.sourceforge.net/DTD/sodipodi-0.dtd"
   xmlns="http://www.w3.org/2000/svg"
   xmlns:svg="http://www.w3.org/2000/svg">
  <defs
     id="defs818" />
  <sodipodi:namedview
     id="namedview816"
     pagecolor="#ffffff"
     bordercolor="#666666"
     borderopacity="1.0"
     inkscape:showpageshadow="2"
     inkscape:pageopacity="0.0"
     inkscape:pagecheckerboard="0"
     inkscape:deskcolor="#d1d1d1"
     showgrid="false"
     inkscape:zoom="5.1189327"
     inkscape:cx="38.875291"
     inkscape:cy="51.182544"
     inkscape:window-width="1920"
     inkscape:window-height="1027"
     inkscape:window-x="-8"
     inkscape:window-y="-8"
     inkscape:window-maximized="1"
     inkscape:current-layer="svg814" />
  <g
     id="g1100"
     inkscape:label="g1"
     transform="matrix(0.9997453,0,0,1,0,29.301137)">
    <path
       id="path1096"
       style="display:inline;stroke-width:1.00013"
       inkscape:label="p1"
       d="m 60.315362,60.298863 h -1.000254 q -6.701707,0 -9.902523,-3 v 0 q -1.800458,-1.6 -2.650675,-4.1 -0.850216,-2.5 -0.850216,-6.7 v 0 -46.49999963 l 5.30135,0.8 V 46.198863 q 0,3.2 0.500127,4.85 0.500128,1.65 1.700433,2.55 v 0 q 1.200306,1.2 3.150803,1.45 1.950497,0.25 4.251083,0.25 v 0 z m -41.210496,-18.6 v 0 q -5.601427,0 -10.3026241,-3 -4.7011974,-3 -8.8022419,-9.4 v 0 l 4.401121,-2.9 q 3.3008407,5.3 6.651694,7.85 3.350854,2.55 7.852,2.55 v 0 q 11.002802,0 11.002802,-15.2 v 0 q 0,-8.1 -3.100789,-12.3499996 -3.10079,-4.25 -9.602446,-4.25 v 0 q -3.000764,0 -5.85149,0.75 -2.8507265,0.75 -5.2513379,1.95 v 0 l -1.8004586,-4.7 Q 10.802751,-0.00113663 17.404433,-0.00113663 v 0 q 8.602191,0 13.253376,5.65000003 4.651184,5.6499996 4.651184,16.0499996 v 0 q 0,7.2 -2.100535,11.6 -2.100535,4.4 -5.751465,6.4 -3.65093,2 -8.352127,2 z" />
    <path
       style="fill:none;stroke:#000000;stroke-width:1px;stroke-linecap:butt;stroke-linejoin:miter;stroke-opacity:1"
       d="M 5.1110167,5.3786544 C 7.9569982,4.4053666 10.729974,3.1187655 13.74917,2.7709717 c 3.864238,-0.5759492 8.035432,-0.3555143 11.482924,1.6478216 2.778957,1.565769 4.725982,4.3013607 5.816921,7.2558397 1.688958,4.683367 1.807164,9.780359 1.292464,14.685749 -0.511794,3.880063 -1.96099,7.9325 -5.153904,10.399892 -3.880399,2.819337 -9.169193,3.093213 -13.618228,1.593214 C 9.7051937,37.026498 6.7204676,34.011429 4.3615124,30.780452 3.6113031,29.765314 2.8610937,28.750175 2.1108844,27.735036"
       id="path2467-0"
       inkscape:label="s1" />
    <path
       style="fill:none;stroke:#000000;stroke-width:1px;stroke-linecap:butt;stroke-linejoin:miter;stroke-opacity:1"
       d="m 48.503106,0 c 0.03622,15.932961 0.01451,31.866641 0.087,47.799152 0.08139,2.829987 0.551096,5.907864 3.058307,7.861004 2.155272,1.77675 5.069622,2.004882 7.762579,2.043097 l 1.381953,0.06237"
       id="path2469-3"
       sodipodi:nodetypes="ccccc"
       inkscape:label="s2" />
  </g>
  <g
     id="g522"
     inkscape:label="g2"
     transform="translate(14.7)">
    <path
       style="display:inline"
       d="M 30.8,23.7 28,26.6 Q 21.9,21.2 17.7,18.85 13.5,16.5 8.6,16.5 v 0 q -3.5,0 -6.4,0.9 v 0 L 0.7,12.7 Q 2.5,12.3 4.45,12 6.4,11.7 8.6,11.7 v 0 q 3.8,0 7.15,1.2 3.35,1.2 6.9,3.85 3.55,2.65 8.15,6.95 z"
       id="path513"
       inkscape:label="p3" />
    <path
       style="display:inline;fill:none;stroke:#000000;stroke-width:1px;stroke-linecap:butt;stroke-linejoin:miter;stroke-opacity:1"
       d="m 1.2484854,15.037068 c 2.0296352,-0.33742 4.0471341,-0.823273 6.106769,-0.926121 1.7144665,-0.03627 3.4419196,-0.0066 5.1213336,0.377952 1.626492,0.286246 3.200444,0.851561 4.696094,1.542318 3.239677,1.543111 6.000222,3.881137 8.751411,6.145612 1.177108,1.030396 2.354216,2.060791 3.531324,3.091187"
       id="path660"
       inkscape:label="s3" />
  </g>
  <g
     id="g526"
     inkscape:label="g3"
     transform="translate(14.7)">
    <path
       style="display:inline"
       d="M 36.1,25.5 H 31.7 Q 29.8,17.7 27.95,13.15 26.1,8.6 23.65,6.7 21.2,4.8 17.4,4.8 v 0 Q 16.2,4.8 14.85,5 13.5,5.2 12,5.7 v 0 L 10.5,1.1 Q 12.4,0.5 14.2,0.25 16,0 17.7,0 v 0 q 4.6,0 7.95,2.25 3.35,2.25 5.85,7.8 2.5,5.55 4.6,15.45 z"
       id="path511"
       inkscape:label="p4" />
    <path
       style="display:inline;fill:none;stroke:#000000;stroke-width:1px;stroke-linecap:butt;stroke-linejoin:miter;stroke-opacity:1"
       d="m 11.023437,3.453125 c 2.182778,-0.4976057 4.36528,-1.1946393 6.631852,-1.0710196 2.053103,-0.044291 4.123749,0.4216957 5.902797,1.4638298 1.290672,0.6572076 2.43165,1.6018918 3.277933,2.7802163 1.787546,2.2624393 2.976329,4.9290225 3.905851,7.6409995 1.112879,3.208175 2.009172,6.487831 2.71558,9.809147 0.117031,0.515091 0.234062,1.030183 0.351093,1.545274"
       id="path662"
       inkscape:label="s4" />
  </g>
</svg>
