<?xml version="1.0" encoding="UTF-8" standalone="no"?>
<svg
   width="60.799999"
   height="89.599998"
   version="1.1"
   id="svg814"
   sodipodi:docname="7_gai.svg"
   inkscape:version="1.2.1 (9c6d41e410, 2022-07-14)"
   xmlns:inkscape="http://www.inkscape.org/namespaces/inkscape"
   xmlns:sodipodi="http://sodipodi.sourceforge.net/DTD/sodipodi-0.dtd"
   xmlns="http://www.w3.org/2000/svg"
   xmlns:svg="http://www.w3.org/2000/svg">
  <defs
     id="defs818" />
  <sodipodi:namedview
     id="namedview816"
     pagecolor="#ffffff"
     bordercolor="#666666"
     borderopacity="1.0"
     inkscape:showpageshadow="2"
     inkscape:pageopacity="0.0"
     inkscape:pagecheckerboard="0"
     inkscape:deskcolor="#d1d1d1"
     showgrid="false"
     inkscape:zoom="5.1189327"
     inkscape:cx="38.777615"
     inkscape:cy="51.182545"
     inkscape:window-width="1920"
     inkscape:window-height="1027"
     inkscape:window-x="-8"
     inkscape:window-y="-8"
     inkscape:window-maximized="1"
     inkscape:current-layer="svg814" />
  <g
     id="g509"
     inkscape:label="g1">
    <path
       d="m 19.1,71 v 0 Q 13.5,71 8.8,68 4.1,65 0,58.6 v 0 l 4.4,-2.9 q 3.3,5.3 6.65,7.85 3.35,2.55 7.85,2.55 v 0 q 11,0 11,-15.2 v 0 q 0,-8.1 -3.1,-12.35 -3.1,-4.25 -9.6,-4.25 v 0 q -3,0 -5.85,0.75 Q 8.5,35.8 6.1,37 v 0 L 4.3,32.3 q 6.5,-3 13.1,-3 v 0 q 8.6,0 13.25,5.65 Q 35.3,40.6 35.3,51 v 0 q 0,7.2 -2.1,11.6 -2.1,4.4 -5.75,6.4 -3.65,2 -8.35,2 z"
       id="path808"
       inkscape:label="p1" />
    <path
       style="fill:none;stroke:#000000;stroke-width:1px;stroke-linecap:butt;stroke-linejoin:miter;stroke-opacity:1"
       d="m 5.1112413,34.678538 c 2.8459815,-0.973287 5.6189577,-2.259888 8.6381527,-2.607682 3.864238,-0.57595 8.035432,-0.355515 11.482924,1.647821 2.778957,1.565769 4.725982,4.301361 5.816921,7.25584 1.688958,4.683367 1.807164,9.780359 1.292464,14.685749 -0.511794,3.880063 -1.96099,7.9325 -5.153904,10.399892 C 23.3074,68.879495 18.018606,69.153371 13.569571,67.653372 9.7054183,66.326382 6.7206922,63.311313 4.361737,60.080336 3.6115277,59.065198 2.8613183,58.050059 2.111109,57.03492"
       id="path2467"
       inkscape:label="s1" />
  </g>
  <g
     id="g513"
     inkscape:label="g2">
    <path
       d="m 60.3,89.6 h -1 q -6.7,0 -9.9,-3 v 0 Q 47.6,85 46.75,82.5 45.9,80 45.9,75.8 v 0 -46.5 l 5.3,0.8 v 45.4 q 0,3.2 0.5,4.85 0.5,1.65 1.7,2.55 v 0 q 1.2,1.2 3.15,1.45 1.95,0.25 4.25,0.25 v 0 z"
       id="path501"
       inkscape:label="p2" />
    <path
       style="fill:none;stroke:#000000;stroke-width:1px;stroke-linecap:butt;stroke-linejoin:miter;stroke-opacity:1"
       d="m 48.50333,29.299884 c 0.03622,15.932961 0.01451,31.866641 0.087,47.799152 0.08139,2.829987 0.551096,5.907864 3.058307,7.861004 2.155272,1.77675 5.069622,2.004882 7.762579,2.043097 l 1.381953,0.06237"
       id="path2469"
       sodipodi:nodetypes="ccccc"
       inkscape:label="s2" />
  </g>
  <g
     id="g522"
     inkscape:label="g3"
     transform="translate(14.7)">
    <path
       style="display:inline"
       d="M 30.8,23.7 28,26.6 Q 21.9,21.2 17.7,18.85 13.5,16.5 8.6,16.5 v 0 q -3.5,0 -6.4,0.9 v 0 L 0.7,12.7 Q 2.5,12.3 4.45,12 6.4,11.7 8.6,11.7 v 0 q 3.8,0 7.15,1.2 3.35,1.2 6.9,3.85 3.55,2.65 8.15,6.95 z"
       id="path513"
       inkscape:label="p3" />
    <path
       style="display:inline;fill:none;stroke:#000000;stroke-width:1px;stroke-linecap:butt;stroke-linejoin:miter;stroke-opacity:1"
       d="m 1.2484854,15.037068 c 2.0296352,-0.33742 4.0471341,-0.823273 6.106769,-0.926121 1.7144665,-0.03627 3.4419196,-0.0066 5.1213336,0.377952 1.626492,0.286246 3.200444,0.851561 4.696094,1.542318 3.239677,1.543111 6.000222,3.881137 8.751411,6.145612 1.177108,1.030396 2.354216,2.060791 3.531324,3.091187"
       id="path660"
       inkscape:label="s3" />
  </g>
  <g
     id="g526"
     inkscape:label="g4"
     transform="translate(14.7)">
    <path
       style="display:inline"
       d="M 36.1,25.5 H 31.7 Q 29.8,17.7 27.95,13.15 26.1,8.6 23.65,6.7 21.2,4.8 17.4,4.8 v 0 Q 16.2,4.8 14.85,5 13.5,5.2 12,5.7 v 0 L 10.5,1.1 Q 12.4,0.5 14.2,0.25 16,0 17.7,0 v 0 q 4.6,0 7.95,2.25 3.35,2.25 5.85,7.8 2.5,5.55 4.6,15.45 z"
       id="path511"
       inkscape:label="p4" />
    <path
       style="display:inline;fill:none;stroke:#000000;stroke-width:1px;stroke-linecap:butt;stroke-linejoin:miter;stroke-opacity:1"
       d="m 11.023437,3.453125 c 2.182778,-0.4976057 4.36528,-1.1946393 6.631852,-1.0710196 2.053103,-0.044291 4.123749,0.4216957 5.902797,1.4638298 1.290672,0.6572076 2.43165,1.6018918 3.277933,2.7802163 1.787546,2.2624393 2.976329,4.9290225 3.905851,7.6409995 1.112879,3.208175 2.009172,6.487831 2.71558,9.809147 0.117031,0.515091 0.234062,1.030183 0.351093,1.545274"
       id="path662"
       inkscape:label="s4" />
  </g>
</svg>
