<svg xmlns="http://www.w3.org/2000/svg" xmlns:xlink="http://www.w3.org/1999/xlink" width="87.5" height="130.4"><path d="M20.20 71L20.20 71Q14.60 71 9.90 68Q5.20 65 1.10 58.60L1.10 58.60L5.50 55.70Q8.80 61.00 12.15 63.55Q15.50 66.10 20 66.10L20 66.10Q31 66.10 31 50.90L31 50.90Q31 42.80 27.90 38.55Q24.80 34.30 18.30 34.30L18.30 34.30Q15.30 34.30 12.45 35.05Q9.60 35.80 7.20 37.00L7.20 37.00L5.40 32.30Q11.90 29.30 18.50 29.30L18.50 29.30Q27.10 29.30 31.75 34.95Q36.40 40.60 36.40 51.00L36.40 51.00Q36.40 58.20 34.30 62.60Q32.20 67 28.55 69Q24.90 71 20.20 71ZM61.40 89.60L60.40 89.60Q53.70 89.60 50.50 86.60L50.50 86.60Q48.70 85.00 47.85 82.50Q47 80 47 75.80L47 75.80L47 29.30L52.30 30.10L52.30 75.50Q52.30 78.70 52.80 80.35Q53.30 82.00 54.50 82.90L54.50 82.90Q55.70 84.10 57.65 84.35Q59.60 84.60 61.90 84.60L61.90 84.60L61.40 89.60ZM86.50 89.60L85.50 89.60Q78.90 89.60 75.60 86.60L75.60 86.60Q73.80 85.00 72.95 82.50Q72.10 80 72.10 75.80L72.10 75.80L72.10 29.30L77.40 30.00L77.40 75.50Q77.40 78.80 77.90 80.40Q78.40 82.00 79.70 83.00L79.70 83.00Q80.90 84.10 82.75 84.35Q84.60 84.60 87 84.60L87 84.60L86.50 89.60ZM76.90 25.50L72.10 25.50Q69.90 17.90 67.90 13.40Q65.90 8.90 63.35 6.90Q60.80 4.90 56.90 4.90L56.90 4.90Q54.10 4.90 51.10 5.80L51.10 5.80L49.50 1.20Q51.50 0.60 53.45 0.30Q55.40 0 57.20 0L57.20 0Q61.90 0 65.40 2.15Q68.90 4.30 71.65 9.80Q74.40 15.30 76.90 25.50L76.90 25.50Z"/></svg>