<?xml version="1.0" encoding="UTF-8" standalone="no"?>
<svg
   width="60.400002"
   height="60.299999"
   version="1.1"
   id="svg4"
   sodipodi:docname="0_ch.svg"
   inkscape:version="1.2.1 (9c6d41e410, 2022-07-14)"
   xmlns:inkscape="http://www.inkscape.org/namespaces/inkscape"
   xmlns:sodipodi="http://sodipodi.sourceforge.net/DTD/sodipodi-0.dtd"
   xmlns="http://www.w3.org/2000/svg"
   xmlns:svg="http://www.w3.org/2000/svg">
  <defs
     id="defs8" />
  <sodipodi:namedview
     id="namedview6"
     pagecolor="#ffffff"
     bordercolor="#666666"
     borderopacity="1.0"
     inkscape:showpageshadow="2"
     inkscape:pageopacity="0.0"
     inkscape:pagecheckerboard="0"
     inkscape:deskcolor="#d1d1d1"
     showgrid="false"
     inkscape:zoom="11.313709"
     inkscape:cx="30.361397"
     inkscape:cy="20.240932"
     inkscape:window-width="1920"
     inkscape:window-height="1017"
     inkscape:window-x="-8"
     inkscape:window-y="-8"
     inkscape:window-maximized="1"
     inkscape:current-layer="svg4" />
  <path
     style="fill:none;stroke:#000000;stroke-width:1px;stroke-linecap:butt;stroke-linejoin:miter;stroke-opacity:1"
     d="M 0.8828125,4.875 C 4.8926796,3.2585544 9.1965193,2.1905457 13.547582,2.5570088 c 4.350615,0.2129446 8.892011,1.8806345 11.456055,5.5789829 3.105968,4.3083173 3.549804,10.3409143 1.385104,15.1493373 -2.591507,5.262718 -8.068996,8.738878 -13.758608,9.67064 C 10.730732,32.847616 9.8381831,30.81181 8.28125,29.972656 6.9427733,29.041031 4.9726755,28.742304 3.4882813,29.472665 c -1.1581179,0.830883 -0.7313295,2.908178 0.6874994,3.21875 1.9584346,0.881022 4.1544119,0.283671 6.1702453,0.712671 1.87451,0.856674 2.345917,3.188272 3.897821,4.452957 4.059944,4.589958 10.339798,6.720984 16.373787,6.374314 4.30304,-0.03126 8.56039,-1.425496 11.968093,-4.071789 1.795974,-1.481304 3.871635,-2.780398 5.215795,-4.704784 0.68363,-2.005994 0.189154,-4.186362 0.339673,-6.268247 0.0011,-9.726239 0.0022,-19.4524777 0.0033,-29.1787165 0.02863,15.8779865 -0.0467,31.7573575 0.04744,47.6344735 0.06323,2.957688 0.682381,6.271427 3.21035,8.14287 2.50504,2.08114 5.962305,1.75138 8.992187,2.058588"
     id="path329"
     inkscape:label="s1" />
  <path
     d="m 29.7,46.7 v 0 Q 23.4,46.7 18.2,43.95 13,41.2 9.4,35.7 v 0 q -0.8,0 -1.6,0 v 0 q -7.4,0 -7.4,-5 v 0 q 0,-1.6 1.2,-2.8 1.2,-1.2 3.7,-1.2 v 0 q 2.5,0 4.2,1.15 1.7,1.15 3.2,2.75 v 0 Q 18.2,29.3 21.6,25.7 25,22.1 25,17 v 0 Q 25,11.6 21.75,8.3 18.5,5 11.7,5 V 5 Q 9.4,5 6.8,5.6 4.2,6.2 1.8,7.1 v 0 L 0,2.4 Q 2.4,1.4 5.5,0.7 8.6,0 11.9,0 v 0 q 8.7,0 13.6,4.75 4.9,4.75 4.9,12.35 v 0 q 0,6.5 -4.35,11.25 Q 21.7,33.1 15,34.9 v 0 q 2.5,3.3 5.95,5.1 3.45,1.8 8.55,1.8 v 0 q 5.7,0 9.35,-2.1 3.65,-2.1 6.65,-5.3 v 0 V 0 l 5.3,0.8 v 45.4 q 0,3.2 0.55,4.85 0.55,1.65 1.65,2.55 v 0 q 1.2,1.2 3.2,1.45 2,0.25 4.2,0.25 v 0 l -0.5,5 h -1 q -6.7,0 -9.9,-3 v 0 q -1.7,-1.6 -2.6,-4.1 -0.9,-2.5 -0.9,-6.7 v 0 -5.6 q -2.8,2.5 -6.6,4.15 -3.8,1.65 -9.2,1.65 z"
     id="path2"
     inkscape:label="p1" />
</svg>
