<svg xmlns="http://www.w3.org/2000/svg" xmlns:xlink="http://www.w3.org/1999/xlink" width="89.5" height="130.4"><path d="M24 89.60L23.10 89.60Q20 89.60 17.50 88.95Q15 88.30 13.20 86.60L13.20 86.60Q11.30 84.90 10.50 82.40Q9.70 79.90 9.70 75.80L9.70 75.80L9.70 22.40Q9.70 15.80 11.05 11.70Q12.40 7.60 15.80 4.70L15.80 4.70Q18 2.80 21.15 1.70Q24.30 0.60 28.40 0.60L28.40 0.60Q37.50 0.60 44.75 5.85Q52 11.10 59.30 19.60L59.30 19.60L55.40 22.70Q49 15.10 42.65 10.30Q36.30 5.50 28.70 5.50L28.70 5.50Q22.80 5.50 19.40 8.40L19.40 8.40Q17 10.50 16 14Q15 17.50 15 24.10L15 24.10L15 75.50Q15 78.70 15.50 80.35Q16 82.00 17.20 82.90L17.20 82.90Q18.40 84.10 20.35 84.35Q22.30 84.60 24.60 84.60L24.60 84.60L24 89.60ZM58.30 76L58.30 76Q52 76 46.80 73.25Q41.60 70.50 38 65L38 65Q37.20 65 36.40 65L36.40 65Q29 65 29 60.00L29 60.00Q29 58.40 30.20 57.20Q31.40 56.00 33.90 56.00L33.90 56.00Q36.40 56.00 38.10 57.15Q39.80 58.30 41.30 59.90L41.30 59.90Q46.80 58.60 50.20 55.00Q53.60 51.40 53.60 46.30L53.60 46.30Q53.60 40.90 50.35 37.60Q47.10 34.30 40.30 34.30L40.30 34.30Q38 34.30 35.40 34.90Q32.80 35.50 30.40 36.40L30.40 36.40L28.60 31.70Q31 30.70 34.10 30.00Q37.20 29.30 40.50 29.30L40.50 29.30Q49.20 29.30 54.10 34.05Q59 38.80 59 46.40L59 46.40Q59 52.90 54.65 57.65Q50.30 62.40 43.60 64.20L43.60 64.20Q46.10 67.50 49.55 69.30Q53 71.10 58.10 71.10L58.10 71.10Q63.80 71.10 67.45 69Q71.10 66.90 74.10 63.70L74.10 63.70L74.10 29.30L79.40 30.10L79.40 75.50Q79.40 78.70 79.95 80.35Q80.50 82.00 81.60 82.90L81.60 82.90Q82.80 84.10 84.80 84.35Q86.80 84.60 89 84.60L89 84.60L88.50 89.60L87.50 89.60Q80.80 89.60 77.60 86.60L77.60 86.60Q75.90 85.00 75 82.50Q74.10 80 74.10 75.80L74.10 75.80L74.10 70.20Q71.30 72.70 67.50 74.35Q63.70 76 58.30 76Z"/></svg>