<svg xmlns="http://www.w3.org/2000/svg" xmlns:xlink="http://www.w3.org/1999/xlink" width="89.5" height="130.4"><path d="M33.20 76L33.20 76Q26.90 76 21.70 73.25Q16.50 70.50 12.90 65L12.90 65Q12.10 65 11.30 65L11.30 65Q3.90 65 3.90 60.00L3.90 60.00Q3.90 58.40 5.10 57.20Q6.30 56.00 8.80 56.00L8.80 56.00Q11.30 56.00 13 57.15Q14.70 58.30 16.20 59.90L16.20 59.90Q21.70 58.60 25.10 55.00Q28.50 51.40 28.50 46.30L28.50 46.30Q28.50 40.90 25.25 37.60Q22 34.30 15.20 34.30L15.20 34.30Q12.90 34.30 10.30 34.90Q7.70 35.50 5.30 36.40L5.30 36.40L3.50 31.70Q5.90 30.70 9 30.00Q12.10 29.30 15.40 29.30L15.40 29.30Q24.10 29.30 29 34.05Q33.90 38.80 33.90 46.40L33.90 46.40Q33.90 52.90 29.55 57.65Q25.20 62.40 18.50 64.20L18.50 64.20Q21 67.50 24.45 69.30Q27.90 71.10 33 71.10L33 71.10Q38.70 71.10 42.35 69Q46 66.90 49 63.70L49 63.70L49 29.30L54.30 30.10L54.30 75.50Q54.30 78.70 54.85 80.35Q55.40 82.00 56.50 82.90L56.50 82.90Q57.70 84.10 59.70 84.35Q61.70 84.60 63.90 84.60L63.90 84.60L63.40 89.60L62.40 89.60Q55.70 89.60 52.50 86.60L52.50 86.60Q50.80 85.00 49.90 82.50Q49 80 49 75.80L49 75.80L49 70.20Q46.20 72.70 42.40 74.35Q38.60 76 33.20 76ZM88.50 89.60L87.50 89.60Q84.50 89.60 81.95 88.95Q79.40 88.30 77.60 86.60L77.60 86.60Q74.10 83.30 74.10 75.80L74.10 75.80L74.10 29.10Q72.70 17.70 69.20 11.60Q65.70 5.50 60.20 5.50L60.20 5.50Q56.60 5.50 54.60 8.10Q52.60 10.70 52.60 15.80L52.60 15.80Q52.60 19.70 53.20 22.80L53.20 22.80L48.10 22.80Q47.80 21.30 47.55 19.20Q47.30 17.10 47.30 15.20L47.30 15.20Q47.30 8.60 50.65 4.60Q54.00 0.60 60.20 0.60L60.20 0.60Q66.10 0.60 70.10 4.55Q74.10 8.50 76.35 14.95Q78.60 21.40 79.40 28.80L79.40 28.80L79.40 75.50Q79.40 78.80 79.90 80.35Q80.40 81.90 81.60 82.90L81.60 82.90Q82.80 84.10 84.80 84.35Q86.80 84.60 89 84.60L89 84.60L88.50 89.60Z"/></svg>