<svg xmlns="http://www.w3.org/2000/svg" xmlns:xlink="http://www.w3.org/1999/xlink" width="64.4" height="130.4"><path d="M33.20 76L33.20 76Q26.90 76 21.70 73.25Q16.50 70.50 12.90 65L12.90 65Q12.10 65 11.30 65L11.30 65Q3.90 65 3.90 60.00L3.90 60.00Q3.90 58.40 5.10 57.20Q6.30 56.00 8.80 56.00L8.80 56.00Q11.30 56.00 13 57.15Q14.70 58.30 16.20 59.90L16.20 59.90Q21.70 58.60 25.10 55.00Q28.50 51.40 28.50 46.30L28.50 46.30Q28.50 40.90 25.25 37.60Q22 34.30 15.20 34.30L15.20 34.30Q12.90 34.30 10.30 34.90Q7.70 35.50 5.30 36.40L5.30 36.40L3.50 31.70Q5.90 30.70 9 30.00Q12.10 29.30 15.40 29.30L15.40 29.30Q24.10 29.30 29 34.05Q33.90 38.80 33.90 46.40L33.90 46.40Q33.90 52.90 29.55 57.65Q25.20 62.40 18.50 64.20L18.50 64.20Q21 67.50 24.45 69.30Q27.90 71.10 33 71.10L33 71.10Q38.70 71.10 42.35 69Q46 66.90 49 63.70L49 63.70L49 29.30L54.30 30.10L54.30 75.50Q54.30 78.70 54.85 80.35Q55.40 82.00 56.50 82.90L56.50 82.90Q57.70 84.10 59.70 84.35Q61.70 84.60 63.90 84.60L63.90 84.60L63.40 89.60L62.40 89.60Q55.70 89.60 52.50 86.60L52.50 86.60Q50.80 85.00 49.90 82.50Q49 80 49 75.80L49 75.80L49 70.20Q46.20 72.70 42.40 74.35Q38.60 76 33.20 76ZM48.70 116.30L48.70 116.30Q42.10 116.30 36.95 114.05Q31.80 111.80 27.65 108.00Q23.50 104.20 20 99.40L20 99.40L24.20 96.50Q29.30 103.20 34.90 107.30Q40.50 111.40 48.70 111.40L48.70 111.40Q54.40 111.40 57.40 109.20Q60.40 107.00 60.40 102.70L60.40 102.70Q60.40 98.80 57.80 96.80Q55.20 94.80 50.80 94.80L50.80 94.80Q48.30 94.80 46.10 95.35Q43.90 95.90 41.70 96.80L41.70 96.80L39.90 92.30Q42.50 91.20 45.10 90.65Q47.70 90.10 50.50 90.10L50.50 90.10Q57.60 90.10 61.50 93.65Q65.40 97.20 65.40 103.10L65.40 103.10Q65.40 109.30 60.95 112.80Q56.50 116.30 48.70 116.30Z"/></svg>