<?xml version="1.0" encoding="UTF-8" standalone="no"?>
<svg
   width="74.199997"
   height="86.800003"
   version="1.1"
   id="svg537"
   sodipodi:docname="5_choo.svg"
   inkscape:version="1.2.1 (9c6d41e410, 2022-07-14)"
   xmlns:inkscape="http://www.inkscape.org/namespaces/inkscape"
   xmlns:sodipodi="http://sodipodi.sourceforge.net/DTD/sodipodi-0.dtd"
   xmlns="http://www.w3.org/2000/svg"
   xmlns:svg="http://www.w3.org/2000/svg">
  <defs
     id="defs541" />
  <sodipodi:namedview
     id="namedview539"
     pagecolor="#ffffff"
     bordercolor="#666666"
     borderopacity="1.0"
     inkscape:showpageshadow="2"
     inkscape:pageopacity="0.0"
     inkscape:pagecheckerboard="0"
     inkscape:deskcolor="#d1d1d1"
     showgrid="false"
     inkscape:zoom="3.6196321"
     inkscape:cx="12.017796"
     inkscape:cy="55.530506"
     inkscape:window-width="1920"
     inkscape:window-height="1027"
     inkscape:window-x="-8"
     inkscape:window-y="-8"
     inkscape:window-maximized="1"
     inkscape:current-layer="svg537" />
  <g
     id="g117"
     inkscape:label="g1"
     transform="scale(0.99925674,1)">
    <path
       d="m 29.7,46.7 v 0 Q 23.4,46.7 18.2,43.95 13,41.2 9.4,35.7 v 0 q -0.8,0 -1.6,0 v 0 q -7.4,0 -7.4,-5 v 0 q 0,-1.6 1.2,-2.8 1.2,-1.2 3.7,-1.2 v 0 q 2.5,0 4.2,1.15 1.7,1.15 3.2,2.75 v 0 Q 18.2,29.3 21.6,25.7 25,22.1 25,17 v 0 Q 25,11.6 21.75,8.3 18.5,5 11.7,5 V 5 Q 9.4,5 6.8,5.6 4.2,6.2 1.8,7.1 v 0 L 0,2.4 Q 2.4,1.4 5.5,0.7 8.6,0 11.9,0 v 0 q 8.7,0 13.6,4.75 4.9,4.75 4.9,12.35 v 0 q 0,6.5 -4.35,11.25 Q 21.7,33.1 15,34.9 v 0 q 2.5,3.3 5.95,5.1 3.45,1.8 8.55,1.8 v 0 q 5.7,0 9.35,-2.1 3.65,-2.1 6.65,-5.3 v 0 V 0 l 5.3,0.8 v 45.4 q 0,3.2 0.55,4.85 0.55,1.65 1.65,2.55 v 0 q 1.2,1.2 3.2,1.45 2,0.25 4.2,0.25 v 0 l -0.5,5 h -1 q -6.7,0 -9.9,-3 v 0 q -1.7,-1.6 -2.6,-4.1 -0.9,-2.5 -0.9,-6.7 v 0 -5.6 q -2.8,2.5 -6.6,4.15 -3.8,1.65 -9.2,1.65 z"
       id="path2"
       inkscape:label="p1" />
    <path
       style="fill:none;stroke:#000000;stroke-width:1px;stroke-linecap:butt;stroke-linejoin:miter;stroke-opacity:1"
       d="M 0.8828125,4.875 C 7.0769689,2.2955614 14.486769,1.3174033 20.684457,4.3997245 28.321299,8.3061672 29.946815,19.615097 24.633049,26.055145 20.775116,30.832653 14.545362,33.612173 8.4109779,33.280341 6.6664276,33.174546 4.6128287,33.237534 3.2672295,31.965693 2.5933542,31.024347 3.0210125,29.317356 4.3646438,29.331898 c 1.6564621,-0.286675 3.3783444,0.181662 4.5876026,1.369471 1.2471956,0.886258 2.1337256,2.131253 2.7596886,3.509709 1.408807,3.099869 4.058122,5.465157 6.913224,7.228083 5.588006,3.249851 12.621012,3.62793 18.691221,1.604997 3.72274,-1.312608 6.803319,-3.927316 9.658567,-6.567538 1.966854,-1.906375 0.890314,-4.877992 1.166248,-7.290088 0.0011,-9.726239 0.0022,-19.4524777 0.0033,-29.1787165"
       id="path329-0"
       inkscape:label="s1" />
    <path
       style="fill:none;stroke:#000000;stroke-width:1px;stroke-linecap:butt;stroke-linejoin:miter;stroke-opacity:1"
       d="m 48.160155,36.207031 v 0 l -0.0106,2.904813 0.04238,8.530445 c 0.06323,2.957688 0.682381,6.271427 3.21035,8.14287 2.50504,2.081138 5.962305,1.75138 8.992187,2.058588"
       id="path339-8"
       inkscape:label="s2" />
  </g>
  <g
     id="g459"
     inkscape:label="g2"
     transform="translate(14.3)">
    <path
       style="display:inline"
       d="m 29.1,86.8 v 0 q -7.1,0 -11,-3.6 -3.9,-3.6 -3.9,-9.5 v 0 q 0,-5.4 4.1,-9.15 4.1,-3.75 12,-3.75 v 0 q 7.3,0 12.65,2.75 5.35,2.75 9.45,7.1 4.1,4.35 7.5,9.25 v 0 l -4.1,2.7 q -3.7,-5.1 -7.35,-8.95 -3.65,-3.85 -8,-6 Q 36.1,65.5 30.5,65.5 v 0 q -5.8,0 -8.55,2.35 -2.75,2.35 -2.75,5.95 v 0 q 0,4.2 2.7,6.15 2.7,1.95 6.9,1.95 v 0 q 2.7,0 4.95,-0.55 Q 36,80.8 38.2,79.8 v 0 l 1.7,4.8 q -2.6,1 -5.3,1.6 -2.7,0.6 -5.5,0.6 z"
       id="path450"
       inkscape:label="p2" />
    <path
       style="display:inline;fill:none;stroke:#000000;stroke-width:1px;stroke-linecap:butt;stroke-linejoin:miter;stroke-opacity:1"
       d="m 39.156038,82.101726 c -2.559475,0.870519 -5.086907,1.981239 -7.823193,2.132839 -3.656068,0.346073 -7.630959,0.02382 -10.710525,-2.159471 -1.994947,-1.389787 -3.307503,-3.602927 -3.721038,-5.984024 -0.524339,-2.865919 -0.09409,-6.035968 1.795561,-8.342771 1.97195,-2.740177 5.319724,-4.087889 8.589416,-4.419381 5.402628,-0.588506 11.078052,0.234292 15.808321,3.017688 4.134381,2.336077 7.55606,5.727729 10.466774,9.443934 1.484877,1.838423 2.884191,3.743963 4.305828,5.631338"
       id="path546"
       inkscape:label="s3" />
  </g>
</svg>
