<?xml version="1.0" encoding="UTF-8" standalone="no"?><svg width="60.400002" height="89.599998" version="1.1" id="svg16" sodipodi:docname="6_che.svg" inkscape:version="1.2.1 (9c6d41e410, 2022-07-14)" xmlns:inkscape="http://www.inkscape.org/namespaces/inkscape" xmlns:sodipodi="http://sodipodi.sourceforge.net/DTD/sodipodi-0.dtd" xmlns="http://www.w3.org/2000/svg" xmlns:svg="http://www.w3.org/2000/svg"><defs id="defs20"></defs><sodipodi:namedview id="namedview18" pagecolor="#ffffff" bordercolor="#666666" borderopacity="1.0" inkscape:showpageshadow="2" inkscape:pageopacity="0.0" inkscape:pagecheckerboard="0" inkscape:deskcolor="#d1d1d1" showgrid="false" inkscape:zoom="7.2392641" inkscape:cx="35.846185" inkscape:cy="46.827964" inkscape:window-width="1920" inkscape:window-height="1027" inkscape:window-x="-8" inkscape:window-y="-8" inkscape:window-maximized="1" inkscape:current-layer="svg16"></sodipodi:namedview><g id="g0" inkscape:label="g0" transform="matrix(0.99925674,0,0,1,0,29.3)"><path d="m 29.7,46.7 v 0 Q 23.4,46.7 18.2,43.95 13,41.2 9.4,35.7 v 0 q -0.8,0 -1.6,0 v 0 q -7.4,0 -7.4,-5 v 0 q 0,-1.6 1.2,-2.8 1.2,-1.2 3.7,-1.2 v 0 q 2.5,0 4.2,1.15 1.7,1.15 3.2,2.75 v 0 Q 18.2,29.3 21.6,25.7 25,22.1 25,17 v 0 Q 25,11.6 21.75,8.3 18.5,5 11.7,5 V 5 Q 9.4,5 6.8,5.6 4.2,6.2 1.8,7.1 v 0 L 0,2.4 Q 2.4,1.4 5.5,0.7 8.6,0 11.9,0 v 0 q 8.7,0 13.6,4.75 4.9,4.75 4.9,12.35 v 0 q 0,6.5 -4.35,11.25 Q 21.7,33.1 15,34.9 v 0 q 2.5,3.3 5.95,5.1 3.45,1.8 8.55,1.8 v 0 q 5.7,0 9.35,-2.1 3.65,-2.1 6.65,-5.3 v 0 V 0 l 5.3,0.8 v 45.4 q 0,3.2 0.55,4.85 0.55,1.65 1.65,2.55 v 0 q 1.2,1.2 3.2,1.45 2,0.25 4.2,0.25 v 0 l -0.5,5 h -1 q -6.7,0 -9.9,-3 v 0 q -1.7,-1.6 -2.6,-4.1 -0.9,-2.5 -0.9,-6.7 v 0 -5.6 q -2.8,2.5 -6.6,4.15 -3.8,1.65 -9.2,1.65 z" id="g0p0" inkscape:label="g0p0"></path><path style="fill:none;stroke:#000000;stroke-width:1px;stroke-linecap:butt;stroke-linejoin:miter;stroke-opacity:1" d="M 0.8828125,4.875 C 7.0769689,2.2955614 14.486769,1.3174033 20.684457,4.3997245 28.321299,8.3061672 29.946815,19.615097 24.633049,26.055145 20.775116,30.832653 14.545362,33.612173 8.4109779,33.280341 6.6664276,33.174546 4.6128287,33.237534 3.2672295,31.965693 2.5933542,31.024347 3.0210125,29.317356 4.3646438,29.331898 c 1.6564621,-0.286675 3.3783444,0.181662 4.5876026,1.369471 1.2471956,0.886258 2.1337256,2.131253 2.7596886,3.509709 1.408807,3.099869 4.058122,5.465157 6.913224,7.228083 5.588006,3.249851 12.621012,3.62793 18.691221,1.604997 3.72274,-1.312608 6.803319,-3.927316 9.658567,-6.567538 1.966854,-1.906375 0.890314,-4.877992 1.166248,-7.290088 0.0011,-9.726239 0.0022,-19.4524777 0.0033,-29.1787165" id="g0s0" inkscape:label="g0s0"></path><path style="fill:none;stroke:#000000;stroke-width:1px;stroke-linecap:butt;stroke-linejoin:miter;stroke-opacity:1" d="m 48.160155,36.207031 v 0 l -0.0106,2.904813 0.04238,8.530445 c 0.06323,2.957688 0.682381,6.271427 3.21035,8.14287 2.50504,2.081138 5.962305,1.75138 8.992187,2.058588" id="g0s1" inkscape:label="g0s1"></path></g><g id="g1" inkscape:label="g1" transform="matrix(1,0,0,0.99010405,14.3,0)"><path style="display:inline" d="M 36,25.5 H 31.2 Q 29,17.9 27,13.4 25,8.9 22.45,6.9 19.9,4.9 16,4.9 v 0 q -2.8,0 -5.8,0.9 v 0 L 8.6,1.2 Q 10.6,0.6 12.55,0.3 14.5,0 16.3,0 V 0 Q 21,0 24.5,2.15 28,4.3 30.75,9.8 33.5,15.3 36,25.5 Z" id="g1p0" inkscape:label="g1p0"></path><path style="display:inline;fill:none;stroke:#000000;stroke-width:1px;stroke-linecap:butt;stroke-linejoin:miter;stroke-opacity:1" d="M 9.1953125,3.65625 C 11.885187,3.0547747 14.602752,2.1924171 17.392371,2.5147776 c 2.933702,0.1444617 5.855129,1.3548567 7.857702,3.5355896 2.358946,2.4575826 3.759606,5.6375698 4.974188,8.7751108 1.29204,3.54249 2.32594,7.16808 3.361676,10.791709" id="g1s0" inkscape:label="g1s0"></path></g></svg>