<?xml version="1.0" encoding="UTF-8" standalone="no"?>
<svg
   width="60.400002"
   height="89.599998"
   version="1.1"
   id="svg267"
   sodipodi:docname="7_chei.svg"
   inkscape:version="1.2.1 (9c6d41e410, 2022-07-14)"
   xmlns:inkscape="http://www.inkscape.org/namespaces/inkscape"
   xmlns:sodipodi="http://sodipodi.sourceforge.net/DTD/sodipodi-0.dtd"
   xmlns="http://www.w3.org/2000/svg"
   xmlns:svg="http://www.w3.org/2000/svg">
  <defs
     id="defs271" />
  <sodipodi:namedview
     id="namedview269"
     pagecolor="#ffffff"
     bordercolor="#666666"
     borderopacity="1.0"
     inkscape:showpageshadow="2"
     inkscape:pageopacity="0.0"
     inkscape:pagecheckerboard="0"
     inkscape:deskcolor="#d1d1d1"
     showgrid="false"
     inkscape:zoom="5.1189328"
     inkscape:cx="48.154569"
     inkscape:cy="49.424365"
     inkscape:window-width="1920"
     inkscape:window-height="1027"
     inkscape:window-x="-8"
     inkscape:window-y="-8"
     inkscape:window-maximized="1"
     inkscape:current-layer="svg267" />
  <g
     id="g117"
     inkscape:label="g1"
     transform="matrix(0.99925674,0,0,1,0,29.3)">
    <path
       d="m 29.7,46.7 v 0 Q 23.4,46.7 18.2,43.95 13,41.2 9.4,35.7 v 0 q -0.8,0 -1.6,0 v 0 q -7.4,0 -7.4,-5 v 0 q 0,-1.6 1.2,-2.8 1.2,-1.2 3.7,-1.2 v 0 q 2.5,0 4.2,1.15 1.7,1.15 3.2,2.75 v 0 Q 18.2,29.3 21.6,25.7 25,22.1 25,17 v 0 Q 25,11.6 21.75,8.3 18.5,5 11.7,5 V 5 Q 9.4,5 6.8,5.6 4.2,6.2 1.8,7.1 v 0 L 0,2.4 Q 2.4,1.4 5.5,0.7 8.6,0 11.9,0 v 0 q 8.7,0 13.6,4.75 4.9,4.75 4.9,12.35 v 0 q 0,6.5 -4.35,11.25 Q 21.7,33.1 15,34.9 v 0 q 2.5,3.3 5.95,5.1 3.45,1.8 8.55,1.8 v 0 q 5.7,0 9.35,-2.1 3.65,-2.1 6.65,-5.3 v 0 V 0 l 5.3,0.8 v 45.4 q 0,3.2 0.55,4.85 0.55,1.65 1.65,2.55 v 0 q 1.2,1.2 3.2,1.45 2,0.25 4.2,0.25 v 0 l -0.5,5 h -1 q -6.7,0 -9.9,-3 v 0 q -1.7,-1.6 -2.6,-4.1 -0.9,-2.5 -0.9,-6.7 v 0 -5.6 q -2.8,2.5 -6.6,4.15 -3.8,1.65 -9.2,1.65 z"
       id="path2"
       inkscape:label="p1" />
    <path
       style="fill:none;stroke:#000000;stroke-width:1px;stroke-linecap:butt;stroke-linejoin:miter;stroke-opacity:1"
       d="M 0.8828125,4.875 C 7.0769689,2.2955614 14.486769,1.3174033 20.684457,4.3997245 28.321299,8.3061672 29.946815,19.615097 24.633049,26.055145 20.775116,30.832653 14.545362,33.612173 8.4109779,33.280341 6.6664276,33.174546 4.6128287,33.237534 3.2672295,31.965693 2.5933542,31.024347 3.0210125,29.317356 4.3646438,29.331898 c 1.6564621,-0.286675 3.3783444,0.181662 4.5876026,1.369471 1.2471956,0.886258 2.1337256,2.131253 2.7596886,3.509709 1.408807,3.099869 4.058122,5.465157 6.913224,7.228083 5.588006,3.249851 12.621012,3.62793 18.691221,1.604997 3.72274,-1.312608 6.803319,-3.927316 9.658567,-6.567538 1.966854,-1.906375 0.890314,-4.877992 1.166248,-7.290088 0.0011,-9.726239 0.0022,-19.4524777 0.0033,-29.1787165"
       id="path329"
       inkscape:label="s1" />
    <path
       style="fill:none;stroke:#000000;stroke-width:1px;stroke-linecap:butt;stroke-linejoin:miter;stroke-opacity:1"
       d="m 48.160155,36.207031 v 0 l -0.0106,2.904813 0.04238,8.530445 c 0.06323,2.957688 0.682381,6.271427 3.21035,8.14287 2.50504,2.081138 5.962305,1.75138 8.992187,2.058588"
       id="path339"
       inkscape:label="s2" />
  </g>
  <g
     id="g522"
     inkscape:label="g2"
     transform="translate(14.3)">
    <path
       style="display:inline"
       d="M 30.8,23.7 28,26.6 Q 21.9,21.2 17.7,18.85 13.5,16.5 8.6,16.5 v 0 q -3.5,0 -6.4,0.9 v 0 L 0.7,12.7 Q 2.5,12.3 4.45,12 6.4,11.7 8.6,11.7 v 0 q 3.8,0 7.15,1.2 3.35,1.2 6.9,3.85 3.55,2.65 8.15,6.95 z"
       id="path513"
       inkscape:label="p2" />
    <path
       style="display:inline;fill:none;stroke:#000000;stroke-width:1px;stroke-linecap:butt;stroke-linejoin:miter;stroke-opacity:1"
       d="m 1.2484854,15.037068 c 2.0296352,-0.33742 4.0471341,-0.823273 6.106769,-0.926121 1.7144665,-0.03627 3.4419196,-0.0066 5.1213336,0.377952 1.626492,0.286246 3.200444,0.851561 4.696094,1.542318 3.239677,1.543111 6.000222,3.881137 8.751411,6.145612 1.177108,1.030396 2.354216,2.060791 3.531324,3.091187"
       id="path660"
       inkscape:label="s3" />
  </g>
  <g
     id="g526"
     inkscape:label="g3"
     transform="translate(14.3)">
    <path
       style="display:inline"
       d="M 36.1,25.5 H 31.7 Q 29.8,17.7 27.95,13.15 26.1,8.6 23.65,6.7 21.2,4.8 17.4,4.8 v 0 Q 16.2,4.8 14.85,5 13.5,5.2 12,5.7 v 0 L 10.5,1.1 Q 12.4,0.5 14.2,0.25 16,0 17.7,0 v 0 q 4.6,0 7.95,2.25 3.35,2.25 5.85,7.8 2.5,5.55 4.6,15.45 z"
       id="path511"
       inkscape:label="p3" />
    <path
       style="display:inline;fill:none;stroke:#000000;stroke-width:1px;stroke-linecap:butt;stroke-linejoin:miter;stroke-opacity:1"
       d="m 11.023437,3.453125 c 2.182778,-0.4976057 4.36528,-1.1946393 6.631852,-1.0710196 2.053103,-0.044291 4.123749,0.4216957 5.902797,1.4638298 1.290672,0.6572076 2.43165,1.6018918 3.277933,2.7802163 1.787546,2.2624393 2.976329,4.9290225 3.905851,7.6409995 1.112879,3.208175 2.009172,6.487831 2.71558,9.809147 0.117031,0.515091 0.234062,1.030183 0.351093,1.545274"
       id="path662"
       inkscape:label="s4" />
  </g>
</svg>
