<svg xmlns="http://www.w3.org/2000/svg" xmlns:xlink="http://www.w3.org/1999/xlink" width="89.5" height="130.4">
    <path
        d="M33.20 76L33.20 76Q26.90 76 21.70 73.25Q16.50 70.50 12.90 65L12.90 65Q12.10 65 11.30 65L11.30 65Q3.90 65 3.90 60.00L3.90 60.00Q3.90 58.40 5.10 57.20Q6.30 56.00 8.80 56.00L8.80 56.00Q11.30 56.00 13 57.15Q14.70 58.30 16.20 59.90L16.20 59.90Q21.70 58.60 25.10 55.00Q28.50 51.40 28.50 46.30L28.50 46.30Q28.50 40.90 25.25 37.60Q22 34.30 15.20 34.30L15.20 34.30Q12.90 34.30 10.30 34.90Q7.70 35.50 5.30 36.40L5.30 36.40L3.50 31.70Q5.90 30.70 9 30.00Q12.10 29.30 15.40 29.30L15.40 29.30Q24.10 29.30 29 34.05Q33.90 38.80 33.90 46.40L33.90 46.40Q33.90 52.90 29.55 57.65Q25.20 62.40 18.50 64.20L18.50 64.20Q21 67.50 24.45 69.30Q27.90 71.10 33 71.10L33 71.10Q38.70 71.10 42.35 69Q46 66.90 49 63.70L49 63.70L49 29.30L54.30 30.10L54.30 75.50Q54.30 78.70 54.85 80.35Q55.40 82.00 56.50 82.90L56.50 82.90Q57.70 84.10 59.70 84.35Q61.70 84.60 63.90 84.60L63.90 84.60L63.40 89.60L62.40 89.60Q55.70 89.60 52.50 86.60L52.50 86.60Q50.80 85.00 49.90 82.50Q49 80 49 75.80L49 75.80L49 70.20Q46.20 72.70 42.40 74.35Q38.60 76 33.20 76ZM88.50 89.60L87.50 89.60Q80.90 89.60 77.60 86.60L77.60 86.60Q75.80 85.00 74.95 82.50Q74.10 80 74.10 75.80L74.10 75.80L74.10 29.30L79.40 30.00L79.40 75.50Q79.40 78.80 79.90 80.40Q80.40 82.00 81.70 83.00L81.70 83.00Q82.90 84.10 84.75 84.35Q86.60 84.60 89 84.60L89 84.60L88.50 89.60ZM79 25.50L74.60 25.50Q72.70 17.70 70.85 13.15Q69 8.60 66.55 6.70Q64.10 4.80 60.30 4.80L60.30 4.80Q59.10 4.80 57.75 5Q56.40 5.20 54.90 5.70L54.90 5.70L53.40 1.10Q55.30 0.50 57.10 0.25Q58.90 0 60.60 0L60.60 0Q65.20 0 68.55 2.25Q71.90 4.50 74.40 10.05Q76.90 15.60 79 25.50L79 25.50ZM73.70 23.70L70.90 26.60Q64.80 21.20 60.60 18.85Q56.40 16.50 51.50 16.50L51.50 16.50Q48 16.50 45.10 17.40L45.10 17.40L43.60 12.70Q45.40 12.30 47.35 12Q49.30 11.70 51.50 11.70L51.50 11.70Q55.30 11.70 58.65 12.90Q62.00 14.10 65.55 16.75Q69.10 19.40 73.70 23.70L73.70 23.70Z" />
      <g
     id="g605"
     inkscape:label="g2">
    <path
       style="display:inline"
       d="m 70.7,89.6 h -1 q -6.6,0 -9.9,-3 v 0 Q 58,85 57.15,82.5 56.3,80 56.3,75.8 v 0 -46.5 l 5.3,0.7 v 45.5 q 0,3.3 0.5,4.9 0.5,1.6 1.8,2.6 v 0 q 1.2,1.1 3.05,1.35 1.85,0.25 4.25,0.25 v 0 z"
       id="path592"
       inkscape:label="p2" />
    <path
       style="display:inline;fill:none;stroke:#000000;stroke-width:1px;stroke-linecap:butt;stroke-linejoin:miter;stroke-opacity:1"
       d="m 58.945814,29.339077 c 0.0052,15.660703 -0.0419,31.322813 -0.004,46.982637 0.07316,2.661925 0.300705,5.531206 2.06529,7.674603 1.94562,2.285428 5.076188,2.956219 7.950186,3.001875 0.734456,0.05113 1.468913,0.102253 2.203369,0.15338"
       id="path81"
       inkscape:label="s3" />
  </g>
  <g
     id="g609"
     inkscape:label="g3">
    <path
       style="display:inline"
       d="m 55.9,23.7 -2.8,2.9 Q 47,21.2 42.8,18.85 38.6,16.5 33.7,16.5 v 0 q -3.5,0 -6.4,0.9 v 0 l -1.5,-4.7 q 1.8,-0.4 3.75,-0.7 1.95,-0.3 4.15,-0.3 v 0 q 3.8,0 7.15,1.2 3.35,1.2 6.9,3.85 3.55,2.65 8.15,6.95 z"
       id="path596"
       inkscape:label="p3" />
    <path
       style="display:inline;fill:none;stroke:#000000;stroke-width:1px;stroke-linecap:butt;stroke-linejoin:miter;stroke-opacity:1"
       d="m 26.306582,15.114407 c 2.688785,-0.568456 5.416241,-1.1935 8.183739,-0.988483 1.810938,0.02306 3.595689,0.410136 5.328375,0.908621 1.446215,0.495326 2.860202,1.115629 4.178036,1.890495 3.847011,2.308963 7.136989,5.387765 10.538424,8.281996"
       id="path905"
       inkscape:label="s4" />
  </g>
  <g
     id="g613"
     inkscape:label="g4">
    <path
       style="display:inline"
       d="M 61.2,25.5 H 56.8 Q 54.9,17.7 53.05,13.15 51.2,8.6 48.75,6.7 46.3,4.8 42.5,4.8 v 0 Q 41.3,4.8 39.95,5 38.6,5.2 37.1,5.7 v 0 L 35.6,1.1 Q 37.5,0.5 39.3,0.25 41.1,0 42.8,0 v 0 q 4.6,0 7.95,2.25 3.35,2.25 5.85,7.8 2.5,5.55 4.6,15.45 z"
       id="path594"
       inkscape:label="p4" />
    <path
       style="display:inline;fill:none;stroke:#000000;stroke-width:1px;stroke-linecap:butt;stroke-linejoin:miter;stroke-opacity:1"
       d="m 36.195028,3.4913397 2.773185,-0.7181553 0.82864,-0.1767767 0.806544,-0.099437 1.138,-0.088388 h 0.905981 l 1.027514,0.033146 0.983321,0.121534 0.872835,0.1325825 1.237436,0.2872621 1.071709,0.4198447 1.347922,0.6960582 1.016466,0.6960583 0.696059,0.5966213 0.82864,0.9612233 0.950175,1.2042912 0.839689,1.3368738 0.806544,1.6130879 0.651864,1.425262 0.662913,1.635184 0.53033,1.679379 0.50108,1.557697 0.367187,1.382813 0.5,1.734375 0.453125,1.757812 1.007035,3.936361"
       id="path970"
       inkscape:label="s5" />
  </g>
    <path style="fill:none;stroke:#000000;stroke-width:1px;stroke-linecap:butt;stroke-linejoin:miter;stroke-opacity:1"
        d="M 0.8828125,4.875 C 7.0769689,2.2955614 14.486769,1.3174033 20.684457,4.3997245 28.321299,8.3061672 29.946815,19.615097 24.633049,26.055145 20.775116,30.832653 14.545362,33.612173 8.4109779,33.280341 6.6664276,33.174546 4.6128287,33.237534 3.2672295,31.965693 2.5933542,31.024347 3.0210125,29.317356 4.3646438,29.331898 c 1.6564621,-0.286675 3.3783444,0.181662 4.5876026,1.369471 1.2471956,0.886258 2.1337256,2.131253 2.7596886,3.509709 1.408807,3.099869 4.058122,5.465157 6.913224,7.228083 5.588006,3.249851 12.621012,3.62793 18.691221,1.604997 3.72274,-1.312608 6.803319,-3.927316 9.658567,-6.567538 1.966854,-1.906375 0.890314,-4.877992 1.166248,-7.290088 0.0011,-9.726239 0.0022,-19.4524777 0.0033,-29.1787165"
        id="path329" inkscape:label="s1" />
    <path style="fill:none;stroke:#000000;stroke-width:1px;stroke-linecap:butt;stroke-linejoin:miter;stroke-opacity:1"
        d="m 48.160155,36.207031 v 0 l -0.0106,2.904813 0.04238,8.530445 c 0.06323,2.957688 0.682381,6.271427 3.21035,8.14287 2.50504,2.081138 5.962305,1.75138 8.992187,2.058588"
        id="path339" inkscape:label="s2" />
</svg>