<?xml version="1.0" encoding="UTF-8" standalone="no"?><svg width="99.099998" height="61.299999" version="1.1" id="svg3132" sodipodi:docname="14.svg" inkscape:version="1.2.1 (9c6d41e410, 2022-07-14)" xmlns:inkscape="http://www.inkscape.org/namespaces/inkscape" xmlns:sodipodi="http://sodipodi.sourceforge.net/DTD/sodipodi-0.dtd" xmlns="http://www.w3.org/2000/svg" xmlns:svg="http://www.w3.org/2000/svg"><defs id="defs3136"></defs><sodipodi:namedview id="namedview3134" pagecolor="#ffffff" bordercolor="#666666" borderopacity="1.0" inkscape:showpageshadow="2" inkscape:pageopacity="0.0" inkscape:pagecheckerboard="0" inkscape:deskcolor="#d1d1d1" showgrid="false" inkscape:zoom="1.809816" inkscape:cx="46.137286" inkscape:cy="35.915253" inkscape:window-width="1920" inkscape:window-height="1027" inkscape:window-x="-8" inkscape:window-y="-8" inkscape:window-maximized="1" inkscape:current-layer="svg3132"></sodipodi:namedview><g id="g0" inkscape:label="g0" transform="scale(0.99916289,1)"><path d="m 39.533094,60.3 h -1.000838 q -6.705614,0 -9.908295,-3 v 0 q -1.701424,-1.6 -2.602178,-4.1 -0.900754,-2.5 -0.900754,-6.7 v 0 -16.8 q -2.101759,1.1 -4.303603,1.65 -2.201843,0.55 -4.904105,0.55 v 0 q -4.603854,0 -8.2068699,-2 Q 4.103435,27.9 2.0517175,24.3 0,20.7 0,16 v 0 Q 0,11.5 1.9015918,7.9 3.8031837,4.3 7.2560741,2.15 10.708965,0 15.412902,0 v 0 q 3.603016,0 6.305279,1.15 2.702262,1.15 4.50377,3.25 v 0 q 4.203518,4.4 4.203518,13.2 v 0 28.6 q 0,3.2 0.550461,4.85 0.550461,1.65 1.651383,2.55 v 0 q 1.201005,1.2 3.202681,1.45 2.001675,0.25 4.203518,0.25 v 0 z M 5.4045242,16.2 v 0 q 0,5 2.9524715,7.9 2.9524713,2.9 7.6564093,2.9 v 0 q 5.104273,0 9.107624,-3.1 v 0 -5.5 q 0,-7.3 -2.602178,-10.5 v 0 Q 20.016756,5 15.512986,5 V 5 Q 10.909132,5 8.1568282,8.05 5.4045242,11.1 5.4045242,16.2 Z" id="g0p0" inkscape:label="g0p0" style="stroke-width:1.00042"></path><path style="fill:none;stroke:#000000;stroke-width:1px;stroke-linecap:butt;stroke-linejoin:miter;stroke-opacity:1" d="M 27.734375,25.402344 C 25.756709,26.950277 23.329695,27.71765 21.03125,28.644531 15.576844,30.39353 8.7144506,29.246919 5.201564,24.393573 1.8240793,19.608996 1.8682961,12.707759 5.0183834,7.8169969 8.3641756,2.5177303 15.836905,1.1645999 21.289062,3.7578087 c 4.399226,2.1524604 6.207372,7.2670493 6.390628,11.8828123 0.173031,8.652422 0.05371,17.311355 0.08088,25.96632 0.167563,4.310819 -0.756605,9.211188 1.986879,12.929315 C 32.13428,57.674575 36.442924,57.585369 40,57.824219" id="g0s0" sodipodi:nodetypes="aaaaaaaac" inkscape:label="g0s0"></path></g><g id="g1" inkscape:label="g1" transform="translate(47)"><path d="m 25.3,61.3 v 0 q -5.1,0 -8.35,-2.05 Q 13.7,57.2 12.15,53.95 10.6,50.7 10.6,47 v 0 q 0,-5.2 2.65,-10.15 Q 15.9,31.9 22.7,25.2 v 0 Q 18.6,21.1 13.05,15.85 7.5,10.6 0,3.9 v 0 L 3.5,0 q 7.3,6.6 12.8,11.9 5.5,5.3 9.8,9.9 v 0 Q 30.5,17.4 36,12.05 41.5,6.7 48.6,0 v 0 l 3.5,3.9 Q 44.8,10.7 39.25,15.95 33.7,21.2 29.5,25.3 v 0 q 5.9,6.5 8.2,11.3 2.3,4.8 2.3,10.2 v 0 q 0,3.8 -1.5,7.1 -1.5,3.3 -4.75,5.35 -3.25,2.05 -8.45,2.05 z m 0,-4.9 v 0 q 4.6,0 7,-2.7 2.4,-2.7 2.4,-7 v 0 q 0,-4.3 -1.85,-8.25 Q 31,34.5 26,28.9 v 0 q -5.7,5.8 -7.9,9.8 -2.2,4 -2.2,8.4 v 0 q 0,4.2 2.4,6.75 2.4,2.55 7,2.55 z" id="g1p0" inkscape:label="g1p0"></path><path style="fill:none;stroke:#000000;stroke-width:1px;stroke-linecap:butt;stroke-linejoin:miter;stroke-opacity:1" d="M 1.7382812,1.9648437 C 9.7217767,9.1602374 17.607549,16.47103 25.086203,24.194316 c 3.795286,4.108305 7.696419,8.29258 10.187591,13.355382 1.995534,4.299906 2.799865,9.392657 1.324488,13.975184 -1.189818,3.887507 -4.83448,6.741853 -8.854411,7.154474 -4.187964,0.593203 -9.00815,-0.198517 -11.822543,-3.637737 C 12.664026,51.131851 12.747086,45.487158 14.294897,40.881023 16.503824,34.814985 21.271511,30.209878 25.685535,25.690801 33.725778,17.593965 42.041738,9.7751631 50.351548,1.9570312" id="g1s0" inkscape:label="g1s0"></path></g></svg>