<?xml version="1.0" encoding="UTF-8" standalone="no"?><svg width="98.400002" height="60.299999" version="1.1" id="svg3246" sodipodi:docname="15.svg" inkscape:version="1.2.1 (9c6d41e410, 2022-07-14)" xmlns:inkscape="http://www.inkscape.org/namespaces/inkscape" xmlns:sodipodi="http://sodipodi.sourceforge.net/DTD/sodipodi-0.dtd" xmlns="http://www.w3.org/2000/svg" xmlns:svg="http://www.w3.org/2000/svg"><defs id="defs3250"></defs><sodipodi:namedview id="namedview3248" pagecolor="#ffffff" bordercolor="#666666" borderopacity="1.0" inkscape:showpageshadow="2" inkscape:pageopacity="0.0" inkscape:pagecheckerboard="0" inkscape:deskcolor="#d1d1d1" showgrid="false" inkscape:zoom="5.1189328" inkscape:cx="33.698431" inkscape:cy="31.647222" inkscape:window-width="1920" inkscape:window-height="1027" inkscape:window-x="-8" inkscape:window-y="-8" inkscape:window-maximized="1" inkscape:current-layer="svg3246"></sodipodi:namedview><g id="g0" inkscape:label="g0" transform="scale(0.99916289,1)"><path d="m 39.533094,60.3 h -1.000838 q -6.705614,0 -9.908295,-3 v 0 q -1.701424,-1.6 -2.602178,-4.1 -0.900754,-2.5 -0.900754,-6.7 v 0 -16.8 q -2.101759,1.1 -4.303603,1.65 -2.201843,0.55 -4.904105,0.55 v 0 q -4.603854,0 -8.2068699,-2 Q 4.103435,27.9 2.0517175,24.3 0,20.7 0,16 v 0 Q 0,11.5 1.9015918,7.9 3.8031837,4.3 7.2560741,2.15 10.708965,0 15.412902,0 v 0 q 3.603016,0 6.305279,1.15 2.702262,1.15 4.50377,3.25 v 0 q 4.203518,4.4 4.203518,13.2 v 0 28.6 q 0,3.2 0.550461,4.85 0.550461,1.65 1.651383,2.55 v 0 q 1.201005,1.2 3.202681,1.45 2.001675,0.25 4.203518,0.25 v 0 z M 5.4045242,16.2 v 0 q 0,5 2.9524715,7.9 2.9524713,2.9 7.6564093,2.9 v 0 q 5.104273,0 9.107624,-3.1 v 0 -5.5 q 0,-7.3 -2.602178,-10.5 v 0 Q 20.016756,5 15.512986,5 V 5 Q 10.909132,5 8.1568282,8.05 5.4045242,11.1 5.4045242,16.2 Z" id="g0p0" inkscape:label="g0p0" style="stroke-width:1.00042"></path><path style="fill:none;stroke:#000000;stroke-width:1px;stroke-linecap:butt;stroke-linejoin:miter;stroke-opacity:1" d="M 27.734375,25.402344 C 25.756709,26.950277 23.329695,27.71765 21.03125,28.644531 15.576844,30.39353 8.7144506,29.246919 5.201564,24.393573 1.8240793,19.608996 1.8682961,12.707759 5.0183834,7.8169969 8.3641756,2.5177303 15.836905,1.1645999 21.289062,3.7578087 c 4.399226,2.1524604 6.207372,7.2670493 6.390628,11.8828123 0.173031,8.652422 0.05371,17.311355 0.08088,25.96632 0.167563,4.310819 -0.756605,9.211188 1.986879,12.929315 C 32.13428,57.674575 36.442924,57.585369 40,57.824219" id="g0s0" sodipodi:nodetypes="aaaaaaaac" inkscape:label="g0s0"></path></g><g id="g1" inkscape:label="g1" transform="matrix(0.99953901,0,0,1,46.8,2.0391698e-4)"><path d="m 24.111115,43.7 v 0 q -7.503459,0 -11.305212,-4.5 v 0 Q 10.905027,37.1 10.004612,34.3 9.1041969,31.5 9.1041969,27.4 v 0 -12.3 q 0,-2.7 -0.3501614,-4.2 Q 8.4038741,9.4 7.6035051,8.3 v 0 Q 6.6030439,6.9 4.5520985,6.45 2.501153,6 0,6 V 6 L 0.5002306,1.1 h 0.9004151 q 7.1032745,0 10.2047043,3.6 v 0 q 1.500692,1.6 2.150992,4.05 0.650299,2.45 0.650299,6.15 v 0 12.3 q 0,3.4 0.6503,5.4 0.6503,2 1.850853,3.3 v 0 q 2.401107,2.9 7.803598,2.9 v 0 q 3.501614,0 6.553021,-1.6 3.051406,-1.6 5.452513,-4.2 V 33 0 l 5.302445,0.8 v 45.4 q 0,3.2 0.50023,4.85 0.500231,1.65 1.700784,2.55 v 0 q 1.200554,1.2 3.151453,1.45 1.950899,0.25 4.25196,0.25 v 0 l -0.500231,5 h -1.000461 q -6.70309,0 -9.904566,-3 v 0 q -1.80083,-1.6 -2.651222,-4.1 -0.850392,-2.5 -0.850392,-6.7 v 0 -7.4 q -2.501153,2.1 -5.652606,3.35 -3.151452,1.25 -6.953205,1.25 z" id="g1p0" inkscape:label="g1p0" style="stroke-width:1.00023"></path><path style="fill:none;stroke:#000000;stroke-width:1px;stroke-linecap:butt;stroke-linejoin:miter;stroke-opacity:1" d="M 0.25037075,3.5310909 C 3.0161035,3.8728192 6.0577988,3.6836009 8.4273296,5.4036406 10.7233,6.9915615 11.44615,9.9017242 11.696007,12.530134 c 0.146985,5.613562 -0.02914,11.23582 0.114318,16.850213 0.09923,3.19237 1.206218,6.427954 3.520524,8.692562 2.60426,2.702449 6.618605,3.338062 10.216831,3.136976 2.67339,-0.136512 5.257816,-1.043532 7.491404,-2.50501 1.907385,-1.169955 3.873109,-2.341265 5.461072,-3.931602 0.731612,-0.770398 0.958134,-1.830491 0.838391,-2.860779 C 39.342885,21.274996 39.347224,10.637498 39.351562,0" id="g1s0" inkscape:label="g1s0"></path><path style="fill:none;stroke:#000000;stroke-width:1px;stroke-linecap:butt;stroke-linejoin:miter;stroke-opacity:1" d="m 39.34375,33.539062 c 0.01223,4.527744 -0.025,9.056001 0.01959,13.58341 0.04909,1.812526 0.161582,3.665444 0.777423,5.385404 0.545993,1.512276 1.632698,2.798178 2.989758,3.650459 1.236287,0.826344 2.707965,1.205012 4.165956,1.396324 1.431674,0.111776 2.867334,0.15546 4.301185,0.230497" id="g1s1" inkscape:label="g1s1"></path></g></svg>