<?xml version="1.0" encoding="UTF-8" standalone="no"?><svg width="95.699997" height="60.299999" version="1.1" id="svg3980" sodipodi:docname="21.svg" inkscape:version="1.2.1 (9c6d41e410, 2022-07-14)" xmlns:inkscape="http://www.inkscape.org/namespaces/inkscape" xmlns:sodipodi="http://sodipodi.sourceforge.net/DTD/sodipodi-0.dtd" xmlns="http://www.w3.org/2000/svg" xmlns:svg="http://www.w3.org/2000/svg"><defs id="defs3984"></defs><sodipodi:namedview id="namedview3982" pagecolor="#ffffff" bordercolor="#666666" borderopacity="1.0" inkscape:showpageshadow="2" inkscape:pageopacity="0.0" inkscape:pagecheckerboard="0" inkscape:deskcolor="#d1d1d1" showgrid="false" inkscape:zoom="1.809816" inkscape:cx="46.689828" inkscape:cy="35.915253" inkscape:window-width="1920" inkscape:window-height="1027" inkscape:window-x="-8" inkscape:window-y="-8" inkscape:window-maximized="1" inkscape:current-layer="svg3980"></sodipodi:namedview><g id="g0" inkscape:label="g0"><path d="m 33.6,60.3 v 0 Q 28,60.3 23.95,57.85 19.9,55.4 16.7,50.9 13.5,46.4 10.6,40.3 v 0 q -1,0 -2,0 v 0 Q 0,40.3 0,35.3 v 0 Q 0,33.2 1.4,32.15 2.8,31.1 5,31.1 v 0 q 4.6,0 8.4,3.7 v 0 q 6.9,-1.2 11.5,-5.25 4.6,-4.05 4.6,-10.75 v 0 Q 29.5,12.1 25.65,8.55 21.8,5 15.1,5 V 5 Q 11.8,5 8.6,5.7 5.4,6.4 1.8,8 V 8 L 0,3.3 Q 3.8,1.8 7.6,0.9 11.4,0 15.2,0 V 0 Q 24.1,0 29.55,4.9 35,9.8 35,18.8 v 0 q 0,5.5 -2.5,9.75 -2.5,4.25 -6.8,7.05 -4.3,2.8 -9.8,4 v 0 q 2.9,5.5 5.45,8.95 2.55,3.45 5.45,5.05 2.9,1.6 7,1.6 v 0 q 2.1,0 4.05,-0.55 1.95,-0.55 3.65,-1.45 v 0 l 1.9,4.7 q -4.5,2.4 -9.8,2.4 z" id="g0p0" inkscape:label="g0p0"></path><path style="fill:none;stroke:#000000;stroke-width:1px;stroke-linecap:butt;stroke-linejoin:miter;stroke-opacity:1" d="M 0.9279278,5.7323961 C 4.504795,4.4130108 8.0925106,2.9558522 11.935617,2.6616282 17.279081,2.1021439 23.167216,2.827949 27.342667,6.5025167 31.026034,9.5975667 32.419946,14.6045 32.25614,19.271063 32.29817,24.673097 29.392476,29.868139 24.958223,32.894192 21.309141,35.547744 16.902435,36.90382 12.508309,37.674486 9.7125761,37.878688 6.8005868,38.035443 4.0942094,37.170277 3.2116721,36.873734 2.5295086,36.674218 2.4711533,35.231301 2.4257489,33.629366 4.224952,33.58467 5.2372826,33.651835 c 2.5754222,0.101539 4.7918314,1.137666 6.4513284,3.187089 0.53139,0.656249 0.79125,1.359637 1.601684,3.149514 1.193161,2.649792 2.537682,4.765686 4.004989,7.185999 2.705054,4.346892 6.365138,8.646742 11.524275,9.969289 4.110265,1.099646 8.606202,0.712068 12.426754,-1.170887 l 1.183374,-0.480659" id="g0s0" sodipodi:nodetypes="cccccccccsccccc" inkscape:label="g0s0"></path></g><g id="g1" inkscape:label="g1" transform="matrix(0.99916289,0,0,1,55.7,0)"><path d="m 39.533094,60.3 h -1.000838 q -6.705614,0 -9.908295,-3 v 0 q -1.701424,-1.6 -2.602178,-4.1 -0.900754,-2.5 -0.900754,-6.7 v 0 -16.8 q -2.101759,1.1 -4.303603,1.65 -2.201843,0.55 -4.904105,0.55 v 0 q -4.603854,0 -8.2068699,-2 Q 4.103435,27.9 2.0517175,24.3 0,20.7 0,16 v 0 Q 0,11.5 1.9015918,7.9 3.8031837,4.3 7.2560741,2.15 10.708965,0 15.412902,0 v 0 q 3.603016,0 6.305279,1.15 2.702262,1.15 4.50377,3.25 v 0 q 4.203518,4.4 4.203518,13.2 v 0 28.6 q 0,3.2 0.550461,4.85 0.550461,1.65 1.651383,2.55 v 0 q 1.201005,1.2 3.202681,1.45 2.001675,0.25 4.203518,0.25 v 0 z M 5.4045242,16.2 v 0 q 0,5 2.9524715,7.9 2.9524713,2.9 7.6564093,2.9 v 0 q 5.104273,0 9.107624,-3.1 v 0 -5.5 q 0,-7.3 -2.602178,-10.5 v 0 Q 20.016756,5 15.512986,5 V 5 Q 10.909132,5 8.1568282,8.05 5.4045242,11.1 5.4045242,16.2 Z" id="g1p0" inkscape:label="g1p0" style="stroke-width:1.00042"></path><path style="fill:none;stroke:#000000;stroke-width:1px;stroke-linecap:butt;stroke-linejoin:miter;stroke-opacity:1" d="M 27.734375,25.402344 C 25.756709,26.950277 23.329695,27.71765 21.03125,28.644531 15.576844,30.39353 8.7144506,29.246919 5.201564,24.393573 1.8240793,19.608996 1.8682961,12.707759 5.0183834,7.8169969 8.3641756,2.5177303 15.836905,1.1645999 21.289062,3.7578087 c 4.399226,2.1524604 6.207372,7.2670493 6.390628,11.8828123 0.173031,8.652422 0.05371,17.311355 0.08088,25.96632 0.167563,4.310819 -0.756605,9.211188 1.986879,12.929315 C 32.13428,57.674575 36.442924,57.585369 40,57.824219" id="g1s0" sodipodi:nodetypes="aaaaaaaac" inkscape:label="g1s0"></path></g></svg>