<?xml version="1.0" encoding="UTF-8" standalone="no"?><svg width="95.300003" height="61.299999" version="1.1" id="svg4768" sodipodi:docname="28.svg" inkscape:version="1.2.1 (9c6d41e410, 2022-07-14)" xmlns:inkscape="http://www.inkscape.org/namespaces/inkscape" xmlns:sodipodi="http://sodipodi.sourceforge.net/DTD/sodipodi-0.dtd" xmlns="http://www.w3.org/2000/svg" xmlns:svg="http://www.w3.org/2000/svg"><defs id="defs4772"></defs><sodipodi:namedview id="namedview4770" pagecolor="#ffffff" bordercolor="#666666" borderopacity="1.0" inkscape:showpageshadow="2" inkscape:pageopacity="0.0" inkscape:pagecheckerboard="0" inkscape:deskcolor="#d1d1d1" showgrid="false" inkscape:zoom="1.809816" inkscape:cx="46.689828" inkscape:cy="35.915253" inkscape:window-width="1920" inkscape:window-height="1027" inkscape:window-x="-8" inkscape:window-y="-8" inkscape:window-maximized="1" inkscape:current-layer="svg4768"></sodipodi:namedview><g id="g0" inkscape:label="g0"><path d="m 33.6,60.3 v 0 Q 28,60.3 23.95,57.85 19.9,55.4 16.7,50.9 13.5,46.4 10.6,40.3 v 0 q -1,0 -2,0 v 0 Q 0,40.3 0,35.3 v 0 Q 0,33.2 1.4,32.15 2.8,31.1 5,31.1 v 0 q 4.6,0 8.4,3.7 v 0 q 6.9,-1.2 11.5,-5.25 4.6,-4.05 4.6,-10.75 v 0 Q 29.5,12.1 25.65,8.55 21.8,5 15.1,5 V 5 Q 11.8,5 8.6,5.7 5.4,6.4 1.8,8 V 8 L 0,3.3 Q 3.8,1.8 7.6,0.9 11.4,0 15.2,0 V 0 Q 24.1,0 29.55,4.9 35,9.8 35,18.8 v 0 q 0,5.5 -2.5,9.75 -2.5,4.25 -6.8,7.05 -4.3,2.8 -9.8,4 v 0 q 2.9,5.5 5.45,8.95 2.55,3.45 5.45,5.05 2.9,1.6 7,1.6 v 0 q 2.1,0 4.05,-0.55 1.95,-0.55 3.65,-1.45 v 0 l 1.9,4.7 q -4.5,2.4 -9.8,2.4 z" id="g0p0" inkscape:label="g0p0"></path><path style="fill:none;stroke:#000000;stroke-width:1px;stroke-linecap:butt;stroke-linejoin:miter;stroke-opacity:1" d="M 0.9279278,5.7323961 C 4.504795,4.4130108 8.0925106,2.9558522 11.935617,2.6616282 17.279081,2.1021439 23.167216,2.827949 27.342667,6.5025167 31.026034,9.5975667 32.419946,14.6045 32.25614,19.271063 32.29817,24.673097 29.392476,29.868139 24.958223,32.894192 21.309141,35.547744 16.902435,36.90382 12.508309,37.674486 9.7125761,37.878688 6.8005868,38.035443 4.0942094,37.170277 3.2116721,36.873734 2.5295086,36.674218 2.4711533,35.231301 2.4257489,33.629366 4.224952,33.58467 5.2372826,33.651835 c 2.5754222,0.101539 4.7918314,1.137666 6.4513284,3.187089 0.53139,0.656249 0.79125,1.359637 1.601684,3.149514 1.193161,2.649792 2.537682,4.765686 4.004989,7.185999 2.705054,4.346892 6.365138,8.646742 11.524275,9.969289 4.110265,1.099646 8.606202,0.712068 12.426754,-1.170887 l 1.183374,-0.480659" id="g0s0" sodipodi:nodetypes="cccccccccsccccc" inkscape:label="g0s0"></path></g><g id="g1" inkscape:label="g1" transform="translate(54)"><path d="m 19.5,61.3 v 0 q -5.6,0 -10,-2.05 Q 5.1,57.2 2.55,53.4 0,49.6 0,44.3 v 0 Q 0,40.6 1.15,37.4 2.3,34.2 4.95,30.75 7.6,27.3 12.2,22.8 v 0 l 23,-22.8 4,4 -21.6,20.9 q -4.4,4.3 -7.1,7.5 -2.7,3.2 -3.9,6 -1.2,2.8 -1.2,6 v 0 q 0,5.7 3.95,8.8 3.95,3.1 10.35,3.1 v 0 q 5.6,0 10.1,-1.6 4.5,-1.6 9,-4.4 v 0 l 2.5,4.6 q -4.5,2.8 -9.85,4.6 -5.35,1.8 -11.95,1.8 z" id="g1p0" inkscape:label="g1p0"></path><path style="fill:none;stroke:#000000;stroke-width:1px;stroke-linecap:butt;stroke-linejoin:miter;stroke-opacity:1" d="M 40.074219,52.644536 C 38.688423,53.368756 37.30336,54.094385 35.917113,54.81774 30.64812,57.654375 24.632255,59.011859 18.656689,58.77497 13.60131,58.658126 8.2288005,56.784032 5.1860018,52.553185 2.5188144,48.960825 2.2060949,44.11634 3.2537223,39.889137 4.5351182,34.68448 8.3424514,30.66595 11.894964,26.858933 20.259838,18.504221 28.755703,10.280124 37.171875,1.9765625" id="g1s0" inkscape:label="g1s0" sodipodi:nodetypes="ccccccc"></path></g></svg>