<?xml version="1.0" encoding="UTF-8" standalone="no"?><svg width="97.5" height="61.299999" version="1.1" id="svg4864" sodipodi:docname="29.svg" inkscape:version="1.2.1 (9c6d41e410, 2022-07-14)" xmlns:inkscape="http://www.inkscape.org/namespaces/inkscape" xmlns:sodipodi="http://sodipodi.sourceforge.net/DTD/sodipodi-0.dtd" xmlns="http://www.w3.org/2000/svg" xmlns:svg="http://www.w3.org/2000/svg"><defs id="defs4868"></defs><sodipodi:namedview id="namedview4866" pagecolor="#ffffff" bordercolor="#666666" borderopacity="1.0" inkscape:showpageshadow="2" inkscape:pageopacity="0.0" inkscape:pagecheckerboard="0" inkscape:deskcolor="#d1d1d1" showgrid="false" inkscape:zoom="1.809816" inkscape:cx="46.689828" inkscape:cy="35.915253" inkscape:window-width="1920" inkscape:window-height="1027" inkscape:window-x="-8" inkscape:window-y="-8" inkscape:window-maximized="1" inkscape:current-layer="svg4864"></sodipodi:namedview><g id="g0" inkscape:label="g0"><path d="m 33.6,60.3 v 0 Q 28,60.3 23.95,57.85 19.9,55.4 16.7,50.9 13.5,46.4 10.6,40.3 v 0 q -1,0 -2,0 v 0 Q 0,40.3 0,35.3 v 0 Q 0,33.2 1.4,32.15 2.8,31.1 5,31.1 v 0 q 4.6,0 8.4,3.7 v 0 q 6.9,-1.2 11.5,-5.25 4.6,-4.05 4.6,-10.75 v 0 Q 29.5,12.1 25.65,8.55 21.8,5 15.1,5 V 5 Q 11.8,5 8.6,5.7 5.4,6.4 1.8,8 V 8 L 0,3.3 Q 3.8,1.8 7.6,0.9 11.4,0 15.2,0 V 0 Q 24.1,0 29.55,4.9 35,9.8 35,18.8 v 0 q 0,5.5 -2.5,9.75 -2.5,4.25 -6.8,7.05 -4.3,2.8 -9.8,4 v 0 q 2.9,5.5 5.45,8.95 2.55,3.45 5.45,5.05 2.9,1.6 7,1.6 v 0 q 2.1,0 4.05,-0.55 1.95,-0.55 3.65,-1.45 v 0 l 1.9,4.7 q -4.5,2.4 -9.8,2.4 z" id="g0p0" inkscape:label="g0p0"></path><path style="fill:none;stroke:#000000;stroke-width:1px;stroke-linecap:butt;stroke-linejoin:miter;stroke-opacity:1" d="M 0.9279278,5.7323961 C 4.504795,4.4130108 8.0925106,2.9558522 11.935617,2.6616282 17.279081,2.1021439 23.167216,2.827949 27.342667,6.5025167 31.026034,9.5975667 32.419946,14.6045 32.25614,19.271063 32.29817,24.673097 29.392476,29.868139 24.958223,32.894192 21.309141,35.547744 16.902435,36.90382 12.508309,37.674486 9.7125761,37.878688 6.8005868,38.035443 4.0942094,37.170277 3.2116721,36.873734 2.5295086,36.674218 2.4711533,35.231301 2.4257489,33.629366 4.224952,33.58467 5.2372826,33.651835 c 2.5754222,0.101539 4.7918314,1.137666 6.4513284,3.187089 0.53139,0.656249 0.79125,1.359637 1.601684,3.149514 1.193161,2.649792 2.537682,4.765686 4.004989,7.185999 2.705054,4.346892 6.365138,8.646742 11.524275,9.969289 4.110265,1.099646 8.606202,0.712068 12.426754,-1.170887 l 1.183374,-0.480659" id="g0s0" sodipodi:nodetypes="cccccccccsccccc" inkscape:label="g0s0"></path></g><g id="g1" inkscape:label="g1" transform="translate(51.8,0.1)"><path d="m 29.1,61.2 v 0 Q 20.2,61.2 13.7,57.6 7.2,54 3.6,47.65 0,41.3 0,32.9 v 0 Q 0,20.9 7.9,12.6 15.8,4.3 29.4,0 v 0 l 1.7,4.9 Q 18.2,9.1 11.9,16.05 5.6,23 5.6,33.4 v 0 q 0,7.2 3,12.3 3,5.1 8.3,7.75 5.3,2.65 12.1,2.65 v 0 q 4.2,0 7.65,-0.7 3.45,-0.7 7.05,-2.1 v 0 l 2,4.8 Q 42,59.6 37.95,60.4 33.9,61.2 29.1,61.2 Z M 43.2,29.9 18.3,36.2 16.9,31 l 25,-6.2 z" id="g1p0" inkscape:label="g1p0"></path><path style="fill:none;stroke:#000000;stroke-width:1px;stroke-linecap:butt;stroke-linejoin:miter;stroke-opacity:1" d="M 30.24306,2.4346397 C 23.428426,4.85621 16.60741,7.8593486 11.306532,12.912447 6.1402615,17.613305 3.0858353,24.452727 2.8848546,31.420038 c -0.5046448,6.943599 1.4280592,14.298088 6.2976479,19.432494 4.8047105,5.277621 12.0491785,7.700597 19.0572855,7.788563 4.748156,0.08985 9.55349,-0.463119 13.997166,-2.211978 0.80513,-0.281063 1.61026,-0.562127 2.41539,-0.84319" id="g1s0" inkscape:label="g1s0"></path><path style="fill:none;stroke:#000000;stroke-width:1px;stroke-linecap:butt;stroke-linejoin:miter;stroke-opacity:1" d="m 17.597656,33.605469 c 8.316406,-2.088542 16.632813,-4.177083 24.949219,-6.265625" id="g1s1" inkscape:label="g1s1"></path></g></svg>