<?xml version="1.0" encoding="UTF-8" standalone="no"?><svg width="99.199997" height="69.199997" version="1.1" id="svg5768" sodipodi:docname="36.svg" inkscape:version="1.2.1 (9c6d41e410, 2022-07-14)" xmlns:inkscape="http://www.inkscape.org/namespaces/inkscape" xmlns:sodipodi="http://sodipodi.sourceforge.net/DTD/sodipodi-0.dtd" xmlns="http://www.w3.org/2000/svg" xmlns:svg="http://www.w3.org/2000/svg"><defs id="defs5772"></defs><sodipodi:namedview id="namedview5770" pagecolor="#ffffff" bordercolor="#666666" borderopacity="1.0" inkscape:showpageshadow="2" inkscape:pageopacity="0.0" inkscape:pagecheckerboard="0" inkscape:deskcolor="#d1d1d1" showgrid="false" inkscape:zoom="1.809816" inkscape:cx="51.110167" inkscape:cy="35.915253" inkscape:window-width="1920" inkscape:window-height="1027" inkscape:window-x="-8" inkscape:window-y="-8" inkscape:window-maximized="1" inkscape:current-layer="svg5768"></sodipodi:namedview><g id="g0" inkscape:label="g0"><path d="m 23.5,61.3 v 0 Q 15.7,61.3 10.05,57.2 4.4,53.1 0,45.8 v 0 L 4.5,43 q 4.5,7.2 9,10.25 4.5,3.05 9.9,3.05 v 0 q 5.9,0 9.6,-3.1 3.7,-3.1 3.7,-9 v 0 q 0,-4.3 -1.85,-7.55 Q 33,33.4 29.7,31 v 0 q -5.4,2.3 -13,2.8 v 0 l -1,-5.1 Q 25,28.1 30.2,25 q 5.2,-3.1 5.2,-9.3 v 0 Q 35.4,10.8 32.15,7.9 28.9,5 22.8,5 V 5 Q 19.2,5 15.85,5.8 12.5,6.6 8.9,8.3 v 0 L 7.2,3.6 Q 10.8,2 14.85,1 18.9,0 22.9,0 v 0 q 9,0 13.4,4.35 4.4,4.35 4.4,11.25 v 0 q 0,4.1 -1.65,7.3 -1.65,3.2 -4.65,5.4 v 0 q 3.7,3.3 5.65,7.35 Q 42,39.7 42,44.3 v 0 q 0,7.6 -4.95,12.3 -4.95,4.7 -13.55,4.7 z" id="g0p0" inkscape:label="g0p0"></path><path style="fill:none;stroke:#000000;stroke-width:1px;stroke-linecap:butt;stroke-linejoin:miter;stroke-opacity:1" d="M 8.0859375,6.0507812 C 11.096519,4.8646986 14.074574,3.4918529 17.298717,2.9916304 21.285555,2.3063178 25.46578,2.237531 29.375825,3.3782312 c 2.859255,0.8546074 5.430026,2.732003 6.911676,5.3477389 1.6451,2.7514589 2.061474,6.1193339 1.598792,9.2563699 -0.461682,3.2253 -2.279161,6.196127 -4.87462,8.152426 -1.313346,1.218224 -2.925877,2.049517 -4.625062,2.584143 -3.895271,1.526026 -8.07549,1.982233 -12.191305,2.523278" id="g0s0" inkscape:label="g0s0"></path><path style="fill:none;stroke:#000000;stroke-width:1px;stroke-linecap:butt;stroke-linejoin:miter;stroke-opacity:1" d="m 31.875,29.28125 c 1.090595,1.237504 2.429402,2.24241 3.41892,3.577257 2.596848,3.109946 4.043263,7.119213 4.068617,11.16803 0.08736,3.53847 -0.90771,7.216223 -3.340846,9.86441 -2.885072,3.328834 -7.37612,4.766333 -11.67116,4.895721 C 19.88718,58.96785 15.331933,57.796504 11.686219,55.170522 7.7589124,52.361243 4.991417,48.296454 2.2734375,44.382812" id="g0s1" inkscape:label="g0s1"></path></g><g id="g1" inkscape:label="g1" transform="translate(58.9)"><path d="m 25,69.2 v 0 Q 16.8,69.2 10.65,65.15 4.5,61.1 0,54.9 v 0 l 4.5,-3 q 9,12.4 20.4,12.4 v 0 q 4.6,0 7.25,-1.9 2.65,-1.9 2.65,-5.5 v 0 q 0,-3.3 -2.2,-5.7 -2.2,-2.4 -8.3,-5.1 v 0 q -5.4,-2.3 -8.4,-4.35 -3,-2.05 -4.2,-4.3 -1.2,-2.25 -1.2,-5.05 v 0 q 0,-2 0.8,-3.7 v 0 Q 7.5,26 5.05,22.45 2.6,18.9 2.6,14 v 0 Q 2.6,8.2 7.25,4.1 11.9,0 21.5,0 v 0 q 3.2,0 6.05,0.45 2.85,0.45 5.15,1.05 v 0 l -1,4.9 Q 29.6,5.8 27.1,5.4 24.6,5 21.7,5 V 5 Q 14.7,5 11.35,7.65 8,10.3 8,14.3 v 0 q 0,6.2 6.4,10.6 v 0 Q 18.5,22 25.4,22 v 0 q 5.4,0 9.8,0.9 v 0 l -1,4.9 q -4.3,-0.9 -8.7,-0.9 v 0 q -9.5,0 -9.5,5.7 v 0 q 0,2.7 2.2,4.55 2.2,1.85 7.8,4.25 v 0 q 7.9,3.5 11.1,7.1 3.2,3.6 3.2,8.5 v 0 q 0,5.5 -3.95,8.85 Q 32.4,69.2 25,69.2 Z" id="g1p0" inkscape:label="g1p0"></path><path style="fill:none;stroke:#000000;stroke-width:1px;stroke-linecap:butt;stroke-linejoin:miter;stroke-opacity:1" d="M 32.195312,3.9570313 C 29.517516,3.3920548 26.853519,2.6826719 24.104944,2.5703363 20.290481,2.3713017 16.348502,2.5087701 12.740764,3.8815862 10.852407,4.6021219 9.1450766,5.7716167 7.8412337,7.3207331 6.3610581,8.9609826 5.5203146,11.124923 5.3347674,13.314464 c -0.1747911,2.938974 0.5324158,5.976233 2.3158193,8.354966 1.5093072,2.172054 3.4870943,4.015319 5.7048803,5.447757 1.071865,0.493748 2.232636,0.166225 3.079957,-0.522047 2.313744,-1.519424 5.13677,-1.852468 7.82892,-2.103682 3.504801,-0.215997 6.961276,0.519358 10.419248,0.961672" id="g1s0" inkscape:label="g1s0" sodipodi:nodetypes="cccccccccc"></path><path style="fill:none;stroke:#000000;stroke-width:1px;stroke-linecap:butt;stroke-linejoin:miter;stroke-opacity:1" d="m 14.650369,27.477728 c -0.705271,1.912778 -1.668325,3.883477 -1.33497,5.978125 0.188021,2.727507 2.064459,4.993078 4.297216,6.411016 3.00607,1.755238 6.128651,3.304418 9.315052,4.702674 3.400531,1.680648 6.992427,3.566981 9.094891,6.854879 2.186574,3.547622 2.169877,8.634874 -0.768645,11.763078 -2.622133,2.820118 -6.681811,3.570434 -10.3762,3.558246 -4.980966,0.03675 -9.923519,-1.625417 -13.910245,-4.602804 C 7.6139201,59.718447 4.8262876,56.625964 2.34375,53.335937" id="g1s1" inkscape:label="g1s1"></path></g></svg>