<?xml version="1.0" encoding="UTF-8" standalone="no"?><svg width="102.1" height="61.299999" version="1.1" id="svg6211" sodipodi:docname="39.svg" inkscape:version="1.2.1 (9c6d41e410, 2022-07-14)" xmlns:inkscape="http://www.inkscape.org/namespaces/inkscape" xmlns:sodipodi="http://sodipodi.sourceforge.net/DTD/sodipodi-0.dtd" xmlns="http://www.w3.org/2000/svg" xmlns:svg="http://www.w3.org/2000/svg"><defs id="defs6215"></defs><sodipodi:namedview id="namedview6213" pagecolor="#ffffff" bordercolor="#666666" borderopacity="1.0" inkscape:showpageshadow="2" inkscape:pageopacity="0.0" inkscape:pagecheckerboard="0" inkscape:deskcolor="#d1d1d1" showgrid="false" inkscape:zoom="1.809816" inkscape:cx="51.110167" inkscape:cy="35.915253" inkscape:window-width="1920" inkscape:window-height="1027" inkscape:window-x="-8" inkscape:window-y="-8" inkscape:window-maximized="1" inkscape:current-layer="svg6211"></sodipodi:namedview><g id="g0" inkscape:label="g0"><path d="m 23.5,61.3 v 0 Q 15.7,61.3 10.05,57.2 4.4,53.1 0,45.8 v 0 L 4.5,43 q 4.5,7.2 9,10.25 4.5,3.05 9.9,3.05 v 0 q 5.9,0 9.6,-3.1 3.7,-3.1 3.7,-9 v 0 q 0,-4.3 -1.85,-7.55 Q 33,33.4 29.7,31 v 0 q -5.4,2.3 -13,2.8 v 0 l -1,-5.1 Q 25,28.1 30.2,25 q 5.2,-3.1 5.2,-9.3 v 0 Q 35.4,10.8 32.15,7.9 28.9,5 22.8,5 V 5 Q 19.2,5 15.85,5.8 12.5,6.6 8.9,8.3 v 0 L 7.2,3.6 Q 10.8,2 14.85,1 18.9,0 22.9,0 v 0 q 9,0 13.4,4.35 4.4,4.35 4.4,11.25 v 0 q 0,4.1 -1.65,7.3 -1.65,3.2 -4.65,5.4 v 0 q 3.7,3.3 5.65,7.35 Q 42,39.7 42,44.3 v 0 q 0,7.6 -4.95,12.3 -4.95,4.7 -13.55,4.7 z" id="g0p0" inkscape:label="g0p0"></path><path style="fill:none;stroke:#000000;stroke-width:1px;stroke-linecap:butt;stroke-linejoin:miter;stroke-opacity:1" d="M 8.0859375,6.0507812 C 11.096519,4.8646986 14.074574,3.4918529 17.298717,2.9916304 21.285555,2.3063178 25.46578,2.237531 29.375825,3.3782312 c 2.859255,0.8546074 5.430026,2.732003 6.911676,5.3477389 1.6451,2.7514589 2.061474,6.1193339 1.598792,9.2563699 -0.461682,3.2253 -2.279161,6.196127 -4.87462,8.152426 -1.313346,1.218224 -2.925877,2.049517 -4.625062,2.584143 -3.895271,1.526026 -8.07549,1.982233 -12.191305,2.523278" id="g0s0" inkscape:label="g0s0"></path><path style="fill:none;stroke:#000000;stroke-width:1px;stroke-linecap:butt;stroke-linejoin:miter;stroke-opacity:1" d="m 31.875,29.28125 c 1.090595,1.237504 2.429402,2.24241 3.41892,3.577257 2.596848,3.109946 4.043263,7.119213 4.068617,11.16803 0.08736,3.53847 -0.90771,7.216223 -3.340846,9.86441 -2.885072,3.328834 -7.37612,4.766333 -11.67116,4.895721 C 19.88718,58.96785 15.331933,57.796504 11.686219,55.170522 7.7589124,52.361243 4.991417,48.296454 2.2734375,44.382812" id="g0s1" inkscape:label="g0s1"></path></g><g id="g1" inkscape:label="g1" transform="translate(56.4,0.1)"><path d="m 29.1,61.2 v 0 Q 20.2,61.2 13.7,57.6 7.2,54 3.6,47.65 0,41.3 0,32.9 v 0 Q 0,20.9 7.9,12.6 15.8,4.3 29.4,0 v 0 l 1.7,4.9 Q 18.2,9.1 11.9,16.05 5.6,23 5.6,33.4 v 0 q 0,7.2 3,12.3 3,5.1 8.3,7.75 5.3,2.65 12.1,2.65 v 0 q 4.2,0 7.65,-0.7 3.45,-0.7 7.05,-2.1 v 0 l 2,4.8 Q 42,59.6 37.95,60.4 33.9,61.2 29.1,61.2 Z M 43.2,29.9 18.3,36.2 16.9,31 l 25,-6.2 z" id="g1p0" inkscape:label="g1p0"></path><path style="fill:none;stroke:#000000;stroke-width:1px;stroke-linecap:butt;stroke-linejoin:miter;stroke-opacity:1" d="M 30.24306,2.4346397 C 23.428426,4.85621 16.60741,7.8593486 11.306532,12.912447 6.1402615,17.613305 3.0858353,24.452727 2.8848546,31.420038 c -0.5046448,6.943599 1.4280592,14.298088 6.2976479,19.432494 4.8047105,5.277621 12.0491785,7.700597 19.0572855,7.788563 4.748156,0.08985 9.55349,-0.463119 13.997166,-2.211978 0.80513,-0.281063 1.61026,-0.562127 2.41539,-0.84319" id="g1s0" inkscape:label="g1s0"></path><path style="fill:none;stroke:#000000;stroke-width:1px;stroke-linecap:butt;stroke-linejoin:miter;stroke-opacity:1" d="m 17.597656,33.605469 c 8.316406,-2.088542 16.632813,-4.177083 24.949219,-6.265625" id="g1s1" inkscape:label="g1s1"></path></g></svg>