<?xml version="1.0" encoding="UTF-8" standalone="no"?><svg width="103.5" height="61.299999" version="1.1" id="svg7589" sodipodi:docname="47.svg" inkscape:version="1.2.1 (9c6d41e410, 2022-07-14)" xmlns:inkscape="http://www.inkscape.org/namespaces/inkscape" xmlns:sodipodi="http://sodipodi.sourceforge.net/DTD/sodipodi-0.dtd" xmlns="http://www.w3.org/2000/svg" xmlns:svg="http://www.w3.org/2000/svg"><defs id="defs7593"></defs><sodipodi:namedview id="namedview7591" pagecolor="#ffffff" bordercolor="#666666" borderopacity="1.0" inkscape:showpageshadow="2" inkscape:pageopacity="0.0" inkscape:pagecheckerboard="0" inkscape:deskcolor="#d1d1d1" showgrid="false" inkscape:zoom="1.809816" inkscape:cx="53.872879" inkscape:cy="35.915253" inkscape:window-width="1920" inkscape:window-height="1027" inkscape:window-x="-8" inkscape:window-y="-8" inkscape:window-maximized="1" inkscape:current-layer="svg7589"></sodipodi:namedview><g id="g0" inkscape:label="g0"><path d="m 25.3,61.3 v 0 q -5.1,0 -8.35,-2.05 Q 13.7,57.2 12.15,53.95 10.6,50.7 10.6,47 v 0 q 0,-5.2 2.65,-10.15 Q 15.9,31.9 22.7,25.2 v 0 Q 18.6,21.1 13.05,15.85 7.5,10.6 0,3.9 v 0 L 3.5,0 q 7.3,6.6 12.8,11.9 5.5,5.3 9.8,9.9 v 0 Q 30.5,17.4 36,12.05 41.5,6.7 48.6,0 v 0 l 3.5,3.9 Q 44.8,10.7 39.25,15.95 33.7,21.2 29.5,25.3 v 0 q 5.9,6.5 8.2,11.3 2.3,4.8 2.3,10.2 v 0 q 0,3.8 -1.5,7.1 -1.5,3.3 -4.75,5.35 -3.25,2.05 -8.45,2.05 z m 0,-4.9 v 0 q 4.6,0 7,-2.7 2.4,-2.7 2.4,-7 v 0 q 0,-4.3 -1.85,-8.25 Q 31,34.5 26,28.9 v 0 q -5.7,5.8 -7.9,9.8 -2.2,4 -2.2,8.4 v 0 q 0,4.2 2.4,6.75 2.4,2.55 7,2.55 z" id="g0p0" inkscape:label="g0p0"></path><path style="fill:none;stroke:#000000;stroke-width:1px;stroke-linecap:butt;stroke-linejoin:miter;stroke-opacity:1" d="M 1.7382812,1.9648437 C 9.7217767,9.1602374 17.607549,16.47103 25.086203,24.194316 c 3.795286,4.108305 7.696419,8.29258 10.187591,13.355382 1.995534,4.299906 2.799865,9.392657 1.324488,13.975184 -1.189818,3.887507 -4.83448,6.741853 -8.854411,7.154474 -4.187964,0.593203 -9.00815,-0.198517 -11.822543,-3.637737 C 12.664026,51.131851 12.747086,45.487158 14.294897,40.881023 16.503824,34.814985 21.271511,30.209878 25.685535,25.690801 33.725778,17.593965 42.041738,9.7751631 50.351548,1.9570312" id="g0s0" inkscape:label="g0s0"></path></g><g id="g1" inkscape:label="g1" transform="translate(56.9)"><path d="m 25.4,61.2 v 0 Q 15,61.2 8.75,54.4 2.5,47.6 0,32.9 v 0 l 5.4,-0.7 q 1.9,11.7 6.55,17.9 4.65,6.2 13.25,6.2 v 0 q 6,0 9.45,-3.1 3.45,-3.1 4.9,-8.9 Q 41,38.5 41,30.6 v 0 Q 41,24.1 39.4,18.25 37.8,12.4 34.3,8.7 30.8,5 25.1,5 v 0 q -4.6,0 -7.4,2.6 -2.8,2.6 -2.8,7 v 0 q 0,7 6.3,10.2 6.3,3.2 17.7,3.2 v 0 l -0.2,5 Q 24.5,33 16.95,28.2 9.4,23.4 9.4,14.4 v 0 Q 9.4,8.4 13.5,4.2 17.6,0 25.2,0 v 0 q 6.9,0 11.65,3.95 4.75,3.95 7.25,10.95 2.5,7 2.5,16.3 v 0 q 0,14.9 -5.4,22.45 -5.4,7.55 -15.8,7.55 z" id="g1p0" inkscape:label="g1p0"></path><path style="fill:none;stroke:#000000;stroke-width:1px;stroke-linecap:butt;stroke-linejoin:miter;stroke-opacity:1" d="M 38.795929,30.444579 C 32.197331,30.219008 25.290112,29.856412 19.350414,26.673335 16.322782,24.979232 13.684666,22.309154 12.763954,18.886643 11.433943,14.426797 12.161902,9.0666502 15.703839,5.8000384 c 3.370666,-3.2294111 8.506738,-3.8518876 12.910638,-2.857921 3.353027,0.5934252 6.459672,2.3643795 8.581412,5.042554 4.154576,4.9772276 5.76332,11.5258256 6.38702,17.8478346 0.531432,7.214177 0.240664,14.644732 -2.102404,21.544809 -1.593554,4.440994 -4.743991,8.589744 -9.30365,10.234074 -4.489959,1.590627 -9.527376,1.469979 -14.039227,0.026 C 13.160297,56.002249 9.3207534,51.94051 7.1651379,47.255333 4.8186942,42.651611 3.7295704,37.567869 2.6958446,32.543485" id="g1s0" inkscape:label="g1s0"></path></g></svg>