<?xml version="1.0" encoding="UTF-8" standalone="no"?><svg width="105" height="61.299999" version="1.1" id="svg7810" sodipodi:docname="49.svg" inkscape:version="1.2.1 (9c6d41e410, 2022-07-14)" xmlns:inkscape="http://www.inkscape.org/namespaces/inkscape" xmlns:sodipodi="http://sodipodi.sourceforge.net/DTD/sodipodi-0.dtd" xmlns="http://www.w3.org/2000/svg" xmlns:svg="http://www.w3.org/2000/svg"><defs id="defs7814"></defs><sodipodi:namedview id="namedview7812" pagecolor="#ffffff" bordercolor="#666666" borderopacity="1.0" inkscape:showpageshadow="2" inkscape:pageopacity="0.0" inkscape:pagecheckerboard="0" inkscape:deskcolor="#d1d1d1" showgrid="false" inkscape:zoom="1.809816" inkscape:cx="53.872879" inkscape:cy="35.915253" inkscape:window-width="1920" inkscape:window-height="1027" inkscape:window-x="-8" inkscape:window-y="-8" inkscape:window-maximized="1" inkscape:current-layer="svg7810"></sodipodi:namedview><g id="g0" inkscape:label="g0"><path d="m 25.3,61.3 v 0 q -5.1,0 -8.35,-2.05 Q 13.7,57.2 12.15,53.95 10.6,50.7 10.6,47 v 0 q 0,-5.2 2.65,-10.15 Q 15.9,31.9 22.7,25.2 v 0 Q 18.6,21.1 13.05,15.85 7.5,10.6 0,3.9 v 0 L 3.5,0 q 7.3,6.6 12.8,11.9 5.5,5.3 9.8,9.9 v 0 Q 30.5,17.4 36,12.05 41.5,6.7 48.6,0 v 0 l 3.5,3.9 Q 44.8,10.7 39.25,15.95 33.7,21.2 29.5,25.3 v 0 q 5.9,6.5 8.2,11.3 2.3,4.8 2.3,10.2 v 0 q 0,3.8 -1.5,7.1 -1.5,3.3 -4.75,5.35 -3.25,2.05 -8.45,2.05 z m 0,-4.9 v 0 q 4.6,0 7,-2.7 2.4,-2.7 2.4,-7 v 0 q 0,-4.3 -1.85,-8.25 Q 31,34.5 26,28.9 v 0 q -5.7,5.8 -7.9,9.8 -2.2,4 -2.2,8.4 v 0 q 0,4.2 2.4,6.75 2.4,2.55 7,2.55 z" id="g0p0" inkscape:label="g0p0"></path><path style="fill:none;stroke:#000000;stroke-width:1px;stroke-linecap:butt;stroke-linejoin:miter;stroke-opacity:1" d="M 1.7382812,1.9648437 C 9.7217767,9.1602374 17.607549,16.47103 25.086203,24.194316 c 3.795286,4.108305 7.696419,8.29258 10.187591,13.355382 1.995534,4.299906 2.799865,9.392657 1.324488,13.975184 -1.189818,3.887507 -4.83448,6.741853 -8.854411,7.154474 -4.187964,0.593203 -9.00815,-0.198517 -11.822543,-3.637737 C 12.664026,51.131851 12.747086,45.487158 14.294897,40.881023 16.503824,34.814985 21.271511,30.209878 25.685535,25.690801 33.725778,17.593965 42.041738,9.7751631 50.351548,1.9570312" id="g0s0" inkscape:label="g0s0"></path></g><g id="g1" inkscape:label="g1" transform="translate(59.3,0.1)"><path d="m 29.1,61.2 v 0 Q 20.2,61.2 13.7,57.6 7.2,54 3.6,47.65 0,41.3 0,32.9 v 0 Q 0,20.9 7.9,12.6 15.8,4.3 29.4,0 v 0 l 1.7,4.9 Q 18.2,9.1 11.9,16.05 5.6,23 5.6,33.4 v 0 q 0,7.2 3,12.3 3,5.1 8.3,7.75 5.3,2.65 12.1,2.65 v 0 q 4.2,0 7.65,-0.7 3.45,-0.7 7.05,-2.1 v 0 l 2,4.8 Q 42,59.6 37.95,60.4 33.9,61.2 29.1,61.2 Z M 43.2,29.9 18.3,36.2 16.9,31 l 25,-6.2 z" id="g1p0" inkscape:label="g1p0"></path><path style="fill:none;stroke:#000000;stroke-width:1px;stroke-linecap:butt;stroke-linejoin:miter;stroke-opacity:1" d="M 30.24306,2.4346397 C 23.428426,4.85621 16.60741,7.8593486 11.306532,12.912447 6.1402615,17.613305 3.0858353,24.452727 2.8848546,31.420038 c -0.5046448,6.943599 1.4280592,14.298088 6.2976479,19.432494 4.8047105,5.277621 12.0491785,7.700597 19.0572855,7.788563 4.748156,0.08985 9.55349,-0.463119 13.997166,-2.211978 0.80513,-0.281063 1.61026,-0.562127 2.41539,-0.84319" id="g1s0" inkscape:label="g1s0"></path><path style="fill:none;stroke:#000000;stroke-width:1px;stroke-linecap:butt;stroke-linejoin:miter;stroke-opacity:1" d="m 17.597656,33.605469 c 8.316406,-2.088542 16.632813,-4.177083 24.949219,-6.265625" id="g1s1" inkscape:label="g1s1"></path></g></svg>