<?xml version="1.0" encoding="UTF-8" standalone="no"?><svg width="100.3" height="69.199997" version="1.1" id="svg10811" sodipodi:docname="76.svg" inkscape:version="1.2.1 (9c6d41e410, 2022-07-14)" xmlns:inkscape="http://www.inkscape.org/namespaces/inkscape" xmlns:sodipodi="http://sodipodi.sourceforge.net/DTD/sodipodi-0.dtd" xmlns="http://www.w3.org/2000/svg" xmlns:svg="http://www.w3.org/2000/svg"><defs id="defs10815"></defs><sodipodi:namedview id="namedview10813" pagecolor="#ffffff" bordercolor="#666666" borderopacity="1.0" inkscape:showpageshadow="2" inkscape:pageopacity="0.0" inkscape:pagecheckerboard="0" inkscape:deskcolor="#d1d1d1" showgrid="false" inkscape:zoom="1.809816" inkscape:cx="52.215252" inkscape:cy="35.915253" inkscape:window-width="1920" inkscape:window-height="1027" inkscape:window-x="-8" inkscape:window-y="-8" inkscape:window-maximized="1" inkscape:current-layer="svg10811"></sodipodi:namedview><g id="g0" inkscape:label="g0"><path d="m 25.4,61.2 v 0 Q 15,61.2 8.75,54.4 2.5,47.6 0,32.9 v 0 l 5.4,-0.7 q 1.9,11.7 6.55,17.9 4.65,6.2 13.25,6.2 v 0 q 6,0 9.45,-3.1 3.45,-3.1 4.9,-8.9 Q 41,38.5 41,30.6 v 0 Q 41,24.1 39.4,18.25 37.8,12.4 34.3,8.7 30.8,5 25.1,5 v 0 q -4.6,0 -7.4,2.6 -2.8,2.6 -2.8,7 v 0 q 0,7 6.3,10.2 6.3,3.2 17.7,3.2 v 0 l -0.2,5 Q 24.5,33 16.95,28.2 9.4,23.4 9.4,14.4 v 0 Q 9.4,8.4 13.5,4.2 17.6,0 25.2,0 v 0 q 6.9,0 11.65,3.95 4.75,3.95 7.25,10.95 2.5,7 2.5,16.3 v 0 q 0,14.9 -5.4,22.45 -5.4,7.55 -15.8,7.55 z" id="g0p0" inkscape:label="g0p0"></path><path style="fill:none;stroke:#000000;stroke-width:1px;stroke-linecap:butt;stroke-linejoin:miter;stroke-opacity:1" d="M 38.795929,30.444579 C 32.197331,30.219008 25.290112,29.856412 19.350414,26.673335 16.322782,24.979232 13.684666,22.309154 12.763954,18.886643 11.433943,14.426797 12.161902,9.0666502 15.703839,5.8000384 c 3.370666,-3.2294111 8.506738,-3.8518876 12.910638,-2.857921 3.353027,0.5934252 6.459672,2.3643795 8.581412,5.042554 4.154576,4.9772276 5.76332,11.5258256 6.38702,17.8478346 0.531432,7.214177 0.240664,14.644732 -2.102404,21.544809 -1.593554,4.440994 -4.743991,8.589744 -9.30365,10.234074 -4.489959,1.590627 -9.527376,1.469979 -14.039227,0.026 C 13.160297,56.002249 9.3207534,51.94051 7.1651379,47.255333 4.8186942,42.651611 3.7295704,37.567869 2.6958446,32.543485" id="g0s0" inkscape:label="g0s0"></path></g><g id="g1" inkscape:label="g1" transform="translate(60)"><path d="m 25,69.2 v 0 Q 16.8,69.2 10.65,65.15 4.5,61.1 0,54.9 v 0 l 4.5,-3 q 9,12.4 20.4,12.4 v 0 q 4.6,0 7.25,-1.9 2.65,-1.9 2.65,-5.5 v 0 q 0,-3.3 -2.2,-5.7 -2.2,-2.4 -8.3,-5.1 v 0 q -5.4,-2.3 -8.4,-4.35 -3,-2.05 -4.2,-4.3 -1.2,-2.25 -1.2,-5.05 v 0 q 0,-2 0.8,-3.7 v 0 Q 7.5,26 5.05,22.45 2.6,18.9 2.6,14 v 0 Q 2.6,8.2 7.25,4.1 11.9,0 21.5,0 v 0 q 3.2,0 6.05,0.45 2.85,0.45 5.15,1.05 v 0 l -1,4.9 Q 29.6,5.8 27.1,5.4 24.6,5 21.7,5 V 5 Q 14.7,5 11.35,7.65 8,10.3 8,14.3 v 0 q 0,6.2 6.4,10.6 v 0 Q 18.5,22 25.4,22 v 0 q 5.4,0 9.8,0.9 v 0 l -1,4.9 q -4.3,-0.9 -8.7,-0.9 v 0 q -9.5,0 -9.5,5.7 v 0 q 0,2.7 2.2,4.55 2.2,1.85 7.8,4.25 v 0 q 7.9,3.5 11.1,7.1 3.2,3.6 3.2,8.5 v 0 q 0,5.5 -3.95,8.85 Q 32.4,69.2 25,69.2 Z" id="g1p0" inkscape:label="g1p0"></path><path style="fill:none;stroke:#000000;stroke-width:1px;stroke-linecap:butt;stroke-linejoin:miter;stroke-opacity:1" d="M 32.195312,3.9570313 C 29.517516,3.3920548 26.853519,2.6826719 24.104944,2.5703363 20.290481,2.3713017 16.348502,2.5087701 12.740764,3.8815862 10.852407,4.6021219 9.1450766,5.7716167 7.8412337,7.3207331 6.3610581,8.9609826 5.5203146,11.124923 5.3347674,13.314464 c -0.1747911,2.938974 0.5324158,5.976233 2.3158193,8.354966 1.5093072,2.172054 3.4870943,4.015319 5.7048803,5.447757 1.071865,0.493748 2.232636,0.166225 3.079957,-0.522047 2.313744,-1.519424 5.13677,-1.852468 7.82892,-2.103682 3.504801,-0.215997 6.961276,0.519358 10.419248,0.961672" id="g1s0" inkscape:label="g1s0" sodipodi:nodetypes="cccccccccc"></path><path style="fill:none;stroke:#000000;stroke-width:1px;stroke-linecap:butt;stroke-linejoin:miter;stroke-opacity:1" d="m 14.650369,27.477728 c -0.705271,1.912778 -1.668325,3.883477 -1.33497,5.978125 0.188021,2.727507 2.064459,4.993078 4.297216,6.411016 3.00607,1.755238 6.128651,3.304418 9.315052,4.702674 3.400531,1.680648 6.992427,3.566981 9.094891,6.854879 2.186574,3.547622 2.169877,8.634874 -0.768645,11.763078 -2.622133,2.820118 -6.681811,3.570434 -10.3762,3.558246 -4.980966,0.03675 -9.923519,-1.625417 -13.910245,-4.602804 C 7.6139201,59.718447 4.8262876,56.625964 2.34375,53.335937" id="g1s1" inkscape:label="g1s1"></path></g></svg>