<?xml version="1.0" encoding="UTF-8" standalone="no"?><svg width="97.900002" height="69.199997" version="1.1" id="svg1250" sodipodi:docname="96.svg" inkscape:version="1.2.1 (9c6d41e410, 2022-07-14)" xmlns:inkscape="http://www.inkscape.org/namespaces/inkscape" xmlns:sodipodi="http://sodipodi.sourceforge.net/DTD/sodipodi-0.dtd" xmlns="http://www.w3.org/2000/svg" xmlns:svg="http://www.w3.org/2000/svg"><defs id="defs1254"></defs><sodipodi:namedview id="namedview1252" pagecolor="#ffffff" bordercolor="#666666" borderopacity="1.0" inkscape:showpageshadow="2" inkscape:pageopacity="0.0" inkscape:pagecheckerboard="0" inkscape:deskcolor="#d1d1d1" showgrid="false" inkscape:zoom="1.809816" inkscape:cx="50.005082" inkscape:cy="35.915253" inkscape:window-width="1920" inkscape:window-height="1027" inkscape:window-x="-8" inkscape:window-y="-8" inkscape:window-maximized="1" inkscape:current-layer="svg1250"></sodipodi:namedview><g id="g0" inkscape:label="g0" transform="translate(0,0.1)"><path d="m 29.1,61.2 v 0 Q 20.2,61.2 13.7,57.6 7.2,54 3.6,47.65 0,41.3 0,32.9 v 0 Q 0,20.9 7.9,12.6 15.8,4.3 29.4,0 v 0 l 1.7,4.9 Q 18.2,9.1 11.9,16.05 5.6,23 5.6,33.4 v 0 q 0,7.2 3,12.3 3,5.1 8.3,7.75 5.3,2.65 12.1,2.65 v 0 q 4.2,0 7.65,-0.7 3.45,-0.7 7.05,-2.1 v 0 l 2,4.8 Q 42,59.6 37.95,60.4 33.9,61.2 29.1,61.2 Z M 43.2,29.9 18.3,36.2 16.9,31 l 25,-6.2 z" id="g0p0" inkscape:label="g0p0"></path><path style="fill:none;stroke:#000000;stroke-width:1px;stroke-linecap:butt;stroke-linejoin:miter;stroke-opacity:1" d="M 30.24306,2.4346397 C 23.428426,4.85621 16.60741,7.8593486 11.306532,12.912447 6.1402615,17.613305 3.0858353,24.452727 2.8848546,31.420038 c -0.5046448,6.943599 1.4280592,14.298088 6.2976479,19.432494 4.8047105,5.277621 12.0491785,7.700597 19.0572855,7.788563 4.748156,0.08985 9.55349,-0.463119 13.997166,-2.211978 0.80513,-0.281063 1.61026,-0.562127 2.41539,-0.84319" id="g0s0" inkscape:label="g0s0"></path><path style="fill:none;stroke:#000000;stroke-width:1px;stroke-linecap:butt;stroke-linejoin:miter;stroke-opacity:1" d="m 17.597656,33.605469 c 8.316406,-2.088542 16.632813,-4.177083 24.949219,-6.265625" id="g0s1" inkscape:label="g0s1"></path></g><g id="g1" inkscape:label="g1" transform="translate(57.6)"><path d="m 25,69.2 v 0 Q 16.8,69.2 10.65,65.15 4.5,61.1 0,54.9 v 0 l 4.5,-3 q 9,12.4 20.4,12.4 v 0 q 4.6,0 7.25,-1.9 2.65,-1.9 2.65,-5.5 v 0 q 0,-3.3 -2.2,-5.7 -2.2,-2.4 -8.3,-5.1 v 0 q -5.4,-2.3 -8.4,-4.35 -3,-2.05 -4.2,-4.3 -1.2,-2.25 -1.2,-5.05 v 0 q 0,-2 0.8,-3.7 v 0 Q 7.5,26 5.05,22.45 2.6,18.9 2.6,14 v 0 Q 2.6,8.2 7.25,4.1 11.9,0 21.5,0 v 0 q 3.2,0 6.05,0.45 2.85,0.45 5.15,1.05 v 0 l -1,4.9 Q 29.6,5.8 27.1,5.4 24.6,5 21.7,5 V 5 Q 14.7,5 11.35,7.65 8,10.3 8,14.3 v 0 q 0,6.2 6.4,10.6 v 0 Q 18.5,22 25.4,22 v 0 q 5.4,0 9.8,0.9 v 0 l -1,4.9 q -4.3,-0.9 -8.7,-0.9 v 0 q -9.5,0 -9.5,5.7 v 0 q 0,2.7 2.2,4.55 2.2,1.85 7.8,4.25 v 0 q 7.9,3.5 11.1,7.1 3.2,3.6 3.2,8.5 v 0 q 0,5.5 -3.95,8.85 Q 32.4,69.2 25,69.2 Z" id="g1p0" inkscape:label="g1p0"></path><path style="fill:none;stroke:#000000;stroke-width:1px;stroke-linecap:butt;stroke-linejoin:miter;stroke-opacity:1" d="M 32.195312,3.9570313 C 29.517516,3.3920548 26.853519,2.6826719 24.104944,2.5703363 20.290481,2.3713017 16.348502,2.5087701 12.740764,3.8815862 10.852407,4.6021219 9.1450766,5.7716167 7.8412337,7.3207331 6.3610581,8.9609826 5.5203146,11.124923 5.3347674,13.314464 c -0.1747911,2.938974 0.5324158,5.976233 2.3158193,8.354966 1.5093072,2.172054 3.4870943,4.015319 5.7048803,5.447757 1.071865,0.493748 2.232636,0.166225 3.079957,-0.522047 2.313744,-1.519424 5.13677,-1.852468 7.82892,-2.103682 3.504801,-0.215997 6.961276,0.519358 10.419248,0.961672" id="g1s0" inkscape:label="g1s0" sodipodi:nodetypes="cccccccccc"></path><path style="fill:none;stroke:#000000;stroke-width:1px;stroke-linecap:butt;stroke-linejoin:miter;stroke-opacity:1" d="m 14.650369,27.477728 c -0.705271,1.912778 -1.668325,3.883477 -1.33497,5.978125 0.188021,2.727507 2.064459,4.993078 4.297216,6.411016 3.00607,1.755238 6.128651,3.304418 9.315052,4.702674 3.400531,1.680648 6.992427,3.566981 9.094891,6.854879 2.186574,3.547622 2.169877,8.634874 -0.768645,11.763078 -2.622133,2.820118 -6.681811,3.570434 -10.3762,3.558246 -4.980966,0.03675 -9.923519,-1.625417 -13.910245,-4.602804 C 7.6139201,59.718447 4.8262876,56.625964 2.34375,53.335937" id="g1s1" inkscape:label="g1s1"></path></g></svg>