<?xml version="1.0" encoding="UTF-8" standalone="no"?><svg width="45.700001" height="61.200001" version="1.1" id="svg4" sodipodi:docname="9.svg" inkscape:version="1.2.1 (9c6d41e410, 2022-07-14)" xmlns:inkscape="http://www.inkscape.org/namespaces/inkscape" xmlns:sodipodi="http://sodipodi.sourceforge.net/DTD/sodipodi-0.dtd" xmlns="http://www.w3.org/2000/svg" xmlns:svg="http://www.w3.org/2000/svg"><defs id="defs8"></defs><sodipodi:namedview id="namedview6" pagecolor="#ffffff" bordercolor="#666666" borderopacity="1.0" inkscape:showpageshadow="2" inkscape:pageopacity="0.0" inkscape:pagecheckerboard="0" inkscape:deskcolor="#d1d1d1" showgrid="false" inkscape:zoom="16" inkscape:cx="33.03125" inkscape:cy="21.6875" inkscape:window-width="1920" inkscape:window-height="1027" inkscape:window-x="-8" inkscape:window-y="-8" inkscape:window-maximized="1" inkscape:current-layer="svg4"></sodipodi:namedview><g id="g0" inkscape:label="g0"><path d="m 29.1,61.2 v 0 Q 20.2,61.2 13.7,57.6 7.2,54 3.6,47.65 0,41.3 0,32.9 v 0 Q 0,20.9 7.9,12.6 15.8,4.3 29.4,0 v 0 l 1.7,4.9 Q 18.2,9.1 11.9,16.05 5.6,23 5.6,33.4 v 0 q 0,7.2 3,12.3 3,5.1 8.3,7.75 5.3,2.65 12.1,2.65 v 0 q 4.2,0 7.65,-0.7 3.45,-0.7 7.05,-2.1 v 0 l 2,4.8 Q 42,59.6 37.95,60.4 33.9,61.2 29.1,61.2 Z M 43.2,29.9 18.3,36.2 16.9,31 l 25,-6.2 z" id="g0p0" inkscape:label="g0p0"></path><path style="fill:none;stroke:#000000;stroke-width:1px;stroke-linecap:butt;stroke-linejoin:miter;stroke-opacity:1" d="M 30.24306,2.4346397 C 23.428426,4.85621 16.60741,7.8593486 11.306532,12.912447 6.1402615,17.613305 3.0858353,24.452727 2.8848546,31.420038 c -0.5046448,6.943599 1.4280592,14.298088 6.2976479,19.432494 4.8047105,5.277621 12.0491785,7.700597 19.0572855,7.788563 4.748156,0.08985 9.55349,-0.463119 13.997166,-2.211978 0.80513,-0.281063 1.61026,-0.562127 2.41539,-0.84319" id="g0s0" inkscape:label="g0s0"></path><path style="fill:none;stroke:#000000;stroke-width:1px;stroke-linecap:butt;stroke-linejoin:miter;stroke-opacity:1" d="m 17.597656,33.605469 c 8.316406,-2.088542 16.632813,-4.177083 24.949219,-6.265625" id="g0s1" inkscape:label="g0s1"></path></g></svg>