<svg xmlns="http://www.w3.org/2000/svg" xmlns:xlink="http://www.w3.org/1999/xlink" width="79.80000000000001"
    height="130.4">
    <path
        d="M52.80 90.60L52.80 90.60Q47.20 90.60 43.55 88.30Q39.90 86.00 38.15 82.10Q36.40 78.20 36.30 73.60L36.30 73.60Q36.30 66 40.45 59.75Q44.60 53.50 52.30 47.30L52.30 47.30Q47.50 42.20 41.75 38.95Q36 35.70 29.50 34.60L29.50 34.60Q31.20 36.90 32.30 39.80Q33.40 42.70 33.40 46.30L33.40 46.30Q33.40 52.70 29.80 56.90Q26.20 61.10 18.40 61.10L18.40 61.10Q11.60 61.10 7.70 56.95Q3.80 52.80 3.80 46.10L3.80 46.10Q3.80 41.30 6.20 37.50Q8.60 33.70 13.05 31.55Q17.50 29.40 23.50 29.40L23.50 29.40Q33 29.30 41.20 33.25Q49.40 37.20 56.20 44.30L56.20 44.30Q60.90 40.80 65.60 37.30Q70.30 33.80 76.90 29.20L76.90 29.20L80 33.50Q73.60 37.90 68.80 41.25Q64 44.60 59.40 48.10L59.40 48.10Q63.90 53.60 66.45 59.80Q69 66 69 73.10L69 73.10Q69 81.80 64.60 86.20Q60.20 90.60 52.80 90.60ZM9.20 46.20L9.20 46.20Q9.20 51.30 11.85 53.75Q14.50 56.20 18.40 56.20L18.40 56.20Q28.10 56.20 28.10 46.00L28.10 46.00Q28.10 39.30 23.50 34.10L23.50 34.10L23.10 34.10Q16.50 34.10 12.85 37.50Q9.20 40.90 9.20 46.20ZM41.80 73.60L41.80 73.60Q41.80 79.20 44.55 82.40Q47.30 85.60 52.80 85.60L52.80 85.60Q57.70 85.60 60.65 82.55Q63.60 79.50 63.60 73.10L63.60 73.10Q63.60 66.60 61.45 61.20Q59.30 55.80 55.50 51.00L55.50 51.00Q48 56.80 44.90 62.25Q41.80 67.70 41.80 73.60ZM67.10 19.10L67.10 19.10Q65.30 19.10 64.05 17.80Q62.80 16.50 62.80 14.20L62.80 14.20Q62.80 12 64.00 10.70Q65.20 9.40 67.10 9.40L67.10 9.40Q69.00 9.40 70.20 10.70Q71.40 12 71.40 14.20L71.40 14.20Q71.40 16.60 70.15 17.85Q68.90 19.10 67.10 19.10Z" />
      <g
     id="g653"
     inkscape:label="g2">
    <path
       style="display:inline"
       d="m 33.9,9.7 v 0 Q 32.1,9.7 30.85,8.4 29.6,7.1 29.6,4.8 v 0 Q 29.6,2.6 30.8,1.3 32,0 33.9,0 v 0 q 1.9,0 3.1,1.3 1.2,1.3 1.2,3.5 v 0 q 0,2.4 -1.25,3.65 Q 35.7,9.7 33.9,9.7 Z"
       id="path644"
       inkscape:label="p2" />
    <path
       d="m 33.9375,1.3352194 c -0.820403,0 -1.515467,0.3118012 -2.085191,0.9354043 -0.569724,0.6236031 -0.854587,1.7074649 -0.854587,2.5903504 0,1.0553281 0.273468,1.8947931 0.820403,2.5183962 0.546936,0.6236031 1.347168,0.9354042 2.119375,0.9354042 0.865981,0 1.572439,-0.3118011 2.119375,-0.9354042 0.546935,-0.6236031 0.820403,-1.5977735 0.820403,-2.5183962 0,-1.1512668 -0.284863,-2.0267096 -0.854587,-2.6263275 C 35.452967,1.6350287 34.757903,1.3352194 33.9375,1.3352194 Z"
       style="display:inline;stroke-width:0.701376"
       id="path950"
       sodipodi:nodetypes="sssssssss"
       inkscape:label="s3" />
  </g>
    <path style="fill:none;stroke:#000000;stroke-width:1px;stroke-linecap:butt;stroke-linejoin:miter;stroke-opacity:1"
        d="m 23.027261,5.0303454 c 1.36037,2.74935 3.124281,5.3778546 3.632773,8.4718046 0.851352,4.709382 0.147837,10.26084 -3.690095,13.519956 -3.267785,2.413981 -7.667508,2.882321 -11.558457,2.081583 C 6.9961422,28.283512 3.5480743,24.402754 2.9771725,19.991073 2.0163265,15.001463 3.5524271,9.3909851 7.6571493,6.1951722 12.333789,2.4394992 18.700982,2.0998053 24.414353,2.8613205 34.510629,3.8100887 43.697891,9.418173 50.50556,16.736982 c 4.128165,4.397388 7.68884,9.408121 9.824058,15.083116 2.085585,5.507356 2.833088,11.652565 1.61316,17.442505 -0.69421,3.270944 -2.691583,6.246557 -5.65982,7.853107 -3.989616,2.224782 -8.978739,2.267333 -13.219145,0.768492 -4.01625,-1.443987 -6.629486,-5.363631 -7.375168,-9.451569 C 34.346227,41.716357 36.416353,34.613396 40.634958,29.291421 45.70695,22.558905 52.922842,17.982994 59.507812,12.89063 64.523983,9.2646536 69.580081,5.6979536 74.65625,2.15625"
        id="path364" inkscape:label="s1" />
</svg>