<svg xmlns="http://www.w3.org/2000/svg" xmlns:xlink="http://www.w3.org/1999/xlink" width="104.9" height="130.4">
    <path
        d="M24 89.60L23.10 89.60Q20 89.60 17.50 88.95Q15 88.30 13.20 86.60L13.20 86.60Q11.30 84.90 10.50 82.40Q9.70 79.90 9.70 75.80L9.70 75.80L9.70 22.40Q9.70 15.80 11.05 11.70Q12.40 7.60 15.80 4.70L15.80 4.70Q18 2.80 21.15 1.70Q24.30 0.60 28.40 0.60L28.40 0.60Q37.50 0.60 44.75 5.85Q52 11.10 59.30 19.60L59.30 19.60L55.40 22.70Q49 15.10 42.65 10.30Q36.30 5.50 28.70 5.50L28.70 5.50Q22.80 5.50 19.40 8.40L19.40 8.40Q17 10.50 16 14Q15 17.50 15 24.10L15 24.10L15 75.50Q15 78.70 15.50 80.35Q16 82.00 17.20 82.90L17.20 82.90Q18.40 84.10 20.35 84.35Q22.30 84.60 24.60 84.60L24.60 84.60L24 89.60ZM77.90 90.60L77.90 90.60Q72.30 90.60 68.65 88.30Q65 86.00 63.25 82.10Q61.50 78.20 61.40 73.60L61.40 73.60Q61.40 66 65.55 59.75Q69.70 53.50 77.40 47.30L77.40 47.30Q72.60 42.20 66.85 38.95Q61.10 35.70 54.60 34.60L54.60 34.60Q56.30 36.90 57.40 39.80Q58.50 42.70 58.50 46.30L58.50 46.30Q58.50 52.70 54.90 56.90Q51.30 61.10 43.50 61.10L43.50 61.10Q36.70 61.10 32.80 56.95Q28.90 52.80 28.90 46.10L28.90 46.10Q28.90 41.30 31.30 37.50Q33.70 33.70 38.15 31.55Q42.60 29.40 48.60 29.40L48.60 29.40Q58.10 29.30 66.30 33.25Q74.50 37.20 81.30 44.30L81.30 44.30Q86 40.80 90.70 37.30Q95.40 33.80 102 29.20L102 29.20L105.10 33.50Q98.70 37.90 93.90 41.25Q89.10 44.60 84.50 48.10L84.50 48.10Q89 53.60 91.55 59.80Q94.10 66 94.10 73.10L94.10 73.10Q94.10 81.80 89.70 86.20Q85.30 90.60 77.90 90.60ZM34.30 46.20L34.30 46.20Q34.30 51.30 36.95 53.75Q39.60 56.20 43.50 56.20L43.50 56.20Q53.20 56.20 53.20 46.00L53.20 46.00Q53.20 39.30 48.60 34.10L48.60 34.10L48.20 34.10Q41.60 34.10 37.95 37.50Q34.30 40.90 34.30 46.20ZM66.90 73.60L66.90 73.60Q66.90 79.20 69.65 82.40Q72.40 85.60 77.90 85.60L77.90 85.60Q82.80 85.60 85.75 82.55Q88.70 79.50 88.70 73.10L88.70 73.10Q88.70 66.60 86.55 61.20Q84.40 55.80 80.60 51.00L80.60 51.00Q73.10 56.80 70 62.25Q66.90 67.70 66.90 73.60Z" />
      <g
     id="g309"
     inkscape:label="g2">
    <path
       style="display:inline"
       d="M 14.3,89 H 13.4 Q 10.3,89 7.8,88.35 5.3,87.7 3.5,86 v 0 Q 1.6,84.3 0.8,81.8 0,79.3 0,75.2 v 0 -53.4 Q 0,15.2 1.35,11.1 2.7,7 6.1,4.1 v 0 Q 8.3,2.2 11.45,1.1 14.6,0 18.7,0 V 0 Q 27.8,0 35.05,5.25 42.3,10.5 49.6,19 v 0 l -3.9,3.1 Q 39.3,14.5 32.95,9.7 26.6,4.9 19,4.9 v 0 q -5.9,0 -9.3,2.9 v 0 q -2.4,2.1 -3.4,5.6 -1,3.5 -1,10.1 v 0 51.4 q 0,3.2 0.5,4.85 0.5,1.65 1.7,2.55 v 0 q 1.2,1.2 3.15,1.45 Q 12.6,84 14.9,84 v 0 z"
       id="path2"
       inkscape:label="p2" />
    <path
       style="display:inline;fill:none;stroke:#000000;stroke-width:1px;stroke-linecap:butt;stroke-linejoin:miter;stroke-opacity:1"
       d="M 47.652368,20.738116 C 42.912163,15.169343 37.771996,9.7590782 31.535156,5.8554687 25.556372,2.3479405 17.925665,1.3282836 11.384063,3.8090168 7.098823,5.5445734 4.0571601,9.6376118 3.3691387,14.177325 2.2636698,19.814013 2.8760079,25.587166 2.7106596,31.290784 c 0.017146,15.362435 -0.08206,30.727062 0.00809,46.088122 0.1319749,2.783277 1.0109143,5.743286 3.4696807,7.348394 2.457118,1.869621 5.6943627,1.540296 8.5928207,1.741457"
       id="path491"
       inkscape:label="s3" /></g>
    <path style="fill:none;stroke:#000000;stroke-width:1px;stroke-linecap:butt;stroke-linejoin:miter;stroke-opacity:1"
        d="m 23.027261,5.0303454 c 1.36037,2.74935 3.124281,5.3778546 3.632773,8.4718046 0.851352,4.709382 0.147837,10.26084 -3.690095,13.519956 -3.267785,2.413981 -7.667508,2.882321 -11.558457,2.081583 C 6.9961422,28.283512 3.5480743,24.402754 2.9771725,19.991073 2.0163265,15.001463 3.5524271,9.3909851 7.6571493,6.1951722 12.333789,2.4394992 18.700982,2.0998053 24.414353,2.8613205 34.510629,3.8100887 43.697891,9.418173 50.50556,16.736982 c 4.128165,4.397388 7.68884,9.408121 9.824058,15.083116 2.085585,5.507356 2.833088,11.652565 1.61316,17.442505 -0.69421,3.270944 -2.691583,6.246557 -5.65982,7.853107 -3.989616,2.224782 -8.978739,2.267333 -13.219145,0.768492 -4.01625,-1.443987 -6.629486,-5.363631 -7.375168,-9.451569 C 34.346227,41.716357 36.416353,34.613396 40.634958,29.291421 45.70695,22.558905 52.922842,17.982994 59.507812,12.89063 64.523983,9.2646536 69.580081,5.6979536 74.65625,2.15625"
        id="path364" inkscape:label="s1" />
</svg>