<svg xmlns="http://www.w3.org/2000/svg" xmlns:xlink="http://www.w3.org/1999/xlink" width="104.9" height="130.4">
    <path
        d="M52.80 90.60L52.80 90.60Q47.20 90.60 43.55 88.30Q39.90 86.00 38.15 82.10Q36.40 78.20 36.30 73.60L36.30 73.60Q36.30 66 40.45 59.75Q44.60 53.50 52.30 47.30L52.30 47.30Q47.50 42.20 41.75 38.95Q36 35.70 29.50 34.60L29.50 34.60Q31.20 36.90 32.30 39.80Q33.40 42.70 33.40 46.30L33.40 46.30Q33.40 52.70 29.80 56.90Q26.20 61.10 18.40 61.10L18.40 61.10Q11.60 61.10 7.70 56.95Q3.80 52.80 3.80 46.10L3.80 46.10Q3.80 41.30 6.20 37.50Q8.60 33.70 13.05 31.55Q17.50 29.40 23.50 29.40L23.50 29.40Q33 29.30 41.20 33.25Q49.40 37.20 56.20 44.30L56.20 44.30Q60.90 40.80 65.60 37.30Q70.30 33.80 76.90 29.20L76.90 29.20L80 33.50Q73.60 37.90 68.80 41.25Q64 44.60 59.40 48.10L59.40 48.10Q63.90 53.60 66.45 59.80Q69 66 69 73.10L69 73.10Q69 81.80 64.60 86.20Q60.20 90.60 52.80 90.60ZM9.20 46.20L9.20 46.20Q9.20 51.30 11.85 53.75Q14.50 56.20 18.40 56.20L18.40 56.20Q28.10 56.20 28.10 46.00L28.10 46.00Q28.10 39.30 23.50 34.10L23.50 34.10L23.10 34.10Q16.50 34.10 12.85 37.50Q9.20 40.90 9.20 46.20ZM41.80 73.60L41.80 73.60Q41.80 79.20 44.55 82.40Q47.30 85.60 52.80 85.60L52.80 85.60Q57.70 85.60 60.65 82.55Q63.60 79.50 63.60 73.10L63.60 73.10Q63.60 66.60 61.45 61.20Q59.30 55.80 55.50 51.00L55.50 51.00Q48 56.80 44.90 62.25Q41.80 67.70 41.80 73.60ZM103.90 89.60L102.90 89.60Q99.90 89.60 97.35 88.95Q94.80 88.30 93.00 86.60L93.00 86.60Q89.50 83.30 89.50 75.80L89.50 75.80L89.50 29.10Q88.10 17.70 84.60 11.60Q81.10 5.50 75.60 5.50L75.60 5.50Q72.00 5.50 70.00 8.10Q68.00 10.70 68.00 15.80L68.00 15.80Q68.00 19.70 68.60 22.80L68.60 22.80L63.50 22.80Q63.20 21.30 62.95 19.20Q62.70 17.10 62.70 15.20L62.70 15.20Q62.70 8.60 66.05 4.60Q69.40 0.60 75.60 0.60L75.60 0.60Q81.50 0.60 85.50 4.55Q89.50 8.50 91.75 14.95Q94.00 21.40 94.80 28.80L94.80 28.80L94.80 75.50Q94.80 78.80 95.30 80.35Q95.80 81.90 97.00 82.90L97.00 82.90Q98.20 84.10 100.20 84.35Q102.20 84.60 104.40 84.60L104.40 84.60L103.90 89.60Z" />
      <g
     id="g399"
     inkscape:label="g2">
    <path
       style="display:inline"
       d="m 70.7,89 h -1 q -3,0 -5.55,-0.65 Q 61.6,87.7 59.8,86 v 0 Q 56.3,82.7 56.3,75.2 v 0 -46.7 Q 54.9,17.1 51.4,11 47.9,4.9 42.4,4.9 v 0 q -3.6,0 -5.6,2.6 -2,2.6 -2,7.7 v 0 q 0,3.9 0.6,7 v 0 H 30.3 Q 30,20.7 29.75,18.6 29.5,16.5 29.5,14.6 v 0 Q 29.5,8 32.85,4 36.2,0 42.4,0 v 0 q 5.9,0 9.9,3.95 4,3.95 6.25,10.4 2.25,6.45 3.05,13.85 v 0 46.7 q 0,3.3 0.5,4.85 0.5,1.55 1.7,2.55 v 0 Q 65,83.5 67,83.75 69,84 71.2,84 v 0 z"
       id="path330"
       inkscape:label="p2" />
    <path
       style="display:inline;fill:none;stroke:#000000;stroke-width:1px;stroke-linecap:butt;stroke-linejoin:miter;stroke-opacity:1"
       d="M 32.90625,22.296875 C 32.189196,17.24716 31.309374,11.67002 33.948338,7.0048776 36.015851,3.1824285 40.814237,1.7827514 44.871275,2.7018315 c 5.299598,1.0610536 8.634255,5.9944562 10.53375,10.6924095 1.94946,4.911209 3.041647,10.154719 3.53254,15.40287 0.03373,16.081561 -0.05668,32.165472 0.05492,48.245568 0.09206,3.485135 1.641413,7.400064 5.196702,8.60873 2.224083,0.864628 4.672997,0.637872 7.006103,0.85642"
       id="path80"
       inkscape:label="s3" />
  </g>
    <path style="fill:none;stroke:#000000;stroke-width:1px;stroke-linecap:butt;stroke-linejoin:miter;stroke-opacity:1"
        d="m 23.027261,5.0303454 c 1.36037,2.74935 3.124281,5.3778546 3.632773,8.4718046 0.851352,4.709382 0.147837,10.26084 -3.690095,13.519956 -3.267785,2.413981 -7.667508,2.882321 -11.558457,2.081583 C 6.9961422,28.283512 3.5480743,24.402754 2.9771725,19.991073 2.0163265,15.001463 3.5524271,9.3909851 7.6571493,6.1951722 12.333789,2.4394992 18.700982,2.0998053 24.414353,2.8613205 34.510629,3.8100887 43.697891,9.418173 50.50556,16.736982 c 4.128165,4.397388 7.68884,9.408121 9.824058,15.083116 2.085585,5.507356 2.833088,11.652565 1.61316,17.442505 -0.69421,3.270944 -2.691583,6.246557 -5.65982,7.853107 -3.989616,2.224782 -8.978739,2.267333 -13.219145,0.768492 -4.01625,-1.443987 -6.629486,-5.363631 -7.375168,-9.451569 C 34.346227,41.716357 36.416353,34.613396 40.634958,29.291421 45.70695,22.558905 52.922842,17.982994 59.507812,12.89063 64.523983,9.2646536 69.580081,5.6979536 74.65625,2.15625"
        id="path364" inkscape:label="s1" />
</svg>