<svg xmlns="http://www.w3.org/2000/svg" xmlns:xlink="http://www.w3.org/1999/xlink" width="79.80000000000001" height="130.4"><path d="M52.80 90.60L52.80 90.60Q47.20 90.60 43.55 88.30Q39.90 86.00 38.15 82.10Q36.40 78.20 36.30 73.60L36.30 73.60Q36.30 66 40.45 59.75Q44.60 53.50 52.30 47.30L52.30 47.30Q47.50 42.20 41.75 38.95Q36 35.70 29.50 34.60L29.50 34.60Q31.20 36.90 32.30 39.80Q33.40 42.70 33.40 46.30L33.40 46.30Q33.40 52.70 29.80 56.90Q26.20 61.10 18.40 61.10L18.40 61.10Q11.60 61.10 7.70 56.95Q3.80 52.80 3.80 46.10L3.80 46.10Q3.80 41.30 6.20 37.50Q8.60 33.70 13.05 31.55Q17.50 29.40 23.50 29.40L23.50 29.40Q33 29.30 41.20 33.25Q49.40 37.20 56.20 44.30L56.20 44.30Q60.90 40.80 65.60 37.30Q70.30 33.80 76.90 29.20L76.90 29.20L80 33.50Q73.60 37.90 68.80 41.25Q64 44.60 59.40 48.10L59.40 48.10Q63.90 53.60 66.45 59.80Q69 66 69 73.10L69 73.10Q69 81.80 64.60 86.20Q60.20 90.60 52.80 90.60ZM9.20 46.20L9.20 46.20Q9.20 51.30 11.85 53.75Q14.50 56.20 18.40 56.20L18.40 56.20Q28.10 56.20 28.10 46.00L28.10 46.00Q28.10 39.30 23.50 34.10L23.50 34.10L23.10 34.10Q16.50 34.10 12.85 37.50Q9.20 40.90 9.20 46.20ZM41.80 73.60L41.80 73.60Q41.80 79.20 44.55 82.40Q47.30 85.60 52.80 85.60L52.80 85.60Q57.70 85.60 60.65 82.55Q63.60 79.50 63.60 73.10L63.60 73.10Q63.60 66.60 61.45 61.20Q59.30 55.80 55.50 51.00L55.50 51.00Q48 56.80 44.90 62.25Q41.80 67.70 41.80 73.60ZM64.10 116.30L64.10 116.30Q57.50 116.30 52.35 114.05Q47.20 111.80 43.05 108.00Q38.90 104.20 35.40 99.40L35.40 99.40L39.60 96.50Q44.70 103.20 50.30 107.30Q55.90 111.40 64.10 111.40L64.10 111.40Q69.80 111.40 72.80 109.20Q75.80 107.00 75.80 102.70L75.80 102.70Q75.80 98.80 73.20 96.80Q70.60 94.80 66.20 94.80L66.20 94.80Q63.70 94.80 61.50 95.35Q59.30 95.90 57.10 96.80L57.10 96.80L55.30 92.30Q57.90 91.20 60.50 90.65Q63.10 90.10 65.90 90.10L65.90 90.10Q73.00 90.10 76.90 93.65Q80.80 97.20 80.80 103.10L80.80 103.10Q80.80 109.30 76.35 112.80Q71.90 116.30 64.10 116.30Z"/></svg>