<svg xmlns="http://www.w3.org/2000/svg" xmlns:xlink="http://www.w3.org/1999/xlink" width="79.80000000000001"
    height="130.4">
    <path
        d="M52.80 90.60L52.80 90.60Q47.20 90.60 43.55 88.30Q39.90 86.00 38.15 82.10Q36.40 78.20 36.30 73.60L36.30 73.60Q36.30 66 40.45 59.75Q44.60 53.50 52.30 47.30L52.30 47.30Q47.50 42.20 41.75 38.95Q36 35.70 29.50 34.60L29.50 34.60Q31.20 36.90 32.30 39.80Q33.40 42.70 33.40 46.30L33.40 46.30Q33.40 52.70 29.80 56.90Q26.20 61.10 18.40 61.10L18.40 61.10Q11.60 61.10 7.70 56.95Q3.80 52.80 3.80 46.10L3.80 46.10Q3.80 41.30 6.20 37.50Q8.60 33.70 13.05 31.55Q17.50 29.40 23.50 29.40L23.50 29.40Q33 29.30 41.20 33.25Q49.40 37.20 56.20 44.30L56.20 44.30Q60.90 40.80 65.60 37.30Q70.30 33.80 76.90 29.20L76.90 29.20L80 33.50Q73.60 37.90 68.80 41.25Q64 44.60 59.40 48.10L59.40 48.10Q63.90 53.60 66.45 59.80Q69 66 69 73.10L69 73.10Q69 81.80 64.60 86.20Q60.20 90.60 52.80 90.60ZM9.20 46.20L9.20 46.20Q9.20 51.30 11.85 53.75Q14.50 56.20 18.40 56.20L18.40 56.20Q28.10 56.20 28.10 46.00L28.10 46.00Q28.10 39.30 23.50 34.10L23.50 34.10L23.10 34.10Q16.50 34.10 12.85 37.50Q9.20 40.90 9.20 46.20ZM41.80 73.60L41.80 73.60Q41.80 79.20 44.55 82.40Q47.30 85.60 52.80 85.60L52.80 85.60Q57.70 85.60 60.65 82.55Q63.60 79.50 63.60 73.10L63.60 73.10Q63.60 66.60 61.45 61.20Q59.30 55.80 55.50 51.00L55.50 51.00Q48 56.80 44.90 62.25Q41.80 67.70 41.80 73.60ZM64.10 116.30L64.10 116.30Q57.50 116.30 52.35 114.05Q47.20 111.80 43.05 108.00Q38.90 104.20 35.40 99.40L35.40 99.40L39.60 96.50Q44.70 103.20 50.30 107.30Q55.90 111.40 64.10 111.40L64.10 111.40Q69.80 111.40 72.80 109.20Q75.80 107.00 75.80 102.70L75.80 102.70Q75.80 98.80 73.20 96.80Q70.60 94.80 66.20 94.80L66.20 94.80Q63.70 94.80 61.50 95.35Q59.30 95.90 57.10 96.80L57.10 96.80L55.30 92.30Q57.90 91.20 60.50 90.65Q63.10 90.10 65.90 90.10L65.90 90.10Q73.00 90.10 76.90 93.65Q80.80 97.20 80.80 103.10L80.80 103.10Q80.80 109.30 76.35 112.80Q71.90 116.30 64.10 116.30Z" />
      <g
     id="g429"
     inkscape:label="g2">
    <path
       style="display:inline"
       d="m 30.9,87 v 0 Q 24.3,87 19.15,84.75 14,82.5 9.85,78.7 5.7,74.9 2.2,70.1 v 0 l 4.2,-2.9 q 5.1,6.7 10.7,10.8 5.6,4.1 13.8,4.1 v 0 q 5.7,0 8.7,-2.2 3,-2.2 3,-6.5 v 0 q 0,-3.9 -2.6,-5.9 -2.6,-2 -7,-2 v 0 q -2.5,0 -4.7,0.55 -2.2,0.55 -4.4,1.45 v 0 L 22.1,63 q 2.6,-1.1 5.2,-1.65 2.6,-0.55 5.4,-0.55 v 0 q 7.1,0 11,3.55 3.9,3.55 3.9,9.45 v 0 q 0,6.2 -4.45,9.7 Q 38.7,87 30.9,87 Z"
       id="path420"
       inkscape:label="p2" />
    <path
       style="display:inline;fill:none;stroke:#000000;stroke-width:1px;stroke-linecap:butt;stroke-linejoin:miter;stroke-opacity:1"
       d="m 22.914062,65.289062 c 2.323807,-0.692195 4.562347,-1.731347 7.000658,-1.966609 3.549036,-0.376084 7.376537,-0.234926 10.53575,1.599631 2.719286,1.540051 4.469061,4.52798 4.601284,7.636307 0.253017,2.845818 -0.456653,5.883237 -2.460912,7.998761 -2.433486,2.67518 -6.157635,3.68678 -9.656459,3.920638 C 27.700261,84.79836 22.284886,83.938844 17.69019,81.310728 14.906965,79.755209 12.447616,77.671348 10.188095,75.437432 8.1199862,73.202596 6.1412982,70.891325 4.1757812,68.566406"
       id="path198"
       inkscape:label="s3" />
  </g>
    <path style="fill:none;stroke:#000000;stroke-width:1px;stroke-linecap:butt;stroke-linejoin:miter;stroke-opacity:1"
        d="m 23.027261,5.0303454 c 1.36037,2.74935 3.124281,5.3778546 3.632773,8.4718046 0.851352,4.709382 0.147837,10.26084 -3.690095,13.519956 -3.267785,2.413981 -7.667508,2.882321 -11.558457,2.081583 C 6.9961422,28.283512 3.5480743,24.402754 2.9771725,19.991073 2.0163265,15.001463 3.5524271,9.3909851 7.6571493,6.1951722 12.333789,2.4394992 18.700982,2.0998053 24.414353,2.8613205 34.510629,3.8100887 43.697891,9.418173 50.50556,16.736982 c 4.128165,4.397388 7.68884,9.408121 9.824058,15.083116 2.085585,5.507356 2.833088,11.652565 1.61316,17.442505 -0.69421,3.270944 -2.691583,6.246557 -5.65982,7.853107 -3.989616,2.224782 -8.978739,2.267333 -13.219145,0.768492 -4.01625,-1.443987 -6.629486,-5.363631 -7.375168,-9.451569 C 34.346227,41.716357 36.416353,34.613396 40.634958,29.291421 45.70695,22.558905 52.922842,17.982994 59.507812,12.89063 64.523983,9.2646536 69.580081,5.6979536 74.65625,2.15625"
        id="path364" inkscape:label="s1" />
</svg>