<svg xmlns="http://www.w3.org/2000/svg" xmlns:xlink="http://www.w3.org/1999/xlink" width="79.80000000000001" height="130.4"><path d="M52.80 90.60L52.80 90.60Q47.20 90.60 43.55 88.30Q39.90 86.00 38.15 82.10Q36.40 78.20 36.30 73.60L36.30 73.60Q36.30 66 40.45 59.75Q44.60 53.50 52.30 47.30L52.30 47.30Q47.50 42.20 41.75 38.95Q36 35.70 29.50 34.60L29.50 34.60Q31.20 36.90 32.30 39.80Q33.40 42.70 33.40 46.30L33.40 46.30Q33.40 52.70 29.80 56.90Q26.20 61.10 18.40 61.10L18.40 61.10Q11.60 61.10 7.70 56.95Q3.80 52.80 3.80 46.10L3.80 46.10Q3.80 41.30 6.20 37.50Q8.60 33.70 13.05 31.55Q17.50 29.40 23.50 29.40L23.50 29.40Q33 29.30 41.20 33.25Q49.40 37.20 56.20 44.30L56.20 44.30Q60.90 40.80 65.60 37.30Q70.30 33.80 76.90 29.20L76.90 29.20L80 33.50Q73.60 37.90 68.80 41.25Q64 44.60 59.40 48.10L59.40 48.10Q63.90 53.60 66.45 59.80Q69 66 69 73.10L69 73.10Q69 81.80 64.60 86.20Q60.20 90.60 52.80 90.60ZM9.20 46.20L9.20 46.20Q9.20 51.30 11.85 53.75Q14.50 56.20 18.40 56.20L18.40 56.20Q28.10 56.20 28.10 46.00L28.10 46.00Q28.10 39.30 23.50 34.10L23.50 34.10L23.10 34.10Q16.50 34.10 12.85 37.50Q9.20 40.90 9.20 46.20ZM41.80 73.60L41.80 73.60Q41.80 79.20 44.55 82.40Q47.30 85.60 52.80 85.60L52.80 85.60Q57.70 85.60 60.65 82.55Q63.60 79.50 63.60 73.10L63.60 73.10Q63.60 66.60 61.45 61.20Q59.30 55.80 55.50 51.00L55.50 51.00Q48 56.80 44.90 62.25Q41.80 67.70 41.80 73.60ZM69.30 25.50L64.90 25.50Q63.00 17.70 61.15 13.15Q59.30 8.60 56.85 6.70Q54.40 4.80 50.60 4.80L50.60 4.80Q49.40 4.80 48.05 5Q46.70 5.20 45.20 5.70L45.20 5.70L43.70 1.10Q45.60 0.50 47.40 0.25Q49.20 0 50.90 0L50.90 0Q55.50 0 58.85 2.25Q62.20 4.50 64.70 10.05Q67.20 15.60 69.30 25.50L69.30 25.50ZM64.00 23.70L61.20 26.60Q55.10 21.20 50.90 18.85Q46.70 16.50 41.80 16.50L41.80 16.50Q38.30 16.50 35.40 17.40L35.40 17.40L33.90 12.70Q35.70 12.30 37.65 12Q39.60 11.70 41.80 11.70L41.80 11.70Q45.60 11.70 48.95 12.90Q52.30 14.10 55.85 16.75Q59.40 19.40 64.00 23.70L64.00 23.70Z"/></svg>