<svg xmlns="http://www.w3.org/2000/svg" xmlns:xlink="http://www.w3.org/1999/xlink" width="104.9" height="130.4">
    <path
        d="M52.80 90.60L52.80 90.60Q47.20 90.60 43.55 88.30Q39.90 86.00 38.15 82.10Q36.40 78.20 36.30 73.60L36.30 73.60Q36.30 66 40.45 59.75Q44.60 53.50 52.30 47.30L52.30 47.30Q47.50 42.20 41.75 38.95Q36 35.70 29.50 34.60L29.50 34.60Q31.20 36.90 32.30 39.80Q33.40 42.70 33.40 46.30L33.40 46.30Q33.40 52.70 29.80 56.90Q26.20 61.10 18.40 61.10L18.40 61.10Q11.60 61.10 7.70 56.95Q3.80 52.80 3.80 46.10L3.80 46.10Q3.80 41.30 6.20 37.50Q8.60 33.70 13.05 31.55Q17.50 29.40 23.50 29.40L23.50 29.40Q33 29.30 41.20 33.25Q49.40 37.20 56.20 44.30L56.20 44.30Q60.90 40.80 65.60 37.30Q70.30 33.80 76.90 29.20L76.90 29.20L80 33.50Q73.60 37.90 68.80 41.25Q64 44.60 59.40 48.10L59.40 48.10Q63.90 53.60 66.45 59.80Q69 66 69 73.10L69 73.10Q69 81.80 64.60 86.20Q60.20 90.60 52.80 90.60ZM9.20 46.20L9.20 46.20Q9.20 51.30 11.85 53.75Q14.50 56.20 18.40 56.20L18.40 56.20Q28.10 56.20 28.10 46.00L28.10 46.00Q28.10 39.30 23.50 34.10L23.50 34.10L23.10 34.10Q16.50 34.10 12.85 37.50Q9.20 40.90 9.20 46.20ZM41.80 73.60L41.80 73.60Q41.80 79.20 44.55 82.40Q47.30 85.60 52.80 85.60L52.80 85.60Q57.70 85.60 60.65 82.55Q63.60 79.50 63.60 73.10L63.60 73.10Q63.60 66.60 61.45 61.20Q59.30 55.80 55.50 51.00L55.50 51.00Q48 56.80 44.90 62.25Q41.80 67.70 41.80 73.60ZM103.90 89.60L102.90 89.60Q96.30 89.60 93.00 86.60L93.00 86.60Q91.20 85.00 90.35 82.50Q89.50 80 89.50 75.80L89.50 75.80L89.50 29.30L94.80 30.00L94.80 75.50Q94.80 78.80 95.30 80.40Q95.80 82.00 97.10 83.00L97.10 83.00Q98.30 84.10 100.15 84.35Q102.00 84.60 104.40 84.60L104.40 84.60L103.90 89.60ZM94.30 25.50L89.50 25.50Q87.30 17.90 85.30 13.40Q83.30 8.90 80.75 6.90Q78.20 4.90 74.30 4.90L74.30 4.90Q71.50 4.90 68.50 5.80L68.50 5.80L66.90 1.20Q68.90 0.60 70.85 0.30Q72.80 0 74.60 0L74.60 0Q79.30 0 82.80 2.15Q86.30 4.30 89.05 9.80Q91.80 15.30 94.30 25.50L94.30 25.50Z" />
      <g
     id="g562"
     inkscape:label="g2">
    <path
       style="display:inline"
       d="m 70.7,89.6 h -1 q -6.6,0 -9.9,-3 v 0 Q 58,85 57.15,82.5 56.3,80 56.3,75.8 v 0 -46.5 l 5.3,0.7 v 45.5 q 0,3.3 0.5,4.9 0.5,1.6 1.8,2.6 v 0 q 1.2,1.1 3.05,1.35 1.85,0.25 4.25,0.25 v 0 z"
       id="path551"
       inkscape:label="p2" />
    <path
       style="display:inline;fill:none;stroke:#000000;stroke-width:1px;stroke-linecap:butt;stroke-linejoin:miter;stroke-opacity:1"
       d="m 58.92722,29.304293 c 0.0052,15.660703 -0.0419,31.322813 -0.004,46.982637 0.07316,2.661925 0.300704,5.531206 2.06529,7.674603 1.94562,2.285428 5.076187,2.956219 7.950186,3.001875 0.734456,0.05113 1.468913,0.102253 2.203369,0.15338"
       id="path81"
       inkscape:label="s3" />
  </g>
  <g
     id="g566"
     inkscape:label="g3">
    <path
       style="display:inline"
       d="M 61.1,25.5 H 56.3 Q 54.1,17.9 52.1,13.4 50.1,8.9 47.55,6.9 45,4.9 41.1,4.9 v 0 q -2.8,0 -5.8,0.9 v 0 L 33.7,1.2 Q 35.7,0.6 37.65,0.3 39.6,0 41.4,0 v 0 q 4.7,0 8.2,2.15 3.5,2.15 6.25,7.65 2.75,5.5 5.25,15.7 z"
       id="path553"
       inkscape:label="p3" />
    <path
       style="display:inline;fill:none;stroke:#000000;stroke-width:1px;stroke-linecap:butt;stroke-linejoin:miter;stroke-opacity:1"
       d="m 34.390625,3.625 c 2.407735,-0.5487371 4.818668,-1.2842266 7.316349,-1.1718755 2.367913,0.061684 4.769179,0.644832 6.746194,1.9883103 2.283908,1.5216174 3.856335,3.867577 5.081293,6.2795292 0.985525,1.850814 1.702889,3.830646 2.400769,5.803765 1.025962,2.981686 1.857827,6.023718 2.740551,9.04949"
       id="path814"
       inkscape:label="s4" />
  </g>
    <path style="fill:none;stroke:#000000;stroke-width:1px;stroke-linecap:butt;stroke-linejoin:miter;stroke-opacity:1"
        d="m 23.027261,5.0303454 c 1.36037,2.74935 3.124281,5.3778546 3.632773,8.4718046 0.851352,4.709382 0.147837,10.26084 -3.690095,13.519956 -3.267785,2.413981 -7.667508,2.882321 -11.558457,2.081583 C 6.9961422,28.283512 3.5480743,24.402754 2.9771725,19.991073 2.0163265,15.001463 3.5524271,9.3909851 7.6571493,6.1951722 12.333789,2.4394992 18.700982,2.0998053 24.414353,2.8613205 34.510629,3.8100887 43.697891,9.418173 50.50556,16.736982 c 4.128165,4.397388 7.68884,9.408121 9.824058,15.083116 2.085585,5.507356 2.833088,11.652565 1.61316,17.442505 -0.69421,3.270944 -2.691583,6.246557 -5.65982,7.853107 -3.989616,2.224782 -8.978739,2.267333 -13.219145,0.768492 -4.01625,-1.443987 -6.629486,-5.363631 -7.375168,-9.451569 C 34.346227,41.716357 36.416353,34.613396 40.634958,29.291421 45.70695,22.558905 52.922842,17.982994 59.507812,12.89063 64.523983,9.2646536 69.580081,5.6979536 74.65625,2.15625"
        id="path364" inkscape:label="s1" />
</svg>