<svg xmlns="http://www.w3.org/2000/svg" xmlns:xlink="http://www.w3.org/1999/xlink" width="104.9" height="130.4"><path d="M52.80 90.60L52.80 90.60Q47.20 90.60 43.55 88.30Q39.90 86.00 38.15 82.10Q36.40 78.20 36.30 73.60L36.30 73.60Q36.30 66 40.45 59.75Q44.60 53.50 52.30 47.30L52.30 47.30Q47.50 42.20 41.75 38.95Q36 35.70 29.50 34.60L29.50 34.60Q31.20 36.90 32.30 39.80Q33.40 42.70 33.40 46.30L33.40 46.30Q33.40 52.70 29.80 56.90Q26.20 61.10 18.40 61.10L18.40 61.10Q11.60 61.10 7.70 56.95Q3.80 52.80 3.80 46.10L3.80 46.10Q3.80 41.30 6.20 37.50Q8.60 33.70 13.05 31.55Q17.50 29.40 23.50 29.40L23.50 29.40Q33 29.30 41.20 33.25Q49.40 37.20 56.20 44.30L56.20 44.30Q60.90 40.80 65.60 37.30Q70.30 33.80 76.90 29.20L76.90 29.20L80 33.50Q73.60 37.90 68.80 41.25Q64 44.60 59.40 48.10L59.40 48.10Q63.90 53.60 66.45 59.80Q69 66 69 73.10L69 73.10Q69 81.80 64.60 86.20Q60.20 90.60 52.80 90.60ZM9.20 46.20L9.20 46.20Q9.20 51.30 11.85 53.75Q14.50 56.20 18.40 56.20L18.40 56.20Q28.10 56.20 28.10 46.00L28.10 46.00Q28.10 39.30 23.50 34.10L23.50 34.10L23.10 34.10Q16.50 34.10 12.85 37.50Q9.20 40.90 9.20 46.20ZM41.80 73.60L41.80 73.60Q41.80 79.20 44.55 82.40Q47.30 85.60 52.80 85.60L52.80 85.60Q57.70 85.60 60.65 82.55Q63.60 79.50 63.60 73.10L63.60 73.10Q63.60 66.60 61.45 61.20Q59.30 55.80 55.50 51.00L55.50 51.00Q48 56.80 44.90 62.25Q41.80 67.70 41.80 73.60ZM103.90 89.60L102.90 89.60Q96.30 89.60 93.00 86.60L93.00 86.60Q91.20 85.00 90.35 82.50Q89.50 80 89.50 75.80L89.50 75.80L89.50 29.30L94.80 30.00L94.80 75.50Q94.80 78.80 95.30 80.40Q95.80 82.00 97.10 83.00L97.10 83.00Q98.30 84.10 100.15 84.35Q102.00 84.60 104.40 84.60L104.40 84.60L103.90 89.60ZM94.40 25.50L90.00 25.50Q88.10 17.70 86.25 13.15Q84.40 8.60 81.95 6.70Q79.50 4.80 75.70 4.80L75.70 4.80Q74.50 4.80 73.15 5Q71.80 5.20 70.30 5.70L70.30 5.70L68.80 1.10Q70.70 0.50 72.50 0.25Q74.30 0 76.00 0L76.00 0Q80.60 0 83.95 2.25Q87.30 4.50 89.80 10.05Q92.30 15.60 94.40 25.50L94.40 25.50ZM89.10 23.70L86.30 26.60Q80.20 21.20 76.00 18.85Q71.80 16.50 66.90 16.50L66.90 16.50Q63.40 16.50 60.50 17.40L60.50 17.40L59.00 12.70Q60.80 12.30 62.75 12Q64.70 11.70 66.90 11.70L66.90 11.70Q70.70 11.70 74.05 12.90Q77.40 14.10 80.95 16.75Q84.50 19.40 89.10 23.70L89.10 23.70Z"/></svg>