<?xml version="1.0" encoding="UTF-8" standalone="no"?>
<svg
   width="71.199997"
   height="80.199997"
   version="1.1"
   id="svg2321"
   sodipodi:docname="10_kham_or_khan.svg"
   inkscape:version="1.2.1 (9c6d41e410, 2022-07-14)"
   xmlns:inkscape="http://www.inkscape.org/namespaces/inkscape"
   xmlns:sodipodi="http://sodipodi.sourceforge.net/DTD/sodipodi-0.dtd"
   xmlns="http://www.w3.org/2000/svg"
   xmlns:svg="http://www.w3.org/2000/svg">
  <defs
     id="defs2325" />
  <sodipodi:namedview
     id="namedview2323"
     pagecolor="#ffffff"
     bordercolor="#666666"
     borderopacity="1.0"
     inkscape:showpageshadow="2"
     inkscape:pageopacity="0.0"
     inkscape:pagecheckerboard="0"
     inkscape:deskcolor="#d1d1d1"
     showgrid="false"
     inkscape:zoom="5.6568543"
     inkscape:cx="53.033008"
     inkscape:cy="57.098872"
     inkscape:window-width="1920"
     inkscape:window-height="1017"
     inkscape:window-x="-8"
     inkscape:window-y="-8"
     inkscape:window-maximized="1"
     inkscape:current-layer="svg2321" />
  <path
     style="display:inline;fill:none;stroke:#000000;stroke-width:1px;stroke-linecap:butt;stroke-linejoin:miter;stroke-opacity:1"
     d="m 54.482993,4.864841 9.037709,0.04419"
     id="path1056"
     inkscape:label="s2" />
  <path
     style="display:inline;fill:none;stroke:#000000;stroke-width:1px;stroke-linecap:butt;stroke-linejoin:miter;stroke-opacity:1"
     d="m -0.01153518,23.485252 c 0.83290082,0.01077 1.43654798,0.07162 2.17616248,0.117471 2.4491173,0.151833 4.9314076,0.385265 6.8454512,2.072214 3.1118685,2.849507 2.8252035,7.446605 2.8416585,11.306195 0.153594,5.197312 -0.431062,10.476834 0.640622,15.604156 0.869444,4.163263 4.145831,7.830187 8.426032,8.566027 4.961059,1.101136 11.027624,0.0761 14.040498,-4.398138 2.9793,-4.365341 2.506642,-9.893823 2.509387,-14.909679 -0.0076,-3.266551 -0.01519,-6.533102 -0.02278,-9.799653 0.04419,4.528845 -0.01486,9.080793 0.11328,13.597656 1.444167,2.4093 4.044701,4.028409 6.719121,4.753812 3.847876,0.814881 7.966538,-0.280414 10.966775,-2.808931 1.359788,-1.010569 2.829787,-2.170722 3.581638,-3.691215 0.09721,-7.992237 0.0191,-16.006762 0.04888,-24.007572 0.01507,15.995914 -0.07306,31.994173 0.0065,47.988623 0.06625,3.309082 1.267591,6.996918 4.461168,8.519189 2.411771,1.272673 5.217687,1.107085 7.852693,1.328124"
     id="path65"
     sodipodi:nodetypes="csccccccccccccccc"
     inkscape:label="s1" />
  <path
     d="m 24.7,64 v 0 q -7.5,0 -11.4,-4.3 v 0 q -2.1,-2.3 -3.1,-5.45 -1,-3.15 -1,-8.45 v 0 V 35 Q 9.2,32.3 8.85,30.8 8.5,29.3 7.7,28.2 v 0 Q 6.7,26.8 4.65,26.35 2.6,25.9 0,25.9 v 0 L 0.6,21 h 0.8 q 7.2,0 10.3,3.6 v 0 q 1.5,1.6 2.15,4.05 0.65,2.45 0.65,6.15 v 0 10.9 q 0,4.3 0.7,6.8 0.7,2.5 2.2,4 v 0 q 2.5,2.6 7.3,2.6 v 0 q 5,0 7.6,-3 v 0 q 1.2,-1.5 1.85,-3.75 0.65,-2.25 0.65,-6.15 v 0 -13.9 l 5.3,0.6 v 11.9 q 2.2,3.5 6.6,3.4 v 0 q 3.1,0 5.4,-1.35 2.3,-1.35 4.1,-3.55 v 0 -23.4 l 5.3,0.8 v 45.4 q 0,3.2 0.55,4.8 0.55,1.6 1.75,2.6 v 0 q 1.1,1.2 3.1,1.45 2,0.25 4.3,0.25 v 0 l -0.6,5 h -0.9 q -6.6,0 -9.9,-3 v 0 Q 58,75.6 57.1,73.1 56.2,70.6 56.2,66.4 v 0 -16.6 q -1.8,1.5 -4.1,2.4 -2.3,0.9 -5.4,0.9 v 0 q -1.8,0 -3.55,-0.5 Q 41.4,52.1 39.8,51 v 0 Q 39,57 34.95,60.5 30.9,64 24.7,64 Z M 59,9.7 v 0 Q 57.2,9.7 55.95,8.4 54.7,7.1 54.7,4.8 v 0 Q 54.7,2.6 55.9,1.3 57.1,0 59,0 v 0 q 1.9,0 3.1,1.3 1.2,1.3 1.2,3.5 v 0 q 0,2.4 -1.25,3.65 Q 60.8,9.7 59,9.7 Z"
     id="path2319"
     style="display:inline"
     inkscape:label="p1" />
</svg>
