<svg xmlns="http://www.w3.org/2000/svg" xmlns:xlink="http://www.w3.org/1999/xlink" width="95.00000000000001"
    height="130.4">
    <path
        style="display:inline;fill:none;stroke:#000000;stroke-width:1px;stroke-linecap:butt;stroke-linejoin:miter;stroke-opacity:1"
        d="m 52.933594,50.216795 9.445312,0.06641" id="path1122-8" inkscape:label="s4" />
    <path
        style="display:inline;fill:none;stroke:#000000;stroke-width:1px;stroke-linecap:butt;stroke-linejoin:miter;stroke-opacity:1"
        d="m 52.953125,16.640625 9.445312,0.06641" id="path1122" inkscape:label="s3" />
    <path
        style="display:inline;fill:none;stroke:#000000;stroke-width:1px;stroke-linecap:butt;stroke-linejoin:miter;stroke-opacity:1"
        d="m -0.01171875,3.5898438 c 0.83290084,0.010773 1.43654805,0.071618 2.17616255,0.1174708 2.4491173,0.1518329 4.9314076,0.385265 6.8454512,2.0722144 3.111869,2.849507 2.825204,7.446605 2.841659,11.306195 0.153594,5.197312 -0.431062,10.476834 0.640622,15.604156 0.869444,4.163263 4.145831,7.830187 8.426032,8.566027 4.961059,1.101136 11.027624,0.0761 14.040498,-4.398138 2.9793,-4.365341 2.506642,-9.893823 2.509387,-14.909679 -0.0076,-3.266551 -0.01519,-6.533102 -0.02278,-9.799653 0.04419,4.528845 -0.01486,9.080793 0.11328,13.597656 1.444167,2.4093 4.044701,4.028409 6.719121,4.753812 3.847876,0.814881 7.966538,-0.280414 10.966775,-2.808931 1.359788,-1.010569 2.829787,-2.170722 3.581638,-3.691215 0.09721,-7.992237 0.0191,-16.0067618 0.04888,-24.0075715 0.01507,15.9959135 -0.07306,31.9941725 0.0065,47.9886225 0.06625,3.309082 1.267591,6.996918 4.461168,8.519189 2.411771,1.272673 5.217687,1.107085 7.852693,1.328124"
        id="path65" sodipodi:nodetypes="csccccccccccccccc" inkscape:label="s1" />
    <path
        d="M25.60 73.40L25.60 73.40Q18.10 73.40 14.20 69.10L14.20 69.10Q12.10 66.80 11.10 63.65Q10.10 60.50 10.10 55.20L10.10 55.20L10.10 44.40Q10.10 41.70 9.75 40.20Q9.40 38.70 8.60 37.60L8.60 37.60Q7.60 36.20 5.55 35.75Q3.50 35.30 0.90 35.30L0.90 35.30L1.50 30.40L2.30 30.40Q9.50 30.40 12.60 34.00L12.60 34.00Q14.10 35.60 14.75 38.05Q15.40 40.50 15.40 44.20L15.40 44.20L15.40 55.10Q15.40 59.40 16.10 61.90Q16.80 64.40 18.30 65.90L18.30 65.90Q20.80 68.50 25.60 68.50L25.60 68.50Q30.60 68.50 33.20 65.50L33.20 65.50Q34.40 64 35.05 61.75Q35.70 59.50 35.70 55.60L35.70 55.60L35.70 41.70L41 42.30L41 54.20Q43.20 57.70 47.60 57.60L47.60 57.60Q50.70 57.60 53 56.25Q55.30 54.90 57.10 52.70L57.10 52.70L57.10 29.30L62.40 30.10L62.40 75.50Q62.40 78.70 62.95 80.30Q63.50 81.90 64.70 82.90L64.70 82.90Q65.80 84.10 67.80 84.35Q69.80 84.60 72.10 84.60L72.10 84.60L71.50 89.60L70.60 89.60Q64 89.60 60.70 86.60L60.70 86.60Q58.90 85.00 58 82.50Q57.10 80 57.10 75.80L57.10 75.80L57.10 59.20Q55.30 60.70 53 61.60Q50.70 62.50 47.60 62.50L47.60 62.50Q45.80 62.50 44.05 62.00Q42.30 61.50 40.70 60.40L40.70 60.40Q39.90 66.40 35.85 69.90Q31.80 73.40 25.60 73.40ZM83.80 51.30L83.80 51.30Q82.00 51.30 80.60 49.95Q79.20 48.60 79.20 46.20L79.20 46.20Q79.20 43.80 80.55 42.45Q81.90 41.10 83.80 41.10L83.80 41.10Q85.80 41.10 87.10 42.45Q88.40 43.80 88.40 46.20L88.40 46.20Q88.40 48.70 87.05 50.00Q85.70 51.30 83.80 51.30ZM83.80 84.60L83.80 84.60Q82.00 84.60 80.60 83.25Q79.20 81.90 79.20 79.50L79.20 79.50Q79.20 77.10 80.55 75.75Q81.90 74.40 83.80 74.40L83.80 74.40Q85.80 74.40 87.10 75.75Q88.40 77.10 88.40 79.50L88.40 79.50Q88.40 82.00 87.05 83.30Q85.70 84.60 83.80 84.60Z" />
</svg>