<?xml version="1.0" encoding="UTF-8" standalone="no"?>
<svg
   width="96.300003"
   height="89"
   version="1.1"
   id="svg313"
   sodipodi:docname="3_khee.svg"
   inkscape:version="1.2.1 (9c6d41e410, 2022-07-14)"
   xmlns:inkscape="http://www.inkscape.org/namespaces/inkscape"
   xmlns:sodipodi="http://sodipodi.sourceforge.net/DTD/sodipodi-0.dtd"
   xmlns="http://www.w3.org/2000/svg"
   xmlns:svg="http://www.w3.org/2000/svg">
  <defs
     id="defs317" />
  <sodipodi:namedview
     id="namedview315"
     pagecolor="#ffffff"
     bordercolor="#666666"
     borderopacity="1.0"
     inkscape:showpageshadow="2"
     inkscape:pageopacity="0.0"
     inkscape:pagecheckerboard="0"
     inkscape:deskcolor="#d1d1d1"
     showgrid="false"
     inkscape:zoom="4"
     inkscape:cx="26.125"
     inkscape:cy="29.75"
     inkscape:window-width="1920"
     inkscape:window-height="1027"
     inkscape:window-x="-8"
     inkscape:window-y="-8"
     inkscape:window-maximized="1"
     inkscape:current-layer="svg313" />
  <g
     id="g664"
     inkscape:label="g1">
    <path
       d="m 24.7,72.8 v 0 q -7.5,0 -11.4,-4.3 v 0 q -2.1,-2.3 -3.1,-5.45 -1,-3.15 -1,-8.45 v 0 -10.8 Q 9.2,41.1 8.85,39.6 8.5,38.1 7.7,37 v 0 Q 6.7,35.6 4.65,35.15 2.6,34.7 0,34.7 v 0 l 0.6,-4.9 h 0.8 q 7.2,0 10.3,3.6 v 0 q 1.5,1.6 2.15,4.05 0.65,2.45 0.65,6.15 v 0 10.9 q 0,4.3 0.7,6.8 0.7,2.5 2.2,4 v 0 q 2.5,2.6 7.3,2.6 v 0 q 5,0 7.6,-3 v 0 Q 33.5,63.4 34.15,61.15 34.8,58.9 34.8,55 v 0 -13.9 l 5.3,0.6 v 11.9 q 2.2,3.5 6.6,3.4 v 0 q 3.1,0 5.4,-1.35 2.3,-1.35 4.1,-3.55 v 0 -23.4 l 5.3,0.8 v 45.4 q 0,3.2 0.55,4.8 0.55,1.6 1.75,2.6 v 0 q 1.1,1.2 3.1,1.45 2,0.25 4.3,0.25 v 0 l -0.6,5 h -0.9 q -6.6,0 -9.9,-3 v 0 Q 58,84.4 57.1,81.9 56.2,79.4 56.2,75.2 v 0 -16.6 q -1.8,1.5 -4.1,2.4 -2.3,0.9 -5.4,0.9 v 0 q -1.8,0 -3.55,-0.5 -1.75,-0.5 -3.35,-1.6 v 0 q -0.8,6 -4.85,9.5 -4.05,3.5 -10.25,3.5 z"
       id="path311"
       inkscape:label="p1" />
    <path
       style="display:inline;fill:none;stroke:#000000;stroke-width:1px;stroke-linecap:butt;stroke-linejoin:miter;stroke-opacity:1"
       d="m -0.01153519,32.289468 c 0.832901,0.01077 1.43654799,0.07162 2.17616299,0.117471 2.449117,0.151833 4.931407,0.385265 6.845451,2.072214 3.1118692,2.849507 2.8252042,7.446605 2.8416592,11.306195 0.153594,5.197312 -0.431062,10.476834 0.640622,15.604156 0.86944,4.163263 4.14583,7.830187 8.42603,8.566027 4.96106,1.101136 11.02763,0.0761 14.0405,-4.398138 2.9793,-4.365341 2.50664,-9.893823 2.50939,-14.909679 -0.008,-3.266551 -0.0152,-6.533102 -0.0228,-9.799653"
       id="path65-7"
       inkscape:label="s1" />
    <path
       id="path263"
       style="display:inline;fill:none;stroke:#000000;stroke-width:1px;stroke-linecap:butt;stroke-linejoin:miter;stroke-opacity:1"
       inkscape:label="s2"
       d="m 37.89127,55.791802 c 2.05423,1.761378 4.55048,3.104805 7.22763,3.574826 3.7949,0.518788 7.72084,-0.80137 10.57429,-3.323574 1.11917,-0.840883 2.08183,-1.863372 3.1635,-2.748258 -0.007,-8.193182 -0.0137,-16.386365 -0.0206,-24.579547"
       sodipodi:nodetypes="cccccc" />
    <path
       style="display:inline;fill:none;stroke:#000000;stroke-width:1px;stroke-linecap:butt;stroke-linejoin:miter;stroke-opacity:1"
       d="m 58.85818,53.269937 0.0222,23.4105 c 0.0662,3.309082 1.26759,6.996918 4.46117,8.519189 2.41177,1.272674 5.21769,1.107085 7.85269,1.328124"
       id="path266"
       inkscape:label="s3" />
  </g>
  <g
     id="g668"
     inkscape:label="g2">
    <path
       d="m 95.8,89 h -1 q -3,0 -5.55,-0.65 Q 86.7,87.7 84.9,86 v 0 Q 81.4,82.7 81.4,75.2 v 0 -46.7 Q 80,17.1 76.5,11 73,4.9 67.5,4.9 v 0 q -3.6,0 -5.6,2.6 -2,2.6 -2,7.7 v 0 q 0,3.9 0.6,7 v 0 h -5.1 q -0.3,-1.5 -0.55,-3.6 -0.25,-2.1 -0.25,-4 v 0 Q 54.6,8 57.95,4 61.3,0 67.5,0 v 0 q 5.9,0 9.9,3.95 4,3.95 6.25,10.4 2.25,6.45 3.05,13.85 v 0 46.7 q 0,3.3 0.5,4.85 0.5,1.55 1.7,2.55 v 0 q 1.2,1.2 3.2,1.45 2,0.25 4.2,0.25 v 0 z"
       id="path658"
       inkscape:label="p2" />
    <path
       style="display:inline;fill:none;stroke:#000000;stroke-width:1px;stroke-linecap:butt;stroke-linejoin:miter;stroke-opacity:1"
       d="m 58.024587,22.296376 c -0.717054,-5.049715 -1.596876,-10.626855 1.042088,-15.2919973 2.067513,-3.822449 6.865899,-5.222126 10.922937,-4.303046 5.299598,1.061053 8.634255,5.994456 10.53375,10.6924093 1.94946,4.911209 3.041647,10.154719 3.53254,15.40287 0.03373,16.081561 -0.05668,32.165472 0.05492,48.24557 0.09206,3.48513 1.641413,7.40006 5.196702,8.60873 2.224083,0.86463 4.672997,0.63787 7.006103,0.85642"
       id="path80"
       inkscape:label="s4" />
  </g>
</svg>
