<?xml version="1.0" encoding="UTF-8" standalone="no"?>
<svg
   width="72.699997"
   height="87"
   version="1.1"
   id="svg1992"
   sodipodi:docname="4_khu.svg"
   inkscape:version="1.2.1 (9c6d41e410, 2022-07-14)"
   xmlns:inkscape="http://www.inkscape.org/namespaces/inkscape"
   xmlns:sodipodi="http://sodipodi.sourceforge.net/DTD/sodipodi-0.dtd"
   xmlns="http://www.w3.org/2000/svg"
   xmlns:svg="http://www.w3.org/2000/svg">
  <defs
     id="defs1996" />
  <sodipodi:namedview
     id="namedview1994"
     pagecolor="#ffffff"
     bordercolor="#666666"
     borderopacity="1.0"
     inkscape:showpageshadow="2"
     inkscape:pageopacity="0.0"
     inkscape:pagecheckerboard="0"
     inkscape:deskcolor="#d1d1d1"
     showgrid="false"
     inkscape:zoom="7.2392641"
     inkscape:cx="50.764828"
     inkscape:cy="47.656777"
     inkscape:window-width="1920"
     inkscape:window-height="1017"
     inkscape:window-x="-8"
     inkscape:window-y="-8"
     inkscape:window-maximized="1"
     inkscape:current-layer="svg1992" />
  <path
     style="display:inline;fill:none;stroke:#000000;stroke-width:1px;stroke-linecap:butt;stroke-linejoin:miter;stroke-opacity:1"
     d="m 48.027373,65.290512 c 2.323807,-0.692195 4.562347,-1.731347 7.000658,-1.966609 3.549036,-0.376084 7.376537,-0.234926 10.53575,1.599631 2.719286,1.540051 4.469061,4.52798 4.601284,7.636307 0.253017,2.845818 -0.456653,5.883237 -2.460912,7.998761 -2.433486,2.67518 -6.157635,3.68678 -9.656459,3.920638 -5.234122,0.320574 -10.649497,-0.538946 -15.244193,-3.167062 -2.783225,-1.555519 -5.242574,-3.63938 -7.502095,-5.873296 -2.068108,-2.234836 -4.046796,-4.546107 -6.012313,-6.871026"
     id="path198"
     inkscape:label="s2" />
  <path
     style="display:inline;fill:none;stroke:#000000;stroke-width:1px;stroke-linecap:butt;stroke-linejoin:miter;stroke-opacity:1"
     d="m -0.01153519,3.589518 c 0.832901,0.01077 1.43654799,0.07162 2.17616299,0.117471 2.4491171,0.151832 4.9314074,0.385265 6.845451,2.072214 3.1118692,2.849507 2.8252042,7.446605 2.8416592,11.306195 0.153594,5.197312 -0.431062,10.476834 0.640622,15.604156 0.869444,4.163263 4.145831,7.830187 8.426032,8.566027 4.961059,1.101136 11.027624,0.0761 14.040498,-4.398138 2.9793,-4.365341 2.506642,-9.893823 2.509387,-14.909679 -0.0076,-3.266551 -0.01519,-6.533102 -0.02278,-9.799653 0.04419,4.528845 -0.01486,9.080793 0.11328,13.597656 1.444167,2.4093 4.044701,4.028409 6.719121,4.753812 3.847876,0.814881 7.966538,-0.280414 10.966775,-2.808931 1.359788,-1.010569 2.829787,-2.170722 3.581638,-3.691215 0.09721,-7.992237 0.0191,-16.006762 0.04888,-24.00757195 0.01507,15.99591395 -0.07306,31.99417295 0.0065,47.98862295 0.06625,3.309082 1.267591,6.996918 4.461168,8.519189 2.411771,1.272673 5.217687,1.107085 7.852693,1.328124"
     id="path65"
     sodipodi:nodetypes="csccccccccccccccc"
     inkscape:label="s1" />
  <path
     d="m 24.7,44.1 v 0 q -7.5,0 -11.4,-4.3 v 0 q -2.1,-2.3 -3.1,-5.45 -1,-3.15 -1,-8.45 v 0 -10.8 Q 9.2,12.4 8.85,10.9 8.5,9.4 7.7,8.3 v 0 Q 6.7,6.9 4.65,6.45 2.6,6 0,6 V 6 L 0.6,1.1 h 0.8 q 7.2,0 10.3,3.6 v 0 q 1.5,1.6 2.15,4.05 0.65,2.45 0.65,6.15 v 0 10.9 q 0,4.3 0.7,6.8 0.7,2.5 2.2,4 v 0 q 2.5,2.6 7.3,2.6 v 0 q 5,0 7.6,-3 v 0 q 1.2,-1.5 1.85,-3.75 0.65,-2.25 0.65,-6.15 v 0 -13.9 l 5.3,0.6 v 11.9 q 2.2,3.5 6.6,3.4 v 0 q 3.1,0 5.4,-1.35 2.3,-1.35 4.1,-3.55 v 0 V 0 l 5.3,0.8 v 45.4 q 0,3.2 0.55,4.8 0.55,1.6 1.75,2.6 v 0 q 1.1,1.2 3.1,1.45 2,0.25 4.3,0.25 v 0 l -0.6,5 h -0.9 q -6.6,0 -9.9,-3 v 0 Q 58,55.7 57.1,53.2 56.2,50.7 56.2,46.5 v 0 -16.6 q -1.8,1.5 -4.1,2.4 -2.3,0.9 -5.4,0.9 v 0 q -1.8,0 -3.55,-0.5 -1.75,-0.5 -3.35,-1.6 v 0 q -0.8,6 -4.85,9.5 -4.05,3.5 -10.25,3.5 z M 56,87 v 0 Q 49.4,87 44.25,84.75 39.1,82.5 34.95,78.7 30.8,74.9 27.3,70.1 v 0 l 4.2,-2.9 q 5.1,6.7 10.7,10.8 5.6,4.1 13.8,4.1 v 0 q 5.7,0 8.7,-2.2 3,-2.2 3,-6.5 v 0 q 0,-3.9 -2.6,-5.9 -2.6,-2 -7,-2 v 0 q -2.5,0 -4.7,0.55 -2.2,0.55 -4.4,1.45 v 0 L 47.2,63 q 2.6,-1.1 5.2,-1.65 2.6,-0.55 5.4,-0.55 v 0 q 7.1,0 11,3.55 3.9,3.55 3.9,9.45 v 0 q 0,6.2 -4.45,9.7 Q 63.8,87 56,87 Z"
     id="path1990"
     inkscape:label="p1" />
</svg>
