<?xml version="1.0" encoding="UTF-8" standalone="no"?>
<svg
   width="71.199997"
   height="89.599998"
   version="1.1"
   id="svg2089"
   sodipodi:docname="6_khe.svg"
   inkscape:version="1.2.1 (9c6d41e410, 2022-07-14)"
   xmlns:inkscape="http://www.inkscape.org/namespaces/inkscape"
   xmlns:sodipodi="http://sodipodi.sourceforge.net/DTD/sodipodi-0.dtd"
   xmlns="http://www.w3.org/2000/svg"
   xmlns:svg="http://www.w3.org/2000/svg">
  <defs
     id="defs2093" />
  <sodipodi:namedview
     id="namedview2091"
     pagecolor="#ffffff"
     bordercolor="#666666"
     borderopacity="1.0"
     inkscape:showpageshadow="2"
     inkscape:pageopacity="0.0"
     inkscape:pagecheckerboard="0"
     inkscape:deskcolor="#d1d1d1"
     showgrid="false"
     inkscape:zoom="5.6568543"
     inkscape:cx="10.16466"
     inkscape:cy="58.336309"
     inkscape:window-width="1920"
     inkscape:window-height="1027"
     inkscape:window-x="-8"
     inkscape:window-y="-8"
     inkscape:window-maximized="1"
     inkscape:current-layer="svg2089" />
  <g
     id="g727"
     inkscape:label="g1">
    <path
       d="m 24.7,73.4 v 0 q -7.5,0 -11.4,-4.3 v 0 q -2.1,-2.3 -3.1,-5.45 -1,-3.15 -1,-8.45 v 0 -10.8 Q 9.2,41.7 8.85,40.2 8.5,38.7 7.7,37.6 v 0 Q 6.7,36.2 4.65,35.75 2.6,35.3 0,35.3 v 0 l 0.6,-4.9 h 0.8 q 7.2,0 10.3,3.6 v 0 q 1.5,1.6 2.15,4.05 0.65,2.45 0.65,6.15 v 0 10.9 q 0,4.3 0.7,6.8 0.7,2.5 2.2,4 v 0 q 2.5,2.6 7.3,2.6 v 0 q 5,0 7.6,-3 v 0 Q 33.5,64 34.15,61.75 34.8,59.5 34.8,55.6 v 0 -13.9 l 5.3,0.6 v 11.9 q 2.2,3.5 6.6,3.4 v 0 q 3.1,0 5.4,-1.35 2.3,-1.35 4.1,-3.55 v 0 -23.4 l 5.3,0.8 v 45.4 q 0,3.2 0.55,4.8 0.55,1.6 1.75,2.6 v 0 q 1.1,1.2 3.1,1.45 2,0.25 4.3,0.25 v 0 l -0.6,5 h -0.9 q -6.6,0 -9.9,-3 v 0 Q 58,85 57.1,82.5 56.2,80 56.2,75.8 v 0 -16.6 q -1.8,1.5 -4.1,2.4 -2.3,0.9 -5.4,0.9 v 0 Q 44.9,62.5 43.15,62 41.4,61.5 39.8,60.4 v 0 q -0.8,6 -4.85,9.5 -4.05,3.5 -10.25,3.5 z"
       id="path2087"
       inkscape:label="p1" />
    <path
       style="display:inline;fill:none;stroke:#000000;stroke-width:1px;stroke-linecap:butt;stroke-linejoin:miter;stroke-opacity:1"
       d="m -0.01153339,32.889467 c 0.832901,0.01077 1.43654799,0.07162 2.17616299,0.11747 2.4491167,0.151833 4.931407,0.385265 6.8454506,2.072215 3.1118688,2.849507 2.8252038,7.446605 2.8416588,11.306195 0.153594,5.197311 -0.431062,10.476833 0.640622,15.604155 0.869444,4.163263 4.145831,7.830187 8.426032,8.566027 4.96106,1.101136 11.027625,0.0761 14.040499,-4.398138 2.9793,-4.365341 2.506642,-9.893823 2.509387,-14.909679 -0.0076,-3.266551 -0.01519,-6.533101 -0.02278,-9.799652"
       id="path65-3"
       inkscape:label="s1" />
    <path
       id="path263"
       style="display:inline;fill:none;stroke:#000000;stroke-width:1px;stroke-linecap:butt;stroke-linejoin:miter;stroke-opacity:1"
       inkscape:label="s2"
       d="m 37.891269,56.3918 c 2.054235,1.761378 4.55048,3.104805 7.227634,3.574826 3.794901,0.518788 7.720842,-0.80137 10.574288,-3.323574 1.119173,-0.840883 2.081832,-1.863372 3.163502,-2.748258 -0.0069,-8.193181 -0.01371,-16.386364 -0.02057,-24.579546"
       sodipodi:nodetypes="cccccc" />
    <path
       style="display:inline;fill:none;stroke:#000000;stroke-width:1px;stroke-linecap:butt;stroke-linejoin:miter;stroke-opacity:1"
       d="m 58.858186,53.869935 0.02224,23.4105 c 0.06625,3.309082 1.267591,6.996918 4.461168,8.519189 2.411771,1.272674 5.217687,1.107085 7.852693,1.328124"
       id="path266"
       inkscape:label="s3" />
  </g>
  <g
     id="g731"
     inkscape:label="g2">
    <path
       d="M 61.1,25.5 H 56.3 Q 54.1,17.9 52.1,13.4 50.1,8.9 47.55,6.9 45,4.9 41.1,4.9 v 0 q -2.8,0 -5.8,0.9 v 0 L 33.7,1.2 Q 35.7,0.6 37.65,0.3 39.6,0 41.4,0 v 0 q 4.7,0 8.2,2.15 3.5,2.15 6.25,7.65 2.75,5.5 5.25,15.7 z"
       id="path721"
       inkscape:label="p2" />
    <path
       style="display:inline;fill:none;stroke:#000000;stroke-width:1px;stroke-linecap:butt;stroke-linejoin:miter;stroke-opacity:1"
       d="m 34.302338,3.6725822 c 2.689875,-0.601475 5.40744,-1.463833 8.197059,-1.141472 2.933702,0.144461 5.855129,1.354856 7.857702,3.5355892 2.358946,2.4575826 3.759606,5.6375576 4.974188,8.7750986 1.29204,3.54249 2.32594,7.16808 3.361676,10.791709"
       id="path595"
       inkscape:label="s4" />
  </g>
</svg>
