<?xml version="1.0" encoding="UTF-8" standalone="no"?>
<svg
   width="71.199997"
   height="89.599998"
   version="1.1"
   id="svg2089"
   sodipodi:docname="6_khe.svg"
   inkscape:version="1.2.1 (9c6d41e410, 2022-07-14)"
   xmlns:inkscape="http://www.inkscape.org/namespaces/inkscape"
   xmlns:sodipodi="http://sodipodi.sourceforge.net/DTD/sodipodi-0.dtd"
   xmlns="http://www.w3.org/2000/svg"
   xmlns:svg="http://www.w3.org/2000/svg">
  <defs
     id="defs2093" />
  <sodipodi:namedview
     id="namedview2091"
     pagecolor="#ffffff"
     bordercolor="#666666"
     borderopacity="1.0"
     inkscape:showpageshadow="2"
     inkscape:pageopacity="0.0"
     inkscape:pagecheckerboard="0"
     inkscape:deskcolor="#d1d1d1"
     showgrid="false"
     inkscape:zoom="5.6568543"
     inkscape:cx="-18.473165"
     inkscape:cy="58.336309"
     inkscape:window-width="1920"
     inkscape:window-height="1017"
     inkscape:window-x="-8"
     inkscape:window-y="-8"
     inkscape:window-maximized="1"
     inkscape:current-layer="svg2089" />
  <path
     style="display:inline;fill:none;stroke:#000000;stroke-width:1px;stroke-linecap:butt;stroke-linejoin:miter;stroke-opacity:1"
     d="m 34.302338,3.6725822 c 2.689875,-0.601475 5.40744,-1.463833 8.197059,-1.141472 2.933702,0.144461 5.855129,1.354856 7.857702,3.5355892 2.358946,2.4575826 3.759606,5.6375576 4.974188,8.7750986 1.29204,3.54249 2.32594,7.16808 3.361676,10.791709"
     id="path595"
     inkscape:label="s2" />
  <path
     style="display:inline;fill:none;stroke:#000000;stroke-width:1px;stroke-linecap:butt;stroke-linejoin:miter;stroke-opacity:1"
     d="m -0.01253519,32.899838 c 0.832901,0.01077 1.43654799,0.07162 2.17616299,0.117471 2.449117,0.151833 4.931407,0.385265 6.845451,2.072214 3.1118682,2.849507 2.8252032,7.446605 2.8416582,11.306195 0.153594,5.197312 -0.431062,10.476834 0.640622,15.604156 0.869444,4.163263 4.145831,7.830187 8.426032,8.566027 4.961059,1.101136 11.027624,0.0761 14.040498,-4.398138 2.9793,-4.365341 2.506642,-9.893823 2.509387,-14.909679 -0.0076,-3.266551 -0.01519,-6.533102 -0.02278,-9.799653 0.04419,4.528845 -0.01486,9.080793 0.11328,13.597656 1.444167,2.4093 4.044701,4.028409 6.719121,4.753812 3.847876,0.814881 7.966538,-0.280414 10.966775,-2.808931 1.359788,-1.010569 2.829787,-2.170722 3.581638,-3.691215 0.09721,-7.992237 0.0191,-16.006762 0.04888,-24.007572 0.01507,15.995914 -0.07306,31.994173 0.0065,47.988623 0.06625,3.309082 1.267591,6.996918 4.461168,8.519189 2.411771,1.272673 5.217687,1.107085 7.852691,1.328124"
     id="path65"
     sodipodi:nodetypes="csccccccccccccccc"
     inkscape:label="s1" />
  <path
     d="m 24.7,73.4 v 0 q -7.5,0 -11.4,-4.3 v 0 q -2.1,-2.3 -3.1,-5.45 -1,-3.15 -1,-8.45 v 0 -10.8 Q 9.2,41.7 8.85,40.2 8.5,38.7 7.7,37.6 v 0 Q 6.7,36.2 4.65,35.75 2.6,35.3 0,35.3 v 0 l 0.6,-4.9 h 0.8 q 7.2,0 10.3,3.6 v 0 q 1.5,1.6 2.15,4.05 0.65,2.45 0.65,6.15 v 0 10.9 q 0,4.3 0.7,6.8 0.7,2.5 2.2,4 v 0 q 2.5,2.6 7.3,2.6 v 0 q 5,0 7.6,-3 v 0 Q 33.5,64 34.15,61.75 34.8,59.5 34.8,55.6 v 0 -13.9 l 5.3,0.6 v 11.9 q 2.2,3.5 6.6,3.4 v 0 q 3.1,0 5.4,-1.35 2.3,-1.35 4.1,-3.55 v 0 -23.4 l 5.3,0.8 v 45.4 q 0,3.2 0.55,4.8 0.55,1.6 1.75,2.6 v 0 q 1.1,1.2 3.1,1.45 2,0.25 4.3,0.25 v 0 l -0.6,5 h -0.9 q -6.6,0 -9.9,-3 v 0 Q 58,85 57.1,82.5 56.2,80 56.2,75.8 v 0 -16.6 q -1.8,1.5 -4.1,2.4 -2.3,0.9 -5.4,0.9 v 0 Q 44.9,62.5 43.15,62 41.4,61.5 39.8,60.4 v 0 q -0.8,6 -4.85,9.5 -4.05,3.5 -10.25,3.5 z M 61.1,25.5 H 56.3 Q 54.1,17.9 52.1,13.4 50.1,8.9 47.55,6.9 45,4.9 41.1,4.9 v 0 q -2.8,0 -5.8,0.9 v 0 L 33.7,1.2 Q 35.7,0.6 37.65,0.3 39.6,0 41.4,0 v 0 q 4.7,0 8.2,2.15 3.5,2.15 6.25,7.65 2.75,5.5 5.25,15.7 z"
     id="path2087"
     inkscape:label="p1" />
</svg>
