<?xml version="1.0" encoding="UTF-8" standalone="no"?>
<svg
   width="71.199997"
   height="89.599998"
   version="1.1"
   id="svg2144"
   sodipodi:docname="7_khai.svg"
   inkscape:version="1.2.1 (9c6d41e410, 2022-07-14)"
   xmlns:inkscape="http://www.inkscape.org/namespaces/inkscape"
   xmlns:sodipodi="http://sodipodi.sourceforge.net/DTD/sodipodi-0.dtd"
   xmlns="http://www.w3.org/2000/svg"
   xmlns:svg="http://www.w3.org/2000/svg">
  <defs
     id="defs2148" />
  <sodipodi:namedview
     id="namedview2146"
     pagecolor="#ffffff"
     bordercolor="#666666"
     borderopacity="1.0"
     inkscape:showpageshadow="2"
     inkscape:pageopacity="0.0"
     inkscape:pagecheckerboard="0"
     inkscape:deskcolor="#d1d1d1"
     showgrid="false"
     inkscape:zoom="5.6568543"
     inkscape:cx="33.764349"
     inkscape:cy="64.877047"
     inkscape:window-width="1920"
     inkscape:window-height="1027"
     inkscape:window-x="-8"
     inkscape:window-y="-8"
     inkscape:window-maximized="1"
     inkscape:current-layer="svg2144" />
  <g
     id="g65"
     inkscape:label="g1"
     transform="matrix(0.99924077,0,0,1,0.01817402,29.3)">
    <path
       style="display:inline;stroke-width:1.00038"
       d="m 24.700579,44.1 v 0 q -7.505698,0 -11.408662,-4.3 v 0 Q 11.190322,37.5 10.189562,34.35 9.1888024,31.2 9.1888024,25.9 v 0 -10.8 q 0,-2.7 -0.3502659,-4.2 Q 8.4882706,9.4 7.6876627,8.3 v 0 Q 6.6869029,6.9 4.6353453,6.45 2.5837877,6 -0.01818783,6 V 6 L 0.58226805,1.1 H 1.3828759 q 7.2054706,0 10.3078261,3.6 v 0 q 1.501139,1.6 2.151633,4.05 0.650494,2.45 0.650494,6.15 v 0 10.9 q 0,4.3 0.700532,6.8 0.700532,2.5 2.201672,4 v 0 q 2.501899,2.6 7.305546,2.6 v 0 q 5.003799,0 7.605775,-3 v 0 q 1.200912,-1.5 1.851405,-3.75 0.650494,-2.25 0.650494,-6.15 v 0 -13.9 L 40.11228,13 v 11.9 q 2.201672,3.5 6.605015,3.4 v 0 q 3.102355,0 5.404103,-1.35 2.301747,-1.35 4.103115,-3.55 v 0 V 0 l 5.304027,0.8 v 45.4 q 0,3.2 0.550418,4.8 0.550418,1.6 1.75133,2.6 v 0 q 1.100835,1.2 3.102355,1.45 2.00152,0.25 4.303267,0.25 v 0 l -0.600456,5 h -0.900683 q -6.605015,0 -9.907523,-3 v 0 q -1.801367,-1.6 -2.702051,-4.1 -0.900684,-2.5 -0.900684,-6.7 v 0 -16.6 q -1.801368,1.5 -4.103115,2.4 -2.301748,0.9 -5.404103,0.9 v 0 q -1.801368,0 -3.552697,-0.5 -1.75133,-0.5 -3.352546,-1.6 v 0 q -0.800608,6 -4.853685,9.5 -4.053077,3.5 -10.257788,3.5 z"
       id="path2"
       inkscape:label="p1" />
    <path
       style="display:inline;fill:none;stroke:#000000;stroke-width:1px;stroke-linecap:butt;stroke-linejoin:miter;stroke-opacity:1"
       d="m -0.01171875,3.5898438 c 0.83290084,0.010773 1.43654805,0.071618 2.17616255,0.1174708 2.4491173,0.1518329 4.9314076,0.385265 6.8454512,2.0722144 3.111869,2.849507 2.825204,7.446605 2.841659,11.306195 0.153594,5.197312 -0.431062,10.476834 0.640622,15.604156 0.869444,4.163263 4.145831,7.830187 8.426032,8.566027 4.961059,1.101136 11.027624,0.0761 14.040498,-4.398138 2.9793,-4.365341 2.506642,-9.893823 2.509387,-14.909679 -0.0076,-3.266551 -0.01519,-6.533102 -0.02278,-9.799653"
       id="path65-8"
       inkscape:label="s1" />
    <path
       id="path263-1"
       style="display:inline;fill:none;stroke:#000000;stroke-width:1px;stroke-linecap:butt;stroke-linejoin:miter;stroke-opacity:1"
       inkscape:label="s2"
       d="m 37.891083,27.092178 c 2.054235,1.761378 4.55048,3.104805 7.227634,3.574826 3.794901,0.518788 7.720842,-0.80137 10.574288,-3.323574 1.119173,-0.840883 2.081832,-1.863372 3.163502,-2.748258 -0.0069,-8.193182 -0.01371,-16.3863647 -0.02057,-24.579547"
       sodipodi:nodetypes="cccccc" />
    <path
       style="display:inline;fill:none;stroke:#000000;stroke-width:1px;stroke-linecap:butt;stroke-linejoin:miter;stroke-opacity:1"
       d="m 58.858,24.570313 0.02224,23.4105 c 0.06625,3.309082 1.267591,6.996918 4.461168,8.519189 2.411771,1.272674 5.217687,1.107085 7.852693,1.328124"
       id="path266-8"
       inkscape:label="s3" />
  </g>
  <g
     id="g771"
     inkscape:label="g2">
    <path
       d="M 61.2,25.5 H 56.8 Q 54.9,17.7 53.05,13.15 51.2,8.6 48.75,6.7 46.3,4.8 42.5,4.8 v 0 Q 41.3,4.8 39.95,5 38.6,5.2 37.1,5.7 v 0 L 35.6,1.1 Q 37.5,0.5 39.3,0.25 41.1,0 42.8,0 v 0 q 4.6,0 7.95,2.25 3.35,2.25 5.85,7.8 2.5,5.55 4.6,15.45 z"
       id="path755"
       inkscape:label="p3" />
    <path
       style="display:inline;fill:none;stroke:#000000;stroke-width:1px;stroke-linecap:butt;stroke-linejoin:miter;stroke-opacity:1"
       d="m 36.176339,3.4759177 c 2.182778,-0.497605 4.36528,-1.194639 6.631852,-1.071019 2.053103,-0.04429 4.123749,0.421695 5.902797,1.46383 1.290672,0.657207 2.43165,1.601891 3.277933,2.780216 1.787546,2.26244 2.976329,4.9290233 3.905851,7.6410003 1.112879,3.208175 2.009172,6.487831 2.71558,9.809147 0.117031,0.515091 0.234062,1.030183 0.351093,1.545274"
       id="path662"
       inkscape:label="s5" />
  </g>
  <g
     id="g767"
     inkscape:label="g3">
    <path
       d="m 55.9,23.7 -2.8,2.9 Q 47,21.2 42.8,18.85 38.6,16.5 33.7,16.5 v 0 q -3.5,0 -6.4,0.9 v 0 l -1.5,-4.7 q 1.8,-0.4 3.75,-0.7 1.95,-0.3 4.15,-0.3 v 0 q 3.8,0 7.15,1.2 3.35,1.2 6.9,3.85 3.55,2.65 8.15,6.95 z"
       id="path757"
       inkscape:label="p2" />
    <path
       style="display:inline;fill:none;stroke:#000000;stroke-width:1px;stroke-linecap:butt;stroke-linejoin:miter;stroke-opacity:1"
       d="m 26.401387,15.059862 c 2.029636,-0.33742 4.047135,-0.823273 6.106769,-0.926121 1.714467,-0.03627 3.44192,-0.0066 5.121334,0.377952 1.626492,0.286246 3.200444,0.851561 4.696094,1.542318 3.239677,1.543111 6.000222,3.881137 8.751411,6.145612 1.177108,1.030396 2.354216,2.060791 3.531324,3.091187"
       id="path660"
       inkscape:label="s4" />
  </g>
</svg>
