<?xml version="1.0" encoding="UTF-8" standalone="no"?>
<svg
   width="96.300003"
   height="89.599998"
   version="1.1"
   id="svg2197"
   sodipodi:docname="8_kho.svg"
   inkscape:version="1.2.1 (9c6d41e410, 2022-07-14)"
   xmlns:inkscape="http://www.inkscape.org/namespaces/inkscape"
   xmlns:sodipodi="http://sodipodi.sourceforge.net/DTD/sodipodi-0.dtd"
   xmlns="http://www.w3.org/2000/svg"
   xmlns:svg="http://www.w3.org/2000/svg">
  <defs
     id="defs2201" />
  <sodipodi:namedview
     id="namedview2199"
     pagecolor="#ffffff"
     bordercolor="#666666"
     borderopacity="1.0"
     inkscape:showpageshadow="2"
     inkscape:pageopacity="0.0"
     inkscape:pagecheckerboard="0"
     inkscape:deskcolor="#d1d1d1"
     showgrid="false"
     inkscape:zoom="5.6568543"
     inkscape:cx="14.407301"
     inkscape:cy="59.220192"
     inkscape:window-width="1920"
     inkscape:window-height="1027"
     inkscape:window-x="-8"
     inkscape:window-y="-8"
     inkscape:window-maximized="1"
     inkscape:current-layer="svg2197" />
  <g
     id="g806"
     inkscape:label="g1">
    <path
       d="m 24.7,73.4 v 0 q -7.5,0 -11.4,-4.3 v 0 q -2.1,-2.3 -3.1,-5.45 -1,-3.15 -1,-8.45 v 0 -10.8 Q 9.2,41.7 8.85,40.2 8.5,38.7 7.7,37.6 v 0 Q 6.7,36.2 4.65,35.75 2.6,35.3 0,35.3 v 0 l 0.6,-4.9 h 0.8 q 7.2,0 10.3,3.6 v 0 q 1.5,1.6 2.15,4.05 0.65,2.45 0.65,6.15 v 0 10.9 q 0,4.3 0.7,6.8 0.7,2.5 2.2,4 v 0 q 2.5,2.6 7.3,2.6 v 0 q 5,0 7.6,-3 v 0 Q 33.5,64 34.15,61.75 34.8,59.5 34.8,55.6 v 0 -13.9 l 5.3,0.6 v 11.9 q 2.2,3.5 6.6,3.4 v 0 q 3.1,0 5.4,-1.35 2.3,-1.35 4.1,-3.55 v 0 -23.4 l 5.3,0.8 v 45.4 q 0,3.2 0.55,4.8 0.55,1.6 1.75,2.6 v 0 q 1.1,1.2 3.1,1.45 2,0.25 4.3,0.25 v 0 l -0.6,5 h -0.9 q -6.6,0 -9.9,-3 v 0 Q 58,85 57.1,82.5 56.2,80 56.2,75.8 v 0 -16.6 q -1.8,1.5 -4.1,2.4 -2.3,0.9 -5.4,0.9 v 0 Q 44.9,62.5 43.15,62 41.4,61.5 39.8,60.4 v 0 q -0.8,6 -4.85,9.5 -4.05,3.5 -10.25,3.5 z"
       id="path2195"
       inkscape:label="p1" />
    <path
       style="display:inline;fill:none;stroke:#000000;stroke-width:1px;stroke-linecap:butt;stroke-linejoin:miter;stroke-opacity:1"
       d="m -0.01153339,32.889466 c 0.832901,0.01077 1.43654799,0.07162 2.17616299,0.117471 2.449117,0.151833 4.931407,0.385265 6.845451,2.072214 3.1118694,2.849507 2.8252044,7.446605 2.8416594,11.306195 0.153594,5.197312 -0.431062,10.476834 0.640622,15.604156 0.869444,4.163263 4.145831,7.830187 8.426032,8.566027 4.961059,1.101136 11.027624,0.0761 14.040498,-4.398138 2.9793,-4.365341 2.506642,-9.893823 2.509387,-14.909679 -0.0076,-3.266551 -0.01519,-6.533102 -0.02278,-9.799653"
       id="path65-3"
       inkscape:label="s1" />
    <path
       id="path263"
       style="display:inline;fill:none;stroke:#000000;stroke-width:1px;stroke-linecap:butt;stroke-linejoin:miter;stroke-opacity:1"
       inkscape:label="s2"
       d="m 37.891269,56.3918 c 2.054235,1.761378 4.55048,3.104805 7.227634,3.574826 3.794901,0.518788 7.720842,-0.80137 10.574288,-3.323574 1.119173,-0.840883 2.081832,-1.863372 3.163502,-2.748258 -0.0069,-8.193182 -0.01371,-16.386364 -0.02057,-24.579547"
       sodipodi:nodetypes="cccccc" />
    <path
       style="display:inline;fill:none;stroke:#000000;stroke-width:1px;stroke-linecap:butt;stroke-linejoin:miter;stroke-opacity:1"
       d="m 58.858186,53.869935 0.02224,23.4105 c 0.06625,3.309082 1.267591,6.996918 4.461168,8.519189 2.411771,1.272674 5.217687,1.107085 7.852693,1.328124"
       id="path266"
       inkscape:label="s3" />
  </g>
  <g
     id="g810"
     inkscape:label="g2">
    <path
       d="m 95.8,89.6 h -1 q -6.6,0 -9.9,-3 v 0 Q 83.1,85 82.25,82.5 81.4,80 81.4,75.8 v 0 -46.5 l 5.3,0.7 v 45.5 q 0,3.3 0.5,4.9 0.5,1.6 1.8,2.6 v 0 q 1.2,1.1 3.05,1.35 1.85,0.25 4.25,0.25 v 0 z"
       id="path798"
       inkscape:label="p2" />
    <path
       style="display:inline;fill:none;stroke:#000000;stroke-width:1px;stroke-linecap:butt;stroke-linejoin:miter;stroke-opacity:1"
       d="m 84.091907,29.312334 c 0.0052,15.660703 -0.0419,31.322813 -0.004,46.982637 0.07316,2.661925 0.300704,5.531206 2.06529,7.674603 1.94562,2.285428 5.076187,2.956218 7.950186,3.001878 0.734456,0.0511 1.468913,0.10225 2.203369,0.15338"
       id="path81"
       inkscape:label="s4" />
  </g>
  <g
     id="g814"
     inkscape:label="g2">
    <path
       d="M 86.2,25.5 H 81.4 Q 79.2,17.9 77.2,13.4 75.2,8.9 72.65,6.9 70.1,4.9 66.2,4.9 v 0 q -2.8,0 -5.8,0.9 v 0 L 58.8,1.2 Q 60.8,0.6 62.75,0.3 64.7,0 66.5,0 v 0 q 4.7,0 8.2,2.15 3.5,2.15 6.25,7.65 2.75,5.5 5.25,15.7 z"
       id="path800"
       inkscape:label="p3" />
    <path
       style="display:inline;fill:none;stroke:#000000;stroke-width:1px;stroke-linecap:butt;stroke-linejoin:miter;stroke-opacity:1"
       d="m 59.49013,3.6428153 c 2.407735,-0.548737 4.818668,-1.284227 7.316349,-1.171875 2.367913,0.06168 4.769179,0.644832 6.746194,1.9883093 2.283908,1.521617 3.856335,3.8675783 5.081293,6.2795274 0.985525,1.850814 1.702889,3.830646 2.400769,5.803765 1.025962,2.981686 1.857827,6.023718 2.740551,9.04949"
       id="path814"
       inkscape:label="s5" />
  </g>
</svg>
