<?xml version="1.0" encoding="UTF-8" standalone="no"?>
<svg
   width="96.300003"
   height="89.599998"
   version="1.1"
   id="svg2263"
   sodipodi:docname="9_khau.svg"
   inkscape:version="1.2.1 (9c6d41e410, 2022-07-14)"
   xmlns:inkscape="http://www.inkscape.org/namespaces/inkscape"
   xmlns:sodipodi="http://sodipodi.sourceforge.net/DTD/sodipodi-0.dtd"
   xmlns="http://www.w3.org/2000/svg"
   xmlns:svg="http://www.w3.org/2000/svg">
  <defs
     id="defs2267" />
  <sodipodi:namedview
     id="namedview2265"
     pagecolor="#ffffff"
     bordercolor="#666666"
     borderopacity="1.0"
     inkscape:showpageshadow="2"
     inkscape:pageopacity="0.0"
     inkscape:pagecheckerboard="0"
     inkscape:deskcolor="#d1d1d1"
     showgrid="false"
     inkscape:zoom="8"
     inkscape:rotation="-1"
     inkscape:cx="50.812287"
     inkscape:cy="36.26732"
     inkscape:window-width="1920"
     inkscape:window-height="1027"
     inkscape:window-x="-8"
     inkscape:window-y="-8"
     inkscape:window-maximized="1"
     inkscape:current-layer="svg2263" />
  <g
     id="g852"
     inkscape:label="g1">
    <path
       style="display:inline"
       d="m 24.7,73.4 v 0 q -7.5,0 -11.4,-4.3 v 0 q -2.1,-2.3 -3.1,-5.45 -1,-3.15 -1,-8.45 v 0 -10.8 Q 9.2,41.7 8.85,40.2 8.5,38.7 7.7,37.6 v 0 Q 6.7,36.2 4.65,35.75 2.6,35.3 0,35.3 v 0 l 0.6,-4.9 h 0.8 q 7.2,0 10.3,3.6 v 0 q 1.5,1.6 2.15,4.05 0.65,2.45 0.65,6.15 v 0 10.9 q 0,4.3 0.7,6.8 0.7,2.5 2.2,4 v 0 q 2.5,2.6 7.3,2.6 v 0 q 5,0 7.6,-3 v 0 Q 33.5,64 34.15,61.75 34.8,59.5 34.8,55.6 v 0 -13.9 l 5.3,0.6 v 11.9 q 2.2,3.5 6.6,3.4 v 0 q 3.1,0 5.4,-1.35 2.3,-1.35 4.1,-3.55 v 0 -23.4 l 5.3,0.8 v 45.4 q 0,3.2 0.55,4.8 0.55,1.6 1.75,2.6 v 0 q 1.1,1.2 3.1,1.45 2,0.25 4.3,0.25 v 0 l -0.6,5 h -0.9 q -6.6,0 -9.9,-3 v 0 Q 58,85 57.1,82.5 56.2,80 56.2,75.8 v 0 -16.6 q -1.8,1.5 -4.1,2.4 -2.3,0.9 -5.4,0.9 v 0 Q 44.9,62.5 43.15,62 41.4,61.5 39.8,60.4 v 0 q -0.8,6 -4.85,9.5 -4.05,3.5 -10.25,3.5 z"
       id="path2261"
       inkscape:label="p1" />
    <path
       style="display:inline;fill:none;stroke:#000000;stroke-width:1px;stroke-linecap:butt;stroke-linejoin:miter;stroke-opacity:1"
       d="m -0.01153519,32.889466 c 0.832901,0.01077 1.43654799,0.07162 2.17616299,0.117471 2.449117,0.151832 4.931407,0.385265 6.845451,2.072214 3.1118692,2.849507 2.8252042,7.446605 2.8416592,11.306195 0.153594,5.197312 -0.431062,10.476834 0.640622,15.604156 0.869444,4.163263 4.145831,7.830187 8.426032,8.566027 4.961059,1.101136 11.027624,0.0761 14.040498,-4.398138 2.9793,-4.365341 2.506642,-9.893823 2.509387,-14.909679 -0.0076,-3.266551 -0.01519,-6.533102 -0.02278,-9.799653"
       id="path65"
       inkscape:label="s1" />
    <path
       id="path263"
       style="display:inline;fill:none;stroke:#000000;stroke-width:1px;stroke-linecap:butt;stroke-linejoin:miter;stroke-opacity:1"
       inkscape:label="s2"
       d="m 37.891267,56.3918 c 2.054235,1.761378 4.55048,3.104805 7.227634,3.574826 3.794901,0.518788 7.720842,-0.80137 10.574288,-3.323574 1.119173,-0.840883 2.081832,-1.863372 3.163502,-2.748258 -0.0069,-8.193182 -0.01371,-16.386365 -0.02057,-24.579547"
       sodipodi:nodetypes="cccccc" />
    <path
       style="display:inline;fill:none;stroke:#000000;stroke-width:1px;stroke-linecap:butt;stroke-linejoin:miter;stroke-opacity:1"
       d="m 58.858184,53.869935 0.02224,23.4105 c 0.06625,3.309082 1.267591,6.996918 4.461168,8.519189 2.411771,1.272674 5.217687,1.107085 7.852693,1.328124"
       id="path266"
       inkscape:label="s3" />
  </g>
  <g
     id="g856"
     inkscape:label="g2">
    <path
       style="display:inline"
       d="m 95.8,89.6 h -1 q -6.6,0 -9.9,-3 v 0 Q 83.1,85 82.25,82.5 81.4,80 81.4,75.8 v 0 -46.5 l 5.3,0.7 v 45.5 q 0,3.3 0.5,4.9 0.5,1.6 1.8,2.6 v 0 q 1.2,1.1 3.05,1.35 1.85,0.25 4.25,0.25 v 0 z"
       id="path842"
       inkscape:label="p2" />
    <path
       style="display:inline;fill:none;stroke:#000000;stroke-width:1px;stroke-linecap:butt;stroke-linejoin:miter;stroke-opacity:1"
       d="m 84.075679,29.360985 c 0.0052,15.660703 -0.0419,31.322813 -0.004,46.982637 0.07316,2.661925 0.300705,5.531206 2.065289,7.674607 1.94562,2.28542 5.076189,2.95621 7.950187,3.00187 0.734455,0.0511 1.468912,0.10225 2.203368,0.15338"
       id="path81"
       inkscape:label="s4" />
  </g>
  <g
     id="g860"
     inkscape:label="g3">
    <path
       style="display:inline"
       d="m 81,23.7 -2.8,2.9 Q 72.1,21.2 67.9,18.85 63.7,16.5 58.8,16.5 v 0 q -3.5,0 -6.4,0.9 v 0 l -1.5,-4.7 q 1.8,-0.4 3.75,-0.7 1.95,-0.3 4.15,-0.3 v 0 q 3.8,0 7.15,1.2 3.35,1.2 6.9,3.85 3.55,2.65 8.15,6.95 z"
       id="path846"
       inkscape:label="p3" />
    <path
       style="display:inline;fill:none;stroke:#000000;stroke-width:1px;stroke-linecap:butt;stroke-linejoin:miter;stroke-opacity:1"
       d="m 51.443565,15.159197 c 2.688785,-0.568456 5.416241,-1.1935 8.183739,-0.988483 1.810938,0.02306 3.595689,0.410136 5.328375,0.908621 1.446215,0.495326 2.860202,1.115629 4.178036,1.890495 3.847011,2.308963 7.136989,5.387765 10.538424,8.281996"
       id="path905"
       inkscape:label="s5" />
  </g>
  <g
     id="g864"
     inkscape:label="g4">
    <path
       style="display:inline"
       d="M 86.3,25.5 H 81.9 Q 80,17.7 78.15,13.15 76.3,8.6 73.85,6.7 71.4,4.8 67.6,4.8 v 0 Q 66.4,4.8 65.05,5 63.7,5.2 62.2,5.7 v 0 L 60.7,1.1 Q 62.6,0.5 64.4,0.25 66.2,0 67.9,0 v 0 q 4.6,0 7.95,2.25 3.35,2.25 5.85,7.8 2.5,5.55 4.6,15.45 z"
       id="path844"
       inkscape:label="p4" />
    <path
       style="display:inline;fill:none;stroke:#000000;stroke-width:1px;stroke-linecap:butt;stroke-linejoin:miter;stroke-opacity:1"
       d="m 61.332012,3.5361295 2.773184,-0.718156 0.82864,-0.176776 0.806545,-0.09944 1.137999,-0.08839 h 0.905981 l 1.027514,0.03315 0.983321,0.121534 0.872835,0.132582 1.237437,0.287262 1.071708,0.419845 1.347922,0.696058 1.016466,0.696059 0.696059,0.596621 0.82864,0.961223 0.950175,1.204291 0.839689,1.336874 0.806544,1.6130885 0.651865,1.425262 0.662913,1.635184 0.53033,1.679379 0.50108,1.557697 0.367187,1.382813 0.5,1.734375 0.453125,1.757812 1.007035,3.936361"
       id="path970"
       inkscape:label="s6" />
  </g>
</svg>
