<?xml version="1.0" encoding="UTF-8" standalone="no"?><svg width="89.5" height="60.299999" version="1.1" id="svg5236" sodipodi:docname="11_bhah.svg" inkscape:version="1.2.1 (9c6d41e410, 2022-07-14)" xmlns:inkscape="http://www.inkscape.org/namespaces/inkscape" xmlns:sodipodi="http://sodipodi.sourceforge.net/DTD/sodipodi-0.dtd" xmlns="http://www.w3.org/2000/svg" xmlns:svg="http://www.w3.org/2000/svg"><defs id="defs5240"></defs><sodipodi:namedview id="namedview5238" pagecolor="#ffffff" bordercolor="#666666" borderopacity="1.0" inkscape:showpageshadow="2" inkscape:pageopacity="0.0" inkscape:pagecheckerboard="0" inkscape:deskcolor="#d1d1d1" showgrid="false" inkscape:zoom="1.809816" inkscape:cx="45.584744" inkscape:cy="35.915253" inkscape:window-width="1920" inkscape:window-height="1027" inkscape:window-x="-8" inkscape:window-y="-8" inkscape:window-maximized="1" inkscape:current-layer="svg5236"></sodipodi:namedview><g id="g0" inkscape:label="g0" transform="matrix(0.99977858,0,0,1,0,1.4509796e-4)"><path d="m 22.204917,51 -3.70082,3.6 Q 10.002215,47.5 5.0011073,39.45 0,31.4 0,21.3 v 0 Q 0,15 2.4005315,10.2 4.8010631,5.4 9.1520264,2.7 13.50299,0 19.304274,0 v 0 q 4.500997,0 7.601684,1.4 3.100686,1.4 5.301173,3.8 v 0 q 2.600576,2.7 3.850853,6.8 1.250277,4.1 1.250277,10.1 v 0 3.3 H 58.212889 V 0.1 l 5.301174,0.7 v 45.4 q 0,3.3 0.550122,4.9 0.550122,1.6 1.85041,2.6 v 0 q 1.200266,1.1 3.000664,1.35 1.800399,0.25 4.300953,0.25 v 0 l -0.600133,5 h -0.9002 q -6.701484,0 -9.902192,-3 v 0 q -1.800399,-1.6 -2.700598,-4.1 -0.9002,-2.5 -0.9002,-6.7 v 0 -16.2 H 37.308261 v 3.1 q 0,2.8 -1.100244,4 -1.100243,1.2 -2.80062,1.2 v 0 Q 31.306932,38.6 29.256478,37 27.206024,35.4 25.805714,33.15 24.405404,30.9 24.405404,29 v 0 q 0,-1.5 1.100243,-2.55 1.100244,-1.05 3.600798,-1.05 v 0 h 2.900642 v -3.1 q 0,-8.8 -3.000664,-13 v 0 Q 27.406068,7.3 25.205581,6.15 23.005094,5 19.304274,5 V 5 Q 12.602791,5 9.0019932,9.6 5.4011959,14.2 5.4011959,21.4 v 0 q 0,8.9 4.5009966,16.1 4.5009965,7.2 12.3027245,13.5 z" id="g0p0" inkscape:label="g0p0" style="stroke-width:1.00011"></path><path id="g0s0" style="fill:none;stroke:#000000;stroke-width:1px;stroke-linecap:butt;stroke-linejoin:miter;stroke-opacity:1" d="M 20.402344,52.742187 C 13.509054,46.718651 6.5650107,39.808143 4.0075992,30.738057 2.1013147,23.759339 1.857158,15.612353 5.9527987,9.340009 9.0376745,4.3522308 15.120771,2.0111308 20.814151,2.5368119 c 5.005714,0.1349283 9.692173,3.2315025 11.786942,7.7776711 3.054857,7.020665 1.771551,14.874089 1.925499,22.295973 0.263064,2.794444 -1.917122,4.175183 -3.683002,1.948265 -1.481368,-1.457049 -4.471639,-4.264548 -2.992851,-6.178717 2.844331,-0.148035 5.721157,-0.242191 8.574682,-0.472767 6.706522,-0.13687 13.42065,-0.02173 20.130716,-0.05958 1.68177,0.133681 3.809306,-0.03008 4.296388,-2.00309 C 60.879035,17.229739 60.893125,8.6148695 60.890625,0" sodipodi:nodetypes="ccccccsssscc" inkscape:label="g0s0"></path><path style="fill:none;stroke:#000000;stroke-width:1px;stroke-linecap:butt;stroke-linejoin:miter;stroke-opacity:1" d="m 60.853258,25.810902 c -0.006,7.285683 0.09466,15.961937 0.113133,23.247362 0.05302,2.85202 0.552194,4.635708 2.934274,6.492517 2.1593,1.844632 5.106018,2.097685 7.825241,2.152834 0.487941,0.02588 0.975881,0.05175 1.463821,0.07763" id="g0s1" sodipodi:nodetypes="ccccc" inkscape:label="g0s1"></path></g><g id="g1" inkscape:label="g1" transform="translate(27.1)"><path style="display:inline" d="m 57.8,22 v 0 Q 56,22 54.6,20.65 53.2,19.3 53.2,16.9 v 0 q 0,-2.4 1.35,-3.75 1.35,-1.35 3.25,-1.35 v 0 q 2,0 3.3,1.35 1.3,1.35 1.3,3.75 v 0 q 0,2.5 -1.35,3.8 Q 59.7,22 57.8,22 Z" id="g1p0" inkscape:label="g1p0"></path><path d="m 57.837008,13.391934 c -0.820403,0 -1.515467,0.311801 -2.085191,0.935405 -0.569724,0.623603 -0.854587,1.707464 -0.854587,2.59035 0,1.055328 0.273468,1.894793 0.820403,2.518396 0.546936,0.623603 1.347168,0.935404 2.119375,0.935404 0.865981,0 1.572439,-0.311801 2.119375,-0.935404 0.546935,-0.623603 0.820403,-1.597773 0.820403,-2.518396 0,-1.151267 -0.284863,-2.02671 -0.854587,-2.626328 -0.569724,-0.599617 -1.264788,-0.899427 -2.085191,-0.899427 z" style="display:inline;stroke-width:0.701376" id="g1s0" sodipodi:nodetypes="sssssssss" inkscape:label="g1s0"></path></g><g id="g2" inkscape:label="g2" transform="translate(27.1)"><path style="display:inline" d="m 57.8,55.3 v 0 Q 56,55.3 54.6,53.95 53.2,52.6 53.2,50.2 v 0 q 0,-2.4 1.35,-3.75 1.35,-1.35 3.25,-1.35 v 0 q 2,0 3.3,1.35 1.3,1.35 1.3,3.75 v 0 q 0,2.5 -1.35,3.8 -1.35,1.3 -3.25,1.3 z" id="g2p0" inkscape:label="g2p0"></path><path d="m 57.836778,46.680782 c -0.820403,0 -1.515467,0.311801 -2.085191,0.935405 -0.569724,0.623603 -0.854587,1.707464 -0.854587,2.59035 0,1.055328 0.273468,1.894793 0.820403,2.518396 0.546936,0.623603 1.347168,0.935404 2.119375,0.935404 0.865981,0 1.572439,-0.311801 2.119375,-0.935404 0.546935,-0.623603 0.820403,-1.597773 0.820403,-2.518396 0,-1.151267 -0.284863,-2.02671 -0.854587,-2.626328 -0.569724,-0.599617 -1.264788,-0.899427 -2.085191,-0.899427 z" style="display:inline;stroke-width:0.701376" id="g2s0" sodipodi:nodetypes="sssssssss" inkscape:label="g2s0"></path></g></svg>