<svg xmlns="http://www.w3.org/2000/svg" xmlns:xlink="http://www.w3.org/1999/xlink" width="86.80000000000001"
    height="130.4">
    <path
        d="M40.50 73.30L40.50 73.30Q34.30 73.30 28.60 70.30Q22.90 67.30 18.70 61.20L18.70 61.20L23.20 58.40Q26.70 63.50 31.15 65.95Q35.60 68.40 40.60 68.40L40.60 68.40Q45.10 68.40 47.65 66.65Q50.20 64.90 50.20 61.50L50.20 61.50Q50.20 58.00 47.85 56.00Q45.50 54.00 40 51.80L40 51.80Q34.10 49.50 30.95 46.75Q27.80 44.00 27.80 39.50L27.80 39.50Q27.80 34.80 31.40 32.10Q35 29.40 41.60 29.40L41.60 29.40Q43.90 29.40 46.30 29.75Q48.70 30.10 50.80 30.50L50.80 30.50L49.70 35.40Q45.60 34.30 41 34.30L41 34.30Q33.10 34.30 33.10 39.40L33.10 39.40Q33.10 42.10 35.30 43.75Q37.50 45.40 42.40 47.30L42.40 47.30Q49.30 50.00 52.40 53.15Q55.50 56.30 55.50 61.40L55.50 61.40Q55.50 67.10 51.40 70.20Q47.30 73.30 40.50 73.30ZM39 90.60L39 90.60Q28.10 90.60 20.55 86.65Q13 82.70 9.05 75.85Q5.10 69 5.10 60.40L5.10 60.40Q5.10 55.30 6.15 50.95Q7.20 46.60 9.20 42.70L9.20 42.70L14.30 45.00Q12.50 48.60 11.60 52.30Q10.70 56.00 10.70 60.40L10.70 60.40Q10.70 68 14.10 73.70Q17.50 79.40 23.85 82.50Q30.20 85.60 38.90 85.60L38.90 85.60Q44.30 85.60 48.95 84.65Q53.60 83.70 58.60 81.60L58.60 81.60L60.70 86.50Q55.10 88.70 50.25 89.65Q45.40 90.60 39 90.60ZM85.80 89.60L84.80 89.60Q78.20 89.60 74.90 86.60L74.90 86.60Q73.10 85.00 72.25 82.50Q71.40 80 71.40 75.80L71.40 75.80L71.40 29.30L76.70 30.00L76.70 75.50Q76.70 78.80 77.20 80.40Q77.70 82.00 79 83.00L79 83.00Q80.20 84.10 82.05 84.35Q83.90 84.60 86.30 84.60L86.30 84.60L85.80 89.60Z" />
      <g
     id="g225"
     inkscape:label="g2">
    <path
       style="display:inline"
       d="m 70.7,60.3 h -1 q -6.6,0 -9.9,-3 v 0 Q 58,55.7 57.15,53.2 56.3,50.7 56.3,46.5 v 0 V 0 l 5.3,0.7 v 45.5 q 0,3.3 0.5,4.9 0.5,1.6 1.8,2.6 v 0 q 1.2,1.1 3.05,1.35 1.85,0.25 4.25,0.25 v 0 z"
       id="path216"
       inkscape:label="p2" />
    <path
       style="display:inline;fill:none;stroke:#000000;stroke-width:1px;stroke-linecap:butt;stroke-linejoin:miter;stroke-opacity:1"
       d="m 58.96875,0.03125 c 0.0052,15.660703 -0.0419,31.322813 -0.004,46.982637 0.07316,2.661925 0.300704,5.531206 2.06529,7.674603 1.94562,2.285428 5.076187,2.956219 7.950186,3.001875 0.734456,0.05113 1.468913,0.102253 2.203369,0.15338"
       id="path81"
       inkscape:label="s3" />
  </g>
    <path style="fill:none;stroke:#000000;stroke-width:1px;stroke-linecap:butt;stroke-linejoin:miter;stroke-opacity:1"
        d="M 45.132812,3.6132813 C 40.562478,2.6018067 35.735343,1.8642292 31.123747,3.0438786 c -2.492133,0.6391291 -4.859512,2.3972811 -5.513268,4.9853932 -0.651339,2.6654372 -0.03482,5.7940272 2.161388,7.5931122 3.064568,2.640803 6.975561,3.921609 10.633287,5.497711 2.757372,1.272261 5.626293,2.684887 7.556712,5.10442 1.857268,2.507391 2.224855,5.931451 1.352993,8.879043 -1.050501,3.311691 -4.36091,5.314839 -7.62354,5.937229 -7.039417,1.407323 -14.771262,-0.844523 -19.787853,-6.022734 -1.464717,-1.436306 -2.724112,-3.051268 -3.988039,-4.662165"
        id="path280" inkscape:label="s1" />
    <path style="fill:none;stroke:#000000;stroke-width:1px;stroke-linecap:butt;stroke-linejoin:miter;stroke-opacity:1"
        d="m 6.703125,14.484375 c -1.180208,3.12269 -2.7781111,6.116912 -3.265625,9.460937 -1.2382907,6.947677 -0.7953867,14.472555 2.6544984,20.753567 3.6011752,6.85407 10.6622456,11.357185 18.1034726,12.987176 6.292083,1.37048 12.845407,1.245875 19.184575,0.268004 3.850508,-0.646659 7.480541,-2.07291 11.159017,-3.325156"
        id="path311" inkscape:label="s2" />
</svg>