<svg xmlns="http://www.w3.org/2000/svg" xmlns:xlink="http://www.w3.org/1999/xlink" width="86.80000000000001" height="130.4"><path d="M24 89.60L23.10 89.60Q20 89.60 17.50 88.95Q15 88.30 13.20 86.60L13.20 86.60Q11.30 84.90 10.50 82.40Q9.70 79.90 9.70 75.80L9.70 75.80L9.70 22.40Q9.70 15.80 11.05 11.70Q12.40 7.60 15.80 4.70L15.80 4.70Q18 2.80 21.15 1.70Q24.30 0.60 28.40 0.60L28.40 0.60Q37.50 0.60 44.75 5.85Q52 11.10 59.30 19.60L59.30 19.60L55.40 22.70Q49 15.10 42.65 10.30Q36.30 5.50 28.70 5.50L28.70 5.50Q22.80 5.50 19.40 8.40L19.40 8.40Q17 10.50 16 14Q15 17.50 15 24.10L15 24.10L15 75.50Q15 78.70 15.50 80.35Q16 82.00 17.20 82.90L17.20 82.90Q18.40 84.10 20.35 84.35Q22.30 84.60 24.60 84.60L24.60 84.60L24 89.60ZM65.60 73.30L65.60 73.30Q59.40 73.30 53.70 70.30Q48 67.30 43.80 61.20L43.80 61.20L48.30 58.40Q51.80 63.50 56.25 65.95Q60.70 68.40 65.70 68.40L65.70 68.40Q70.20 68.40 72.75 66.65Q75.30 64.90 75.30 61.50L75.30 61.50Q75.30 58.00 72.95 56.00Q70.60 54.00 65.10 51.80L65.10 51.80Q59.20 49.50 56.05 46.75Q52.90 44.00 52.90 39.50L52.90 39.50Q52.90 34.80 56.50 32.10Q60.10 29.40 66.70 29.40L66.70 29.40Q69 29.40 71.40 29.75Q73.80 30.10 75.90 30.50L75.90 30.50L74.80 35.40Q70.70 34.30 66.10 34.30L66.10 34.30Q58.20 34.30 58.20 39.40L58.20 39.40Q58.20 42.10 60.40 43.75Q62.60 45.40 67.50 47.30L67.50 47.30Q74.40 50.00 77.50 53.15Q80.60 56.30 80.60 61.40L80.60 61.40Q80.60 67.10 76.50 70.20Q72.40 73.30 65.60 73.30ZM64.10 90.60L64.10 90.60Q53.20 90.60 45.65 86.65Q38.10 82.70 34.15 75.85Q30.20 69 30.20 60.40L30.20 60.40Q30.20 55.30 31.25 50.95Q32.30 46.60 34.30 42.70L34.30 42.70L39.40 45.00Q37.60 48.60 36.70 52.30Q35.80 56.00 35.80 60.40L35.80 60.40Q35.80 68 39.20 73.70Q42.60 79.40 48.95 82.50Q55.30 85.60 64 85.60L64 85.60Q69.40 85.60 74.05 84.65Q78.70 83.70 83.70 81.60L83.70 81.60L85.80 86.50Q80.20 88.70 75.35 89.65Q70.50 90.60 64.10 90.60Z"/></svg>