<?xml version="1.0" encoding="UTF-8" standalone="no"?>
<svg
   width="76.099998"
   height="90"
   version="1.1"
   id="svg284"
   sodipodi:docname="2_hi.svg"
   inkscape:version="1.2.1 (9c6d41e410, 2022-07-14)"
   xmlns:inkscape="http://www.inkscape.org/namespaces/inkscape"
   xmlns:sodipodi="http://sodipodi.sourceforge.net/DTD/sodipodi-0.dtd"
   xmlns="http://www.w3.org/2000/svg"
   xmlns:svg="http://www.w3.org/2000/svg">
  <defs
     id="defs288" />
  <sodipodi:namedview
     id="namedview286"
     pagecolor="#ffffff"
     bordercolor="#666666"
     borderopacity="1.0"
     inkscape:showpageshadow="2"
     inkscape:pageopacity="0.0"
     inkscape:pagecheckerboard="0"
     inkscape:deskcolor="#d1d1d1"
     showgrid="false"
     inkscape:zoom="1.809816"
     inkscape:cx="33.981354"
     inkscape:cy="64.647455"
     inkscape:window-width="1920"
     inkscape:window-height="1027"
     inkscape:window-x="-8"
     inkscape:window-y="-8"
     inkscape:window-maximized="1"
     inkscape:current-layer="svg284" />
  <g
     id="g115"
     inkscape:label="g1"
     transform="translate(20.5,28.8)">
    <path
       d="m 35.4,43.9 v 0 q -6.2,0 -11.9,-3 -5.7,-3 -9.9,-9.1 v 0 L 18.1,29 q 3.5,5.1 7.95,7.55 Q 30.5,39 35.5,39 v 0 Q 40,39 42.55,37.25 45.1,35.5 45.1,32.1 v 0 q 0,-3.5 -2.35,-5.5 -2.35,-2 -7.85,-4.2 v 0 Q 29,20.1 25.85,17.35 22.7,14.6 22.7,10.1 v 0 Q 22.7,5.4 26.3,2.7 29.9,0 36.5,0 v 0 q 2.3,0 4.7,0.35 2.4,0.35 4.5,0.75 v 0 L 44.6,6 Q 40.5,4.9 35.9,4.9 v 0 Q 28,4.9 28,10 v 0 q 0,2.7 2.2,4.35 2.2,1.65 7.1,3.55 v 0 q 6.9,2.7 10,5.85 3.1,3.15 3.1,8.25 v 0 q 0,5.7 -4.1,8.8 -4.1,3.1 -10.9,3.1 z m -1.5,17.3 v 0 Q 23,61.2 15.45,57.25 7.9,53.3 3.95,46.45 0,39.6 0,31 v 0 Q 0,25.9 1.05,21.55 2.1,17.2 4.1,13.3 v 0 l 5.1,2.3 Q 7.4,19.2 6.5,22.9 5.6,26.6 5.6,31 v 0 q 0,7.6 3.4,13.3 3.4,5.7 9.75,8.8 6.35,3.1 15.05,3.1 v 0 q 5.4,0 10.05,-0.95 4.65,-0.95 9.65,-3.05 v 0 l 2.1,4.9 Q 50,59.3 45.15,60.25 40.3,61.2 33.9,61.2 Z"
       id="path2-5"
       inkscape:label="p1" />
    <path
       style="fill:none;stroke:#000000;stroke-width:1px;stroke-linecap:butt;stroke-linejoin:miter;stroke-opacity:1"
       d="M 45.132812,3.6132813 C 40.562478,2.6018067 35.735343,1.8642292 31.123747,3.0438786 c -2.492133,0.6391291 -4.859512,2.3972811 -5.513268,4.9853932 -0.651339,2.6654372 -0.03482,5.7940272 2.161388,7.5931122 3.064568,2.640803 6.975561,3.921609 10.633287,5.497711 2.757372,1.272261 5.626293,2.684887 7.556712,5.10442 1.857268,2.507391 2.224855,5.931451 1.352993,8.879043 -1.050501,3.311691 -4.36091,5.314839 -7.62354,5.937229 -7.039417,1.407323 -14.771262,-0.844523 -19.787853,-6.022734 -1.464717,-1.436306 -2.724112,-3.051268 -3.988039,-4.662165"
       id="path280-1"
       inkscape:label="s1" />
    <path
       style="fill:none;stroke:#000000;stroke-width:1px;stroke-linecap:butt;stroke-linejoin:miter;stroke-opacity:1"
       d="m 6.703125,14.484375 c -1.180208,3.12269 -2.7781111,6.116912 -3.265625,9.460937 -1.2382907,6.947677 -0.7953867,14.472555 2.6544984,20.753567 3.6011752,6.85407 10.6622456,11.357185 18.1034726,12.987176 6.292083,1.37048 12.845407,1.245875 19.184575,0.268004 3.850508,-0.646659 7.480541,-2.07291 11.159017,-3.325156"
       id="path311-1"
       inkscape:label="s2" />
  </g>
  <g
     id="g309"
     inkscape:label="g2">
    <path
       style="display:inline"
       d="M 14.3,89 H 13.4 Q 10.3,89 7.8,88.35 5.3,87.7 3.5,86 v 0 Q 1.6,84.3 0.8,81.8 0,79.3 0,75.2 v 0 -53.4 Q 0,15.2 1.35,11.1 2.7,7 6.1,4.1 v 0 Q 8.3,2.2 11.45,1.1 14.6,0 18.7,0 V 0 Q 27.8,0 35.05,5.25 42.3,10.5 49.6,19 v 0 l -3.9,3.1 Q 39.3,14.5 32.95,9.7 26.6,4.9 19,4.9 v 0 q -5.9,0 -9.3,2.9 v 0 q -2.4,2.1 -3.4,5.6 -1,3.5 -1,10.1 v 0 51.4 q 0,3.2 0.5,4.85 0.5,1.65 1.7,2.55 v 0 q 1.2,1.2 3.15,1.45 Q 12.6,84 14.9,84 v 0 z"
       id="path2"
       inkscape:label="p2" />
    <path
       style="display:inline;fill:none;stroke:#000000;stroke-width:1px;stroke-linecap:butt;stroke-linejoin:miter;stroke-opacity:1"
       d="M 47.652368,20.738116 C 42.912163,15.169343 37.771996,9.7590782 31.535156,5.8554687 25.556372,2.3479405 17.925665,1.3282836 11.384063,3.8090168 7.098823,5.5445734 4.0571601,9.6376118 3.3691387,14.177325 2.2636698,19.814013 2.8760079,25.587166 2.7106596,31.290784 c 0.017146,15.362435 -0.08206,30.727062 0.00809,46.088122 0.1319749,2.783277 1.0109143,5.743286 3.4696807,7.348394 2.457118,1.869621 5.6943627,1.540296 8.5928207,1.741457"
       id="path491"
       inkscape:label="s3" />
  </g>
</svg>
