<svg xmlns="http://www.w3.org/2000/svg" xmlns:xlink="http://www.w3.org/1999/xlink" width="61.7" height="130.4"><path d="M40.50 73.30L40.50 73.30Q34.30 73.30 28.60 70.30Q22.90 67.30 18.70 61.20L18.70 61.20L23.20 58.40Q26.70 63.50 31.15 65.95Q35.60 68.40 40.60 68.40L40.60 68.40Q45.10 68.40 47.65 66.65Q50.20 64.90 50.20 61.50L50.20 61.50Q50.20 58.00 47.85 56.00Q45.50 54.00 40 51.80L40 51.80Q34.10 49.50 30.95 46.75Q27.80 44.00 27.80 39.50L27.80 39.50Q27.80 34.80 31.40 32.10Q35 29.40 41.60 29.40L41.60 29.40Q43.90 29.40 46.30 29.75Q48.70 30.10 50.80 30.50L50.80 30.50L49.70 35.40Q45.60 34.30 41 34.30L41 34.30Q33.10 34.30 33.10 39.40L33.10 39.40Q33.10 42.10 35.30 43.75Q37.50 45.40 42.40 47.30L42.40 47.30Q49.30 50.00 52.40 53.15Q55.50 56.30 55.50 61.40L55.50 61.40Q55.50 67.10 51.40 70.20Q47.30 73.30 40.50 73.30ZM39 90.60L39 90.60Q28.10 90.60 20.55 86.65Q13 82.70 9.05 75.85Q5.10 69 5.10 60.40L5.10 60.40Q5.10 55.30 6.15 50.95Q7.20 46.60 9.20 42.70L9.20 42.70L14.30 45.00Q12.50 48.60 11.60 52.30Q10.70 56.00 10.70 60.40L10.70 60.40Q10.70 68 14.10 73.70Q17.50 79.40 23.85 82.50Q30.20 85.60 38.90 85.60L38.90 85.60Q44.30 85.60 48.95 84.65Q53.60 83.70 58.60 81.60L58.60 81.60L60.70 86.50Q55.10 88.70 50.25 89.65Q45.40 90.60 39 90.60ZM44.20 116.10L44.20 116.10Q37.10 116.10 33.20 112.50Q29.30 108.90 29.30 103.00L29.30 103.00Q29.30 97.60 33.40 93.85Q37.50 90.10 45.40 90.10L45.40 90.10Q52.70 90.10 58.05 92.85Q63.40 95.60 67.50 99.95Q71.60 104.30 75 109.20L75 109.20L70.90 111.90Q67.20 106.80 63.55 102.95Q59.90 99.10 55.55 96.95Q51.20 94.80 45.60 94.80L45.60 94.80Q39.80 94.80 37.05 97.15Q34.30 99.50 34.30 103.10L34.30 103.10Q34.30 107.30 37 109.25Q39.70 111.20 43.90 111.20L43.90 111.20Q46.60 111.20 48.85 110.65Q51.10 110.10 53.30 109.10L53.30 109.10L55 113.90Q52.40 114.90 49.70 115.50Q47 116.10 44.20 116.10Z"/></svg>