<?xml version="1.0" encoding="UTF-8" standalone="no"?>
<svg
   width="55.599998"
   height="90.599998"
   version="1.1"
   id="svg965"
   sodipodi:docname="7_hai.svg"
   inkscape:version="1.2.1 (9c6d41e410, 2022-07-14)"
   xmlns:inkscape="http://www.inkscape.org/namespaces/inkscape"
   xmlns:sodipodi="http://sodipodi.sourceforge.net/DTD/sodipodi-0.dtd"
   xmlns="http://www.w3.org/2000/svg"
   xmlns:svg="http://www.w3.org/2000/svg">
  <defs
     id="defs969" />
  <sodipodi:namedview
     id="namedview967"
     pagecolor="#ffffff"
     bordercolor="#666666"
     borderopacity="1.0"
     inkscape:showpageshadow="2"
     inkscape:pageopacity="0.0"
     inkscape:pagecheckerboard="0"
     inkscape:deskcolor="#d1d1d1"
     showgrid="false"
     inkscape:zoom="1.809816"
     inkscape:cx="26.245761"
     inkscape:cy="65.199997"
     inkscape:window-width="1920"
     inkscape:window-height="1027"
     inkscape:window-x="-8"
     inkscape:window-y="-8"
     inkscape:window-maximized="1"
     inkscape:current-layer="svg965" />
  <g
     id="g115"
     inkscape:label="g1"
     transform="translate(0,29.4)">
    <path
       d="m 35.4,43.9 v 0 q -6.2,0 -11.9,-3 -5.7,-3 -9.9,-9.1 v 0 L 18.1,29 q 3.5,5.1 7.95,7.55 Q 30.5,39 35.5,39 v 0 Q 40,39 42.55,37.25 45.1,35.5 45.1,32.1 v 0 q 0,-3.5 -2.35,-5.5 -2.35,-2 -7.85,-4.2 v 0 Q 29,20.1 25.85,17.35 22.7,14.6 22.7,10.1 v 0 Q 22.7,5.4 26.3,2.7 29.9,0 36.5,0 v 0 q 2.3,0 4.7,0.35 2.4,0.35 4.5,0.75 v 0 L 44.6,6 Q 40.5,4.9 35.9,4.9 v 0 Q 28,4.9 28,10 v 0 q 0,2.7 2.2,4.35 2.2,1.65 7.1,3.55 v 0 q 6.9,2.7 10,5.85 3.1,3.15 3.1,8.25 v 0 q 0,5.7 -4.1,8.8 -4.1,3.1 -10.9,3.1 z m -1.5,17.3 v 0 Q 23,61.2 15.45,57.25 7.9,53.3 3.95,46.45 0,39.6 0,31 v 0 Q 0,25.9 1.05,21.55 2.1,17.2 4.1,13.3 v 0 l 5.1,2.3 Q 7.4,19.2 6.5,22.9 5.6,26.6 5.6,31 v 0 q 0,7.6 3.4,13.3 3.4,5.7 9.75,8.8 6.35,3.1 15.05,3.1 v 0 q 5.4,0 10.05,-0.95 4.65,-0.95 9.65,-3.05 v 0 l 2.1,4.9 Q 50,59.3 45.15,60.25 40.3,61.2 33.9,61.2 Z"
       id="path2-5"
       inkscape:label="p1" />
    <path
       style="fill:none;stroke:#000000;stroke-width:1px;stroke-linecap:butt;stroke-linejoin:miter;stroke-opacity:1"
       d="M 45.132812,3.6132813 C 40.562478,2.6018067 35.735343,1.8642292 31.123747,3.0438786 c -2.492133,0.6391291 -4.859512,2.3972811 -5.513268,4.9853932 -0.651339,2.6654372 -0.03482,5.7940272 2.161388,7.5931122 3.064568,2.640803 6.975561,3.921609 10.633287,5.497711 2.757372,1.272261 5.626293,2.684887 7.556712,5.10442 1.857268,2.507391 2.224855,5.931451 1.352993,8.879043 -1.050501,3.311691 -4.36091,5.314839 -7.62354,5.937229 -7.039417,1.407323 -14.771262,-0.844523 -19.787853,-6.022734 -1.464717,-1.436306 -2.724112,-3.051268 -3.988039,-4.662165"
       id="path280-1"
       inkscape:label="s1" />
    <path
       style="fill:none;stroke:#000000;stroke-width:1px;stroke-linecap:butt;stroke-linejoin:miter;stroke-opacity:1"
       d="m 6.703125,14.484375 c -1.180208,3.12269 -2.7781111,6.116912 -3.265625,9.460937 -1.2382907,6.947677 -0.7953867,14.472555 2.6544984,20.753567 3.6011752,6.85407 10.6622456,11.357185 18.1034726,12.987176 6.292083,1.37048 12.845407,1.245875 19.184575,0.268004 3.850508,-0.646659 7.480541,-2.07291 11.159017,-3.325156"
       id="path311-1"
       inkscape:label="s2" />
  </g>
  <g
     id="g522"
     inkscape:label="g2"
     transform="translate(10)">
    <path
       style="display:inline"
       d="M 30.8,23.7 28,26.6 Q 21.9,21.2 17.7,18.85 13.5,16.5 8.6,16.5 v 0 q -3.5,0 -6.4,0.9 v 0 L 0.7,12.7 Q 2.5,12.3 4.45,12 6.4,11.7 8.6,11.7 v 0 q 3.8,0 7.15,1.2 3.35,1.2 6.9,3.85 3.55,2.65 8.15,6.95 z"
       id="path513"
       inkscape:label="p2" />
    <path
       style="display:inline;fill:none;stroke:#000000;stroke-width:1px;stroke-linecap:butt;stroke-linejoin:miter;stroke-opacity:1"
       d="m 1.2484854,15.037068 c 2.0296352,-0.33742 4.0471341,-0.823273 6.106769,-0.926121 1.7144665,-0.03627 3.4419196,-0.0066 5.1213336,0.377952 1.626492,0.286246 3.200444,0.851561 4.696094,1.542318 3.239677,1.543111 6.000222,3.881137 8.751411,6.145612 1.177108,1.030396 2.354216,2.060791 3.531324,3.091187"
       id="path660"
       inkscape:label="s3" />
  </g>
  <g
     id="g526"
     inkscape:label="g3"
     transform="matrix(1,0,0,0.99097052,10,0)">
    <path
       style="display:inline"
       d="M 36.1,25.5 H 31.7 Q 29.8,17.7 27.95,13.15 26.1,8.6 23.65,6.7 21.2,4.8 17.4,4.8 v 0 Q 16.2,4.8 14.85,5 13.5,5.2 12,5.7 v 0 L 10.5,1.1 Q 12.4,0.5 14.2,0.25 16,0 17.7,0 v 0 q 4.6,0 7.95,2.25 3.35,2.25 5.85,7.8 2.5,5.55 4.6,15.45 z"
       id="path511"
       inkscape:label="p3" />
    <path
       style="display:inline;fill:none;stroke:#000000;stroke-width:1px;stroke-linecap:butt;stroke-linejoin:miter;stroke-opacity:1"
       d="m 11.023437,3.453125 c 2.182778,-0.4976057 4.36528,-1.1946393 6.631852,-1.0710196 2.053103,-0.044291 4.123749,0.4216957 5.902797,1.4638298 1.290672,0.6572076 2.43165,1.6018918 3.277933,2.7802163 1.787546,2.2624393 2.976329,4.9290225 3.905851,7.6409995 1.112879,3.208175 2.009172,6.487831 2.71558,9.809147 0.117031,0.515091 0.234062,1.030183 0.351093,1.545274"
       id="path662"
       inkscape:label="s4" />
  </g>
</svg>
