<svg xmlns="http://www.w3.org/2000/svg" xmlns:xlink="http://www.w3.org/1999/xlink" width="61.7" height="130.4"><path d="M40.50 73.30L40.50 73.30Q34.30 73.30 28.60 70.30Q22.90 67.30 18.70 61.20L18.70 61.20L23.20 58.40Q26.70 63.50 31.15 65.95Q35.60 68.40 40.60 68.40L40.60 68.40Q45.10 68.40 47.65 66.65Q50.20 64.90 50.20 61.50L50.20 61.50Q50.20 58.00 47.85 56.00Q45.50 54.00 40 51.80L40 51.80Q34.10 49.50 30.95 46.75Q27.80 44.00 27.80 39.50L27.80 39.50Q27.80 34.80 31.40 32.10Q35 29.40 41.60 29.40L41.60 29.40Q43.90 29.40 46.30 29.75Q48.70 30.10 50.80 30.50L50.80 30.50L49.70 35.40Q45.60 34.30 41 34.30L41 34.30Q33.10 34.30 33.10 39.40L33.10 39.40Q33.10 42.10 35.30 43.75Q37.50 45.40 42.40 47.30L42.40 47.30Q49.30 50.00 52.40 53.15Q55.50 56.30 55.50 61.40L55.50 61.40Q55.50 67.10 51.40 70.20Q47.30 73.30 40.50 73.30ZM39 90.60L39 90.60Q28.10 90.60 20.55 86.65Q13 82.70 9.05 75.85Q5.10 69 5.10 60.40L5.10 60.40Q5.10 55.30 6.15 50.95Q7.20 46.60 9.20 42.70L9.20 42.70L14.30 45.00Q12.50 48.60 11.60 52.30Q10.70 56.00 10.70 60.40L10.70 60.40Q10.70 68 14.10 73.70Q17.50 79.40 23.85 82.50Q30.20 85.60 38.90 85.60L38.90 85.60Q44.30 85.60 48.95 84.65Q53.60 83.70 58.60 81.60L58.60 81.60L60.70 86.50Q55.10 88.70 50.25 89.65Q45.40 90.60 39 90.60ZM51.20 25.50L46.80 25.50Q44.90 17.70 43.05 13.15Q41.20 8.60 38.75 6.70Q36.30 4.80 32.50 4.80L32.50 4.80Q31.30 4.80 29.95 5Q28.60 5.20 27.10 5.70L27.10 5.70L25.60 1.10Q27.50 0.50 29.30 0.25Q31.10 0 32.80 0L32.80 0Q37.40 0 40.75 2.25Q44.10 4.50 46.60 10.05Q49.10 15.60 51.20 25.50L51.20 25.50ZM45.90 23.70L43.10 26.60Q37 21.20 32.80 18.85Q28.60 16.50 23.70 16.50L23.70 16.50Q20.20 16.50 17.30 17.40L17.30 17.40L15.80 12.70Q17.60 12.30 19.55 12Q21.50 11.70 23.70 11.70L23.70 11.70Q27.50 11.70 30.85 12.90Q34.20 14.10 37.75 16.75Q41.30 19.40 45.90 23.70L45.90 23.70Z"/></svg>