<?xml version="1.0" encoding="UTF-8" standalone="no"?><svg width="81.199997" height="90.599998" version="1.1" id="svg1262" sodipodi:docname="9_hau.svg" inkscape:version="1.2.1 (9c6d41e410, 2022-07-14)" xmlns:inkscape="http://www.inkscape.org/namespaces/inkscape" xmlns:sodipodi="http://sodipodi.sourceforge.net/DTD/sodipodi-0.dtd" xmlns="http://www.w3.org/2000/svg" xmlns:svg="http://www.w3.org/2000/svg"><defs id="defs1266"></defs><sodipodi:namedview id="namedview1264" pagecolor="#ffffff" bordercolor="#666666" borderopacity="1.0" inkscape:showpageshadow="2" inkscape:pageopacity="0.0" inkscape:pagecheckerboard="0" inkscape:deskcolor="#d1d1d1" showgrid="false" inkscape:zoom="1.809816" inkscape:cx="38.954235" inkscape:cy="65.199997" inkscape:window-width="1920" inkscape:window-height="1027" inkscape:window-x="-8" inkscape:window-y="-8" inkscape:window-maximized="1" inkscape:current-layer="svg1262"></sodipodi:namedview><g id="g0" inkscape:label="g0" transform="translate(0,29.4)"><path d="m 35.4,43.9 v 0 q -6.2,0 -11.9,-3 -5.7,-3 -9.9,-9.1 v 0 L 18.1,29 q 3.5,5.1 7.95,7.55 Q 30.5,39 35.5,39 v 0 Q 40,39 42.55,37.25 45.1,35.5 45.1,32.1 v 0 q 0,-3.5 -2.35,-5.5 -2.35,-2 -7.85,-4.2 v 0 Q 29,20.1 25.85,17.35 22.7,14.6 22.7,10.1 v 0 Q 22.7,5.4 26.3,2.7 29.9,0 36.5,0 v 0 q 2.3,0 4.7,0.35 2.4,0.35 4.5,0.75 v 0 L 44.6,6 Q 40.5,4.9 35.9,4.9 v 0 Q 28,4.9 28,10 v 0 q 0,2.7 2.2,4.35 2.2,1.65 7.1,3.55 v 0 q 6.9,2.7 10,5.85 3.1,3.15 3.1,8.25 v 0 q 0,5.7 -4.1,8.8 -4.1,3.1 -10.9,3.1 z m -1.5,17.3 v 0 Q 23,61.2 15.45,57.25 7.9,53.3 3.95,46.45 0,39.6 0,31 v 0 Q 0,25.9 1.05,21.55 2.1,17.2 4.1,13.3 v 0 l 5.1,2.3 Q 7.4,19.2 6.5,22.9 5.6,26.6 5.6,31 v 0 q 0,7.6 3.4,13.3 3.4,5.7 9.75,8.8 6.35,3.1 15.05,3.1 v 0 q 5.4,0 10.05,-0.95 4.65,-0.95 9.65,-3.05 v 0 l 2.1,4.9 Q 50,59.3 45.15,60.25 40.3,61.2 33.9,61.2 Z" id="g0p0" inkscape:label="g0p0"></path><path style="fill:none;stroke:#000000;stroke-width:1px;stroke-linecap:butt;stroke-linejoin:miter;stroke-opacity:1" d="M 45.132812,3.6132813 C 40.562478,2.6018067 35.735343,1.8642292 31.123747,3.0438786 c -2.492133,0.6391291 -4.859512,2.3972811 -5.513268,4.9853932 -0.651339,2.6654372 -0.03482,5.7940272 2.161388,7.5931122 3.064568,2.640803 6.975561,3.921609 10.633287,5.497711 2.757372,1.272261 5.626293,2.684887 7.556712,5.10442 1.857268,2.507391 2.224855,5.931451 1.352993,8.879043 -1.050501,3.311691 -4.36091,5.314839 -7.62354,5.937229 -7.039417,1.407323 -14.771262,-0.844523 -19.787853,-6.022734 -1.464717,-1.436306 -2.724112,-3.051268 -3.988039,-4.662165" id="g0s0" inkscape:label="g0s0"></path><path style="fill:none;stroke:#000000;stroke-width:1px;stroke-linecap:butt;stroke-linejoin:miter;stroke-opacity:1" d="m 6.703125,14.484375 c -1.180208,3.12269 -2.7781111,6.116912 -3.265625,9.460937 -1.2382907,6.947677 -0.7953867,14.472555 2.6544984,20.753567 3.6011752,6.85407 10.6622456,11.357185 18.1034726,12.987176 6.292083,1.37048 12.845407,1.245875 19.184575,0.268004 3.850508,-0.646659 7.480541,-2.07291 11.159017,-3.325156" id="g0s1" inkscape:label="g0s1"></path></g><g id="g1" inkscape:label="g1" transform="translate(10)"><path style="display:inline" d="m 70.7,89.6 h -1 q -6.6,0 -9.9,-3 v 0 Q 58,85 57.15,82.5 56.3,80 56.3,75.8 v 0 -46.5 l 5.3,0.7 v 45.5 q 0,3.3 0.5,4.9 0.5,1.6 1.8,2.6 v 0 q 1.2,1.1 3.05,1.35 1.85,0.25 4.25,0.25 v 0 z" id="g1p0" inkscape:label="g1p0"></path><path style="display:inline;fill:none;stroke:#000000;stroke-width:1px;stroke-linecap:butt;stroke-linejoin:miter;stroke-opacity:1" d="m 58.945814,29.339077 c 0.0052,15.660703 -0.0419,31.322813 -0.004,46.982637 0.07316,2.661925 0.300705,5.531206 2.06529,7.674603 1.94562,2.285428 5.076188,2.956219 7.950186,3.001875 0.734456,0.05113 1.468913,0.102253 2.203369,0.15338" id="g1s0" inkscape:label="g1s0"></path></g><g id="g2" inkscape:label="g2" transform="translate(10)"><path style="display:inline" d="m 55.9,23.7 -2.8,2.9 Q 47,21.2 42.8,18.85 38.6,16.5 33.7,16.5 v 0 q -3.5,0 -6.4,0.9 v 0 l -1.5,-4.7 q 1.8,-0.4 3.75,-0.7 1.95,-0.3 4.15,-0.3 v 0 q 3.8,0 7.15,1.2 3.35,1.2 6.9,3.85 3.55,2.65 8.15,6.95 z" id="g2p0" inkscape:label="g2p0"></path><path style="display:inline;fill:none;stroke:#000000;stroke-width:1px;stroke-linecap:butt;stroke-linejoin:miter;stroke-opacity:1" d="m 26.306582,15.114407 c 2.688785,-0.568456 5.416241,-1.1935 8.183739,-0.988483 1.810938,0.02306 3.595689,0.410136 5.328375,0.908621 1.446215,0.495326 2.860202,1.115629 4.178036,1.890495 3.847011,2.308963 7.136989,5.387765 10.538424,8.281996" id="g2s0" inkscape:label="g2s0"></path></g><g id="g3" inkscape:label="g3" transform="matrix(1,0,0,0.99066774,10,0)"><path style="display:inline" d="M 61.2,25.5 H 56.8 Q 54.9,17.7 53.05,13.15 51.2,8.6 48.75,6.7 46.3,4.8 42.5,4.8 v 0 Q 41.3,4.8 39.95,5 38.6,5.2 37.1,5.7 v 0 L 35.6,1.1 Q 37.5,0.5 39.3,0.25 41.1,0 42.8,0 v 0 q 4.6,0 7.95,2.25 3.35,2.25 5.85,7.8 2.5,5.55 4.6,15.45 z" id="g3p0" inkscape:label="g3p0"></path><path style="display:inline;fill:none;stroke:#000000;stroke-width:1px;stroke-linecap:butt;stroke-linejoin:miter;stroke-opacity:1" d="m 36.195028,3.4913397 2.773185,-0.7181553 0.82864,-0.1767767 0.806544,-0.099437 1.138,-0.088388 h 0.905981 l 1.027514,0.033146 0.983321,0.121534 0.872835,0.1325825 1.237436,0.2872621 1.071709,0.4198447 1.347922,0.6960582 1.016466,0.6960583 0.696059,0.5966213 0.82864,0.9612233 0.950175,1.2042912 0.839689,1.3368738 0.806544,1.6130879 0.651864,1.425262 0.662913,1.635184 0.53033,1.679379 0.50108,1.557697 0.367187,1.382813 0.5,1.734375 0.453125,1.757812 1.007035,3.936361" id="g3s0" inkscape:label="g3s0"></path></g></svg>