<?xml version="1.0" encoding="UTF-8" standalone="no"?><svg width="83.635071" height="89" version="1.1" id="svg15" sodipodi:docname="9_gyau.svg" inkscape:version="1.2.1 (9c6d41e410, 2022-07-14)" xmlns:inkscape="http://www.inkscape.org/namespaces/inkscape" xmlns:sodipodi="http://sodipodi.sourceforge.net/DTD/sodipodi-0.dtd" xmlns="http://www.w3.org/2000/svg" xmlns:svg="http://www.w3.org/2000/svg"><defs id="defs19"></defs><sodipodi:namedview id="namedview17" pagecolor="#ffffff" bordercolor="#666666" borderopacity="1.0" inkscape:showpageshadow="2" inkscape:pageopacity="0.0" inkscape:pagecheckerboard="0" inkscape:deskcolor="#d1d1d1" showgrid="false" inkscape:zoom="5.1189327" inkscape:cx="34.284491" inkscape:cy="60.168793" inkscape:window-width="1920" inkscape:window-height="1027" inkscape:window-x="-8" inkscape:window-y="-8" inkscape:window-maximized="1" inkscape:current-layer="svg15"></sodipodi:namedview><g id="g0" inkscape:label="g0" transform="matrix(1.0100494,0,0,1.0104477,-2.0575495e-7,28.07)"><path d="m 26.357549,60.300001 q -5.973114,0 -9.95519,-2.654717 Q 12.420283,54.990567 8.7226419,49.681132 4.5509437,49.017453 2.275472,47.405659 2.037078e-7,45.699056 2.037078e-7,43.328774 q 0,-1.422171 0.9481132262922,-2.559907 1.04292457,-1.137734 2.93915097,-1.137734 2.4650944,0 4.4561313,1.51698 2.0858493,1.51698 3.9820763,4.266511 1.896226,0.189623 3.223586,0.189623 6.257546,0 9.38632,-2.275471 3.223586,-2.275472 3.223586,-5.973114 0,-4.171699 -2.749528,-6.067925 Q 22.754717,29.39151 16.876417,28.158965 9.5759436,26.736794 5.5938683,23.608019 1.6117927,20.384436 1.6117927,14.411322 q 0,-4.9301895 3.3183963,-8.1537755 3.4132067,-3.3183951 9.575944,-3.3183951 4.266511,0 7.395283,1.4221687 3.128774,1.3273594 5.783491,3.1287743 2.654716,1.8014149 5.499056,3.2235856 2.939151,1.327357 6.826415,1.327357 2.654719,0 4.740567,-0.663678 V 1.56905e-7 L 49.775945,0.75849027 V 43.802832 q 0,3.033963 0.474058,4.645754 0.568867,1.516983 1.611792,2.370285 1.137736,1.137736 3.033963,1.422168 1.896226,0.189623 4.076885,0.189623 l -0.568867,4.740567 h -0.853302 q -6.447169,0 -9.481132,-2.84434 -1.611792,-1.51698 -2.465096,-3.887265 -0.853301,-2.370281 -0.853301,-6.352357 V 16.307546 q -2.085848,0.474055 -4.835378,0.474055 -4.456132,0 -7.774527,-1.327357 -3.223586,-1.422171 -5.973114,-3.223586 -2.749528,-1.896226 -5.593868,-3.2235833 -2.749528,-1.4221711 -6.162737,-1.4221711 -3.60283,0 -5.5938675,1.8962265 -1.991038,1.8962269 -1.991038,5.0250009 0,3.697641 2.7495281,5.783491 2.7495284,2.085849 9.0070764,3.318395 7.110848,1.422171 10.903301,4.456134 3.887265,3.033963 3.887265,8.912263 0,4.740566 -2.559905,7.679717 -2.559905,2.939151 -6.731604,4.266511 -4.076888,1.232548 -8.912266,1.232548 -0.284432,0 -0.474055,0 2.749528,3.318395 5.499056,4.36132 2.84434,1.042924 6.921228,1.042924 h 1.042924 l -0.568869,4.740567 z" style="font-weight:300;font-size:39.9999px;line-height:1.25;font-family:&apos;Noto Sans Gujarati&apos;;-inkscape-font-specification:&apos;Noto Sans Gujarati, Light&apos;;stroke-width:2.37029" id="g0p0" inkscape:label="g0p0"></path><path style="fill:none;stroke:#000000;stroke-width:1px;stroke-linecap:butt;stroke-linejoin:miter;stroke-opacity:1" d="M 27.897572,57.971707 C 24.114831,57.822567 20.05195,57.503051 16.902099,55.168246 14.959796,53.728527 13.402435,51.890297 11.863132,50.048016 10.965121,48.973252 9.973629,46.052807 9.0338881,45.121445 8.4076682,44.500809 6.7868375,42.491339 4.7041809,42.088153 3.0832312,41.77435 1.5787629,43.019555 2.8829915,44.733568 c 1.2311965,1.618034 3.2645788,1.995008 5.6252559,2.456774 2.6378306,0.515979 3.1927006,0.645418 4.4279436,0.652014 4.153382,0.02218 8.506107,-0.08861 12.306684,-1.92394 3.231427,-1.560486 5.479417,-4.898519 5.526106,-8.559109 0.04148,-3.252492 -1.341563,-6.558031 -4.168425,-8.294551 C 22.792584,26.725548 18.299952,26.225152 14.097307,25.008286 10.781882,24.048312 7.0669826,22.634267 5.3767397,19.408955 3.6410922,16.097002 3.7786282,11.682786 6.1520351,8.6609843 8.5800052,5.569713 12.85163,4.9956812 16.521138,5.3796766 21.64056,5.9153982 25.772499,9.245612 30.05985,11.756231 c 3.038707,1.779429 6.509801,2.724822 10.026975,2.63977 2.071165,-0.05008 4.333243,-0.02016 6.154168,-1.035688 C 47.644527,12.57756 47.299,12.220196 47.297111,10.55833 47.2937,7.5584154 47.263091,3.0038184 47.257811,0.00390625" id="g0s0" sodipodi:nodetypes="cssssssssssssssssssc" inkscape:label="g0s0"></path><path style="fill:none;stroke:#000000;stroke-width:1px;stroke-linecap:butt;stroke-linejoin:miter;stroke-opacity:1" d="m 47.335937,11.507813 c 0.01102,11.124024 -0.139525,22.487304 -0.03227,33.610553 0.02186,2.266755 0.387705,4.664759 1.80596,6.531187 1.679117,2.209724 4.568082,2.945364 7.21431,3.021837 0.88256,0.0255 1.763211,0.09667 2.644816,0.145007" id="g0s1" inkscape:label="g0s1" sodipodi:nodetypes="csssc"></path></g><g id="g1" inkscape:label="g1" transform="matrix(0.95801762,0,0,0.96448493,15.424145,0)"><path style="display:inline" d="m 70.7,89.6 h -1 q -6.6,0 -9.9,-3 v 0 Q 58,85 57.15,82.5 56.3,80 56.3,75.8 v 0 -46.5 l 5.3,0.7 v 45.5 q 0,3.3 0.5,4.9 0.5,1.6 1.8,2.6 v 0 q 1.2,1.1 3.05,1.35 1.85,0.25 4.25,0.25 v 0 z" id="g1p0" inkscape:label="g1p0"></path><path style="display:inline;fill:none;stroke:#000000;stroke-width:1px;stroke-linecap:butt;stroke-linejoin:miter;stroke-opacity:1" d="m 58.945814,29.339077 c 0.0052,15.660703 -0.0419,31.322813 -0.004,46.982637 0.07316,2.661925 0.300705,5.531206 2.06529,7.674603 1.94562,2.285428 5.076188,2.956219 7.950186,3.001875 0.734456,0.05113 1.468913,0.102253 2.203369,0.15338" id="g1s0" inkscape:label="g1s0"></path></g><g id="g2" inkscape:label="g2" transform="matrix(0.95801762,0,0,0.96448493,15.424145,0)"><path style="display:inline" d="m 55.9,23.7 -2.8,2.9 Q 47,21.2 42.8,18.85 38.6,16.5 33.7,16.5 v 0 q -3.5,0 -6.4,0.9 v 0 l -1.5,-4.7 q 1.8,-0.4 3.75,-0.7 1.95,-0.3 4.15,-0.3 v 0 q 3.8,0 7.15,1.2 3.35,1.2 6.9,3.85 3.55,2.65 8.15,6.95 z" id="g2p0" inkscape:label="g2p0"></path><path style="display:inline;fill:none;stroke:#000000;stroke-width:1px;stroke-linecap:butt;stroke-linejoin:miter;stroke-opacity:1" d="m 26.306582,15.114407 c 2.688785,-0.568456 5.416241,-1.1935 8.183739,-0.988483 1.810938,0.02306 3.595689,0.410136 5.328375,0.908621 1.446215,0.495326 2.860202,1.115629 4.178036,1.890495 3.847011,2.308963 7.136989,5.387765 10.538424,8.281996" id="g2s0" inkscape:label="g2s0"></path></g><g id="g3" inkscape:label="g3" transform="matrix(0.95801762,0,0,0.95549314,15.424145,0)"><path style="display:inline" d="M 61.2,25.5 H 56.8 Q 54.9,17.7 53.05,13.15 51.2,8.6 48.75,6.7 46.3,4.8 42.5,4.8 v 0 Q 41.3,4.8 39.95,5 38.6,5.2 37.1,5.7 v 0 L 35.6,1.1 Q 37.5,0.5 39.3,0.25 41.1,0 42.8,0 v 0 q 4.6,0 7.95,2.25 3.35,2.25 5.85,7.8 2.5,5.55 4.6,15.45 z" id="g3p0" inkscape:label="g3p0"></path><path style="display:inline;fill:none;stroke:#000000;stroke-width:1px;stroke-linecap:butt;stroke-linejoin:miter;stroke-opacity:1" d="m 36.195028,3.4913397 2.773185,-0.7181553 0.82864,-0.1767767 0.806544,-0.099437 1.138,-0.088388 h 0.905981 l 1.027514,0.033146 0.983321,0.121534 0.872835,0.1325825 1.237436,0.2872621 1.071709,0.4198447 1.347922,0.6960582 1.016466,0.6960583 0.696059,0.5966213 0.82864,0.9612233 0.950175,1.2042912 0.839689,1.3368738 0.806544,1.6130879 0.651864,1.425262 0.662913,1.635184 0.53033,1.679379 0.50108,1.557697 0.367187,1.382813 0.5,1.734375 0.453125,1.757812 1.007035,3.936361" id="g3s0" inkscape:label="g3s0"></path></g></svg>