<?xml version="1.0" encoding="UTF-8" standalone="no"?><svg width="54.200001" height="89.599998" version="1.1" id="svg938" sodipodi:docname="7_pai.svg" inkscape:version="1.2.1 (9c6d41e410, 2022-07-14)" xmlns:inkscape="http://www.inkscape.org/namespaces/inkscape" xmlns:sodipodi="http://sodipodi.sourceforge.net/DTD/sodipodi-0.dtd" xmlns="http://www.w3.org/2000/svg" xmlns:svg="http://www.w3.org/2000/svg"><defs id="defs942"></defs><sodipodi:namedview id="namedview940" pagecolor="#ffffff" bordercolor="#666666" borderopacity="1.0" inkscape:showpageshadow="2" inkscape:pageopacity="0.0" inkscape:pagecheckerboard="0" inkscape:deskcolor="#d1d1d1" showgrid="false" inkscape:zoom="1.809816" inkscape:cx="26.798304" inkscape:cy="65.199997" inkscape:window-width="1920" inkscape:window-height="1027" inkscape:window-x="-8" inkscape:window-y="-8" inkscape:window-maximized="1" inkscape:current-layer="svg938"></sodipodi:namedview><g id="g0" inkscape:label="g0" transform="matrix(0.99913711,0,0,1,0,29.3)"><path d="m 25.522023,43.7 v 0 q -3.603109,0 -6.455571,-1 -2.852461,-1 -4.754102,-2.8 v 0 Q 11.710105,37.6 10.459025,34.35 9.2079454,31.1 9.2079454,26.3 v 0 -11.2 q 0,-2.7 -0.3503022,-4.2 Q 8.5073409,9.4 7.70665,8.3 v 0 Q 6.7057864,6.9 4.6540159,6.45 2.6022455,6 0,6 V 6 L 0.60051818,1.1 H 1.4012091 q 7.2062182,0 10.3088959,3.6 v 0 q 1.501295,1.6 2.151856,4.05 0.650562,2.45 0.650562,6.15 v 0 11 q 0,4.2 0.900777,6.6 0.900777,2.4 2.602245,3.9 v 0 q 2.702332,2.4 7.906823,2.4 v 0 q 3.703196,0 7.056089,-1.55 3.352893,-1.55 6.255398,-4.15 v 0 V 0 l 5.304577,0.8 v 45.4 q 0,3.2 0.550475,4.85 0.550475,1.65 1.651425,2.55 v 0 q 1.201036,1.2 3.202763,1.45 2.001728,0.25 4.303714,0.25 v 0 l -0.600518,5 h -0.900777 q -6.805873,0 -10.008637,-3 v 0 q -1.701468,-1.6 -2.602245,-4.1 -0.900777,-2.5 -0.900777,-6.7 v 0 -7.4 q -2.802419,2.1 -6.305441,3.35 -3.503023,1.25 -7.406391,1.25 z" id="g0p0" inkscape:label="g0p0" style="stroke-width:1.00043"></path><path id="g0s0" style="fill:none;stroke:#000000;stroke-width:1px;stroke-linecap:butt;stroke-linejoin:miter;stroke-opacity:1" d="M 0.29353812,3.5785751 C 3.0316166,3.7917739 6.0109138,3.7454519 8.3954579,5.3146346 11.600135,7.5519653 11.920507,11.862858 11.853046,15.4365 c 0.122119,4.692258 -0.26047,9.401339 0.193542,14.080712 0.277031,4.346449 2.784775,8.564029 6.797741,10.423236 5.920444,2.55762 12.929864,1.237244 18.225842,-2.189534 1.617936,-1.304419 3.962818,-2.222504 4.829211,-3.995104 -0.0265,-11.23395 -0.03155,-22.501274 -0.04782,-33.75190375" sodipodi:nodetypes="cccccccc" inkscape:label="g0s0"></path><path style="fill:none;stroke:#000000;stroke-width:1px;stroke-linecap:butt;stroke-linejoin:miter;stroke-opacity:1" d="m 41.894532,35.175781 -0.0062,12.661397 c 0.07469,3.038832 0.861122,6.531776 3.629579,8.239881 2.551597,1.733073 5.753361,1.471773 8.677387,1.774503" id="g0s1" inkscape:label="g0s1" sodipodi:nodetypes="cccc"></path></g><g id="g1" inkscape:label="g1" transform="translate(8.1)"><path style="display:inline" d="M 30.8,23.7 28,26.6 Q 21.9,21.2 17.7,18.85 13.5,16.5 8.6,16.5 v 0 q -3.5,0 -6.4,0.9 v 0 L 0.7,12.7 Q 2.5,12.3 4.45,12 6.4,11.7 8.6,11.7 v 0 q 3.8,0 7.15,1.2 3.35,1.2 6.9,3.85 3.55,2.65 8.15,6.95 z" id="g1p0" inkscape:label="g1p0"></path><path style="display:inline;fill:none;stroke:#000000;stroke-width:1px;stroke-linecap:butt;stroke-linejoin:miter;stroke-opacity:1" d="m 1.2484854,15.037068 c 2.0296352,-0.33742 4.0471341,-0.823273 6.106769,-0.926121 1.7144665,-0.03627 3.4419196,-0.0066 5.1213336,0.377952 1.626492,0.286246 3.200444,0.851561 4.696094,1.542318 3.239677,1.543111 6.000222,3.881137 8.751411,6.145612 1.177108,1.030396 2.354216,2.060791 3.531324,3.091187" id="g1s0" inkscape:label="g1s0"></path></g><g id="g2" inkscape:label="g2" transform="matrix(1,0,0,0.99097052,8.1,0)"><path style="display:inline" d="M 36.1,25.5 H 31.7 Q 29.8,17.7 27.95,13.15 26.1,8.6 23.65,6.7 21.2,4.8 17.4,4.8 v 0 Q 16.2,4.8 14.85,5 13.5,5.2 12,5.7 v 0 L 10.5,1.1 Q 12.4,0.5 14.2,0.25 16,0 17.7,0 v 0 q 4.6,0 7.95,2.25 3.35,2.25 5.85,7.8 2.5,5.55 4.6,15.45 z" id="g2p0" inkscape:label="g2p0"></path><path style="display:inline;fill:none;stroke:#000000;stroke-width:1px;stroke-linecap:butt;stroke-linejoin:miter;stroke-opacity:1" d="m 11.023437,3.453125 c 2.182778,-0.4976057 4.36528,-1.1946393 6.631852,-1.0710196 2.053103,-0.044291 4.123749,0.4216957 5.902797,1.4638298 1.290672,0.6572076 2.43165,1.6018918 3.277933,2.7802163 1.787546,2.2624393 2.976329,4.9290225 3.905851,7.6409995 1.112879,3.208175 2.009172,6.487831 2.71558,9.809147 0.117031,0.515091 0.234062,1.030183 0.351093,1.545274" id="g2s0" inkscape:label="g2s0"></path></g></svg>