<?xml version="1.0" encoding="UTF-8" standalone="no"?>
<svg
   width="55.799999"
   height="60.299999"
   version="1.1"
   id="svg4"
   sodipodi:docname="0_th.svg"
   inkscape:version="1.2.1 (9c6d41e410, 2022-07-14)"
   xmlns:inkscape="http://www.inkscape.org/namespaces/inkscape"
   xmlns:sodipodi="http://sodipodi.sourceforge.net/DTD/sodipodi-0.dtd"
   xmlns="http://www.w3.org/2000/svg"
   xmlns:svg="http://www.w3.org/2000/svg">
  <defs
     id="defs8" />
  <sodipodi:namedview
     id="namedview6"
     pagecolor="#ffffff"
     bordercolor="#666666"
     borderopacity="1.0"
     inkscape:showpageshadow="2"
     inkscape:pageopacity="0.0"
     inkscape:pagecheckerboard="0"
     inkscape:deskcolor="#d1d1d1"
     showgrid="false"
     inkscape:zoom="16"
     inkscape:cx="39.46875"
     inkscape:cy="33.5"
     inkscape:window-width="1920"
     inkscape:window-height="1027"
     inkscape:window-x="-8"
     inkscape:window-y="-8"
     inkscape:window-maximized="1"
     inkscape:current-layer="svg4" />
  <path
     style="fill:none;stroke:#000000;stroke-width:1px;stroke-linecap:butt;stroke-linejoin:miter;stroke-opacity:1"
     d="m 43.542969,-0.00390625 c 0.01864,15.93546225 -0.0232,31.87171525 0.03335,47.80668125 0.07739,2.775384 0.572167,5.910487 2.906535,7.728856 1.986701,1.752235 4.726654,2.081502 7.271456,2.163733 0.678437,0.04608 1.356875,0.09216 2.035312,0.138237"
     id="path331"
     inkscape:label="s2" />
  <path
     style="fill:none;stroke:#000000;stroke-width:1px;stroke-linecap:butt;stroke-linejoin:miter;stroke-opacity:1"
     d="M 8.3917369,20.418166 C 6.4060319,18.69524 4.1285662,17.048477 3.2102662,14.470763 1.9565513,11.221253 2.615627,7.1270322 5.3468237,4.8145738 7.9747541,2.4188195 11.838626,2.0303999 15.21875,2.558591 c 3.269366,0.4679427 6.07674,2.9106373 7.102704,6.032402 1.004202,3.085599 0.671947,6.538902 -0.559161,9.513381 -1.905414,4.394141 -6.037116,7.269752 -10.207123,9.309146 -1.7102009,0.915483 -3.5881586,1.472599 -5.3149294,2.3343 -1.1685632,0.841755 -1.0001258,2.546664 -0.2190121,3.601708 1.9545732,3.491993 4.9346915,6.522874 8.7352555,7.936389 4.329784,1.675281 9.136232,1.753115 13.676021,1.032698 4.279004,-0.704633 8.177874,-2.842884 11.568004,-5.475174 0.399887,-0.236104 0.786241,-0.49603 1.218241,-0.671569"
     id="path329"
     inkscape:label="s1" />
  <path
     d="m 23.3,45.2 v 0 Q 14.8,45.2 9.4,41.1 4,37 1.1,28.9 v 0 q 9.6,-2.9 14.4,-6.8 4.8,-3.9 4.8,-9.9 v 0 q 0,-3.5 -2.1,-5.5 -2.1,-2 -5.4,-2 v 0 Q 9.3,4.7 7.25,6.5 5.2,8.3 5.2,11.2 v 0 q 0,4.5 4.9,7.2 v 0 L 7,22.1 Q 0,17.9 0,11.1 v 0 Q 0,6.4 3.35,3.2 6.7,0 12.8,0 v 0 q 6.3,0 9.5,3.65 3.2,3.65 3.2,8.65 v 0 q 0,6.8 -4.45,11.45 Q 16.6,28.4 7.9,31.7 v 0 q 2.3,4.3 6,6.45 3.7,2.15 9.4,2.15 v 0 q 5.8,0 10.1,-2.1 4.3,-2.1 7.5,-5.5 v 0 V 0 l 5.3,0.8 v 45.4 q 0,3.2 0.5,4.85 0.5,1.65 1.7,2.55 v 0 q 1.2,1.2 3.15,1.45 1.95,0.25 4.25,0.25 v 0 l -0.5,5 h -1 q -6.7,0 -9.9,-3 v 0 Q 42.6,55.7 41.75,53.2 40.9,50.7 40.9,46.5 v 0 -7.4 q -3,2.5 -7.35,4.3 -4.35,1.8 -10.25,1.8 z"
     id="path2"
     inkscape:label="p1" />
</svg>
