<?xml version="1.0" encoding="UTF-8" standalone="no"?>
<svg
   width="55.799999"
   height="60.299999"
   version="1.1"
   id="svg4"
   sodipodi:docname="0_th.svg"
   inkscape:version="1.2.1 (9c6d41e410, 2022-07-14)"
   xmlns:inkscape="http://www.inkscape.org/namespaces/inkscape"
   xmlns:sodipodi="http://sodipodi.sourceforge.net/DTD/sodipodi-0.dtd"
   xmlns="http://www.w3.org/2000/svg"
   xmlns:svg="http://www.w3.org/2000/svg">
  <defs
     id="defs8" />
  <sodipodi:namedview
     id="namedview6"
     pagecolor="#ffffff"
     bordercolor="#666666"
     borderopacity="1.0"
     inkscape:showpageshadow="2"
     inkscape:pageopacity="0.0"
     inkscape:pagecheckerboard="0"
     inkscape:deskcolor="#d1d1d1"
     showgrid="false"
     inkscape:zoom="11.313709"
     inkscape:cx="15.335378"
     inkscape:cy="36.504388"
     inkscape:window-width="1920"
     inkscape:window-height="1027"
     inkscape:window-x="-8"
     inkscape:window-y="-8"
     inkscape:window-maximized="1"
     inkscape:current-layer="svg4" />
  <path
     d="m 23.3,45.2 v 0 Q 14.8,45.2 9.4,41.1 4,37 1.1,28.9 v 0 q 9.6,-2.9 14.4,-6.8 4.8,-3.9 4.8,-9.9 v 0 q 0,-3.5 -2.1,-5.5 -2.1,-2 -5.4,-2 v 0 Q 9.3,4.7 7.25,6.5 5.2,8.3 5.2,11.2 v 0 q 0,4.5 4.9,7.2 v 0 L 7,22.1 Q 0,17.9 0,11.1 v 0 Q 0,6.4 3.35,3.2 6.7,0 12.8,0 v 0 q 6.3,0 9.5,3.65 3.2,3.65 3.2,8.65 v 0 q 0,6.8 -4.45,11.45 Q 16.6,28.4 7.9,31.7 v 0 q 2.3,4.3 6,6.45 3.7,2.15 9.4,2.15 v 0 q 5.8,0 10.1,-2.1 4.3,-2.1 7.5,-5.5 v 0 V 0 l 5.3,0.8 v 45.4 q 0,3.2 0.5,4.85 0.5,1.65 1.7,2.55 v 0 q 1.2,1.2 3.15,1.45 1.95,0.25 4.25,0.25 v 0 l -0.5,5 h -1 q -6.7,0 -9.9,-3 v 0 Q 42.6,55.7 41.75,53.2 40.9,50.7 40.9,46.5 v 0 -7.4 q -3,2.5 -7.35,4.3 -4.35,1.8 -10.25,1.8 z"
     id="path2"
     inkscape:label="p1" />
  <path
     style="fill:none;stroke:#000000;stroke-width:1px;stroke-linecap:butt;stroke-linejoin:miter;stroke-opacity:1"
     d="M 8.3917369,20.418166 C 5.9687546,18.41722 3.2492906,16.212991 2.7632921,12.895706 1.9745504,9.2242517 3.7762973,5.1324484 7.2308273,3.5191052 10.418235,2.0149161 14.303641,1.9463971 17.563535,3.259569 c 3.635947,1.6021355 5.572444,5.6710766 5.345161,9.521527 -0.036,4.675386 -2.65516,9.032419 -6.436993,11.68714 -3.482218,2.687367 -7.6773685,4.091425 -11.632441,5.893161 0.1796001,1.088089 0.7322127,2.106214 1.1995446,3.011565 2.3657725,4.408918 6.6204534,7.856076 11.6197444,8.791399 6.540706,1.344667 13.709344,0.466654 19.363671,-3.23807 1.687334,-1.033896 3.495614,-2.529829 5.058314,-3.737743"
     id="path329"
     inkscape:label="s1"
     sodipodi:nodetypes="ccccccccccc" />
  <path
     style="fill:none;stroke:#000000;stroke-width:1px;stroke-linecap:butt;stroke-linejoin:miter;stroke-opacity:1"
     d="m 43.542969,-0.00390625 c 0.01864,15.93546225 -0.0232,31.87171525 0.03335,47.80668125 0.07739,2.775384 0.572167,5.910487 2.906535,7.728856 1.986701,1.752235 4.726654,2.081502 7.271456,2.163733 0.678437,0.04608 1.356875,0.09216 2.035312,0.138237"
     id="path331"
     inkscape:label="s2" />
</svg>
