<svg xmlns="http://www.w3.org/2000/svg" xmlns:xlink="http://www.w3.org/1999/xlink" width="60.6" height="130.4">
    <path
        d="M27.60 74.50L27.60 74.50Q19.10 74.50 13.70 70.40Q8.30 66.30 5.40 58.20L5.40 58.20Q15 55.30 19.80 51.40Q24.60 47.50 24.60 41.50L24.60 41.50Q24.60 38.00 22.50 36.00Q20.40 34.00 17.10 34.00L17.10 34.00Q13.60 34.00 11.55 35.80Q9.50 37.60 9.50 40.50L9.50 40.50Q9.50 45.00 14.40 47.70L14.40 47.70L11.30 51.40Q4.30 47.20 4.30 40.40L4.30 40.40Q4.30 35.70 7.65 32.50Q11 29.30 17.10 29.30L17.10 29.30Q23.40 29.30 26.60 32.95Q29.80 36.60 29.80 41.60L29.80 41.60Q29.80 48.40 25.35 53.05Q20.90 57.70 12.20 61.00L12.20 61.00Q14.50 65.30 18.20 67.45Q21.90 69.60 27.60 69.60L27.60 69.60Q33.40 69.60 37.70 67.50Q42 65.40 45.20 62.00L45.20 62.00L45.20 29.30L50.50 30.10L50.50 75.50Q50.50 78.70 51 80.35Q51.50 82.00 52.70 82.90L52.70 82.90Q53.90 84.10 55.85 84.35Q57.80 84.60 60.10 84.60L60.10 84.60L59.60 89.60L58.60 89.60Q51.90 89.60 48.70 86.60L48.70 86.60Q46.90 85.00 46.05 82.50Q45.20 80 45.20 75.80L45.20 75.80L45.20 68.40Q42.20 70.90 37.85 72.70Q33.50 74.50 27.60 74.50ZM47.90 19.10L47.90 19.10Q46.10 19.10 44.85 17.80Q43.60 16.50 43.60 14.20L43.60 14.20Q43.60 12 44.80 10.70Q46 9.40 47.90 9.40L47.90 9.40Q49.80 9.40 51 10.70Q52.20 12 52.20 14.20L52.20 14.20Q52.20 16.60 50.95 17.85Q49.70 19.10 47.90 19.10Z" />
      <g
     id="g653"
     inkscape:label="g2">
    <path
       style="display:inline"
       d="m 33.9,9.7 v 0 Q 32.1,9.7 30.85,8.4 29.6,7.1 29.6,4.8 v 0 Q 29.6,2.6 30.8,1.3 32,0 33.9,0 v 0 q 1.9,0 3.1,1.3 1.2,1.3 1.2,3.5 v 0 q 0,2.4 -1.25,3.65 Q 35.7,9.7 33.9,9.7 Z"
       id="path644"
       inkscape:label="p2" />
    <path
       d="m 33.9375,1.3352194 c -0.820403,0 -1.515467,0.3118012 -2.085191,0.9354043 -0.569724,0.6236031 -0.854587,1.7074649 -0.854587,2.5903504 0,1.0553281 0.273468,1.8947931 0.820403,2.5183962 0.546936,0.6236031 1.347168,0.9354042 2.119375,0.9354042 0.865981,0 1.572439,-0.3118011 2.119375,-0.9354042 0.546935,-0.6236031 0.820403,-1.5977735 0.820403,-2.5183962 0,-1.1512668 -0.284863,-2.0267096 -0.854587,-2.6263275 C 35.452967,1.6350287 34.757903,1.3352194 33.9375,1.3352194 Z"
       style="display:inline;stroke-width:0.701376"
       id="path950"
       sodipodi:nodetypes="sssssssss"
       inkscape:label="s3" />
  </g>
    <path id="path331"
        style="fill:none;stroke:#000000;stroke-width:1px;stroke-linecap:butt;stroke-linejoin:miter;stroke-opacity:1"
        d="M 8.3917369,20.418166 C 6.1299711,18.54681 3.5963198,16.504995 2.8799726,13.504875 1.6477048,9.2595271 4.1081575,4.2322788 8.4562389,3.0222259 12.345497,1.7594745 17.232168,2.0732449 20.217748,5.1370147 c 3.890692,4.15355 3.295259,10.9190583 0.192165,15.3457263 -3.638989,5.276709 -9.968439,7.396923 -15.570651,9.878656 1.2944948,4.662437 4.869388,8.608453 9.227299,10.654723 4.946912,2.047726 10.582182,2.185769 15.76395,0.993682 5.317871,-1.147258 9.614256,-4.645978 13.717558,-8.012743 0.03768,-11.333629 0.0082,-22.667322 -0.0051,-34.00096525"
        sodipodi:nodetypes="cccccccccc" inkscape:label="s1" />
    <path style="fill:none;stroke:#000000;stroke-width:1px;stroke-linecap:butt;stroke-linejoin:miter;stroke-opacity:1"
        d="m 43.548107,33.98534 c 0.0037,4.605886 0.01187,9.211714 0.02821,13.817435 0.07739,2.775384 0.572167,5.910487 2.906535,7.728856 1.986701,1.752235 4.726654,2.081502 7.271456,2.163733 0.678437,0.04608 1.356875,0.09216 2.035312,0.138237"
        id="path266" inkscape:label="s2" />
</svg>