<svg xmlns="http://www.w3.org/2000/svg" xmlns:xlink="http://www.w3.org/1999/xlink" width="83" height="130.4">
    <path
        d="M27.60 74.50L27.60 74.50Q19.10 74.50 13.70 70.40Q8.30 66.30 5.40 58.20L5.40 58.20Q15 55.30 19.80 51.40Q24.60 47.50 24.60 41.50L24.60 41.50Q24.60 38.00 22.50 36.00Q20.40 34.00 17.10 34.00L17.10 34.00Q13.60 34.00 11.55 35.80Q9.50 37.60 9.50 40.50L9.50 40.50Q9.50 45.00 14.40 47.70L14.40 47.70L11.30 51.40Q4.30 47.20 4.30 40.40L4.30 40.40Q4.30 35.70 7.65 32.50Q11 29.30 17.10 29.30L17.10 29.30Q23.40 29.30 26.60 32.95Q29.80 36.60 29.80 41.60L29.80 41.60Q29.80 48.40 25.35 53.05Q20.90 57.70 12.20 61.00L12.20 61.00Q14.50 65.30 18.20 67.45Q21.90 69.60 27.60 69.60L27.60 69.60Q33.40 69.60 37.70 67.50Q42 65.40 45.20 62.00L45.20 62.00L45.20 29.30L50.50 30.10L50.50 75.50Q50.50 78.70 51 80.35Q51.50 82.00 52.70 82.90L52.70 82.90Q53.90 84.10 55.85 84.35Q57.80 84.60 60.10 84.60L60.10 84.60L59.60 89.60L58.60 89.60Q51.90 89.60 48.70 86.60L48.70 86.60Q46.90 85.00 46.05 82.50Q45.20 80 45.20 75.80L45.20 75.80L45.20 68.40Q42.20 70.90 37.85 72.70Q33.50 74.50 27.60 74.50ZM71.80 51.30L71.80 51.30Q70 51.30 68.60 49.95Q67.20 48.60 67.20 46.20L67.20 46.20Q67.20 43.80 68.55 42.45Q69.90 41.10 71.80 41.10L71.80 41.10Q73.80 41.10 75.10 42.45Q76.40 43.80 76.40 46.20L76.40 46.20Q76.40 48.70 75.05 50.00Q73.70 51.30 71.80 51.30ZM71.80 84.60L71.80 84.60Q70 84.60 68.60 83.25Q67.20 81.90 67.20 79.50L67.20 79.50Q67.20 77.10 68.55 75.75Q69.90 74.40 71.80 74.40L71.80 74.40Q73.80 74.40 75.10 75.75Q76.40 77.10 76.40 79.50L76.40 79.50Q76.40 82.00 75.05 83.30Q73.70 84.60 71.80 84.60Z" />
     <g
     id="g686"
     inkscape:label="g2">
    <path
       style="display:inline"
       d="m 57.8,22 v 0 Q 56,22 54.6,20.65 53.2,19.3 53.2,16.9 v 0 q 0,-2.4 1.35,-3.75 1.35,-1.35 3.25,-1.35 v 0 q 2,0 3.3,1.35 1.3,1.35 1.3,3.75 v 0 q 0,2.5 -1.35,3.8 Q 59.7,22 57.8,22 Z"
       id="path675"
       inkscape:label="p2" />
    <path
       d="m 57.837008,13.391934 c -0.820403,0 -1.515467,0.311801 -2.085191,0.935405 -0.569724,0.623603 -0.854587,1.707464 -0.854587,2.59035 0,1.055328 0.273468,1.894793 0.820403,2.518396 0.546936,0.623603 1.347168,0.935404 2.119375,0.935404 0.865981,0 1.572439,-0.311801 2.119375,-0.935404 0.546935,-0.623603 0.820403,-1.597773 0.820403,-2.518396 0,-1.151267 -0.284863,-2.02671 -0.854587,-2.626328 -0.569724,-0.599617 -1.264788,-0.899427 -2.085191,-0.899427 z"
       style="display:inline;stroke-width:0.701376"
       id="path950"
       sodipodi:nodetypes="sssssssss"
       inkscape:label="s3" />
  </g>
  <g
     id="g690"
     inkscape:label="g3">
    <path
       style="display:inline"
       d="m 57.8,55.3 v 0 Q 56,55.3 54.6,53.95 53.2,52.6 53.2,50.2 v 0 q 0,-2.4 1.35,-3.75 1.35,-1.35 3.25,-1.35 v 0 q 2,0 3.3,1.35 1.3,1.35 1.3,3.75 v 0 q 0,2.5 -1.35,3.8 -1.35,1.3 -3.25,1.3 z"
       id="path677"
       inkscape:label="p3" />
    <path
       d="m 57.836778,46.680782 c -0.820403,0 -1.515467,0.311801 -2.085191,0.935405 -0.569724,0.623603 -0.854587,1.707464 -0.854587,2.59035 0,1.055328 0.273468,1.894793 0.820403,2.518396 0.546936,0.623603 1.347168,0.935404 2.119375,0.935404 0.865981,0 1.572439,-0.311801 2.119375,-0.935404 0.546935,-0.623603 0.820403,-1.597773 0.820403,-2.518396 0,-1.151267 -0.284863,-2.02671 -0.854587,-2.626328 -0.569724,-0.599617 -1.264788,-0.899427 -2.085191,-0.899427 z"
       style="display:inline;stroke-width:0.701376"
       id="path950-5"
       sodipodi:nodetypes="sssssssss"
       inkscape:label="s4" />
  </g>
    <path id="path331"
        style="fill:none;stroke:#000000;stroke-width:1px;stroke-linecap:butt;stroke-linejoin:miter;stroke-opacity:1"
        d="M 8.3917369,20.418166 C 6.1299711,18.54681 3.5963198,16.504995 2.8799726,13.504875 1.6477048,9.2595271 4.1081575,4.2322788 8.4562389,3.0222259 12.345497,1.7594745 17.232168,2.0732449 20.217748,5.1370147 c 3.890692,4.15355 3.295259,10.9190583 0.192165,15.3457263 -3.638989,5.276709 -9.968439,7.396923 -15.570651,9.878656 1.2944948,4.662437 4.869388,8.608453 9.227299,10.654723 4.946912,2.047726 10.582182,2.185769 15.76395,0.993682 5.317871,-1.147258 9.614256,-4.645978 13.717558,-8.012743 0.03768,-11.333629 0.0082,-22.667322 -0.0051,-34.00096525"
        sodipodi:nodetypes="cccccccccc" inkscape:label="s1" />
    <path style="fill:none;stroke:#000000;stroke-width:1px;stroke-linecap:butt;stroke-linejoin:miter;stroke-opacity:1"
        d="m 43.548107,33.98534 c 0.0037,4.605886 0.01187,9.211714 0.02821,13.817435 0.07739,2.775384 0.572167,5.910487 2.906535,7.728856 1.986701,1.752235 4.726654,2.081502 7.271456,2.163733 0.678437,0.04608 1.356875,0.09216 2.035312,0.138237"
        id="path266" inkscape:label="s2" />
</svg>