<svg xmlns="http://www.w3.org/2000/svg" xmlns:xlink="http://www.w3.org/1999/xlink" width="85.7" height="130.4"><path d="M24 89.60L23.10 89.60Q20 89.60 17.50 88.95Q15 88.30 13.20 86.60L13.20 86.60Q11.30 84.90 10.50 82.40Q9.70 79.90 9.70 75.80L9.70 75.80L9.70 22.40Q9.70 15.80 11.05 11.70Q12.40 7.60 15.80 4.70L15.80 4.70Q18 2.80 21.15 1.70Q24.30 0.60 28.40 0.60L28.40 0.60Q37.50 0.60 44.75 5.85Q52 11.10 59.30 19.60L59.30 19.60L55.40 22.70Q49 15.10 42.65 10.30Q36.30 5.50 28.70 5.50L28.70 5.50Q22.80 5.50 19.40 8.40L19.40 8.40Q17 10.50 16 14Q15 17.50 15 24.10L15 24.10L15 75.50Q15 78.70 15.50 80.35Q16 82.00 17.20 82.90L17.20 82.90Q18.40 84.10 20.35 84.35Q22.30 84.60 24.60 84.60L24.60 84.60L24 89.60ZM52.70 74.50L52.70 74.50Q44.20 74.50 38.80 70.40Q33.40 66.30 30.50 58.20L30.50 58.20Q40.10 55.30 44.90 51.40Q49.70 47.50 49.70 41.50L49.70 41.50Q49.70 38.00 47.60 36.00Q45.50 34.00 42.20 34.00L42.20 34.00Q38.70 34.00 36.65 35.80Q34.60 37.60 34.60 40.50L34.60 40.50Q34.60 45.00 39.50 47.70L39.50 47.70L36.40 51.40Q29.40 47.20 29.40 40.40L29.40 40.40Q29.40 35.70 32.75 32.50Q36.10 29.30 42.20 29.30L42.20 29.30Q48.50 29.30 51.70 32.95Q54.90 36.60 54.90 41.60L54.90 41.60Q54.90 48.40 50.45 53.05Q46 57.70 37.30 61.00L37.30 61.00Q39.60 65.30 43.30 67.45Q47 69.60 52.70 69.60L52.70 69.60Q58.50 69.60 62.80 67.50Q67.10 65.40 70.30 62.00L70.30 62.00L70.30 29.30L75.60 30.10L75.60 75.50Q75.60 78.70 76.10 80.35Q76.60 82.00 77.80 82.90L77.80 82.90Q79 84.10 80.95 84.35Q82.90 84.60 85.20 84.60L85.20 84.60L84.70 89.60L83.70 89.60Q77 89.60 73.80 86.60L73.80 86.60Q72 85.00 71.15 82.50Q70.30 80 70.30 75.80L70.30 75.80L70.30 68.40Q67.30 70.90 62.95 72.70Q58.60 74.50 52.70 74.50Z"/></svg>