<svg xmlns="http://www.w3.org/2000/svg" xmlns:xlink="http://www.w3.org/1999/xlink" width="60.6" height="130.4"><path d="M27.60 74.50L27.60 74.50Q19.10 74.50 13.70 70.40Q8.30 66.30 5.40 58.20L5.40 58.20Q15 55.30 19.80 51.40Q24.60 47.50 24.60 41.50L24.60 41.50Q24.60 38.00 22.50 36.00Q20.40 34.00 17.10 34.00L17.10 34.00Q13.60 34.00 11.55 35.80Q9.50 37.60 9.50 40.50L9.50 40.50Q9.50 45.00 14.40 47.70L14.40 47.70L11.30 51.40Q4.30 47.20 4.30 40.40L4.30 40.40Q4.30 35.70 7.65 32.50Q11 29.30 17.10 29.30L17.10 29.30Q23.40 29.30 26.60 32.95Q29.80 36.60 29.80 41.60L29.80 41.60Q29.80 48.40 25.35 53.05Q20.90 57.70 12.20 61.00L12.20 61.00Q14.50 65.30 18.20 67.45Q21.90 69.60 27.60 69.60L27.60 69.60Q33.40 69.60 37.70 67.50Q42 65.40 45.20 62.00L45.20 62.00L45.20 29.30L50.50 30.10L50.50 75.50Q50.50 78.70 51 80.35Q51.50 82.00 52.70 82.90L52.70 82.90Q53.90 84.10 55.85 84.35Q57.80 84.60 60.10 84.60L60.10 84.60L59.60 89.60L58.60 89.60Q51.90 89.60 48.70 86.60L48.70 86.60Q46.90 85.00 46.05 82.50Q45.20 80 45.20 75.80L45.20 75.80L45.20 68.40Q42.20 70.90 37.85 72.70Q33.50 74.50 27.60 74.50ZM44.90 116.30L44.90 116.30Q38.30 116.30 33.15 114.05Q28 111.80 23.85 108.00Q19.70 104.20 16.20 99.40L16.20 99.40L20.40 96.50Q25.50 103.20 31.10 107.30Q36.70 111.40 44.90 111.40L44.90 111.40Q50.60 111.40 53.60 109.20Q56.60 107.00 56.60 102.70L56.60 102.70Q56.60 98.80 54 96.80Q51.40 94.80 47 94.80L47 94.80Q44.50 94.80 42.30 95.35Q40.10 95.90 37.90 96.80L37.90 96.80L36.10 92.30Q38.70 91.20 41.30 90.65Q43.90 90.10 46.70 90.10L46.70 90.10Q53.80 90.10 57.70 93.65Q61.60 97.20 61.60 103.10L61.60 103.10Q61.60 109.30 57.15 112.80Q52.70 116.30 44.90 116.30Z"/></svg>