<?xml version="1.0" encoding="UTF-8" standalone="no"?>
<svg
   width="57.299999"
   height="87"
   version="1.1"
   id="svg603"
   sodipodi:docname="4_thu.svg"
   inkscape:version="1.2.1 (9c6d41e410, 2022-07-14)"
   xmlns:inkscape="http://www.inkscape.org/namespaces/inkscape"
   xmlns:sodipodi="http://sodipodi.sourceforge.net/DTD/sodipodi-0.dtd"
   xmlns="http://www.w3.org/2000/svg"
   xmlns:svg="http://www.w3.org/2000/svg">
  <defs
     id="defs607" />
  <sodipodi:namedview
     id="namedview605"
     pagecolor="#ffffff"
     bordercolor="#666666"
     borderopacity="1.0"
     inkscape:showpageshadow="2"
     inkscape:pageopacity="0.0"
     inkscape:pagecheckerboard="0"
     inkscape:deskcolor="#d1d1d1"
     showgrid="false"
     inkscape:zoom="1.809816"
     inkscape:cx="26.245761"
     inkscape:cy="35.915253"
     inkscape:window-width="1920"
     inkscape:window-height="1027"
     inkscape:window-x="-8"
     inkscape:window-y="-8"
     inkscape:window-maximized="1"
     inkscape:current-layer="svg603" />
  <g
     id="g117"
     inkscape:label="g1"
     transform="matrix(0.99957896,0,0,0.99992549,0,0.00449266)">
    <path
       d="m 23.3,45.2 v 0 Q 14.8,45.2 9.4,41.1 4,37 1.1,28.9 v 0 q 9.6,-2.9 14.4,-6.8 4.8,-3.9 4.8,-9.9 v 0 q 0,-3.5 -2.1,-5.5 -2.1,-2 -5.4,-2 v 0 Q 9.3,4.7 7.25,6.5 5.2,8.3 5.2,11.2 v 0 q 0,4.5 4.9,7.2 v 0 L 7,22.1 Q 0,17.9 0,11.1 v 0 Q 0,6.4 3.35,3.2 6.7,0 12.8,0 v 0 q 6.3,0 9.5,3.65 3.2,3.65 3.2,8.65 v 0 q 0,6.8 -4.45,11.45 Q 16.6,28.4 7.9,31.7 v 0 q 2.3,4.3 6,6.45 3.7,2.15 9.4,2.15 v 0 q 5.8,0 10.1,-2.1 4.3,-2.1 7.5,-5.5 v 0 V 0 l 5.3,0.8 v 45.4 q 0,3.2 0.5,4.85 0.5,1.65 1.7,2.55 v 0 q 1.2,1.2 3.15,1.45 1.95,0.25 4.25,0.25 v 0 l -0.5,5 h -1 q -6.7,0 -9.9,-3 v 0 Q 42.6,55.7 41.75,53.2 40.9,50.7 40.9,46.5 v 0 -7.4 q -3,2.5 -7.35,4.3 -4.35,1.8 -10.25,1.8 z"
       id="path2"
       inkscape:label="p1" />
    <path
       id="path331-6"
       style="fill:none;stroke:#000000;stroke-width:1px;stroke-linecap:butt;stroke-linejoin:miter;stroke-opacity:1"
       d="M 8.3917369,20.418166 C 6.1299711,18.54681 3.5963198,16.504995 2.8799726,13.504875 1.6477048,9.2595271 4.1081575,4.2322788 8.4562389,3.0222259 12.345497,1.7594745 17.232168,2.0732449 20.217748,5.1370147 c 3.890692,4.15355 3.295259,10.9190583 0.192165,15.3457263 -3.638989,5.276709 -9.968439,7.396923 -15.570651,9.878656 1.2944948,4.662437 4.869388,8.608453 9.227299,10.654723 4.946912,2.047726 10.582182,2.185769 15.76395,0.993682 5.317871,-1.147258 9.614256,-4.645978 13.717558,-8.012743 0.03768,-11.333629 0.0082,-22.667322 -0.0051,-34.00096525"
       sodipodi:nodetypes="cccccccccc"
       inkscape:label="s1" />
    <path
       style="fill:none;stroke:#000000;stroke-width:1px;stroke-linecap:butt;stroke-linejoin:miter;stroke-opacity:1"
       d="m 43.548107,33.98534 c 0.0037,4.605886 0.01187,9.211714 0.02821,13.817435 0.07739,2.775384 0.572167,5.910487 2.906535,7.728856 1.986701,1.752235 4.726654,2.081502 7.271456,2.163733 0.678437,0.04608 1.356875,0.09216 2.035312,0.138237"
       id="path266-7"
       inkscape:label="s2" />
  </g>
  <g
     id="g429"
     inkscape:label="g2"
     transform="translate(9.7)">
    <path
       style="display:inline"
       d="m 30.9,87 v 0 Q 24.3,87 19.15,84.75 14,82.5 9.85,78.7 5.7,74.9 2.2,70.1 v 0 l 4.2,-2.9 q 5.1,6.7 10.7,10.8 5.6,4.1 13.8,4.1 v 0 q 5.7,0 8.7,-2.2 3,-2.2 3,-6.5 v 0 q 0,-3.9 -2.6,-5.9 -2.6,-2 -7,-2 v 0 q -2.5,0 -4.7,0.55 -2.2,0.55 -4.4,1.45 v 0 L 22.1,63 q 2.6,-1.1 5.2,-1.65 2.6,-0.55 5.4,-0.55 v 0 q 7.1,0 11,3.55 3.9,3.55 3.9,9.45 v 0 q 0,6.2 -4.45,9.7 Q 38.7,87 30.9,87 Z"
       id="path420"
       inkscape:label="p2" />
    <path
       style="display:inline;fill:none;stroke:#000000;stroke-width:1px;stroke-linecap:butt;stroke-linejoin:miter;stroke-opacity:1"
       d="m 22.914062,65.289062 c 2.323807,-0.692195 4.562347,-1.731347 7.000658,-1.966609 3.549036,-0.376084 7.376537,-0.234926 10.53575,1.599631 2.719286,1.540051 4.469061,4.52798 4.601284,7.636307 0.253017,2.845818 -0.456653,5.883237 -2.460912,7.998761 -2.433486,2.67518 -6.157635,3.68678 -9.656459,3.920638 C 27.700261,84.79836 22.284886,83.938844 17.69019,81.310728 14.906965,79.755209 12.447616,77.671348 10.188095,75.437432 8.1199862,73.202596 6.1412982,70.891325 4.1757812,68.566406"
       id="path198"
       inkscape:label="s3" />
  </g>
</svg>
