<svg xmlns="http://www.w3.org/2000/svg" xmlns:xlink="http://www.w3.org/1999/xlink" width="60.6" height="130.4"><path d="M27.60 74.50L27.60 74.50Q19.10 74.50 13.70 70.40Q8.30 66.30 5.40 58.20L5.40 58.20Q15 55.30 19.80 51.40Q24.60 47.50 24.60 41.50L24.60 41.50Q24.60 38.00 22.50 36.00Q20.40 34.00 17.10 34.00L17.10 34.00Q13.60 34.00 11.55 35.80Q9.50 37.60 9.50 40.50L9.50 40.50Q9.50 45.00 14.40 47.70L14.40 47.70L11.30 51.40Q4.30 47.20 4.30 40.40L4.30 40.40Q4.30 35.70 7.65 32.50Q11 29.30 17.10 29.30L17.10 29.30Q23.40 29.30 26.60 32.95Q29.80 36.60 29.80 41.60L29.80 41.60Q29.80 48.40 25.35 53.05Q20.90 57.70 12.20 61.00L12.20 61.00Q14.50 65.30 18.20 67.45Q21.90 69.60 27.60 69.60L27.60 69.60Q33.40 69.60 37.70 67.50Q42 65.40 45.20 62.00L45.20 62.00L45.20 29.30L50.50 30.10L50.50 75.50Q50.50 78.70 51 80.35Q51.50 82.00 52.70 82.90L52.70 82.90Q53.90 84.10 55.85 84.35Q57.80 84.60 60.10 84.60L60.10 84.60L59.60 89.60L58.60 89.60Q51.90 89.60 48.70 86.60L48.70 86.60Q46.90 85.00 46.05 82.50Q45.20 80 45.20 75.80L45.20 75.80L45.20 68.40Q42.20 70.90 37.85 72.70Q33.50 74.50 27.60 74.50ZM43.10 116.10L43.10 116.10Q36 116.10 32.10 112.50Q28.20 108.90 28.20 103.00L28.20 103.00Q28.20 97.60 32.30 93.85Q36.40 90.10 44.30 90.10L44.30 90.10Q51.60 90.10 56.95 92.85Q62.30 95.60 66.40 99.95Q70.50 104.30 73.90 109.20L73.90 109.20L69.80 111.90Q66.10 106.80 62.45 102.95Q58.80 99.10 54.45 96.95Q50.10 94.80 44.50 94.80L44.50 94.80Q38.70 94.80 35.95 97.15Q33.20 99.50 33.20 103.10L33.20 103.10Q33.20 107.30 35.90 109.25Q38.60 111.20 42.80 111.20L42.80 111.20Q45.50 111.20 47.75 110.65Q50 110.10 52.20 109.10L52.20 109.10L53.90 113.90Q51.30 114.90 48.60 115.50Q45.90 116.10 43.10 116.10Z"/></svg>