<svg xmlns="http://www.w3.org/2000/svg" xmlns:xlink="http://www.w3.org/1999/xlink" width="60.6" height="130.4">
    <path
        d="M27.60 74.50L27.60 74.50Q19.10 74.50 13.70 70.40Q8.30 66.30 5.40 58.20L5.40 58.20Q15 55.30 19.80 51.40Q24.60 47.50 24.60 41.50L24.60 41.50Q24.60 38.00 22.50 36.00Q20.40 34.00 17.10 34.00L17.10 34.00Q13.60 34.00 11.55 35.80Q9.50 37.60 9.50 40.50L9.50 40.50Q9.50 45.00 14.40 47.70L14.40 47.70L11.30 51.40Q4.30 47.20 4.30 40.40L4.30 40.40Q4.30 35.70 7.65 32.50Q11 29.30 17.10 29.30L17.10 29.30Q23.40 29.30 26.60 32.95Q29.80 36.60 29.80 41.60L29.80 41.60Q29.80 48.40 25.35 53.05Q20.90 57.70 12.20 61.00L12.20 61.00Q14.50 65.30 18.20 67.45Q21.90 69.60 27.60 69.60L27.60 69.60Q33.40 69.60 37.70 67.50Q42 65.40 45.20 62.00L45.20 62.00L45.20 29.30L50.50 30.10L50.50 75.50Q50.50 78.70 51 80.35Q51.50 82.00 52.70 82.90L52.70 82.90Q53.90 84.10 55.85 84.35Q57.80 84.60 60.10 84.60L60.10 84.60L59.60 89.60L58.60 89.60Q51.90 89.60 48.70 86.60L48.70 86.60Q46.90 85.00 46.05 82.50Q45.20 80 45.20 75.80L45.20 75.80L45.20 68.40Q42.20 70.90 37.85 72.70Q33.50 74.50 27.60 74.50ZM43.10 116.10L43.10 116.10Q36 116.10 32.10 112.50Q28.20 108.90 28.20 103.00L28.20 103.00Q28.20 97.60 32.30 93.85Q36.40 90.10 44.30 90.10L44.30 90.10Q51.60 90.10 56.95 92.85Q62.30 95.60 66.40 99.95Q70.50 104.30 73.90 109.20L73.90 109.20L69.80 111.90Q66.10 106.80 62.45 102.95Q58.80 99.10 54.45 96.95Q50.10 94.80 44.50 94.80L44.50 94.80Q38.70 94.80 35.95 97.15Q33.20 99.50 33.20 103.10L33.20 103.10Q33.20 107.30 35.90 109.25Q38.60 111.20 42.80 111.20L42.80 111.20Q45.50 111.20 47.75 110.65Q50 110.10 52.20 109.10L52.20 109.10L53.90 113.90Q51.30 114.90 48.60 115.50Q45.90 116.10 43.10 116.10Z" />
    <g
     id="g459"
     inkscape:label="g2">
    <path
       style="display:inline"
       d="m 29.1,86.8 v 0 q -7.1,0 -11,-3.6 -3.9,-3.6 -3.9,-9.5 v 0 q 0,-5.4 4.1,-9.15 4.1,-3.75 12,-3.75 v 0 q 7.3,0 12.65,2.75 5.35,2.75 9.45,7.1 4.1,4.35 7.5,9.25 v 0 l -4.1,2.7 q -3.7,-5.1 -7.35,-8.95 -3.65,-3.85 -8,-6 Q 36.1,65.5 30.5,65.5 v 0 q -5.8,0 -8.55,2.35 -2.75,2.35 -2.75,5.95 v 0 q 0,4.2 2.7,6.15 2.7,1.95 6.9,1.95 v 0 q 2.7,0 4.95,-0.55 Q 36,80.8 38.2,79.8 v 0 l 1.7,4.8 q -2.6,1 -5.3,1.6 -2.7,0.6 -5.5,0.6 z"
       id="path450"
       inkscape:label="p2" />
    <path
       style="display:inline;fill:none;stroke:#000000;stroke-width:1px;stroke-linecap:butt;stroke-linejoin:miter;stroke-opacity:1"
       d="m 39.156038,82.101726 c -2.559475,0.870519 -5.086907,1.981239 -7.823193,2.132839 -3.656068,0.346073 -7.630959,0.02382 -10.710525,-2.159471 -1.994947,-1.389787 -3.307503,-3.602927 -3.721038,-5.984024 -0.524339,-2.865919 -0.09409,-6.035968 1.795561,-8.342771 1.97195,-2.740177 5.319724,-4.087889 8.589416,-4.419381 5.402628,-0.588506 11.078052,0.234292 15.808321,3.017688 4.134381,2.336077 7.55606,5.727729 10.466774,9.443934 1.484877,1.838423 2.884191,3.743963 4.305828,5.631338"
       id="path546"
       inkscape:label="s3" />
  </g>
    <path id="path331"
        style="fill:none;stroke:#000000;stroke-width:1px;stroke-linecap:butt;stroke-linejoin:miter;stroke-opacity:1"
        d="M 8.3917369,20.418166 C 6.1299711,18.54681 3.5963198,16.504995 2.8799726,13.504875 1.6477048,9.2595271 4.1081575,4.2322788 8.4562389,3.0222259 12.345497,1.7594745 17.232168,2.0732449 20.217748,5.1370147 c 3.890692,4.15355 3.295259,10.9190583 0.192165,15.3457263 -3.638989,5.276709 -9.968439,7.396923 -15.570651,9.878656 1.2944948,4.662437 4.869388,8.608453 9.227299,10.654723 4.946912,2.047726 10.582182,2.185769 15.76395,0.993682 5.317871,-1.147258 9.614256,-4.645978 13.717558,-8.012743 0.03768,-11.333629 0.0082,-22.667322 -0.0051,-34.00096525"
        sodipodi:nodetypes="cccccccccc" inkscape:label="s1" />
    <path style="fill:none;stroke:#000000;stroke-width:1px;stroke-linecap:butt;stroke-linejoin:miter;stroke-opacity:1"
        d="m 43.548107,33.98534 c 0.0037,4.605886 0.01187,9.211714 0.02821,13.817435 0.07739,2.775384 0.572167,5.910487 2.906535,7.728856 1.986701,1.752235 4.726654,2.081502 7.271456,2.163733 0.678437,0.04608 1.356875,0.09216 2.035312,0.138237"
        id="path266" inkscape:label="s2" />
</svg>