<?xml version="1.0" encoding="UTF-8" standalone="no"?>
<svg
   width="80.900002"
   height="89.599998"
   version="1.1"
   id="svg1112"
   sodipodi:docname="8_tho.svg"
   inkscape:version="1.2.1 (9c6d41e410, 2022-07-14)"
   xmlns:inkscape="http://www.inkscape.org/namespaces/inkscape"
   xmlns:sodipodi="http://sodipodi.sourceforge.net/DTD/sodipodi-0.dtd"
   xmlns="http://www.w3.org/2000/svg"
   xmlns:svg="http://www.w3.org/2000/svg">
  <defs
     id="defs1116" />
  <sodipodi:namedview
     id="namedview1114"
     pagecolor="#ffffff"
     bordercolor="#666666"
     borderopacity="1.0"
     inkscape:showpageshadow="2"
     inkscape:pageopacity="0.0"
     inkscape:pagecheckerboard="0"
     inkscape:deskcolor="#d1d1d1"
     showgrid="false"
     inkscape:zoom="1.809816"
     inkscape:cx="38.954235"
     inkscape:cy="65.199997"
     inkscape:window-width="1920"
     inkscape:window-height="1027"
     inkscape:window-x="-8"
     inkscape:window-y="-8"
     inkscape:window-maximized="1"
     inkscape:current-layer="svg1112" />
  <g
     id="g117"
     inkscape:label="g1"
     transform="matrix(0.99957896,0,0,0.99992549,0,29.304493)">
    <path
       d="m 23.3,45.2 v 0 Q 14.8,45.2 9.4,41.1 4,37 1.1,28.9 v 0 q 9.6,-2.9 14.4,-6.8 4.8,-3.9 4.8,-9.9 v 0 q 0,-3.5 -2.1,-5.5 -2.1,-2 -5.4,-2 v 0 Q 9.3,4.7 7.25,6.5 5.2,8.3 5.2,11.2 v 0 q 0,4.5 4.9,7.2 v 0 L 7,22.1 Q 0,17.9 0,11.1 v 0 Q 0,6.4 3.35,3.2 6.7,0 12.8,0 v 0 q 6.3,0 9.5,3.65 3.2,3.65 3.2,8.65 v 0 q 0,6.8 -4.45,11.45 Q 16.6,28.4 7.9,31.7 v 0 q 2.3,4.3 6,6.45 3.7,2.15 9.4,2.15 v 0 q 5.8,0 10.1,-2.1 4.3,-2.1 7.5,-5.5 v 0 V 0 l 5.3,0.8 v 45.4 q 0,3.2 0.5,4.85 0.5,1.65 1.7,2.55 v 0 q 1.2,1.2 3.15,1.45 1.95,0.25 4.25,0.25 v 0 l -0.5,5 h -1 q -6.7,0 -9.9,-3 v 0 Q 42.6,55.7 41.75,53.2 40.9,50.7 40.9,46.5 v 0 -7.4 q -3,2.5 -7.35,4.3 -4.35,1.8 -10.25,1.8 z"
       id="path2"
       inkscape:label="p1" />
    <path
       id="path331-7"
       style="fill:none;stroke:#000000;stroke-width:1px;stroke-linecap:butt;stroke-linejoin:miter;stroke-opacity:1"
       d="M 8.3917369,20.418166 C 6.1299711,18.54681 3.5963198,16.504995 2.8799726,13.504875 1.6477048,9.2595271 4.1081575,4.2322788 8.4562389,3.0222259 12.345497,1.7594745 17.232168,2.0732449 20.217748,5.1370147 c 3.890692,4.15355 3.295259,10.9190583 0.192165,15.3457263 -3.638989,5.276709 -9.968439,7.396923 -15.570651,9.878656 1.2944948,4.662437 4.869388,8.608453 9.227299,10.654723 4.946912,2.047726 10.582182,2.185769 15.76395,0.993682 5.317871,-1.147258 9.614256,-4.645978 13.717558,-8.012743 0.03768,-11.333629 0.0082,-22.667322 -0.0051,-34.00096525"
       sodipodi:nodetypes="cccccccccc"
       inkscape:label="s1" />
    <path
       style="fill:none;stroke:#000000;stroke-width:1px;stroke-linecap:butt;stroke-linejoin:miter;stroke-opacity:1"
       d="m 43.548107,33.98534 c 0.0037,4.605886 0.01187,9.211714 0.02821,13.817435 0.07739,2.775384 0.572167,5.910487 2.906535,7.728856 1.986701,1.752235 4.726654,2.081502 7.271456,2.163733 0.678437,0.04608 1.356875,0.09216 2.035312,0.138237"
       id="path266-2"
       inkscape:label="s2" />
  </g>
  <g
     id="g562"
     inkscape:label="g2"
     transform="translate(9.7)">
    <path
       style="display:inline"
       d="m 70.7,89.6 h -1 q -6.6,0 -9.9,-3 v 0 Q 58,85 57.15,82.5 56.3,80 56.3,75.8 v 0 -46.5 l 5.3,0.7 v 45.5 q 0,3.3 0.5,4.9 0.5,1.6 1.8,2.6 v 0 q 1.2,1.1 3.05,1.35 1.85,0.25 4.25,0.25 v 0 z"
       id="path551"
       inkscape:label="p2" />
    <path
       style="display:inline;fill:none;stroke:#000000;stroke-width:1px;stroke-linecap:butt;stroke-linejoin:miter;stroke-opacity:1"
       d="m 58.92722,29.304293 c 0.0052,15.660703 -0.0419,31.322813 -0.004,46.982637 0.07316,2.661925 0.300704,5.531206 2.06529,7.674603 1.94562,2.285428 5.076187,2.956219 7.950186,3.001875 0.734456,0.05113 1.468913,0.102253 2.203369,0.15338"
       id="path81"
       inkscape:label="s3" />
  </g>
  <g
     id="g566"
     inkscape:label="g3"
     transform="translate(9.7)">
    <path
       style="display:inline"
       d="M 61.1,25.5 H 56.3 Q 54.1,17.9 52.1,13.4 50.1,8.9 47.55,6.9 45,4.9 41.1,4.9 v 0 q -2.8,0 -5.8,0.9 v 0 L 33.7,1.2 Q 35.7,0.6 37.65,0.3 39.6,0 41.4,0 v 0 q 4.7,0 8.2,2.15 3.5,2.15 6.25,7.65 2.75,5.5 5.25,15.7 z"
       id="path553"
       inkscape:label="p3" />
    <path
       style="display:inline;fill:none;stroke:#000000;stroke-width:1px;stroke-linecap:butt;stroke-linejoin:miter;stroke-opacity:1"
       d="m 34.390625,3.625 c 2.407735,-0.5487371 4.818668,-1.2842266 7.316349,-1.1718755 2.367913,0.061684 4.769179,0.644832 6.746194,1.9883103 2.283908,1.5216174 3.856335,3.867577 5.081293,6.2795292 0.985525,1.850814 1.702889,3.830646 2.400769,5.803765 1.025962,2.981686 1.857827,6.023718 2.740551,9.04949"
       id="path814"
       inkscape:label="s4" />
  </g>
</svg>
