<svg xmlns="http://www.w3.org/2000/svg" xmlns:xlink="http://www.w3.org/1999/xlink" width="85.7" height="130.4"><path d="M27.60 74.50L27.60 74.50Q19.10 74.50 13.70 70.40Q8.30 66.30 5.40 58.20L5.40 58.20Q15 55.30 19.80 51.40Q24.60 47.50 24.60 41.50L24.60 41.50Q24.60 38.00 22.50 36.00Q20.40 34.00 17.10 34.00L17.10 34.00Q13.60 34.00 11.55 35.80Q9.50 37.60 9.50 40.50L9.50 40.50Q9.50 45.00 14.40 47.70L14.40 47.70L11.30 51.40Q4.30 47.20 4.30 40.40L4.30 40.40Q4.30 35.70 7.65 32.50Q11 29.30 17.10 29.30L17.10 29.30Q23.40 29.30 26.60 32.95Q29.80 36.60 29.80 41.60L29.80 41.60Q29.80 48.40 25.35 53.05Q20.90 57.70 12.20 61.00L12.20 61.00Q14.50 65.30 18.20 67.45Q21.90 69.60 27.60 69.60L27.60 69.60Q33.40 69.60 37.70 67.50Q42 65.40 45.20 62.00L45.20 62.00L45.20 29.30L50.50 30.10L50.50 75.50Q50.50 78.70 51 80.35Q51.50 82.00 52.70 82.90L52.70 82.90Q53.90 84.10 55.85 84.35Q57.80 84.60 60.10 84.60L60.10 84.60L59.60 89.60L58.60 89.60Q51.90 89.60 48.70 86.60L48.70 86.60Q46.90 85.00 46.05 82.50Q45.20 80 45.20 75.80L45.20 75.80L45.20 68.40Q42.20 70.90 37.85 72.70Q33.50 74.50 27.60 74.50ZM84.70 89.60L83.70 89.60Q77.10 89.60 73.80 86.60L73.80 86.60Q72 85.00 71.15 82.50Q70.30 80 70.30 75.80L70.30 75.80L70.30 29.30L75.60 30.00L75.60 75.50Q75.60 78.80 76.10 80.40Q76.60 82.00 77.90 83.00L77.90 83.00Q79.10 84.10 80.95 84.35Q82.80 84.60 85.20 84.60L85.20 84.60L84.70 89.60ZM75.20 25.50L70.80 25.50Q68.90 17.70 67.05 13.15Q65.20 8.60 62.75 6.70Q60.30 4.80 56.50 4.80L56.50 4.80Q55.30 4.80 53.95 5Q52.60 5.20 51.10 5.70L51.10 5.70L49.60 1.10Q51.50 0.50 53.30 0.25Q55.10 0 56.80 0L56.80 0Q61.40 0 64.75 2.25Q68.10 4.50 70.60 10.05Q73.10 15.60 75.20 25.50L75.20 25.50ZM69.90 23.70L67.10 26.60Q61 21.20 56.80 18.85Q52.60 16.50 47.70 16.50L47.70 16.50Q44.20 16.50 41.30 17.40L41.30 17.40L39.80 12.70Q41.60 12.30 43.55 12Q45.50 11.70 47.70 11.70L47.70 11.70Q51.50 11.70 54.85 12.90Q58.20 14.10 61.75 16.75Q65.30 19.40 69.90 23.70L69.90 23.70Z"/></svg>