<svg xmlns="http://www.w3.org/2000/svg" xmlns:xlink="http://www.w3.org/1999/xlink" width="71" height="130.4"><path d="M22.50 73.70L22.50 73.70Q17.30 73.70 13.30 71.35Q9.30 69 7.05 64.70Q4.80 60.40 4.80 54.60L4.80 54.60Q4.80 45.50 10.30 39.20Q15.80 32.90 26.20 29.30L26.20 29.30L27.80 34.10Q18.60 37.30 14.45 42.50Q10.30 47.70 10.30 54.70L10.30 54.70Q10.30 61.70 13.90 65.25Q17.50 68.80 22.60 68.80L22.60 68.80Q27.90 68.80 30.90 65.30L30.90 65.30Q32.50 63.50 33.30 60.90Q34.10 58.30 34.10 54.20L34.10 54.20L34.10 45.30L39.40 46.00L39.40 55.90Q39.30 56.40 39.30 56.80L39.30 56.80Q41.50 60.70 46.20 60.70L46.20 60.70Q49.20 60.70 51.50 59.50Q53.80 58.30 55.60 56.10L55.60 56.10L55.60 29.30L60.90 30.10L60.90 75.50Q60.90 78.70 61.40 80.35Q61.90 82.00 63.10 82.90L63.10 82.90Q64.30 84.10 66.25 84.35Q68.20 84.60 70.50 84.60L70.50 84.60L69.90 89.60L69 89.60Q65.90 89.60 63.40 88.95Q60.90 88.30 59.10 86.60L59.10 86.60Q57.20 84.90 56.40 82.40Q55.60 79.90 55.60 75.80L55.60 75.80L55.60 62.40Q53.80 63.90 51.55 64.75Q49.30 65.60 46.30 65.70L46.30 65.70Q44 65.70 42 65Q40 64.30 38.40 62.70L38.40 62.70Q36.80 67.70 32.75 70.70Q28.70 73.70 22.50 73.70ZM55.30 116.30L55.30 116.30Q48.70 116.30 43.55 114.05Q38.40 111.80 34.25 108.00Q30.10 104.20 26.60 99.40L26.60 99.40L30.80 96.50Q35.90 103.20 41.50 107.30Q47.10 111.40 55.30 111.40L55.30 111.40Q61 111.40 64 109.20Q67 107.00 67 102.70L67 102.70Q67 98.80 64.40 96.80Q61.80 94.80 57.40 94.80L57.40 94.80Q54.90 94.80 52.70 95.35Q50.50 95.90 48.30 96.80L48.30 96.80L46.50 92.30Q49.10 91.20 51.70 90.65Q54.30 90.10 57.10 90.10L57.10 90.10Q64.20 90.10 68.10 93.65Q72 97.20 72 103.10L72 103.10Q72 109.30 67.55 112.80Q63.10 116.30 55.30 116.30Z"/></svg>