<svg xmlns="http://www.w3.org/2000/svg" xmlns:xlink="http://www.w3.org/1999/xlink" width="71" height="130.4"><path d="M22.50 73.70L22.50 73.70Q17.30 73.70 13.30 71.35Q9.30 69 7.05 64.70Q4.80 60.40 4.80 54.60L4.80 54.60Q4.80 45.50 10.30 39.20Q15.80 32.90 26.20 29.30L26.20 29.30L27.80 34.10Q18.60 37.30 14.45 42.50Q10.30 47.70 10.30 54.70L10.30 54.70Q10.30 61.70 13.90 65.25Q17.50 68.80 22.60 68.80L22.60 68.80Q27.90 68.80 30.90 65.30L30.90 65.30Q32.50 63.50 33.30 60.90Q34.10 58.30 34.10 54.20L34.10 54.20L34.10 45.30L39.40 46.00L39.40 55.90Q39.30 56.40 39.30 56.80L39.30 56.80Q41.50 60.70 46.20 60.70L46.20 60.70Q49.20 60.70 51.50 59.50Q53.80 58.30 55.60 56.10L55.60 56.10L55.60 29.30L60.90 30.10L60.90 75.50Q60.90 78.70 61.40 80.35Q61.90 82.00 63.10 82.90L63.10 82.90Q64.30 84.10 66.25 84.35Q68.20 84.60 70.50 84.60L70.50 84.60L69.90 89.60L69 89.60Q65.90 89.60 63.40 88.95Q60.90 88.30 59.10 86.60L59.10 86.60Q57.20 84.90 56.40 82.40Q55.60 79.90 55.60 75.80L55.60 75.80L55.60 62.40Q53.80 63.90 51.55 64.75Q49.30 65.60 46.30 65.70L46.30 65.70Q44 65.70 42 65Q40 64.30 38.40 62.70L38.40 62.70Q36.80 67.70 32.75 70.70Q28.70 73.70 22.50 73.70ZM53.50 116.10L53.50 116.10Q46.40 116.10 42.50 112.50Q38.60 108.90 38.60 103.00L38.60 103.00Q38.60 97.60 42.70 93.85Q46.80 90.10 54.70 90.10L54.70 90.10Q62 90.10 67.35 92.85Q72.70 95.60 76.80 99.95Q80.90 104.30 84.30 109.20L84.30 109.20L80.20 111.90Q76.50 106.80 72.85 102.95Q69.20 99.10 64.85 96.95Q60.50 94.80 54.90 94.80L54.90 94.80Q49.10 94.80 46.35 97.15Q43.60 99.50 43.60 103.10L43.60 103.10Q43.60 107.30 46.30 109.25Q49 111.20 53.20 111.20L53.20 111.20Q55.90 111.20 58.15 110.65Q60.40 110.10 62.60 109.10L62.60 109.10L64.30 113.90Q61.70 114.90 59 115.50Q56.30 116.10 53.50 116.10Z"/></svg>