<svg xmlns="http://www.w3.org/2000/svg" xmlns:xlink="http://www.w3.org/1999/xlink" width="71" height="130.4"><path d="M22.50 73.70L22.50 73.70Q17.30 73.70 13.30 71.35Q9.30 69 7.05 64.70Q4.80 60.40 4.80 54.60L4.80 54.60Q4.80 45.50 10.30 39.20Q15.80 32.90 26.20 29.30L26.20 29.30L27.80 34.10Q18.60 37.30 14.45 42.50Q10.30 47.70 10.30 54.70L10.30 54.70Q10.30 61.70 13.90 65.25Q17.50 68.80 22.60 68.80L22.60 68.80Q27.90 68.80 30.90 65.30L30.90 65.30Q32.50 63.50 33.30 60.90Q34.10 58.30 34.10 54.20L34.10 54.20L34.10 45.30L39.40 46.00L39.40 55.90Q39.30 56.40 39.30 56.80L39.30 56.80Q41.50 60.70 46.20 60.70L46.20 60.70Q49.20 60.70 51.50 59.50Q53.80 58.30 55.60 56.10L55.60 56.10L55.60 29.30L60.90 30.10L60.90 75.50Q60.90 78.70 61.40 80.35Q61.90 82.00 63.10 82.90L63.10 82.90Q64.30 84.10 66.25 84.35Q68.20 84.60 70.50 84.60L70.50 84.60L69.90 89.60L69 89.60Q65.90 89.60 63.40 88.95Q60.90 88.30 59.10 86.60L59.10 86.60Q57.20 84.90 56.40 82.40Q55.60 79.90 55.60 75.80L55.60 75.80L55.60 62.40Q53.80 63.90 51.55 64.75Q49.30 65.60 46.30 65.70L46.30 65.70Q44 65.70 42 65Q40 64.30 38.40 62.70L38.40 62.70Q36.80 67.70 32.75 70.70Q28.70 73.70 22.50 73.70ZM60.50 25.50L56.10 25.50Q54.20 17.70 52.35 13.15Q50.50 8.60 48.05 6.70Q45.60 4.80 41.80 4.80L41.80 4.80Q40.60 4.80 39.25 5Q37.90 5.20 36.40 5.70L36.40 5.70L34.90 1.10Q36.80 0.50 38.60 0.25Q40.40 0 42.10 0L42.10 0Q46.70 0 50.05 2.25Q53.40 4.50 55.90 10.05Q58.40 15.60 60.50 25.50L60.50 25.50ZM55.20 23.70L52.40 26.60Q46.30 21.20 42.10 18.85Q37.90 16.50 33 16.50L33 16.50Q29.50 16.50 26.60 17.40L26.60 17.40L25.10 12.70Q26.90 12.30 28.85 12Q30.80 11.70 33 11.70L33 11.70Q36.80 11.70 40.15 12.90Q43.50 14.10 47.05 16.75Q50.60 19.40 55.20 23.70L55.20 23.70Z"/></svg>