<svg xmlns="http://www.w3.org/2000/svg" xmlns:xlink="http://www.w3.org/1999/xlink" width="96.1" height="130.4"><path d="M22.50 73.70L22.50 73.70Q17.30 73.70 13.30 71.35Q9.30 69 7.05 64.70Q4.80 60.40 4.80 54.60L4.80 54.60Q4.80 45.50 10.30 39.20Q15.80 32.90 26.20 29.30L26.20 29.30L27.80 34.10Q18.60 37.30 14.45 42.50Q10.30 47.70 10.30 54.70L10.30 54.70Q10.30 61.70 13.90 65.25Q17.50 68.80 22.60 68.80L22.60 68.80Q27.90 68.80 30.90 65.30L30.90 65.30Q32.50 63.50 33.30 60.90Q34.10 58.30 34.10 54.20L34.10 54.20L34.10 45.30L39.40 46.00L39.40 55.90Q39.30 56.40 39.30 56.80L39.30 56.80Q41.50 60.70 46.20 60.70L46.20 60.70Q49.20 60.70 51.50 59.50Q53.80 58.30 55.60 56.10L55.60 56.10L55.60 29.30L60.90 30.10L60.90 75.50Q60.90 78.70 61.40 80.35Q61.90 82.00 63.10 82.90L63.10 82.90Q64.30 84.10 66.25 84.35Q68.20 84.60 70.50 84.60L70.50 84.60L69.90 89.60L69 89.60Q65.90 89.60 63.40 88.95Q60.90 88.30 59.10 86.60L59.10 86.60Q57.20 84.90 56.40 82.40Q55.60 79.90 55.60 75.80L55.60 75.80L55.60 62.40Q53.80 63.90 51.55 64.75Q49.30 65.60 46.30 65.70L46.30 65.70Q44 65.70 42 65Q40 64.30 38.40 62.70L38.40 62.70Q36.80 67.70 32.75 70.70Q28.70 73.70 22.50 73.70ZM95.10 89.60L94.10 89.60Q87.50 89.60 84.20 86.60L84.20 86.60Q82.40 85.00 81.55 82.50Q80.70 80 80.70 75.80L80.70 75.80L80.70 29.30L86 30.00L86 75.50Q86 78.80 86.50 80.40Q87 82.00 88.30 83.00L88.30 83.00Q89.50 84.10 91.35 84.35Q93.20 84.60 95.60 84.60L95.60 84.60L95.10 89.60ZM85.50 25.50L80.70 25.50Q78.50 17.90 76.50 13.40Q74.50 8.90 71.95 6.90Q69.40 4.90 65.50 4.90L65.50 4.90Q62.70 4.90 59.70 5.80L59.70 5.80L58.10 1.20Q60.10 0.60 62.05 0.30Q64 0 65.80 0L65.80 0Q70.50 0 74 2.15Q77.50 4.30 80.25 9.80Q83 15.30 85.50 25.50L85.50 25.50Z"/></svg>