<?xml version="1.0" encoding="UTF-8" standalone="no"?>
<svg
   width="55.200001"
   height="60.200001"
   version="1.1"
   id="svg4"
   sodipodi:docname="0_sh.svg"
   inkscape:version="1.2.1 (9c6d41e410, 2022-07-14)"
   xmlns:inkscape="http://www.inkscape.org/namespaces/inkscape"
   xmlns:sodipodi="http://sodipodi.sourceforge.net/DTD/sodipodi-0.dtd"
   xmlns="http://www.w3.org/2000/svg"
   xmlns:svg="http://www.w3.org/2000/svg">
  <defs
     id="defs8" />
  <sodipodi:namedview
     id="namedview6"
     pagecolor="#ffffff"
     bordercolor="#666666"
     borderopacity="1.0"
     inkscape:showpageshadow="2"
     inkscape:pageopacity="0.0"
     inkscape:pagecheckerboard="0"
     inkscape:deskcolor="#d1d1d1"
     showgrid="false"
     inkscape:zoom="11.313709"
     inkscape:cx="42.382213"
     inkscape:cy="24.748737"
     inkscape:window-width="1920"
     inkscape:window-height="1027"
     inkscape:window-x="-8"
     inkscape:window-y="-8"
     inkscape:window-maximized="1"
     inkscape:current-layer="svg4" />
  <path
     style="fill:none;stroke:#000000;stroke-width:1px;stroke-linecap:butt;stroke-linejoin:miter;stroke-opacity:1"
     d="m 13.076456,8.6077513 c 0.861758,0.2113344 1.687453,0.5660783 2.326799,1.1973392 6.658247,5.3886085 13.349983,10.7363775 19.986817,16.1511005 1.515163,1.243638 2.985056,2.542524 4.536448,3.738135 0.683347,0.570641 1.366695,1.141282 2.050042,1.711923"
     id="path284"
     inkscape:label="s3" />
  <path
     style="fill:none;stroke:#000000;stroke-width:1px;stroke-linecap:butt;stroke-linejoin:miter;stroke-opacity:1"
     d="m 42.873833,0 c 0.01437,15.776149 -0.0406,31.552994 0.0173,47.328706 0.02291,2.948714 0.633148,6.255295 3.106164,8.163435 2.523555,2.241886 6.069081,1.94741 9.196533,2.239896"
     id="path282"
     inkscape:label="s2" />
  <path
     style="fill:none;stroke:#000000;stroke-width:1px;stroke-linecap:butt;stroke-linejoin:miter;stroke-opacity:1"
     d="m -0.00610479,3.400367 c 2.74475909,0.2895713 5.73860859,-0.02246 8.15806949,1.5612639 2.2335673,1.2426268 3.0859013,3.9115178 3.2646413,6.3193711 0.631493,3.845925 0.292213,7.747663 0.437894,11.622804 0.06095,3.221046 -0.16447,6.512685 0.799217,9.634736 1.017907,3.545729 3.83059,6.553069 7.370883,7.662156 4.316322,1.337097 9.083895,1.032798 13.282897,-0.585478 2.704499,-1.10212 5.113487,-2.758424 7.411432,-4.537107"
     id="path280"
     inkscape:label="s1" />
  <path
     d="m 25.5,43.5 v 0 q -3.6,0 -6.45,-1 -2.85,-1 -4.75,-2.8 v 0 Q 11.7,37.5 10.45,34.25 9.2,31 9.2,26.1 v 0 -10.6 Q 9.2,12.4 8.95,10.8 8.7,9.2 7.9,8.1 v 0 Q 7,6.9 5.15,6.4 3.3,5.9 0,5.9 v 0 l 0.6,-5 h 0.6 q 3.9,0 6.2,0.9 2.3,0.9 5.3,3.2 v 0 l 20,16 q 2.3,1.8 4,3.25 1.7,1.45 3.5,3.05 v 0 V 0 l 5.3,0.7 v 45.4 q 0,3.3 0.55,4.9 0.55,1.6 1.85,2.6 v 0 q 1.2,1.1 3,1.35 1.8,0.25 4.3,0.25 v 0 l -0.6,5 h -0.9 q -6.7,0 -9.9,-3 v 0 Q 42,55.6 41.1,53.1 40.2,50.6 40.2,46.4 v 0 -8.1 Q 37.3,40.6 33.65,42.05 30,43.5 25.5,43.5 Z M 18,36.3 v 0 q 2.7,2.3 7.9,2.3 v 0 q 4,0 7.5,-1.6 3.5,-1.6 6.7,-4.5 v 0 L 23.6,19.2 q -2.7,-2 -4.9,-3.85 -2.2,-1.85 -5,-4.45 v 0 q 0.5,1.6 0.65,3.5 0.15,1.9 0.15,4.3 v 0 7.1 q 0,4.1 0.9,6.55 0.9,2.45 2.6,3.95 z"
     id="path2"
     inkscape:label="p1" />
</svg>
