<?xml version="1.0" encoding="UTF-8" standalone="no"?>
<svg
   width="55.200001"
   height="60.200001"
   version="1.1"
   id="svg4"
   sodipodi:docname="0_sh.svg"
   inkscape:version="1.2.1 (9c6d41e410, 2022-07-14)"
   xmlns:inkscape="http://www.inkscape.org/namespaces/inkscape"
   xmlns:sodipodi="http://sodipodi.sourceforge.net/DTD/sodipodi-0.dtd"
   xmlns="http://www.w3.org/2000/svg"
   xmlns:svg="http://www.w3.org/2000/svg">
  <defs
     id="defs8" />
  <sodipodi:namedview
     id="namedview6"
     pagecolor="#ffffff"
     bordercolor="#666666"
     borderopacity="1.0"
     inkscape:showpageshadow="2"
     inkscape:pageopacity="0.0"
     inkscape:pagecheckerboard="0"
     inkscape:deskcolor="#d1d1d1"
     showgrid="false"
     inkscape:zoom="8"
     inkscape:cx="38.0625"
     inkscape:cy="8.375"
     inkscape:window-width="1920"
     inkscape:window-height="1027"
     inkscape:window-x="-8"
     inkscape:window-y="-8"
     inkscape:window-maximized="1"
     inkscape:current-layer="svg4" />
  <path
     d="m 25.5,43.5 v 0 q -3.6,0 -6.45,-1 -2.85,-1 -4.75,-2.8 v 0 Q 11.7,37.5 10.45,34.25 9.2,31 9.2,26.1 v 0 -10.6 Q 9.2,12.4 8.95,10.8 8.7,9.2 7.9,8.1 v 0 Q 7,6.9 5.15,6.4 3.3,5.9 0,5.9 v 0 l 0.6,-5 h 0.6 q 3.9,0 6.2,0.9 2.3,0.9 5.3,3.2 v 0 l 20,16 q 2.3,1.8 4,3.25 1.7,1.45 3.5,3.05 v 0 V 0 l 5.3,0.7 v 45.4 q 0,3.3 0.55,4.9 0.55,1.6 1.85,2.6 v 0 q 1.2,1.1 3,1.35 1.8,0.25 4.3,0.25 v 0 l -0.6,5 h -0.9 q -6.7,0 -9.9,-3 v 0 Q 42,55.6 41.1,53.1 40.2,50.6 40.2,46.4 v 0 -8.1 Q 37.3,40.6 33.65,42.05 30,43.5 25.5,43.5 Z M 18,36.3 v 0 q 2.7,2.3 7.9,2.3 v 0 q 4,0 7.5,-1.6 3.5,-1.6 6.7,-4.5 v 0 L 23.6,19.2 q -2.7,-2 -4.9,-3.85 -2.2,-1.85 -5,-4.45 v 0 q 0.5,1.6 0.65,3.5 0.15,1.9 0.15,4.3 v 0 7.1 q 0,4.1 0.9,6.55 0.9,2.45 2.6,3.95 z"
     id="path2"
     inkscape:label="p1" />
  <path
     id="path280"
     style="fill:none;stroke:#000000;stroke-width:1px;stroke-linecap:butt;stroke-linejoin:miter;stroke-opacity:1"
     inkscape:label="s1"
     d="m -0.00610479,3.400367 c 0.95898592,0.1007442 1.92340429,0.1281516 2.88538459,0.1867969 3.1416742,0.027042 6.7607189,1.2654613 7.8566822,4.524933 1.570042,5.1792551 0.905682,10.6694661 1.130852,16.0024411 -0.06917,4.45855 0.05517,9.455437 3.2915,12.915229 3.4461,3.921374 9.211068,4.482963 14.077168,3.707641 5.290986,-0.766428 9.602854,-4.108229 13.628671,-7.378039 C 43.009713,22.240184 42.968633,11.119805 42.958133,0"
     sodipodi:nodetypes="cccccccc" />
  <path
     style="fill:none;stroke:#000000;stroke-width:1px;stroke-linecap:butt;stroke-linejoin:miter;stroke-opacity:1"
     d="m 42.864633,33.21874 c 0.002,4.70339 0.0093,9.406728 0.02652,14.109966 0.02291,2.948714 0.633148,6.255295 3.106164,8.163435 2.523555,2.241886 6.069081,1.94741 9.196533,2.239896"
     id="path328"
     inkscape:label="s2" />
  <path
     style="fill:none;stroke:#000000;stroke-width:1px;stroke-linecap:butt;stroke-linejoin:miter;stroke-opacity:1"
     d="m 10.675646,6.016761 c 2.559774,1.9582624 5.003219,4.067444 7.538298,6.059526 7.157666,5.776798 14.347065,11.515767 21.422614,17.39269 0.794348,0.627811 1.558616,1.293333 2.340004,1.937272"
     id="path284"
     inkscape:label="s3"
     sodipodi:nodetypes="ccccc" />
</svg>
