<svg xmlns="http://www.w3.org/2000/svg" xmlns:xlink="http://www.w3.org/1999/xlink" width="56.6" height="130.4">
    <path
        d="M26.40 72.90L26.40 72.90Q22.80 72.90 19.95 71.90Q17.10 70.90 15.20 69.10L15.20 69.10Q12.60 66.90 11.35 63.65Q10.10 60.40 10.10 55.50L10.10 55.50L10.10 44.90Q10.10 41.80 9.85 40.20Q9.60 38.60 8.80 37.50L8.80 37.50Q7.90 36.30 6.05 35.80Q4.20 35.30 0.90 35.30L0.90 35.30L1.50 30.30L2.10 30.30Q6 30.30 8.30 31.20Q10.60 32.10 13.60 34.40L13.60 34.40L33.60 50.40Q35.90 52.20 37.60 53.65Q39.30 55.10 41.10 56.70L41.10 56.70L41.10 29.40L46.40 30.10L46.40 75.50Q46.40 78.80 46.95 80.40Q47.50 82.00 48.80 83.00L48.80 83.00Q50 84.10 51.80 84.35Q53.60 84.60 56.10 84.60L56.10 84.60L55.50 89.60L54.60 89.60Q47.90 89.60 44.70 86.60L44.70 86.60Q42.90 85.00 42 82.50Q41.10 80 41.10 75.80L41.10 75.80L41.10 67.70Q38.20 70 34.55 71.45Q30.90 72.90 26.40 72.90ZM18.90 65.70L18.90 65.70Q21.60 68 26.80 68L26.80 68Q30.80 68 34.30 66.40Q37.80 64.80 41 61.90L41 61.90L24.50 48.60Q21.80 46.60 19.60 44.75Q17.40 42.90 14.60 40.30L14.60 40.30Q15.10 41.90 15.25 43.80Q15.40 45.70 15.40 48.10L15.40 48.10L15.40 55.20Q15.40 59.30 16.30 61.75Q17.20 64.20 18.90 65.70ZM43.90 19.10L43.90 19.10Q42.10 19.10 40.85 17.80Q39.60 16.50 39.60 14.20L39.60 14.20Q39.60 12 40.80 10.70Q42 9.40 43.90 9.40L43.90 9.40Q45.80 9.40 47 10.70Q48.20 12 48.20 14.20L48.20 14.20Q48.20 16.60 46.95 17.85Q45.70 19.10 43.90 19.10Z" />
      <g
     id="g653"
     inkscape:label="g2">
    <path
       style="display:inline"
       d="m 33.9,9.7 v 0 Q 32.1,9.7 30.85,8.4 29.6,7.1 29.6,4.8 v 0 Q 29.6,2.6 30.8,1.3 32,0 33.9,0 v 0 q 1.9,0 3.1,1.3 1.2,1.3 1.2,3.5 v 0 q 0,2.4 -1.25,3.65 Q 35.7,9.7 33.9,9.7 Z"
       id="path644"
       inkscape:label="p2" />
    <path
       d="m 33.9375,1.3352194 c -0.820403,0 -1.515467,0.3118012 -2.085191,0.9354043 -0.569724,0.6236031 -0.854587,1.7074649 -0.854587,2.5903504 0,1.0553281 0.273468,1.8947931 0.820403,2.5183962 0.546936,0.6236031 1.347168,0.9354042 2.119375,0.9354042 0.865981,0 1.572439,-0.3118011 2.119375,-0.9354042 0.546935,-0.6236031 0.820403,-1.5977735 0.820403,-2.5183962 0,-1.1512668 -0.284863,-2.0267096 -0.854587,-2.6263275 C 35.452967,1.6350287 34.757903,1.3352194 33.9375,1.3352194 Z"
       style="display:inline;stroke-width:0.701376"
       id="path950"
       sodipodi:nodetypes="sssssssss"
       inkscape:label="s3" />
  </g>
    <path id="path280"
        style="fill:none;stroke:#000000;stroke-width:1px;stroke-linecap:butt;stroke-linejoin:miter;stroke-opacity:1"
        inkscape:label="s1"
        d="m -0.00610479,3.400367 c 0.95898592,0.1007442 1.92340429,0.1281516 2.88538459,0.1867969 3.1416742,0.027042 6.7607189,1.2654613 7.8566822,4.524933 1.570042,5.1792551 0.905682,10.6694661 1.130852,16.0024411 -0.06917,4.45855 0.05517,9.455437 3.2915,12.915229 3.4461,3.921374 9.211068,4.482963 14.077168,3.707641 5.290986,-0.766428 9.602854,-4.108229 13.628671,-7.378039 C 43.009713,22.240184 42.968633,11.119805 42.958133,0"
        sodipodi:nodetypes="cccccccc" />
    <path style="fill:none;stroke:#000000;stroke-width:1px;stroke-linecap:butt;stroke-linejoin:miter;stroke-opacity:1"
        d="m 42.864633,33.21874 c 0.002,4.70339 0.0093,9.406728 0.02652,14.109966 0.02291,2.948714 0.633148,6.255295 3.106164,8.163435 2.523555,2.241886 6.069081,1.94741 9.196533,2.239896"
        id="path328" inkscape:label="s2" />
    <path style="fill:none;stroke:#000000;stroke-width:1px;stroke-linecap:butt;stroke-linejoin:miter;stroke-opacity:1"
        d="m 10.675646,6.016761 c 2.559774,1.9582624 5.003219,4.067444 7.538298,6.059526 7.157666,5.776798 14.347065,11.515767 21.422614,17.39269 0.794348,0.627811 1.558616,1.293333 2.340004,1.937272"
        id="path284" inkscape:label="s3" sodipodi:nodetypes="ccccc" />
</svg>