<svg xmlns="http://www.w3.org/2000/svg" xmlns:xlink="http://www.w3.org/1999/xlink" width="81.7" height="130.4"><path d="M24 89.60L23.10 89.60Q20 89.60 17.50 88.95Q15 88.30 13.20 86.60L13.20 86.60Q11.30 84.90 10.50 82.40Q9.70 79.90 9.70 75.80L9.70 75.80L9.70 22.40Q9.70 15.80 11.05 11.70Q12.40 7.60 15.80 4.70L15.80 4.70Q18 2.80 21.15 1.70Q24.30 0.60 28.40 0.60L28.40 0.60Q37.50 0.60 44.75 5.85Q52 11.10 59.30 19.60L59.30 19.60L55.40 22.70Q49 15.10 42.65 10.30Q36.30 5.50 28.70 5.50L28.70 5.50Q22.80 5.50 19.40 8.40L19.40 8.40Q17 10.50 16 14Q15 17.50 15 24.10L15 24.10L15 75.50Q15 78.70 15.50 80.35Q16 82.00 17.20 82.90L17.20 82.90Q18.40 84.10 20.35 84.35Q22.30 84.60 24.60 84.60L24.60 84.60L24 89.60ZM51.50 72.90L51.50 72.90Q47.90 72.90 45.05 71.90Q42.20 70.90 40.30 69.10L40.30 69.10Q37.70 66.90 36.45 63.65Q35.20 60.40 35.20 55.50L35.20 55.50L35.20 44.90Q35.20 41.80 34.95 40.20Q34.70 38.60 33.90 37.50L33.90 37.50Q33 36.30 31.15 35.80Q29.30 35.30 26 35.30L26 35.30L26.60 30.30L27.20 30.30Q31.10 30.30 33.40 31.20Q35.70 32.10 38.70 34.40L38.70 34.40L58.70 50.40Q61 52.20 62.70 53.65Q64.40 55.10 66.20 56.70L66.20 56.70L66.20 29.40L71.50 30.10L71.50 75.50Q71.50 78.80 72.05 80.40Q72.60 82.00 73.90 83.00L73.90 83.00Q75.10 84.10 76.90 84.35Q78.70 84.60 81.20 84.60L81.20 84.60L80.60 89.60L79.70 89.60Q73 89.60 69.80 86.60L69.80 86.60Q68 85.00 67.10 82.50Q66.20 80 66.20 75.80L66.20 75.80L66.20 67.70Q63.30 70 59.65 71.45Q56 72.90 51.50 72.90ZM44 65.70L44 65.70Q46.70 68 51.90 68L51.90 68Q55.90 68 59.40 66.40Q62.90 64.80 66.10 61.90L66.10 61.90L49.60 48.60Q46.90 46.60 44.70 44.75Q42.50 42.90 39.70 40.30L39.70 40.30Q40.20 41.90 40.35 43.80Q40.50 45.70 40.50 48.10L40.50 48.10L40.50 55.20Q40.50 59.30 41.40 61.75Q42.30 64.20 44 65.70Z"/></svg>