<?xml version="1.0" encoding="UTF-8" standalone="no"?>
<svg
   width="80.300003"
   height="89"
   version="1.1"
   id="svg2042"
   sodipodi:docname="3_shee.svg"
   inkscape:version="1.2.1 (9c6d41e410, 2022-07-14)"
   xmlns:inkscape="http://www.inkscape.org/namespaces/inkscape"
   xmlns:sodipodi="http://sodipodi.sourceforge.net/DTD/sodipodi-0.dtd"
   xmlns="http://www.w3.org/2000/svg"
   xmlns:svg="http://www.w3.org/2000/svg">
  <defs
     id="defs2046" />
  <sodipodi:namedview
     id="namedview2044"
     pagecolor="#ffffff"
     bordercolor="#666666"
     borderopacity="1.0"
     inkscape:showpageshadow="2"
     inkscape:pageopacity="0.0"
     inkscape:pagecheckerboard="0"
     inkscape:deskcolor="#d1d1d1"
     showgrid="false"
     inkscape:zoom="1.809816"
     inkscape:cx="40.05932"
     inkscape:cy="64.647455"
     inkscape:window-width="1920"
     inkscape:window-height="1027"
     inkscape:window-x="-8"
     inkscape:window-y="-8"
     inkscape:window-maximized="1"
     inkscape:current-layer="svg2042" />
  <g
     id="g1656"
     inkscape:label="g1"
     transform="matrix(0.99821272,0,0,1,0.05823947,28.800472)">
    <path
       d="m 25.487313,43.5 v 0 q -3.606445,0 -6.461548,-1 -2.855103,-1 -4.758505,-2.8 v 0 Q 11.662605,37.5 10.410367,34.25 9.1581288,31 9.1581288,26.1 v 0 -10.6 q 0,-3.1 -0.2504477,-4.7 -0.2504476,-1.6 -1.05188,-2.7 v 0 Q 6.9541897,6.9 5.1008773,6.4 3.2475649,5.9 -0.05834375,5.9 v 0 l 0.60107429,-5 H 1.1438049 q 3.9069829,0 6.211101,0.9 Q 9.659024,2.7 12.664395,5 v 0 l 20.03581,16 q 2.304118,1.8 4.007162,3.25 1.703044,1.45 3.506266,3.05 v 0 V 0 l 5.30949,0.7 v 45.4 q 0,3.3 0.550985,4.9 0.550985,1.6 1.853312,2.6 v 0 q 1.202149,1.1 3.005372,1.35 1.803223,0.25 4.307699,0.25 v 0 l -0.601075,5 h -0.901611 q -6.711996,0 -9.917726,-3 v 0 q -1.803223,-1.6 -2.704834,-4.1 -0.901612,-2.5 -0.901612,-6.7 v 0 -8.1 q -2.905192,2.3 -6.561727,3.75 -3.656535,1.45 -8.164593,1.45 z m -7.513428,-7.2 v 0 q 2.704834,2.3 7.914145,2.3 v 0 q 4.007161,0 7.513428,-1.6 3.506267,-1.6 6.711996,-4.5 v 0 L 23.583911,19.2 q -2.704834,-2 -4.908773,-3.85 -2.203939,-1.85 -5.008952,-4.45 v 0 q 0.500895,1.6 0.651163,3.5 0.150269,1.9 0.150269,4.3 v 0 7.1 q 0,4.1 0.901611,6.55 0.901612,2.45 2.604656,3.95 z"
       id="path2-3"
       inkscape:label="p1"
       style="stroke-width:1.00089" />
    <path
       id="path280-5"
       style="fill:none;stroke:#000000;stroke-width:1px;stroke-linecap:butt;stroke-linejoin:miter;stroke-opacity:1"
       inkscape:label="s1"
       d="m -0.00610479,3.400367 c 0.95898592,0.1007442 1.92340429,0.1281516 2.88538459,0.1867969 3.1416742,0.027042 6.7607189,1.2654613 7.8566822,4.524933 1.570042,5.1792551 0.905682,10.6694661 1.130852,16.0024411 -0.06917,4.45855 0.05517,9.455437 3.2915,12.915229 3.4461,3.921374 9.211068,4.482963 14.077168,3.707641 5.290986,-0.766428 9.602854,-4.108229 13.628671,-7.378039 C 43.009713,22.240184 42.968633,11.119805 42.958133,0"
       sodipodi:nodetypes="cccccccc" />
    <path
       style="fill:none;stroke:#000000;stroke-width:1px;stroke-linecap:butt;stroke-linejoin:miter;stroke-opacity:1"
       d="m 42.864633,33.21874 c 0.002,4.70339 0.0093,9.406728 0.02652,14.109966 0.02291,2.948714 0.633148,6.255295 3.106164,8.163435 2.523555,2.241886 6.069081,1.94741 9.196533,2.239896"
       id="path328-9"
       inkscape:label="s2" />
    <path
       style="fill:none;stroke:#000000;stroke-width:1px;stroke-linecap:butt;stroke-linejoin:miter;stroke-opacity:1"
       d="m 10.675646,6.016761 c 2.559774,1.9582624 5.003219,4.067444 7.538298,6.059526 7.157666,5.776798 14.347065,11.515767 21.422614,17.39269 0.794348,0.627811 1.558616,1.293333 2.340004,1.937272"
       id="path284-0"
       inkscape:label="s3"
       sodipodi:nodetypes="ccccc" />
  </g>
  <g
     id="g399"
     inkscape:label="g2"
     transform="matrix(0.99899518,0,0,1,9.1296422,0)">
    <path
       style="display:inline"
       d="m 70.7,89 h -1 q -3,0 -5.55,-0.65 Q 61.6,87.7 59.8,86 v 0 Q 56.3,82.7 56.3,75.2 v 0 -46.7 Q 54.9,17.1 51.4,11 47.9,4.9 42.4,4.9 v 0 q -3.6,0 -5.6,2.6 -2,2.6 -2,7.7 v 0 q 0,3.9 0.6,7 v 0 H 30.3 Q 30,20.7 29.75,18.6 29.5,16.5 29.5,14.6 v 0 Q 29.5,8 32.85,4 36.2,0 42.4,0 v 0 q 5.9,0 9.9,3.95 4,3.95 6.25,10.4 2.25,6.45 3.05,13.85 v 0 46.7 q 0,3.3 0.5,4.85 0.5,1.55 1.7,2.55 v 0 Q 65,83.5 67,83.75 69,84 71.2,84 v 0 z"
       id="path330"
       inkscape:label="p2" />
    <path
       style="display:inline;fill:none;stroke:#000000;stroke-width:1px;stroke-linecap:butt;stroke-linejoin:miter;stroke-opacity:1"
       d="M 32.90625,22.296875 C 32.189196,17.24716 31.309374,11.67002 33.948338,7.0048776 36.015851,3.1824285 40.814237,1.7827514 44.871275,2.7018315 c 5.299598,1.0610536 8.634255,5.9944562 10.53375,10.6924095 1.94946,4.911209 3.041647,10.154719 3.53254,15.40287 0.03373,16.081561 -0.05668,32.165472 0.05492,48.245568 0.09206,3.485135 1.641413,7.400064 5.196702,8.60873 2.224083,0.864628 4.672997,0.637872 7.006103,0.85642"
       id="path80"
       inkscape:label="s3" />
  </g>
</svg>
