<svg xmlns="http://www.w3.org/2000/svg" xmlns:xlink="http://www.w3.org/1999/xlink" width="81.7" height="130.4">
    <path
        d="M26.40 72.90L26.40 72.90Q22.80 72.90 19.95 71.90Q17.10 70.90 15.20 69.10L15.20 69.10Q12.60 66.90 11.35 63.65Q10.10 60.40 10.10 55.50L10.10 55.50L10.10 44.90Q10.10 41.80 9.85 40.20Q9.60 38.60 8.80 37.50L8.80 37.50Q7.90 36.30 6.05 35.80Q4.20 35.30 0.90 35.30L0.90 35.30L1.50 30.30L2.10 30.30Q6 30.30 8.30 31.20Q10.60 32.10 13.60 34.40L13.60 34.40L33.60 50.40Q35.90 52.20 37.60 53.65Q39.30 55.10 41.10 56.70L41.10 56.70L41.10 29.40L46.40 30.10L46.40 75.50Q46.40 78.80 46.95 80.40Q47.50 82.00 48.80 83.00L48.80 83.00Q50 84.10 51.80 84.35Q53.60 84.60 56.10 84.60L56.10 84.60L55.50 89.60L54.60 89.60Q47.90 89.60 44.70 86.60L44.70 86.60Q42.90 85.00 42 82.50Q41.10 80 41.10 75.80L41.10 75.80L41.10 67.70Q38.20 70 34.55 71.45Q30.90 72.90 26.40 72.90ZM18.90 65.70L18.90 65.70Q21.60 68 26.80 68L26.80 68Q30.80 68 34.30 66.40Q37.80 64.80 41 61.90L41 61.90L24.50 48.60Q21.80 46.60 19.60 44.75Q17.40 42.90 14.60 40.30L14.60 40.30Q15.10 41.90 15.25 43.80Q15.40 45.70 15.40 48.10L15.40 48.10L15.40 55.20Q15.40 59.30 16.30 61.75Q17.20 64.20 18.90 65.70ZM80.70 89.60L79.70 89.60Q76.70 89.60 74.15 88.95Q71.60 88.30 69.80 86.60L69.80 86.60Q66.30 83.30 66.30 75.80L66.30 75.80L66.30 29.10Q64.90 17.70 61.40 11.60Q57.90 5.50 52.40 5.50L52.40 5.50Q48.80 5.50 46.80 8.10Q44.80 10.70 44.80 15.80L44.80 15.80Q44.80 19.70 45.40 22.80L45.40 22.80L40.30 22.80Q40 21.30 39.75 19.20Q39.50 17.10 39.50 15.20L39.50 15.20Q39.50 8.60 42.85 4.60Q46.20 0.60 52.40 0.60L52.40 0.60Q58.30 0.60 62.30 4.55Q66.30 8.50 68.55 14.95Q70.80 21.40 71.60 28.80L71.60 28.80L71.60 75.50Q71.60 78.80 72.10 80.35Q72.60 81.90 73.80 82.90L73.80 82.90Q75 84.10 77 84.35Q79 84.60 81.20 84.60L81.20 84.60L80.70 89.60Z" />
      <g
     id="g399"
     inkscape:label="g2">
    <path
       style="display:inline"
       d="m 70.7,89 h -1 q -3,0 -5.55,-0.65 Q 61.6,87.7 59.8,86 v 0 Q 56.3,82.7 56.3,75.2 v 0 -46.7 Q 54.9,17.1 51.4,11 47.9,4.9 42.4,4.9 v 0 q -3.6,0 -5.6,2.6 -2,2.6 -2,7.7 v 0 q 0,3.9 0.6,7 v 0 H 30.3 Q 30,20.7 29.75,18.6 29.5,16.5 29.5,14.6 v 0 Q 29.5,8 32.85,4 36.2,0 42.4,0 v 0 q 5.9,0 9.9,3.95 4,3.95 6.25,10.4 2.25,6.45 3.05,13.85 v 0 46.7 q 0,3.3 0.5,4.85 0.5,1.55 1.7,2.55 v 0 Q 65,83.5 67,83.75 69,84 71.2,84 v 0 z"
       id="path330"
       inkscape:label="p2" />
    <path
       style="display:inline;fill:none;stroke:#000000;stroke-width:1px;stroke-linecap:butt;stroke-linejoin:miter;stroke-opacity:1"
       d="M 32.90625,22.296875 C 32.189196,17.24716 31.309374,11.67002 33.948338,7.0048776 36.015851,3.1824285 40.814237,1.7827514 44.871275,2.7018315 c 5.299598,1.0610536 8.634255,5.9944562 10.53375,10.6924095 1.94946,4.911209 3.041647,10.154719 3.53254,15.40287 0.03373,16.081561 -0.05668,32.165472 0.05492,48.245568 0.09206,3.485135 1.641413,7.400064 5.196702,8.60873 2.224083,0.864628 4.672997,0.637872 7.006103,0.85642"
       id="path80"
       inkscape:label="s3" />
  </g>
    <path id="path280"
        style="fill:none;stroke:#000000;stroke-width:1px;stroke-linecap:butt;stroke-linejoin:miter;stroke-opacity:1"
        inkscape:label="s1"
        d="m -0.00610479,3.400367 c 0.95898592,0.1007442 1.92340429,0.1281516 2.88538459,0.1867969 3.1416742,0.027042 6.7607189,1.2654613 7.8566822,4.524933 1.570042,5.1792551 0.905682,10.6694661 1.130852,16.0024411 -0.06917,4.45855 0.05517,9.455437 3.2915,12.915229 3.4461,3.921374 9.211068,4.482963 14.077168,3.707641 5.290986,-0.766428 9.602854,-4.108229 13.628671,-7.378039 C 43.009713,22.240184 42.968633,11.119805 42.958133,0"
        sodipodi:nodetypes="cccccccc" />
    <path style="fill:none;stroke:#000000;stroke-width:1px;stroke-linecap:butt;stroke-linejoin:miter;stroke-opacity:1"
        d="m 42.864633,33.21874 c 0.002,4.70339 0.0093,9.406728 0.02652,14.109966 0.02291,2.948714 0.633148,6.255295 3.106164,8.163435 2.523555,2.241886 6.069081,1.94741 9.196533,2.239896"
        id="path328" inkscape:label="s2" />
    <path style="fill:none;stroke:#000000;stroke-width:1px;stroke-linecap:butt;stroke-linejoin:miter;stroke-opacity:1"
        d="m 10.675646,6.016761 c 2.559774,1.9582624 5.003219,4.067444 7.538298,6.059526 7.157666,5.776798 14.347065,11.515767 21.422614,17.39269 0.794348,0.627811 1.558616,1.293333 2.340004,1.937272"
        id="path284" inkscape:label="s3" sodipodi:nodetypes="ccccc" />
</svg>