<svg xmlns="http://www.w3.org/2000/svg" xmlns:xlink="http://www.w3.org/1999/xlink" width="56.6" height="130.4">
    <path
        d="M26.40 72.90L26.40 72.90Q22.80 72.90 19.95 71.90Q17.10 70.90 15.20 69.10L15.20 69.10Q12.60 66.90 11.35 63.65Q10.10 60.40 10.10 55.50L10.10 55.50L10.10 44.90Q10.10 41.80 9.85 40.20Q9.60 38.60 8.80 37.50L8.80 37.50Q7.90 36.30 6.05 35.80Q4.20 35.30 0.90 35.30L0.90 35.30L1.50 30.30L2.10 30.30Q6 30.30 8.30 31.20Q10.60 32.10 13.60 34.40L13.60 34.40L33.60 50.40Q35.90 52.20 37.60 53.65Q39.30 55.10 41.10 56.70L41.10 56.70L41.10 29.40L46.40 30.10L46.40 75.50Q46.40 78.80 46.95 80.40Q47.50 82.00 48.80 83.00L48.80 83.00Q50 84.10 51.80 84.35Q53.60 84.60 56.10 84.60L56.10 84.60L55.50 89.60L54.60 89.60Q47.90 89.60 44.70 86.60L44.70 86.60Q42.90 85.00 42 82.50Q41.10 80 41.10 75.80L41.10 75.80L41.10 67.70Q38.20 70 34.55 71.45Q30.90 72.90 26.40 72.90ZM18.90 65.70L18.90 65.70Q21.60 68 26.80 68L26.80 68Q30.80 68 34.30 66.40Q37.80 64.80 41 61.90L41 61.90L24.50 48.60Q21.80 46.60 19.60 44.75Q17.40 42.90 14.60 40.30L14.60 40.30Q15.10 41.90 15.25 43.80Q15.40 45.70 15.40 48.10L15.40 48.10L15.40 55.20Q15.40 59.30 16.30 61.75Q17.20 64.20 18.90 65.70ZM40.90 116.30L40.90 116.30Q34.30 116.30 29.15 114.05Q24 111.80 19.85 108.00Q15.70 104.20 12.20 99.40L12.20 99.40L16.40 96.50Q21.50 103.20 27.10 107.30Q32.70 111.40 40.90 111.40L40.90 111.40Q46.60 111.40 49.60 109.20Q52.60 107.00 52.60 102.70L52.60 102.70Q52.60 98.80 50 96.80Q47.40 94.80 43 94.80L43 94.80Q40.50 94.80 38.30 95.35Q36.10 95.90 33.90 96.80L33.90 96.80L32.10 92.30Q34.70 91.20 37.30 90.65Q39.90 90.10 42.70 90.10L42.70 90.10Q49.80 90.10 53.70 93.65Q57.60 97.20 57.60 103.10L57.60 103.10Q57.60 109.30 53.15 112.80Q48.70 116.30 40.90 116.30Z" />
      <g
     id="g429"
     inkscape:label="g2">
    <path
       style="display:inline"
       d="m 30.9,87 v 0 Q 24.3,87 19.15,84.75 14,82.5 9.85,78.7 5.7,74.9 2.2,70.1 v 0 l 4.2,-2.9 q 5.1,6.7 10.7,10.8 5.6,4.1 13.8,4.1 v 0 q 5.7,0 8.7,-2.2 3,-2.2 3,-6.5 v 0 q 0,-3.9 -2.6,-5.9 -2.6,-2 -7,-2 v 0 q -2.5,0 -4.7,0.55 -2.2,0.55 -4.4,1.45 v 0 L 22.1,63 q 2.6,-1.1 5.2,-1.65 2.6,-0.55 5.4,-0.55 v 0 q 7.1,0 11,3.55 3.9,3.55 3.9,9.45 v 0 q 0,6.2 -4.45,9.7 Q 38.7,87 30.9,87 Z"
       id="path420"
       inkscape:label="p2" />
    <path
       style="display:inline;fill:none;stroke:#000000;stroke-width:1px;stroke-linecap:butt;stroke-linejoin:miter;stroke-opacity:1"
       d="m 22.914062,65.289062 c 2.323807,-0.692195 4.562347,-1.731347 7.000658,-1.966609 3.549036,-0.376084 7.376537,-0.234926 10.53575,1.599631 2.719286,1.540051 4.469061,4.52798 4.601284,7.636307 0.253017,2.845818 -0.456653,5.883237 -2.460912,7.998761 -2.433486,2.67518 -6.157635,3.68678 -9.656459,3.920638 C 27.700261,84.79836 22.284886,83.938844 17.69019,81.310728 14.906965,79.755209 12.447616,77.671348 10.188095,75.437432 8.1199862,73.202596 6.1412982,70.891325 4.1757812,68.566406"
       id="path198"
       inkscape:label="s3" />
  </g>
    <path id="path280"
        style="fill:none;stroke:#000000;stroke-width:1px;stroke-linecap:butt;stroke-linejoin:miter;stroke-opacity:1"
        inkscape:label="s1"
        d="m -0.00610479,3.400367 c 0.95898592,0.1007442 1.92340429,0.1281516 2.88538459,0.1867969 3.1416742,0.027042 6.7607189,1.2654613 7.8566822,4.524933 1.570042,5.1792551 0.905682,10.6694661 1.130852,16.0024411 -0.06917,4.45855 0.05517,9.455437 3.2915,12.915229 3.4461,3.921374 9.211068,4.482963 14.077168,3.707641 5.290986,-0.766428 9.602854,-4.108229 13.628671,-7.378039 C 43.009713,22.240184 42.968633,11.119805 42.958133,0"
        sodipodi:nodetypes="cccccccc" />
    <path style="fill:none;stroke:#000000;stroke-width:1px;stroke-linecap:butt;stroke-linejoin:miter;stroke-opacity:1"
        d="m 42.864633,33.21874 c 0.002,4.70339 0.0093,9.406728 0.02652,14.109966 0.02291,2.948714 0.633148,6.255295 3.106164,8.163435 2.523555,2.241886 6.069081,1.94741 9.196533,2.239896"
        id="path328" inkscape:label="s2" />
    <path style="fill:none;stroke:#000000;stroke-width:1px;stroke-linecap:butt;stroke-linejoin:miter;stroke-opacity:1"
        d="m 10.675646,6.016761 c 2.559774,1.9582624 5.003219,4.067444 7.538298,6.059526 7.157666,5.776798 14.347065,11.515767 21.422614,17.39269 0.794348,0.627811 1.558616,1.293333 2.340004,1.937272"
        id="path284" inkscape:label="s3" sodipodi:nodetypes="ccccc" />
</svg>