<svg xmlns="http://www.w3.org/2000/svg" xmlns:xlink="http://www.w3.org/1999/xlink" width="56.6" height="130.4"><path d="M26.40 72.90L26.40 72.90Q22.80 72.90 19.95 71.90Q17.10 70.90 15.20 69.10L15.20 69.10Q12.60 66.90 11.35 63.65Q10.10 60.40 10.10 55.50L10.10 55.50L10.10 44.90Q10.10 41.80 9.85 40.20Q9.60 38.60 8.80 37.50L8.80 37.50Q7.90 36.30 6.05 35.80Q4.20 35.30 0.90 35.30L0.90 35.30L1.50 30.30L2.10 30.30Q6 30.30 8.30 31.20Q10.60 32.10 13.60 34.40L13.60 34.40L33.60 50.40Q35.90 52.20 37.60 53.65Q39.30 55.10 41.10 56.70L41.10 56.70L41.10 29.40L46.40 30.10L46.40 75.50Q46.40 78.80 46.95 80.40Q47.50 82.00 48.80 83.00L48.80 83.00Q50 84.10 51.80 84.35Q53.60 84.60 56.10 84.60L56.10 84.60L55.50 89.60L54.60 89.60Q47.90 89.60 44.70 86.60L44.70 86.60Q42.90 85.00 42 82.50Q41.10 80 41.10 75.80L41.10 75.80L41.10 67.70Q38.20 70 34.55 71.45Q30.90 72.90 26.40 72.90ZM18.90 65.70L18.90 65.70Q21.60 68 26.80 68L26.80 68Q30.80 68 34.30 66.40Q37.80 64.80 41 61.90L41 61.90L24.50 48.60Q21.80 46.60 19.60 44.75Q17.40 42.90 14.60 40.30L14.60 40.30Q15.10 41.90 15.25 43.80Q15.40 45.70 15.40 48.10L15.40 48.10L15.40 55.20Q15.40 59.30 16.30 61.75Q17.20 64.20 18.90 65.70ZM40.90 116.30L40.90 116.30Q34.30 116.30 29.15 114.05Q24 111.80 19.85 108.00Q15.70 104.20 12.20 99.40L12.20 99.40L16.40 96.50Q21.50 103.20 27.10 107.30Q32.70 111.40 40.90 111.40L40.90 111.40Q46.60 111.40 49.60 109.20Q52.60 107.00 52.60 102.70L52.60 102.70Q52.60 98.80 50 96.80Q47.40 94.80 43 94.80L43 94.80Q40.50 94.80 38.30 95.35Q36.10 95.90 33.90 96.80L33.90 96.80L32.10 92.30Q34.70 91.20 37.30 90.65Q39.90 90.10 42.70 90.10L42.70 90.10Q49.80 90.10 53.70 93.65Q57.60 97.20 57.60 103.10L57.60 103.10Q57.60 109.30 53.15 112.80Q48.70 116.30 40.90 116.30Z"/></svg>