<svg xmlns="http://www.w3.org/2000/svg" xmlns:xlink="http://www.w3.org/1999/xlink" width="56.6" height="130.4"><path d="M26.40 72.90L26.40 72.90Q22.80 72.90 19.95 71.90Q17.10 70.90 15.20 69.10L15.20 69.10Q12.60 66.90 11.35 63.65Q10.10 60.40 10.10 55.50L10.10 55.50L10.10 44.90Q10.10 41.80 9.85 40.20Q9.60 38.60 8.80 37.50L8.80 37.50Q7.90 36.30 6.05 35.80Q4.20 35.30 0.90 35.30L0.90 35.30L1.50 30.30L2.10 30.30Q6 30.30 8.30 31.20Q10.60 32.10 13.60 34.40L13.60 34.40L33.60 50.40Q35.90 52.20 37.60 53.65Q39.30 55.10 41.10 56.70L41.10 56.70L41.10 29.40L46.40 30.10L46.40 75.50Q46.40 78.80 46.95 80.40Q47.50 82.00 48.80 83.00L48.80 83.00Q50 84.10 51.80 84.35Q53.60 84.60 56.10 84.60L56.10 84.60L55.50 89.60L54.60 89.60Q47.90 89.60 44.70 86.60L44.70 86.60Q42.90 85.00 42 82.50Q41.10 80 41.10 75.80L41.10 75.80L41.10 67.70Q38.20 70 34.55 71.45Q30.90 72.90 26.40 72.90ZM18.90 65.70L18.90 65.70Q21.60 68 26.80 68L26.80 68Q30.80 68 34.30 66.40Q37.80 64.80 41 61.90L41 61.90L24.50 48.60Q21.80 46.60 19.60 44.75Q17.40 42.90 14.60 40.30L14.60 40.30Q15.10 41.90 15.25 43.80Q15.40 45.70 15.40 48.10L15.40 48.10L15.40 55.20Q15.40 59.30 16.30 61.75Q17.20 64.20 18.90 65.70ZM39.10 116.10L39.10 116.10Q32 116.10 28.10 112.50Q24.20 108.90 24.20 103.00L24.20 103.00Q24.20 97.60 28.30 93.85Q32.40 90.10 40.30 90.10L40.30 90.10Q47.60 90.10 52.95 92.85Q58.30 95.60 62.40 99.95Q66.50 104.30 69.90 109.20L69.90 109.20L65.80 111.90Q62.10 106.80 58.45 102.95Q54.80 99.10 50.45 96.95Q46.10 94.80 40.50 94.80L40.50 94.80Q34.70 94.80 31.95 97.15Q29.20 99.50 29.20 103.10L29.20 103.10Q29.20 107.30 31.90 109.25Q34.60 111.20 38.80 111.20L38.80 111.20Q41.50 111.20 43.75 110.65Q46 110.10 48.20 109.10L48.20 109.10L49.90 113.90Q47.30 114.90 44.60 115.50Q41.90 116.10 39.10 116.10Z"/></svg>