<?xml version="1.0" encoding="UTF-8" standalone="no"?><svg width="69" height="86.699997" version="1.1" id="svg2328" sodipodi:docname="5_shoo.svg" inkscape:version="1.2.1 (9c6d41e410, 2022-07-14)" xmlns:inkscape="http://www.inkscape.org/namespaces/inkscape" xmlns:sodipodi="http://sodipodi.sourceforge.net/DTD/sodipodi-0.dtd" xmlns="http://www.w3.org/2000/svg" xmlns:svg="http://www.w3.org/2000/svg"><defs id="defs2332"></defs><sodipodi:namedview id="namedview2330" pagecolor="#ffffff" bordercolor="#666666" borderopacity="1.0" inkscape:showpageshadow="2" inkscape:pageopacity="0.0" inkscape:pagecheckerboard="0" inkscape:deskcolor="#d1d1d1" showgrid="false" inkscape:zoom="1.809816" inkscape:cx="27.350846" inkscape:cy="35.915253" inkscape:window-width="1920" inkscape:window-height="1027" inkscape:window-x="-8" inkscape:window-y="-8" inkscape:window-maximized="1" inkscape:current-layer="svg2328"></sodipodi:namedview><g id="g0" inkscape:label="g0" transform="matrix(0.99821272,0,0,1,0.05823947,4.7213037e-4)"><path d="m 25.487313,43.5 v 0 q -3.606445,0 -6.461548,-1 -2.855103,-1 -4.758505,-2.8 v 0 Q 11.662605,37.5 10.410367,34.25 9.1581288,31 9.1581288,26.1 v 0 -10.6 q 0,-3.1 -0.2504477,-4.7 -0.2504476,-1.6 -1.05188,-2.7 v 0 Q 6.9541897,6.9 5.1008773,6.4 3.2475649,5.9 -0.05834375,5.9 v 0 l 0.60107429,-5 H 1.1438049 q 3.9069829,0 6.211101,0.9 Q 9.659024,2.7 12.664395,5 v 0 l 20.03581,16 q 2.304118,1.8 4.007162,3.25 1.703044,1.45 3.506266,3.05 v 0 V 0 l 5.30949,0.7 v 45.4 q 0,3.3 0.550985,4.9 0.550985,1.6 1.853312,2.6 v 0 q 1.202149,1.1 3.005372,1.35 1.803223,0.25 4.307699,0.25 v 0 l -0.601075,5 h -0.901611 q -6.711996,0 -9.917726,-3 v 0 q -1.803223,-1.6 -2.704834,-4.1 -0.901612,-2.5 -0.901612,-6.7 v 0 -8.1 q -2.905192,2.3 -6.561727,3.75 -3.656535,1.45 -8.164593,1.45 z m -7.513428,-7.2 v 0 q 2.704834,2.3 7.914145,2.3 v 0 q 4.007161,0 7.513428,-1.6 3.506267,-1.6 6.711996,-4.5 v 0 L 23.583911,19.2 q -2.704834,-2 -4.908773,-3.85 -2.203939,-1.85 -5.008952,-4.45 v 0 q 0.500895,1.6 0.651163,3.5 0.150269,1.9 0.150269,4.3 v 0 7.1 q 0,4.1 0.901611,6.55 0.901612,2.45 2.604656,3.95 z" id="g0p0" inkscape:label="g0p0" style="stroke-width:1.00089"></path><path id="g0s0" style="fill:none;stroke:#000000;stroke-width:1px;stroke-linecap:butt;stroke-linejoin:miter;stroke-opacity:1" inkscape:label="g0s0" d="m -0.00610479,3.400367 c 0.95898592,0.1007442 1.92340429,0.1281516 2.88538459,0.1867969 3.1416742,0.027042 6.7607189,1.2654613 7.8566822,4.524933 1.570042,5.1792551 0.905682,10.6694661 1.130852,16.0024411 -0.06917,4.45855 0.05517,9.455437 3.2915,12.915229 3.4461,3.921374 9.211068,4.482963 14.077168,3.707641 5.290986,-0.766428 9.602854,-4.108229 13.628671,-7.378039 C 43.009713,22.240184 42.968633,11.119805 42.958133,0" sodipodi:nodetypes="cccccccc"></path><path style="fill:none;stroke:#000000;stroke-width:1px;stroke-linecap:butt;stroke-linejoin:miter;stroke-opacity:1" d="m 42.864633,33.21874 c 0.002,4.70339 0.0093,9.406728 0.02652,14.109966 0.02291,2.948714 0.633148,6.255295 3.106164,8.163435 2.523555,2.241886 6.069081,1.94741 9.196533,2.239896" id="g0s1" inkscape:label="g0s1"></path><path style="fill:none;stroke:#000000;stroke-width:1px;stroke-linecap:butt;stroke-linejoin:miter;stroke-opacity:1" d="m 10.675646,6.016761 c 2.559774,1.9582624 5.003219,4.067444 7.538298,6.059526 7.157666,5.776798 14.347065,11.515767 21.422614,17.39269 0.794348,0.627811 1.558616,1.293333 2.340004,1.937272" id="g0s2" inkscape:label="g0s2" sodipodi:nodetypes="ccccc"></path></g><g id="g1" inkscape:label="g1" transform="translate(9.1,-0.1)"><path style="display:inline" d="m 29.1,86.8 v 0 q -7.1,0 -11,-3.6 -3.9,-3.6 -3.9,-9.5 v 0 q 0,-5.4 4.1,-9.15 4.1,-3.75 12,-3.75 v 0 q 7.3,0 12.65,2.75 5.35,2.75 9.45,7.1 4.1,4.35 7.5,9.25 v 0 l -4.1,2.7 q -3.7,-5.1 -7.35,-8.95 -3.65,-3.85 -8,-6 Q 36.1,65.5 30.5,65.5 v 0 q -5.8,0 -8.55,2.35 -2.75,2.35 -2.75,5.95 v 0 q 0,4.2 2.7,6.15 2.7,1.95 6.9,1.95 v 0 q 2.7,0 4.95,-0.55 Q 36,80.8 38.2,79.8 v 0 l 1.7,4.8 q -2.6,1 -5.3,1.6 -2.7,0.6 -5.5,0.6 z" id="g1p0" inkscape:label="g1p0"></path><path style="display:inline;fill:none;stroke:#000000;stroke-width:1px;stroke-linecap:butt;stroke-linejoin:miter;stroke-opacity:1" d="m 39.156038,82.101726 c -2.559475,0.870519 -5.086907,1.981239 -7.823193,2.132839 -3.656068,0.346073 -7.630959,0.02382 -10.710525,-2.159471 -1.994947,-1.389787 -3.307503,-3.602927 -3.721038,-5.984024 -0.524339,-2.865919 -0.09409,-6.035968 1.795561,-8.342771 1.97195,-2.740177 5.319724,-4.087889 8.589416,-4.419381 5.402628,-0.588506 11.078052,0.234292 15.808321,3.017688 4.134381,2.336077 7.55606,5.727729 10.466774,9.443934 1.484877,1.838423 2.884191,3.743963 4.305828,5.631338" id="g1s0" inkscape:label="g1s0"></path></g></svg>