<svg xmlns="http://www.w3.org/2000/svg" xmlns:xlink="http://www.w3.org/1999/xlink" width="56.6" height="130.4"><path d="M26.40 72.90L26.40 72.90Q22.80 72.90 19.95 71.90Q17.10 70.90 15.20 69.10L15.20 69.10Q12.60 66.90 11.35 63.65Q10.10 60.40 10.10 55.50L10.10 55.50L10.10 44.90Q10.10 41.80 9.85 40.20Q9.60 38.60 8.80 37.50L8.80 37.50Q7.90 36.30 6.05 35.80Q4.20 35.30 0.90 35.30L0.90 35.30L1.50 30.30L2.10 30.30Q6 30.30 8.30 31.20Q10.60 32.10 13.60 34.40L13.60 34.40L33.60 50.40Q35.90 52.20 37.60 53.65Q39.30 55.10 41.10 56.70L41.10 56.70L41.10 29.40L46.40 30.10L46.40 75.50Q46.40 78.80 46.95 80.40Q47.50 82.00 48.80 83.00L48.80 83.00Q50 84.10 51.80 84.35Q53.60 84.60 56.10 84.60L56.10 84.60L55.50 89.60L54.60 89.60Q47.90 89.60 44.70 86.60L44.70 86.60Q42.90 85.00 42 82.50Q41.10 80 41.10 75.80L41.10 75.80L41.10 67.70Q38.20 70 34.55 71.45Q30.90 72.90 26.40 72.90ZM18.90 65.70L18.90 65.70Q21.60 68 26.80 68L26.80 68Q30.80 68 34.30 66.40Q37.80 64.80 41 61.90L41 61.90L24.50 48.60Q21.80 46.60 19.60 44.75Q17.40 42.90 14.60 40.30L14.60 40.30Q15.10 41.90 15.25 43.80Q15.40 45.70 15.40 48.10L15.40 48.10L15.40 55.20Q15.40 59.30 16.30 61.75Q17.20 64.20 18.90 65.70ZM44.30 24.30L44.30 24.30Q36.20 24.30 29.85 19.25Q23.50 14.20 17.20 5.30L17.20 5.30L21.40 2.60Q27.60 11.40 32.75 15.35Q37.90 19.30 44.30 19.30L44.30 19.30Q46.10 19.30 47.65 19Q49.20 18.70 50.50 18.30L50.50 18.30L52.10 23.10Q50.30 23.70 48.40 24Q46.50 24.30 44.30 24.30Z"/></svg>