<?xml version="1.0" encoding="UTF-8" standalone="no"?>
<svg
   width="55.200001"
   height="89.599998"
   version="1.1"
   id="svg2867"
   sodipodi:docname="7_shai.svg"
   inkscape:version="1.2.1 (9c6d41e410, 2022-07-14)"
   xmlns:inkscape="http://www.inkscape.org/namespaces/inkscape"
   xmlns:sodipodi="http://sodipodi.sourceforge.net/DTD/sodipodi-0.dtd"
   xmlns="http://www.w3.org/2000/svg"
   xmlns:svg="http://www.w3.org/2000/svg">
  <defs
     id="defs2871" />
  <sodipodi:namedview
     id="namedview2869"
     pagecolor="#ffffff"
     bordercolor="#666666"
     borderopacity="1.0"
     inkscape:showpageshadow="2"
     inkscape:pageopacity="0.0"
     inkscape:pagecheckerboard="0"
     inkscape:deskcolor="#d1d1d1"
     showgrid="false"
     inkscape:zoom="7.6668171"
     inkscape:cx="12.847574"
     inkscape:cy="35.868862"
     inkscape:window-width="1920"
     inkscape:window-height="1027"
     inkscape:window-x="-8"
     inkscape:window-y="-8"
     inkscape:window-maximized="1"
     inkscape:current-layer="svg2867" />
  <g
     id="g1656"
     inkscape:label="g1"
     transform="matrix(0.99821272,0,0,1,0.05823947,29.400472)">
    <path
       d="m 25.487313,43.5 v 0 q -3.606445,0 -6.461548,-1 -2.855103,-1 -4.758505,-2.8 v 0 Q 11.662605,37.5 10.410367,34.25 9.1581288,31 9.1581288,26.1 v 0 -10.6 q 0,-3.1 -0.2504477,-4.7 -0.2504476,-1.6 -1.05188,-2.7 v 0 Q 6.9541897,6.9 5.1008773,6.4 3.2475649,5.9 -0.05834375,5.9 v 0 l 0.60107429,-5 H 1.1438049 q 3.9069829,0 6.211101,0.9 Q 9.659024,2.7 12.664395,5 v 0 l 20.03581,16 q 2.304118,1.8 4.007162,3.25 1.703044,1.45 3.506266,3.05 v 0 V 0 l 5.30949,0.7 v 45.4 q 0,3.3 0.550985,4.9 0.550985,1.6 1.853312,2.6 v 0 q 1.202149,1.1 3.005372,1.35 1.803223,0.25 4.307699,0.25 v 0 l -0.601075,5 h -0.901611 q -6.711996,0 -9.917726,-3 v 0 q -1.803223,-1.6 -2.704834,-4.1 -0.901612,-2.5 -0.901612,-6.7 v 0 -8.1 q -2.905192,2.3 -6.561727,3.75 -3.656535,1.45 -8.164593,1.45 z m -7.513428,-7.2 v 0 q 2.704834,2.3 7.914145,2.3 v 0 q 4.007161,0 7.513428,-1.6 3.506267,-1.6 6.711996,-4.5 v 0 L 23.583911,19.2 q -2.704834,-2 -4.908773,-3.85 -2.203939,-1.85 -5.008952,-4.45 v 0 q 0.500895,1.6 0.651163,3.5 0.150269,1.9 0.150269,4.3 v 0 7.1 q 0,4.1 0.901611,6.55 0.901612,2.45 2.604656,3.95 z"
       id="path2-3"
       inkscape:label="p1"
       style="stroke-width:1.00089" />
    <path
       id="path280-5"
       style="fill:none;stroke:#000000;stroke-width:1px;stroke-linecap:butt;stroke-linejoin:miter;stroke-opacity:1"
       inkscape:label="s1"
       d="m -0.00610479,3.400367 c 0.95898592,0.1007442 1.92340429,0.1281516 2.88538459,0.1867969 3.1416742,0.027042 6.7607189,1.2654613 7.8566822,4.524933 1.570042,5.1792551 0.905682,10.6694661 1.130852,16.0024411 -0.06917,4.45855 0.05517,9.455437 3.2915,12.915229 3.4461,3.921374 9.211068,4.482963 14.077168,3.707641 5.290986,-0.766428 9.602854,-4.108229 13.628671,-7.378039 C 43.009713,22.240184 42.968633,11.119805 42.958133,0"
       sodipodi:nodetypes="cccccccc" />
    <path
       style="fill:none;stroke:#000000;stroke-width:1px;stroke-linecap:butt;stroke-linejoin:miter;stroke-opacity:1"
       d="m 42.864633,33.21874 c 0.002,4.70339 0.0093,9.406728 0.02652,14.109966 0.02291,2.948714 0.633148,6.255295 3.106164,8.163435 2.523555,2.241886 6.069081,1.94741 9.196533,2.239896"
       id="path328-9"
       inkscape:label="s2" />
    <path
       style="fill:none;stroke:#000000;stroke-width:1px;stroke-linecap:butt;stroke-linejoin:miter;stroke-opacity:1"
       d="m 10.675646,6.016761 c 2.559774,1.9582624 5.003219,4.067444 7.538298,6.059526 7.157666,5.776798 14.347065,11.515767 21.422614,17.39269 0.794348,0.627811 1.558616,1.293333 2.340004,1.937272"
       id="path284-0"
       inkscape:label="s3"
       sodipodi:nodetypes="ccccc" />
  </g>
  <g
     id="g522"
     inkscape:label="g2"
     transform="translate(9.1)">
    <path
       style="display:inline"
       d="M 30.8,23.7 28,26.6 Q 21.9,21.2 17.7,18.85 13.5,16.5 8.6,16.5 v 0 q -3.5,0 -6.4,0.9 v 0 L 0.7,12.7 Q 2.5,12.3 4.45,12 6.4,11.7 8.6,11.7 v 0 q 3.8,0 7.15,1.2 3.35,1.2 6.9,3.85 3.55,2.65 8.15,6.95 z"
       id="path513"
       inkscape:label="p2" />
    <path
       style="display:inline;fill:none;stroke:#000000;stroke-width:1px;stroke-linecap:butt;stroke-linejoin:miter;stroke-opacity:1"
       d="m 1.2484854,15.037068 c 2.0296352,-0.33742 4.0471341,-0.823273 6.106769,-0.926121 1.7144665,-0.03627 3.4419196,-0.0066 5.1213336,0.377952 1.626492,0.286246 3.200444,0.851561 4.696094,1.542318 3.239677,1.543111 6.000222,3.881137 8.751411,6.145612 1.177108,1.030396 2.354216,2.060791 3.531324,3.091187"
       id="path660"
       inkscape:label="s4" />
  </g>
  <g
     id="g526"
     inkscape:label="g3"
     transform="matrix(1,0,0,0.99097052,9.1,0)">
    <path
       style="display:inline"
       d="M 36.1,25.5 H 31.7 Q 29.8,17.7 27.95,13.15 26.1,8.6 23.65,6.7 21.2,4.8 17.4,4.8 v 0 Q 16.2,4.8 14.85,5 13.5,5.2 12,5.7 v 0 L 10.5,1.1 Q 12.4,0.5 14.2,0.25 16,0 17.7,0 v 0 q 4.6,0 7.95,2.25 3.35,2.25 5.85,7.8 2.5,5.55 4.6,15.45 z"
       id="path511"
       inkscape:label="p3" />
    <path
       style="display:inline;fill:none;stroke:#000000;stroke-width:1px;stroke-linecap:butt;stroke-linejoin:miter;stroke-opacity:1"
       d="m 11.023437,3.453125 c 2.182778,-0.4976057 4.36528,-1.1946393 6.631852,-1.0710196 2.053103,-0.044291 4.123749,0.4216957 5.902797,1.4638298 1.290672,0.6572076 2.43165,1.6018918 3.277933,2.7802163 1.787546,2.2624393 2.976329,4.9290225 3.905851,7.6409995 1.112879,3.208175 2.009172,6.487831 2.71558,9.809147 0.117031,0.515091 0.234062,1.030183 0.351093,1.545274"
       id="path662"
       inkscape:label="s5" />
  </g>
</svg>
