<svg xmlns="http://www.w3.org/2000/svg" xmlns:xlink="http://www.w3.org/1999/xlink" width="81.7" height="130.4">
    <path
        d="M26.40 72.90L26.40 72.90Q22.80 72.90 19.95 71.90Q17.10 70.90 15.20 69.10L15.20 69.10Q12.60 66.90 11.35 63.65Q10.10 60.40 10.10 55.50L10.10 55.50L10.10 44.90Q10.10 41.80 9.85 40.20Q9.60 38.60 8.80 37.50L8.80 37.50Q7.90 36.30 6.05 35.80Q4.20 35.30 0.90 35.30L0.90 35.30L1.50 30.30L2.10 30.30Q6 30.30 8.30 31.20Q10.60 32.10 13.60 34.40L13.60 34.40L33.60 50.40Q35.90 52.20 37.60 53.65Q39.30 55.10 41.10 56.70L41.10 56.70L41.10 29.40L46.40 30.10L46.40 75.50Q46.40 78.80 46.95 80.40Q47.50 82.00 48.80 83.00L48.80 83.00Q50 84.10 51.80 84.35Q53.60 84.60 56.10 84.60L56.10 84.60L55.50 89.60L54.60 89.60Q47.90 89.60 44.70 86.60L44.70 86.60Q42.90 85.00 42 82.50Q41.10 80 41.10 75.80L41.10 75.80L41.10 67.70Q38.20 70 34.55 71.45Q30.90 72.90 26.40 72.90ZM18.90 65.70L18.90 65.70Q21.60 68 26.80 68L26.80 68Q30.80 68 34.30 66.40Q37.80 64.80 41 61.90L41 61.90L24.50 48.60Q21.80 46.60 19.60 44.75Q17.40 42.90 14.60 40.30L14.60 40.30Q15.10 41.90 15.25 43.80Q15.40 45.70 15.40 48.10L15.40 48.10L15.40 55.20Q15.40 59.30 16.30 61.75Q17.20 64.20 18.90 65.70ZM80.70 89.60L79.70 89.60Q73.10 89.60 69.80 86.60L69.80 86.60Q68 85.00 67.15 82.50Q66.30 80 66.30 75.80L66.30 75.80L66.30 29.30L71.60 30.00L71.60 75.50Q71.60 78.80 72.10 80.40Q72.60 82.00 73.90 83.00L73.90 83.00Q75.10 84.10 76.95 84.35Q78.80 84.60 81.20 84.60L81.20 84.60L80.70 89.60ZM71.20 25.50L66.80 25.50Q64.90 17.70 63.05 13.15Q61.20 8.60 58.75 6.70Q56.30 4.80 52.50 4.80L52.50 4.80Q51.30 4.80 49.95 5Q48.60 5.20 47.10 5.70L47.10 5.70L45.60 1.10Q47.50 0.50 49.30 0.25Q51.10 0 52.80 0L52.80 0Q57.40 0 60.75 2.25Q64.10 4.50 66.60 10.05Q69.10 15.60 71.20 25.50L71.20 25.50ZM65.90 23.70L63.10 26.60Q57 21.20 52.80 18.85Q48.60 16.50 43.70 16.50L43.70 16.50Q40.20 16.50 37.30 17.40L37.30 17.40L35.80 12.70Q37.60 12.30 39.55 12Q41.50 11.70 43.70 11.70L43.70 11.70Q47.50 11.70 50.85 12.90Q54.20 14.10 57.75 16.75Q61.30 19.40 65.90 23.70L65.90 23.70Z" />
      <g
     id="g605"
     inkscape:label="g2">
    <path
       style="display:inline"
       d="m 70.7,89.6 h -1 q -6.6,0 -9.9,-3 v 0 Q 58,85 57.15,82.5 56.3,80 56.3,75.8 v 0 -46.5 l 5.3,0.7 v 45.5 q 0,3.3 0.5,4.9 0.5,1.6 1.8,2.6 v 0 q 1.2,1.1 3.05,1.35 1.85,0.25 4.25,0.25 v 0 z"
       id="path592"
       inkscape:label="p2" />
    <path
       style="display:inline;fill:none;stroke:#000000;stroke-width:1px;stroke-linecap:butt;stroke-linejoin:miter;stroke-opacity:1"
       d="m 58.945814,29.339077 c 0.0052,15.660703 -0.0419,31.322813 -0.004,46.982637 0.07316,2.661925 0.300705,5.531206 2.06529,7.674603 1.94562,2.285428 5.076188,2.956219 7.950186,3.001875 0.734456,0.05113 1.468913,0.102253 2.203369,0.15338"
       id="path81"
       inkscape:label="s3" />
  </g>
  <g
     id="g609"
     inkscape:label="g3">
    <path
       style="display:inline"
       d="m 55.9,23.7 -2.8,2.9 Q 47,21.2 42.8,18.85 38.6,16.5 33.7,16.5 v 0 q -3.5,0 -6.4,0.9 v 0 l -1.5,-4.7 q 1.8,-0.4 3.75,-0.7 1.95,-0.3 4.15,-0.3 v 0 q 3.8,0 7.15,1.2 3.35,1.2 6.9,3.85 3.55,2.65 8.15,6.95 z"
       id="path596"
       inkscape:label="p3" />
    <path
       style="display:inline;fill:none;stroke:#000000;stroke-width:1px;stroke-linecap:butt;stroke-linejoin:miter;stroke-opacity:1"
       d="m 26.306582,15.114407 c 2.688785,-0.568456 5.416241,-1.1935 8.183739,-0.988483 1.810938,0.02306 3.595689,0.410136 5.328375,0.908621 1.446215,0.495326 2.860202,1.115629 4.178036,1.890495 3.847011,2.308963 7.136989,5.387765 10.538424,8.281996"
       id="path905"
       inkscape:label="s4" />
  </g>
  <g
     id="g613"
     inkscape:label="g4">
    <path
       style="display:inline"
       d="M 61.2,25.5 H 56.8 Q 54.9,17.7 53.05,13.15 51.2,8.6 48.75,6.7 46.3,4.8 42.5,4.8 v 0 Q 41.3,4.8 39.95,5 38.6,5.2 37.1,5.7 v 0 L 35.6,1.1 Q 37.5,0.5 39.3,0.25 41.1,0 42.8,0 v 0 q 4.6,0 7.95,2.25 3.35,2.25 5.85,7.8 2.5,5.55 4.6,15.45 z"
       id="path594"
       inkscape:label="p4" />
    <path
       style="display:inline;fill:none;stroke:#000000;stroke-width:1px;stroke-linecap:butt;stroke-linejoin:miter;stroke-opacity:1"
       d="m 36.195028,3.4913397 2.773185,-0.7181553 0.82864,-0.1767767 0.806544,-0.099437 1.138,-0.088388 h 0.905981 l 1.027514,0.033146 0.983321,0.121534 0.872835,0.1325825 1.237436,0.2872621 1.071709,0.4198447 1.347922,0.6960582 1.016466,0.6960583 0.696059,0.5966213 0.82864,0.9612233 0.950175,1.2042912 0.839689,1.3368738 0.806544,1.6130879 0.651864,1.425262 0.662913,1.635184 0.53033,1.679379 0.50108,1.557697 0.367187,1.382813 0.5,1.734375 0.453125,1.757812 1.007035,3.936361"
       id="path970"
       inkscape:label="s5" />
  </g>
    <path id="path280"
        style="fill:none;stroke:#000000;stroke-width:1px;stroke-linecap:butt;stroke-linejoin:miter;stroke-opacity:1"
        inkscape:label="s1"
        d="m -0.00610479,3.400367 c 0.95898592,0.1007442 1.92340429,0.1281516 2.88538459,0.1867969 3.1416742,0.027042 6.7607189,1.2654613 7.8566822,4.524933 1.570042,5.1792551 0.905682,10.6694661 1.130852,16.0024411 -0.06917,4.45855 0.05517,9.455437 3.2915,12.915229 3.4461,3.921374 9.211068,4.482963 14.077168,3.707641 5.290986,-0.766428 9.602854,-4.108229 13.628671,-7.378039 C 43.009713,22.240184 42.968633,11.119805 42.958133,0"
        sodipodi:nodetypes="cccccccc" />
    <path style="fill:none;stroke:#000000;stroke-width:1px;stroke-linecap:butt;stroke-linejoin:miter;stroke-opacity:1"
        d="m 42.864633,33.21874 c 0.002,4.70339 0.0093,9.406728 0.02652,14.109966 0.02291,2.948714 0.633148,6.255295 3.106164,8.163435 2.523555,2.241886 6.069081,1.94741 9.196533,2.239896"
        id="path328" inkscape:label="s2" />
    <path style="fill:none;stroke:#000000;stroke-width:1px;stroke-linecap:butt;stroke-linejoin:miter;stroke-opacity:1"
        d="m 10.675646,6.016761 c 2.559774,1.9582624 5.003219,4.067444 7.538298,6.059526 7.157666,5.776798 14.347065,11.515767 21.422614,17.39269 0.794348,0.627811 1.558616,1.293333 2.340004,1.937272"
        id="path284" inkscape:label="s3" sodipodi:nodetypes="ccccc" />
</svg>