<svg xmlns="http://www.w3.org/2000/svg" xmlns:xlink="http://www.w3.org/1999/xlink" width="81.7" height="130.4"><path d="M26.40 72.90L26.40 72.90Q22.80 72.90 19.95 71.90Q17.10 70.90 15.20 69.10L15.20 69.10Q12.60 66.90 11.35 63.65Q10.10 60.40 10.10 55.50L10.10 55.50L10.10 44.90Q10.10 41.80 9.85 40.20Q9.60 38.60 8.80 37.50L8.80 37.50Q7.90 36.30 6.05 35.80Q4.20 35.30 0.90 35.30L0.90 35.30L1.50 30.30L2.10 30.30Q6 30.30 8.30 31.20Q10.60 32.10 13.60 34.40L13.60 34.40L33.60 50.40Q35.90 52.20 37.60 53.65Q39.30 55.10 41.10 56.70L41.10 56.70L41.10 29.40L46.40 30.10L46.40 75.50Q46.40 78.80 46.95 80.40Q47.50 82.00 48.80 83.00L48.80 83.00Q50 84.10 51.80 84.35Q53.60 84.60 56.10 84.60L56.10 84.60L55.50 89.60L54.60 89.60Q47.90 89.60 44.70 86.60L44.70 86.60Q42.90 85.00 42 82.50Q41.10 80 41.10 75.80L41.10 75.80L41.10 67.70Q38.20 70 34.55 71.45Q30.90 72.90 26.40 72.90ZM18.90 65.70L18.90 65.70Q21.60 68 26.80 68L26.80 68Q30.80 68 34.30 66.40Q37.80 64.80 41 61.90L41 61.90L24.50 48.60Q21.80 46.60 19.60 44.75Q17.40 42.90 14.60 40.30L14.60 40.30Q15.10 41.90 15.25 43.80Q15.40 45.70 15.40 48.10L15.40 48.10L15.40 55.20Q15.40 59.30 16.30 61.75Q17.20 64.20 18.90 65.70ZM80.70 89.60L79.70 89.60Q73.10 89.60 69.80 86.60L69.80 86.60Q68 85.00 67.15 82.50Q66.30 80 66.30 75.80L66.30 75.80L66.30 29.30L71.60 30.00L71.60 75.50Q71.60 78.80 72.10 80.40Q72.60 82.00 73.90 83.00L73.90 83.00Q75.10 84.10 76.95 84.35Q78.80 84.60 81.20 84.60L81.20 84.60L80.70 89.60ZM71.20 25.50L66.80 25.50Q64.90 17.70 63.05 13.15Q61.20 8.60 58.75 6.70Q56.30 4.80 52.50 4.80L52.50 4.80Q51.30 4.80 49.95 5Q48.60 5.20 47.10 5.70L47.10 5.70L45.60 1.10Q47.50 0.50 49.30 0.25Q51.10 0 52.80 0L52.80 0Q57.40 0 60.75 2.25Q64.10 4.50 66.60 10.05Q69.10 15.60 71.20 25.50L71.20 25.50ZM65.90 23.70L63.10 26.60Q57 21.20 52.80 18.85Q48.60 16.50 43.70 16.50L43.70 16.50Q40.20 16.50 37.30 17.40L37.30 17.40L35.80 12.70Q37.60 12.30 39.55 12Q41.50 11.70 43.70 11.70L43.70 11.70Q47.50 11.70 50.85 12.90Q54.20 14.10 57.75 16.75Q61.30 19.40 65.90 23.70L65.90 23.70Z"/></svg>