<?xml version="1.0" encoding="UTF-8" standalone="no"?><svg width="62.599998" height="105.5" version="1.1" id="svg264" sodipodi:docname="2_fi.svg" inkscape:version="1.2.1 (9c6d41e410, 2022-07-14)" xmlns:inkscape="http://www.inkscape.org/namespaces/inkscape" xmlns:sodipodi="http://sodipodi.sourceforge.net/DTD/sodipodi-0.dtd" xmlns="http://www.w3.org/2000/svg" xmlns:svg="http://www.w3.org/2000/svg"><defs id="defs268"></defs><sodipodi:namedview id="namedview266" pagecolor="#ffffff" bordercolor="#666666" borderopacity="1.0" inkscape:showpageshadow="2" inkscape:pageopacity="0.0" inkscape:pagecheckerboard="0" inkscape:deskcolor="#d1d1d1" showgrid="false" inkscape:zoom="1.809816" inkscape:cx="27.350846" inkscape:cy="64.647455" inkscape:window-width="1920" inkscape:window-height="1027" inkscape:window-x="-8" inkscape:window-y="-8" inkscape:window-maximized="1" inkscape:current-layer="svg264"></sodipodi:namedview><g id="g0" inkscape:label="g0" transform="translate(19.2,28.7)"><path d="M 20.6,31 2,37.8 0.2,33.1 15.6,27.6 Q 11.5,24.8 8.8,21.55 6.1,18.3 6.1,13.6 v 0 Q 6.1,7.5 10.6,3.75 15.1,0 22.8,0 v 0 q 3.1,0 5.85,0.4 2.75,0.4 5.55,1 v 0 l -1,4.9 Q 30.6,5.7 28.3,5.35 26,5 23.3,5 v 0 q -5.8,0 -8.8,2.35 -3,2.35 -3,6.55 v 0 q 0,3.6 2.6,6.35 2.6,2.75 7,5.35 v 0 l 20.3,-7.4 2,4.7 -17.3,6.1 q 5.5,3.4 9.1,7.45 3.6,4.05 3.6,9.95 v 0 q 0,3.9 -1.95,7.3 -1.95,3.4 -6,5.5 -4.05,2.1 -10.45,2.1 v 0 q -2.2,0 -4.7,-0.2 v 0 q 4,5.7 7.75,8.2 3.75,2.5 8.95,2.5 v 0 h 2.3 l -0.6,5 H 32.4 Q 24.7,76.8 19.65,72.55 14.6,68.3 9.7,60.4 v 0 Q 4.9,59.6 2.45,57.55 0,55.5 0,53.2 v 0 q 0,-1.8 1.2,-2.85 1.2,-1.05 3,-1.05 v 0 q 2.6,0 4.8,1.7 2.2,1.7 4.2,4.6 v 0 q 3.1,0.8 7.1,0.8 v 0 q 6.5,0 9.75,-2.8 3.25,-2.8 3.25,-7.3 v 0 q 0,-4.5 -3.25,-8.05 Q 26.8,34.7 20.6,31 Z" id="g0p0" inkscape:label="g0p0"></path><path id="g0s0" style="fill:none;stroke:#000000;stroke-width:1px;stroke-linecap:butt;stroke-linejoin:miter;stroke-opacity:1" d="M 33.679183,3.9541312 C 27.392336,2.4204307 20.296177,1.3728146 14.276356,4.3793476 10.182246,6.4568439 8.0624781,11.328626 8.9790833,15.768098 c 0.7809119,4.930596 5.2851387,7.919 9.0163417,10.637411 5.705715,3.99691 12.41813,7.222258 16.297048,13.25583 3.421684,5.482817 1.852452,13.664301 -3.93393,16.897433 -5.31554,3.144396 -11.724046,2.212655 -17.586265,1.916778 C 10.418433,58.226387 7.984237,58.10662 5.8471596,56.957036 4.191871,56.251295 2.2911025,54.965137 2.1876116,52.999863 c 0.236352,-1.732027 2.4329789,-1.658378 3.6989045,-1.187705 2.372271,0.999433 4.3387999,2.969562 5.4161439,5.231482 1.525198,3.202206 2.929964,6.499725 5.36283,9.11513 3.11343,3.75685 7.125454,7.22864 12.157085,7.822544 1.836641,0.326403 3.70454,0.321524 5.560238,0.428843" sodipodi:nodetypes="ccccccccccsccc" inkscape:label="g0s0"></path><path style="fill:none;stroke:#000000;stroke-width:1px;stroke-linecap:butt;stroke-linejoin:miter;stroke-opacity:1" d="M 42.390625,20.539062 1.0963158,35.45368" id="g0s1" sodipodi:nodetypes="cc" inkscape:label="g0s1"></path></g><g id="g1" inkscape:label="g1"><path style="display:inline" d="M 14.3,89 H 13.4 Q 10.3,89 7.8,88.35 5.3,87.7 3.5,86 v 0 Q 1.6,84.3 0.8,81.8 0,79.3 0,75.2 v 0 -53.4 Q 0,15.2 1.35,11.1 2.7,7 6.1,4.1 v 0 Q 8.3,2.2 11.45,1.1 14.6,0 18.7,0 V 0 Q 27.8,0 35.05,5.25 42.3,10.5 49.6,19 v 0 l -3.9,3.1 Q 39.3,14.5 32.95,9.7 26.6,4.9 19,4.9 v 0 q -5.9,0 -9.3,2.9 v 0 q -2.4,2.1 -3.4,5.6 -1,3.5 -1,10.1 v 0 51.4 q 0,3.2 0.5,4.85 0.5,1.65 1.7,2.55 v 0 q 1.2,1.2 3.15,1.45 Q 12.6,84 14.9,84 v 0 z" id="g1p0" inkscape:label="g1p0"></path><path style="display:inline;fill:none;stroke:#000000;stroke-width:1px;stroke-linecap:butt;stroke-linejoin:miter;stroke-opacity:1" d="M 47.652368,20.738116 C 42.912163,15.169343 37.771996,9.7590782 31.535156,5.8554687 25.556372,2.3479405 17.925665,1.3282836 11.384063,3.8090168 7.098823,5.5445734 4.0571601,9.6376118 3.3691387,14.177325 2.2636698,19.814013 2.8760079,25.587166 2.7106596,31.290784 c 0.017146,15.362435 -0.08206,30.727062 0.00809,46.088122 0.1319749,2.783277 1.0109143,5.743286 3.4696807,7.348394 2.457118,1.869621 5.6943627,1.540296 8.5928207,1.741457" id="g1s0" inkscape:label="g1s0"></path></g></svg>