<svg xmlns="http://www.w3.org/2000/svg" xmlns:xlink="http://www.w3.org/1999/xlink" width="72.2" height="130.4"><path d="M26.90 90.60L26.90 90.60Q16 90.60 10.45 85.95Q4.90 81.30 4.90 73.30L4.90 73.30Q4.90 66.70 8.65 62.60Q12.40 58.50 19.30 54.70L19.30 54.70L23.80 52.10Q29.40 49.10 31.45 46.90Q33.50 44.70 33.50 41.50L33.50 41.50Q33.50 34.20 23.60 34.20L23.60 34.20Q20.50 34.20 17.55 34.90Q14.60 35.60 11.80 36.70L11.80 36.70L10.10 32.10Q13.20 30.90 16.55 30.10Q19.90 29.30 23.80 29.30L23.80 29.30Q31.30 29.30 35.10 32.65Q38.90 36.00 38.90 41.40L38.90 41.40Q38.90 46.80 35.55 50.10Q32.20 53.40 26 56.80L26 56.80L21.70 59.20Q16.10 62.30 13.20 65.35Q10.30 68.40 10.30 73.40L10.30 73.40Q10.30 78.90 13.90 82.15Q17.50 85.40 24.70 85.80L24.70 85.80Q23.40 83.50 22.75 81.15Q22.10 78.80 22.10 75.90L22.10 75.90Q22.10 70.60 25.70 67.20Q29.30 63.80 35 63.80L35 63.80Q40.40 63.80 43.85 66.95Q47.30 70.10 47.30 75.90L47.30 75.90Q47.30 82.30 42.35 86.45Q37.40 90.60 26.90 90.60ZM27.10 76.80L27.10 76.80Q27.10 79.30 27.80 81.40Q28.50 83.50 29.90 85.80L29.90 85.80Q35.50 85.40 38.85 82.85Q42.20 80.30 42.20 75.90L42.20 75.90Q42.20 72.30 40.20 70.45Q38.20 68.60 35.20 68.60L35.20 68.60Q31.40 68.60 29.25 70.90Q27.10 73.20 27.10 76.80ZM61.00 51.30L61.00 51.30Q59.20 51.30 57.80 49.95Q56.40 48.60 56.40 46.20L56.40 46.20Q56.40 43.80 57.75 42.45Q59.10 41.10 61.00 41.10L61.00 41.10Q63.00 41.10 64.30 42.45Q65.60 43.80 65.60 46.20L65.60 46.20Q65.60 48.70 64.25 50.00Q62.90 51.30 61.00 51.30ZM61.00 84.60L61.00 84.60Q59.20 84.60 57.80 83.25Q56.40 81.90 56.40 79.50L56.40 79.50Q56.40 77.10 57.75 75.75Q59.10 74.40 61.00 74.40L61.00 74.40Q63.00 74.40 64.30 75.75Q65.60 77.10 65.60 79.50L65.60 79.50Q65.60 82.00 64.25 83.30Q62.90 84.60 61.00 84.60Z"/></svg>