<svg xmlns="http://www.w3.org/2000/svg" xmlns:xlink="http://www.w3.org/1999/xlink" width="74.9" height="130.4"><path d="M24 89.60L23.10 89.60Q20 89.60 17.50 88.95Q15 88.30 13.20 86.60L13.20 86.60Q11.30 84.90 10.50 82.40Q9.70 79.90 9.70 75.80L9.70 75.80L9.70 22.40Q9.70 15.80 11.05 11.70Q12.40 7.60 15.80 4.70L15.80 4.70Q18 2.80 21.15 1.70Q24.30 0.60 28.40 0.60L28.40 0.60Q37.50 0.60 44.75 5.85Q52 11.10 59.30 19.60L59.30 19.60L55.40 22.70Q49 15.10 42.65 10.30Q36.30 5.50 28.70 5.50L28.70 5.50Q22.80 5.50 19.40 8.40L19.40 8.40Q17 10.50 16 14Q15 17.50 15 24.10L15 24.10L15 75.50Q15 78.70 15.50 80.35Q16 82.00 17.20 82.90L17.20 82.90Q18.40 84.10 20.35 84.35Q22.30 84.60 24.60 84.60L24.60 84.60L24 89.60ZM52 90.60L52 90.60Q41.10 90.60 35.55 85.95Q30 81.30 30 73.30L30 73.30Q30 66.70 33.75 62.60Q37.50 58.50 44.40 54.70L44.40 54.70L48.90 52.10Q54.50 49.10 56.55 46.90Q58.60 44.70 58.60 41.50L58.60 41.50Q58.60 34.20 48.70 34.20L48.70 34.20Q45.60 34.20 42.65 34.90Q39.70 35.60 36.90 36.70L36.90 36.70L35.20 32.10Q38.30 30.90 41.65 30.10Q45 29.30 48.90 29.30L48.90 29.30Q56.40 29.30 60.20 32.65Q64 36.00 64 41.40L64 41.40Q64 46.80 60.65 50.10Q57.30 53.40 51.10 56.80L51.10 56.80L46.80 59.20Q41.20 62.30 38.30 65.35Q35.40 68.40 35.40 73.40L35.40 73.40Q35.40 78.90 39 82.15Q42.60 85.40 49.80 85.80L49.80 85.80Q48.50 83.50 47.85 81.15Q47.20 78.80 47.20 75.90L47.20 75.90Q47.20 70.60 50.80 67.20Q54.40 63.80 60.10 63.80L60.10 63.80Q65.50 63.80 68.95 66.95Q72.40 70.10 72.40 75.90L72.40 75.90Q72.40 82.30 67.45 86.45Q62.50 90.60 52 90.60ZM52.20 76.80L52.20 76.80Q52.20 79.30 52.90 81.40Q53.60 83.50 55 85.80L55 85.80Q60.60 85.40 63.95 82.85Q67.30 80.30 67.30 75.90L67.30 75.90Q67.30 72.30 65.30 70.45Q63.30 68.60 60.30 68.60L60.30 68.60Q56.50 68.60 54.35 70.90Q52.20 73.20 52.20 76.80Z"/></svg>