<svg xmlns="http://www.w3.org/2000/svg" xmlns:xlink="http://www.w3.org/1999/xlink" width="49.800000000000004" height="130.4"><path d="M26.90 90.60L26.90 90.60Q16 90.60 10.45 85.95Q4.90 81.30 4.90 73.30L4.90 73.30Q4.90 66.70 8.65 62.60Q12.40 58.50 19.30 54.70L19.30 54.70L23.80 52.10Q29.40 49.10 31.45 46.90Q33.50 44.70 33.50 41.50L33.50 41.50Q33.50 34.20 23.60 34.20L23.60 34.20Q20.50 34.20 17.55 34.90Q14.60 35.60 11.80 36.70L11.80 36.70L10.10 32.10Q13.20 30.90 16.55 30.10Q19.90 29.30 23.80 29.30L23.80 29.30Q31.30 29.30 35.10 32.65Q38.90 36.00 38.90 41.40L38.90 41.40Q38.90 46.80 35.55 50.10Q32.20 53.40 26 56.80L26 56.80L21.70 59.20Q16.10 62.30 13.20 65.35Q10.30 68.40 10.30 73.40L10.30 73.40Q10.30 78.90 13.90 82.15Q17.50 85.40 24.70 85.80L24.70 85.80Q23.40 83.50 22.75 81.15Q22.10 78.80 22.10 75.90L22.10 75.90Q22.10 70.60 25.70 67.20Q29.30 63.80 35 63.80L35 63.80Q40.40 63.80 43.85 66.95Q47.30 70.10 47.30 75.90L47.30 75.90Q47.30 82.30 42.35 86.45Q37.40 90.60 26.90 90.60ZM27.10 76.80L27.10 76.80Q27.10 79.30 27.80 81.40Q28.50 83.50 29.90 85.80L29.90 85.80Q35.50 85.40 38.85 82.85Q42.20 80.30 42.20 75.90L42.20 75.90Q42.20 72.30 40.20 70.45Q38.20 68.60 35.20 68.60L35.20 68.60Q31.40 68.60 29.25 70.90Q27.10 73.20 27.10 76.80ZM32.30 116.10L32.30 116.10Q25.20 116.10 21.30 112.50Q17.40 108.90 17.40 103.00L17.40 103.00Q17.40 97.60 21.50 93.85Q25.60 90.10 33.50 90.10L33.50 90.10Q40.80 90.10 46.15 92.85Q51.50 95.60 55.60 99.95Q59.70 104.30 63.10 109.20L63.10 109.20L59.00 111.90Q55.30 106.80 51.65 102.95Q48.00 99.10 43.65 96.95Q39.30 94.80 33.70 94.80L33.70 94.80Q27.90 94.80 25.15 97.15Q22.40 99.50 22.40 103.10L22.40 103.10Q22.40 107.30 25.10 109.25Q27.80 111.20 32 111.20L32 111.20Q34.70 111.20 36.95 110.65Q39.20 110.10 41.40 109.10L41.40 109.10L43.10 113.90Q40.50 114.90 37.80 115.50Q35.10 116.10 32.30 116.10Z"/></svg>