<svg xmlns="http://www.w3.org/2000/svg" xmlns:xlink="http://www.w3.org/1999/xlink" width="49.800000000000004" height="130.4"><path d="M26.90 90.60L26.90 90.60Q16 90.60 10.45 85.95Q4.90 81.30 4.90 73.30L4.90 73.30Q4.90 66.70 8.65 62.60Q12.40 58.50 19.30 54.70L19.30 54.70L23.80 52.10Q29.40 49.10 31.45 46.90Q33.50 44.70 33.50 41.50L33.50 41.50Q33.50 34.20 23.60 34.20L23.60 34.20Q20.50 34.20 17.55 34.90Q14.60 35.60 11.80 36.70L11.80 36.70L10.10 32.10Q13.20 30.90 16.55 30.10Q19.90 29.30 23.80 29.30L23.80 29.30Q31.30 29.30 35.10 32.65Q38.90 36.00 38.90 41.40L38.90 41.40Q38.90 46.80 35.55 50.10Q32.20 53.40 26 56.80L26 56.80L21.70 59.20Q16.10 62.30 13.20 65.35Q10.30 68.40 10.30 73.40L10.30 73.40Q10.30 78.90 13.90 82.15Q17.50 85.40 24.70 85.80L24.70 85.80Q23.40 83.50 22.75 81.15Q22.10 78.80 22.10 75.90L22.10 75.90Q22.10 70.60 25.70 67.20Q29.30 63.80 35 63.80L35 63.80Q40.40 63.80 43.85 66.95Q47.30 70.10 47.30 75.90L47.30 75.90Q47.30 82.30 42.35 86.45Q37.40 90.60 26.90 90.60ZM27.10 76.80L27.10 76.80Q27.10 79.30 27.80 81.40Q28.50 83.50 29.90 85.80L29.90 85.80Q35.50 85.40 38.85 82.85Q42.20 80.30 42.20 75.90L42.20 75.90Q42.20 72.30 40.20 70.45Q38.20 68.60 35.20 68.60L35.20 68.60Q31.40 68.60 29.25 70.90Q27.10 73.20 27.10 76.80ZM39.30 25.50L34.90 25.50Q33 17.70 31.15 13.15Q29.30 8.60 26.85 6.70Q24.40 4.80 20.60 4.80L20.60 4.80Q19.40 4.80 18.05 5Q16.70 5.20 15.20 5.70L15.20 5.70L13.70 1.10Q15.60 0.50 17.40 0.25Q19.20 0 20.90 0L20.90 0Q25.50 0 28.85 2.25Q32.20 4.50 34.70 10.05Q37.20 15.60 39.30 25.50L39.30 25.50ZM34 23.70L31.20 26.60Q25.10 21.20 20.90 18.85Q16.70 16.50 11.80 16.50L11.80 16.50Q8.30 16.50 5.40 17.40L5.40 17.40L3.90 12.70Q5.70 12.30 7.65 12Q9.60 11.70 11.80 11.70L11.80 11.70Q15.60 11.70 18.95 12.90Q22.30 14.10 25.85 16.75Q29.40 19.40 34 23.70L34 23.70Z"/></svg>