<svg xmlns="http://www.w3.org/2000/svg" xmlns:xlink="http://www.w3.org/1999/xlink" width="74.9" height="130.4"><path d="M26.90 90.60L26.90 90.60Q16 90.60 10.45 85.95Q4.90 81.30 4.90 73.30L4.90 73.30Q4.90 66.70 8.65 62.60Q12.40 58.50 19.30 54.70L19.30 54.70L23.80 52.10Q29.40 49.10 31.45 46.90Q33.50 44.70 33.50 41.50L33.50 41.50Q33.50 34.20 23.60 34.20L23.60 34.20Q20.50 34.20 17.55 34.90Q14.60 35.60 11.80 36.70L11.80 36.70L10.10 32.10Q13.20 30.90 16.55 30.10Q19.90 29.30 23.80 29.30L23.80 29.30Q31.30 29.30 35.10 32.65Q38.90 36.00 38.90 41.40L38.90 41.40Q38.90 46.80 35.55 50.10Q32.20 53.40 26 56.80L26 56.80L21.70 59.20Q16.10 62.30 13.20 65.35Q10.30 68.40 10.30 73.40L10.30 73.40Q10.30 78.90 13.90 82.15Q17.50 85.40 24.70 85.80L24.70 85.80Q23.40 83.50 22.75 81.15Q22.10 78.80 22.10 75.90L22.10 75.90Q22.10 70.60 25.70 67.20Q29.30 63.80 35 63.80L35 63.80Q40.40 63.80 43.85 66.95Q47.30 70.10 47.30 75.90L47.30 75.90Q47.30 82.30 42.35 86.45Q37.40 90.60 26.90 90.60ZM27.10 76.80L27.10 76.80Q27.10 79.30 27.80 81.40Q28.50 83.50 29.90 85.80L29.90 85.80Q35.50 85.40 38.85 82.85Q42.20 80.30 42.20 75.90L42.20 75.90Q42.20 72.30 40.20 70.45Q38.20 68.60 35.20 68.60L35.20 68.60Q31.40 68.60 29.25 70.90Q27.10 73.20 27.10 76.80ZM73.90 89.60L72.90 89.60Q66.30 89.60 63.00 86.60L63.00 86.60Q61.20 85.00 60.35 82.50Q59.50 80 59.50 75.80L59.50 75.80L59.50 29.30L64.80 30.00L64.80 75.50Q64.80 78.80 65.30 80.40Q65.80 82.00 67.10 83.00L67.10 83.00Q68.30 84.10 70.15 84.35Q72 84.60 74.40 84.60L74.40 84.60L73.90 89.60ZM64.40 25.50L60.00 25.50Q58.10 17.70 56.25 13.15Q54.40 8.60 51.95 6.70Q49.50 4.80 45.70 4.80L45.70 4.80Q44.50 4.80 43.15 5Q41.80 5.20 40.30 5.70L40.30 5.70L38.80 1.10Q40.70 0.50 42.50 0.25Q44.30 0 46.00 0L46.00 0Q50.60 0 53.95 2.25Q57.30 4.50 59.80 10.05Q62.30 15.60 64.40 25.50L64.40 25.50ZM59.10 23.70L56.30 26.60Q50.20 21.20 46.00 18.85Q41.80 16.50 36.90 16.50L36.90 16.50Q33.40 16.50 30.50 17.40L30.50 17.40L29.00 12.70Q30.80 12.30 32.75 12Q34.70 11.70 36.90 11.70L36.90 11.70Q40.70 11.70 44.05 12.90Q47.40 14.10 50.95 16.75Q54.50 19.40 59.10 23.70L59.10 23.70Z"/></svg>