<?xml version="1.0" encoding="UTF-8" standalone="no"?><svg width="69.5" height="87" version="1.1" id="svg561" sodipodi:docname="4_lu.svg" inkscape:version="1.2.1 (9c6d41e410, 2022-07-14)" xmlns:inkscape="http://www.inkscape.org/namespaces/inkscape" xmlns:sodipodi="http://sodipodi.sourceforge.net/DTD/sodipodi-0.dtd" xmlns="http://www.w3.org/2000/svg" xmlns:svg="http://www.w3.org/2000/svg"><defs id="defs565"></defs><sodipodi:namedview id="namedview563" pagecolor="#ffffff" bordercolor="#666666" borderopacity="1.0" inkscape:showpageshadow="2" inkscape:pageopacity="0.0" inkscape:pagecheckerboard="0" inkscape:deskcolor="#d1d1d1" showgrid="false" inkscape:zoom="1.809816" inkscape:cx="31.771185" inkscape:cy="35.915253" inkscape:window-width="1920" inkscape:window-height="1027" inkscape:window-x="-8" inkscape:window-y="-8" inkscape:window-maximized="1" inkscape:current-layer="svg561"></sodipodi:namedview><g id="g0" inkscape:label="g0" transform="scale(0.99933555,1)"><path d="m 67.54488,60.3 h -1.000665 q -6.704454,0 -9.906582,-3 v 0 q -1.801197,-1.6 -2.651762,-4.1 -0.850565,-2.5 -0.850565,-6.7 v 0 -27.1 q 0,-4.6 -0.600399,-7.1 -0.600399,-2.5 -2.00133,-4 v 0 Q 48.432181,5.8 44.529588,5.8 v 0 q -3.70246,0 -6.00399,2.5 v 0 q -1.400931,1.5 -1.951296,3.85 -0.550366,2.35 -0.550366,6.65 v 0 6.3 q 0,5 -1.000665,8.85 -1.000665,3.85 -3.70246,6.65 v 0 q -2.101396,2.4 -5.353557,3.7 -3.252161,1.3 -7.655086,1.3 v 0 Q 10.206782,45.6 5.1033909,40.15 0,34.7 0,25.4 v 0 Q 0,8.2 20.613697,0 v 0 l 1.801197,4.9 q -8.905918,3.5 -12.9085775,8.7 -4.0026596,5.2 -4.0026596,12 v 0 q 0,7.6 3.7024601,11.35 3.70246,3.75 9.005984,3.75 v 0 q 3.202128,0 5.503657,-1 2.301529,-1 3.902593,-2.8 v 0 q 1.601064,-1.8 2.351563,-4.4 0.750498,-2.6 0.750498,-6.7 v 0 -7.8 q 0,-3.9 0.700466,-7.3 0.700465,-3.4 3.40226,-6.1 v 0 Q 36.524269,2.9 38.975898,1.95 41.427527,1 44.529588,1 v 0 q 3.202127,0 5.70379,1 2.501662,1 4.202792,2.8 v 0 q 2.101396,2.2 3.052028,5.05 0.950632,2.85 0.950632,8.25 v 0 28.1 q 0,3.2 0.500332,4.85 0.500333,1.65 1.70113,2.55 v 0 q 1.200798,1.2 3.152095,1.45 1.951296,0.25 4.252826,0.25 v 0 z" id="g0p0" inkscape:label="g0p0" style="stroke-width:1.00033"></path><path style="fill:none;stroke:#000000;stroke-width:1px;stroke-linecap:butt;stroke-linejoin:miter;stroke-opacity:1" d="M 21.531588,2.5334871 C 15.027476,5.1748991 8.4166038,9.0169177 5.109375,15.484375 2.4069128,20.670234 2.1827494,26.898588 3.679165,32.477193 c 1.568085,5.676326 6.788919,10.095388 12.676965,10.574718 4.855333,0.509892 10.262144,-0.733352 13.451723,-4.679673 3.491367,-4.077343 3.608662,-9.777241 3.556793,-14.871529 0.113409,-4.631291 -0.45838,-9.474427 1.202347,-13.9002535 1.465528,-3.8242664 5.51097,-6.1760344 9.531883,-6.0975734 3.44229,-0.1098191 7.154685,1.0351517 9.148247,4.0232558 2.851194,3.9221491 2.450903,9.0334251 2.514611,13.6271921 0.05967,9.126731 -0.09067,18.259502 0.06602,27.382614 0.09723,3.050674 1.185143,6.438577 4.122463,7.865561 2.452316,1.38533 5.340975,1.176816 8.048039,1.432093" id="g0s0" inkscape:label="g0s0"></path></g><g id="g1" inkscape:label="g1" transform="translate(21.9)"><path style="display:inline" d="m 30.9,87 v 0 Q 24.3,87 19.15,84.75 14,82.5 9.85,78.7 5.7,74.9 2.2,70.1 v 0 l 4.2,-2.9 q 5.1,6.7 10.7,10.8 5.6,4.1 13.8,4.1 v 0 q 5.7,0 8.7,-2.2 3,-2.2 3,-6.5 v 0 q 0,-3.9 -2.6,-5.9 -2.6,-2 -7,-2 v 0 q -2.5,0 -4.7,0.55 -2.2,0.55 -4.4,1.45 v 0 L 22.1,63 q 2.6,-1.1 5.2,-1.65 2.6,-0.55 5.4,-0.55 v 0 q 7.1,0 11,3.55 3.9,3.55 3.9,9.45 v 0 q 0,6.2 -4.45,9.7 Q 38.7,87 30.9,87 Z" id="g1p0" inkscape:label="g1p0"></path><path style="display:inline;fill:none;stroke:#000000;stroke-width:1px;stroke-linecap:butt;stroke-linejoin:miter;stroke-opacity:1" d="m 22.914062,65.289062 c 2.323807,-0.692195 4.562347,-1.731347 7.000658,-1.966609 3.549036,-0.376084 7.376537,-0.234926 10.53575,1.599631 2.719286,1.540051 4.469061,4.52798 4.601284,7.636307 0.253017,2.845818 -0.456653,5.883237 -2.460912,7.998761 -2.433486,2.67518 -6.157635,3.68678 -9.656459,3.920638 C 27.700261,84.79836 22.284886,83.938844 17.69019,81.310728 14.906965,79.755209 12.447616,77.671348 10.188095,75.437432 8.1199862,73.202596 6.1412982,70.891325 4.1757812,68.566406" id="g1s0" inkscape:label="g1s0"></path></g></svg>