<?xml version="1.0" encoding="UTF-8" standalone="no"?><svg width="56.099998" height="60.299999" version="1.1" id="svg3882" sodipodi:docname="11_rah.svg" inkscape:version="1.2.1 (9c6d41e410, 2022-07-14)" xmlns:inkscape="http://www.inkscape.org/namespaces/inkscape" xmlns:sodipodi="http://sodipodi.sourceforge.net/DTD/sodipodi-0.dtd" xmlns="http://www.w3.org/2000/svg" xmlns:svg="http://www.w3.org/2000/svg"><defs id="defs3886"></defs><sodipodi:namedview id="namedview3884" pagecolor="#ffffff" bordercolor="#666666" borderopacity="1.0" inkscape:showpageshadow="2" inkscape:pageopacity="0.0" inkscape:pagecheckerboard="0" inkscape:deskcolor="#d1d1d1" showgrid="false" inkscape:zoom="1.809816" inkscape:cx="30.113558" inkscape:cy="35.915253" inkscape:window-width="1920" inkscape:window-height="1027" inkscape:window-x="-8" inkscape:window-y="-8" inkscape:window-maximized="1" inkscape:current-layer="svg3882"></sodipodi:namedview><g id="g0" inkscape:label="g0" transform="scale(0.99867663,1)"><path d="m 38.450885,60.3 h -1.60212 Q 31.041079,60.3 26.48505,57.65 21.92902,55 18.123985,50.5 14.318949,46 10.714179,40.5 v 0 q -1.0013253,0 -2.1027829,0 v 0 q -8.51126359,0 -8.51126359,-5.1 v 0 q 0,-2 1.35178889,-3.1 1.3517889,-1.1 3.7549692,-1.1 v 0 q 2.1027828,0 4.105433,0.85 2.0026504,0.85 4.2055654,2.95 v 0 q 6.809011,-1.2 11.415107,-5.4 4.606095,-4.2 4.606095,-11 v 0 q 0,-6.5 -3.855102,-10.05 Q 21.828888,5 15.120009,5 V 5 Q 8.7115286,5 1.8023852,8 V 8 L 0,3.3 Q 3.6047704,1.8 7.4598722,0.9 11.314974,0 15.220142,0 v 0 q 8.911793,0 14.369015,4.9 5.457222,4.9 5.457222,13.7 v 0 q 0,5.5 -2.503312,9.85 -2.503313,4.35 -6.758945,7.2 -4.255632,2.85 -9.662788,4.05 v 0 q 3.905168,5.8 7.209541,9.2 3.304373,3.4 6.658812,4.85 3.35444,1.45 7.560005,1.45 v 0 h 1.501988 z" id="g0p0" inkscape:label="g0p0" style="stroke-width:1.00066"></path><path style="fill:none;stroke:#000000;stroke-width:1px;stroke-linecap:butt;stroke-linejoin:miter;stroke-opacity:1" d="M 0.94104869,5.7498938 C 5.115098,4.040132 9.4870483,2.6418142 14.031232,2.4964904 c 4.955281,-0.2242553 10.270156,0.9401401 13.902943,4.522798 2.937897,2.8293097 4.311202,6.9396146 4.368378,10.9588596 0.221141,5.341333 -2.071396,10.754947 -6.239983,14.145774 -3.451913,2.930661 -7.788777,4.617674 -12.202168,5.446647 -1.734903,0.421541 -5.435874,0.436053 -7.3625321,0.24206 -2.7655251,-0.368482 -4.0802094,-0.880306 -3.9012717,-2.674195 0.1132353,-1.296729 1.8042188,-1.980327 4.531765,-1.213086 2.2598869,0.635691 3.8689038,2.001605 4.8694328,3.582417 0.863496,1.364302 1.470548,3.140612 2.589847,4.352715 2.509901,3.586395 5.15466,7.135663 8.368164,10.124073 2.825316,2.627757 6.266456,4.722911 10.122196,5.34428 1.952295,0.342668 3.951259,0.380574 5.921997,0.585229" id="g0s0" inkscape:label="g0s0" sodipodi:nodetypes="ccccccccsscccc"></path></g><g id="g1" inkscape:label="g1" transform="translate(-6.3)"><path style="display:inline" d="m 57.8,22 v 0 Q 56,22 54.6,20.65 53.2,19.3 53.2,16.9 v 0 q 0,-2.4 1.35,-3.75 1.35,-1.35 3.25,-1.35 v 0 q 2,0 3.3,1.35 1.3,1.35 1.3,3.75 v 0 q 0,2.5 -1.35,3.8 Q 59.7,22 57.8,22 Z" id="g1p0" inkscape:label="g1p0"></path><path d="m 57.837008,13.391934 c -0.820403,0 -1.515467,0.311801 -2.085191,0.935405 -0.569724,0.623603 -0.854587,1.707464 -0.854587,2.59035 0,1.055328 0.273468,1.894793 0.820403,2.518396 0.546936,0.623603 1.347168,0.935404 2.119375,0.935404 0.865981,0 1.572439,-0.311801 2.119375,-0.935404 0.546935,-0.623603 0.820403,-1.597773 0.820403,-2.518396 0,-1.151267 -0.284863,-2.02671 -0.854587,-2.626328 -0.569724,-0.599617 -1.264788,-0.899427 -2.085191,-0.899427 z" style="display:inline;stroke-width:0.701376" id="g1s0" sodipodi:nodetypes="sssssssss" inkscape:label="g1s0"></path></g><g id="g2" inkscape:label="g2" transform="translate(-6.3)"><path style="display:inline" d="m 57.8,55.3 v 0 Q 56,55.3 54.6,53.95 53.2,52.6 53.2,50.2 v 0 q 0,-2.4 1.35,-3.75 1.35,-1.35 3.25,-1.35 v 0 q 2,0 3.3,1.35 1.3,1.35 1.3,3.75 v 0 q 0,2.5 -1.35,3.8 -1.35,1.3 -3.25,1.3 z" id="g2p0" inkscape:label="g2p0"></path><path d="m 57.836778,46.680782 c -0.820403,0 -1.515467,0.311801 -2.085191,0.935405 -0.569724,0.623603 -0.854587,1.707464 -0.854587,2.59035 0,1.055328 0.273468,1.894793 0.820403,2.518396 0.546936,0.623603 1.347168,0.935404 2.119375,0.935404 0.865981,0 1.572439,-0.311801 2.119375,-0.935404 0.546935,-0.623603 0.820403,-1.597773 0.820403,-2.518396 0,-1.151267 -0.284863,-2.02671 -0.854587,-2.626328 -0.569724,-0.599617 -1.264788,-0.899427 -2.085191,-0.899427 z" style="display:inline;stroke-width:0.701376" id="g2s0" sodipodi:nodetypes="sssssssss" inkscape:label="g2s0"></path></g></svg>