<?xml version="1.0" encoding="UTF-8" standalone="no"?><svg width="77" height="87.099998" version="1.1" id="svg436" sodipodi:docname="4_ju.svg" inkscape:version="1.2.1 (9c6d41e410, 2022-07-14)" xmlns:inkscape="http://www.inkscape.org/namespaces/inkscape" xmlns:sodipodi="http://sodipodi.sourceforge.net/DTD/sodipodi-0.dtd" xmlns="http://www.w3.org/2000/svg" xmlns:svg="http://www.w3.org/2000/svg"><defs id="defs440"></defs><sodipodi:namedview id="namedview438" pagecolor="#ffffff" bordercolor="#666666" borderopacity="1.0" inkscape:showpageshadow="2" inkscape:pageopacity="0.0" inkscape:pagecheckerboard="0" inkscape:deskcolor="#d1d1d1" showgrid="false" inkscape:zoom="1.809816" inkscape:cx="36.191524" inkscape:cy="35.915253" inkscape:window-width="1920" inkscape:window-height="1027" inkscape:window-x="-8" inkscape:window-y="-8" inkscape:window-maximized="1" inkscape:current-layer="svg436"></sodipodi:namedview><g id="g0" inkscape:label="g0"><path d="m 49,61.4 v 0 q -5.6,0 -9.25,-2.3 Q 36.1,56.8 34.35,52.9 32.6,49 32.5,44.4 v 0 q 0,-7.6 4.15,-13.85 Q 40.8,24.3 48.5,18.1 v 0 Q 43.7,13 37.95,9.75 32.2,6.5 25.7,5.4 v 0 q 1.7,2.3 2.8,5.2 1.1,2.9 1.1,6.5 v 0 q 0,6.4 -3.6,10.6 -3.6,4.2 -11.4,4.2 v 0 Q 7.8,31.9 3.9,27.75 0,23.6 0,16.9 v 0 Q 0,12.1 2.4,8.3 4.8,4.5 9.25,2.35 13.7,0.2 19.7,0.2 v 0 Q 29.2,0.1 37.4,4.05 45.6,8 52.4,15.1 v 0 q 4.7,-3.5 9.4,-7 Q 66.5,4.6 73.1,0 v 0 l 3.1,4.3 Q 69.8,8.7 65,12.05 60.2,15.4 55.6,18.9 v 0 q 4.5,5.5 7.05,11.7 2.55,6.2 2.55,13.3 v 0 q 0,8.7 -4.4,13.1 -4.4,4.4 -11.8,4.4 z M 5.4,17 v 0 q 0,5.1 2.65,7.55 Q 10.7,27 14.6,27 v 0 q 9.7,0 9.7,-10.2 v 0 q 0,-6.7 -4.6,-11.9 v 0 H 19.3 Q 12.7,4.9 9.05,8.3 5.4,11.7 5.4,17 Z M 38,44.4 v 0 q 0,5.6 2.75,8.8 2.75,3.2 8.25,3.2 v 0 q 4.9,0 7.85,-3.05 2.95,-3.05 2.95,-9.45 v 0 Q 59.8,37.4 57.65,32 55.5,26.6 51.7,21.8 v 0 Q 44.2,27.6 41.1,33.05 38,38.5 38,44.4 Z" id="g0p0" inkscape:label="g0p0"></path><path style="fill:none;stroke:#000000;stroke-width:1px;stroke-linecap:butt;stroke-linejoin:miter;stroke-opacity:1" d="m 23.027261,5.0303454 c 1.36037,2.74935 3.124281,5.3778546 3.632773,8.4718046 0.851352,4.709382 0.147837,10.26084 -3.690095,13.519956 -3.267785,2.413981 -7.667508,2.882321 -11.558457,2.081583 C 6.9961422,28.283512 3.5480743,24.402754 2.9771725,19.991073 2.0163265,15.001463 3.5524271,9.3909851 7.6571493,6.1951722 12.333789,2.4394992 18.700982,2.0998053 24.414353,2.8613205 34.510629,3.8100887 43.697891,9.418173 50.50556,16.736982 c 4.128165,4.397388 7.68884,9.408121 9.824058,15.083116 2.085585,5.507356 2.833088,11.652565 1.61316,17.442505 -0.69421,3.270944 -2.691583,6.246557 -5.65982,7.853107 -3.989616,2.224782 -8.978739,2.267333 -13.219145,0.768492 -4.01625,-1.443987 -6.629486,-5.363631 -7.375168,-9.451569 C 34.346227,41.716357 36.416353,34.613396 40.634958,29.291421 45.70695,22.558905 52.922842,17.982994 59.507812,12.89063 64.523983,9.2646536 69.580081,5.6979536 74.65625,2.15625" id="g0s0" inkscape:label="g0s0"></path></g><g id="g1" inkscape:label="g1" transform="translate(29.4,0.1)"><path style="display:inline" d="m 30.9,87 v 0 Q 24.3,87 19.15,84.75 14,82.5 9.85,78.7 5.7,74.9 2.2,70.1 v 0 l 4.2,-2.9 q 5.1,6.7 10.7,10.8 5.6,4.1 13.8,4.1 v 0 q 5.7,0 8.7,-2.2 3,-2.2 3,-6.5 v 0 q 0,-3.9 -2.6,-5.9 -2.6,-2 -7,-2 v 0 q -2.5,0 -4.7,0.55 -2.2,0.55 -4.4,1.45 v 0 L 22.1,63 q 2.6,-1.1 5.2,-1.65 2.6,-0.55 5.4,-0.55 v 0 q 7.1,0 11,3.55 3.9,3.55 3.9,9.45 v 0 q 0,6.2 -4.45,9.7 Q 38.7,87 30.9,87 Z" id="g1p0" inkscape:label="g1p0"></path><path style="display:inline;fill:none;stroke:#000000;stroke-width:1px;stroke-linecap:butt;stroke-linejoin:miter;stroke-opacity:1" d="m 22.914062,65.289062 c 2.323807,-0.692195 4.562347,-1.731347 7.000658,-1.966609 3.549036,-0.376084 7.376537,-0.234926 10.53575,1.599631 2.719286,1.540051 4.469061,4.52798 4.601284,7.636307 0.253017,2.845818 -0.456653,5.883237 -2.460912,7.998761 -2.433486,2.67518 -6.157635,3.68678 -9.656459,3.920638 C 27.700261,84.79836 22.284886,83.938844 17.69019,81.310728 14.906965,79.755209 12.447616,77.671348 10.188095,75.437432 8.1199862,73.202596 6.1412982,70.891325 4.1757812,68.566406" id="g1s0" inkscape:label="g1s0"></path></g></svg>