<?xml version="1.0" encoding="UTF-8" standalone="no"?><svg width="89.800003" height="60.299999" version="1.1" id="svg148" sodipodi:docname="1_sa.svg" inkscape:version="1.2.1 (9c6d41e410, 2022-07-14)" xmlns:inkscape="http://www.inkscape.org/namespaces/inkscape" xmlns:sodipodi="http://sodipodi.sourceforge.net/DTD/sodipodi-0.dtd" xmlns="http://www.w3.org/2000/svg" xmlns:svg="http://www.w3.org/2000/svg"><defs id="defs152"></defs><sodipodi:namedview id="namedview150" pagecolor="#ffffff" bordercolor="#666666" borderopacity="1.0" inkscape:showpageshadow="2" inkscape:pageopacity="0.0" inkscape:pagecheckerboard="0" inkscape:deskcolor="#d1d1d1" showgrid="false" inkscape:zoom="1.809816" inkscape:cx="43.927117" inkscape:cy="35.915253" inkscape:window-width="1920" inkscape:window-height="1027" inkscape:window-x="-8" inkscape:window-y="-8" inkscape:window-maximized="1" inkscape:current-layer="svg148"></sodipodi:namedview><g id="g0" inkscape:label="g0" transform="matrix(0.99972661,0,0,0.99999032,0,5.8360291e-4)"><path d="m 38.410501,60.3 h -1.50041 q -5.801586,0 -10.402844,-2.650025 -4.601258,-2.650026 -8.452311,-7.15007 -3.851053,-4.500043 -7.35201,-10.000097 v 0 q -1.2003281,0 -2.3006289,0 v 0 q -8.30226975,0 -8.30226975,-5.100049 v 0 q 0,-2.000019 1.35036915,-3.10003 1.3503692,-1.100011 3.7510255,-1.100011 v 0 q 2.0005469,0 4.0010939,0.850008 2.0005471,0.850009 4.2011481,2.850028 v 0 q 6.301723,-1.300012 10.602899,-5.450053 4.301176,-4.15004 4.301176,-10.750104 v 0 q 0,-6.600064 -3.751025,-10.1500977 Q 20.805688,4.9994649 14.503965,4.9994649 v 0 q -5.8015859,0 -12.7034728,3.0000291 v 0 L 0,3.2994485 Q 3.6009845,1.7994339 7.35201,0.89942519 11.103035,-5.8353161e-4 14.70402,-5.8353161e-4 v 0 q 8.502324,0 13.75376,4.90004753161 5.251436,4.9000474 5.251436,13.700132 v 0 q 0,3.200031 -0.900246,6.100059 v 0 q 3.00082,1.200012 6.40175,1.200012 v 0 q 3.300902,0 5.701559,-0.700007 2.400656,-0.700007 4.90134,-2.300022 v 0 V -5.8353161e-4 L 55.115068,0.79942422 V 46.199864 q 0,3.200031 0.500137,4.850047 0.500136,1.650016 1.700465,2.550024 v 0 q 1.200328,1.200012 3.150861,1.450014 1.950533,0.250003 4.251162,0.250003 v 0 L 64.117529,60.3 h -0.900246 q -3.100848,0 -5.601531,-0.650006 -2.500684,-0.650006 -4.301176,-2.350023 v 0 q -1.90052,-1.700016 -2.700739,-4.200041 -0.800218,-2.500024 -0.800218,-6.600064 v 0 -18.200176 q -2.300629,1.300013 -4.751299,1.850018 -2.45067,0.550005 -5.751573,0.550005 v 0 q -2.100574,0 -4.301176,-0.400003 -2.200601,-0.400004 -4.101121,-1.300013 v 0 q -2.300629,4.000039 -6.201695,6.700065 -3.901067,2.700026 -8.70238,3.900038 v 0 q 3.901067,5.800056 7.201969,9.200089 3.300903,3.400033 6.701833,4.900047 3.400929,1.500015 7.602078,1.500015 v 0 h 1.50041 z" id="g0p0" inkscape:label="g0p0" style="stroke-width:1.00014"></path><path style="fill:none;stroke:#000000;stroke-width:1px;stroke-linecap:butt;stroke-linejoin:miter;stroke-opacity:1" d="M 0.94624216,5.7690248 C 7.631373,2.8810914 15.578666,0.97157336 22.533445,4.0724425 c 5.108916,2.1496621 8.257264,7.5315065 8.425423,12.9652175 0.427436,5.272064 -1.334055,10.749138 -5.251145,14.400195 -4.620118,4.532002 -11.214792,6.508684 -17.5640162,6.614233 -1.9828211,-0.146625 -6.059372,-0.149005 -5.4317643,-3.124054 1.4058622,-2.359487 5.3452686,-0.771918 7.2320392,0.399418 2.8988863,3.002002 4.5147993,6.974752 7.2126003,10.149263 4.013799,5.28556 9.092501,10.740916 15.963874,11.839896 1.840559,0.307467 3.707502,0.392494 5.565579,0.532358" id="g0s0" sodipodi:nodetypes="cccccccccccccc" inkscape:label="g0s0"></path><path style="fill:none;stroke:#000000;stroke-width:1px;stroke-linecap:butt;stroke-linejoin:miter;stroke-opacity:1" d="m 31.441406,26.667969 c 3.656572,1.718061 7.839958,1.897265 11.787906,1.362751 2.195776,-0.314088 4.284304,-1.13355 6.215845,-2.205322 0.525672,-0.274182 1.051345,-0.548363 1.577017,-0.822545" id="g0s1" inkscape:label="g0s1" sodipodi:nodetypes="ccccc"></path><path style="fill:none;stroke:#000000;stroke-width:1px;stroke-linecap:butt;stroke-linejoin:miter;stroke-opacity:1" d="m 52.464009,0 c 0.01863,15.96103 -0.03083,31.923084 0.03097,47.883474 0.07355,2.767423 0.604772,5.858015 2.901807,7.685433 2.034774,1.851093 4.894464,2.047336 7.507849,2.143361 0.594269,0.03602 1.188537,0.07203 1.782806,0.108049" id="g0s2" inkscape:label="g0s2"></path></g><g id="g1" inkscape:label="g1" transform="matrix(0.99877143,0,0,1,18.669169,0)"><path style="display:inline" d="m 70.7,60.3 h -1 q -6.6,0 -9.9,-3 v 0 Q 58,55.7 57.15,53.2 56.3,50.7 56.3,46.5 v 0 V 0 l 5.3,0.7 v 45.5 q 0,3.3 0.5,4.9 0.5,1.6 1.8,2.6 v 0 q 1.2,1.1 3.05,1.35 1.85,0.25 4.25,0.25 v 0 z" id="g1p0" inkscape:label="g1p0"></path><path style="display:inline;fill:none;stroke:#000000;stroke-width:1px;stroke-linecap:butt;stroke-linejoin:miter;stroke-opacity:1" d="m 58.96875,0.03125 c 0.0052,15.660703 -0.0419,31.322813 -0.004,46.982637 0.07316,2.661925 0.300704,5.531206 2.06529,7.674603 1.94562,2.285428 5.076187,2.956219 7.950186,3.001875 0.734456,0.05113 1.468913,0.102253 2.203369,0.15338" id="g1s0" inkscape:label="g1s0"></path></g></svg>