<?xml version="1.0" encoding="UTF-8" standalone="no"?><svg width="55.599998" height="81.199997" version="1.1" id="svg1441" sodipodi:docname="10_ham.svg" inkscape:version="1.2.1 (9c6d41e410, 2022-07-14)" xmlns:inkscape="http://www.inkscape.org/namespaces/inkscape" xmlns:sodipodi="http://sodipodi.sourceforge.net/DTD/sodipodi-0.dtd" xmlns="http://www.w3.org/2000/svg" xmlns:svg="http://www.w3.org/2000/svg"><defs id="defs1445"></defs><sodipodi:namedview id="namedview1443" pagecolor="#ffffff" bordercolor="#666666" borderopacity="1.0" inkscape:showpageshadow="2" inkscape:pageopacity="0.0" inkscape:pagecheckerboard="0" inkscape:deskcolor="#d1d1d1" showgrid="false" inkscape:zoom="1.809816" inkscape:cx="26.245761" inkscape:cy="55.806777" inkscape:window-width="1920" inkscape:window-height="1027" inkscape:window-x="-8" inkscape:window-y="-8" inkscape:window-maximized="1" inkscape:current-layer="svg1441"></sodipodi:namedview><g id="g0" inkscape:label="g0" transform="translate(0,20)"><path d="m 35.4,43.9 v 0 q -6.2,0 -11.9,-3 -5.7,-3 -9.9,-9.1 v 0 L 18.1,29 q 3.5,5.1 7.95,7.55 Q 30.5,39 35.5,39 v 0 Q 40,39 42.55,37.25 45.1,35.5 45.1,32.1 v 0 q 0,-3.5 -2.35,-5.5 -2.35,-2 -7.85,-4.2 v 0 Q 29,20.1 25.85,17.35 22.7,14.6 22.7,10.1 v 0 Q 22.7,5.4 26.3,2.7 29.9,0 36.5,0 v 0 q 2.3,0 4.7,0.35 2.4,0.35 4.5,0.75 v 0 L 44.6,6 Q 40.5,4.9 35.9,4.9 v 0 Q 28,4.9 28,10 v 0 q 0,2.7 2.2,4.35 2.2,1.65 7.1,3.55 v 0 q 6.9,2.7 10,5.85 3.1,3.15 3.1,8.25 v 0 q 0,5.7 -4.1,8.8 -4.1,3.1 -10.9,3.1 z m -1.5,17.3 v 0 Q 23,61.2 15.45,57.25 7.9,53.3 3.95,46.45 0,39.6 0,31 v 0 Q 0,25.9 1.05,21.55 2.1,17.2 4.1,13.3 v 0 l 5.1,2.3 Q 7.4,19.2 6.5,22.9 5.6,26.6 5.6,31 v 0 q 0,7.6 3.4,13.3 3.4,5.7 9.75,8.8 6.35,3.1 15.05,3.1 v 0 q 5.4,0 10.05,-0.95 4.65,-0.95 9.65,-3.05 v 0 l 2.1,4.9 Q 50,59.3 45.15,60.25 40.3,61.2 33.9,61.2 Z" id="g0p0" inkscape:label="g0p0"></path><path style="fill:none;stroke:#000000;stroke-width:1px;stroke-linecap:butt;stroke-linejoin:miter;stroke-opacity:1" d="M 45.132812,3.6132813 C 40.562478,2.6018067 35.735343,1.8642292 31.123747,3.0438786 c -2.492133,0.6391291 -4.859512,2.3972811 -5.513268,4.9853932 -0.651339,2.6654372 -0.03482,5.7940272 2.161388,7.5931122 3.064568,2.640803 6.975561,3.921609 10.633287,5.497711 2.757372,1.272261 5.626293,2.684887 7.556712,5.10442 1.857268,2.507391 2.224855,5.931451 1.352993,8.879043 -1.050501,3.311691 -4.36091,5.314839 -7.62354,5.937229 -7.039417,1.407323 -14.771262,-0.844523 -19.787853,-6.022734 -1.464717,-1.436306 -2.724112,-3.051268 -3.988039,-4.662165" id="g0s0" inkscape:label="g0s0"></path><path style="fill:none;stroke:#000000;stroke-width:1px;stroke-linecap:butt;stroke-linejoin:miter;stroke-opacity:1" d="m 6.703125,14.484375 c -1.180208,3.12269 -2.7781111,6.116912 -3.265625,9.460937 -1.2382907,6.947677 -0.7953867,14.472555 2.6544984,20.753567 3.6011752,6.85407 10.6622456,11.357185 18.1034726,12.987176 6.292083,1.37048 12.845407,1.245875 19.184575,0.268004 3.850508,-0.646659 7.480541,-2.07291 11.159017,-3.325156" id="g0s1" inkscape:label="g0s1"></path></g><g id="g1" inkscape:label="g1" transform="translate(10)"><path style="display:inline" d="m 33.9,9.7 v 0 Q 32.1,9.7 30.85,8.4 29.6,7.1 29.6,4.8 v 0 Q 29.6,2.6 30.8,1.3 32,0 33.9,0 v 0 q 1.9,0 3.1,1.3 1.2,1.3 1.2,3.5 v 0 q 0,2.4 -1.25,3.65 Q 35.7,9.7 33.9,9.7 Z" id="g1p0" inkscape:label="g1p0"></path><path d="m 33.9375,1.3352194 c -0.820403,0 -1.515467,0.3118012 -2.085191,0.9354043 -0.569724,0.6236031 -0.854587,1.7074649 -0.854587,2.5903504 0,1.0553281 0.273468,1.8947931 0.820403,2.5183962 0.546936,0.6236031 1.347168,0.9354042 2.119375,0.9354042 0.865981,0 1.572439,-0.3118011 2.119375,-0.9354042 0.546935,-0.6236031 0.820403,-1.5977735 0.820403,-2.5183962 0,-1.1512668 -0.284863,-2.0267096 -0.854587,-2.6263275 C 35.452967,1.6350287 34.757903,1.3352194 33.9375,1.3352194" style="display:inline;stroke-width:0.701376" id="g1s0" sodipodi:nodetypes="sssssssss" inkscape:label="g1s0"></path></g></svg>
