<?xml version="1.0" encoding="UTF-8" standalone="no"?><svg width="81.382393" height="88.999992" version="1.1" id="svg622" sodipodi:docname="2_xi.svg" inkscape:version="1.2.1 (9c6d41e410, 2022-07-14)" xmlns:inkscape="http://www.inkscape.org/namespaces/inkscape" xmlns:sodipodi="http://sodipodi.sourceforge.net/DTD/sodipodi-0.dtd" xmlns="http://www.w3.org/2000/svg" xmlns:svg="http://www.w3.org/2000/svg"><defs id="defs626"></defs><sodipodi:namedview id="namedview624" pagecolor="#ffffff" bordercolor="#666666" borderopacity="1.0" inkscape:showpageshadow="2" inkscape:pageopacity="0.0" inkscape:pagecheckerboard="0" inkscape:deskcolor="#d1d1d1" showgrid="false" inkscape:zoom="4" inkscape:cx="9.75" inkscape:cy="78" inkscape:window-width="1920" inkscape:window-height="1027" inkscape:window-x="-8" inkscape:window-y="-8" inkscape:window-maximized="1" inkscape:current-layer="svg622"></sodipodi:namedview><g id="g0" inkscape:label="g0" style="display:inline" transform="matrix(1.0163621,0,0,1.0170151,-4.9629071,29.571469)"><path d="m 42.061502,51.607851 q -8.248584,0 -12.989149,-3.887263 -4.740565,-3.982075 -4.740565,-9.955187 0,-3.792452 1.516981,-6.447168 1.611792,-2.654717 4.266508,-4.645754 2.654717,-2.085849 5.878301,-3.792452 -4.171697,-2.370283 -6.636791,-5.688678 -2.465094,-3.413207 -2.465094,-7.3952819 0,-5.1198101 3.792452,-8.3433944 3.792452,-3.3183956 10.14481,-3.3183956 5.783489,0 9.765564,2.9391504 3.982075,2.9391504 3.982075,8.0589606 0,4.7405649 -2.84434,7.7745269 -2.749527,3.033961 -6.447168,5.309433 4.550942,1.327358 10.334432,1.327358 4.456131,0 7.964149,-0.758491 3.60283,-0.75849 7.205659,-2.559905 V -1.8657229 l 5.024999,0.7584904 V 41.937098 q 0,3.033962 0.474057,4.550943 0.568868,1.516981 1.611792,2.465094 1.137736,1.137735 2.93915,1.422169 1.896226,0.189623 4.076886,0.189623 l -0.474056,4.740565 h -0.948113 q -6.257546,0 -9.386319,-2.844339 -1.706604,-1.516981 -2.559905,-3.887263 -0.758491,-2.370283 -0.758491,-6.352358 V 25.345121 q -6.447168,2.93915 -15.359431,2.93915 -4.076886,0 -7.964149,-0.75849 -3.792452,-0.853302 -7.110848,-2.275472 -4.740565,2.559905 -7.869338,5.214622 -3.033962,2.654716 -3.033962,7.110848 0,3.887263 3.033962,6.636791 3.128773,2.749527 9.765564,2.749527 3.318396,0 5.878301,-1.042924 -0.853302,-1.706603 -0.853302,-3.413207 0,-2.085848 1.232547,-3.223584 1.232547,-1.232547 3.318396,-1.232547 2.18066,0 3.413207,1.42217 1.232547,1.422169 1.232547,3.413206 0,2.84434 -2.275472,4.930188 1.42217,3.033962 3.413207,4.550943 1.991038,1.516981 5.688678,1.516981 h 0.853302 l -0.474056,4.550942 h -1.137736 q -4.835376,0 -7.774527,-2.370283 -2.844339,-2.275471 -4.740565,-5.783489 -3.508018,1.327358 -7.964149,1.327358 z M 40.44971,20.320122 q 3.602829,-1.896226 6.257545,-4.36132 2.749528,-2.559906 2.749528,-6.3523579 0,-3.0339611 -2.275471,-4.9301871 -2.275471,-1.9910374 -6.352357,-1.9910374 -4.171698,0 -6.54198,1.9910374 -2.370283,1.896226 -2.370283,5.3094331 0,3.2235839 2.370283,5.9731119 2.370282,2.654716 6.162735,4.36132 z" id="g0p0" style="font-weight:300;font-size:94.8113px;line-height:1.25;font-family:&apos;Noto Sans Gujarati&apos;;-inkscape-font-specification:&apos;Noto Sans Gujarati, Light&apos;;stroke-width:1.68549" inkscape:label="g0p0"></path><path style="fill:none;stroke:#000000;stroke-width:1px;stroke-linecap:butt;stroke-linejoin:miter;stroke-opacity:1" d="m 63.956788,56.181152 c -3.042762,-0.185902 -6.48888,-0.349862 -8.687513,-2.77758 -2.787447,-2.68618 -4.286544,-6.383489 -5.566393,-9.960701 -0.310614,-1.215574 0.01032,-2.820236 1.496078,-3.035159 1.240315,-0.219415 2.55491,0.342322 2.790655,1.631428 0.5948,2.086776 -1.002251,3.888678 -2.623892,4.955546 -2.009379,1.271752 -4.417663,1.876642 -6.76739,2.164821 -4.821981,0.373339 -10.197095,-0.07542 -14.013558,-3.360864 -2.559793,-2.162334 -3.927334,-5.55041 -3.66098,-8.886232 0.05752,-3.902381 2.523459,-7.356991 5.782229,-9.398481 3.489919,-2.564362 7.553514,-4.634473 11.379079,-6.85286 2.477692,-1.780108 4.924849,-3.740934 6.616204,-6.315007 2.0412,-3.352306 1.853362,-8.2232198 -1.185375,-10.932637 -3.558287,-3.26256528 -8.935642,-3.60181858 -13.401017,-2.3401383 -3.571856,1.037704 -6.573342,4.2698701 -6.661983,8.0935641 -0.412454,4.1241332 2.107753,7.9413612 5.379239,10.2299512 2.543724,2.165164 5.81915,3.080345 8.767193,4.542366 3.390842,1.44281 7.149065,1.8176 10.802168,1.955604 5.477736,0.159902 11.034403,-0.649724 16.056632,-2.915839 1.227632,-0.550251 2.349837,-0.989367 2.829716,-2.29458 0.0055,-7.514851 0.01105,-15.0297017 0.01657,-22.5445526" id="g0s0" sodipodi:nodetypes="ccccccccccccccccccccc" inkscape:label="g0s0"></path><path style="fill:none;stroke:#000000;stroke-width:1px;stroke-linecap:butt;stroke-linejoin:miter;stroke-opacity:1" d="m 73.300538,20.540527 c 0.01353,7.63541 -0.01381,15.271772 0.02523,22.906588 0.107851,1.885647 0.239204,3.861622 1.23855,5.520503 1.116139,1.817486 3.002122,3.113128 5.092012,3.531984 1.722936,0.363102 3.504481,0.330988 5.253542,0.490144" id="g0s1" inkscape:label="g0s1"></path></g><g id="g1" inkscape:label="g1" transform="scale(1.2850202,0.96424719)" style="display:inline"><path d="m 10.055024,88.99998 q -2.3261623,0 -4.2020997,-0.6 -1.8759374,-0.7 -3.2266123,-2.4 Q 1.2005996,84.299981 0.60029961,81.799982 -3.5029354e-7,79.299981 -3.5029354e-7,75.199983 V 25.699992 q 0,-8.399998 1.35067495029354,-12.999998 Q 2.776387,8.0999951 5.4777368,5.0999957 9.9049493,-3.323158e-6 18.234111,-3.323158e-6 q 8.629312,0 16.208099,5.199999023158 7.653825,5.1999983 15.157574,13.1999973 l -2.551275,3.699999 Q 39.994985,14.499994 33.016498,9.7999948 26.038011,4.9999957 18.459223,4.9999957 q -3.226612,0 -5.777887,0.8999999 Q 10.205099,6.6999955 8.3291616,8.799995 6.1530743,11.399994 5.0275118,15.499994 3.9769869,19.599993 3.9769869,27.699991 v 47.199992 q 0,3.199999 0.3751875,4.799999 0.3751875,1.599999 1.2756374,2.599999 0.90045,1.2 2.3261627,1.5 1.5007492,0.2 3.2266125,0.2 l -0.450226,4.999999 z" id="g1p0" style="font-weight:300;font-size:96.4247px;line-height:1.25;font-family:&apos;Noto Sans Gujarati&apos;;-inkscape-font-specification:&apos;Noto Sans Gujarati, Light&apos;;display:inline;stroke-width:0.889975" inkscape:label="g1p0"></path><path style="display:inline;fill:none;stroke:#000000;stroke-width:1px;stroke-linecap:butt;stroke-linejoin:miter;stroke-opacity:1" d="M 48.355477,20.48487 C 43.615272,14.916097 37.638975,9.9363502 31.402135,6.0327407 25.423351,2.5252125 17.925665,1.3282836 11.384063,3.8090168 7.098823,5.5445734 4.095166,9.9415067 3.1791094,14.303948 1.7885965,19.96596 1.9068583,25.967035 2.0075511,31.392082 c 0.017146,15.362435 -0.045211,30.791625 0.066218,46.112174 0.1319749,2.783277 0.8304917,6.259596 3.2892581,7.864704 1.6059206,1.04463 2.7943289,1.009286 5.6583948,1.187531" id="g1s0" inkscape:label="g1s0" sodipodi:nodetypes="cccccccc"></path></g></svg>