<?xml version="1.0" encoding="UTF-8" standalone="no"?><svg width="65.399971" height="87" version="1.1" id="svg882" sodipodi:docname="4_xu.svg.2022_10_16_17_22_08.0.svg" inkscape:version="1.2.1 (9c6d41e4, 2022-07-14)" xmlns:inkscape="http://www.inkscape.org/namespaces/inkscape" xmlns:sodipodi="http://sodipodi.sourceforge.net/DTD/sodipodi-0.dtd" xmlns="http://www.w3.org/2000/svg" xmlns:svg="http://www.w3.org/2000/svg"><defs id="defs886"></defs><sodipodi:namedview id="namedview884" pagecolor="#ffffff" bordercolor="#666666" borderopacity="1.0" inkscape:showpageshadow="2" inkscape:pageopacity="0.0" inkscape:pagecheckerboard="0" inkscape:deskcolor="#d1d1d1" showgrid="false" inkscape:zoom="5.6568543" inkscape:cx="11.313708" inkscape:cy="38.625708" inkscape:window-width="1309" inkscape:window-height="841" inkscape:window-x="65" inkscape:window-y="25" inkscape:window-maximized="0" inkscape:current-layer="svg882"></sodipodi:namedview><g id="g0" inkscape:label="g0" style="display:inline" transform="matrix(1.0547266,0,0,1.0547266,-25.663383,1.9678274)"><path d="m 42.061501,51.607852 q -8.248582,0 -12.989147,-3.887263 -4.740567,-3.982075 -4.740567,-9.955188 0,-3.792452 1.516983,-6.447167 1.611791,-2.654717 4.266506,-4.645754 2.654718,-2.08585 5.878301,-3.792452 -4.171696,-2.370284 -6.63679,-5.688678 -2.465093,-3.413208 -2.465093,-7.3952829 0,-5.1198099 3.792452,-8.3433943 3.792452,-3.3183955 10.144808,-3.3183955 5.783489,0 9.765563,2.9391503 3.982075,2.9391502 3.982075,8.0589606 0,4.7405648 -2.844338,7.7745268 -2.749528,3.033962 -6.447168,5.309432 4.550942,1.327359 10.334431,1.327359 4.45613,0 7.964147,-0.75849 3.602831,-0.75849 7.20566,-2.559907 V -1.8657227 l 5.024999,0.7584903 V 58.055021 h -5.024999 v -32.7099 q -6.447168,2.93915 -15.35943,2.93915 -4.076887,0 -7.96415,-0.758489 -3.792452,-0.853302 -7.110846,-2.275473 -4.740565,2.559905 -7.869339,5.214623 -3.033961,2.654715 -3.033961,7.110846 0,3.887264 3.033961,6.636791 3.128774,2.749528 9.765565,2.749528 3.318394,0 5.878301,-1.042923 -0.853304,-1.706605 -0.853304,-3.413208 0,-2.085849 1.232548,-3.223585 1.232547,-1.232545 3.318396,-1.232545 2.180658,0 3.413206,1.422168 1.232547,1.422171 1.232547,3.413208 0,2.844339 -2.275472,4.930188 1.422171,3.03396 3.413208,4.550943 1.991038,1.51698 5.688678,1.51698 h 0.853301 l -0.474057,4.550941 h -1.137734 q -4.835376,0 -7.774527,-2.370282 -2.844339,-2.275472 -4.740565,-5.783489 -3.508019,1.327359 -7.964149,1.327359 z M 40.449709,20.320121 q 3.60283,-1.896226 6.257545,-4.361319 2.749527,-2.559905 2.749527,-6.3523575 0,-3.0339613 -2.275469,-4.9301873 -2.275472,-1.9910376 -6.352358,-1.9910376 -4.171696,0 -6.54198,1.9910376 -2.370281,1.896226 -2.370281,5.3094325 0,3.2235843 2.370281,5.9731123 2.370284,2.654716 6.162735,4.361319 z" style="font-weight:300;font-size:39.9999px;line-height:1.25;font-family:&apos;Noto Sans Gujarati&apos;;-inkscape-font-specification:&apos;Noto Sans Gujarati, Light&apos;;stroke-width:2.37029" id="g0p0" inkscape:label="g0p0"></path><path style="fill:none;stroke:#000000;stroke-width:1px;stroke-linecap:butt;stroke-linejoin:miter;stroke-opacity:1" d="m 63.956788,56.181152 c -3.042762,-0.185902 -6.48888,-0.349862 -8.687513,-2.77758 -2.787447,-2.68618 -4.286544,-6.383489 -5.566393,-9.960701 -0.310614,-1.215574 0.01032,-2.820236 1.496078,-3.035159 1.240315,-0.219415 2.55491,0.342322 2.790655,1.631428 0.5948,2.086776 -1.002251,3.888678 -2.623892,4.955546 -2.009379,1.271752 -4.417663,1.876642 -6.76739,2.164821 -4.821981,0.373339 -10.197095,-0.07542 -14.013558,-3.360864 -2.559793,-2.162334 -3.927334,-5.55041 -3.66098,-8.886232 0.05752,-3.902381 2.523459,-7.356991 5.782229,-9.398481 3.489919,-2.564362 7.553514,-4.634473 11.379079,-6.85286 2.477692,-1.780108 4.924849,-3.740934 6.616204,-6.315007 2.0412,-3.352306 1.853362,-8.2232198 -1.185375,-10.932637 -3.558287,-3.26256528 -8.935642,-3.60181858 -13.401017,-2.3401383 -3.571856,1.037704 -6.573342,4.2698701 -6.661983,8.0935641 -0.412454,4.1241332 2.107753,7.9413612 5.379239,10.2299512 2.543724,2.165164 5.81915,3.080345 8.767193,4.542366 3.390842,1.44281 7.149065,1.8176 10.802168,1.955604 5.477736,0.159902 11.034403,-0.649724 16.056632,-2.915839 1.227632,-0.550251 2.349837,-0.989367 2.829716,-2.29458 0.0055,-7.514851 0.01105,-15.0297017 0.01657,-22.5445526" id="g0s0" sodipodi:nodetypes="ccccccccccccccccccccc" inkscape:label="g0s0"></path><path style="fill:none;stroke:#000000;stroke-width:1px;stroke-linecap:butt;stroke-linejoin:miter;stroke-opacity:1" d="m 73.300538,20.540527 c 0.01353,7.63541 0.01952,15.282883 0.02523,22.906588 0,2.567031 -0.0012,12.777565 -0.01579,14.629038" id="g0s1" inkscape:label="g0s1" sodipodi:nodetypes="ccc"></path></g><g id="g1" inkscape:label="g1" transform="translate(17.8)"><path style="display:inline" d="m 30.9,87 v 0 Q 24.3,87 19.15,84.75 14,82.5 9.85,78.7 5.7,74.9 2.2,70.1 v 0 l 4.2,-2.9 q 5.1,6.7 10.7,10.8 5.6,4.1 13.8,4.1 v 0 q 5.7,0 8.7,-2.2 3,-2.2 3,-6.5 v 0 q 0,-3.9 -2.6,-5.9 -2.6,-2 -7,-2 v 0 q -2.5,0 -4.7,0.55 -2.2,0.55 -4.4,1.45 v 0 L 22.1,63 q 2.6,-1.1 5.2,-1.65 2.6,-0.55 5.4,-0.55 v 0 q 7.1,0 11,3.55 3.9,3.55 3.9,9.45 v 0 q 0,6.2 -4.45,9.7 Q 38.7,87 30.9,87 Z" id="g1p0" inkscape:label="g1p0"></path><path style="display:inline;fill:none;stroke:#000000;stroke-width:1px;stroke-linecap:butt;stroke-linejoin:miter;stroke-opacity:1" d="m 22.914062,65.289062 c 2.323807,-0.692195 4.562347,-1.731347 7.000658,-1.966609 3.549036,-0.376084 7.376537,-0.234926 10.53575,1.599631 2.719286,1.540051 4.469061,4.52798 4.601284,7.636307 0.253017,2.845818 -0.456653,5.883237 -2.460912,7.998761 -2.433486,2.67518 -6.157635,3.68678 -9.656459,3.920638 C 27.700261,84.79836 22.284886,83.938844 17.69019,81.310728 14.906965,79.755209 12.447616,77.671348 10.188095,75.437432 8.1199862,73.202596 6.1412982,70.891325 4.1757812,68.566406" id="g1s0" inkscape:label="g1s0"></path></g></svg>