<?xml version="1.0" encoding="UTF-8" standalone="no"?><svg width="94" height="69.199997" version="1.1" id="svg3342" sodipodi:docname="16.svg" inkscape:version="1.2.1 (9c6d41e410, 2022-07-14)" xmlns:inkscape="http://www.inkscape.org/namespaces/inkscape" xmlns:sodipodi="http://sodipodi.sourceforge.net/DTD/sodipodi-0.dtd" xmlns="http://www.w3.org/2000/svg" xmlns:svg="http://www.w3.org/2000/svg"><defs id="defs3346"></defs><sodipodi:namedview id="namedview3344" pagecolor="#ffffff" bordercolor="#666666" borderopacity="1.0" inkscape:showpageshadow="2" inkscape:pageopacity="0.0" inkscape:pagecheckerboard="0" inkscape:deskcolor="#d1d1d1" showgrid="false" inkscape:zoom="1.809816" inkscape:cx="46.137286" inkscape:cy="35.915253" inkscape:window-width="1920" inkscape:window-height="1027" inkscape:window-x="-8" inkscape:window-y="-8" inkscape:window-maximized="1" inkscape:current-layer="svg3342"></sodipodi:namedview><g id="g0" inkscape:label="g0" transform="scale(0.99916289,1)"><path d="m 39.533094,60.3 h -1.000838 q -6.705614,0 -9.908295,-3 v 0 q -1.701424,-1.6 -2.602178,-4.1 -0.900754,-2.5 -0.900754,-6.7 v 0 -16.8 q -2.101759,1.1 -4.303603,1.65 -2.201843,0.55 -4.904105,0.55 v 0 q -4.603854,0 -8.2068699,-2 Q 4.103435,27.9 2.0517175,24.3 0,20.7 0,16 v 0 Q 0,11.5 1.9015918,7.9 3.8031837,4.3 7.2560741,2.15 10.708965,0 15.412902,0 v 0 q 3.603016,0 6.305279,1.15 2.702262,1.15 4.50377,3.25 v 0 q 4.203518,4.4 4.203518,13.2 v 0 28.6 q 0,3.2 0.550461,4.85 0.550461,1.65 1.651383,2.55 v 0 q 1.201005,1.2 3.202681,1.45 2.001675,0.25 4.203518,0.25 v 0 z M 5.4045242,16.2 v 0 q 0,5 2.9524715,7.9 2.9524713,2.9 7.6564093,2.9 v 0 q 5.104273,0 9.107624,-3.1 v 0 -5.5 q 0,-7.3 -2.602178,-10.5 v 0 Q 20.016756,5 15.512986,5 V 5 Q 10.909132,5 8.1568282,8.05 5.4045242,11.1 5.4045242,16.2 Z" id="g0p0" inkscape:label="g0p0" style="stroke-width:1.00042"></path><path style="fill:none;stroke:#000000;stroke-width:1px;stroke-linecap:butt;stroke-linejoin:miter;stroke-opacity:1" d="M 27.734375,25.402344 C 25.756709,26.950277 23.329695,27.71765 21.03125,28.644531 15.576844,30.39353 8.7144506,29.246919 5.201564,24.393573 1.8240793,19.608996 1.8682961,12.707759 5.0183834,7.8169969 8.3641756,2.5177303 15.836905,1.1645999 21.289062,3.7578087 c 4.399226,2.1524604 6.207372,7.2670493 6.390628,11.8828123 0.173031,8.652422 0.05371,17.311355 0.08088,25.96632 0.167563,4.310819 -0.756605,9.211188 1.986879,12.929315 C 32.13428,57.674575 36.442924,57.585369 40,57.824219" id="g0s0" sodipodi:nodetypes="aaaaaaaac" inkscape:label="g0s0"></path></g><g id="g1" inkscape:label="g1" transform="translate(53.7)"><path d="m 25,69.2 v 0 Q 16.8,69.2 10.65,65.15 4.5,61.1 0,54.9 v 0 l 4.5,-3 q 9,12.4 20.4,12.4 v 0 q 4.6,0 7.25,-1.9 2.65,-1.9 2.65,-5.5 v 0 q 0,-3.3 -2.2,-5.7 -2.2,-2.4 -8.3,-5.1 v 0 q -5.4,-2.3 -8.4,-4.35 -3,-2.05 -4.2,-4.3 -1.2,-2.25 -1.2,-5.05 v 0 q 0,-2 0.8,-3.7 v 0 Q 7.5,26 5.05,22.45 2.6,18.9 2.6,14 v 0 Q 2.6,8.2 7.25,4.1 11.9,0 21.5,0 v 0 q 3.2,0 6.05,0.45 2.85,0.45 5.15,1.05 v 0 l -1,4.9 Q 29.6,5.8 27.1,5.4 24.6,5 21.7,5 V 5 Q 14.7,5 11.35,7.65 8,10.3 8,14.3 v 0 q 0,6.2 6.4,10.6 v 0 Q 18.5,22 25.4,22 v 0 q 5.4,0 9.8,0.9 v 0 l -1,4.9 q -4.3,-0.9 -8.7,-0.9 v 0 q -9.5,0 -9.5,5.7 v 0 q 0,2.7 2.2,4.55 2.2,1.85 7.8,4.25 v 0 q 7.9,3.5 11.1,7.1 3.2,3.6 3.2,8.5 v 0 q 0,5.5 -3.95,8.85 Q 32.4,69.2 25,69.2 Z" id="g1p0" inkscape:label="g1p0"></path><path style="fill:none;stroke:#000000;stroke-width:1px;stroke-linecap:butt;stroke-linejoin:miter;stroke-opacity:1" d="M 32.195312,3.9570313 C 29.517516,3.3920548 26.853519,2.6826719 24.104944,2.5703363 20.290481,2.3713017 16.348502,2.5087701 12.740764,3.8815862 10.852407,4.6021219 9.1450766,5.7716167 7.8412337,7.3207331 6.3610581,8.9609826 5.5203146,11.124923 5.3347674,13.314464 c -0.1747911,2.938974 0.5324158,5.976233 2.3158193,8.354966 1.5093072,2.172054 3.4870943,4.015319 5.7048803,5.447757 1.071865,0.493748 2.232636,0.166225 3.079957,-0.522047 2.313744,-1.519424 5.13677,-1.852468 7.82892,-2.103682 3.504801,-0.215997 6.961276,0.519358 10.419248,0.961672" id="g1s0" inkscape:label="g1s0" sodipodi:nodetypes="cccccccccc"></path><path style="fill:none;stroke:#000000;stroke-width:1px;stroke-linecap:butt;stroke-linejoin:miter;stroke-opacity:1" d="m 14.650369,27.477728 c -0.705271,1.912778 -1.668325,3.883477 -1.33497,5.978125 0.188021,2.727507 2.064459,4.993078 4.297216,6.411016 3.00607,1.755238 6.128651,3.304418 9.315052,4.702674 3.400531,1.680648 6.992427,3.566981 9.094891,6.854879 2.186574,3.547622 2.169877,8.634874 -0.768645,11.763078 -2.622133,2.820118 -6.681811,3.570434 -10.3762,3.558246 -4.980966,0.03675 -9.923519,-1.625417 -13.910245,-4.602804 C 7.6139201,59.718447 4.8262876,56.625964 2.34375,53.335937" id="g1s1" inkscape:label="g1s1"></path></g></svg>