<?xml version="1.0" encoding="UTF-8" standalone="no"?><svg width="40" height="60.299999" version="1.1" id="svg4" sodipodi:docname="1_num.svg" inkscape:version="1.2.1 (9c6d41e4, 2022-07-14)" xmlns:inkscape="http://www.inkscape.org/namespaces/inkscape" xmlns:sodipodi="http://sodipodi.sourceforge.net/DTD/sodipodi-0.dtd" xmlns="http://www.w3.org/2000/svg" xmlns:svg="http://www.w3.org/2000/svg"><defs id="defs8"></defs><sodipodi:namedview id="namedview6" pagecolor="#ffffff" bordercolor="#666666" borderopacity="1.0" inkscape:showpageshadow="2" inkscape:pageopacity="0.0" inkscape:pagecheckerboard="0" inkscape:deskcolor="#d1d1d1" showgrid="false" inkscape:zoom="8" inkscape:cx="28.6875" inkscape:cy="39.375" inkscape:window-width="1338" inkscape:window-height="864" inkscape:window-x="126" inkscape:window-y="98" inkscape:window-maximized="0" inkscape:current-layer="g337"></sodipodi:namedview><g id="g0" inkscape:label="g0" transform="scale(0.99916289,1)"><path d="m 39.533094,60.3 h -1.000838 q -6.705614,0 -9.908295,-3 v 0 q -1.701424,-1.6 -2.602178,-4.1 -0.900754,-2.5 -0.900754,-6.7 v 0 -16.8 q -2.101759,1.1 -4.303603,1.65 -2.201843,0.55 -4.904105,0.55 v 0 q -4.603854,0 -8.2068699,-2 Q 4.103435,27.9 2.0517175,24.3 0,20.7 0,16 v 0 Q 0,11.5 1.9015918,7.9 3.8031837,4.3 7.2560741,2.15 10.708965,0 15.412902,0 v 0 q 3.603016,0 6.305279,1.15 2.702262,1.15 4.50377,3.25 v 0 q 4.203518,4.4 4.203518,13.2 v 0 28.6 q 0,3.2 0.550461,4.85 0.550461,1.65 1.651383,2.55 v 0 q 1.201005,1.2 3.202681,1.45 2.001675,0.25 4.203518,0.25 v 0 z M 5.4045242,16.2 v 0 q 0,5 2.9524715,7.9 2.9524713,2.9 7.6564093,2.9 v 0 q 5.104273,0 9.107624,-3.1 v 0 -5.5 q 0,-7.3 -2.602178,-10.5 v 0 Q 20.016756,5 15.512986,5 V 5 Q 10.909132,5 8.1568282,8.05 5.4045242,11.1 5.4045242,16.2 Z" id="g0p0" inkscape:label="g0p0" style="stroke-width:1.00042"></path><path style="fill:none;stroke:#000000;stroke-width:1px;stroke-linecap:butt;stroke-linejoin:miter;stroke-opacity:1" d="M 27.734375,25.402344 C 25.756709,26.950277 23.329695,27.71765 21.03125,28.644531 15.576844,30.39353 8.7144506,29.246919 5.201564,24.393573 1.8240793,19.608996 1.8682961,12.707759 5.0183834,7.8169969 8.3641756,2.5177303 15.836905,1.1645999 21.289062,3.7578087 c 4.399226,2.1524604 6.207372,7.2670493 6.390628,11.8828123 0.173031,8.652422 0.05371,17.311355 0.08088,25.96632 0.167563,4.310819 -0.756605,9.211188 1.986879,12.929315 C 32.13428,57.674575 36.442924,57.585369 40,57.824219" id="g0s0" sodipodi:nodetypes="aaaaaaaac" inkscape:label="g0s0"></path></g></svg>