<?xml version="1.0" encoding="UTF-8" standalone="no"?><svg width="92.5" height="61.299999" version="1.1" id="svg4186" sodipodi:docname="23.svg" inkscape:version="1.2.1 (9c6d41e410, 2022-07-14)" xmlns:inkscape="http://www.inkscape.org/namespaces/inkscape" xmlns:sodipodi="http://sodipodi.sourceforge.net/DTD/sodipodi-0.dtd" xmlns="http://www.w3.org/2000/svg" xmlns:svg="http://www.w3.org/2000/svg"><defs id="defs4190"></defs><sodipodi:namedview id="namedview4188" pagecolor="#ffffff" bordercolor="#666666" borderopacity="1.0" inkscape:showpageshadow="2" inkscape:pageopacity="0.0" inkscape:pagecheckerboard="0" inkscape:deskcolor="#d1d1d1" showgrid="false" inkscape:zoom="1.809816" inkscape:cx="46.689828" inkscape:cy="35.915253" inkscape:window-width="1920" inkscape:window-height="1027" inkscape:window-x="-8" inkscape:window-y="-8" inkscape:window-maximized="1" inkscape:current-layer="svg4186"></sodipodi:namedview><g id="g0" inkscape:label="g0"><path d="m 33.6,60.3 v 0 Q 28,60.3 23.95,57.85 19.9,55.4 16.7,50.9 13.5,46.4 10.6,40.3 v 0 q -1,0 -2,0 v 0 Q 0,40.3 0,35.3 v 0 Q 0,33.2 1.4,32.15 2.8,31.1 5,31.1 v 0 q 4.6,0 8.4,3.7 v 0 q 6.9,-1.2 11.5,-5.25 4.6,-4.05 4.6,-10.75 v 0 Q 29.5,12.1 25.65,8.55 21.8,5 15.1,5 V 5 Q 11.8,5 8.6,5.7 5.4,6.4 1.8,8 V 8 L 0,3.3 Q 3.8,1.8 7.6,0.9 11.4,0 15.2,0 V 0 Q 24.1,0 29.55,4.9 35,9.8 35,18.8 v 0 q 0,5.5 -2.5,9.75 -2.5,4.25 -6.8,7.05 -4.3,2.8 -9.8,4 v 0 q 2.9,5.5 5.45,8.95 2.55,3.45 5.45,5.05 2.9,1.6 7,1.6 v 0 q 2.1,0 4.05,-0.55 1.95,-0.55 3.65,-1.45 v 0 l 1.9,4.7 q -4.5,2.4 -9.8,2.4 z" id="g0p0" inkscape:label="g0p0"></path><path style="fill:none;stroke:#000000;stroke-width:1px;stroke-linecap:butt;stroke-linejoin:miter;stroke-opacity:1" d="M 0.9279278,5.7323961 C 4.504795,4.4130108 8.0925106,2.9558522 11.935617,2.6616282 17.279081,2.1021439 23.167216,2.827949 27.342667,6.5025167 31.026034,9.5975667 32.419946,14.6045 32.25614,19.271063 32.29817,24.673097 29.392476,29.868139 24.958223,32.894192 21.309141,35.547744 16.902435,36.90382 12.508309,37.674486 9.7125761,37.878688 6.8005868,38.035443 4.0942094,37.170277 3.2116721,36.873734 2.5295086,36.674218 2.4711533,35.231301 2.4257489,33.629366 4.224952,33.58467 5.2372826,33.651835 c 2.5754222,0.101539 4.7918314,1.137666 6.4513284,3.187089 0.53139,0.656249 0.79125,1.359637 1.601684,3.149514 1.193161,2.649792 2.537682,4.765686 4.004989,7.185999 2.705054,4.346892 6.365138,8.646742 11.524275,9.969289 4.110265,1.099646 8.606202,0.712068 12.426754,-1.170887 l 1.183374,-0.480659" id="g0s0" sodipodi:nodetypes="cccccccccsccccc" inkscape:label="g0s0"></path></g><g id="g1" inkscape:label="g1" transform="translate(50.5)"><path d="m 23.5,61.3 v 0 Q 15.7,61.3 10.05,57.2 4.4,53.1 0,45.8 v 0 L 4.5,43 q 4.5,7.2 9,10.25 4.5,3.05 9.9,3.05 v 0 q 5.9,0 9.6,-3.1 3.7,-3.1 3.7,-9 v 0 q 0,-4.3 -1.85,-7.55 Q 33,33.4 29.7,31 v 0 q -5.4,2.3 -13,2.8 v 0 l -1,-5.1 Q 25,28.1 30.2,25 q 5.2,-3.1 5.2,-9.3 v 0 Q 35.4,10.8 32.15,7.9 28.9,5 22.8,5 V 5 Q 19.2,5 15.85,5.8 12.5,6.6 8.9,8.3 v 0 L 7.2,3.6 Q 10.8,2 14.85,1 18.9,0 22.9,0 v 0 q 9,0 13.4,4.35 4.4,4.35 4.4,11.25 v 0 q 0,4.1 -1.65,7.3 -1.65,3.2 -4.65,5.4 v 0 q 3.7,3.3 5.65,7.35 Q 42,39.7 42,44.3 v 0 q 0,7.6 -4.95,12.3 -4.95,4.7 -13.55,4.7 z" id="g1p0" inkscape:label="g1p0"></path><path style="fill:none;stroke:#000000;stroke-width:1px;stroke-linecap:butt;stroke-linejoin:miter;stroke-opacity:1" d="M 8.0859375,6.0507812 C 11.096519,4.8646986 14.074574,3.4918529 17.298717,2.9916304 21.285555,2.3063178 25.46578,2.237531 29.375825,3.3782312 c 2.859255,0.8546074 5.430026,2.732003 6.911676,5.3477389 1.6451,2.7514589 2.061474,6.1193339 1.598792,9.2563699 -0.461682,3.2253 -2.279161,6.196127 -4.87462,8.152426 -1.313346,1.218224 -2.925877,2.049517 -4.625062,2.584143 -3.895271,1.526026 -8.07549,1.982233 -12.191305,2.523278" id="g1s0" inkscape:label="g1s0"></path><path style="fill:none;stroke:#000000;stroke-width:1px;stroke-linecap:butt;stroke-linejoin:miter;stroke-opacity:1" d="m 31.875,29.28125 c 1.090595,1.237504 2.429402,2.24241 3.41892,3.577257 2.596848,3.109946 4.043263,7.119213 4.068617,11.16803 0.08736,3.53847 -0.90771,7.216223 -3.340846,9.86441 -2.885072,3.328834 -7.37612,4.766333 -11.67116,4.895721 C 19.88718,58.96785 15.331933,57.796504 11.686219,55.170522 7.7589124,52.361243 4.991417,48.296454 2.2734375,44.382812" id="g1s1" inkscape:label="g1s1"></path></g></svg>