<?xml version="1.0" encoding="UTF-8" standalone="no"?><svg width="99.900002" height="61.299999" version="1.1" id="svg6102" sodipodi:docname="38.svg" inkscape:version="1.2.1 (9c6d41e410, 2022-07-14)" xmlns:inkscape="http://www.inkscape.org/namespaces/inkscape" xmlns:sodipodi="http://sodipodi.sourceforge.net/DTD/sodipodi-0.dtd" xmlns="http://www.w3.org/2000/svg" xmlns:svg="http://www.w3.org/2000/svg"><defs id="defs6106"></defs><sodipodi:namedview id="namedview6104" pagecolor="#ffffff" bordercolor="#666666" borderopacity="1.0" inkscape:showpageshadow="2" inkscape:pageopacity="0.0" inkscape:pagecheckerboard="0" inkscape:deskcolor="#d1d1d1" showgrid="false" inkscape:zoom="1.809816" inkscape:cx="51.110167" inkscape:cy="35.915253" inkscape:window-width="1920" inkscape:window-height="1027" inkscape:window-x="-8" inkscape:window-y="-8" inkscape:window-maximized="1" inkscape:current-layer="svg6102"></sodipodi:namedview><g id="g0" inkscape:label="g0"><path d="m 23.5,61.3 v 0 Q 15.7,61.3 10.05,57.2 4.4,53.1 0,45.8 v 0 L 4.5,43 q 4.5,7.2 9,10.25 4.5,3.05 9.9,3.05 v 0 q 5.9,0 9.6,-3.1 3.7,-3.1 3.7,-9 v 0 q 0,-4.3 -1.85,-7.55 Q 33,33.4 29.7,31 v 0 q -5.4,2.3 -13,2.8 v 0 l -1,-5.1 Q 25,28.1 30.2,25 q 5.2,-3.1 5.2,-9.3 v 0 Q 35.4,10.8 32.15,7.9 28.9,5 22.8,5 V 5 Q 19.2,5 15.85,5.8 12.5,6.6 8.9,8.3 v 0 L 7.2,3.6 Q 10.8,2 14.85,1 18.9,0 22.9,0 v 0 q 9,0 13.4,4.35 4.4,4.35 4.4,11.25 v 0 q 0,4.1 -1.65,7.3 -1.65,3.2 -4.65,5.4 v 0 q 3.7,3.3 5.65,7.35 Q 42,39.7 42,44.3 v 0 q 0,7.6 -4.95,12.3 -4.95,4.7 -13.55,4.7 z" id="g0p0" inkscape:label="g0p0"></path><path style="fill:none;stroke:#000000;stroke-width:1px;stroke-linecap:butt;stroke-linejoin:miter;stroke-opacity:1" d="M 8.0859375,6.0507812 C 11.096519,4.8646986 14.074574,3.4918529 17.298717,2.9916304 21.285555,2.3063178 25.46578,2.237531 29.375825,3.3782312 c 2.859255,0.8546074 5.430026,2.732003 6.911676,5.3477389 1.6451,2.7514589 2.061474,6.1193339 1.598792,9.2563699 -0.461682,3.2253 -2.279161,6.196127 -4.87462,8.152426 -1.313346,1.218224 -2.925877,2.049517 -4.625062,2.584143 -3.895271,1.526026 -8.07549,1.982233 -12.191305,2.523278" id="g0s0" inkscape:label="g0s0"></path><path style="fill:none;stroke:#000000;stroke-width:1px;stroke-linecap:butt;stroke-linejoin:miter;stroke-opacity:1" d="m 31.875,29.28125 c 1.090595,1.237504 2.429402,2.24241 3.41892,3.577257 2.596848,3.109946 4.043263,7.119213 4.068617,11.16803 0.08736,3.53847 -0.90771,7.216223 -3.340846,9.86441 -2.885072,3.328834 -7.37612,4.766333 -11.67116,4.895721 C 19.88718,58.96785 15.331933,57.796504 11.686219,55.170522 7.7589124,52.361243 4.991417,48.296454 2.2734375,44.382812" id="g0s1" inkscape:label="g0s1"></path></g><g id="g1" inkscape:label="g1" transform="translate(58.6)"><path d="m 19.5,61.3 v 0 q -5.6,0 -10,-2.05 Q 5.1,57.2 2.55,53.4 0,49.6 0,44.3 v 0 Q 0,40.6 1.15,37.4 2.3,34.2 4.95,30.75 7.6,27.3 12.2,22.8 v 0 l 23,-22.8 4,4 -21.6,20.9 q -4.4,4.3 -7.1,7.5 -2.7,3.2 -3.9,6 -1.2,2.8 -1.2,6 v 0 q 0,5.7 3.95,8.8 3.95,3.1 10.35,3.1 v 0 q 5.6,0 10.1,-1.6 4.5,-1.6 9,-4.4 v 0 l 2.5,4.6 q -4.5,2.8 -9.85,4.6 -5.35,1.8 -11.95,1.8 z" id="g1p0" inkscape:label="g1p0"></path><path style="fill:none;stroke:#000000;stroke-width:1px;stroke-linecap:butt;stroke-linejoin:miter;stroke-opacity:1" d="M 40.074219,52.644536 C 38.688423,53.368756 37.30336,54.094385 35.917113,54.81774 30.64812,57.654375 24.632255,59.011859 18.656689,58.77497 13.60131,58.658126 8.2288005,56.784032 5.1860018,52.553185 2.5188144,48.960825 2.2060949,44.11634 3.2537223,39.889137 4.5351182,34.68448 8.3424514,30.66595 11.894964,26.858933 20.259838,18.504221 28.755703,10.280124 37.171875,1.9765625" id="g1s0" inkscape:label="g1s0" sodipodi:nodetypes="ccccccc"></path></g></svg>