<?xml version="1.0" encoding="UTF-8" standalone="no"?><svg width="100" height="61.299999" version="1.1" id="svg6638" sodipodi:docname="43.svg" inkscape:version="1.2.1 (9c6d41e410, 2022-07-14)" xmlns:inkscape="http://www.inkscape.org/namespaces/inkscape" xmlns:sodipodi="http://sodipodi.sourceforge.net/DTD/sodipodi-0.dtd" xmlns="http://www.w3.org/2000/svg" xmlns:svg="http://www.w3.org/2000/svg"><defs id="defs6642"></defs><sodipodi:namedview id="namedview6640" pagecolor="#ffffff" bordercolor="#666666" borderopacity="1.0" inkscape:showpageshadow="2" inkscape:pageopacity="0.0" inkscape:pagecheckerboard="0" inkscape:deskcolor="#d1d1d1" showgrid="false" inkscape:zoom="4.510257" inkscape:cx="55.983507" inkscape:cy="25.054005" inkscape:window-width="1920" inkscape:window-height="1027" inkscape:window-x="-8" inkscape:window-y="-8" inkscape:window-maximized="1" inkscape:current-layer="svg6638"></sodipodi:namedview><g id="g0" inkscape:label="g0"><path d="m 25.3,61.3 v 0 q -5.1,0 -8.35,-2.05 Q 13.7,57.2 12.15,53.95 10.6,50.7 10.6,47 v 0 q 0,-5.2 2.65,-10.15 Q 15.9,31.9 22.7,25.2 v 0 Q 18.6,21.1 13.05,15.85 7.5,10.6 0,3.9 v 0 L 3.5,0 q 7.3,6.6 12.8,11.9 5.5,5.3 9.8,9.9 v 0 Q 30.5,17.4 36,12.05 41.5,6.7 48.6,0 v 0 l 3.5,3.9 Q 44.8,10.7 39.25,15.95 33.7,21.2 29.5,25.3 v 0 q 5.9,6.5 8.2,11.3 2.3,4.8 2.3,10.2 v 0 q 0,3.8 -1.5,7.1 -1.5,3.3 -4.75,5.35 -3.25,2.05 -8.45,2.05 z m 0,-4.9 v 0 q 4.6,0 7,-2.7 2.4,-2.7 2.4,-7 v 0 q 0,-4.3 -1.85,-8.25 Q 31,34.5 26,28.9 v 0 q -5.7,5.8 -7.9,9.8 -2.2,4 -2.2,8.4 v 0 q 0,4.2 2.4,6.75 2.4,2.55 7,2.55 z" id="g0p0" inkscape:label="g0p0"></path><path style="fill:none;stroke:#000000;stroke-width:1px;stroke-linecap:butt;stroke-linejoin:miter;stroke-opacity:1" d="M 1.7382812,1.9648437 C 9.7217767,9.1602374 17.607549,16.47103 25.086203,24.194316 c 3.795286,4.108305 7.696419,8.29258 10.187591,13.355382 1.995534,4.299906 2.799865,9.392657 1.324488,13.975184 -1.189818,3.887507 -4.83448,6.741853 -8.854411,7.154474 -4.187964,0.593203 -9.00815,-0.198517 -11.822543,-3.637737 C 12.664026,51.131851 12.747086,45.487158 14.294897,40.881023 16.503824,34.814985 21.271511,30.209878 25.685535,25.690801 33.725778,17.593965 42.041738,9.7751631 50.351548,1.9570312" id="g0s0" inkscape:label="g0s0"></path></g><g id="g1" inkscape:label="g1" transform="translate(58)"><path d="m 23.5,61.3 v 0 Q 15.7,61.3 10.05,57.2 4.4,53.1 0,45.8 v 0 L 4.5,43 q 4.5,7.2 9,10.25 4.5,3.05 9.9,3.05 v 0 q 5.9,0 9.6,-3.1 3.7,-3.1 3.7,-9 v 0 q 0,-4.3 -1.85,-7.55 Q 33,33.4 29.7,31 v 0 q -5.4,2.3 -13,2.8 v 0 l -1,-5.1 Q 25,28.1 30.2,25 q 5.2,-3.1 5.2,-9.3 v 0 Q 35.4,10.8 32.15,7.9 28.9,5 22.8,5 V 5 Q 19.2,5 15.85,5.8 12.5,6.6 8.9,8.3 v 0 L 7.2,3.6 Q 10.8,2 14.85,1 18.9,0 22.9,0 v 0 q 9,0 13.4,4.35 4.4,4.35 4.4,11.25 v 0 q 0,4.1 -1.65,7.3 -1.65,3.2 -4.65,5.4 v 0 q 3.7,3.3 5.65,7.35 Q 42,39.7 42,44.3 v 0 q 0,7.6 -4.95,12.3 -4.95,4.7 -13.55,4.7 z" id="g1p0" inkscape:label="g1p0"></path><path style="fill:none;stroke:#000000;stroke-width:1px;stroke-linecap:butt;stroke-linejoin:miter;stroke-opacity:1" d="M 8.0859375,6.0507812 C 11.096519,4.8646986 14.074574,3.4918529 17.298717,2.9916304 21.285555,2.3063178 25.46578,2.237531 29.375825,3.3782312 c 2.859255,0.8546074 5.430026,2.732003 6.911676,5.3477389 1.6451,2.7514589 2.061474,6.1193339 1.598792,9.2563699 -0.461682,3.2253 -2.279161,6.196127 -4.87462,8.152426 -1.313346,1.218224 -2.925877,2.049517 -4.625062,2.584143 -3.895271,1.526026 -8.07549,1.982233 -12.191305,2.523278" id="g1s0" inkscape:label="g1s0"></path><path style="fill:none;stroke:#000000;stroke-width:1px;stroke-linecap:butt;stroke-linejoin:miter;stroke-opacity:1" d="m 31.875,29.28125 c 1.090595,1.237504 2.429402,2.24241 3.41892,3.577257 2.596848,3.109946 4.043263,7.119213 4.068617,11.16803 0.08736,3.53847 -0.90771,7.216223 -3.340846,9.86441 -2.885072,3.328834 -7.37612,4.766333 -11.67116,4.895721 C 19.88718,58.96785 15.331933,57.796504 11.686219,55.170522 7.7589124,52.361243 4.991417,48.296454 2.2734375,44.382812" id="g1s1" inkscape:label="g1s1"></path></g></svg>