<?xml version="1.0" encoding="UTF-8" standalone="no"?><svg width="102.3" height="69.199997" version="1.1" id="svg8703" sodipodi:docname="56.svg" inkscape:version="1.2.1 (9c6d41e410, 2022-07-14)" xmlns:inkscape="http://www.inkscape.org/namespaces/inkscape" xmlns:sodipodi="http://sodipodi.sourceforge.net/DTD/sodipodi-0.dtd" xmlns="http://www.w3.org/2000/svg" xmlns:svg="http://www.w3.org/2000/svg"><defs id="defs8707"></defs><sodipodi:namedview id="namedview8705" pagecolor="#ffffff" bordercolor="#666666" borderopacity="1.0" inkscape:showpageshadow="2" inkscape:pageopacity="0.0" inkscape:pagecheckerboard="0" inkscape:deskcolor="#d1d1d1" showgrid="false" inkscape:zoom="1.809816" inkscape:cx="54.425421" inkscape:cy="35.915253" inkscape:window-width="1920" inkscape:window-height="1027" inkscape:window-x="-8" inkscape:window-y="-8" inkscape:window-maximized="1" inkscape:current-layer="svg8703"></sodipodi:namedview><g id="g0" inkscape:label="g0" transform="matrix(0.99953901,0,0,1,0,2.0391698e-4)"><path d="m 24.111115,43.7 v 0 q -7.503459,0 -11.305212,-4.5 v 0 Q 10.905027,37.1 10.004612,34.3 9.1041969,31.5 9.1041969,27.4 v 0 -12.3 q 0,-2.7 -0.3501614,-4.2 Q 8.4038741,9.4 7.6035051,8.3 v 0 Q 6.6030439,6.9 4.5520985,6.45 2.501153,6 0,6 V 6 L 0.5002306,1.1 h 0.9004151 q 7.1032745,0 10.2047043,3.6 v 0 q 1.500692,1.6 2.150992,4.05 0.650299,2.45 0.650299,6.15 v 0 12.3 q 0,3.4 0.6503,5.4 0.6503,2 1.850853,3.3 v 0 q 2.401107,2.9 7.803598,2.9 v 0 q 3.501614,0 6.553021,-1.6 3.051406,-1.6 5.452513,-4.2 V 33 0 l 5.302445,0.8 v 45.4 q 0,3.2 0.50023,4.85 0.500231,1.65 1.700784,2.55 v 0 q 1.200554,1.2 3.151453,1.45 1.950899,0.25 4.25196,0.25 v 0 l -0.500231,5 h -1.000461 q -6.70309,0 -9.904566,-3 v 0 q -1.80083,-1.6 -2.651222,-4.1 -0.850392,-2.5 -0.850392,-6.7 v 0 -7.4 q -2.501153,2.1 -5.652606,3.35 -3.151452,1.25 -6.953205,1.25 z" id="g0p0" inkscape:label="g0p0" style="stroke-width:1.00023"></path><path style="fill:none;stroke:#000000;stroke-width:1px;stroke-linecap:butt;stroke-linejoin:miter;stroke-opacity:1" d="M 0.25037075,3.5310909 C 3.0161035,3.8728192 6.0577988,3.6836009 8.4273296,5.4036406 10.7233,6.9915615 11.44615,9.9017242 11.696007,12.530134 c 0.146985,5.613562 -0.02914,11.23582 0.114318,16.850213 0.09923,3.19237 1.206218,6.427954 3.520524,8.692562 2.60426,2.702449 6.618605,3.338062 10.216831,3.136976 2.67339,-0.136512 5.257816,-1.043532 7.491404,-2.50501 1.907385,-1.169955 3.873109,-2.341265 5.461072,-3.931602 0.731612,-0.770398 0.958134,-1.830491 0.838391,-2.860779 C 39.342885,21.274996 39.347224,10.637498 39.351562,0" id="g0s0" inkscape:label="g0s0"></path><path style="fill:none;stroke:#000000;stroke-width:1px;stroke-linecap:butt;stroke-linejoin:miter;stroke-opacity:1" d="m 39.34375,33.539062 c 0.01223,4.527744 -0.025,9.056001 0.01959,13.58341 0.04909,1.812526 0.161582,3.665444 0.777423,5.385404 0.545993,1.512276 1.632698,2.798178 2.989758,3.650459 1.236287,0.826344 2.707965,1.205012 4.165956,1.396324 1.431674,0.111776 2.867334,0.15546 4.301185,0.230497" id="g0s1" inkscape:label="g0s1"></path></g><g id="g1" inkscape:label="g1" transform="translate(62)"><path d="m 25,69.2 v 0 Q 16.8,69.2 10.65,65.15 4.5,61.1 0,54.9 v 0 l 4.5,-3 q 9,12.4 20.4,12.4 v 0 q 4.6,0 7.25,-1.9 2.65,-1.9 2.65,-5.5 v 0 q 0,-3.3 -2.2,-5.7 -2.2,-2.4 -8.3,-5.1 v 0 q -5.4,-2.3 -8.4,-4.35 -3,-2.05 -4.2,-4.3 -1.2,-2.25 -1.2,-5.05 v 0 q 0,-2 0.8,-3.7 v 0 Q 7.5,26 5.05,22.45 2.6,18.9 2.6,14 v 0 Q 2.6,8.2 7.25,4.1 11.9,0 21.5,0 v 0 q 3.2,0 6.05,0.45 2.85,0.45 5.15,1.05 v 0 l -1,4.9 Q 29.6,5.8 27.1,5.4 24.6,5 21.7,5 V 5 Q 14.7,5 11.35,7.65 8,10.3 8,14.3 v 0 q 0,6.2 6.4,10.6 v 0 Q 18.5,22 25.4,22 v 0 q 5.4,0 9.8,0.9 v 0 l -1,4.9 q -4.3,-0.9 -8.7,-0.9 v 0 q -9.5,0 -9.5,5.7 v 0 q 0,2.7 2.2,4.55 2.2,1.85 7.8,4.25 v 0 q 7.9,3.5 11.1,7.1 3.2,3.6 3.2,8.5 v 0 q 0,5.5 -3.95,8.85 Q 32.4,69.2 25,69.2 Z" id="g1p0" inkscape:label="g1p0"></path><path style="fill:none;stroke:#000000;stroke-width:1px;stroke-linecap:butt;stroke-linejoin:miter;stroke-opacity:1" d="M 32.195312,3.9570313 C 29.517516,3.3920548 26.853519,2.6826719 24.104944,2.5703363 20.290481,2.3713017 16.348502,2.5087701 12.740764,3.8815862 10.852407,4.6021219 9.1450766,5.7716167 7.8412337,7.3207331 6.3610581,8.9609826 5.5203146,11.124923 5.3347674,13.314464 c -0.1747911,2.938974 0.5324158,5.976233 2.3158193,8.354966 1.5093072,2.172054 3.4870943,4.015319 5.7048803,5.447757 1.071865,0.493748 2.232636,0.166225 3.079957,-0.522047 2.313744,-1.519424 5.13677,-1.852468 7.82892,-2.103682 3.504801,-0.215997 6.961276,0.519358 10.419248,0.961672" id="g1s0" inkscape:label="g1s0" sodipodi:nodetypes="cccccccccc"></path><path style="fill:none;stroke:#000000;stroke-width:1px;stroke-linecap:butt;stroke-linejoin:miter;stroke-opacity:1" d="m 14.650369,27.477728 c -0.705271,1.912778 -1.668325,3.883477 -1.33497,5.978125 0.188021,2.727507 2.064459,4.993078 4.297216,6.411016 3.00607,1.755238 6.128651,3.304418 9.315052,4.702674 3.400531,1.680648 6.992427,3.566981 9.094891,6.854879 2.186574,3.547622 2.169877,8.634874 -0.768645,11.763078 -2.622133,2.820118 -6.681811,3.570434 -10.3762,3.558246 -4.980966,0.03675 -9.923519,-1.625417 -13.910245,-4.602804 C 7.6139201,59.718447 4.8262876,56.625964 2.34375,53.335937" id="g1s1" inkscape:label="g1s1"></path></g></svg>