<?xml version="1.0" encoding="UTF-8" standalone="no"?><svg width="103" height="61.299999" version="1.1" id="svg8923" sodipodi:docname="58.svg" inkscape:version="1.2.1 (9c6d41e410, 2022-07-14)" xmlns:inkscape="http://www.inkscape.org/namespaces/inkscape" xmlns:sodipodi="http://sodipodi.sourceforge.net/DTD/sodipodi-0.dtd" xmlns="http://www.w3.org/2000/svg" xmlns:svg="http://www.w3.org/2000/svg"><defs id="defs8927"></defs><sodipodi:namedview id="namedview8925" pagecolor="#ffffff" bordercolor="#666666" borderopacity="1.0" inkscape:showpageshadow="2" inkscape:pageopacity="0.0" inkscape:pagecheckerboard="0" inkscape:deskcolor="#d1d1d1" showgrid="false" inkscape:zoom="1.809816" inkscape:cx="54.425421" inkscape:cy="35.915253" inkscape:window-width="1920" inkscape:window-height="1027" inkscape:window-x="-8" inkscape:window-y="-8" inkscape:window-maximized="1" inkscape:current-layer="svg8923"></sodipodi:namedview><g id="g0" inkscape:label="g0" transform="matrix(0.99953901,0,0,1,0,2.0391698e-4)"><path d="m 24.111115,43.7 v 0 q -7.503459,0 -11.305212,-4.5 v 0 Q 10.905027,37.1 10.004612,34.3 9.1041969,31.5 9.1041969,27.4 v 0 -12.3 q 0,-2.7 -0.3501614,-4.2 Q 8.4038741,9.4 7.6035051,8.3 v 0 Q 6.6030439,6.9 4.5520985,6.45 2.501153,6 0,6 V 6 L 0.5002306,1.1 h 0.9004151 q 7.1032745,0 10.2047043,3.6 v 0 q 1.500692,1.6 2.150992,4.05 0.650299,2.45 0.650299,6.15 v 0 12.3 q 0,3.4 0.6503,5.4 0.6503,2 1.850853,3.3 v 0 q 2.401107,2.9 7.803598,2.9 v 0 q 3.501614,0 6.553021,-1.6 3.051406,-1.6 5.452513,-4.2 V 33 0 l 5.302445,0.8 v 45.4 q 0,3.2 0.50023,4.85 0.500231,1.65 1.700784,2.55 v 0 q 1.200554,1.2 3.151453,1.45 1.950899,0.25 4.25196,0.25 v 0 l -0.500231,5 h -1.000461 q -6.70309,0 -9.904566,-3 v 0 q -1.80083,-1.6 -2.651222,-4.1 -0.850392,-2.5 -0.850392,-6.7 v 0 -7.4 q -2.501153,2.1 -5.652606,3.35 -3.151452,1.25 -6.953205,1.25 z" id="g0p0" inkscape:label="g0p0" style="stroke-width:1.00023"></path><path style="fill:none;stroke:#000000;stroke-width:1px;stroke-linecap:butt;stroke-linejoin:miter;stroke-opacity:1" d="M 0.25037075,3.5310909 C 3.0161035,3.8728192 6.0577988,3.6836009 8.4273296,5.4036406 10.7233,6.9915615 11.44615,9.9017242 11.696007,12.530134 c 0.146985,5.613562 -0.02914,11.23582 0.114318,16.850213 0.09923,3.19237 1.206218,6.427954 3.520524,8.692562 2.60426,2.702449 6.618605,3.338062 10.216831,3.136976 2.67339,-0.136512 5.257816,-1.043532 7.491404,-2.50501 1.907385,-1.169955 3.873109,-2.341265 5.461072,-3.931602 0.731612,-0.770398 0.958134,-1.830491 0.838391,-2.860779 C 39.342885,21.274996 39.347224,10.637498 39.351562,0" id="g0s0" inkscape:label="g0s0"></path><path style="fill:none;stroke:#000000;stroke-width:1px;stroke-linecap:butt;stroke-linejoin:miter;stroke-opacity:1" d="m 39.34375,33.539062 c 0.01223,4.527744 -0.025,9.056001 0.01959,13.58341 0.04909,1.812526 0.161582,3.665444 0.777423,5.385404 0.545993,1.512276 1.632698,2.798178 2.989758,3.650459 1.236287,0.826344 2.707965,1.205012 4.165956,1.396324 1.431674,0.111776 2.867334,0.15546 4.301185,0.230497" id="g0s1" inkscape:label="g0s1"></path></g><g id="g1" inkscape:label="g1" transform="translate(61.7)"><path d="m 19.5,61.3 v 0 q -5.6,0 -10,-2.05 Q 5.1,57.2 2.55,53.4 0,49.6 0,44.3 v 0 Q 0,40.6 1.15,37.4 2.3,34.2 4.95,30.75 7.6,27.3 12.2,22.8 v 0 l 23,-22.8 4,4 -21.6,20.9 q -4.4,4.3 -7.1,7.5 -2.7,3.2 -3.9,6 -1.2,2.8 -1.2,6 v 0 q 0,5.7 3.95,8.8 3.95,3.1 10.35,3.1 v 0 q 5.6,0 10.1,-1.6 4.5,-1.6 9,-4.4 v 0 l 2.5,4.6 q -4.5,2.8 -9.85,4.6 -5.35,1.8 -11.95,1.8 z" id="g1p0" inkscape:label="g1p0"></path><path style="fill:none;stroke:#000000;stroke-width:1px;stroke-linecap:butt;stroke-linejoin:miter;stroke-opacity:1" d="M 40.074219,52.644536 C 38.688423,53.368756 37.30336,54.094385 35.917113,54.81774 30.64812,57.654375 24.632255,59.011859 18.656689,58.77497 13.60131,58.658126 8.2288005,56.784032 5.1860018,52.553185 2.5188144,48.960825 2.2060949,44.11634 3.2537223,39.889137 4.5351182,34.68448 8.3424514,30.66595 11.894964,26.858933 20.259838,18.504221 28.755703,10.280124 37.171875,1.9765625" id="g1s0" inkscape:label="g1s0" sodipodi:nodetypes="ccccccc"></path></g></svg>