<?xml version="1.0" encoding="UTF-8" standalone="no"?><svg width="100.5" height="69.199997" version="1.1" id="svg9560" sodipodi:docname="64.svg" inkscape:version="1.2.1 (9c6d41e410, 2022-07-14)" xmlns:inkscape="http://www.inkscape.org/namespaces/inkscape" xmlns:sodipodi="http://sodipodi.sourceforge.net/DTD/sodipodi-0.dtd" xmlns="http://www.w3.org/2000/svg" xmlns:svg="http://www.w3.org/2000/svg"><defs id="defs9564"></defs><sodipodi:namedview id="namedview9562" pagecolor="#ffffff" bordercolor="#666666" borderopacity="1.0" inkscape:showpageshadow="2" inkscape:pageopacity="0.0" inkscape:pagecheckerboard="0" inkscape:deskcolor="#d1d1d1" showgrid="false" inkscape:zoom="1.809816" inkscape:cx="47.242371" inkscape:cy="35.915253" inkscape:window-width="1920" inkscape:window-height="1027" inkscape:window-x="-8" inkscape:window-y="-8" inkscape:window-maximized="1" inkscape:current-layer="svg9560"></sodipodi:namedview><g id="g0" inkscape:label="g0"><path d="m 25,69.2 v 0 Q 16.8,69.2 10.65,65.15 4.5,61.1 0,54.9 v 0 l 4.5,-3 q 9,12.4 20.4,12.4 v 0 q 4.6,0 7.25,-1.9 2.65,-1.9 2.65,-5.5 v 0 q 0,-3.3 -2.2,-5.7 -2.2,-2.4 -8.3,-5.1 v 0 q -5.4,-2.3 -8.4,-4.35 -3,-2.05 -4.2,-4.3 -1.2,-2.25 -1.2,-5.05 v 0 q 0,-2 0.8,-3.7 v 0 Q 7.5,26 5.05,22.45 2.6,18.9 2.6,14 v 0 Q 2.6,8.2 7.25,4.1 11.9,0 21.5,0 v 0 q 3.2,0 6.05,0.45 2.85,0.45 5.15,1.05 v 0 l -1,4.9 Q 29.6,5.8 27.1,5.4 24.6,5 21.7,5 V 5 Q 14.7,5 11.35,7.65 8,10.3 8,14.3 v 0 q 0,6.2 6.4,10.6 v 0 Q 18.5,22 25.4,22 v 0 q 5.4,0 9.8,0.9 v 0 l -1,4.9 q -4.3,-0.9 -8.7,-0.9 v 0 q -9.5,0 -9.5,5.7 v 0 q 0,2.7 2.2,4.55 2.2,1.85 7.8,4.25 v 0 q 7.9,3.5 11.1,7.1 3.2,3.6 3.2,8.5 v 0 q 0,5.5 -3.95,8.85 Q 32.4,69.2 25,69.2 Z" id="g0p0" inkscape:label="g0p0"></path><path style="fill:none;stroke:#000000;stroke-width:1px;stroke-linecap:butt;stroke-linejoin:miter;stroke-opacity:1" d="M 32.195312,3.9570313 C 29.517516,3.3920548 26.853519,2.6826719 24.104944,2.5703363 20.290481,2.3713017 16.348502,2.5087701 12.740764,3.8815862 10.852407,4.6021219 9.1450766,5.7716167 7.8412337,7.3207331 6.3610581,8.9609826 5.5203146,11.124923 5.3347674,13.314464 c -0.1747911,2.938974 0.5324158,5.976233 2.3158193,8.354966 1.5093072,2.172054 3.4870943,4.015319 5.7048803,5.447757 1.071865,0.493748 2.232636,0.166225 3.079957,-0.522047 2.313744,-1.519424 5.13677,-1.852468 7.82892,-2.103682 3.504801,-0.215997 6.961276,0.519358 10.419248,0.961672" id="g0s0" inkscape:label="g0s0" sodipodi:nodetypes="cccccccccc"></path><path style="fill:none;stroke:#000000;stroke-width:1px;stroke-linecap:butt;stroke-linejoin:miter;stroke-opacity:1" d="m 14.650369,27.477728 c -0.705271,1.912778 -1.668325,3.883477 -1.33497,5.978125 0.188021,2.727507 2.064459,4.993078 4.297216,6.411016 3.00607,1.755238 6.128651,3.304418 9.315052,4.702674 3.400531,1.680648 6.992427,3.566981 9.094891,6.854879 2.186574,3.547622 2.169877,8.634874 -0.768645,11.763078 -2.622133,2.820118 -6.681811,3.570434 -10.3762,3.558246 -4.980966,0.03675 -9.923519,-1.625417 -13.910245,-4.602804 C 7.6139201,59.718447 4.8262876,56.625964 2.34375,53.335937" id="g0s1" inkscape:label="g0s1"></path></g><g id="g1" inkscape:label="g1" transform="translate(48.4)"><path d="m 25.3,61.3 v 0 q -5.1,0 -8.35,-2.05 Q 13.7,57.2 12.15,53.95 10.6,50.7 10.6,47 v 0 q 0,-5.2 2.65,-10.15 Q 15.9,31.9 22.7,25.2 v 0 Q 18.6,21.1 13.05,15.85 7.5,10.6 0,3.9 v 0 L 3.5,0 q 7.3,6.6 12.8,11.9 5.5,5.3 9.8,9.9 v 0 Q 30.5,17.4 36,12.05 41.5,6.7 48.6,0 v 0 l 3.5,3.9 Q 44.8,10.7 39.25,15.95 33.7,21.2 29.5,25.3 v 0 q 5.9,6.5 8.2,11.3 2.3,4.8 2.3,10.2 v 0 q 0,3.8 -1.5,7.1 -1.5,3.3 -4.75,5.35 -3.25,2.05 -8.45,2.05 z m 0,-4.9 v 0 q 4.6,0 7,-2.7 2.4,-2.7 2.4,-7 v 0 q 0,-4.3 -1.85,-8.25 Q 31,34.5 26,28.9 v 0 q -5.7,5.8 -7.9,9.8 -2.2,4 -2.2,8.4 v 0 q 0,4.2 2.4,6.75 2.4,2.55 7,2.55 z" id="g1p0" inkscape:label="g1p0"></path><path style="fill:none;stroke:#000000;stroke-width:1px;stroke-linecap:butt;stroke-linejoin:miter;stroke-opacity:1" d="M 1.7382812,1.9648437 C 9.7217767,9.1602374 17.607549,16.47103 25.086203,24.194316 c 3.795286,4.108305 7.696419,8.29258 10.187591,13.355382 1.995534,4.299906 2.799865,9.392657 1.324488,13.975184 -1.189818,3.887507 -4.83448,6.741853 -8.854411,7.154474 -4.187964,0.593203 -9.00815,-0.198517 -11.822543,-3.637737 C 12.664026,51.131851 12.747086,45.487158 14.294897,40.881023 16.503824,34.814985 21.271511,30.209878 25.685535,25.690801 33.725778,17.593965 42.041738,9.7751631 50.351548,1.9570312" id="g1s0" inkscape:label="g1s0"></path></g></svg>