<?xml version="1.0" encoding="UTF-8" standalone="no"?><svg width="104.2" height="61.200001" version="1.1" id="svg10410" sodipodi:docname="72.svg" inkscape:version="1.2.1 (9c6d41e410, 2022-07-14)" xmlns:inkscape="http://www.inkscape.org/namespaces/inkscape" xmlns:sodipodi="http://sodipodi.sourceforge.net/DTD/sodipodi-0.dtd" xmlns="http://www.w3.org/2000/svg" xmlns:svg="http://www.w3.org/2000/svg"><defs id="defs10414"></defs><sodipodi:namedview id="namedview10412" pagecolor="#ffffff" bordercolor="#666666" borderopacity="1.0" inkscape:showpageshadow="2" inkscape:pageopacity="0.0" inkscape:pagecheckerboard="0" inkscape:deskcolor="#d1d1d1" showgrid="false" inkscape:zoom="1.809816" inkscape:cx="52.215252" inkscape:cy="35.915253" inkscape:window-width="1920" inkscape:window-height="1027" inkscape:window-x="-8" inkscape:window-y="-8" inkscape:window-maximized="1" inkscape:current-layer="svg10410"></sodipodi:namedview><g id="g0" inkscape:label="g0"><path d="m 25.4,61.2 v 0 Q 15,61.2 8.75,54.4 2.5,47.6 0,32.9 v 0 l 5.4,-0.7 q 1.9,11.7 6.55,17.9 4.65,6.2 13.25,6.2 v 0 q 6,0 9.45,-3.1 3.45,-3.1 4.9,-8.9 Q 41,38.5 41,30.6 v 0 Q 41,24.1 39.4,18.25 37.8,12.4 34.3,8.7 30.8,5 25.1,5 v 0 q -4.6,0 -7.4,2.6 -2.8,2.6 -2.8,7 v 0 q 0,7 6.3,10.2 6.3,3.2 17.7,3.2 v 0 l -0.2,5 Q 24.5,33 16.95,28.2 9.4,23.4 9.4,14.4 v 0 Q 9.4,8.4 13.5,4.2 17.6,0 25.2,0 v 0 q 6.9,0 11.65,3.95 4.75,3.95 7.25,10.95 2.5,7 2.5,16.3 v 0 q 0,14.9 -5.4,22.45 -5.4,7.55 -15.8,7.55 z" id="g0p0" inkscape:label="g0p0"></path><path style="fill:none;stroke:#000000;stroke-width:1px;stroke-linecap:butt;stroke-linejoin:miter;stroke-opacity:1" d="M 38.795929,30.444579 C 32.197331,30.219008 25.290112,29.856412 19.350414,26.673335 16.322782,24.979232 13.684666,22.309154 12.763954,18.886643 11.433943,14.426797 12.161902,9.0666502 15.703839,5.8000384 c 3.370666,-3.2294111 8.506738,-3.8518876 12.910638,-2.857921 3.353027,0.5934252 6.459672,2.3643795 8.581412,5.042554 4.154576,4.9772276 5.76332,11.5258256 6.38702,17.8478346 0.531432,7.214177 0.240664,14.644732 -2.102404,21.544809 -1.593554,4.440994 -4.743991,8.589744 -9.30365,10.234074 -4.489959,1.590627 -9.527376,1.469979 -14.039227,0.026 C 13.160297,56.002249 9.3207534,51.94051 7.1651379,47.255333 4.8186942,42.651611 3.7295704,37.567869 2.6958446,32.543485" id="g0s0" inkscape:label="g0s0"></path></g><g id="g1" inkscape:label="g1" transform="translate(60.8)"><path d="m 33.6,60.3 v 0 Q 28,60.3 23.95,57.85 19.9,55.4 16.7,50.9 13.5,46.4 10.6,40.3 v 0 q -1,0 -2,0 v 0 Q 0,40.3 0,35.3 v 0 Q 0,33.2 1.4,32.15 2.8,31.1 5,31.1 v 0 q 4.6,0 8.4,3.7 v 0 q 6.9,-1.2 11.5,-5.25 4.6,-4.05 4.6,-10.75 v 0 Q 29.5,12.1 25.65,8.55 21.8,5 15.1,5 V 5 Q 11.8,5 8.6,5.7 5.4,6.4 1.8,8 V 8 L 0,3.3 Q 3.8,1.8 7.6,0.9 11.4,0 15.2,0 V 0 Q 24.1,0 29.55,4.9 35,9.8 35,18.8 v 0 q 0,5.5 -2.5,9.75 -2.5,4.25 -6.8,7.05 -4.3,2.8 -9.8,4 v 0 q 2.9,5.5 5.45,8.95 2.55,3.45 5.45,5.05 2.9,1.6 7,1.6 v 0 q 2.1,0 4.05,-0.55 1.95,-0.55 3.65,-1.45 v 0 l 1.9,4.7 q -4.5,2.4 -9.8,2.4 z" id="g1p0" inkscape:label="g1p0"></path><path style="fill:none;stroke:#000000;stroke-width:1px;stroke-linecap:butt;stroke-linejoin:miter;stroke-opacity:1" d="M 0.9279278,5.7323961 C 4.504795,4.4130108 8.0925106,2.9558522 11.935617,2.6616282 17.279081,2.1021439 23.167216,2.827949 27.342667,6.5025167 31.026034,9.5975667 32.419946,14.6045 32.25614,19.271063 32.29817,24.673097 29.392476,29.868139 24.958223,32.894192 21.309141,35.547744 16.902435,36.90382 12.508309,37.674486 9.7125761,37.878688 6.8005868,38.035443 4.0942094,37.170277 3.2116721,36.873734 2.5295086,36.674218 2.4711533,35.231301 2.4257489,33.629366 4.224952,33.58467 5.2372826,33.651835 c 2.5754222,0.101539 4.7918314,1.137666 6.4513284,3.187089 0.53139,0.656249 0.79125,1.359637 1.601684,3.149514 1.193161,2.649792 2.537682,4.765686 4.004989,7.185999 2.705054,4.346892 6.365138,8.646742 11.524275,9.969289 4.110265,1.099646 8.606202,0.712068 12.426754,-1.170887 l 1.183374,-0.480659" id="g1s0" sodipodi:nodetypes="cccccccccsccccc" inkscape:label="g1s0"></path></g></svg>