<?xml version="1.0" encoding="UTF-8" standalone="no"?><svg width="101" height="61.299999" version="1.1" id="svg11032" sodipodi:docname="78.svg" inkscape:version="1.2.1 (9c6d41e410, 2022-07-14)" xmlns:inkscape="http://www.inkscape.org/namespaces/inkscape" xmlns:sodipodi="http://sodipodi.sourceforge.net/DTD/sodipodi-0.dtd" xmlns="http://www.w3.org/2000/svg" xmlns:svg="http://www.w3.org/2000/svg"><defs id="defs11036"></defs><sodipodi:namedview id="namedview11034" pagecolor="#ffffff" bordercolor="#666666" borderopacity="1.0" inkscape:showpageshadow="2" inkscape:pageopacity="0.0" inkscape:pagecheckerboard="0" inkscape:deskcolor="#d1d1d1" showgrid="false" inkscape:zoom="1.809816" inkscape:cx="52.215252" inkscape:cy="35.915253" inkscape:window-width="1920" inkscape:window-height="1027" inkscape:window-x="-8" inkscape:window-y="-8" inkscape:window-maximized="1" inkscape:current-layer="svg11032"></sodipodi:namedview><g id="g0" inkscape:label="g0"><path d="m 25.4,61.2 v 0 Q 15,61.2 8.75,54.4 2.5,47.6 0,32.9 v 0 l 5.4,-0.7 q 1.9,11.7 6.55,17.9 4.65,6.2 13.25,6.2 v 0 q 6,0 9.45,-3.1 3.45,-3.1 4.9,-8.9 Q 41,38.5 41,30.6 v 0 Q 41,24.1 39.4,18.25 37.8,12.4 34.3,8.7 30.8,5 25.1,5 v 0 q -4.6,0 -7.4,2.6 -2.8,2.6 -2.8,7 v 0 q 0,7 6.3,10.2 6.3,3.2 17.7,3.2 v 0 l -0.2,5 Q 24.5,33 16.95,28.2 9.4,23.4 9.4,14.4 v 0 Q 9.4,8.4 13.5,4.2 17.6,0 25.2,0 v 0 q 6.9,0 11.65,3.95 4.75,3.95 7.25,10.95 2.5,7 2.5,16.3 v 0 q 0,14.9 -5.4,22.45 -5.4,7.55 -15.8,7.55 z" id="g0p0" inkscape:label="g0p0"></path><path style="fill:none;stroke:#000000;stroke-width:1px;stroke-linecap:butt;stroke-linejoin:miter;stroke-opacity:1" d="M 38.795929,30.444579 C 32.197331,30.219008 25.290112,29.856412 19.350414,26.673335 16.322782,24.979232 13.684666,22.309154 12.763954,18.886643 11.433943,14.426797 12.161902,9.0666502 15.703839,5.8000384 c 3.370666,-3.2294111 8.506738,-3.8518876 12.910638,-2.857921 3.353027,0.5934252 6.459672,2.3643795 8.581412,5.042554 4.154576,4.9772276 5.76332,11.5258256 6.38702,17.8478346 0.531432,7.214177 0.240664,14.644732 -2.102404,21.544809 -1.593554,4.440994 -4.743991,8.589744 -9.30365,10.234074 -4.489959,1.590627 -9.527376,1.469979 -14.039227,0.026 C 13.160297,56.002249 9.3207534,51.94051 7.1651379,47.255333 4.8186942,42.651611 3.7295704,37.567869 2.6958446,32.543485" id="g0s0" inkscape:label="g0s0"></path></g><g id="g1" inkscape:label="g1" transform="translate(59.7)"><path d="m 19.5,61.3 v 0 q -5.6,0 -10,-2.05 Q 5.1,57.2 2.55,53.4 0,49.6 0,44.3 v 0 Q 0,40.6 1.15,37.4 2.3,34.2 4.95,30.75 7.6,27.3 12.2,22.8 v 0 l 23,-22.8 4,4 -21.6,20.9 q -4.4,4.3 -7.1,7.5 -2.7,3.2 -3.9,6 -1.2,2.8 -1.2,6 v 0 q 0,5.7 3.95,8.8 3.95,3.1 10.35,3.1 v 0 q 5.6,0 10.1,-1.6 4.5,-1.6 9,-4.4 v 0 l 2.5,4.6 q -4.5,2.8 -9.85,4.6 -5.35,1.8 -11.95,1.8 z" id="g1p0" inkscape:label="g1p0"></path><path style="fill:none;stroke:#000000;stroke-width:1px;stroke-linecap:butt;stroke-linejoin:miter;stroke-opacity:1" d="M 40.074219,52.644536 C 38.688423,53.368756 37.30336,54.094385 35.917113,54.81774 30.64812,57.654375 24.632255,59.011859 18.656689,58.77497 13.60131,58.658126 8.2288005,56.784032 5.1860018,52.553185 2.5188144,48.960825 2.2060949,44.11634 3.2537223,39.889137 4.5351182,34.68448 8.3424514,30.66595 11.894964,26.858933 20.259838,18.504221 28.755703,10.280124 37.171875,1.9765625" id="g1s0" inkscape:label="g1s0" sodipodi:nodetypes="ccccccc"></path></g></svg>