<?xml version="1.0" encoding="UTF-8" standalone="no"?><svg width="103.2" height="61.299999" version="1.1" id="svg11150" sodipodi:docname="79.svg" inkscape:version="1.2.1 (9c6d41e410, 2022-07-14)" xmlns:inkscape="http://www.inkscape.org/namespaces/inkscape" xmlns:sodipodi="http://sodipodi.sourceforge.net/DTD/sodipodi-0.dtd" xmlns="http://www.w3.org/2000/svg" xmlns:svg="http://www.w3.org/2000/svg"><defs id="defs11154"></defs><sodipodi:namedview id="namedview11152" pagecolor="#ffffff" bordercolor="#666666" borderopacity="1.0" inkscape:showpageshadow="2" inkscape:pageopacity="0.0" inkscape:pagecheckerboard="0" inkscape:deskcolor="#d1d1d1" showgrid="false" inkscape:zoom="1.809816" inkscape:cx="52.215252" inkscape:cy="35.915253" inkscape:window-width="1920" inkscape:window-height="1027" inkscape:window-x="-8" inkscape:window-y="-8" inkscape:window-maximized="1" inkscape:current-layer="svg11150"></sodipodi:namedview><g id="g0" inkscape:label="g0"><path d="m 25.4,61.2 v 0 Q 15,61.2 8.75,54.4 2.5,47.6 0,32.9 v 0 l 5.4,-0.7 q 1.9,11.7 6.55,17.9 4.65,6.2 13.25,6.2 v 0 q 6,0 9.45,-3.1 3.45,-3.1 4.9,-8.9 Q 41,38.5 41,30.6 v 0 Q 41,24.1 39.4,18.25 37.8,12.4 34.3,8.7 30.8,5 25.1,5 v 0 q -4.6,0 -7.4,2.6 -2.8,2.6 -2.8,7 v 0 q 0,7 6.3,10.2 6.3,3.2 17.7,3.2 v 0 l -0.2,5 Q 24.5,33 16.95,28.2 9.4,23.4 9.4,14.4 v 0 Q 9.4,8.4 13.5,4.2 17.6,0 25.2,0 v 0 q 6.9,0 11.65,3.95 4.75,3.95 7.25,10.95 2.5,7 2.5,16.3 v 0 q 0,14.9 -5.4,22.45 -5.4,7.55 -15.8,7.55 z" id="g0p0" inkscape:label="g0p0"></path><path style="fill:none;stroke:#000000;stroke-width:1px;stroke-linecap:butt;stroke-linejoin:miter;stroke-opacity:1" d="M 38.795929,30.444579 C 32.197331,30.219008 25.290112,29.856412 19.350414,26.673335 16.322782,24.979232 13.684666,22.309154 12.763954,18.886643 11.433943,14.426797 12.161902,9.0666502 15.703839,5.8000384 c 3.370666,-3.2294111 8.506738,-3.8518876 12.910638,-2.857921 3.353027,0.5934252 6.459672,2.3643795 8.581412,5.042554 4.154576,4.9772276 5.76332,11.5258256 6.38702,17.8478346 0.531432,7.214177 0.240664,14.644732 -2.102404,21.544809 -1.593554,4.440994 -4.743991,8.589744 -9.30365,10.234074 -4.489959,1.590627 -9.527376,1.469979 -14.039227,0.026 C 13.160297,56.002249 9.3207534,51.94051 7.1651379,47.255333 4.8186942,42.651611 3.7295704,37.567869 2.6958446,32.543485" id="g0s0" inkscape:label="g0s0"></path></g><g id="g1" inkscape:label="g1" transform="translate(57.5,0.1)"><path d="m 29.1,61.2 v 0 Q 20.2,61.2 13.7,57.6 7.2,54 3.6,47.65 0,41.3 0,32.9 v 0 Q 0,20.9 7.9,12.6 15.8,4.3 29.4,0 v 0 l 1.7,4.9 Q 18.2,9.1 11.9,16.05 5.6,23 5.6,33.4 v 0 q 0,7.2 3,12.3 3,5.1 8.3,7.75 5.3,2.65 12.1,2.65 v 0 q 4.2,0 7.65,-0.7 3.45,-0.7 7.05,-2.1 v 0 l 2,4.8 Q 42,59.6 37.95,60.4 33.9,61.2 29.1,61.2 Z M 43.2,29.9 18.3,36.2 16.9,31 l 25,-6.2 z" id="g1p0" inkscape:label="g1p0"></path><path style="fill:none;stroke:#000000;stroke-width:1px;stroke-linecap:butt;stroke-linejoin:miter;stroke-opacity:1" d="M 30.24306,2.4346397 C 23.428426,4.85621 16.60741,7.8593486 11.306532,12.912447 6.1402615,17.613305 3.0858353,24.452727 2.8848546,31.420038 c -0.5046448,6.943599 1.4280592,14.298088 6.2976479,19.432494 4.8047105,5.277621 12.0491785,7.700597 19.0572855,7.788563 4.748156,0.08985 9.55349,-0.463119 13.997166,-2.211978 0.80513,-0.281063 1.61026,-0.562127 2.41539,-0.84319" id="g1s0" inkscape:label="g1s0"></path><path style="fill:none;stroke:#000000;stroke-width:1px;stroke-linecap:butt;stroke-linejoin:miter;stroke-opacity:1" d="m 17.597656,33.605469 c 8.316406,-2.088542 16.632813,-4.177083 24.949219,-6.265625" id="g1s1" inkscape:label="g1s1"></path></g></svg>