<?xml version="1.0" encoding="UTF-8" standalone="no"?><svg width="41.299999" height="61.299999" version="1.1" id="svg4" sodipodi:docname="8_num.svg" inkscape:version="1.2.1 (9c6d41e4, 2022-07-14)" xmlns:inkscape="http://www.inkscape.org/namespaces/inkscape" xmlns:sodipodi="http://sodipodi.sourceforge.net/DTD/sodipodi-0.dtd" xmlns="http://www.w3.org/2000/svg" xmlns:svg="http://www.w3.org/2000/svg"><defs id="defs8"></defs><sodipodi:namedview id="namedview6" pagecolor="#ffffff" bordercolor="#666666" borderopacity="1.0" inkscape:showpageshadow="2" inkscape:pageopacity="0.0" inkscape:pagecheckerboard="0" inkscape:deskcolor="#d1d1d1" showgrid="false" inkscape:zoom="16" inkscape:cx="19.09375" inkscape:cy="32.4375" inkscape:window-width="1416" inkscape:window-height="876" inkscape:window-x="19" inkscape:window-y="25" inkscape:window-maximized="0" inkscape:current-layer="g333"></sodipodi:namedview><g id="g0" inkscape:label="g0"><path d="m 19.5,61.3 v 0 q -5.6,0 -10,-2.05 Q 5.1,57.2 2.55,53.4 0,49.6 0,44.3 v 0 Q 0,40.6 1.15,37.4 2.3,34.2 4.95,30.75 7.6,27.3 12.2,22.8 v 0 l 23,-22.8 4,4 -21.6,20.9 q -4.4,4.3 -7.1,7.5 -2.7,3.2 -3.9,6 -1.2,2.8 -1.2,6 v 0 q 0,5.7 3.95,8.8 3.95,3.1 10.35,3.1 v 0 q 5.6,0 10.1,-1.6 4.5,-1.6 9,-4.4 v 0 l 2.5,4.6 q -4.5,2.8 -9.85,4.6 -5.35,1.8 -11.95,1.8 z" id="g0p0" inkscape:label="g0p0"></path><path style="fill:none;stroke:#000000;stroke-width:1px;stroke-linecap:butt;stroke-linejoin:miter;stroke-opacity:1" d="M 40.074219,52.644536 C 38.688423,53.368756 37.30336,54.094385 35.917113,54.81774 30.64812,57.654375 24.632255,59.011859 18.656689,58.77497 13.60131,58.658126 8.2288005,56.784032 5.1860018,52.553185 2.5188144,48.960825 2.2060949,44.11634 3.2537223,39.889137 4.5351182,34.68448 8.3424514,30.66595 11.894964,26.858933 20.259838,18.504221 28.755703,10.280124 37.171875,1.9765625" id="g0s0" inkscape:label="g0s0" sodipodi:nodetypes="ccccccc"></path></g></svg>