<?xml version="1.0" encoding="UTF-8" standalone="no"?><svg width="86" height="89" version="1.1" id="svg415" sodipodi:docname="3_shee.svg" inkscape:version="1.2.1 (9c6d41e410, 2022-07-14)" xmlns:inkscape="http://www.inkscape.org/namespaces/inkscape" xmlns:sodipodi="http://sodipodi.sourceforge.net/DTD/sodipodi-0.dtd" xmlns="http://www.w3.org/2000/svg" xmlns:svg="http://www.w3.org/2000/svg"><defs id="defs419"></defs><sodipodi:namedview id="namedview417" pagecolor="#ffffff" bordercolor="#666666" borderopacity="1.0" inkscape:showpageshadow="2" inkscape:pageopacity="0.0" inkscape:pagecheckerboard="0" inkscape:deskcolor="#d1d1d1" showgrid="false" inkscape:zoom="1.809816" inkscape:cx="41.716947" inkscape:cy="64.647455" inkscape:window-width="1920" inkscape:window-height="1027" inkscape:window-x="-8" inkscape:window-y="-8" inkscape:window-maximized="1" inkscape:current-layer="svg415"></sodipodi:namedview><g id="g0" inkscape:label="g0" transform="matrix(0.99973425,0,0,1,0,28.7)"><path d="M 60.316029,60.3 H 59.41579 q -6.701781,0 -9.902632,-3 v 0 Q 47.71268,55.7 46.81244,53.2 45.912201,50.7 45.912201,46.5 v 0 V 0 l 5.401436,0.8 v 45.4 q 0,3.2 0.500133,4.8 0.500132,1.6 1.700451,2.6 v 0 q 1.100293,1.2 3.100824,1.45 2.000532,0.25 4.301143,0.25 v 0 z m -24.806592,0 h -1.300346 q -4.701249,0 -8.752326,-2.55 -4.051076,-2.55 -7.75206,-6.9 -3.700984,-4.35 -7.101887,-9.75 v 0 q -1.1002927,0 -2.2005851,0 v 0 Q 0,41.1 0,36 v 0 Q 0,34 1.3503589,32.95 2.7007177,31.9 5.0013291,31.9 v 0 q 2.1005582,0 4.2011164,0.85 2.1005585,0.85 4.3011435,2.95 v 0 q 7.401967,-1.5 11.603083,-6 4.201117,-4.5 4.201117,-11.3 v 0 q 0,-6.6 -3.550944,-10.05 Q 22.205901,4.9 17.204572,4.9 v 0 Q 13.003456,4.9 10.852884,6.95 8.7023126,9 8.7023126,11.8 v 0 q 0,3.9 3.1008244,6.3 3.100824,2.4 10.202711,3.6 v 0 l -1.700452,4.6 Q 12.00319,24.7 7.7520601,21.15 3.5009304,17.6 3.5009304,11.7 v 0 q 0,-4.7 3.5509436,-8.15 Q 10.602818,0.1 17.304599,0.1 v 0 q 4.801276,0 8.752326,2.2 3.95105,2.2 6.301674,6.35 2.350625,4.15 2.350625,9.95 v 0 q 0,8.2 -5.201382,14 -5.201383,5.8 -13.603615,7.7 v 0 q 4.901302,7.3 9.252458,11.1 4.351157,3.8 9.552539,3.8 v 0 h 1.500399 z" id="g0p0" inkscape:label="g0p0" style="stroke-width:1.00013"></path><path style="fill:none;stroke:#000000;stroke-width:1px;stroke-linecap:butt;stroke-linejoin:miter;stroke-opacity:1" d="M 21.169279,23.897457 C 16.348509,22.85085 10.855438,21.741044 7.785469,17.48461 4.9425766,13.462932 5.7242374,7.2185884 9.9272526,4.435408 13.952145,1.8660776 19.33229,1.959337 23.606979,3.8522663 c 4.997669,2.1437301 8.010647,7.3889087 8.336504,12.6880407 0.563712,5.812178 -1.423108,11.925581 -5.86706,15.838151 -3.597614,3.297757 -8.340495,5.297217 -13.157176,5.892506 -3.2010361,0.395509 -6.6240242,0.615546 -9.6533211,-0.699385 -2.38687415,-2.231977 1.2444407,-3.683351 3.4340699,-2.880156 2.1784064,0.799079 4.2810362,1.763894 5.3590682,3.823093 2.629253,4.71814 5.850387,9.116628 9.603261,13.004582 3.182871,3.23382 7.226778,5.957229 11.906309,6.145694 0.754657,0.07719 1.512998,0.105787 2.267306,0.186733" id="g0s0" inkscape:label="g0s0" sodipodi:nodetypes="ccccccccssssc"></path><path style="fill:none;stroke:#000000;stroke-width:1px;stroke-linecap:butt;stroke-linejoin:miter;stroke-opacity:1" d="m 48.605191,0.00552427 c 0.0055,15.79368673 -0.02606,31.58261373 0.01992,47.37582273 0.07349,2.855345 0.530731,6.038743 2.819453,8.013369 2.080118,2.013323 5.131616,2.216371 7.870261,2.305404 0.523959,0.03095 1.047919,0.06189 1.571878,0.09284" id="g0s1" sodipodi:nodetypes="ccccc" inkscape:label="g0s1"></path></g><g id="g1" inkscape:label="g1" transform="matrix(0.99899518,0,0,1,14.829642,0)"><path style="display:inline" d="m 70.7,89 h -1 q -3,0 -5.55,-0.65 Q 61.6,87.7 59.8,86 v 0 Q 56.3,82.7 56.3,75.2 v 0 -46.7 Q 54.9,17.1 51.4,11 47.9,4.9 42.4,4.9 v 0 q -3.6,0 -5.6,2.6 -2,2.6 -2,7.7 v 0 q 0,3.9 0.6,7 v 0 H 30.3 Q 30,20.7 29.75,18.6 29.5,16.5 29.5,14.6 v 0 Q 29.5,8 32.85,4 36.2,0 42.4,0 v 0 q 5.9,0 9.9,3.95 4,3.95 6.25,10.4 2.25,6.45 3.05,13.85 v 0 46.7 q 0,3.3 0.5,4.85 0.5,1.55 1.7,2.55 v 0 Q 65,83.5 67,83.75 69,84 71.2,84 v 0 z" id="g1p0" inkscape:label="g1p0"></path><path style="display:inline;fill:none;stroke:#000000;stroke-width:1px;stroke-linecap:butt;stroke-linejoin:miter;stroke-opacity:1" d="M 32.90625,22.296875 C 32.189196,17.24716 31.309374,11.67002 33.948338,7.0048776 36.015851,3.1824285 40.814237,1.7827514 44.871275,2.7018315 c 5.299598,1.0610536 8.634255,5.9944562 10.53375,10.6924095 1.94946,4.911209 3.041647,10.154719 3.53254,15.40287 0.03373,16.081561 -0.05668,32.165472 0.05492,48.245568 0.09206,3.485135 1.641413,7.400064 5.196702,8.60873 2.224083,0.864628 4.672997,0.637872 7.006103,0.85642" id="g1s0" inkscape:label="g1s0"></path></g></svg>