<?xml version="1.0" encoding="UTF-8" standalone="no"?><svg width="82.5" height="89" version="1.1" id="svg432" sodipodi:docname="3_le.svg" inkscape:version="1.2.1 (9c6d41e410, 2022-07-14)" xmlns:inkscape="http://www.inkscape.org/namespaces/inkscape" xmlns:sodipodi="http://sodipodi.sourceforge.net/DTD/sodipodi-0.dtd" xmlns="http://www.w3.org/2000/svg" xmlns:svg="http://www.w3.org/2000/svg"><defs id="defs436"></defs><sodipodi:namedview id="namedview434" pagecolor="#ffffff" bordercolor="#666666" borderopacity="1.0" inkscape:showpageshadow="2" inkscape:pageopacity="0.0" inkscape:pagecheckerboard="0" inkscape:deskcolor="#d1d1d1" showgrid="false" inkscape:zoom="1.809816" inkscape:cx="39.506778" inkscape:cy="64.647455" inkscape:window-width="1920" inkscape:window-height="1027" inkscape:window-x="-8" inkscape:window-y="-8" inkscape:window-maximized="1" inkscape:current-layer="svg432"></sodipodi:namedview><g id="g0" inkscape:label="g0" transform="matrix(0.99935804,0,0,1,0,28.7)"><path d="m 22.514453,49.4 v 0 Q 15.710085,49.4 10.656841,46.6 5.6035973,43.8 2.8017986,38.7 0,33.6 0,26.6 v 0 Q 0,16.9 6.3040469,10.1 12.608094,3.3 24.515738,0 v 0 l 1.500964,5 Q 16.010278,7.7 10.756906,13.05 5.503533,18.4 5.503533,26.8 v 0 q 0,8.4 4.703019,13 4.703019,4.6 12.207837,4.6 v 0 q 5.90379,0 10.806938,-2.4 v 0 l 2.101349,4.6 q -2.701735,1.3 -5.953822,2.05 -3.252088,0.75 -6.854401,0.75 z m 20.012848,-25.8 -24.715867,5.1 -1.200771,-5 25.916638,-5.2 V 0 l 5.303404,0.8 v 45.4 q 0,3.2 0.550354,4.85 0.550353,1.65 1.65106,2.55 v 0 q 1.20077,1.2 3.152023,1.45 1.951253,0.25 4.25273,0.25 v 0 l -0.500321,5 h -1.000642 q -3.001928,0 -5.553566,-0.65 Q 47.830705,59 46.029549,57.3 v 0 q -1.801156,-1.7 -2.651702,-4.2 -0.850546,-2.5 -0.850546,-6.6 v 0 z" id="g0p0" inkscape:label="g0p0" style="stroke-width:1.00032"></path><path style="fill:none;stroke:#000000;stroke-width:1px;stroke-linecap:butt;stroke-linejoin:miter;stroke-opacity:1" d="M 25.25,2.5039063 C 19.888525,4.1346797 14.511782,6.2364218 10.229284,9.9558151 6.4081444,13.167979 3.7553653,17.772096 3.0740361,22.731727 2.3860108,27.607286 2.8141439,32.789653 5.0448294,37.236943 c 2.2457843,4.44328 6.5422376,7.682806 11.3358416,8.908625 4.633928,1.190326 9.627592,0.966187 14.162298,-0.540097 1.230469,-0.445313 2.460937,-0.890625 3.691406,-1.335938" id="g0s0" inkscape:label="g0s0"></path><path style="fill:none;stroke:#000000;stroke-width:1px;stroke-linecap:butt;stroke-linejoin:miter;stroke-opacity:1" d="M 17.203125,26.207031 43.988281,20.746094" id="g0s1" sodipodi:nodetypes="cc" inkscape:label="g0s1"></path><path style="fill:none;stroke:#000000;stroke-width:1px;stroke-linecap:butt;stroke-linejoin:miter;stroke-opacity:1" d="m 45.175781,0.00390625 c 0.0096,15.81525475 -0.04053,31.63142675 0.0065,47.44610775 0.04063,3.015484 0.650442,6.426891 3.224891,8.341363 2.490232,2.146307 5.945896,1.739199 8.987347,1.997685" id="g0s2" sodipodi:nodetypes="cccccccccccccccccccccccccc" inkscape:label="g0s2"></path></g><g id="g1" inkscape:label="g1" transform="matrix(0.99899518,0,0,1,11.329642,0)"><path style="display:inline" d="m 70.7,89 h -1 q -3,0 -5.55,-0.65 Q 61.6,87.7 59.8,86 v 0 Q 56.3,82.7 56.3,75.2 v 0 -46.7 Q 54.9,17.1 51.4,11 47.9,4.9 42.4,4.9 v 0 q -3.6,0 -5.6,2.6 -2,2.6 -2,7.7 v 0 q 0,3.9 0.6,7 v 0 H 30.3 Q 30,20.7 29.75,18.6 29.5,16.5 29.5,14.6 v 0 Q 29.5,8 32.85,4 36.2,0 42.4,0 v 0 q 5.9,0 9.9,3.95 4,3.95 6.25,10.4 2.25,6.45 3.05,13.85 v 0 46.7 q 0,3.3 0.5,4.85 0.5,1.55 1.7,2.55 v 0 Q 65,83.5 67,83.75 69,84 71.2,84 v 0 z" id="g1p0" inkscape:label="g1p0"></path><path style="display:inline;fill:none;stroke:#000000;stroke-width:1px;stroke-linecap:butt;stroke-linejoin:miter;stroke-opacity:1" d="M 32.90625,22.296875 C 32.189196,17.24716 31.309374,11.67002 33.948338,7.0048776 36.015851,3.1824285 40.814237,1.7827514 44.871275,2.7018315 c 5.299598,1.0610536 8.634255,5.9944562 10.53375,10.6924095 1.94946,4.911209 3.041647,10.154719 3.53254,15.40287 0.03373,16.081561 -0.05668,32.165472 0.05492,48.245568 0.09206,3.485135 1.641413,7.400064 5.196702,8.60873 2.224083,0.864628 4.672997,0.637872 7.006103,0.85642" id="g1s0" inkscape:label="g1s0"></path></g></svg>