<?xml version="1.0" encoding="UTF-8" standalone="no"?><svg width="41.299999" height="81.199997" version="1.1" id="svg547" sodipodi:docname="10_tham.svg" inkscape:version="1.2.1 (9c6d41e410, 2022-07-14)" xmlns:inkscape="http://www.inkscape.org/namespaces/inkscape" xmlns:sodipodi="http://sodipodi.sourceforge.net/DTD/sodipodi-0.dtd" xmlns="http://www.w3.org/2000/svg" xmlns:svg="http://www.w3.org/2000/svg"><defs id="defs551"></defs><sodipodi:namedview id="namedview549" pagecolor="#ffffff" bordercolor="#666666" borderopacity="1.0" inkscape:showpageshadow="2" inkscape:pageopacity="0.0" inkscape:pagecheckerboard="0" inkscape:deskcolor="#d1d1d1" showgrid="false" inkscape:zoom="1.809816" inkscape:cx="20.167796" inkscape:cy="55.806777" inkscape:window-width="1920" inkscape:window-height="1027" inkscape:window-x="-8" inkscape:window-y="-8" inkscape:window-maximized="1" inkscape:current-layer="svg547"></sodipodi:namedview><g id="g0" inkscape:label="g0" transform="translate(0,19.9)"><path d="m 20.6,61.3 v 0 Q 10.6,61.3 5.3,56.25 0,51.2 0,43.4 v 0 Q 0,36.1 5.15,31.05 10.3,26 19.2,24.8 v 0 Q 15.3,22.3 12.65,19.15 10,16 10,11.6 v 0 Q 10,6.6 13.9,3.3 17.8,0 24.9,0 v 0 q 2.3,0 4.8,0.3 2.5,0.3 5.2,0.9 v 0 L 33.9,6 Q 31.7,5.5 29.45,5.25 27.2,5 25,5 v 0 q -4.8,0 -7.2,1.8 -2.4,1.8 -2.4,4.9 v 0 q 0,3.1 2.3,5.55 2.3,2.45 8.4,6.15 v 0 q 7.7,4.8 11.45,9.45 3.75,4.65 3.75,11.45 v 0 Q 41.3,52 35.85,56.65 30.4,61.3 20.6,61.3 Z M 5.5,43.5 v 0 q 0,5.7 3.8,9.25 3.8,3.55 11.2,3.55 v 0 q 6.9,0 11.15,-3 4.25,-3 4.15,-9.2 v 0 Q 35.9,39.2 33.3,35.75 30.7,32.3 25.2,28.7 v 0 q -0.7,0 -1.3,0 v 0 q -5.3,0 -9.45,1.8 -4.15,1.8 -6.55,5.1 -2.4,3.3 -2.4,7.9 z" id="g0p0" style="display:inline" inkscape:label="g0p0"></path><path style="display:inline;fill:none;stroke:#000000;stroke-width:1px;stroke-linecap:butt;stroke-linejoin:miter;stroke-opacity:1" d="M 34.412207,3.5475369 C 31.56634,3.1421154 28.745484,2.4610553 25.852441,2.4991855 22.282601,2.3826181 18.3606,2.8710019 15.562462,5.2913135 12.85399,7.4790582 12.18067,11.354983 13.122645,14.57925 c 1.021327,3.450361 4.062013,5.73437 6.841913,7.76597 4.910039,3.289051 10.247676,6.134054 14.265715,10.562661 3.202603,3.238553 4.719447,7.917957 4.292779,12.427673 -0.181885,3.698087 -1.750918,7.494083 -4.827338,9.701996 -4.252979,3.217975 -9.825646,3.991197 -15.020716,3.669218 C 14.878756,58.554578 11.020102,57.504922 7.9888173,55.149454 5.1868003,52.828308 3.3396668,49.417339 2.9585702,45.798392 2.2883585,41.574539 3.2803607,36.974805 6.1471578,33.71831 8.2222301,31.188499 11.036066,29.35577 14.098645,28.239102 16.967059,27.185223 20.033035,26.79077 23.03125,26.28125" id="g0s0" inkscape:label="g0s0" sodipodi:nodetypes="cccccccccccccc"></path></g><g id="g1" inkscape:label="g1" transform="translate(-1.7)"><path style="display:inline" d="m 33.9,9.7 v 0 Q 32.1,9.7 30.85,8.4 29.6,7.1 29.6,4.8 v 0 Q 29.6,2.6 30.8,1.3 32,0 33.9,0 v 0 q 1.9,0 3.1,1.3 1.2,1.3 1.2,3.5 v 0 q 0,2.4 -1.25,3.65 Q 35.7,9.7 33.9,9.7 Z" id="g1p0" inkscape:label="g1p0"></path><path d="m 33.9375,1.3352194 c -0.820403,0 -1.515467,0.3118012 -2.085191,0.9354043 -0.569724,0.6236031 -0.854587,1.7074649 -0.854587,2.5903504 0,1.0553281 0.273468,1.8947931 0.820403,2.5183962 0.546936,0.6236031 1.347168,0.9354042 2.119375,0.9354042 0.865981,0 1.572439,-0.3118011 2.119375,-0.9354042 0.546935,-0.6236031 0.820403,-1.5977735 0.820403,-2.5183962 0,-1.1512668 -0.284863,-2.0267096 -0.854587,-2.6263275 C 35.452967,1.6350287 34.757903,1.3352194 33.9375,1.3352194 Z" style="display:inline;stroke-width:0.701376" id="g1s0" sodipodi:nodetypes="sssssssss" inkscape:label="g1s0"></path></g></svg>