<svg  xmlns="http://www.w3.org/2000/svg">
    <path id='p1'
        d="m0 161.1 6.3-9q14.1 10.2 27.6 15.45a78.372 78.372 0 0 0 25.233 5.168A90.458 90.458 0 0 0 63 172.8a77.575 77.575 0 0 0 11.611-.809q12.741-1.934 20.039-8.491a30.47 30.47 0 0 0 10.31-22.183 40.369 40.369 0 0 0 .04-1.817 39.226 39.226 0 0 0-2.94-15.365A37.055 37.055 0 0 0 93.6 111.9a140.659 140.659 0 0 0-13.552-11.54A189.674 189.674 0 0 0 65.7 90.6L9.9 110.7 6 100.8l48.6-17.4a126.298 126.298 0 0 1-14.865-10.997 104.75 104.75 0 0 1-7.785-7.453 34.501 34.501 0 0 1-9.253-21.037A46.111 46.111 0 0 1 22.5 39.6a39.588 39.588 0 0 1 2.349-13.906A34.686 34.686 0 0 1 35.7 10.8Q47.569 1.089 66.957.11A88.096 88.096 0 0 1 71.4 0a145.598 145.598 0 0 1 10.035.332 116.516 116.516 0 0 1 7.215.718 152.812 152.812 0 0 1 11.286 1.94A180.185 180.185 0 0 1 105.3 4.2l-2.4 10.5a185.626 185.626 0 0 0-12.378-2.43 165.85 165.85 0 0 0-2.772-.42Q80.4 10.8 72 10.8a70.564 70.564 0 0 0-10.617.747q-5.557.848-10.058 2.656A31.33 31.33 0 0 0 43.8 18.45a24.858 24.858 0 0 0-9.658 17.501A36.206 36.206 0 0 0 33.9 40.2a28.647 28.647 0 0 0 8.833 20.999 36.721 36.721 0 0 0 .617.601q9.45 9 23.25 17.4l60.3-21.9 4.2 10.2-53.4 18.9q10.5 6.6 19.35 14.1a62.432 62.432 0 0 1 11.631 12.909 57.339 57.339 0 0 1 2.469 4.041 40.99 40.99 0 0 1 4.512 13.16 54.922 54.922 0 0 1 .738 9.19q0 11.7-6 21.75a40.842 40.842 0 0 1-12.813 13.204A51.577 51.577 0 0 1 92.7 177.6a50.605 50.605 0 0 1-12.284 4.306Q72.705 183.6 63.3 183.6q-18.9 0-34.2-6.3Q13.8 171 0 161.1Zm205.2 19.5h-2.7a62.074 62.074 0 0 1-9.939-.743q-5.259-.855-9.459-2.693a27.357 27.357 0 0 1-7.002-4.364 27.689 27.689 0 0 1-6.407-7.811 35.349 35.349 0 0 1-1.993-4.189q-3-7.5-3-19.8V0l11.1 1.5v138.9q0 10.5 2.1 16.05a19.754 19.754 0 0 0 3.783 6.308 18.532 18.532 0 0 0 2.817 2.542 18.672 18.672 0 0 0 7.248 3.371 22.98 22.98 0 0 0 2.052.379 73.084 73.084 0 0 0 5.07.513q2.61.178 5.541.222a131.079 131.079 0 0 0 1.989.015l-1.2 10.8Z"
        vector-effect="non-scaling-stroke" stroke-linecap="round" font-size="12" stroke="#000" stroke-width=".945"
        fill="none" style="stroke:#000;stroke-width:.25mm;fill:none" />
    <path id='s1'
        style="fill:none;stroke:#000;stroke-width:1px;stroke-linecap:butt;stroke-linejoin:miter;stroke-opacity:1"
        d="M104.38 9.296 98.068 7.88l-9.133-1.373-8.774-1.194-10.445.12-9.849.955-7.938 2.387-6.864 2.507-7.282 4.417-3.701 4.835-3.044 5.133-1.612 5.073-.776 5.73-.179 7.76 1.433 8.356 3.7 6.864 8.655 7.521 7.76 6.447 10.266 7.998 12.177 7.341 12.653 8.775 9.79 7.938 6.923 7.401 4.596 8.178 3.223 7.64 1.313 6.804-.179 8.774-1.313 7.044-3.044 6.804-4.775 6.088-5.61 4.835-6.03 4-11.34 3.879-12.893 1.313-9.012-.477-12.774-1.731-12.594-3.224-9.55-4.476-19.34-12.057-.059.12" />
    <path id='s2'
        style="fill:none;stroke:#000;stroke-width:1px;stroke-linecap:butt;stroke-linejoin:miter;stroke-opacity:1"
        d="M129.374 62.553 7.73 106.051" />
    <path id='s3'
        style="fill:none;stroke:#000;stroke-width:1px;stroke-linecap:butt;stroke-linejoin:miter;stroke-opacity:1"
        d="m170.708.209-.298 142.147.418 7.402.835 3.969.836 3.462 1.403 3.64 2.03 3.582 5.162 5.133 5.014 3.224 5.7 2.208 7.222.955 7.014-.269" />
</svg>
