<?xml version="1.0" encoding="UTF-8" standalone="no"?>
<svg
   width="75.120003"
   height="75.720001"
   version="1.1"
   id="svg4"
   sodipodi:docname="0_x.svg"
   inkscape:version="1.2.1 (9c6d41e410, 2022-07-14)"
   xmlns:inkscape="http://www.inkscape.org/namespaces/inkscape"
   xmlns:sodipodi="http://sodipodi.sourceforge.net/DTD/sodipodi-0.dtd"
   xmlns="http://www.w3.org/2000/svg"
   xmlns:svg="http://www.w3.org/2000/svg">
  <defs
     id="defs6" />
  <sodipodi:namedview
     id="namedview4"
     pagecolor="#ffffff"
     bordercolor="#666666"
     borderopacity="1.0"
     inkscape:showpageshadow="2"
     inkscape:pageopacity="0.0"
     inkscape:pagecheckerboard="0"
     inkscape:deskcolor="#d1d1d1"
     showgrid="false"
     inkscape:zoom="8"
     inkscape:cx="3.3125"
     inkscape:cy="49"
     inkscape:window-width="1920"
     inkscape:window-height="1027"
     inkscape:window-x="-8"
     inkscape:window-y="-8"
     inkscape:window-maximized="1"
     inkscape:current-layer="svg4" />
  <path
     d="m 21.84,67.680001 q -9.96,0 -15.9600001,-4.8 -5.8800000335144,-4.8 -5.8800000335144,-12.48 0,-4.92 2.1600000335144,-8.4 2.16,-3.48 5.64,-6 3.6000001,-2.52 7.6800001,-4.8 -5.4,-2.88 -8.8800001,-7.2 -3.36,-4.32 -3.36,-9.6 0,-6.3600004 4.68,-10.3200004 Q 12.72,6.1035156e-7 20.28,6.1035156e-7 q 7.2,0 11.88,3.83999998964844 4.8,3.72 4.8,9.9600004 0,4.32 -1.8,7.44 -1.8,3 -4.68,5.4 -2.88,2.28 -6.12,4.2 6.84,2.28 14.52,2.28 6.12,0 10.68,-1.08 4.56,-1.08 8.88,-3.36 V 0.12000061 l 4.44,0.6 V 56.280001 q 0,4.2 0.72,6.48 0.84,2.16 2.64,3.48 1.44,1.2 3.72,1.56 2.28,0.24 5.16,0.24 l -0.48,4.32 h -1.08 q -6.96,0 -10.68,-3.12 -2.16,-1.8 -3.36,-4.8 -1.08,-3 -1.08,-7.92 v -23.04 q -4.08,1.92 -9,2.88 -4.92,0.96 -10.68,0.96 -4.92,0 -9.84,-0.96 -4.8,-0.96 -9.12,-2.88 -4.08,2.16 -7.56,4.44 -3.4800001,2.16 -5.6400001,5.16 -2.04,3 -2.04,7.32 0,5.76 4.44,9.48 4.4400001,3.6 12.9600001,3.6 4.92,0 8.88,-1.68 -0.6,-1.2 -1.08,-2.52 -0.36,-1.32 -0.36,-2.64 0,-2.4 1.32,-3.72 1.44,-1.44 3.72,-1.44 2.28,0 3.72,1.68 1.44,1.56 1.44,3.96 0,3.6 -3.24,6.36 1.92,3.84 4.56,6 2.64,2.04 7.32,2.04 h 1.2 l -0.48,4.2 h -1.32 q -5.76,0 -9.24,-2.88 -3.36,-2.76 -5.76,-7.2 -4.68,2.04 -10.8,2.04 z m -2.16,-38.76 q 5.04,-2.64 8.88,-6 3.96,-3.36 3.96,-8.88 0,-4.4400004 -3.36,-7.0800004 -3.36,-2.76 -8.88,-2.76 -5.76,0 -9.12,2.76 -3.3600001,2.76 -3.3600001,7.5600004 0,4.56 3.2400001,8.28 3.36,3.72 8.64,6.12 z"
     id="path274"
     inkscape:label="p1" />
  <path
     style="fill:none;stroke:#000000;stroke-width:1px;stroke-linecap:butt;stroke-linejoin:miter;stroke-opacity:1"
     d="M 49.199953,73.684625 C 45.542435,73.514876 41.434404,73.22147 38.774107,70.359229 35.272673,67.03946 33.203255,62.501575 31.732801,57.9876 c -0.433277,-1.663038 0.05187,-4.092312 2.103131,-4.268848 2.176252,-0.510219 3.939845,1.803902 3.500008,3.835935 -0.121223,2.407133 -2.193433,4.092469 -3.937495,5.46875 C 27.158373,66.056132 19.76758,66.277622 13.15657,64.379013 7.8893591,62.834264 3.204351,58.481117 2.4761451,52.866651 1.7241008,48.289125 2.9949398,43.331521 6.3595583,40.035864 9.7505167,36.560508 14.163604,34.341858 18.326166,31.941753 22.48451,29.888953 26.388178,27.291545 29.98505,24.369337 33.70162,21.246702 35.510376,16.106029 34.482029,11.354535 33.366156,6.1026349 28.039332,2.8041649 22.973372,2.2562105 17.469938,1.5615454 11.108842,2.8446182 7.6467293,7.53662 4.272963,12.238002 5.0940559,19.149081 8.8480376,23.399069 c 2.7755564,3.211729 6.4248504,5.577552 10.2027444,7.448587 2.623208,0.696794 4.871553,2.369605 7.580741,2.828029 8.037651,2.048014 16.614221,2.08124 24.665721,0.09121 2.616833,-0.675595 5.12146,-1.687397 7.569944,-2.821585"
     id="path327"
     inkscape:label="s1" />
  <path
     style="fill:none;stroke:#000000;stroke-width:1px;stroke-linecap:butt;stroke-linejoin:miter;stroke-opacity:1"
     d="m 60.679687,0.00390625 c 0.01942,19.43348275 -0.04431,38.86785375 0.02734,58.30078075 0.13987,3.121403 0.692908,6.513186 3.073163,8.762201 2.484436,2.556953 6.21816,3.073671 9.618114,3.048269 0.571659,0.0163 1.143319,0.0326 1.714978,0.04891"
     id="path358"
     inkscape:label="s2" />
</svg>
