<?xml version="1.0" encoding="UTF-8" standalone="no"?>
<svg
   width="61.374611"
   height="80.200005"
   version="1.1"
   id="svg495"
   sodipodi:docname="10_xam.svg"
   inkscape:version="1.2.1 (9c6d41e410, 2022-07-14)"
   xmlns:inkscape="http://www.inkscape.org/namespaces/inkscape"
   xmlns:sodipodi="http://sodipodi.sourceforge.net/DTD/sodipodi-0.dtd"
   xmlns="http://www.w3.org/2000/svg"
   xmlns:svg="http://www.w3.org/2000/svg">
  <defs
     id="defs499" />
  <sodipodi:namedview
     id="namedview497"
     pagecolor="#ffffff"
     bordercolor="#666666"
     borderopacity="1.0"
     inkscape:showpageshadow="2"
     inkscape:pageopacity="0.0"
     inkscape:pagecheckerboard="0"
     inkscape:deskcolor="#d1d1d1"
     showgrid="false"
     inkscape:zoom="5.1189328"
     inkscape:cx="-9.5723078"
     inkscape:cy="57.824553"
     inkscape:window-width="1920"
     inkscape:window-height="1027"
     inkscape:window-x="-8"
     inkscape:window-y="-8"
     inkscape:window-maximized="1"
     inkscape:current-layer="svg495" />
  <g
     id="g1787"
     inkscape:label="g1"
     style="display:inline"
     transform="matrix(1.013035,0,0,1.013035,-24.648954,21.004043)">
    <path
       d="m 17.729714,53.473574 q -8.2485836,0 -12.9891487,-3.887263 Q 1.4877319e-7,45.604236 1.4877319e-7,39.631124 1.4877319e-7,35.838672 1.516981,33.183956 3.1287731,30.529239 5.7834896,28.538202 8.438206,26.452353 11.66179,24.74575 7.490093,22.375467 5.0249992,19.057072 2.5599053,15.643865 2.5599053,11.66179 q 0,-5.1198103 3.7924521,-8.3433946 Q 10.144809,-1.6021728e-7 16.497167,-1.6021728e-7 q 5.783489,0 9.765564,2.93915036021728 3.982075,2.9391504 3.982075,8.0589608 0,4.740565 -2.84434,7.774527 -2.749527,3.033961 -6.447168,5.309433 4.550942,1.327358 10.334432,1.327358 4.456131,0 7.964149,-0.758491 3.60283,-0.75849 7.205659,-2.559905 V -1.6021728e-7 L 51.482537,0.75849026 V 43.802821 q 0,3.033962 0.474057,4.550943 0.568868,1.516981 1.611792,2.465094 1.137736,1.137735 2.93915,1.422169 1.896226,0.189623 4.076886,0.189623 l -0.474056,4.740565 h -0.948113 q -6.257546,0 -9.386319,-2.844339 Q 48.06933,52.809895 47.216029,50.439613 46.457538,48.06933 46.457538,44.087255 V 27.210844 q -6.447168,2.93915 -15.359431,2.93915 -4.076886,0 -7.964149,-0.75849 -3.792452,-0.853302 -7.110848,-2.275472 -4.740565,2.559905 -7.8693379,5.214622 -3.0339616,2.654716 -3.0339616,7.110848 0,3.887263 3.0339616,6.636791 3.1287729,2.749527 9.7655639,2.749527 3.318396,0 5.878301,-1.042924 -0.853302,-1.706603 -0.853302,-3.413207 0,-2.085848 1.232547,-3.223584 1.232547,-1.232547 3.318396,-1.232547 2.18066,0 3.413207,1.42217 1.232547,1.422169 1.232547,3.413206 0,2.84434 -2.275472,4.930188 1.42217,3.033962 3.413207,4.550943 1.991038,1.516981 5.688678,1.516981 h 0.853302 l -0.474056,4.550942 h -1.137736 q -4.835376,0 -7.774527,-2.370283 -2.844339,-2.275471 -4.740565,-5.783489 -3.508018,1.327358 -7.964149,1.327358 z M 16.117922,22.185845 q 3.602829,-1.896226 6.257545,-4.36132 2.749528,-2.559906 2.749528,-6.352358 0,-3.0339613 -2.275471,-4.9301873 -2.275471,-1.9910374 -6.352357,-1.9910374 -4.171698,0 -6.5419801,1.9910374 -2.3702826,1.896226 -2.3702826,5.3094333 0,3.223584 2.3702826,5.973112 2.3702821,2.654716 6.1627351,4.36132 z"
       style="font-weight:300;font-size:94.8113px;line-height:1.25;font-family:'Noto Sans Gujarati';-inkscape-font-specification:'Noto Sans Gujarati, Light';display:inline;stroke-width:2.37029"
       id="path597"
       transform="translate(24.331788,-1.8657231)"
       inkscape:label="p1" />
    <path
       style="fill:none;stroke:#000000;stroke-width:1px;stroke-linecap:butt;stroke-linejoin:miter;stroke-opacity:1"
       d="m 63.956788,56.181152 c -3.042762,-0.185902 -6.48888,-0.349862 -8.687513,-2.77758 -2.787447,-2.68618 -4.286544,-6.383489 -5.566393,-9.960701 -0.310614,-1.215574 0.01032,-2.820236 1.496078,-3.035159 1.240315,-0.219415 2.55491,0.342322 2.790655,1.631428 0.5948,2.086776 -1.002251,3.888678 -2.623892,4.955546 -2.009379,1.271752 -4.417663,1.876642 -6.76739,2.164821 -4.821981,0.373339 -10.197095,-0.07542 -14.013558,-3.360864 -2.559793,-2.162334 -3.927334,-5.55041 -3.66098,-8.886232 0.05752,-3.902381 2.523459,-7.356991 5.782229,-9.398481 3.489919,-2.564362 7.553514,-4.634473 11.379079,-6.85286 2.477692,-1.780108 4.924849,-3.740934 6.616204,-6.315007 2.0412,-3.352306 1.853362,-8.2232198 -1.185375,-10.932637 -3.558287,-3.26256528 -8.935642,-3.60181858 -13.401017,-2.3401383 -3.571856,1.037704 -6.573342,4.2698701 -6.661983,8.0935641 -0.412454,4.1241332 2.107753,7.9413612 5.379239,10.2299512 2.543724,2.165164 5.81915,3.080345 8.767193,4.542366 3.390842,1.44281 7.149065,1.8176 10.802168,1.955604 5.477736,0.159902 11.034403,-0.649724 16.056632,-2.915839 1.227632,-0.550251 2.349837,-0.989367 2.829716,-2.29458 0.0055,-7.514851 0.01105,-15.0297017 0.01657,-22.5445526"
       id="path327-3"
       sodipodi:nodetypes="ccccccccccccccccccccc"
       inkscape:label="s1" />
    <path
       style="fill:none;stroke:#000000;stroke-width:1px;stroke-linecap:butt;stroke-linejoin:miter;stroke-opacity:1"
       d="m 73.300538,20.540527 c 0.01353,7.63541 -0.01381,15.271772 0.02523,22.906588 0.107851,1.885647 0.239204,3.861622 1.23855,5.520503 1.116139,1.817486 3.002122,3.113128 5.092012,3.531984 1.722936,0.363102 3.504481,0.330988 5.253542,0.490144"
       id="path329"
       inkscape:label="s2" />
  </g>
  <g
     id="g653"
     inkscape:label="g2"
     transform="matrix(0.96051546,0,0,0.96051546,17.095742,0)">
    <path
       style="display:inline"
       d="m 33.9,9.7 v 0 Q 32.1,9.7 30.85,8.4 29.6,7.1 29.6,4.8 v 0 Q 29.6,2.6 30.8,1.3 32,0 33.9,0 v 0 q 1.9,0 3.1,1.3 1.2,1.3 1.2,3.5 v 0 q 0,2.4 -1.25,3.65 Q 35.7,9.7 33.9,9.7 Z"
       id="path644"
       inkscape:label="p2" />
    <path
       d="m 33.9375,1.3352194 c -0.820403,0 -1.515467,0.3118012 -2.085191,0.9354043 -0.569724,0.6236031 -0.854587,1.7074649 -0.854587,2.5903504 0,1.0553281 0.273468,1.8947931 0.820403,2.5183962 0.546936,0.6236031 1.347168,0.9354042 2.119375,0.9354042 0.865981,0 1.572439,-0.3118011 2.119375,-0.9354042 0.546935,-0.6236031 0.820403,-1.5977735 0.820403,-2.5183962 0,-1.1512668 -0.284863,-2.0267096 -0.854587,-2.6263275 C 35.452967,1.6350287 34.757903,1.3352194 33.9375,1.3352194 Z"
       style="display:inline;stroke-width:0.701376"
       id="path950"
       sodipodi:nodetypes="sssssssss"
       inkscape:label="s3" />
  </g>
</svg>
