<svg xmlns="http://www.w3.org/2000/svg" xmlns:xlink="http://www.w3.org/1999/xlink" width="155.4" height="130.4">
    <path
        d="M24 89.60L23.10 89.60Q20 89.60 17.50 88.95Q15 88.30 13.20 86.60L13.20 86.60Q11.30 84.90 10.50 82.40Q9.70 79.90 9.70 75.80L9.70 75.80L9.70 22.40Q9.70 15.80 11.05 11.70Q12.40 7.60 15.80 4.70L15.80 4.70Q18 2.80 21.15 1.70Q24.30 0.60 28.40 0.60L28.40 0.60Q37.50 0.60 44.75 5.85Q52 11.10 59.30 19.60L59.30 19.60L55.40 22.70Q49 15.10 42.65 10.30Q36.30 5.50 28.70 5.50L28.70 5.50Q22.80 5.50 19.40 8.40L19.40 8.40Q17 10.50 16 14Q15 17.50 15 24.10L15 24.10L15 75.50Q15 78.70 15.50 80.35Q16 82.00 17.20 82.90L17.20 82.90Q18.40 84.10 20.35 84.35Q22.30 84.60 24.60 84.60L24.60 84.60L24 89.60ZM49.50 60.30L30.90 67.10L29.10 62.40L44.50 56.90Q40.40 54.10 37.70 50.85Q35 47.60 35 42.90L35 42.90Q35 36.80 39.50 33.05Q44 29.30 51.70 29.30L51.70 29.30Q54.80 29.30 57.55 29.70Q60.30 30.10 63.10 30.70L63.10 30.70L62.10 35.60Q59.50 35.00 57.20 34.65Q54.90 34.30 52.20 34.30L52.20 34.30Q46.40 34.30 43.40 36.70Q40.40 39.10 40.40 43.30L40.40 43.30Q40.40 46.80 43 49.55Q45.60 52.30 50 54.90L50 54.90L70.30 47.50L72.30 52.20L55 58.30Q60.50 61.70 64.10 65.75Q67.70 69.80 67.70 75.70L67.70 75.70Q67.70 79.60 65.75 83.00Q63.80 86.40 59.75 88.50Q55.70 90.60 49.30 90.60L49.30 90.60Q42.50 90.60 37.10 88.40Q31.70 86.20 27.10 82.80L27.10 82.80L30.10 78.60Q34.90 82.20 39.45 83.90Q44 85.60 49.10 85.60L49.10 85.60Q55.80 85.60 59 82.85Q62.20 80.10 62.20 75.60L62.20 75.60Q62.20 71.10 58.95 67.55Q55.70 64 49.50 60.30L49.50 60.30ZM100.10 72.90L100.10 72.90Q96.50 72.90 93.65 71.90Q90.80 70.90 88.90 69.10L88.90 69.10Q86.30 66.90 85.05 63.65Q83.80 60.40 83.80 55.50L83.80 55.50L83.80 44.90Q83.80 41.80 83.55 40.20Q83.30 38.60 82.50 37.50L82.50 37.50Q81.60 36.30 79.75 35.80Q77.90 35.30 74.60 35.30L74.60 35.30L75.20 30.30L75.80 30.30Q79.70 30.30 82 31.20Q84.30 32.10 87.30 34.40L87.30 34.40L107.30 50.40Q109.60 52.20 111.30 53.65Q113 55.10 114.80 56.70L114.80 56.70L114.80 29.40L120.10 30.10L120.10 75.50Q120.10 78.80 120.65 80.40Q121.20 82.00 122.50 83.00L122.50 83.00Q123.70 84.10 125.50 84.35Q127.30 84.60 129.80 84.60L129.80 84.60L129.20 89.60L128.30 89.60Q121.60 89.60 118.40 86.60L118.40 86.60Q116.60 85.00 115.70 82.50Q114.80 80 114.80 75.80L114.80 75.80L114.80 67.70Q111.90 70 108.25 71.45Q104.60 72.90 100.10 72.90ZM92.60 65.70L92.60 65.70Q95.30 68 100.50 68L100.50 68Q104.50 68 108 66.40Q111.50 64.80 114.70 61.90L114.70 61.90L98.20 48.60Q95.50 46.60 93.30 44.75Q91.10 42.90 88.30 40.30L88.30 40.30Q88.80 41.90 88.95 43.80Q89.10 45.70 89.10 48.10L89.10 48.10L89.10 55.20Q89.10 59.30 90 61.75Q90.90 64.20 92.60 65.70ZM154.30 89.60L153.40 89.60Q150.30 89.60 147.80 88.95Q145.30 88.30 143.50 86.60L143.50 86.60Q141.60 84.90 140.80 82.40Q140 79.90 140 75.80L140 75.80L140 22.40Q140 15.80 141.35 11.70Q142.70 7.60 146.10 4.70L146.10 4.70Q148.30 2.80 151.45 1.70Q154.60 0.60 158.70 0.60L158.70 0.60Q167.80 0.60 175.05 5.85Q182.30 11.10 189.60 19.60L189.60 19.60L185.70 22.70Q179.30 15.10 172.95 10.30Q166.60 5.50 159 5.50L159 5.50Q153.10 5.50 149.70 8.40L149.70 8.40Q147.30 10.50 146.30 14Q145.30 17.50 145.30 24.10L145.30 24.10L145.30 75.50Q145.30 78.70 145.80 80.35Q146.30 82.00 147.50 82.90L147.50 82.90Q148.70 84.10 150.65 84.35Q152.60 84.60 154.90 84.60L154.90 84.60L154.30 89.60Z" />
      <g
     id="g309"
     inkscape:label="g2">
    <path
       style="display:inline"
       d="M 14.3,89 H 13.4 Q 10.3,89 7.8,88.35 5.3,87.7 3.5,86 v 0 Q 1.6,84.3 0.8,81.8 0,79.3 0,75.2 v 0 -53.4 Q 0,15.2 1.35,11.1 2.7,7 6.1,4.1 v 0 Q 8.3,2.2 11.45,1.1 14.6,0 18.7,0 V 0 Q 27.8,0 35.05,5.25 42.3,10.5 49.6,19 v 0 l -3.9,3.1 Q 39.3,14.5 32.95,9.7 26.6,4.9 19,4.9 v 0 q -5.9,0 -9.3,2.9 v 0 q -2.4,2.1 -3.4,5.6 -1,3.5 -1,10.1 v 0 51.4 q 0,3.2 0.5,4.85 0.5,1.65 1.7,2.55 v 0 q 1.2,1.2 3.15,1.45 Q 12.6,84 14.9,84 v 0 z"
       id="path2"
       inkscape:label="p2" />
    <path
       style="display:inline;fill:none;stroke:#000000;stroke-width:1px;stroke-linecap:butt;stroke-linejoin:miter;stroke-opacity:1"
       d="M 47.652368,20.738116 C 42.912163,15.169343 37.771996,9.7590782 31.535156,5.8554687 25.556372,2.3479405 17.925665,1.3282836 11.384063,3.8090168 7.098823,5.5445734 4.0571601,9.6376118 3.3691387,14.177325 2.2636698,19.814013 2.8760079,25.587166 2.7106596,31.290784 c 0.017146,15.362435 -0.08206,30.727062 0.00809,46.088122 0.1319749,2.783277 1.0109143,5.743286 3.4696807,7.348394 2.457118,1.869621 5.6943627,1.540296 8.5928207,1.741457"
       id="path491"
       inkscape:label="s3" /></g>
    <path style="fill:none;stroke:#000000;stroke-width:1px;stroke-linecap:butt;stroke-linejoin:miter;stroke-opacity:1"
        d="M 49.199953,73.684625 C 45.542435,73.514876 41.434404,73.22147 38.774107,70.359229 35.272673,67.03946 33.203255,62.501575 31.732801,57.9876 c -0.433277,-1.663038 0.05187,-4.092312 2.103131,-4.268848 2.176252,-0.510219 3.939845,1.803902 3.500008,3.835935 -0.121223,2.407133 -2.193433,4.092469 -3.937495,5.46875 C 27.158373,66.056132 19.76758,66.277622 13.15657,64.379013 7.8893591,62.834264 3.204351,58.481117 2.4761451,52.866651 1.7241008,48.289125 2.9949398,43.331521 6.3595583,40.035864 9.7505167,36.560508 14.163604,34.341858 18.326166,31.941753 22.48451,29.888953 26.388178,27.291545 29.98505,24.369337 33.70162,21.246702 35.510376,16.106029 34.482029,11.354535 33.366156,6.1026349 28.039332,2.8041649 22.973372,2.2562105 17.469938,1.5615454 11.108842,2.8446182 7.6467293,7.53662 4.272963,12.238002 5.0940559,19.149081 8.8480376,23.399069 c 2.7755564,3.211729 6.4248504,5.577552 10.2027444,7.448587 2.623208,0.696794 4.871553,2.369605 7.580741,2.828029 8.037651,2.048014 16.614221,2.08124 24.665721,0.09121 2.616833,-0.675595 5.12146,-1.687397 7.569944,-2.821585"
        id="path327" inkscape:label="s1" />
    <path style="fill:none;stroke:#000000;stroke-width:1px;stroke-linecap:butt;stroke-linejoin:miter;stroke-opacity:1"
        d="m 60.679687,0.00390625 c 0.01942,19.43348275 -0.04431,38.86785375 0.02734,58.30078075 0.13987,3.121403 0.692908,6.513186 3.073163,8.762201 2.484436,2.556953 6.21816,3.073671 9.618114,3.048269 0.571659,0.0163 1.143319,0.0326 1.714978,0.04891"
        id="path358" inkscape:label="s2" />
</svg>