<svg xmlns="http://www.w3.org/2000/svg" xmlns:xlink="http://www.w3.org/1999/xlink" width="155.4" height="130.4"><path d="M24 89.60L23.10 89.60Q20 89.60 17.50 88.95Q15 88.30 13.20 86.60L13.20 86.60Q11.30 84.90 10.50 82.40Q9.70 79.90 9.70 75.80L9.70 75.80L9.70 22.40Q9.70 15.80 11.05 11.70Q12.40 7.60 15.80 4.70L15.80 4.70Q18 2.80 21.15 1.70Q24.30 0.60 28.40 0.60L28.40 0.60Q37.50 0.60 44.75 5.85Q52 11.10 59.30 19.60L59.30 19.60L55.40 22.70Q49 15.10 42.65 10.30Q36.30 5.50 28.70 5.50L28.70 5.50Q22.80 5.50 19.40 8.40L19.40 8.40Q17 10.50 16 14Q15 17.50 15 24.10L15 24.10L15 75.50Q15 78.70 15.50 80.35Q16 82.00 17.20 82.90L17.20 82.90Q18.40 84.10 20.35 84.35Q22.30 84.60 24.60 84.60L24.60 84.60L24 89.60ZM49.50 60.30L30.90 67.10L29.10 62.40L44.50 56.90Q40.40 54.10 37.70 50.85Q35 47.60 35 42.90L35 42.90Q35 36.80 39.50 33.05Q44 29.30 51.70 29.30L51.70 29.30Q54.80 29.30 57.55 29.70Q60.30 30.10 63.10 30.70L63.10 30.70L62.10 35.60Q59.50 35.00 57.20 34.65Q54.90 34.30 52.20 34.30L52.20 34.30Q46.40 34.30 43.40 36.70Q40.40 39.10 40.40 43.30L40.40 43.30Q40.40 46.80 43 49.55Q45.60 52.30 50 54.90L50 54.90L70.30 47.50L72.30 52.20L55 58.30Q60.50 61.70 64.10 65.75Q67.70 69.80 67.70 75.70L67.70 75.70Q67.70 79.60 65.75 83.00Q63.80 86.40 59.75 88.50Q55.70 90.60 49.30 90.60L49.30 90.60Q42.50 90.60 37.10 88.40Q31.70 86.20 27.10 82.80L27.10 82.80L30.10 78.60Q34.90 82.20 39.45 83.90Q44 85.60 49.10 85.60L49.10 85.60Q55.80 85.60 59 82.85Q62.20 80.10 62.20 75.60L62.20 75.60Q62.20 71.10 58.95 67.55Q55.70 64 49.50 60.30L49.50 60.30ZM100.10 72.90L100.10 72.90Q96.50 72.90 93.65 71.90Q90.80 70.90 88.90 69.10L88.90 69.10Q86.30 66.90 85.05 63.65Q83.80 60.40 83.80 55.50L83.80 55.50L83.80 44.90Q83.80 41.80 83.55 40.20Q83.30 38.60 82.50 37.50L82.50 37.50Q81.60 36.30 79.75 35.80Q77.90 35.30 74.60 35.30L74.60 35.30L75.20 30.30L75.80 30.30Q79.70 30.30 82 31.20Q84.30 32.10 87.30 34.40L87.30 34.40L107.30 50.40Q109.60 52.20 111.30 53.65Q113 55.10 114.80 56.70L114.80 56.70L114.80 29.40L120.10 30.10L120.10 75.50Q120.10 78.80 120.65 80.40Q121.20 82.00 122.50 83.00L122.50 83.00Q123.70 84.10 125.50 84.35Q127.30 84.60 129.80 84.60L129.80 84.60L129.20 89.60L128.30 89.60Q121.60 89.60 118.40 86.60L118.40 86.60Q116.60 85.00 115.70 82.50Q114.80 80 114.80 75.80L114.80 75.80L114.80 67.70Q111.90 70 108.25 71.45Q104.60 72.90 100.10 72.90ZM92.60 65.70L92.60 65.70Q95.30 68 100.50 68L100.50 68Q104.50 68 108 66.40Q111.50 64.80 114.70 61.90L114.70 61.90L98.20 48.60Q95.50 46.60 93.30 44.75Q91.10 42.90 88.30 40.30L88.30 40.30Q88.80 41.90 88.95 43.80Q89.10 45.70 89.10 48.10L89.10 48.10L89.10 55.20Q89.10 59.30 90 61.75Q90.90 64.20 92.60 65.70ZM154.30 89.60L153.40 89.60Q150.30 89.60 147.80 88.95Q145.30 88.30 143.50 86.60L143.50 86.60Q141.60 84.90 140.80 82.40Q140 79.90 140 75.80L140 75.80L140 22.40Q140 15.80 141.35 11.70Q142.70 7.60 146.10 4.70L146.10 4.70Q148.30 2.80 151.45 1.70Q154.60 0.60 158.70 0.60L158.70 0.60Q167.80 0.60 175.05 5.85Q182.30 11.10 189.60 19.60L189.60 19.60L185.70 22.70Q179.30 15.10 172.95 10.30Q166.60 5.50 159 5.50L159 5.50Q153.10 5.50 149.70 8.40L149.70 8.40Q147.30 10.50 146.30 14Q145.30 17.50 145.30 24.10L145.30 24.10L145.30 75.50Q145.30 78.70 145.80 80.35Q146.30 82.00 147.50 82.90L147.50 82.90Q148.70 84.10 150.65 84.35Q152.60 84.60 154.90 84.60L154.90 84.60L154.30 89.60Z"/></svg>