<svg xmlns="http://www.w3.org/2000/svg" xmlns:xlink="http://www.w3.org/1999/xlink" width="130.3" height="130.4">
    <path
        d="M24.40 60.30L5.80 67.10L4 62.40L19.40 56.90Q15.30 54.10 12.60 50.85Q9.90 47.60 9.90 42.90L9.90 42.90Q9.90 36.80 14.40 33.05Q18.90 29.30 26.60 29.30L26.60 29.30Q29.70 29.30 32.45 29.70Q35.20 30.10 38 30.70L38 30.70L37 35.60Q34.40 35.00 32.10 34.65Q29.80 34.30 27.10 34.30L27.10 34.30Q21.30 34.30 18.30 36.70Q15.30 39.10 15.30 43.30L15.30 43.30Q15.30 46.80 17.90 49.55Q20.50 52.30 24.90 54.90L24.90 54.90L45.20 47.50L47.20 52.20L29.90 58.30Q35.40 61.70 39 65.75Q42.60 69.80 42.60 75.70L42.60 75.70Q42.60 79.60 40.65 83.00Q38.70 86.40 34.65 88.50Q30.60 90.60 24.20 90.60L24.20 90.60Q17.40 90.60 12 88.40Q6.60 86.20 2 82.80L2 82.80L5 78.60Q9.80 82.20 14.35 83.90Q18.90 85.60 24 85.60L24 85.60Q30.70 85.60 33.90 82.85Q37.10 80.10 37.10 75.60L37.10 75.60Q37.10 71.10 33.85 67.55Q30.60 64 24.40 60.30L24.40 60.30ZM64.90 112.20L60.60 114.80Q55.20 106.50 50.60 103.25Q46 100.00 40.20 100.00L40.20 100.00Q38.40 100.00 36.90 100.30Q35.40 100.60 34.20 101.00L34.20 101.00L32.60 96.20Q34.40 95.60 36.25 95.30Q38.10 95.00 40.40 95.00L40.40 95.00Q47.90 95.00 53.60 99.45Q59.30 103.90 64.90 112.20L64.90 112.20ZM75 72.90L75 72.90Q71.40 72.90 68.55 71.90Q65.70 70.90 63.80 69.10L63.80 69.10Q61.20 66.90 59.95 63.65Q58.70 60.40 58.70 55.50L58.70 55.50L58.70 44.90Q58.70 41.80 58.45 40.20Q58.20 38.60 57.40 37.50L57.40 37.50Q56.50 36.30 54.65 35.80Q52.80 35.30 49.50 35.30L49.50 35.30L50.10 30.30L50.70 30.30Q54.60 30.30 56.90 31.20Q59.20 32.10 62.20 34.40L62.20 34.40L82.20 50.40Q84.50 52.20 86.20 53.65Q87.90 55.10 89.70 56.70L89.70 56.70L89.70 29.40L95 30.10L95 75.50Q95 78.80 95.55 80.40Q96.10 82.00 97.40 83.00L97.40 83.00Q98.60 84.10 100.40 84.35Q102.20 84.60 104.70 84.60L104.70 84.60L104.10 89.60L103.20 89.60Q96.50 89.60 93.30 86.60L93.30 86.60Q91.50 85.00 90.60 82.50Q89.70 80 89.70 75.80L89.70 75.80L89.70 67.70Q86.80 70 83.15 71.45Q79.50 72.90 75 72.90ZM67.50 65.70L67.50 65.70Q70.20 68 75.40 68L75.40 68Q79.40 68 82.90 66.40Q86.40 64.80 89.60 61.90L89.60 61.90L73.10 48.60Q70.40 46.60 68.20 44.75Q66 42.90 63.20 40.30L63.20 40.30Q63.70 41.90 63.85 43.80Q64 45.70 64 48.10L64 48.10L64 55.20Q64 59.30 64.90 61.75Q65.80 64.20 67.50 65.70ZM129.30 89.60L128.30 89.60Q125.30 89.60 122.75 88.95Q120.20 88.30 118.40 86.60L118.40 86.60Q114.90 83.30 114.90 75.80L114.90 75.80L114.90 29.10Q113.50 17.70 110 11.60Q106.50 5.50 101 5.50L101 5.50Q97.40 5.50 95.40 8.10Q93.40 10.70 93.40 15.80L93.40 15.80Q93.40 19.70 94 22.80L94 22.80L88.90 22.80Q88.60 21.30 88.35 19.20Q88.10 17.10 88.10 15.20L88.10 15.20Q88.10 8.60 91.45 4.60Q94.80 0.60 101 0.60L101 0.60Q106.90 0.60 110.90 4.55Q114.90 8.50 117.15 14.95Q119.40 21.40 120.20 28.80L120.20 28.80L120.20 75.50Q120.20 78.80 120.70 80.35Q121.20 81.90 122.40 82.90L122.40 82.90Q123.60 84.10 125.60 84.35Q127.60 84.60 129.80 84.60L129.80 84.60L129.30 89.60Z" />
      <g
     id="g399"
     inkscape:label="g2">
    <path
       style="display:inline"
       d="m 70.7,89 h -1 q -3,0 -5.55,-0.65 Q 61.6,87.7 59.8,86 v 0 Q 56.3,82.7 56.3,75.2 v 0 -46.7 Q 54.9,17.1 51.4,11 47.9,4.9 42.4,4.9 v 0 q -3.6,0 -5.6,2.6 -2,2.6 -2,7.7 v 0 q 0,3.9 0.6,7 v 0 H 30.3 Q 30,20.7 29.75,18.6 29.5,16.5 29.5,14.6 v 0 Q 29.5,8 32.85,4 36.2,0 42.4,0 v 0 q 5.9,0 9.9,3.95 4,3.95 6.25,10.4 2.25,6.45 3.05,13.85 v 0 46.7 q 0,3.3 0.5,4.85 0.5,1.55 1.7,2.55 v 0 Q 65,83.5 67,83.75 69,84 71.2,84 v 0 z"
       id="path330"
       inkscape:label="p2" />
    <path
       style="display:inline;fill:none;stroke:#000000;stroke-width:1px;stroke-linecap:butt;stroke-linejoin:miter;stroke-opacity:1"
       d="M 32.90625,22.296875 C 32.189196,17.24716 31.309374,11.67002 33.948338,7.0048776 36.015851,3.1824285 40.814237,1.7827514 44.871275,2.7018315 c 5.299598,1.0610536 8.634255,5.9944562 10.53375,10.6924095 1.94946,4.911209 3.041647,10.154719 3.53254,15.40287 0.03373,16.081561 -0.05668,32.165472 0.05492,48.245568 0.09206,3.485135 1.641413,7.400064 5.196702,8.60873 2.224083,0.864628 4.672997,0.637872 7.006103,0.85642"
       id="path80"
       inkscape:label="s3" />
  </g>
    <path style="fill:none;stroke:#000000;stroke-width:1px;stroke-linecap:butt;stroke-linejoin:miter;stroke-opacity:1"
        d="M 49.199953,73.684625 C 45.542435,73.514876 41.434404,73.22147 38.774107,70.359229 35.272673,67.03946 33.203255,62.501575 31.732801,57.9876 c -0.433277,-1.663038 0.05187,-4.092312 2.103131,-4.268848 2.176252,-0.510219 3.939845,1.803902 3.500008,3.835935 -0.121223,2.407133 -2.193433,4.092469 -3.937495,5.46875 C 27.158373,66.056132 19.76758,66.277622 13.15657,64.379013 7.8893591,62.834264 3.204351,58.481117 2.4761451,52.866651 1.7241008,48.289125 2.9949398,43.331521 6.3595583,40.035864 9.7505167,36.560508 14.163604,34.341858 18.326166,31.941753 22.48451,29.888953 26.388178,27.291545 29.98505,24.369337 33.70162,21.246702 35.510376,16.106029 34.482029,11.354535 33.366156,6.1026349 28.039332,2.8041649 22.973372,2.2562105 17.469938,1.5615454 11.108842,2.8446182 7.6467293,7.53662 4.272963,12.238002 5.0940559,19.149081 8.8480376,23.399069 c 2.7755564,3.211729 6.4248504,5.577552 10.2027444,7.448587 2.623208,0.696794 4.871553,2.369605 7.580741,2.828029 8.037651,2.048014 16.614221,2.08124 24.665721,0.09121 2.616833,-0.675595 5.12146,-1.687397 7.569944,-2.821585"
        id="path327" inkscape:label="s1" />
    <path style="fill:none;stroke:#000000;stroke-width:1px;stroke-linecap:butt;stroke-linejoin:miter;stroke-opacity:1"
        d="m 60.679687,0.00390625 c 0.01942,19.43348275 -0.04431,38.86785375 0.02734,58.30078075 0.13987,3.121403 0.692908,6.513186 3.073163,8.762201 2.484436,2.556953 6.21816,3.073671 9.618114,3.048269 0.571659,0.0163 1.143319,0.0326 1.714978,0.04891"
        id="path358" inkscape:label="s2" />
</svg>