<?xml version="1.0" encoding="UTF-8" standalone="no"?>
<svg
   width="85.817955"
   height="88.999992"
   version="1.1"
   id="svg731"
   sodipodi:docname="3_xee.svg"
   inkscape:version="1.2.1 (9c6d41e410, 2022-07-14)"
   xmlns:inkscape="http://www.inkscape.org/namespaces/inkscape"
   xmlns:sodipodi="http://sodipodi.sourceforge.net/DTD/sodipodi-0.dtd"
   xmlns="http://www.w3.org/2000/svg"
   xmlns:svg="http://www.w3.org/2000/svg">
  <defs
     id="defs735" />
  <sodipodi:namedview
     id="namedview733"
     pagecolor="#ffffff"
     bordercolor="#666666"
     borderopacity="1.0"
     inkscape:showpageshadow="2"
     inkscape:pageopacity="0.0"
     inkscape:pagecheckerboard="0"
     inkscape:deskcolor="#d1d1d1"
     showgrid="false"
     inkscape:zoom="10.237866"
     inkscape:cx="47.373156"
     inkscape:cy="42.977709"
     inkscape:window-width="1920"
     inkscape:window-height="1027"
     inkscape:window-x="-8"
     inkscape:window-y="-8"
     inkscape:window-maximized="1"
     inkscape:current-layer="svg731" />
  <g
     id="g1787"
     inkscape:label="g1"
     style="display:inline"
     transform="matrix(1.0163566,0,0,1.0170151,-24.729772,29.571469)">
    <path
       d="m 42.061502,51.607851 q -8.248584,0 -12.989149,-3.887263 -4.740565,-3.982075 -4.740565,-9.955187 0,-3.792452 1.516981,-6.447168 1.611792,-2.654717 4.266508,-4.645754 2.654717,-2.085849 5.878301,-3.792452 -4.171697,-2.370283 -6.636791,-5.688678 -2.465094,-3.413207 -2.465094,-7.3952819 0,-5.1198101 3.792452,-8.3433944 3.792452,-3.3183956 10.14481,-3.3183956 5.783489,0 9.765564,2.9391504 3.982075,2.9391504 3.982075,8.0589606 0,4.7405649 -2.84434,7.7745269 -2.749527,3.033961 -6.447168,5.309433 4.550942,1.327358 10.334432,1.327358 4.456131,0 7.964149,-0.758491 3.60283,-0.75849 7.205659,-2.559905 V -1.8657229 l 5.024999,0.7584904 V 41.937098 q 0,3.033962 0.474057,4.550943 0.568868,1.516981 1.611792,2.465094 1.137736,1.137735 2.93915,1.422169 1.896226,0.189623 4.076886,0.189623 l -0.474056,4.740565 h -0.948113 q -6.257546,0 -9.386319,-2.844339 -1.706604,-1.516981 -2.559905,-3.887263 -0.758491,-2.370283 -0.758491,-6.352358 V 25.345121 q -6.447168,2.93915 -15.359431,2.93915 -4.076886,0 -7.964149,-0.75849 -3.792452,-0.853302 -7.110848,-2.275472 -4.740565,2.559905 -7.869338,5.214622 -3.033962,2.654716 -3.033962,7.110848 0,3.887263 3.033962,6.636791 3.128773,2.749527 9.765564,2.749527 3.318396,0 5.878301,-1.042924 -0.853302,-1.706603 -0.853302,-3.413207 0,-2.085848 1.232547,-3.223584 1.232547,-1.232547 3.318396,-1.232547 2.18066,0 3.413207,1.42217 1.232547,1.422169 1.232547,3.413206 0,2.84434 -2.275472,4.930188 1.42217,3.033962 3.413207,4.550943 1.991038,1.516981 5.688678,1.516981 h 0.853302 l -0.474056,4.550942 h -1.137736 q -4.835376,0 -7.774527,-2.370283 -2.844339,-2.275471 -4.740565,-5.783489 -3.508018,1.327358 -7.964149,1.327358 z M 40.44971,20.320122 q 3.602829,-1.896226 6.257545,-4.36132 2.749528,-2.559906 2.749528,-6.3523579 0,-3.0339611 -2.275471,-4.9301871 -2.275471,-1.9910374 -6.352357,-1.9910374 -4.171698,0 -6.54198,1.9910374 -2.370283,1.896226 -2.370283,5.3094331 0,3.2235839 2.370283,5.9731119 2.370282,2.654716 6.162735,4.36132 z"
       id="path410"
       style="font-weight:300;font-size:94.8113px;line-height:1.25;font-family:'Noto Sans Gujarati';-inkscape-font-specification:'Noto Sans Gujarati, Light';stroke-width:1.68549"
       inkscape:label="p1" />
    <path
       style="fill:none;stroke:#000000;stroke-width:1px;stroke-linecap:butt;stroke-linejoin:miter;stroke-opacity:1"
       d="m 63.956788,56.181152 c -3.042762,-0.185902 -6.48888,-0.349862 -8.687513,-2.77758 -2.787447,-2.68618 -4.286544,-6.383489 -5.566393,-9.960701 -0.310614,-1.215574 0.01032,-2.820236 1.496078,-3.035159 1.240315,-0.219415 2.55491,0.342322 2.790655,1.631428 0.5948,2.086776 -1.002251,3.888678 -2.623892,4.955546 -2.009379,1.271752 -4.417663,1.876642 -6.76739,2.164821 -4.821981,0.373339 -10.197095,-0.07542 -14.013558,-3.360864 -2.559793,-2.162334 -3.927334,-5.55041 -3.66098,-8.886232 0.05752,-3.902381 2.523459,-7.356991 5.782229,-9.398481 3.489919,-2.564362 7.553514,-4.634473 11.379079,-6.85286 2.477692,-1.780108 4.924849,-3.740934 6.616204,-6.315007 2.0412,-3.352306 1.853362,-8.2232198 -1.185375,-10.932637 -3.558287,-3.26256528 -8.935642,-3.60181858 -13.401017,-2.3401383 -3.571856,1.037704 -6.573342,4.2698701 -6.661983,8.0935641 -0.412454,4.1241332 2.107753,7.9413612 5.379239,10.2299512 2.543724,2.165164 5.81915,3.080345 8.767193,4.542366 3.390842,1.44281 7.149065,1.8176 10.802168,1.955604 5.477736,0.159902 11.034403,-0.649724 16.056632,-2.915839 1.227632,-0.550251 2.349837,-0.989367 2.829716,-2.29458 0.0055,-7.514851 0.01105,-15.0297017 0.01657,-22.5445526"
       id="path327"
       sodipodi:nodetypes="ccccccccccccccccccccc"
       inkscape:label="s1" />
    <path
       style="fill:none;stroke:#000000;stroke-width:1px;stroke-linecap:butt;stroke-linejoin:miter;stroke-opacity:1"
       d="m 73.300538,20.540527 c 0.01353,7.63541 -0.01381,15.271772 0.02523,22.906588 0.107851,1.885647 0.239204,3.861622 1.23855,5.520503 1.116139,1.817486 3.002122,3.113128 5.092012,3.531984 1.722936,0.363102 3.504481,0.330988 5.253542,0.490144"
       id="path329"
       inkscape:label="s2" />
  </g>
  <g
     id="g399"
     inkscape:label="g2"
     transform="matrix(0.96327587,0,0,0.96424719,17.192362,0)"
     style="display:inline">
    <path
       style="display:inline"
       d="m 70.7,89 h -1 q -3,0 -5.55,-0.65 Q 61.6,87.7 59.8,86 v 0 Q 56.3,82.7 56.3,75.2 v 0 -46.7 Q 54.9,17.1 51.4,11 47.9,4.9 42.4,4.9 v 0 q -3.6,0 -5.6,2.6 -2,2.6 -2,7.7 v 0 q 0,3.9 0.6,7 v 0 H 30.3 Q 30,20.7 29.75,18.6 29.5,16.5 29.5,14.6 v 0 Q 29.5,8 32.85,4 36.2,0 42.4,0 v 0 q 5.9,0 9.9,3.95 4,3.95 6.25,10.4 2.25,6.45 3.05,13.85 v 0 46.7 q 0,3.3 0.5,4.85 0.5,1.55 1.7,2.55 v 0 Q 65,83.5 67,83.75 69,84 71.2,84 v 0 z"
       id="path330"
       inkscape:label="p2" />
    <path
       style="display:inline;fill:none;stroke:#000000;stroke-width:1px;stroke-linecap:butt;stroke-linejoin:miter;stroke-opacity:1"
       d="M 32.90625,22.296875 C 32.189196,17.24716 31.309374,11.67002 33.948338,7.0048776 36.015851,3.1824285 40.814237,1.7827514 44.871275,2.7018315 c 5.299598,1.0610536 8.634255,5.9944562 10.53375,10.6924095 1.94946,4.911209 3.041647,10.154719 3.53254,15.40287 0.03373,16.081561 -0.05668,32.165472 0.05492,48.245568 0.09206,3.485135 1.641413,7.400064 5.196702,8.60873 2.224083,0.864628 4.672997,0.637872 7.006103,0.85642"
       id="path80"
       inkscape:label="s3" />
  </g>
</svg>
