<?xml version="1.0" encoding="UTF-8" standalone="no"?>
<svg
   width="65.399971"
   height="87"
   version="1.1"
   id="svg882"
   sodipodi:docname="4_xu.svg"
   inkscape:version="1.2.1 (9c6d41e410, 2022-07-14)"
   xmlns:inkscape="http://www.inkscape.org/namespaces/inkscape"
   xmlns:sodipodi="http://sodipodi.sourceforge.net/DTD/sodipodi-0.dtd"
   xmlns="http://www.w3.org/2000/svg"
   xmlns:svg="http://www.w3.org/2000/svg">
  <defs
     id="defs886" />
  <sodipodi:namedview
     id="namedview884"
     pagecolor="#ffffff"
     bordercolor="#666666"
     borderopacity="1.0"
     inkscape:showpageshadow="2"
     inkscape:pageopacity="0.0"
     inkscape:pagecheckerboard="0"
     inkscape:deskcolor="#d1d1d1"
     showgrid="false"
     inkscape:zoom="5.6568543"
     inkscape:cx="-33.234019"
     inkscape:cy="51.618795"
     inkscape:window-width="1920"
     inkscape:window-height="1027"
     inkscape:window-x="-8"
     inkscape:window-y="-8"
     inkscape:window-maximized="1"
     inkscape:current-layer="svg882" />
  <g
     id="g1787"
     inkscape:label="g1"
     style="display:inline"
     transform="matrix(1.0547266,0,0,1.0547266,-25.663383,1.9678275)">
    <path
       d="m 18.700002,56.400001 q -8.699999,0 -13.6999993,-4.1 Q 2.876214e-7,48.100001 2.876214e-7,41.8 q 0,-4 1.6000015123786,-6.799999 1.6999992,-2.8 4.4999986,-4.9 2.800002,-2.200001 6.2000006,-4 Q 7.9000024,23.6 5.3000009,20.100001 2.700002,16.5 2.700002,12.3 q 0,-5.3999998 3.9999999,-8.8 Q 10.700002,4.2979703e-8 17.400001,4.2979703e-8 q 6.1,0 10.3,3.099999957020297 4.200001,3.0999999 4.200001,8.5 0,5 -3,8.2 -2.9,3.200001 -6.799999,5.599999 Q 26.900002,26.8 33.000002,26.8 q 4.699999,0 8.399998,-0.799999 3.800002,-0.8 7.600002,-2.700002 V 4.29797e-8 l 5.3,0.7999999870203 V 63.200001 h -5.3 V 28.7 q -6.8,3.1 -16.2,3.1 -4.300001,0 -8.400001,-0.799999 -4,-0.9 -7.499999,-2.400001 -5,2.699999 -8.3000004,5.500001 Q 5.4000012,36.9 5.4000012,41.599999 q 0,4.100001 3.2000004,7 3.3000004,2.9 10.3000004,2.9 3.499999,0 6.200001,-1.099998 Q 24.2,48.599999 24.2,46.8 q 0,-2.200001 1.300001,-3.400001 1.300001,-1.299998 3.500001,-1.299998 2.299998,0 3.599999,1.499998 1.300001,1.500002 1.300001,3.600002 0,3 -2.400001,5.2 1.500001,3.199998 3.600001,4.8 2.100001,1.599999 6,1.599999 h 0.9 l -0.500001,4.799999 h -1.199998 q -5.1,0 -8.200001,-2.499999 -3,-2.400001 -5,-6.1 -3.700001,1.400001 -8.4,1.400001 z m -1.7,-33.000002 q 3.8,-2 6.599999,-4.599999 2.9,-2.7 2.9,-6.7 0,-3.1999999 -2.399998,-5.1999998 -2.400001,-2.1000003 -6.700002,-2.1000003 -4.399998,0 -6.9,2.1000003 Q 8.0000026,8.9000001 8.0000026,12.5 q 0,3.4 2.4999984,6.3 2.500002,2.8 6.500001,4.599999 z"
       style="font-weight:300;font-size:39.9999px;line-height:1.25;font-family:'Noto Sans Gujarati';-inkscape-font-specification:'Noto Sans Gujarati, Light';stroke-width:2.50001"
       id="path911"
       inkscape:label="p1"
       transform="matrix(0.948113,0,0,0.948113,24.331787,-1.8657228)" />
    <path
       style="fill:none;stroke:#000000;stroke-width:1px;stroke-linecap:butt;stroke-linejoin:miter;stroke-opacity:1"
       d="m 63.956788,56.181152 c -3.042762,-0.185902 -6.48888,-0.349862 -8.687513,-2.77758 -2.787447,-2.68618 -4.286544,-6.383489 -5.566393,-9.960701 -0.310614,-1.215574 0.01032,-2.820236 1.496078,-3.035159 1.240315,-0.219415 2.55491,0.342322 2.790655,1.631428 0.5948,2.086776 -1.002251,3.888678 -2.623892,4.955546 -2.009379,1.271752 -4.417663,1.876642 -6.76739,2.164821 -4.821981,0.373339 -10.197095,-0.07542 -14.013558,-3.360864 -2.559793,-2.162334 -3.927334,-5.55041 -3.66098,-8.886232 0.05752,-3.902381 2.523459,-7.356991 5.782229,-9.398481 3.489919,-2.564362 7.553514,-4.634473 11.379079,-6.85286 2.477692,-1.780108 4.924849,-3.740934 6.616204,-6.315007 2.0412,-3.352306 1.853362,-8.2232198 -1.185375,-10.932637 -3.558287,-3.26256528 -8.935642,-3.60181858 -13.401017,-2.3401383 -3.571856,1.037704 -6.573342,4.2698701 -6.661983,8.0935641 -0.412454,4.1241332 2.107753,7.9413612 5.379239,10.2299512 2.543724,2.165164 5.81915,3.080345 8.767193,4.542366 3.390842,1.44281 7.149065,1.8176 10.802168,1.955604 5.477736,0.159902 11.034403,-0.649724 16.056632,-2.915839 1.227632,-0.550251 2.349837,-0.989367 2.829716,-2.29458 0.0055,-7.514851 0.01105,-15.0297017 0.01657,-22.5445526"
       id="path327"
       sodipodi:nodetypes="ccccccccccccccccccccc"
       inkscape:label="s1" />
    <path
       style="fill:none;stroke:#000000;stroke-width:1px;stroke-linecap:butt;stroke-linejoin:miter;stroke-opacity:1"
       d="m 73.300538,20.540527 c 0.01353,7.63541 0.01952,15.282883 0.02523,22.906588 0,2.567031 -0.0012,12.777565 -0.01579,14.629038"
       id="path329"
       inkscape:label="s2"
       sodipodi:nodetypes="ccc" />
  </g>
  <g
     id="g429"
     inkscape:label="g2"
     transform="translate(17.8)">
    <path
       style="display:inline"
       d="m 30.9,87 v 0 Q 24.3,87 19.15,84.75 14,82.5 9.85,78.7 5.7,74.9 2.2,70.1 v 0 l 4.2,-2.9 q 5.1,6.7 10.7,10.8 5.6,4.1 13.8,4.1 v 0 q 5.7,0 8.7,-2.2 3,-2.2 3,-6.5 v 0 q 0,-3.9 -2.6,-5.9 -2.6,-2 -7,-2 v 0 q -2.5,0 -4.7,0.55 -2.2,0.55 -4.4,1.45 v 0 L 22.1,63 q 2.6,-1.1 5.2,-1.65 2.6,-0.55 5.4,-0.55 v 0 q 7.1,0 11,3.55 3.9,3.55 3.9,9.45 v 0 q 0,6.2 -4.45,9.7 Q 38.7,87 30.9,87 Z"
       id="path420"
       inkscape:label="p2" />
    <path
       style="display:inline;fill:none;stroke:#000000;stroke-width:1px;stroke-linecap:butt;stroke-linejoin:miter;stroke-opacity:1"
       d="m 22.914062,65.289062 c 2.323807,-0.692195 4.562347,-1.731347 7.000658,-1.966609 3.549036,-0.376084 7.376537,-0.234926 10.53575,1.599631 2.719286,1.540051 4.469061,4.52798 4.601284,7.636307 0.253017,2.845818 -0.456653,5.883237 -2.460912,7.998761 -2.433486,2.67518 -6.157635,3.68678 -9.656459,3.920638 C 27.700261,84.79836 22.284886,83.938844 17.69019,81.310728 14.906965,79.755209 12.447616,77.671348 10.188095,75.437432 8.1199862,73.202596 6.1412982,70.891325 4.1757812,68.566406"
       id="path198"
       inkscape:label="s3" />
  </g>
</svg>
