<svg xmlns="http://www.w3.org/2000/svg" xmlns:xlink="http://www.w3.org/1999/xlink" width="105.2" height="130.4">
    <path
        d="M24.40 60.30L5.80 67.10L4 62.40L19.40 56.90Q15.30 54.10 12.60 50.85Q9.90 47.60 9.90 42.90L9.90 42.90Q9.90 36.80 14.40 33.05Q18.90 29.30 26.60 29.30L26.60 29.30Q29.70 29.30 32.45 29.70Q35.20 30.10 38 30.70L38 30.70L37 35.60Q34.40 35.00 32.10 34.65Q29.80 34.30 27.10 34.30L27.10 34.30Q21.30 34.30 18.30 36.70Q15.30 39.10 15.30 43.30L15.30 43.30Q15.30 46.80 17.90 49.55Q20.50 52.30 24.90 54.90L24.90 54.90L45.20 47.50L47.20 52.20L29.90 58.30Q35.40 61.70 39 65.75Q42.60 69.80 42.60 75.70L42.60 75.70Q42.60 79.60 40.65 83.00Q38.70 86.40 34.65 88.50Q30.60 90.60 24.20 90.60L24.20 90.60Q17.40 90.60 12 88.40Q6.60 86.20 2 82.80L2 82.80L5 78.60Q9.80 82.20 14.35 83.90Q18.90 85.60 24 85.60L24 85.60Q30.70 85.60 33.90 82.85Q37.10 80.10 37.10 75.60L37.10 75.60Q37.10 71.10 33.85 67.55Q30.60 64 24.40 60.30L24.40 60.30ZM64.90 112.20L60.60 114.80Q55.20 106.50 50.60 103.25Q46 100.00 40.20 100.00L40.20 100.00Q38.40 100.00 36.90 100.30Q35.40 100.60 34.20 101.00L34.20 101.00L32.60 96.20Q34.40 95.60 36.25 95.30Q38.10 95.00 40.40 95.00L40.40 95.00Q47.90 95.00 53.60 99.45Q59.30 103.90 64.90 112.20L64.90 112.20ZM75 72.90L75 72.90Q71.40 72.90 68.55 71.90Q65.70 70.90 63.80 69.10L63.80 69.10Q61.20 66.90 59.95 63.65Q58.70 60.40 58.70 55.50L58.70 55.50L58.70 44.90Q58.70 41.80 58.45 40.20Q58.20 38.60 57.40 37.50L57.40 37.50Q56.50 36.30 54.65 35.80Q52.80 35.30 49.50 35.30L49.50 35.30L50.10 30.30L50.70 30.30Q54.60 30.30 56.90 31.20Q59.20 32.10 62.20 34.40L62.20 34.40L82.20 50.40Q84.50 52.20 86.20 53.65Q87.90 55.10 89.70 56.70L89.70 56.70L89.70 29.40L95 30.10L95 75.50Q95 78.80 95.55 80.40Q96.10 82.00 97.40 83.00L97.40 83.00Q98.60 84.10 100.40 84.35Q102.20 84.60 104.70 84.60L104.70 84.60L104.10 89.60L103.20 89.60Q96.50 89.60 93.30 86.60L93.30 86.60Q91.50 85.00 90.60 82.50Q89.70 80 89.70 75.80L89.70 75.80L89.70 67.70Q86.80 70 83.15 71.45Q79.50 72.90 75 72.90ZM67.50 65.70L67.50 65.70Q70.20 68 75.40 68L75.40 68Q79.40 68 82.90 66.40Q86.40 64.80 89.60 61.90L89.60 61.90L73.10 48.60Q70.40 46.60 68.20 44.75Q66 42.90 63.20 40.30L63.20 40.30Q63.70 41.90 63.85 43.80Q64 45.70 64 48.10L64 48.10L64 55.20Q64 59.30 64.90 61.75Q65.80 64.20 67.50 65.70ZM94.70 25.50L90.30 25.50Q88.40 17.70 86.55 13.15Q84.70 8.60 82.25 6.70Q79.80 4.80 76 4.80L76 4.80Q74.80 4.80 73.45 5Q72.10 5.20 70.60 5.70L70.60 5.70L69.10 1.10Q71 0.50 72.80 0.25Q74.60 0 76.30 0L76.30 0Q80.90 0 84.25 2.25Q87.60 4.50 90.10 10.05Q92.60 15.60 94.70 25.50L94.70 25.50ZM89.40 23.70L86.60 26.60Q80.50 21.20 76.30 18.85Q72.10 16.50 67.20 16.50L67.20 16.50Q63.70 16.50 60.80 17.40L60.80 17.40L59.30 12.70Q61.10 12.30 63.05 12Q65 11.70 67.20 11.70L67.20 11.70Q71 11.70 74.35 12.90Q77.70 14.10 81.25 16.75Q84.80 19.40 89.40 23.70L89.40 23.70Z" />
      <g
     id="g522"
     inkscape:label="g2">
    <path
       style="display:inline"
       d="M 30.8,23.7 28,26.6 Q 21.9,21.2 17.7,18.85 13.5,16.5 8.6,16.5 v 0 q -3.5,0 -6.4,0.9 v 0 L 0.7,12.7 Q 2.5,12.3 4.45,12 6.4,11.7 8.6,11.7 v 0 q 3.8,0 7.15,1.2 3.35,1.2 6.9,3.85 3.55,2.65 8.15,6.95 z"
       id="path513"
       inkscape:label="p2" />
    <path
       style="display:inline;fill:none;stroke:#000000;stroke-width:1px;stroke-linecap:butt;stroke-linejoin:miter;stroke-opacity:1"
       d="m 1.2484854,15.037068 c 2.0296352,-0.33742 4.0471341,-0.823273 6.106769,-0.926121 1.7144665,-0.03627 3.4419196,-0.0066 5.1213336,0.377952 1.626492,0.286246 3.200444,0.851561 4.696094,1.542318 3.239677,1.543111 6.000222,3.881137 8.751411,6.145612 1.177108,1.030396 2.354216,2.060791 3.531324,3.091187"
       id="path660"
       inkscape:label="s3" />
  </g>
  <g
     id="g526"
     inkscape:label="g3">
    <path
       style="display:inline"
       d="M 36.1,25.5 H 31.7 Q 29.8,17.7 27.95,13.15 26.1,8.6 23.65,6.7 21.2,4.8 17.4,4.8 v 0 Q 16.2,4.8 14.85,5 13.5,5.2 12,5.7 v 0 L 10.5,1.1 Q 12.4,0.5 14.2,0.25 16,0 17.7,0 v 0 q 4.6,0 7.95,2.25 3.35,2.25 5.85,7.8 2.5,5.55 4.6,15.45 z"
       id="path511"
       inkscape:label="p3" />
    <path
       style="display:inline;fill:none;stroke:#000000;stroke-width:1px;stroke-linecap:butt;stroke-linejoin:miter;stroke-opacity:1"
       d="m 11.023437,3.453125 c 2.182778,-0.4976057 4.36528,-1.1946393 6.631852,-1.0710196 2.053103,-0.044291 4.123749,0.4216957 5.902797,1.4638298 1.290672,0.6572076 2.43165,1.6018918 3.277933,2.7802163 1.787546,2.2624393 2.976329,4.9290225 3.905851,7.6409995 1.112879,3.208175 2.009172,6.487831 2.71558,9.809147 0.117031,0.515091 0.234062,1.030183 0.351093,1.545274"
       id="path662"
       inkscape:label="s4" />
  </g>
    <path style="fill:none;stroke:#000000;stroke-width:1px;stroke-linecap:butt;stroke-linejoin:miter;stroke-opacity:1"
        d="M 49.199953,73.684625 C 45.542435,73.514876 41.434404,73.22147 38.774107,70.359229 35.272673,67.03946 33.203255,62.501575 31.732801,57.9876 c -0.433277,-1.663038 0.05187,-4.092312 2.103131,-4.268848 2.176252,-0.510219 3.939845,1.803902 3.500008,3.835935 -0.121223,2.407133 -2.193433,4.092469 -3.937495,5.46875 C 27.158373,66.056132 19.76758,66.277622 13.15657,64.379013 7.8893591,62.834264 3.204351,58.481117 2.4761451,52.866651 1.7241008,48.289125 2.9949398,43.331521 6.3595583,40.035864 9.7505167,36.560508 14.163604,34.341858 18.326166,31.941753 22.48451,29.888953 26.388178,27.291545 29.98505,24.369337 33.70162,21.246702 35.510376,16.106029 34.482029,11.354535 33.366156,6.1026349 28.039332,2.8041649 22.973372,2.2562105 17.469938,1.5615454 11.108842,2.8446182 7.6467293,7.53662 4.272963,12.238002 5.0940559,19.149081 8.8480376,23.399069 c 2.7755564,3.211729 6.4248504,5.577552 10.2027444,7.448587 2.623208,0.696794 4.871553,2.369605 7.580741,2.828029 8.037651,2.048014 16.614221,2.08124 24.665721,0.09121 2.616833,-0.675595 5.12146,-1.687397 7.569944,-2.821585"
        id="path327" inkscape:label="s1" />
    <path style="fill:none;stroke:#000000;stroke-width:1px;stroke-linecap:butt;stroke-linejoin:miter;stroke-opacity:1"
        d="m 60.679687,0.00390625 c 0.01942,19.43348275 -0.04431,38.86785375 0.02734,58.30078075 0.13987,3.121403 0.692908,6.513186 3.073163,8.762201 2.484436,2.556953 6.21816,3.073671 9.618114,3.048269 0.571659,0.0163 1.143319,0.0326 1.714978,0.04891"
        id="path358" inkscape:label="s2" />
</svg>