<?xml version="1.0" encoding="UTF-8" standalone="no"?>
<svg
   width="85.838509"
   height="89.599998"
   version="1.1"
   id="svg15"
   sodipodi:docname="9_xau.svg"
   inkscape:version="1.2.1 (9c6d41e410, 2022-07-14)"
   xmlns:inkscape="http://www.inkscape.org/namespaces/inkscape"
   xmlns:sodipodi="http://sodipodi.sourceforge.net/DTD/sodipodi-0.dtd"
   xmlns="http://www.w3.org/2000/svg"
   xmlns:svg="http://www.w3.org/2000/svg">
  <defs
     id="defs19" />
  <sodipodi:namedview
     id="namedview17"
     pagecolor="#ffffff"
     bordercolor="#666666"
     borderopacity="1.0"
     inkscape:showpageshadow="2"
     inkscape:pageopacity="0.0"
     inkscape:pagecheckerboard="0"
     inkscape:deskcolor="#d1d1d1"
     showgrid="false"
     inkscape:zoom="5.6568543"
     inkscape:cx="32.968854"
     inkscape:cy="56.391766"
     inkscape:window-width="1920"
     inkscape:window-height="1027"
     inkscape:window-x="-8"
     inkscape:window-y="-8"
     inkscape:window-maximized="1"
     inkscape:current-layer="svg15" />
  <g
     id="g1787"
     inkscape:label="g1"
     style="display:inline"
     transform="matrix(1.0172639,0,0,1.0172639,-24.751849,30.156933)">
    <path
       d="m 17.729714,53.473574 q -8.2485836,0 -12.9891487,-3.887263 Q 1.4877319e-7,45.604236 1.4877319e-7,39.631124 1.4877319e-7,35.838672 1.516981,33.183956 3.1287731,30.529239 5.7834896,28.538202 8.438206,26.452353 11.66179,24.74575 7.490093,22.375467 5.0249992,19.057072 2.5599053,15.643865 2.5599053,11.66179 q 0,-5.1198103 3.7924521,-8.3433946 Q 10.144809,-1.6021728e-7 16.497167,-1.6021728e-7 q 5.783489,0 9.765564,2.93915036021728 3.982075,2.9391504 3.982075,8.0589608 0,4.740565 -2.84434,7.774527 -2.749527,3.033961 -6.447168,5.309433 4.550942,1.327358 10.334432,1.327358 4.456131,0 7.964149,-0.758491 3.60283,-0.75849 7.205659,-2.559905 V -1.6021728e-7 L 51.482537,0.75849026 V 43.802821 q 0,3.033962 0.474057,4.550943 0.568868,1.516981 1.611792,2.465094 1.137736,1.137735 2.93915,1.422169 1.896226,0.189623 4.076886,0.189623 l -0.474056,4.740565 h -0.948113 q -6.257546,0 -9.386319,-2.844339 Q 48.06933,52.809895 47.216029,50.439613 46.457538,48.06933 46.457538,44.087255 V 27.210844 q -6.447168,2.93915 -15.359431,2.93915 -4.076886,0 -7.964149,-0.75849 -3.792452,-0.853302 -7.110848,-2.275472 -4.740565,2.559905 -7.8693379,5.214622 -3.0339616,2.654716 -3.0339616,7.110848 0,3.887263 3.0339616,6.636791 3.1287729,2.749527 9.7655639,2.749527 3.318396,0 5.878301,-1.042924 -0.853302,-1.706603 -0.853302,-3.413207 0,-2.085848 1.232547,-3.223584 1.232547,-1.232547 3.318396,-1.232547 2.18066,0 3.413207,1.42217 1.232547,1.422169 1.232547,3.413206 0,2.84434 -2.275472,4.930188 1.42217,3.033962 3.413207,4.550943 1.991038,1.516981 5.688678,1.516981 h 0.853302 l -0.474056,4.550942 h -1.137736 q -4.835376,0 -7.774527,-2.370283 -2.844339,-2.275471 -4.740565,-5.783489 -3.508018,1.327358 -7.964149,1.327358 z M 16.117922,22.185845 q 3.602829,-1.896226 6.257545,-4.36132 2.749528,-2.559906 2.749528,-6.352358 0,-3.0339613 -2.275471,-4.9301873 -2.275471,-1.9910374 -6.352357,-1.9910374 -4.171698,0 -6.5419801,1.9910374 -2.3702826,1.896226 -2.3702826,5.3094333 0,3.223584 2.3702826,5.973112 2.3702821,2.654716 6.1627351,4.36132 z"
       style="font-weight:300;font-size:94.8113px;line-height:1.25;font-family:'Noto Sans Gujarati';-inkscape-font-specification:'Noto Sans Gujarati, Light';display:inline;stroke-width:2.37029"
       id="path597"
       transform="translate(24.331788,-1.8657231)"
       inkscape:label="p1" />
    <path
       style="fill:none;stroke:#000000;stroke-width:1px;stroke-linecap:butt;stroke-linejoin:miter;stroke-opacity:1"
       d="m 63.956788,56.181152 c -3.042762,-0.185902 -6.48888,-0.349862 -8.687513,-2.77758 -2.787447,-2.68618 -4.286544,-6.383489 -5.566393,-9.960701 -0.310614,-1.215574 0.01032,-2.820236 1.496078,-3.035159 1.240315,-0.219415 2.55491,0.342322 2.790655,1.631428 0.5948,2.086776 -1.002251,3.888678 -2.623892,4.955546 -2.009379,1.271752 -4.417663,1.876642 -6.76739,2.164821 -4.821981,0.373339 -10.197095,-0.07542 -14.013558,-3.360864 -2.559793,-2.162334 -3.927334,-5.55041 -3.66098,-8.886232 0.05752,-3.902381 2.523459,-7.356991 5.782229,-9.398481 3.489919,-2.564362 7.553514,-4.634473 11.379079,-6.85286 2.477692,-1.780108 4.924849,-3.740934 6.616204,-6.315007 2.0412,-3.352306 1.853362,-8.2232198 -1.185375,-10.932637 -3.558287,-3.26256528 -8.935642,-3.60181858 -13.401017,-2.3401383 -3.571856,1.037704 -6.573342,4.2698701 -6.661983,8.0935641 -0.412454,4.1241332 2.107753,7.9413612 5.379239,10.2299512 2.543724,2.165164 5.81915,3.080345 8.767193,4.542366 3.390842,1.44281 7.149065,1.8176 10.802168,1.955604 5.477736,0.159902 11.034403,-0.649724 16.056632,-2.915839 1.227632,-0.550251 2.349837,-0.989367 2.829716,-2.29458 0.0055,-7.514851 0.01105,-15.0297017 0.01657,-22.5445526"
       id="path327-3"
       sodipodi:nodetypes="ccccccccccccccccccccc"
       inkscape:label="s1" />
    <path
       style="fill:none;stroke:#000000;stroke-width:1px;stroke-linecap:butt;stroke-linejoin:miter;stroke-opacity:1"
       d="m 73.300538,20.540527 c 0.01353,7.63541 -0.01381,15.271772 0.02523,22.906588 0.107851,1.885647 0.239204,3.861622 1.23855,5.520503 1.116139,1.817486 3.002122,3.113128 5.092012,3.531984 1.722936,0.363102 3.504481,0.330988 5.253542,0.490144"
       id="path329"
       inkscape:label="s2" />
  </g>
  <g
     id="g605"
     inkscape:label="g2"
     transform="matrix(0.96447545,0,0,0.96447545,17.167533,0)">
    <path
       style="display:inline"
       d="m 70.7,89.6 h -1 q -6.6,0 -9.9,-3 v 0 Q 58,85 57.15,82.5 56.3,80 56.3,75.8 v 0 -46.5 l 5.3,0.7 v 45.5 q 0,3.3 0.5,4.9 0.5,1.6 1.8,2.6 v 0 q 1.2,1.1 3.05,1.35 1.85,0.25 4.25,0.25 v 0 z"
       id="path592"
       inkscape:label="p2" />
    <path
       style="display:inline;fill:none;stroke:#000000;stroke-width:1px;stroke-linecap:butt;stroke-linejoin:miter;stroke-opacity:1"
       d="m 58.945814,29.339077 c 0.0052,15.660703 -0.0419,31.322813 -0.004,46.982637 0.07316,2.661925 0.300705,5.531206 2.06529,7.674603 1.94562,2.285428 5.076188,2.956219 7.950186,3.001875 0.734456,0.05113 1.468913,0.102253 2.203369,0.15338"
       id="path81"
       inkscape:label="s3" />
  </g>
  <g
     id="g609"
     inkscape:label="g3"
     transform="matrix(0.96447545,0,0,0.96447545,17.167533,0)">
    <path
       style="display:inline"
       d="m 55.9,23.7 -2.8,2.9 Q 47,21.2 42.8,18.85 38.6,16.5 33.7,16.5 v 0 q -3.5,0 -6.4,0.9 v 0 l -1.5,-4.7 q 1.8,-0.4 3.75,-0.7 1.95,-0.3 4.15,-0.3 v 0 q 3.8,0 7.15,1.2 3.35,1.2 6.9,3.85 3.55,2.65 8.15,6.95 z"
       id="path596"
       inkscape:label="p3" />
    <path
       style="display:inline;fill:none;stroke:#000000;stroke-width:1px;stroke-linecap:butt;stroke-linejoin:miter;stroke-opacity:1"
       d="m 26.306582,15.114407 c 2.688785,-0.568456 5.416241,-1.1935 8.183739,-0.988483 1.810938,0.02306 3.595689,0.410136 5.328375,0.908621 1.446215,0.495326 2.860202,1.115629 4.178036,1.890495 3.847011,2.308963 7.136989,5.387765 10.538424,8.281996"
       id="path905"
       inkscape:label="s4" />
  </g>
  <g
     id="g613"
     inkscape:label="g4"
     transform="matrix(0.96447545,0,0,0.95548375,17.167533,0)">
    <path
       style="display:inline"
       d="M 61.2,25.5 H 56.8 Q 54.9,17.7 53.05,13.15 51.2,8.6 48.75,6.7 46.3,4.8 42.5,4.8 v 0 Q 41.3,4.8 39.95,5 38.6,5.2 37.1,5.7 v 0 L 35.6,1.1 Q 37.5,0.5 39.3,0.25 41.1,0 42.8,0 v 0 q 4.6,0 7.95,2.25 3.35,2.25 5.85,7.8 2.5,5.55 4.6,15.45 z"
       id="path594"
       inkscape:label="p4" />
    <path
       style="display:inline;fill:none;stroke:#000000;stroke-width:1px;stroke-linecap:butt;stroke-linejoin:miter;stroke-opacity:1"
       d="m 36.195028,3.4913397 2.773185,-0.7181553 0.82864,-0.1767767 0.806544,-0.099437 1.138,-0.088388 h 0.905981 l 1.027514,0.033146 0.983321,0.121534 0.872835,0.1325825 1.237436,0.2872621 1.071709,0.4198447 1.347922,0.6960582 1.016466,0.6960583 0.696059,0.5966213 0.82864,0.9612233 0.950175,1.2042912 0.839689,1.3368738 0.806544,1.6130879 0.651864,1.425262 0.662913,1.635184 0.53033,1.679379 0.50108,1.557697 0.367187,1.382813 0.5,1.734375 0.453125,1.757812 1.007035,3.936361"
       id="path970"
       inkscape:label="s5" />
  </g>
</svg>
