<?xml version="1.0" encoding="UTF-8" standalone="no"?><svg width="85.838509" height="89.599998" version="1.1" id="svg15" sodipodi:docname="9_xau.svg" inkscape:version="1.2.1 (9c6d41e4, 2022-07-14)" xmlns:inkscape="http://www.inkscape.org/namespaces/inkscape" xmlns:sodipodi="http://sodipodi.sourceforge.net/DTD/sodipodi-0.dtd" xmlns="http://www.w3.org/2000/svg" xmlns:svg="http://www.w3.org/2000/svg"><defs id="defs19"></defs><sodipodi:namedview id="namedview17" pagecolor="#ffffff" bordercolor="#666666" borderopacity="1.0" inkscape:showpageshadow="2" inkscape:pageopacity="0.0" inkscape:pagecheckerboard="0" inkscape:deskcolor="#d1d1d1" showgrid="false" inkscape:zoom="5.6568543" inkscape:cx="33.057242" inkscape:cy="56.833707" inkscape:window-width="1309" inkscape:window-height="885" inkscape:window-x="35" inkscape:window-y="25" inkscape:window-maximized="0" inkscape:current-layer="g1787"></sodipodi:namedview><g id="g0" inkscape:label="g0" style="display:inline" transform="matrix(1.0172639,0,0,1.0172639,-24.751849,30.156933)"><path d="m 42.061502,51.695024 q -8.248584,0 -12.989149,-3.8936 -4.740565,-3.988566 -4.740565,-9.971416 0,-3.798634 1.516981,-6.457678 1.611792,-2.659045 4.266509,-4.653328 2.654716,-2.089249 5.8783,-3.798634 -4.171697,-2.374147 -6.636791,-5.697952 -2.465094,-3.418771 -2.465094,-7.4073379 0,-5.1281567 3.792452,-8.3569961 3.792452,-3.3238053 10.14481,-3.3238053 5.783489,0 9.765564,2.9439418 3.982075,2.9439419 3.982075,8.0720987 0,4.7482928 -2.84434,7.7872008 -2.749527,3.038907 -6.447168,5.318089 4.550942,1.329522 10.334432,1.329522 4.456131,0 7.964149,-0.759728 3.60283,-0.759726 7.205659,-2.564078 V -1.8657233 l 5.024999,0.759727 V 42.008506 q 0,3.038908 0.474057,4.558362 0.568868,1.519454 1.611792,2.469112 1.137736,1.13959 2.93915,1.424488 1.896226,0.189932 4.076886,0.189932 l -0.474056,4.748293 h -0.948113 q -6.257546,0 -9.386319,-2.848976 -1.706604,-1.519454 -2.559905,-3.8936 -0.758491,-2.374147 -0.758491,-6.362714 V 25.38948 q -6.447168,2.943942 -15.359431,2.943942 -4.076886,0 -7.964149,-0.759727 -3.792452,-0.854693 -7.110848,-2.279181 -4.740565,2.564078 -7.869338,5.223123 -3.033962,2.659043 -3.033962,7.12244 0,3.8936 3.033962,6.64761 3.128773,2.75401 9.765564,2.75401 3.318396,0 5.878301,-1.044625 -0.853302,-1.709385 -0.853302,-3.418771 0,-2.089248 1.232547,-3.228839 1.232547,-1.234556 3.318396,-1.234556 2.18066,0 3.413207,1.424488 1.232547,1.424488 1.232547,3.41877 0,2.848977 -2.275472,4.938226 1.42217,3.038908 3.413207,4.558362 1.991038,1.519454 5.688678,1.519454 h 0.853302 l -0.474056,4.558361 h -1.137736 q -4.835376,0 -7.774527,-2.374147 -2.844339,-2.279181 -4.740565,-5.792918 -3.508018,1.329522 -7.964149,1.329522 z M 40.44971,20.35629 q 3.602829,-1.899318 6.257545,-4.36843 2.749528,-2.56408 2.749528,-6.362714 0,-3.0389073 -2.275471,-4.9382246 -2.275471,-1.9942832 -6.352357,-1.9942832 -4.171698,0 -6.54198,1.9942832 -2.370283,1.8993173 -2.370283,5.3180886 0,3.228839 2.370283,5.98285 2.370282,2.659043 6.162735,4.36843 z" style="font-weight:300;font-size:94.8113px;line-height:1.25;font-family:&apos;Noto Sans Gujarati&apos;;-inkscape-font-specification:&apos;Noto Sans Gujarati, Light&apos;;display:inline;stroke-width:2.37222" id="g0p0" inkscape:label="g0p0"></path><path style="fill:none;stroke:#000000;stroke-width:1px;stroke-linecap:butt;stroke-linejoin:miter;stroke-opacity:1" d="m 63.956788,56.181152 c -3.042762,-0.185902 -6.48888,-0.349862 -8.687513,-2.77758 -2.787447,-2.68618 -4.286544,-6.383489 -5.566393,-9.960701 -0.310614,-1.215574 0.01032,-2.820236 1.496078,-3.035159 1.240315,-0.219415 2.55491,0.342322 2.790655,1.631428 0.5948,2.086776 -1.002251,3.888678 -2.623892,4.955546 -2.009379,1.271752 -4.417663,1.876642 -6.76739,2.164821 -4.821981,0.373339 -10.197095,-0.07542 -14.013558,-3.360864 -2.559793,-2.162334 -3.927334,-5.55041 -3.66098,-8.886232 0.05752,-3.902381 2.523459,-7.356991 5.782229,-9.398481 3.489919,-2.564362 7.553514,-4.634473 11.379079,-6.85286 2.477692,-1.780108 4.924849,-3.740934 6.616204,-6.315007 2.0412,-3.352306 1.853362,-8.2232198 -1.185375,-10.932637 -3.558287,-3.26256528 -8.935642,-3.60181858 -13.401017,-2.3401383 -3.571856,1.037704 -6.573342,4.2698701 -6.661983,8.0935641 -0.412454,4.1241332 2.107753,7.9413612 5.379239,10.2299512 2.543724,2.165164 5.81915,3.080345 8.767193,4.542366 3.390842,1.44281 7.149065,1.8176 10.802168,1.955604 5.477736,0.159902 11.034403,-0.649724 16.056632,-2.915839 1.227632,-0.550251 2.349837,-0.989367 2.829716,-2.29458 0.0055,-7.514851 0.01105,-15.0297017 0.01657,-22.5445526" id="g0s0" sodipodi:nodetypes="ccccccccccccccccccccc" inkscape:label="g0s0"></path><path style="fill:none;stroke:#000000;stroke-width:1px;stroke-linecap:butt;stroke-linejoin:miter;stroke-opacity:1" d="m 73.300538,20.540527 c 0.01353,7.63541 -0.01381,15.271772 0.02523,22.906588 0.107851,1.885647 0.239204,3.861622 1.23855,5.520503 1.116139,1.817486 3.002122,3.113128 5.092012,3.531984 1.722936,0.363102 3.504481,0.330988 5.253542,0.490144" id="g0s1" inkscape:label="g0s1"></path></g><g id="g1" inkscape:label="g1" transform="matrix(0.96447545,0,0,0.96447545,17.167533,0)"><path style="display:inline" d="m 70.7,89.6 h -1 q -6.6,0 -9.9,-3 v 0 Q 58,85 57.15,82.5 56.3,80 56.3,75.8 v 0 -46.5 l 5.3,0.7 v 45.5 q 0,3.3 0.5,4.9 0.5,1.6 1.8,2.6 v 0 q 1.2,1.1 3.05,1.35 1.85,0.25 4.25,0.25 v 0 z" id="g1p0" inkscape:label="g1p0"></path><path style="display:inline;fill:none;stroke:#000000;stroke-width:1px;stroke-linecap:butt;stroke-linejoin:miter;stroke-opacity:1" d="m 58.945814,29.339077 c 0.0052,15.660703 -0.0419,31.322813 -0.004,46.982637 0.07316,2.661925 0.300705,5.531206 2.06529,7.674603 1.94562,2.285428 5.076188,2.956219 7.950186,3.001875 0.734456,0.05113 1.468913,0.102253 2.203369,0.15338" id="g1s0" inkscape:label="g1s0"></path></g><g id="g2" inkscape:label="g2" transform="matrix(0.96447545,0,0,0.96447545,17.167533,0)"><path style="display:inline" d="m 55.9,23.7 -2.8,2.9 Q 47,21.2 42.8,18.85 38.6,16.5 33.7,16.5 v 0 q -3.5,0 -6.4,0.9 v 0 l -1.5,-4.7 q 1.8,-0.4 3.75,-0.7 1.95,-0.3 4.15,-0.3 v 0 q 3.8,0 7.15,1.2 3.35,1.2 6.9,3.85 3.55,2.65 8.15,6.95 z" id="g2p0" inkscape:label="g2p0"></path><path style="display:inline;fill:none;stroke:#000000;stroke-width:1px;stroke-linecap:butt;stroke-linejoin:miter;stroke-opacity:1" d="m 26.306582,15.114407 c 2.688785,-0.568456 5.416241,-1.1935 8.183739,-0.988483 1.810938,0.02306 3.595689,0.410136 5.328375,0.908621 1.446215,0.495326 2.860202,1.115629 4.178036,1.890495 3.847011,2.308963 7.136989,5.387765 10.538424,8.281996" id="g2s0" inkscape:label="g2s0"></path></g><g id="g3" inkscape:label="g3" transform="matrix(0.96447545,0,0,0.95548375,17.167533,0)"><path style="display:inline" d="M 61.2,25.5 H 56.8 Q 54.9,17.7 53.05,13.15 51.2,8.6 48.75,6.7 46.3,4.8 42.5,4.8 v 0 Q 41.3,4.8 39.95,5 38.6,5.2 37.1,5.7 v 0 L 35.6,1.1 Q 37.5,0.5 39.3,0.25 41.1,0 42.8,0 v 0 q 4.6,0 7.95,2.25 3.35,2.25 5.85,7.8 2.5,5.55 4.6,15.45 z" id="g3p0" inkscape:label="g3p0"></path><path style="display:inline;fill:none;stroke:#000000;stroke-width:1px;stroke-linecap:butt;stroke-linejoin:miter;stroke-opacity:1" d="m 36.195028,3.4913397 2.773185,-0.7181553 0.82864,-0.1767767 0.806544,-0.099437 1.138,-0.088388 h 0.905981 l 1.027514,0.033146 0.983321,0.121534 0.872835,0.1325825 1.237436,0.2872621 1.071709,0.4198447 1.347922,0.6960582 1.016466,0.6960583 0.696059,0.5966213 0.82864,0.9612233 0.950175,1.2042912 0.839689,1.3368738 0.806544,1.6130879 0.651864,1.425262 0.662913,1.635184 0.53033,1.679379 0.50108,1.557697 0.367187,1.382813 0.5,1.734375 0.453125,1.757812 1.007035,3.936361" id="g3s0" inkscape:label="g3s0"></path></g></svg>