<?xml version="1.0" encoding="UTF-8" standalone="no"?><svg width="95" height="102.7" version="1.1" id="svg463" sodipodi:docname="2_ni.svg" inkscape:version="1.2.1 (9c6d41e410, 2022-07-14)" xmlns:inkscape="http://www.inkscape.org/namespaces/inkscape" xmlns:sodipodi="http://sodipodi.sourceforge.net/DTD/sodipodi-0.dtd" xmlns="http://www.w3.org/2000/svg" xmlns:svg="http://www.w3.org/2000/svg"><defs id="defs467"></defs><sodipodi:namedview id="namedview465" pagecolor="#ffffff" bordercolor="#666666" borderopacity="1.0" inkscape:showpageshadow="2" inkscape:pageopacity="0.0" inkscape:pagecheckerboard="0" inkscape:deskcolor="#d1d1d1" showgrid="false" inkscape:zoom="1.809816" inkscape:cx="42.822032" inkscape:cy="64.647455" inkscape:window-width="1920" inkscape:window-height="1027" inkscape:window-x="-8" inkscape:window-y="-8" inkscape:window-maximized="1" inkscape:current-layer="svg463"></sodipodi:namedview><g id="g0" inkscape:label="g0" transform="matrix(0.99938869,0,0,1,23.3,28.7)"><path d="m 33.4,74 v 0 l -4.3,-3 q 1.4,-1.7 2.3,-3.5 0.9,-1.8 0.9,-3.7 v 0 q 0,-2.7 -1.8,-4.65 -1.8,-1.95 -7.2,-4.45 v 0 L 8.6,47.8 Q 3.4,45.4 1.7,42.05 0,38.7 0,32.6 v 0 V 0 l 5.3,0.8 v 31.1 q 0,3.2 0.4,5.3 0.4,2.1 1.75,3.65 1.35,1.55 4.25,2.85 v 0 l 14.9,7 q 6.4,3.1 8.8,6 2.4,2.9 2.4,6.8 v 0 q 0,3 -1.35,5.6 Q 35.1,71.7 33.4,74 Z M 30.8,38.6 v 0 Q 26,38.6 21.5,35.95 17,33.3 13.5,28.4 v 0 l 4.2,-3 q 2.5,3.8 5.7,6.05 3.2,2.25 7.3,2.25 v 0 q 4.8,0 7.4,-3.35 Q 40.7,27 40.7,19.7 v 0 q 0,-7 -2.9,-10.9 -2.9,-3.9 -8.5,-3.9 v 0 q -4.9,0 -9.8,2.3 v 0 L 17.7,2.7 q 3,-1.4 6,-2.05 Q 26.7,0 29.6,0 V 0 Q 37.3,0 41.65,5.35 46,10.7 46,19.7 v 0 q 0,6.8 -2,11 -2,4.2 -5.45,6.05 -3.45,1.85 -7.75,1.85 z m 40.4,21.7 h -1 q -6.7,0 -9.9,-3 v 0 q -1.7,-1.6 -2.6,-4.1 -0.9,-2.5 -0.9,-6.7 v 0 V 0 l 5.3,0.8 v 45.4 q 0,3.2 0.55,4.85 0.55,1.65 1.65,2.55 v 0 q 1.2,1.2 3.2,1.45 2,0.25 4.2,0.25 v 0 z" id="g0p0" inkscape:label="g0p0"></path><path style="fill:none;stroke:#000000;stroke-width:1px;stroke-linecap:butt;stroke-linejoin:miter;stroke-opacity:1" d="M 2.5546875,0.00390625 C 2.6201709,11.484854 2.5716666,22.969494 2.7093823,34.448123 c 0.1679252,3.243283 0.8185218,6.849191 3.5548337,8.953393 2.8182571,2.251905 6.340086,3.333198 9.505315,4.993015 4.534511,2.231818 9.276553,4.075852 13.621833,6.670476 2.792417,1.65126 5.401943,4.246947 5.617796,7.664527 0.387701,2.982511 -0.967745,5.806532 -2.728761,8.124344 -0.360391,0.536988 -0.720781,1.073977 -1.081172,1.610966" id="g0s0" inkscape:label="g0s0"></path><path style="fill:none;stroke:#000000;stroke-width:1px;stroke-linecap:butt;stroke-linejoin:miter;stroke-opacity:1" d="m 18.621094,5.0117187 c 2.653974,-1.0066828 5.312963,-2.1184717 8.166208,-2.3975451 3.64641,-0.4704261 7.649662,-0.058149 10.651061,2.2360858 3.014022,2.2334019 4.731281,5.8103746 5.442623,9.4235396 0.59228,3.105891 0.587077,6.307681 0.284037,9.445415 -0.311804,2.647872 -1.018792,5.320449 -2.497841,7.562738 -1.323906,1.995443 -3.313729,3.528177 -5.619468,4.204051 -4.783024,1.536637 -10.23737,0.311775 -14.096142,-2.848282 -2.059739,-1.648006 -3.698165,-3.719537 -5.378647,-5.734496" id="g0s1" inkscape:label="g0s1"></path><path style="fill:none;stroke:#000000;stroke-width:1px;stroke-linecap:butt;stroke-linejoin:miter;stroke-opacity:1" d="M 59.42354,0.01104854 C 59.50789,15.934301 59.35849,31.847505 59.485496,47.77013 c 0.08516,2.988843 0.809205,6.378502 3.441103,8.164797 2.525506,1.870599 5.806601,1.612129 8.768713,1.901008" id="g0s2" sodipodi:nodetypes="cccc" inkscape:label="g0s2"></path></g><g id="g1" inkscape:label="g1"><path style="display:inline" d="M 14.3,89 H 13.4 Q 10.3,89 7.8,88.35 5.3,87.7 3.5,86 v 0 Q 1.6,84.3 0.8,81.8 0,79.3 0,75.2 v 0 -53.4 Q 0,15.2 1.35,11.1 2.7,7 6.1,4.1 v 0 Q 8.3,2.2 11.45,1.1 14.6,0 18.7,0 V 0 Q 27.8,0 35.05,5.25 42.3,10.5 49.6,19 v 0 l -3.9,3.1 Q 39.3,14.5 32.95,9.7 26.6,4.9 19,4.9 v 0 q -5.9,0 -9.3,2.9 v 0 q -2.4,2.1 -3.4,5.6 -1,3.5 -1,10.1 v 0 51.4 q 0,3.2 0.5,4.85 0.5,1.65 1.7,2.55 v 0 q 1.2,1.2 3.15,1.45 Q 12.6,84 14.9,84 v 0 z" id="g1p0" inkscape:label="g1p0"></path><path style="display:inline;fill:none;stroke:#000000;stroke-width:1px;stroke-linecap:butt;stroke-linejoin:miter;stroke-opacity:1" d="M 47.652368,20.738116 C 42.912163,15.169343 37.771996,9.7590782 31.535156,5.8554687 25.556372,2.3479405 17.925665,1.3282836 11.384063,3.8090168 7.098823,5.5445734 4.0571601,9.6376118 3.3691387,14.177325 2.2636698,19.814013 2.8760079,25.587166 2.7106596,31.290784 c 0.017146,15.362435 -0.08206,30.727062 0.00809,46.088122 0.1319749,2.783277 1.0109143,5.743286 3.4696807,7.348394 2.457118,1.869621 5.6943627,1.540296 8.5928207,1.741457" id="g1s0" inkscape:label="g1s0"></path></g></svg>