<?xml version="1.0" encoding="UTF-8" standalone="no"?><svg width="96.300003" height="89" version="1.1" id="svg313" sodipodi:docname="3_khee.svg" inkscape:version="1.2.1 (9c6d41e410, 2022-07-14)" xmlns:inkscape="http://www.inkscape.org/namespaces/inkscape" xmlns:sodipodi="http://sodipodi.sourceforge.net/DTD/sodipodi-0.dtd" xmlns="http://www.w3.org/2000/svg" xmlns:svg="http://www.w3.org/2000/svg"><defs id="defs317"></defs><sodipodi:namedview id="namedview315" pagecolor="#ffffff" bordercolor="#666666" borderopacity="1.0" inkscape:showpageshadow="2" inkscape:pageopacity="0.0" inkscape:pagecheckerboard="0" inkscape:deskcolor="#d1d1d1" showgrid="false" inkscape:zoom="5.6568543" inkscape:cx="51.265241" inkscape:cy="62.225396" inkscape:window-width="1920" inkscape:window-height="1027" inkscape:window-x="-8" inkscape:window-y="-8" inkscape:window-maximized="1" inkscape:current-layer="svg313"></sodipodi:namedview><g id="g0" inkscape:label="g0" transform="matrix(0.99924077,0,0,1,0.01817402,28.7)"><path style="display:inline;stroke-width:1.00038" d="m 24.700579,44.1 v 0 q -7.505698,0 -11.408662,-4.3 v 0 Q 11.190322,37.5 10.189562,34.35 9.1888024,31.2 9.1888024,25.9 v 0 -10.8 q 0,-2.7 -0.3502659,-4.2 Q 8.4882706,9.4 7.6876627,8.3 v 0 Q 6.6869029,6.9 4.6353453,6.45 2.5837877,6 -0.01818783,6 V 6 L 0.58226805,1.1 H 1.3828759 q 7.2054706,0 10.3078261,3.6 v 0 q 1.501139,1.6 2.151633,4.05 0.650494,2.45 0.650494,6.15 v 0 10.9 q 0,4.3 0.700532,6.8 0.700532,2.5 2.201672,4 v 0 q 2.501899,2.6 7.305546,2.6 v 0 q 5.003799,0 7.605775,-3 v 0 q 1.200912,-1.5 1.851405,-3.75 0.650494,-2.25 0.650494,-6.15 v 0 -13.9 L 40.11228,13 v 11.9 q 2.201672,3.5 6.605015,3.4 v 0 q 3.102355,0 5.404103,-1.35 2.301747,-1.35 4.103115,-3.55 v 0 V 0 l 5.304027,0.8 v 45.4 q 0,3.2 0.550418,4.8 0.550418,1.6 1.75133,2.6 v 0 q 1.100835,1.2 3.102355,1.45 2.00152,0.25 4.303267,0.25 v 0 l -0.600456,5 h -0.900683 q -6.605015,0 -9.907523,-3 v 0 q -1.801367,-1.6 -2.702051,-4.1 -0.900684,-2.5 -0.900684,-6.7 v 0 -16.6 q -1.801368,1.5 -4.103115,2.4 -2.301748,0.9 -5.404103,0.9 v 0 q -1.801368,0 -3.552697,-0.5 -1.75133,-0.5 -3.352546,-1.6 v 0 q -0.800608,6 -4.853685,9.5 -4.053077,3.5 -10.257788,3.5 z" id="g0p0" inkscape:label="g0p0"></path><path style="display:inline;fill:none;stroke:#000000;stroke-width:1px;stroke-linecap:butt;stroke-linejoin:miter;stroke-opacity:1" d="m -0.01171875,3.5898438 c 0.83290084,0.010773 1.43654805,0.071618 2.17616255,0.1174708 2.4491173,0.1518329 4.9314076,0.385265 6.8454512,2.0722144 3.111869,2.849507 2.825204,7.446605 2.841659,11.306195 0.153594,5.197312 -0.431062,10.476834 0.640622,15.604156 0.869444,4.163263 4.145831,7.830187 8.426032,8.566027 4.961059,1.101136 11.027624,0.0761 14.040498,-4.398138 2.9793,-4.365341 2.506642,-9.893823 2.509387,-14.909679 -0.0076,-3.266551 -0.01519,-6.533102 -0.02278,-9.799653" id="g0s0" inkscape:label="g0s0"></path><path id="g0s1" style="display:inline;fill:none;stroke:#000000;stroke-width:1px;stroke-linecap:butt;stroke-linejoin:miter;stroke-opacity:1" inkscape:label="g0s1" d="m 37.891083,27.092178 c 2.054235,1.761378 4.55048,3.104805 7.227634,3.574826 3.794901,0.518788 7.720842,-0.80137 10.574288,-3.323574 1.119173,-0.840883 2.081832,-1.863372 3.163502,-2.748258 -0.0069,-8.193182 -0.01371,-16.3863647 -0.02057,-24.579547" sodipodi:nodetypes="cccccc"></path><path style="display:inline;fill:none;stroke:#000000;stroke-width:1px;stroke-linecap:butt;stroke-linejoin:miter;stroke-opacity:1" d="m 58.858,24.570313 0.02224,23.4105 c 0.06625,3.309082 1.267591,6.996918 4.461168,8.519189 2.411771,1.272674 5.217687,1.107085 7.852693,1.328124" id="g0s2" inkscape:label="g0s2"></path></g><g id="g1" inkscape:label="g1"><path d="m 95.8,89 h -1 q -3,0 -5.55,-0.65 Q 86.7,87.7 84.9,86 v 0 Q 81.4,82.7 81.4,75.2 v 0 -46.7 Q 80,17.1 76.5,11 73,4.9 67.5,4.9 v 0 q -3.6,0 -5.6,2.6 -2,2.6 -2,7.7 v 0 q 0,3.9 0.6,7 v 0 h -5.1 q -0.3,-1.5 -0.55,-3.6 -0.25,-2.1 -0.25,-4 v 0 Q 54.6,8 57.95,4 61.3,0 67.5,0 v 0 q 5.9,0 9.9,3.95 4,3.95 6.25,10.4 2.25,6.45 3.05,13.85 v 0 46.7 q 0,3.3 0.5,4.85 0.5,1.55 1.7,2.55 v 0 q 1.2,1.2 3.2,1.45 2,0.25 4.2,0.25 v 0 z" id="g1p0" inkscape:label="g1p0"></path><path style="display:inline;fill:none;stroke:#000000;stroke-width:1px;stroke-linecap:butt;stroke-linejoin:miter;stroke-opacity:1" d="m 58.024587,22.296376 c -0.717054,-5.049715 -1.596876,-10.626855 1.042088,-15.2919973 2.067513,-3.822449 6.865899,-5.222126 10.922937,-4.303046 5.299598,1.061053 8.634255,5.994456 10.53375,10.6924093 1.94946,4.911209 3.041647,10.154719 3.53254,15.40287 0.03373,16.081561 -0.05668,32.165472 0.05492,48.24557 0.09206,3.48513 1.641413,7.40006 5.196702,8.60873 2.224083,0.86463 4.672997,0.63787 7.006103,0.85642" id="g1s0" inkscape:label="g1s0"></path></g></svg>