<?xml version="1.0" encoding="UTF-8" standalone="no"?>
<svg
   width="71.199997"
   height="61.299999"
   version="1.1"
   id="svg4"
   sodipodi:docname="1_ka.svg"
   inkscape:version="1.2.1 (9c6d41e410, 2022-07-14)"
   xmlns:inkscape="http://www.inkscape.org/namespaces/inkscape"
   xmlns:sodipodi="http://sodipodi.sourceforge.net/DTD/sodipodi-0.dtd"
   xmlns="http://www.w3.org/2000/svg"
   xmlns:svg="http://www.w3.org/2000/svg">
  <defs
     id="defs8" />
  <sodipodi:namedview
     id="namedview6"
     pagecolor="#ffffff"
     bordercolor="#666666"
     borderopacity="1.0"
     inkscape:pageshadow="2"
     inkscape:pageopacity="0.0"
     inkscape:pagecheckerboard="0"
     showgrid="false"
     inkscape:zoom="4"
     inkscape:cx="16.75"
     inkscape:cy="80.375"
     inkscape:window-width="1271"
     inkscape:window-height="970"
     inkscape:window-x="78"
     inkscape:window-y="12"
     inkscape:window-maximized="0"
     inkscape:current-layer="svg4"
     inkscape:showpageshadow="2"
     inkscape:deskcolor="#d1d1d1" />
  <path
     style="display:inline;fill:none;stroke:#000000;stroke-width:1px;stroke-linecap:butt;stroke-linejoin:miter;stroke-opacity:1"
     d="m 58.96875,0.03125 c 0.0052,15.660703 -0.0419,31.322813 -0.004,46.982637 0.07316,2.661925 0.300704,5.531206 2.06529,7.674603 1.94562,2.285428 5.076187,2.956219 7.950186,3.001875 0.734456,0.05113 1.468913,0.102253 2.203369,0.15338"
     id="path81"
     inkscape:label="s3" />
  <path
     style="fill:none;stroke:#000000;stroke-width:1px;stroke-linecap:butt;stroke-linejoin:miter;stroke-opacity:1"
     d="M 2.3709024,35.645945 44.462062,20.438248"
     id="path285"
     sodipodi:nodetypes="cc"
     inkscape:label="s2" />
  <path
     style="display:inline;fill:none;stroke:#000000;stroke-width:1px;stroke-linecap:butt;stroke-linejoin:miter;stroke-opacity:1"
     d="m 35.763569,3.9835469 c -3.72057,-0.875608 -7.504683,-1.62854 -11.346995,-1.483486 -3.913714,0.0055 -8.146918,0.981776 -10.951722,3.883512 -3.7996814,3.9171701 -3.7773504,10.8006681 -0.007,14.7344971 3.843828,4.254268 9.005207,6.924451 13.666016,10.150808 3.201857,2.119058 6.285332,4.570958 8.525881,7.721598 2.476354,3.518086 2.949,8.351498 1.1977,12.273514 -1.461788,3.457934 -4.733283,5.917538 -8.338536,6.783676 -2.325818,0.63811 -4.781614,0.769113 -7.185033,0.763651 -4.017864,-0.09983 -8.019119,-0.91716 -11.6649324,-2.63504 -3.04131,-1.288432 -5.7562551,-3.182874 -8.4659041,-5.043619"
     id="path212"
     inkscape:label="s1" />
  <path
     d="M 22.4,31 3.8,37.8 2,33.1 17.4,27.6 Q 13.3,24.8 10.6,21.55 7.9,18.3 7.9,13.6 v 0 Q 7.9,7.5 12.4,3.75 16.9,0 24.6,0 v 0 q 3.1,0 5.85,0.4 2.75,0.4 5.55,1 v 0 L 35,6.3 Q 32.4,5.7 30.1,5.35 27.8,5 25.1,5 v 0 q -5.8,0 -8.8,2.4 -3,2.4 -3,6.6 v 0 q 0,3.5 2.6,6.25 2.6,2.75 7,5.35 v 0 l 20.3,-7.4 2,4.7 -17.3,6.1 q 5.5,3.4 9.1,7.45 3.6,4.05 3.6,9.95 v 0 q 0,3.9 -1.95,7.3 -1.95,3.4 -6,5.5 -4.05,2.1 -10.45,2.1 v 0 Q 15.4,61.3 10,59.1 4.6,56.9 0,53.5 v 0 l 3,-4.2 q 4.8,3.6 9.35,5.3 4.55,1.7 9.65,1.7 v 0 q 6.7,0 9.9,-2.75 3.2,-2.75 3.2,-7.25 v 0 q 0,-4.5 -3.25,-8.05 Q 28.6,34.7 22.4,31 Z m 48.3,29.3 h -1 q -6.6,0 -9.9,-3 v 0 Q 58,55.7 57.15,53.2 56.3,50.7 56.3,46.5 v 0 V 0 l 5.3,0.7 v 45.5 q 0,3.3 0.5,4.9 0.5,1.6 1.8,2.6 v 0 q 1.2,1.1 3.05,1.35 1.85,0.25 4.25,0.25 v 0 z"
     id="path2"
     style="display:inline"
     inkscape:label="p1" />
</svg>
