<?xml version="1.0" encoding="UTF-8" standalone="no"?>
<svg
   width="62.599998"
   height="90"
   version="1.1"
   id="svg4"
   sodipodi:docname="2_ki.svg"
   inkscape:version="1.1.2 (b8e25be833, 2022-02-05)"
   xmlns:inkscape="http://www.inkscape.org/namespaces/inkscape"
   xmlns:sodipodi="http://sodipodi.sourceforge.net/DTD/sodipodi-0.dtd"
   xmlns="http://www.w3.org/2000/svg"
   xmlns:svg="http://www.w3.org/2000/svg">
  <defs
     id="defs8" />
  <sodipodi:namedview
     id="namedview6"
     pagecolor="#ffffff"
     bordercolor="#666666"
     borderopacity="1.0"
     inkscape:pageshadow="2"
     inkscape:pageopacity="0.0"
     inkscape:pagecheckerboard="0"
     showgrid="false"
     inkscape:zoom="8"
     inkscape:cx="42.25"
     inkscape:cy="48.5625"
     inkscape:window-width="1441"
     inkscape:window-height="970"
     inkscape:window-x="402"
     inkscape:window-y="16"
     inkscape:window-maximized="0"
     inkscape:current-layer="svg4" />
  <path
     style="display:inline;fill:none;stroke:#000000;stroke-width:1px;stroke-linecap:butt;stroke-linejoin:miter;stroke-opacity:1"
     d="M 47.652368,20.738116 C 42.912163,15.169343 37.771996,9.7590782 31.535156,5.8554687 25.556372,2.3479405 17.925665,1.3282836 11.384063,3.8090168 7.098823,5.5445734 4.0571601,9.6376118 3.3691387,14.177325 2.2636698,19.814013 2.8760079,25.587166 2.7106596,31.290784 c 0.017146,15.362435 -0.08206,30.727062 0.00809,46.088122 0.1319749,2.783277 1.0109143,5.743286 3.4696807,7.348394 2.457118,1.869621 5.6943627,1.540296 8.5928207,1.741457"
     id="path491"
     inkscape:label="s3" />
  <path
     style="display:inline;fill:none;stroke:#000000;stroke-width:1px;stroke-linecap:butt;stroke-linejoin:miter;stroke-opacity:1"
     d="M 19.856128,64.32707 61.947287,49.119373"
     id="path285"
     sodipodi:nodetypes="cc"
     inkscape:label="s2" />
  <path
     style="display:inline;fill:none;stroke:#000000;stroke-width:1px;stroke-linecap:butt;stroke-linejoin:miter;stroke-opacity:1"
     d="m 53.199568,32.701547 c -3.72057,-0.875608 -7.504683,-1.62854 -11.346995,-1.483486 -3.913714,0.0055 -8.146918,0.981776 -10.951722,3.883512 -3.799681,3.91717 -3.77735,10.800668 -0.007,14.734497 3.843828,4.254268 9.005207,6.924451 13.666016,10.150808 3.201857,2.119058 6.285332,4.570958 8.525881,7.721598 2.476354,3.518086 2.949,8.351498 1.1977,12.273514 -1.461788,3.457934 -4.733283,5.917538 -8.338536,6.783676 -2.325818,0.63811 -4.781614,0.769113 -7.185033,0.763651 -4.017864,-0.09983 -8.019119,-0.91716 -11.664932,-2.63504 -3.04131,-1.288432 -5.756255,-3.182874 -8.465904,-5.043619"
     id="path212"
     inkscape:label="s1" />
  <path
     d="M 14.3,89 H 13.4 Q 10.3,89 7.8,88.35 5.3,87.7 3.5,86 v 0 Q 1.6,84.3 0.8,81.8 0,79.3 0,75.2 v 0 -53.4 Q 0,15.2 1.35,11.1 2.7,7 6.1,4.1 v 0 Q 8.3,2.2 11.45,1.1 14.6,0 18.7,0 V 0 Q 27.8,0 35.05,5.25 42.3,10.5 49.6,19 v 0 l -3.9,3.1 Q 39.3,14.5 32.95,9.7 26.6,4.9 19,4.9 v 0 q -5.9,0 -9.3,2.9 v 0 q -2.4,2.1 -3.4,5.6 -1,3.5 -1,10.1 v 0 51.4 q 0,3.2 0.5,4.85 0.5,1.65 1.7,2.55 v 0 q 1.2,1.2 3.15,1.45 Q 12.6,84 14.9,84 v 0 z M 39.8,59.7 21.2,66.5 19.4,61.8 34.8,56.3 Q 30.7,53.5 28,50.25 25.3,47 25.3,42.3 v 0 q 0,-6.1 4.5,-9.85 Q 34.3,28.7 42,28.7 v 0 q 3.1,0 5.85,0.4 2.75,0.4 5.55,1 v 0 l -1,4.9 q -2.6,-0.6 -4.9,-0.95 -2.3,-0.35 -5,-0.35 v 0 q -5.8,0 -8.8,2.4 -3,2.4 -3,6.6 v 0 q 0,3.5 2.6,6.25 2.6,2.75 7,5.35 v 0 l 20.3,-7.4 2,4.7 -17.3,6.1 q 5.5,3.4 9.1,7.45 3.6,4.05 3.6,9.95 v 0 q 0,3.9 -1.95,7.3 -1.95,3.4 -6,5.5 Q 46,90 39.6,90 v 0 Q 32.8,90 27.4,87.8 22,85.6 17.4,82.2 v 0 l 3,-4.2 q 4.8,3.6 9.35,5.3 4.55,1.7 9.65,1.7 v 0 q 6.7,0 9.9,-2.75 3.2,-2.75 3.2,-7.25 v 0 q 0,-4.5 -3.25,-8.05 Q 46,63.4 39.8,59.7 Z"
     id="path2"
     style="display:inline"
     inkscape:label="p1" />
</svg>
