<?xml version="1.0" encoding="UTF-8" standalone="no"?>
<svg
   width="71.199997"
   height="90"
   version="1.1"
   id="svg4"
   sodipodi:docname="3_kee.svg"
   inkscape:version="1.2.1 (9c6d41e410, 2022-07-14)"
   xmlns:inkscape="http://www.inkscape.org/namespaces/inkscape"
   xmlns:sodipodi="http://sodipodi.sourceforge.net/DTD/sodipodi-0.dtd"
   xmlns="http://www.w3.org/2000/svg"
   xmlns:svg="http://www.w3.org/2000/svg">
  <defs
     id="defs8" />
  <sodipodi:namedview
     id="namedview6"
     pagecolor="#ffffff"
     bordercolor="#666666"
     borderopacity="1.0"
     inkscape:pageshadow="2"
     inkscape:pageopacity="0.0"
     inkscape:pagecheckerboard="0"
     showgrid="false"
     inkscape:zoom="4"
     inkscape:cx="11.25"
     inkscape:cy="64.25"
     inkscape:window-width="1920"
     inkscape:window-height="1027"
     inkscape:window-x="-8"
     inkscape:window-y="-8"
     inkscape:window-maximized="1"
     inkscape:current-layer="svg4"
     inkscape:showpageshadow="2"
     inkscape:deskcolor="#d1d1d1" />
  <g
     id="g266"
     inkscape:label="g1"
     transform="translate(0,28.7)">
    <path
       d="M 22.4,31 3.8,37.8 2,33.1 17.4,27.6 Q 13.3,24.8 10.6,21.55 7.9,18.3 7.9,13.6 v 0 Q 7.9,7.5 12.4,3.75 16.9,0 24.6,0 v 0 q 3.1,0 5.85,0.4 2.75,0.4 5.55,1 v 0 L 35,6.3 Q 32.4,5.7 30.1,5.35 27.8,5 25.1,5 v 0 q -5.8,0 -8.8,2.4 -3,2.4 -3,6.6 v 0 q 0,3.5 2.6,6.25 2.6,2.75 7,5.35 v 0 l 20.3,-7.4 2,4.7 -17.3,6.1 q 5.5,3.4 9.1,7.45 3.6,4.05 3.6,9.95 v 0 q 0,3.9 -1.95,7.3 -1.95,3.4 -6,5.5 -4.05,2.1 -10.45,2.1 v 0 Q 15.4,61.3 10,59.1 4.6,56.9 0,53.5 v 0 l 3,-4.2 q 4.8,3.6 9.35,5.3 4.55,1.7 9.65,1.7 v 0 q 6.7,0 9.9,-2.75 3.2,-2.75 3.2,-7.25 v 0 q 0,-4.5 -3.25,-8.05 Q 28.6,34.7 22.4,31 Z"
       id="path2-5"
       style="display:inline"
       inkscape:label="p1" />
    <path
       style="display:inline;fill:none;stroke:#000000;stroke-width:1px;stroke-linecap:butt;stroke-linejoin:miter;stroke-opacity:1"
       d="M 35.763768,3.9835483 C 32.043198,3.1079401 28.259085,2.3550082 24.416773,2.5000622 c -3.913714,0.00552 -8.146918,0.9817759 -10.951722,3.883512 -3.7996814,3.9171698 -3.7773499,10.8006678 -0.007,14.7344968 3.843828,4.254268 9.005207,6.924451 13.666016,10.150808 3.201857,2.119058 6.285332,4.570958 8.525881,7.721598 2.476354,3.518086 2.949,8.351498 1.1977,12.273514 -1.461788,3.457934 -4.733283,5.917538 -8.338536,6.783676 -2.325818,0.63811 -4.781614,0.769113 -7.185033,0.763651 C 17.306215,58.711492 13.30496,57.894158 9.659147,56.176278 6.6178369,54.887846 3.9028917,52.993404 1.1932427,51.132659"
       id="path212-5"
       inkscape:label="s1" />
    <path
       style="fill:none;stroke:#000000;stroke-width:1px;stroke-linecap:butt;stroke-linejoin:miter;stroke-opacity:1"
       d="M 44.46202,20.438695 2.3708604,35.646392"
       id="path285-5"
       sodipodi:nodetypes="cc"
       inkscape:label="s2" />
  </g>
  <g
     id="g399"
     inkscape:label="g2">
    <path
       style="display:inline"
       d="m 70.7,89 h -1 q -3,0 -5.55,-0.65 Q 61.6,87.7 59.8,86 v 0 Q 56.3,82.7 56.3,75.2 v 0 -46.7 Q 54.9,17.1 51.4,11 47.9,4.9 42.4,4.9 v 0 q -3.6,0 -5.6,2.6 -2,2.6 -2,7.7 v 0 q 0,3.9 0.6,7 v 0 H 30.3 Q 30,20.7 29.75,18.6 29.5,16.5 29.5,14.6 v 0 Q 29.5,8 32.85,4 36.2,0 42.4,0 v 0 q 5.9,0 9.9,3.95 4,3.95 6.25,10.4 2.25,6.45 3.05,13.85 v 0 46.7 q 0,3.3 0.5,4.85 0.5,1.55 1.7,2.55 v 0 Q 65,83.5 67,83.75 69,84 71.2,84 v 0 z"
       id="path330"
       inkscape:label="p2" />
    <path
       style="display:inline;fill:none;stroke:#000000;stroke-width:1px;stroke-linecap:butt;stroke-linejoin:miter;stroke-opacity:1"
       d="M 32.90625,22.296875 C 32.189196,17.24716 31.309374,11.67002 33.948338,7.0048776 36.015851,3.1824285 40.814237,1.7827514 44.871275,2.7018315 c 5.299598,1.0610536 8.634255,5.9944562 10.53375,10.6924095 1.94946,4.911209 3.041647,10.154719 3.53254,15.40287 0.03373,16.081561 -0.05668,32.165472 0.05492,48.245568 0.09206,3.485135 1.641413,7.400064 5.196702,8.60873 2.224083,0.864628 4.672997,0.637872 7.006103,0.85642"
       id="path80"
       inkscape:label="s3" />
  </g>
</svg>
