<?xml version="1.0" encoding="UTF-8" standalone="no"?>
<svg
   width="45.200001"
   height="90.599998"
   version="1.1"
   id="svg560"
   sodipodi:docname="6_ke.svg"
   inkscape:version="1.2.1 (9c6d41e410, 2022-07-14)"
   xmlns:inkscape="http://www.inkscape.org/namespaces/inkscape"
   xmlns:sodipodi="http://sodipodi.sourceforge.net/DTD/sodipodi-0.dtd"
   xmlns="http://www.w3.org/2000/svg"
   xmlns:svg="http://www.w3.org/2000/svg">
  <defs
     id="defs564" />
  <sodipodi:namedview
     id="namedview562"
     pagecolor="#ffffff"
     bordercolor="#666666"
     borderopacity="1.0"
     inkscape:showpageshadow="2"
     inkscape:pageopacity="0.0"
     inkscape:pagecheckerboard="0"
     inkscape:deskcolor="#d1d1d1"
     showgrid="false"
     inkscape:zoom="5.6568543"
     inkscape:cx="3.8890873"
     inkscape:cy="66.291261"
     inkscape:window-width="1920"
     inkscape:window-height="1027"
     inkscape:window-x="-8"
     inkscape:window-y="-8"
     inkscape:window-maximized="1"
     inkscape:current-layer="svg560" />
  <g
     id="g266"
     inkscape:label="g1"
     transform="translate(0,29.3)">
    <path
       d="M 22.4,31 3.8,37.8 2,33.1 17.4,27.6 Q 13.3,24.8 10.6,21.55 7.9,18.3 7.9,13.6 v 0 Q 7.9,7.5 12.4,3.75 16.9,0 24.6,0 v 0 q 3.1,0 5.85,0.4 2.75,0.4 5.55,1 v 0 L 35,6.3 Q 32.4,5.7 30.1,5.35 27.8,5 25.1,5 v 0 q -5.8,0 -8.8,2.4 -3,2.4 -3,6.6 v 0 q 0,3.5 2.6,6.25 2.6,2.75 7,5.35 v 0 l 20.3,-7.4 2,4.7 -17.3,6.1 q 5.5,3.4 9.1,7.45 3.6,4.05 3.6,9.95 v 0 q 0,3.9 -1.95,7.3 -1.95,3.4 -6,5.5 -4.05,2.1 -10.45,2.1 v 0 Q 15.4,61.3 10,59.1 4.6,56.9 0,53.5 v 0 l 3,-4.2 q 4.8,3.6 9.35,5.3 4.55,1.7 9.65,1.7 v 0 q 6.7,0 9.9,-2.75 3.2,-2.75 3.2,-7.25 v 0 q 0,-4.5 -3.25,-8.05 Q 28.6,34.7 22.4,31 Z"
       id="path2"
       style="display:inline"
       inkscape:label="p1" />
    <path
       style="display:inline;fill:none;stroke:#000000;stroke-width:1px;stroke-linecap:butt;stroke-linejoin:miter;stroke-opacity:1"
       d="M 35.763768,3.9835483 C 32.043198,3.1079401 28.259085,2.3550082 24.416773,2.5000622 c -3.913714,0.00552 -8.146918,0.9817759 -10.951722,3.883512 -3.7996814,3.9171698 -3.7773499,10.8006678 -0.007,14.7344968 3.843828,4.254268 9.005207,6.924451 13.666016,10.150808 3.201857,2.119058 6.285332,4.570958 8.525881,7.721598 2.476354,3.518086 2.949,8.351498 1.1977,12.273514 -1.461788,3.457934 -4.733283,5.917538 -8.338536,6.783676 -2.325818,0.63811 -4.781614,0.769113 -7.185033,0.763651 C 17.306215,58.711492 13.30496,57.894158 9.659147,56.176278 6.6178369,54.887846 3.9028917,52.993404 1.1932427,51.132659"
       id="path212-1"
       inkscape:label="s1" />
    <path
       style="fill:none;stroke:#000000;stroke-width:1px;stroke-linecap:butt;stroke-linejoin:miter;stroke-opacity:1"
       d="M 44.46202,20.438695 2.3708604,35.646392"
       id="path285-6"
       sodipodi:nodetypes="cc"
       inkscape:label="s2" />
  </g>
  <g
     id="g489"
     inkscape:label="g2">
    <path
       style="display:inline"
       d="M 36,25.5 H 31.2 Q 29,17.9 27,13.4 25,8.9 22.45,6.9 19.9,4.9 16,4.9 v 0 q -2.8,0 -5.8,0.9 v 0 L 8.6,1.2 Q 10.6,0.6 12.55,0.3 14.5,0 16.3,0 V 0 Q 21,0 24.5,2.15 28,4.3 30.75,9.8 33.5,15.3 36,25.5 Z"
       id="path480"
       inkscape:label="p2" />
    <path
       style="display:inline;fill:none;stroke:#000000;stroke-width:1px;stroke-linecap:butt;stroke-linejoin:miter;stroke-opacity:1"
       d="M 9.1953125,3.65625 C 11.885187,3.0547747 14.602752,2.1924171 17.392371,2.5147776 c 2.933702,0.1444617 5.855129,1.3548567 7.857702,3.5355896 2.358946,2.4575826 3.759606,5.6375698 4.974188,8.7751108 1.29204,3.54249 2.32594,7.16808 3.361676,10.791709"
       id="path595"
       inkscape:label="s3" />
  </g>
</svg>
