<?xml version="1.0" encoding="UTF-8" standalone="no"?>
<svg
   width="71.199997"
   height="90.599998"
   version="1.1"
   id="svg678"
   sodipodi:docname="8_ko.svg"
   inkscape:version="1.2.1 (9c6d41e410, 2022-07-14)"
   xmlns:inkscape="http://www.inkscape.org/namespaces/inkscape"
   xmlns:sodipodi="http://sodipodi.sourceforge.net/DTD/sodipodi-0.dtd"
   xmlns="http://www.w3.org/2000/svg"
   xmlns:svg="http://www.w3.org/2000/svg">
  <defs
     id="defs682" />
  <sodipodi:namedview
     id="namedview680"
     pagecolor="#ffffff"
     bordercolor="#666666"
     borderopacity="1.0"
     inkscape:showpageshadow="2"
     inkscape:pageopacity="0.0"
     inkscape:pagecheckerboard="0"
     inkscape:deskcolor="#d1d1d1"
     showgrid="false"
     inkscape:zoom="5.6568543"
     inkscape:cx="-2.7400388"
     inkscape:cy="56.391766"
     inkscape:window-width="1920"
     inkscape:window-height="1017"
     inkscape:window-x="-8"
     inkscape:window-y="-8"
     inkscape:window-maximized="1"
     inkscape:current-layer="svg678" />
  <path
     style="display:inline;fill:none;stroke:#000000;stroke-width:1px;stroke-linecap:butt;stroke-linejoin:miter;stroke-opacity:1"
     d="m 34.390625,3.625 c 2.407735,-0.5487371 4.818668,-1.2842266 7.316349,-1.1718755 2.367913,0.061684 4.769179,0.644832 6.746194,1.9883103 2.283908,1.5216174 3.856335,3.867577 5.081293,6.2795292 0.985525,1.850814 1.702889,3.830646 2.400769,5.803765 1.025962,2.981686 1.857827,6.023718 2.740551,9.04949"
     id="path814"
     inkscape:label="s4" />
  <path
     style="display:inline;fill:none;stroke:#000000;stroke-width:1px;stroke-linecap:butt;stroke-linejoin:miter;stroke-opacity:1"
     d="m 58.92722,29.304293 c 0.0052,15.660703 -0.0419,31.322813 -0.004,46.982637 0.07316,2.661925 0.300704,5.531206 2.06529,7.674603 1.94562,2.285428 5.076187,2.956219 7.950186,3.001875 0.734456,0.05113 1.468913,0.102253 2.203369,0.15338"
     id="path81"
     inkscape:label="s3" />
  <path
     style="display:inline;fill:none;stroke:#000000;stroke-width:1px;stroke-linecap:butt;stroke-linejoin:miter;stroke-opacity:1"
     d="M 2.3994756,64.94135 44.490636,49.733653"
     id="path285"
     sodipodi:nodetypes="cc"
     inkscape:label="s2" />
  <path
     style="display:inline;fill:none;stroke:#000000;stroke-width:1px;stroke-linecap:butt;stroke-linejoin:miter;stroke-opacity:1"
     d="m 35.792383,33.278506 c -3.72057,-0.875609 -7.504683,-1.628541 -11.346995,-1.483487 -3.913714,0.0055 -8.146918,0.981776 -10.951721,3.883512 -3.7996818,3.91717 -3.7773508,10.800669 -0.007,14.734498 3.843827,4.254268 9.005206,6.924451 13.666015,10.150808 3.201858,2.119058 6.285333,4.570958 8.525882,7.721598 2.476354,3.518086 2.948999,8.351498 1.197699,12.273514 -1.461787,3.457934 -4.733283,5.917538 -8.338535,6.783676 -2.325818,0.63811 -4.781614,0.769113 -7.185033,0.763651 -4.017864,-0.09983 -8.019119,-0.91716 -11.6649328,-2.63504 -3.04131,-1.288432 -5.7562553,-3.182874 -8.4659043,-5.043619"
     id="path212"
     inkscape:label="s1" />
  <path
     d="M 22.4,60.3 3.8,67.1 2,62.4 17.4,56.9 Q 13.3,54.1 10.6,50.85 7.9,47.6 7.9,42.9 v 0 q 0,-6.1 4.5,-9.85 4.5,-3.75 12.2,-3.75 v 0 q 3.1,0 5.85,0.4 2.75,0.4 5.55,1 v 0 l -1,4.9 Q 32.4,35 30.1,34.65 27.8,34.3 25.1,34.3 v 0 q -5.8,0 -8.8,2.4 -3,2.4 -3,6.6 v 0 q 0,3.5 2.6,6.25 2.6,2.75 7,5.35 v 0 l 20.3,-7.4 2,4.7 -17.3,6.1 q 5.5,3.4 9.1,7.45 3.6,4.05 3.6,9.95 v 0 q 0,3.9 -1.95,7.3 -1.95,3.4 -6,5.5 -4.05,2.1 -10.45,2.1 v 0 Q 15.4,90.6 10,88.4 4.6,86.2 0,82.8 v 0 l 3,-4.2 q 4.8,3.6 9.35,5.3 4.55,1.7 9.65,1.7 v 0 q 6.7,0 9.9,-2.75 3.2,-2.75 3.2,-7.25 v 0 q 0,-4.5 -3.25,-8.05 Q 28.6,64 22.4,60.3 Z m 48.3,29.3 h -1 q -6.6,0 -9.9,-3 v 0 Q 58,85 57.15,82.5 56.3,80 56.3,75.8 v 0 -46.5 l 5.3,0.7 v 45.5 q 0,3.3 0.5,4.9 0.5,1.6 1.8,2.6 v 0 q 1.2,1.1 3.05,1.35 1.85,0.25 4.25,0.25 v 0 z M 61.1,25.5 H 56.3 Q 54.1,17.9 52.1,13.4 50.1,8.9 47.55,6.9 45,4.9 41.1,4.9 v 0 q -2.8,0 -5.8,0.9 v 0 L 33.7,1.2 Q 35.7,0.6 37.65,0.3 39.6,0 41.4,0 v 0 q 4.7,0 8.2,2.15 3.5,2.15 6.25,7.65 2.75,5.5 5.25,15.7 z"
     id="path676"
     class="UnoptimicedTransforms"
     style="display:inline"
     inkscape:label="p1" />
</svg>
