<?xml version="1.0" encoding="UTF-8" standalone="no"?>
<svg
   width="71.199997"
   height="90.599998"
   version="1.1"
   id="svg829"
   sodipodi:docname="9_kau.svg"
   inkscape:version="1.2.1 (9c6d41e410, 2022-07-14)"
   xmlns:inkscape="http://www.inkscape.org/namespaces/inkscape"
   xmlns:sodipodi="http://sodipodi.sourceforge.net/DTD/sodipodi-0.dtd"
   xmlns="http://www.w3.org/2000/svg"
   xmlns:svg="http://www.w3.org/2000/svg">
  <defs
     id="defs833" />
  <sodipodi:namedview
     id="namedview831"
     pagecolor="#ffffff"
     bordercolor="#666666"
     borderopacity="1.0"
     inkscape:showpageshadow="2"
     inkscape:pageopacity="0.0"
     inkscape:pagecheckerboard="0"
     inkscape:deskcolor="#d1d1d1"
     showgrid="false"
     inkscape:zoom="5.6568545"
     inkscape:cx="-0.88388344"
     inkscape:cy="48.260036"
     inkscape:window-width="1920"
     inkscape:window-height="1027"
     inkscape:window-x="-8"
     inkscape:window-y="-8"
     inkscape:window-maximized="1"
     inkscape:current-layer="svg829" />
  <g
     id="g266"
     inkscape:label="g1"
     transform="translate(0,29.3)">
    <path
       d="M 22.4,31 3.8,37.8 2,33.1 17.4,27.6 Q 13.3,24.8 10.6,21.55 7.9,18.3 7.9,13.6 v 0 Q 7.9,7.5 12.4,3.75 16.9,0 24.6,0 v 0 q 3.1,0 5.85,0.4 2.75,0.4 5.55,1 v 0 L 35,6.3 Q 32.4,5.7 30.1,5.35 27.8,5 25.1,5 v 0 q -5.8,0 -8.8,2.4 -3,2.4 -3,6.6 v 0 q 0,3.5 2.6,6.25 2.6,2.75 7,5.35 v 0 l 20.3,-7.4 2,4.7 -17.3,6.1 q 5.5,3.4 9.1,7.45 3.6,4.05 3.6,9.95 v 0 q 0,3.9 -1.95,7.3 -1.95,3.4 -6,5.5 -4.05,2.1 -10.45,2.1 v 0 Q 15.4,61.3 10,59.1 4.6,56.9 0,53.5 v 0 l 3,-4.2 q 4.8,3.6 9.35,5.3 4.55,1.7 9.65,1.7 v 0 q 6.7,0 9.9,-2.75 3.2,-2.75 3.2,-7.25 v 0 q 0,-4.5 -3.25,-8.05 Q 28.6,34.7 22.4,31 Z"
       id="path2"
       style="display:inline"
       inkscape:label="p1" />
    <path
       style="display:inline;fill:none;stroke:#000000;stroke-width:1px;stroke-linecap:butt;stroke-linejoin:miter;stroke-opacity:1"
       d="M 35.763768,3.9835483 C 32.043198,3.1079401 28.259085,2.3550082 24.416773,2.5000622 c -3.913714,0.00552 -8.146918,0.9817759 -10.951722,3.883512 -3.7996814,3.9171698 -3.7773499,10.8006678 -0.007,14.7344968 3.843828,4.254268 9.005207,6.924451 13.666016,10.150808 3.201857,2.119058 6.285332,4.570958 8.525881,7.721598 2.476354,3.518086 2.949,8.351498 1.1977,12.273514 -1.461788,3.457934 -4.733283,5.917538 -8.338536,6.783676 -2.325818,0.63811 -4.781614,0.769113 -7.185033,0.763651 C 17.306215,58.711492 13.30496,57.894158 9.659147,56.176278 6.6178369,54.887846 3.9028917,52.993404 1.1932427,51.132659"
       id="path212-4"
       inkscape:label="s1" />
    <path
       style="fill:none;stroke:#000000;stroke-width:1px;stroke-linecap:butt;stroke-linejoin:miter;stroke-opacity:1"
       d="M 44.46202,20.438695 2.3708604,35.646392"
       id="path285-8"
       sodipodi:nodetypes="cc"
       inkscape:label="s2" />
  </g>
  <g
     id="g605"
     inkscape:label="g2">
    <path
       style="display:inline"
       d="m 70.7,89.6 h -1 q -6.6,0 -9.9,-3 v 0 Q 58,85 57.15,82.5 56.3,80 56.3,75.8 v 0 -46.5 l 5.3,0.7 v 45.5 q 0,3.3 0.5,4.9 0.5,1.6 1.8,2.6 v 0 q 1.2,1.1 3.05,1.35 1.85,0.25 4.25,0.25 v 0 z"
       id="path592"
       inkscape:label="p2" />
    <path
       style="display:inline;fill:none;stroke:#000000;stroke-width:1px;stroke-linecap:butt;stroke-linejoin:miter;stroke-opacity:1"
       d="m 58.945814,29.339077 c 0.0052,15.660703 -0.0419,31.322813 -0.004,46.982637 0.07316,2.661925 0.300705,5.531206 2.06529,7.674603 1.94562,2.285428 5.076188,2.956219 7.950186,3.001875 0.734456,0.05113 1.468913,0.102253 2.203369,0.15338"
       id="path81"
       inkscape:label="s3" />
  </g>
  <g
     id="g609"
     inkscape:label="g3">
    <path
       style="display:inline"
       d="m 55.9,23.7 -2.8,2.9 Q 47,21.2 42.8,18.85 38.6,16.5 33.7,16.5 v 0 q -3.5,0 -6.4,0.9 v 0 l -1.5,-4.7 q 1.8,-0.4 3.75,-0.7 1.95,-0.3 4.15,-0.3 v 0 q 3.8,0 7.15,1.2 3.35,1.2 6.9,3.85 3.55,2.65 8.15,6.95 z"
       id="path596"
       inkscape:label="p3" />
    <path
       style="display:inline;fill:none;stroke:#000000;stroke-width:1px;stroke-linecap:butt;stroke-linejoin:miter;stroke-opacity:1"
       d="m 26.306582,15.114407 c 2.688785,-0.568456 5.416241,-1.1935 8.183739,-0.988483 1.810938,0.02306 3.595689,0.410136 5.328375,0.908621 1.446215,0.495326 2.860202,1.115629 4.178036,1.890495 3.847011,2.308963 7.136989,5.387765 10.538424,8.281996"
       id="path905"
       inkscape:label="s4" />
  </g>
  <g
     id="g613"
     inkscape:label="g4">
    <path
       style="display:inline"
       d="M 61.2,25.5 H 56.8 Q 54.9,17.7 53.05,13.15 51.2,8.6 48.75,6.7 46.3,4.8 42.5,4.8 v 0 Q 41.3,4.8 39.95,5 38.6,5.2 37.1,5.7 v 0 L 35.6,1.1 Q 37.5,0.5 39.3,0.25 41.1,0 42.8,0 v 0 q 4.6,0 7.95,2.25 3.35,2.25 5.85,7.8 2.5,5.55 4.6,15.45 z"
       id="path594"
       inkscape:label="p4" />
    <path
       style="display:inline;fill:none;stroke:#000000;stroke-width:1px;stroke-linecap:butt;stroke-linejoin:miter;stroke-opacity:1"
       d="m 36.195028,3.4913397 2.773185,-0.7181553 0.82864,-0.1767767 0.806544,-0.099437 1.138,-0.088388 h 0.905981 l 1.027514,0.033146 0.983321,0.121534 0.872835,0.1325825 1.237436,0.2872621 1.071709,0.4198447 1.347922,0.6960582 1.016466,0.6960583 0.696059,0.5966213 0.82864,0.9612233 0.950175,1.2042912 0.839689,1.3368738 0.806544,1.6130879 0.651864,1.425262 0.662913,1.635184 0.53033,1.679379 0.50108,1.557697 0.367187,1.382813 0.5,1.734375 0.453125,1.757812 1.007035,3.936361"
       id="path970"
       inkscape:label="s5" />
  </g>
</svg>
