<?xml version="1.0" encoding="UTF-8" standalone="no"?>
<svg
   width="57.400002"
   height="60.299999"
   version="1.1"
   id="svg4"
   sodipodi:docname="0_l.svg"
   inkscape:version="1.2.1 (9c6d41e410, 2022-07-14)"
   xmlns:inkscape="http://www.inkscape.org/namespaces/inkscape"
   xmlns:sodipodi="http://sodipodi.sourceforge.net/DTD/sodipodi-0.dtd"
   xmlns="http://www.w3.org/2000/svg"
   xmlns:svg="http://www.w3.org/2000/svg">
  <defs
     id="defs8" />
  <sodipodi:namedview
     id="namedview6"
     pagecolor="#ffffff"
     bordercolor="#666666"
     borderopacity="1.0"
     inkscape:showpageshadow="2"
     inkscape:pageopacity="0.0"
     inkscape:pagecheckerboard="0"
     inkscape:deskcolor="#d1d1d1"
     showgrid="false"
     inkscape:zoom="22.627417"
     inkscape:cx="39.222329"
     inkscape:cy="33.366601"
     inkscape:window-width="1920"
     inkscape:window-height="1027"
     inkscape:window-x="-8"
     inkscape:window-y="-8"
     inkscape:window-maximized="1"
     inkscape:current-layer="svg4" />
  <path
     d="m 22.5,49.4 v 0 Q 15.7,49.4 10.65,46.6 5.6,43.8 2.8,38.7 0,33.6 0,26.6 v 0 Q 0,16.9 6.3,10.1 12.6,3.3 24.5,0 V 0 L 26,5 Q 16,7.7 10.75,13.05 5.5,18.4 5.5,26.8 v 0 q 0,8.4 4.7,13 4.7,4.6 12.2,4.6 v 0 q 5.9,0 10.8,-2.4 v 0 l 2.1,4.6 q -2.7,1.3 -5.95,2.05 -3.25,0.75 -6.85,0.75 z m 20,-25.8 -24.7,5.1 -1.2,-5 25.9,-5.2 V 0 l 5.3,0.8 v 45.4 q 0,3.2 0.55,4.85 0.55,1.65 1.65,2.55 v 0 q 1.2,1.2 3.15,1.45 1.95,0.25 4.25,0.25 v 0 l -0.5,5 h -1 q -3,0 -5.55,-0.65 Q 47.8,59 46,57.3 v 0 Q 44.2,55.6 43.35,53.1 42.5,50.6 42.5,46.5 v 0 z"
     id="path2"
     inkscape:label="p1" />
  <path
     style="fill:none;stroke:#000000;stroke-width:1px;stroke-linecap:butt;stroke-linejoin:miter;stroke-opacity:1"
     d="M 25.25,2.5039063 C 19.888525,4.1346797 14.511782,6.2364218 10.229284,9.9558151 6.4081444,13.167979 3.7553653,17.772096 3.0740361,22.731727 2.3860108,27.607286 2.8141439,32.789653 5.0448294,37.236943 c 2.2457843,4.44328 6.5422376,7.682806 11.3358416,8.908625 4.633928,1.190326 9.627592,0.966187 14.162298,-0.540097 1.230469,-0.445313 2.460937,-0.890625 3.691406,-1.335938"
     id="path329"
     inkscape:label="s1" />
  <path
     style="fill:none;stroke:#000000;stroke-width:1px;stroke-linecap:butt;stroke-linejoin:miter;stroke-opacity:1"
     d="M 17.203125,26.207031 C 25.596354,24.492187 33.989583,22.777344 42.382812,21.0625"
     id="path331"
     sodipodi:nodetypes="cc"
     inkscape:label="s2" />
  <path
     style="fill:none;stroke:#000000;stroke-width:1px;stroke-linecap:butt;stroke-linejoin:miter;stroke-opacity:1"
     d="m 45.175781,0.00390625 c 0.0096,15.81525475 -0.04053,31.63142675 0.0065,47.44610775 0.04063,3.015484 0.650442,6.426891 3.224891,8.341363 2.490232,2.146307 5.945896,1.739199 8.987347,1.997685"
     id="path333"
     sodipodi:nodetypes="cccccccccccccccccccccccccc"
     inkscape:label="s3" />
</svg>
