<svg xmlns="http://www.w3.org/2000/svg" xmlns:xlink="http://www.w3.org/1999/xlink" width="62.800000000000004"
    height="130.4">
    <path
        d="M27.40 78.70L27.40 78.70Q20.60 78.70 15.55 75.90Q10.50 73.10 7.70 68Q4.90 62.90 4.90 55.90L4.90 55.90Q4.90 46.20 11.20 39.40Q17.50 32.60 29.40 29.30L29.40 29.30L30.90 34.30Q20.90 37.00 15.65 42.35Q10.40 47.70 10.40 56.10L10.40 56.10Q10.40 64.50 15.10 69.10Q19.80 73.70 27.30 73.70L27.30 73.70Q33.20 73.70 38.10 71.30L38.10 71.30L40.20 75.90Q37.50 77.20 34.25 77.95Q31 78.70 27.40 78.70ZM47.40 52.90L22.70 58.00L21.50 53.00L47.40 47.80L47.40 29.30L52.70 30.10L52.70 75.50Q52.70 78.70 53.25 80.35Q53.80 82.00 54.90 82.90L54.90 82.90Q56.10 84.10 58.05 84.35Q60 84.60 62.30 84.60L62.30 84.60L61.80 89.60L60.80 89.60Q57.80 89.60 55.25 88.95Q52.70 88.30 50.90 86.60L50.90 86.60Q49.10 84.90 48.25 82.40Q47.40 79.90 47.40 75.80L47.40 75.80L47.40 52.90ZM50.10 19.10L50.10 19.10Q48.30 19.10 47.05 17.80Q45.80 16.50 45.80 14.20L45.80 14.20Q45.80 12 47 10.70Q48.20 9.40 50.10 9.40L50.10 9.40Q52 9.40 53.20 10.70Q54.40 12 54.40 14.20L54.40 14.20Q54.40 16.60 53.15 17.85Q51.90 19.10 50.10 19.10Z" />
      <g
     id="g653"
     inkscape:label="g2">
    <path
       style="display:inline"
       d="m 33.9,9.7 v 0 Q 32.1,9.7 30.85,8.4 29.6,7.1 29.6,4.8 v 0 Q 29.6,2.6 30.8,1.3 32,0 33.9,0 v 0 q 1.9,0 3.1,1.3 1.2,1.3 1.2,3.5 v 0 q 0,2.4 -1.25,3.65 Q 35.7,9.7 33.9,9.7 Z"
       id="path644"
       inkscape:label="p2" />
    <path
       d="m 33.9375,1.3352194 c -0.820403,0 -1.515467,0.3118012 -2.085191,0.9354043 -0.569724,0.6236031 -0.854587,1.7074649 -0.854587,2.5903504 0,1.0553281 0.273468,1.8947931 0.820403,2.5183962 0.546936,0.6236031 1.347168,0.9354042 2.119375,0.9354042 0.865981,0 1.572439,-0.3118011 2.119375,-0.9354042 0.546935,-0.6236031 0.820403,-1.5977735 0.820403,-2.5183962 0,-1.1512668 -0.284863,-2.0267096 -0.854587,-2.6263275 C 35.452967,1.6350287 34.757903,1.3352194 33.9375,1.3352194 Z"
       style="display:inline;stroke-width:0.701376"
       id="path950"
       sodipodi:nodetypes="sssssssss"
       inkscape:label="s3" />
  </g>
    <path style="fill:none;stroke:#000000;stroke-width:1px;stroke-linecap:butt;stroke-linejoin:miter;stroke-opacity:1"
        d="M 25.25,2.5039063 C 19.888525,4.1346797 14.511782,6.2364218 10.229284,9.9558151 6.4081444,13.167979 3.7553653,17.772096 3.0740361,22.731727 2.3860108,27.607286 2.8141439,32.789653 5.0448294,37.236943 c 2.2457843,4.44328 6.5422376,7.682806 11.3358416,8.908625 4.633928,1.190326 9.627592,0.966187 14.162298,-0.540097 1.230469,-0.445313 2.460937,-0.890625 3.691406,-1.335938"
        id="path329" inkscape:label="s1" />
    <path style="fill:none;stroke:#000000;stroke-width:1px;stroke-linecap:butt;stroke-linejoin:miter;stroke-opacity:1"
        d="M 17.203125,26.207031 43.988281,20.746094" id="path331" sodipodi:nodetypes="cc" inkscape:label="s2" />
    <path style="fill:none;stroke:#000000;stroke-width:1px;stroke-linecap:butt;stroke-linejoin:miter;stroke-opacity:1"
        d="m 45.175781,0.00390625 c 0.0096,15.81525475 -0.04053,31.63142675 0.0065,47.44610775 0.04063,3.015484 0.650442,6.426891 3.224891,8.341363 2.490232,2.146307 5.945896,1.739199 8.987347,1.997685"
        id="path333" sodipodi:nodetypes="cccccccccccccccccccccccccc" inkscape:label="s3" />
</svg>