<svg xmlns="http://www.w3.org/2000/svg" xmlns:xlink="http://www.w3.org/1999/xlink" width="85.2" height="130.4"><path d="M27.40 78.70L27.40 78.70Q20.60 78.70 15.55 75.90Q10.50 73.10 7.70 68Q4.90 62.90 4.90 55.90L4.90 55.90Q4.90 46.20 11.20 39.40Q17.50 32.60 29.40 29.30L29.40 29.30L30.90 34.30Q20.90 37.00 15.65 42.35Q10.40 47.70 10.40 56.10L10.40 56.10Q10.40 64.50 15.10 69.10Q19.80 73.70 27.30 73.70L27.30 73.70Q33.20 73.70 38.10 71.30L38.10 71.30L40.20 75.90Q37.50 77.20 34.25 77.95Q31 78.70 27.40 78.70ZM47.40 52.90L22.70 58.00L21.50 53.00L47.40 47.80L47.40 29.30L52.70 30.10L52.70 75.50Q52.70 78.70 53.25 80.35Q53.80 82.00 54.90 82.90L54.90 82.90Q56.10 84.10 58.05 84.35Q60 84.60 62.30 84.60L62.30 84.60L61.80 89.60L60.80 89.60Q57.80 89.60 55.25 88.95Q52.70 88.30 50.90 86.60L50.90 86.60Q49.10 84.90 48.25 82.40Q47.40 79.90 47.40 75.80L47.40 75.80L47.40 52.90ZM74 51.30L74 51.30Q72.20 51.30 70.80 49.95Q69.40 48.60 69.40 46.20L69.40 46.20Q69.40 43.80 70.75 42.45Q72.10 41.10 74 41.10L74 41.10Q76 41.10 77.30 42.45Q78.60 43.80 78.60 46.20L78.60 46.20Q78.60 48.70 77.25 50.00Q75.90 51.30 74 51.30ZM74 84.60L74 84.60Q72.20 84.60 70.80 83.25Q69.40 81.90 69.40 79.50L69.40 79.50Q69.40 77.10 70.75 75.75Q72.10 74.40 74 74.40L74 74.40Q76 74.40 77.30 75.75Q78.60 77.10 78.60 79.50L78.60 79.50Q78.60 82.00 77.25 83.30Q75.90 84.60 74 84.60Z"/></svg>