<svg xmlns="http://www.w3.org/2000/svg" xmlns:xlink="http://www.w3.org/1999/xlink" width="87.9" height="130.4"><path d="M24 89.60L23.10 89.60Q20 89.60 17.50 88.95Q15 88.30 13.20 86.60L13.20 86.60Q11.30 84.90 10.50 82.40Q9.70 79.90 9.70 75.80L9.70 75.80L9.70 22.40Q9.70 15.80 11.05 11.70Q12.40 7.60 15.80 4.70L15.80 4.70Q18 2.80 21.15 1.70Q24.30 0.60 28.40 0.60L28.40 0.60Q37.50 0.60 44.75 5.85Q52 11.10 59.30 19.60L59.30 19.60L55.40 22.70Q49 15.10 42.65 10.30Q36.30 5.50 28.70 5.50L28.70 5.50Q22.80 5.50 19.40 8.40L19.40 8.40Q17 10.50 16 14Q15 17.50 15 24.10L15 24.10L15 75.50Q15 78.70 15.50 80.35Q16 82.00 17.20 82.90L17.20 82.90Q18.40 84.10 20.35 84.35Q22.30 84.60 24.60 84.60L24.60 84.60L24 89.60ZM52.50 78.70L52.50 78.70Q45.70 78.70 40.65 75.90Q35.60 73.10 32.80 68Q30 62.90 30 55.90L30 55.90Q30 46.20 36.30 39.40Q42.60 32.60 54.50 29.30L54.50 29.30L56 34.30Q46 37.00 40.75 42.35Q35.50 47.70 35.50 56.10L35.50 56.10Q35.50 64.50 40.20 69.10Q44.90 73.70 52.40 73.70L52.40 73.70Q58.30 73.70 63.20 71.30L63.20 71.30L65.30 75.90Q62.60 77.20 59.35 77.95Q56.10 78.70 52.50 78.70ZM72.50 52.90L47.80 58.00L46.60 53.00L72.50 47.80L72.50 29.30L77.80 30.10L77.80 75.50Q77.80 78.70 78.35 80.35Q78.90 82.00 80 82.90L80 82.90Q81.20 84.10 83.15 84.35Q85.10 84.60 87.40 84.60L87.40 84.60L86.90 89.60L85.90 89.60Q82.90 89.60 80.35 88.95Q77.80 88.30 76 86.60L76 86.60Q74.20 84.90 73.35 82.40Q72.50 79.90 72.50 75.80L72.50 75.80L72.50 52.90Z"/></svg>