<svg xmlns="http://www.w3.org/2000/svg" xmlns:xlink="http://www.w3.org/1999/xlink" width="87.9" height="130.4">
    <path
        d="M27.40 78.70L27.40 78.70Q20.60 78.70 15.55 75.90Q10.50 73.10 7.70 68Q4.90 62.90 4.90 55.90L4.90 55.90Q4.90 46.20 11.20 39.40Q17.50 32.60 29.40 29.30L29.40 29.30L30.90 34.30Q20.90 37.00 15.65 42.35Q10.40 47.70 10.40 56.10L10.40 56.10Q10.40 64.50 15.10 69.10Q19.80 73.70 27.30 73.70L27.30 73.70Q33.20 73.70 38.10 71.30L38.10 71.30L40.20 75.90Q37.50 77.20 34.25 77.95Q31 78.70 27.40 78.70ZM47.40 52.90L22.70 58.00L21.50 53.00L47.40 47.80L47.40 29.30L52.70 30.10L52.70 75.50Q52.70 78.70 53.25 80.35Q53.80 82.00 54.90 82.90L54.90 82.90Q56.10 84.10 58.05 84.35Q60 84.60 62.30 84.60L62.30 84.60L61.80 89.60L60.80 89.60Q57.80 89.60 55.25 88.95Q52.70 88.30 50.90 86.60L50.90 86.60Q49.10 84.90 48.25 82.40Q47.40 79.90 47.40 75.80L47.40 75.80L47.40 52.90ZM86.90 89.60L85.90 89.60Q82.90 89.60 80.35 88.95Q77.80 88.30 76 86.60L76 86.60Q72.50 83.30 72.50 75.80L72.50 75.80L72.50 29.10Q71.10 17.70 67.60 11.60Q64.10 5.50 58.60 5.50L58.60 5.50Q55 5.50 53 8.10Q51 10.70 51 15.80L51 15.80Q51 19.70 51.60 22.80L51.60 22.80L46.50 22.80Q46.20 21.30 45.95 19.20Q45.70 17.10 45.70 15.20L45.70 15.20Q45.70 8.60 49.05 4.60Q52.40 0.60 58.60 0.60L58.60 0.60Q64.50 0.60 68.50 4.55Q72.50 8.50 74.75 14.95Q77 21.40 77.80 28.80L77.80 28.80L77.80 75.50Q77.80 78.80 78.30 80.35Q78.80 81.90 80 82.90L80 82.90Q81.20 84.10 83.20 84.35Q85.20 84.60 87.40 84.60L87.40 84.60L86.90 89.60Z" />
      <g
     id="g399"
     inkscape:label="g2">
    <path
       style="display:inline"
       d="m 70.7,89 h -1 q -3,0 -5.55,-0.65 Q 61.6,87.7 59.8,86 v 0 Q 56.3,82.7 56.3,75.2 v 0 -46.7 Q 54.9,17.1 51.4,11 47.9,4.9 42.4,4.9 v 0 q -3.6,0 -5.6,2.6 -2,2.6 -2,7.7 v 0 q 0,3.9 0.6,7 v 0 H 30.3 Q 30,20.7 29.75,18.6 29.5,16.5 29.5,14.6 v 0 Q 29.5,8 32.85,4 36.2,0 42.4,0 v 0 q 5.9,0 9.9,3.95 4,3.95 6.25,10.4 2.25,6.45 3.05,13.85 v 0 46.7 q 0,3.3 0.5,4.85 0.5,1.55 1.7,2.55 v 0 Q 65,83.5 67,83.75 69,84 71.2,84 v 0 z"
       id="path330"
       inkscape:label="p2" />
    <path
       style="display:inline;fill:none;stroke:#000000;stroke-width:1px;stroke-linecap:butt;stroke-linejoin:miter;stroke-opacity:1"
       d="M 32.90625,22.296875 C 32.189196,17.24716 31.309374,11.67002 33.948338,7.0048776 36.015851,3.1824285 40.814237,1.7827514 44.871275,2.7018315 c 5.299598,1.0610536 8.634255,5.9944562 10.53375,10.6924095 1.94946,4.911209 3.041647,10.154719 3.53254,15.40287 0.03373,16.081561 -0.05668,32.165472 0.05492,48.245568 0.09206,3.485135 1.641413,7.400064 5.196702,8.60873 2.224083,0.864628 4.672997,0.637872 7.006103,0.85642"
       id="path80"
       inkscape:label="s3" />
  </g>
    <path style="fill:none;stroke:#000000;stroke-width:1px;stroke-linecap:butt;stroke-linejoin:miter;stroke-opacity:1"
        d="M 25.25,2.5039063 C 19.888525,4.1346797 14.511782,6.2364218 10.229284,9.9558151 6.4081444,13.167979 3.7553653,17.772096 3.0740361,22.731727 2.3860108,27.607286 2.8141439,32.789653 5.0448294,37.236943 c 2.2457843,4.44328 6.5422376,7.682806 11.3358416,8.908625 4.633928,1.190326 9.627592,0.966187 14.162298,-0.540097 1.230469,-0.445313 2.460937,-0.890625 3.691406,-1.335938"
        id="path329" inkscape:label="s1" />
    <path style="fill:none;stroke:#000000;stroke-width:1px;stroke-linecap:butt;stroke-linejoin:miter;stroke-opacity:1"
        d="M 17.203125,26.207031 43.988281,20.746094" id="path331" sodipodi:nodetypes="cc" inkscape:label="s2" />
    <path style="fill:none;stroke:#000000;stroke-width:1px;stroke-linecap:butt;stroke-linejoin:miter;stroke-opacity:1"
        d="m 45.175781,0.00390625 c 0.0096,15.81525475 -0.04053,31.63142675 0.0065,47.44610775 0.04063,3.015484 0.650442,6.426891 3.224891,8.341363 2.490232,2.146307 5.945896,1.739199 8.987347,1.997685"
        id="path333" sodipodi:nodetypes="cccccccccccccccccccccccccc" inkscape:label="s3" />
</svg>