<svg xmlns="http://www.w3.org/2000/svg" xmlns:xlink="http://www.w3.org/1999/xlink" width="87.9" height="130.4"><path d="M27.40 78.70L27.40 78.70Q20.60 78.70 15.55 75.90Q10.50 73.10 7.70 68Q4.90 62.90 4.90 55.90L4.90 55.90Q4.90 46.20 11.20 39.40Q17.50 32.60 29.40 29.30L29.40 29.30L30.90 34.30Q20.90 37.00 15.65 42.35Q10.40 47.70 10.40 56.10L10.40 56.10Q10.40 64.50 15.10 69.10Q19.80 73.70 27.30 73.70L27.30 73.70Q33.20 73.70 38.10 71.30L38.10 71.30L40.20 75.90Q37.50 77.20 34.25 77.95Q31 78.70 27.40 78.70ZM47.40 52.90L22.70 58.00L21.50 53.00L47.40 47.80L47.40 29.30L52.70 30.10L52.70 75.50Q52.70 78.70 53.25 80.35Q53.80 82.00 54.90 82.90L54.90 82.90Q56.10 84.10 58.05 84.35Q60 84.60 62.30 84.60L62.30 84.60L61.80 89.60L60.80 89.60Q57.80 89.60 55.25 88.95Q52.70 88.30 50.90 86.60L50.90 86.60Q49.10 84.90 48.25 82.40Q47.40 79.90 47.40 75.80L47.40 75.80L47.40 52.90ZM86.90 89.60L85.90 89.60Q82.90 89.60 80.35 88.95Q77.80 88.30 76 86.60L76 86.60Q72.50 83.30 72.50 75.80L72.50 75.80L72.50 29.10Q71.10 17.70 67.60 11.60Q64.10 5.50 58.60 5.50L58.60 5.50Q55 5.50 53 8.10Q51 10.70 51 15.80L51 15.80Q51 19.70 51.60 22.80L51.60 22.80L46.50 22.80Q46.20 21.30 45.95 19.20Q45.70 17.10 45.70 15.20L45.70 15.20Q45.70 8.60 49.05 4.60Q52.40 0.60 58.60 0.60L58.60 0.60Q64.50 0.60 68.50 4.55Q72.50 8.50 74.75 14.95Q77 21.40 77.80 28.80L77.80 28.80L77.80 75.50Q77.80 78.80 78.30 80.35Q78.80 81.90 80 82.90L80 82.90Q81.20 84.10 83.20 84.35Q85.20 84.60 87.40 84.60L87.40 84.60L86.90 89.60Z"/></svg>