<svg xmlns="http://www.w3.org/2000/svg" xmlns:xlink="http://www.w3.org/1999/xlink" width="62.800000000000004" height="130.4"><path d="M27.40 78.70L27.40 78.70Q20.60 78.70 15.55 75.90Q10.50 73.10 7.70 68Q4.90 62.90 4.90 55.90L4.90 55.90Q4.90 46.20 11.20 39.40Q17.50 32.60 29.40 29.30L29.40 29.30L30.90 34.30Q20.90 37.00 15.65 42.35Q10.40 47.70 10.40 56.10L10.40 56.10Q10.40 64.50 15.10 69.10Q19.80 73.70 27.30 73.70L27.30 73.70Q33.20 73.70 38.10 71.30L38.10 71.30L40.20 75.90Q37.50 77.20 34.25 77.95Q31 78.70 27.40 78.70ZM47.40 52.90L22.70 58.00L21.50 53.00L47.40 47.80L47.40 29.30L52.70 30.10L52.70 75.50Q52.70 78.70 53.25 80.35Q53.80 82.00 54.90 82.90L54.90 82.90Q56.10 84.10 58.05 84.35Q60 84.60 62.30 84.60L62.30 84.60L61.80 89.60L60.80 89.60Q57.80 89.60 55.25 88.95Q52.70 88.30 50.90 86.60L50.90 86.60Q49.10 84.90 48.25 82.40Q47.40 79.90 47.40 75.80L47.40 75.80L47.40 52.90ZM47.10 116.30L47.10 116.30Q40.50 116.30 35.35 114.05Q30.20 111.80 26.05 108.00Q21.90 104.20 18.40 99.40L18.40 99.40L22.60 96.50Q27.70 103.20 33.30 107.30Q38.90 111.40 47.10 111.40L47.10 111.40Q52.80 111.40 55.80 109.20Q58.80 107.00 58.80 102.70L58.80 102.70Q58.80 98.80 56.20 96.80Q53.60 94.80 49.20 94.80L49.20 94.80Q46.70 94.80 44.50 95.35Q42.30 95.90 40.10 96.80L40.10 96.80L38.30 92.30Q40.90 91.20 43.50 90.65Q46.10 90.10 48.90 90.10L48.90 90.10Q56 90.10 59.90 93.65Q63.80 97.20 63.80 103.10L63.80 103.10Q63.80 109.30 59.35 112.80Q54.90 116.30 47.10 116.30Z"/></svg>