<svg xmlns="http://www.w3.org/2000/svg" xmlns:xlink="http://www.w3.org/1999/xlink" width="62.800000000000004"
    height="130.4">
    <path
        d="M27.40 78.70L27.40 78.70Q20.60 78.70 15.55 75.90Q10.50 73.10 7.70 68Q4.90 62.90 4.90 55.90L4.90 55.90Q4.90 46.20 11.20 39.40Q17.50 32.60 29.40 29.30L29.40 29.30L30.90 34.30Q20.90 37.00 15.65 42.35Q10.40 47.70 10.40 56.10L10.40 56.10Q10.40 64.50 15.10 69.10Q19.80 73.70 27.30 73.70L27.30 73.70Q33.20 73.70 38.10 71.30L38.10 71.30L40.20 75.90Q37.50 77.20 34.25 77.95Q31 78.70 27.40 78.70ZM47.40 52.90L22.70 58.00L21.50 53.00L47.40 47.80L47.40 29.30L52.70 30.10L52.70 75.50Q52.70 78.70 53.25 80.35Q53.80 82.00 54.90 82.90L54.90 82.90Q56.10 84.10 58.05 84.35Q60 84.60 62.30 84.60L62.30 84.60L61.80 89.60L60.80 89.60Q57.80 89.60 55.25 88.95Q52.70 88.30 50.90 86.60L50.90 86.60Q49.10 84.90 48.25 82.40Q47.40 79.90 47.40 75.80L47.40 75.80L47.40 52.90ZM45.30 116.10L45.30 116.10Q38.20 116.10 34.30 112.50Q30.40 108.90 30.40 103.00L30.40 103.00Q30.40 97.60 34.50 93.85Q38.60 90.10 46.50 90.10L46.50 90.10Q53.80 90.10 59.15 92.85Q64.50 95.60 68.60 99.95Q72.70 104.30 76.10 109.20L76.10 109.20L72 111.90Q68.30 106.80 64.65 102.95Q61.00 99.10 56.65 96.95Q52.30 94.80 46.70 94.80L46.70 94.80Q40.90 94.80 38.15 97.15Q35.40 99.50 35.40 103.10L35.40 103.10Q35.40 107.30 38.10 109.25Q40.80 111.20 45 111.20L45 111.20Q47.70 111.20 49.95 110.65Q52.20 110.10 54.40 109.10L54.40 109.10L56.10 113.90Q53.50 114.90 50.80 115.50Q48.10 116.10 45.30 116.10Z" />
    <g
     id="g459"
     inkscape:label="g2">
    <path
       style="display:inline"
       d="m 29.1,86.8 v 0 q -7.1,0 -11,-3.6 -3.9,-3.6 -3.9,-9.5 v 0 q 0,-5.4 4.1,-9.15 4.1,-3.75 12,-3.75 v 0 q 7.3,0 12.65,2.75 5.35,2.75 9.45,7.1 4.1,4.35 7.5,9.25 v 0 l -4.1,2.7 q -3.7,-5.1 -7.35,-8.95 -3.65,-3.85 -8,-6 Q 36.1,65.5 30.5,65.5 v 0 q -5.8,0 -8.55,2.35 -2.75,2.35 -2.75,5.95 v 0 q 0,4.2 2.7,6.15 2.7,1.95 6.9,1.95 v 0 q 2.7,0 4.95,-0.55 Q 36,80.8 38.2,79.8 v 0 l 1.7,4.8 q -2.6,1 -5.3,1.6 -2.7,0.6 -5.5,0.6 z"
       id="path450"
       inkscape:label="p2" />
    <path
       style="display:inline;fill:none;stroke:#000000;stroke-width:1px;stroke-linecap:butt;stroke-linejoin:miter;stroke-opacity:1"
       d="m 39.156038,82.101726 c -2.559475,0.870519 -5.086907,1.981239 -7.823193,2.132839 -3.656068,0.346073 -7.630959,0.02382 -10.710525,-2.159471 -1.994947,-1.389787 -3.307503,-3.602927 -3.721038,-5.984024 -0.524339,-2.865919 -0.09409,-6.035968 1.795561,-8.342771 1.97195,-2.740177 5.319724,-4.087889 8.589416,-4.419381 5.402628,-0.588506 11.078052,0.234292 15.808321,3.017688 4.134381,2.336077 7.55606,5.727729 10.466774,9.443934 1.484877,1.838423 2.884191,3.743963 4.305828,5.631338"
       id="path546"
       inkscape:label="s3" />
  </g>
    <path style="fill:none;stroke:#000000;stroke-width:1px;stroke-linecap:butt;stroke-linejoin:miter;stroke-opacity:1"
        d="M 25.25,2.5039063 C 19.888525,4.1346797 14.511782,6.2364218 10.229284,9.9558151 6.4081444,13.167979 3.7553653,17.772096 3.0740361,22.731727 2.3860108,27.607286 2.8141439,32.789653 5.0448294,37.236943 c 2.2457843,4.44328 6.5422376,7.682806 11.3358416,8.908625 4.633928,1.190326 9.627592,0.966187 14.162298,-0.540097 1.230469,-0.445313 2.460937,-0.890625 3.691406,-1.335938"
        id="path329" inkscape:label="s1" />
    <path style="fill:none;stroke:#000000;stroke-width:1px;stroke-linecap:butt;stroke-linejoin:miter;stroke-opacity:1"
        d="M 17.203125,26.207031 43.988281,20.746094" id="path331" sodipodi:nodetypes="cc" inkscape:label="s2" />
    <path style="fill:none;stroke:#000000;stroke-width:1px;stroke-linecap:butt;stroke-linejoin:miter;stroke-opacity:1"
        d="m 45.175781,0.00390625 c 0.0096,15.81525475 -0.04053,31.63142675 0.0065,47.44610775 0.04063,3.015484 0.650442,6.426891 3.224891,8.341363 2.490232,2.146307 5.945896,1.739199 8.987347,1.997685"
        id="path333" sodipodi:nodetypes="cccccccccccccccccccccccccc" inkscape:label="s3" />
</svg>