<svg xmlns="http://www.w3.org/2000/svg" xmlns:xlink="http://www.w3.org/1999/xlink" width="62.800000000000004" height="130.4"><path d="M27.40 78.70L27.40 78.70Q20.60 78.70 15.55 75.90Q10.50 73.10 7.70 68Q4.90 62.90 4.90 55.90L4.90 55.90Q4.90 46.20 11.20 39.40Q17.50 32.60 29.40 29.30L29.40 29.30L30.90 34.30Q20.90 37.00 15.65 42.35Q10.40 47.70 10.40 56.10L10.40 56.10Q10.40 64.50 15.10 69.10Q19.80 73.70 27.30 73.70L27.30 73.70Q33.20 73.70 38.10 71.30L38.10 71.30L40.20 75.90Q37.50 77.20 34.25 77.95Q31 78.70 27.40 78.70ZM47.40 52.90L22.70 58.00L21.50 53.00L47.40 47.80L47.40 29.30L52.70 30.10L52.70 75.50Q52.70 78.70 53.25 80.35Q53.80 82.00 54.90 82.90L54.90 82.90Q56.10 84.10 58.05 84.35Q60 84.60 62.30 84.60L62.30 84.60L61.80 89.60L60.80 89.60Q57.80 89.60 55.25 88.95Q52.70 88.30 50.90 86.60L50.90 86.60Q49.10 84.90 48.25 82.40Q47.40 79.90 47.40 75.80L47.40 75.80L47.40 52.90ZM45.30 116.10L45.30 116.10Q38.20 116.10 34.30 112.50Q30.40 108.90 30.40 103.00L30.40 103.00Q30.40 97.60 34.50 93.85Q38.60 90.10 46.50 90.10L46.50 90.10Q53.80 90.10 59.15 92.85Q64.50 95.60 68.60 99.95Q72.70 104.30 76.10 109.20L76.10 109.20L72 111.90Q68.30 106.80 64.65 102.95Q61.00 99.10 56.65 96.95Q52.30 94.80 46.70 94.80L46.70 94.80Q40.90 94.80 38.15 97.15Q35.40 99.50 35.40 103.10L35.40 103.10Q35.40 107.30 38.10 109.25Q40.80 111.20 45 111.20L45 111.20Q47.70 111.20 49.95 110.65Q52.20 110.10 54.40 109.10L54.40 109.10L56.10 113.90Q53.50 114.90 50.80 115.50Q48.10 116.10 45.30 116.10Z"/></svg>