<?xml version="1.0" encoding="UTF-8" standalone="no"?><svg width="57.400002" height="89.599998" version="1.1" id="svg1023" sodipodi:docname="7_lai.svg" inkscape:version="1.2.1 (9c6d41e410, 2022-07-14)" xmlns:inkscape="http://www.inkscape.org/namespaces/inkscape" xmlns:sodipodi="http://sodipodi.sourceforge.net/DTD/sodipodi-0.dtd" xmlns="http://www.w3.org/2000/svg" xmlns:svg="http://www.w3.org/2000/svg"><defs id="defs1027"></defs><sodipodi:namedview id="namedview1025" pagecolor="#ffffff" bordercolor="#666666" borderopacity="1.0" inkscape:showpageshadow="2" inkscape:pageopacity="0.0" inkscape:pagecheckerboard="0" inkscape:deskcolor="#d1d1d1" showgrid="false" inkscape:zoom="1.809816" inkscape:cx="26.798304" inkscape:cy="65.199997" inkscape:window-width="1920" inkscape:window-height="1027" inkscape:window-x="-8" inkscape:window-y="-8" inkscape:window-maximized="1" inkscape:current-layer="svg1023"></sodipodi:namedview><g id="g0" inkscape:label="g0" transform="matrix(0.99935804,0,0,1,0,29.3)"><path d="m 22.514453,49.4 v 0 Q 15.710085,49.4 10.656841,46.6 5.6035973,43.8 2.8017986,38.7 0,33.6 0,26.6 v 0 Q 0,16.9 6.3040469,10.1 12.608094,3.3 24.515738,0 v 0 l 1.500964,5 Q 16.010278,7.7 10.756906,13.05 5.503533,18.4 5.503533,26.8 v 0 q 0,8.4 4.703019,13 4.703019,4.6 12.207837,4.6 v 0 q 5.90379,0 10.806938,-2.4 v 0 l 2.101349,4.6 q -2.701735,1.3 -5.953822,2.05 -3.252088,0.75 -6.854401,0.75 z m 20.012848,-25.8 -24.715867,5.1 -1.200771,-5 25.916638,-5.2 V 0 l 5.303404,0.8 v 45.4 q 0,3.2 0.550354,4.85 0.550353,1.65 1.65106,2.55 v 0 q 1.20077,1.2 3.152023,1.45 1.951253,0.25 4.25273,0.25 v 0 l -0.500321,5 h -1.000642 q -3.001928,0 -5.553566,-0.65 Q 47.830705,59 46.029549,57.3 v 0 q -1.801156,-1.7 -2.651702,-4.2 -0.850546,-2.5 -0.850546,-6.6 v 0 z" id="g0p0" inkscape:label="g0p0" style="stroke-width:1.00032"></path><path style="fill:none;stroke:#000000;stroke-width:1px;stroke-linecap:butt;stroke-linejoin:miter;stroke-opacity:1" d="M 25.25,2.5039063 C 19.888525,4.1346797 14.511782,6.2364218 10.229284,9.9558151 6.4081444,13.167979 3.7553653,17.772096 3.0740361,22.731727 2.3860108,27.607286 2.8141439,32.789653 5.0448294,37.236943 c 2.2457843,4.44328 6.5422376,7.682806 11.3358416,8.908625 4.633928,1.190326 9.627592,0.966187 14.162298,-0.540097 1.230469,-0.445313 2.460937,-0.890625 3.691406,-1.335938" id="g0s0" inkscape:label="g0s0"></path><path style="fill:none;stroke:#000000;stroke-width:1px;stroke-linecap:butt;stroke-linejoin:miter;stroke-opacity:1" d="M 17.203125,26.207031 43.988281,20.746094" id="g0s1" sodipodi:nodetypes="cc" inkscape:label="g0s1"></path><path style="fill:none;stroke:#000000;stroke-width:1px;stroke-linecap:butt;stroke-linejoin:miter;stroke-opacity:1" d="m 45.175781,0.00390625 c 0.0096,15.81525475 -0.04053,31.63142675 0.0065,47.44610775 0.04063,3.015484 0.650442,6.426891 3.224891,8.341363 2.490232,2.146307 5.945896,1.739199 8.987347,1.997685" id="g0s2" sodipodi:nodetypes="cccccccccccccccccccccccccc" inkscape:label="g0s2"></path></g><g id="g1" inkscape:label="g1" transform="translate(11.3)"><path style="display:inline" d="M 30.8,23.7 28,26.6 Q 21.9,21.2 17.7,18.85 13.5,16.5 8.6,16.5 v 0 q -3.5,0 -6.4,0.9 v 0 L 0.7,12.7 Q 2.5,12.3 4.45,12 6.4,11.7 8.6,11.7 v 0 q 3.8,0 7.15,1.2 3.35,1.2 6.9,3.85 3.55,2.65 8.15,6.95 z" id="g1p0" inkscape:label="g1p0"></path><path style="display:inline;fill:none;stroke:#000000;stroke-width:1px;stroke-linecap:butt;stroke-linejoin:miter;stroke-opacity:1" d="m 1.2484854,15.037068 c 2.0296352,-0.33742 4.0471341,-0.823273 6.106769,-0.926121 1.7144665,-0.03627 3.4419196,-0.0066 5.1213336,0.377952 1.626492,0.286246 3.200444,0.851561 4.696094,1.542318 3.239677,1.543111 6.000222,3.881137 8.751411,6.145612 1.177108,1.030396 2.354216,2.060791 3.531324,3.091187" id="g1s0" inkscape:label="g1s0"></path></g><g id="g2" inkscape:label="g2" transform="matrix(1,0,0,0.99097052,11.3,0)"><path style="display:inline" d="M 36.1,25.5 H 31.7 Q 29.8,17.7 27.95,13.15 26.1,8.6 23.65,6.7 21.2,4.8 17.4,4.8 v 0 Q 16.2,4.8 14.85,5 13.5,5.2 12,5.7 v 0 L 10.5,1.1 Q 12.4,0.5 14.2,0.25 16,0 17.7,0 v 0 q 4.6,0 7.95,2.25 3.35,2.25 5.85,7.8 2.5,5.55 4.6,15.45 z" id="g2p0" inkscape:label="g2p0"></path><path style="display:inline;fill:none;stroke:#000000;stroke-width:1px;stroke-linecap:butt;stroke-linejoin:miter;stroke-opacity:1" d="m 11.023437,3.453125 c 2.182778,-0.4976057 4.36528,-1.1946393 6.631852,-1.0710196 2.053103,-0.044291 4.123749,0.4216957 5.902797,1.4638298 1.290672,0.6572076 2.43165,1.6018918 3.277933,2.7802163 1.787546,2.2624393 2.976329,4.9290225 3.905851,7.6409995 1.112879,3.208175 2.009172,6.487831 2.71558,9.809147 0.117031,0.515091 0.234062,1.030183 0.351093,1.545274" id="g2s0" inkscape:label="g2s0"></path></g></svg>