<svg xmlns="http://www.w3.org/2000/svg" xmlns:xlink="http://www.w3.org/1999/xlink" width="62.800000000000004" height="130.4"><path d="M27.40 78.70L27.40 78.70Q20.60 78.70 15.55 75.90Q10.50 73.10 7.70 68Q4.90 62.90 4.90 55.90L4.90 55.90Q4.90 46.20 11.20 39.40Q17.50 32.60 29.40 29.30L29.40 29.30L30.90 34.30Q20.90 37.00 15.65 42.35Q10.40 47.70 10.40 56.10L10.40 56.10Q10.40 64.50 15.10 69.10Q19.80 73.70 27.30 73.70L27.30 73.70Q33.20 73.70 38.10 71.30L38.10 71.30L40.20 75.90Q37.50 77.20 34.25 77.95Q31 78.70 27.40 78.70ZM47.40 52.90L22.70 58.00L21.50 53.00L47.40 47.80L47.40 29.30L52.70 30.10L52.70 75.50Q52.70 78.70 53.25 80.35Q53.80 82.00 54.90 82.90L54.90 82.90Q56.10 84.10 58.05 84.35Q60 84.60 62.30 84.60L62.30 84.60L61.80 89.60L60.80 89.60Q57.80 89.60 55.25 88.95Q52.70 88.30 50.90 86.60L50.90 86.60Q49.10 84.90 48.25 82.40Q47.40 79.90 47.40 75.80L47.40 75.80L47.40 52.90ZM52.30 25.50L47.90 25.50Q46 17.70 44.15 13.15Q42.30 8.60 39.85 6.70Q37.40 4.80 33.60 4.80L33.60 4.80Q32.40 4.80 31.05 5Q29.70 5.20 28.20 5.70L28.20 5.70L26.70 1.10Q28.60 0.50 30.40 0.25Q32.20 0 33.90 0L33.90 0Q38.50 0 41.85 2.25Q45.20 4.50 47.70 10.05Q50.20 15.60 52.30 25.50L52.30 25.50ZM47 23.70L44.20 26.60Q38.10 21.20 33.90 18.85Q29.70 16.50 24.80 16.50L24.80 16.50Q21.30 16.50 18.40 17.40L18.40 17.40L16.90 12.70Q18.70 12.30 20.65 12Q22.60 11.70 24.80 11.70L24.80 11.70Q28.60 11.70 31.95 12.90Q35.30 14.10 38.85 16.75Q42.40 19.40 47 23.70L47 23.70Z"/></svg>