<svg xmlns="http://www.w3.org/2000/svg" xmlns:xlink="http://www.w3.org/1999/xlink" width="87.9" height="130.4">
    <path
        d="M27.40 78.70L27.40 78.70Q20.60 78.70 15.55 75.90Q10.50 73.10 7.70 68Q4.90 62.90 4.90 55.90L4.90 55.90Q4.90 46.20 11.20 39.40Q17.50 32.60 29.40 29.30L29.40 29.30L30.90 34.30Q20.90 37.00 15.65 42.35Q10.40 47.70 10.40 56.10L10.40 56.10Q10.40 64.50 15.10 69.10Q19.80 73.70 27.30 73.70L27.30 73.70Q33.20 73.70 38.10 71.30L38.10 71.30L40.20 75.90Q37.50 77.20 34.25 77.95Q31 78.70 27.40 78.70ZM47.40 52.90L22.70 58.00L21.50 53.00L47.40 47.80L47.40 29.30L52.70 30.10L52.70 75.50Q52.70 78.70 53.25 80.35Q53.80 82.00 54.90 82.90L54.90 82.90Q56.10 84.10 58.05 84.35Q60 84.60 62.30 84.60L62.30 84.60L61.80 89.60L60.80 89.60Q57.80 89.60 55.25 88.95Q52.70 88.30 50.90 86.60L50.90 86.60Q49.10 84.90 48.25 82.40Q47.40 79.90 47.40 75.80L47.40 75.80L47.40 52.90ZM86.90 89.60L85.90 89.60Q79.30 89.60 76 86.60L76 86.60Q74.20 85.00 73.35 82.50Q72.50 80 72.50 75.80L72.50 75.80L72.50 29.30L77.80 30.00L77.80 75.50Q77.80 78.80 78.30 80.40Q78.80 82.00 80.10 83.00L80.10 83.00Q81.30 84.10 83.15 84.35Q85 84.60 87.40 84.60L87.40 84.60L86.90 89.60ZM77.30 25.50L72.50 25.50Q70.30 17.90 68.30 13.40Q66.30 8.90 63.75 6.90Q61.20 4.90 57.30 4.90L57.30 4.90Q54.50 4.90 51.50 5.80L51.50 5.80L49.90 1.20Q51.90 0.60 53.85 0.30Q55.80 0 57.60 0L57.60 0Q62.30 0 65.80 2.15Q69.30 4.30 72.05 9.80Q74.80 15.30 77.30 25.50L77.30 25.50Z" />
      <g
     id="g562"
     inkscape:label="g2">
    <path
       style="display:inline"
       d="m 70.7,89.6 h -1 q -6.6,0 -9.9,-3 v 0 Q 58,85 57.15,82.5 56.3,80 56.3,75.8 v 0 -46.5 l 5.3,0.7 v 45.5 q 0,3.3 0.5,4.9 0.5,1.6 1.8,2.6 v 0 q 1.2,1.1 3.05,1.35 1.85,0.25 4.25,0.25 v 0 z"
       id="path551"
       inkscape:label="p2" />
    <path
       style="display:inline;fill:none;stroke:#000000;stroke-width:1px;stroke-linecap:butt;stroke-linejoin:miter;stroke-opacity:1"
       d="m 58.92722,29.304293 c 0.0052,15.660703 -0.0419,31.322813 -0.004,46.982637 0.07316,2.661925 0.300704,5.531206 2.06529,7.674603 1.94562,2.285428 5.076187,2.956219 7.950186,3.001875 0.734456,0.05113 1.468913,0.102253 2.203369,0.15338"
       id="path81"
       inkscape:label="s3" />
  </g>
  <g
     id="g566"
     inkscape:label="g3">
    <path
       style="display:inline"
       d="M 61.1,25.5 H 56.3 Q 54.1,17.9 52.1,13.4 50.1,8.9 47.55,6.9 45,4.9 41.1,4.9 v 0 q -2.8,0 -5.8,0.9 v 0 L 33.7,1.2 Q 35.7,0.6 37.65,0.3 39.6,0 41.4,0 v 0 q 4.7,0 8.2,2.15 3.5,2.15 6.25,7.65 2.75,5.5 5.25,15.7 z"
       id="path553"
       inkscape:label="p3" />
    <path
       style="display:inline;fill:none;stroke:#000000;stroke-width:1px;stroke-linecap:butt;stroke-linejoin:miter;stroke-opacity:1"
       d="m 34.390625,3.625 c 2.407735,-0.5487371 4.818668,-1.2842266 7.316349,-1.1718755 2.367913,0.061684 4.769179,0.644832 6.746194,1.9883103 2.283908,1.5216174 3.856335,3.867577 5.081293,6.2795292 0.985525,1.850814 1.702889,3.830646 2.400769,5.803765 1.025962,2.981686 1.857827,6.023718 2.740551,9.04949"
       id="path814"
       inkscape:label="s4" />
  </g>
    <path style="fill:none;stroke:#000000;stroke-width:1px;stroke-linecap:butt;stroke-linejoin:miter;stroke-opacity:1"
        d="M 25.25,2.5039063 C 19.888525,4.1346797 14.511782,6.2364218 10.229284,9.9558151 6.4081444,13.167979 3.7553653,17.772096 3.0740361,22.731727 2.3860108,27.607286 2.8141439,32.789653 5.0448294,37.236943 c 2.2457843,4.44328 6.5422376,7.682806 11.3358416,8.908625 4.633928,1.190326 9.627592,0.966187 14.162298,-0.540097 1.230469,-0.445313 2.460937,-0.890625 3.691406,-1.335938"
        id="path329" inkscape:label="s1" />
    <path style="fill:none;stroke:#000000;stroke-width:1px;stroke-linecap:butt;stroke-linejoin:miter;stroke-opacity:1"
        d="M 17.203125,26.207031 43.988281,20.746094" id="path331" sodipodi:nodetypes="cc" inkscape:label="s2" />
    <path style="fill:none;stroke:#000000;stroke-width:1px;stroke-linecap:butt;stroke-linejoin:miter;stroke-opacity:1"
        d="m 45.175781,0.00390625 c 0.0096,15.81525475 -0.04053,31.63142675 0.0065,47.44610775 0.04063,3.015484 0.650442,6.426891 3.224891,8.341363 2.490232,2.146307 5.945896,1.739199 8.987347,1.997685"
        id="path333" sodipodi:nodetypes="cccccccccccccccccccccccccc" inkscape:label="s3" />
</svg>