<?xml version="1.0" encoding="UTF-8" standalone="no"?>
<svg
   width="82.5"
   height="89.599998"
   version="1.1"
   id="svg1190"
   sodipodi:docname="8_lo.svg"
   inkscape:version="1.2.1 (9c6d41e410, 2022-07-14)"
   xmlns:inkscape="http://www.inkscape.org/namespaces/inkscape"
   xmlns:sodipodi="http://sodipodi.sourceforge.net/DTD/sodipodi-0.dtd"
   xmlns="http://www.w3.org/2000/svg"
   xmlns:svg="http://www.w3.org/2000/svg">
  <defs
     id="defs1194" />
  <sodipodi:namedview
     id="namedview1192"
     pagecolor="#ffffff"
     bordercolor="#666666"
     borderopacity="1.0"
     inkscape:showpageshadow="2"
     inkscape:pageopacity="0.0"
     inkscape:pagecheckerboard="0"
     inkscape:deskcolor="#d1d1d1"
     showgrid="false"
     inkscape:zoom="1.809816"
     inkscape:cx="39.506778"
     inkscape:cy="65.199997"
     inkscape:window-width="1920"
     inkscape:window-height="1027"
     inkscape:window-x="-8"
     inkscape:window-y="-8"
     inkscape:window-maximized="1"
     inkscape:current-layer="svg1190" />
  <g
     id="g13"
     inkscape:label="g1"
     transform="matrix(0.99935804,0,0,1,0,29.3)">
    <path
       d="m 22.514453,49.4 v 0 Q 15.710085,49.4 10.656841,46.6 5.6035973,43.8 2.8017986,38.7 0,33.6 0,26.6 v 0 Q 0,16.9 6.3040469,10.1 12.608094,3.3 24.515738,0 v 0 l 1.500964,5 Q 16.010278,7.7 10.756906,13.05 5.503533,18.4 5.503533,26.8 v 0 q 0,8.4 4.703019,13 4.703019,4.6 12.207837,4.6 v 0 q 5.90379,0 10.806938,-2.4 v 0 l 2.101349,4.6 q -2.701735,1.3 -5.953822,2.05 -3.252088,0.75 -6.854401,0.75 z m 20.012848,-25.8 -24.715867,5.1 -1.200771,-5 25.916638,-5.2 V 0 l 5.303404,0.8 v 45.4 q 0,3.2 0.550354,4.85 0.550353,1.65 1.65106,2.55 v 0 q 1.20077,1.2 3.152023,1.45 1.951253,0.25 4.25273,0.25 v 0 l -0.500321,5 h -1.000642 q -3.001928,0 -5.553566,-0.65 Q 47.830705,59 46.029549,57.3 v 0 q -1.801156,-1.7 -2.651702,-4.2 -0.850546,-2.5 -0.850546,-6.6 v 0 z"
       id="path2"
       inkscape:label="p1"
       style="stroke-width:1.00032" />
    <path
       style="fill:none;stroke:#000000;stroke-width:1px;stroke-linecap:butt;stroke-linejoin:miter;stroke-opacity:1"
       d="M 25.25,2.5039063 C 19.888525,4.1346797 14.511782,6.2364218 10.229284,9.9558151 6.4081444,13.167979 3.7553653,17.772096 3.0740361,22.731727 2.3860108,27.607286 2.8141439,32.789653 5.0448294,37.236943 c 2.2457843,4.44328 6.5422376,7.682806 11.3358416,8.908625 4.633928,1.190326 9.627592,0.966187 14.162298,-0.540097 1.230469,-0.445313 2.460937,-0.890625 3.691406,-1.335938"
       id="path329-8"
       inkscape:label="s1" />
    <path
       style="fill:none;stroke:#000000;stroke-width:1px;stroke-linecap:butt;stroke-linejoin:miter;stroke-opacity:1"
       d="M 17.203125,26.207031 43.988281,20.746094"
       id="path331-6"
       sodipodi:nodetypes="cc"
       inkscape:label="s2" />
    <path
       style="fill:none;stroke:#000000;stroke-width:1px;stroke-linecap:butt;stroke-linejoin:miter;stroke-opacity:1"
       d="m 45.175781,0.00390625 c 0.0096,15.81525475 -0.04053,31.63142675 0.0065,47.44610775 0.04063,3.015484 0.650442,6.426891 3.224891,8.341363 2.490232,2.146307 5.945896,1.739199 8.987347,1.997685"
       id="path333-1"
       sodipodi:nodetypes="cccccccccccccccccccccccccc"
       inkscape:label="s3" />
  </g>
  <g
     id="g562"
     inkscape:label="g2"
     transform="translate(11.3)">
    <path
       style="display:inline"
       d="m 70.7,89.6 h -1 q -6.6,0 -9.9,-3 v 0 Q 58,85 57.15,82.5 56.3,80 56.3,75.8 v 0 -46.5 l 5.3,0.7 v 45.5 q 0,3.3 0.5,4.9 0.5,1.6 1.8,2.6 v 0 q 1.2,1.1 3.05,1.35 1.85,0.25 4.25,0.25 v 0 z"
       id="path551"
       inkscape:label="p2" />
    <path
       style="display:inline;fill:none;stroke:#000000;stroke-width:1px;stroke-linecap:butt;stroke-linejoin:miter;stroke-opacity:1"
       d="m 58.92722,29.304293 c 0.0052,15.660703 -0.0419,31.322813 -0.004,46.982637 0.07316,2.661925 0.300704,5.531206 2.06529,7.674603 1.94562,2.285428 5.076187,2.956219 7.950186,3.001875 0.734456,0.05113 1.468913,0.102253 2.203369,0.15338"
       id="path81"
       inkscape:label="s3" />
  </g>
  <g
     id="g566"
     inkscape:label="g3"
     transform="matrix(1,0,0,0.98971838,11.3,0)">
    <path
       style="display:inline"
       d="M 61.1,25.5 H 56.3 Q 54.1,17.9 52.1,13.4 50.1,8.9 47.55,6.9 45,4.9 41.1,4.9 v 0 q -2.8,0 -5.8,0.9 v 0 L 33.7,1.2 Q 35.7,0.6 37.65,0.3 39.6,0 41.4,0 v 0 q 4.7,0 8.2,2.15 3.5,2.15 6.25,7.65 2.75,5.5 5.25,15.7 z"
       id="path553"
       inkscape:label="p3" />
    <path
       style="display:inline;fill:none;stroke:#000000;stroke-width:1px;stroke-linecap:butt;stroke-linejoin:miter;stroke-opacity:1"
       d="m 34.390625,3.625 c 2.407735,-0.5487371 4.818668,-1.2842266 7.316349,-1.1718755 2.367913,0.061684 4.769179,0.644832 6.746194,1.9883103 2.283908,1.5216174 3.856335,3.867577 5.081293,6.2795292 0.985525,1.850814 1.702889,3.830646 2.400769,5.803765 1.025962,2.981686 1.857827,6.023718 2.740551,9.04949"
       id="path814"
       inkscape:label="s4" />
  </g>
</svg>
