<svg xmlns="http://www.w3.org/2000/svg" xmlns:xlink="http://www.w3.org/1999/xlink" width="87.9" height="130.4">
    <path
        d="M27.40 78.70L27.40 78.70Q20.60 78.70 15.55 75.90Q10.50 73.10 7.70 68Q4.90 62.90 4.90 55.90L4.90 55.90Q4.90 46.20 11.20 39.40Q17.50 32.60 29.40 29.30L29.40 29.30L30.90 34.30Q20.90 37.00 15.65 42.35Q10.40 47.70 10.40 56.10L10.40 56.10Q10.40 64.50 15.10 69.10Q19.80 73.70 27.30 73.70L27.30 73.70Q33.20 73.70 38.10 71.30L38.10 71.30L40.20 75.90Q37.50 77.20 34.25 77.95Q31 78.70 27.40 78.70ZM47.40 52.90L22.70 58.00L21.50 53.00L47.40 47.80L47.40 29.30L52.70 30.10L52.70 75.50Q52.70 78.70 53.25 80.35Q53.80 82.00 54.90 82.90L54.90 82.90Q56.10 84.10 58.05 84.35Q60 84.60 62.30 84.60L62.30 84.60L61.80 89.60L60.80 89.60Q57.80 89.60 55.25 88.95Q52.70 88.30 50.90 86.60L50.90 86.60Q49.10 84.90 48.25 82.40Q47.40 79.90 47.40 75.80L47.40 75.80L47.40 52.90ZM86.90 89.60L85.90 89.60Q79.30 89.60 76 86.60L76 86.60Q74.20 85.00 73.35 82.50Q72.50 80 72.50 75.80L72.50 75.80L72.50 29.30L77.80 30.00L77.80 75.50Q77.80 78.80 78.30 80.40Q78.80 82.00 80.10 83.00L80.10 83.00Q81.30 84.10 83.15 84.35Q85 84.60 87.40 84.60L87.40 84.60L86.90 89.60ZM77.40 25.50L73 25.50Q71.10 17.70 69.25 13.15Q67.40 8.60 64.95 6.70Q62.50 4.80 58.70 4.80L58.70 4.80Q57.50 4.80 56.15 5Q54.80 5.20 53.30 5.70L53.30 5.70L51.80 1.10Q53.70 0.50 55.50 0.25Q57.30 0 59.00 0L59.00 0Q63.60 0 66.95 2.25Q70.30 4.50 72.80 10.05Q75.30 15.60 77.40 25.50L77.40 25.50ZM72.10 23.70L69.30 26.60Q63.20 21.20 59.00 18.85Q54.80 16.50 49.90 16.50L49.90 16.50Q46.40 16.50 43.50 17.40L43.50 17.40L42 12.70Q43.80 12.30 45.75 12Q47.70 11.70 49.90 11.70L49.90 11.70Q53.70 11.70 57.05 12.90Q60.40 14.10 63.95 16.75Q67.50 19.40 72.10 23.70L72.10 23.70Z" />
      <g
     id="g605"
     inkscape:label="g2">
    <path
       style="display:inline"
       d="m 70.7,89.6 h -1 q -6.6,0 -9.9,-3 v 0 Q 58,85 57.15,82.5 56.3,80 56.3,75.8 v 0 -46.5 l 5.3,0.7 v 45.5 q 0,3.3 0.5,4.9 0.5,1.6 1.8,2.6 v 0 q 1.2,1.1 3.05,1.35 1.85,0.25 4.25,0.25 v 0 z"
       id="path592"
       inkscape:label="p2" />
    <path
       style="display:inline;fill:none;stroke:#000000;stroke-width:1px;stroke-linecap:butt;stroke-linejoin:miter;stroke-opacity:1"
       d="m 58.945814,29.339077 c 0.0052,15.660703 -0.0419,31.322813 -0.004,46.982637 0.07316,2.661925 0.300705,5.531206 2.06529,7.674603 1.94562,2.285428 5.076188,2.956219 7.950186,3.001875 0.734456,0.05113 1.468913,0.102253 2.203369,0.15338"
       id="path81"
       inkscape:label="s3" />
  </g>
  <g
     id="g609"
     inkscape:label="g3">
    <path
       style="display:inline"
       d="m 55.9,23.7 -2.8,2.9 Q 47,21.2 42.8,18.85 38.6,16.5 33.7,16.5 v 0 q -3.5,0 -6.4,0.9 v 0 l -1.5,-4.7 q 1.8,-0.4 3.75,-0.7 1.95,-0.3 4.15,-0.3 v 0 q 3.8,0 7.15,1.2 3.35,1.2 6.9,3.85 3.55,2.65 8.15,6.95 z"
       id="path596"
       inkscape:label="p3" />
    <path
       style="display:inline;fill:none;stroke:#000000;stroke-width:1px;stroke-linecap:butt;stroke-linejoin:miter;stroke-opacity:1"
       d="m 26.306582,15.114407 c 2.688785,-0.568456 5.416241,-1.1935 8.183739,-0.988483 1.810938,0.02306 3.595689,0.410136 5.328375,0.908621 1.446215,0.495326 2.860202,1.115629 4.178036,1.890495 3.847011,2.308963 7.136989,5.387765 10.538424,8.281996"
       id="path905"
       inkscape:label="s4" />
  </g>
  <g
     id="g613"
     inkscape:label="g4">
    <path
       style="display:inline"
       d="M 61.2,25.5 H 56.8 Q 54.9,17.7 53.05,13.15 51.2,8.6 48.75,6.7 46.3,4.8 42.5,4.8 v 0 Q 41.3,4.8 39.95,5 38.6,5.2 37.1,5.7 v 0 L 35.6,1.1 Q 37.5,0.5 39.3,0.25 41.1,0 42.8,0 v 0 q 4.6,0 7.95,2.25 3.35,2.25 5.85,7.8 2.5,5.55 4.6,15.45 z"
       id="path594"
       inkscape:label="p4" />
    <path
       style="display:inline;fill:none;stroke:#000000;stroke-width:1px;stroke-linecap:butt;stroke-linejoin:miter;stroke-opacity:1"
       d="m 36.195028,3.4913397 2.773185,-0.7181553 0.82864,-0.1767767 0.806544,-0.099437 1.138,-0.088388 h 0.905981 l 1.027514,0.033146 0.983321,0.121534 0.872835,0.1325825 1.237436,0.2872621 1.071709,0.4198447 1.347922,0.6960582 1.016466,0.6960583 0.696059,0.5966213 0.82864,0.9612233 0.950175,1.2042912 0.839689,1.3368738 0.806544,1.6130879 0.651864,1.425262 0.662913,1.635184 0.53033,1.679379 0.50108,1.557697 0.367187,1.382813 0.5,1.734375 0.453125,1.757812 1.007035,3.936361"
       id="path970"
       inkscape:label="s5" />
  </g>
    <path style="fill:none;stroke:#000000;stroke-width:1px;stroke-linecap:butt;stroke-linejoin:miter;stroke-opacity:1"
        d="M 25.25,2.5039063 C 19.888525,4.1346797 14.511782,6.2364218 10.229284,9.9558151 6.4081444,13.167979 3.7553653,17.772096 3.0740361,22.731727 2.3860108,27.607286 2.8141439,32.789653 5.0448294,37.236943 c 2.2457843,4.44328 6.5422376,7.682806 11.3358416,8.908625 4.633928,1.190326 9.627592,0.966187 14.162298,-0.540097 1.230469,-0.445313 2.460937,-0.890625 3.691406,-1.335938"
        id="path329" inkscape:label="s1" />
    <path style="fill:none;stroke:#000000;stroke-width:1px;stroke-linecap:butt;stroke-linejoin:miter;stroke-opacity:1"
        d="M 17.203125,26.207031 43.988281,20.746094" id="path331" sodipodi:nodetypes="cc" inkscape:label="s2" />
    <path style="fill:none;stroke:#000000;stroke-width:1px;stroke-linecap:butt;stroke-linejoin:miter;stroke-opacity:1"
        d="m 45.175781,0.00390625 c 0.0096,15.81525475 -0.04053,31.63142675 0.0065,47.44610775 0.04063,3.015484 0.650442,6.426891 3.224891,8.341363 2.490232,2.146307 5.945896,1.739199 8.987347,1.997685"
        id="path333" sodipodi:nodetypes="cccccccccccccccccccccccccc" inkscape:label="s3" />
</svg>