<svg xmlns="http://www.w3.org/2000/svg" xmlns:xlink="http://www.w3.org/1999/xlink" width="87.9" height="130.4"><path d="M27.40 78.70L27.40 78.70Q20.60 78.70 15.55 75.90Q10.50 73.10 7.70 68Q4.90 62.90 4.90 55.90L4.90 55.90Q4.90 46.20 11.20 39.40Q17.50 32.60 29.40 29.30L29.40 29.30L30.90 34.30Q20.90 37.00 15.65 42.35Q10.40 47.70 10.40 56.10L10.40 56.10Q10.40 64.50 15.10 69.10Q19.80 73.70 27.30 73.70L27.30 73.70Q33.20 73.70 38.10 71.30L38.10 71.30L40.20 75.90Q37.50 77.20 34.25 77.95Q31 78.70 27.40 78.70ZM47.40 52.90L22.70 58.00L21.50 53.00L47.40 47.80L47.40 29.30L52.70 30.10L52.70 75.50Q52.70 78.70 53.25 80.35Q53.80 82.00 54.90 82.90L54.90 82.90Q56.10 84.10 58.05 84.35Q60 84.60 62.30 84.60L62.30 84.60L61.80 89.60L60.80 89.60Q57.80 89.60 55.25 88.95Q52.70 88.30 50.90 86.60L50.90 86.60Q49.10 84.90 48.25 82.40Q47.40 79.90 47.40 75.80L47.40 75.80L47.40 52.90ZM86.90 89.60L85.90 89.60Q79.30 89.60 76 86.60L76 86.60Q74.20 85.00 73.35 82.50Q72.50 80 72.50 75.80L72.50 75.80L72.50 29.30L77.80 30.00L77.80 75.50Q77.80 78.80 78.30 80.40Q78.80 82.00 80.10 83.00L80.10 83.00Q81.30 84.10 83.15 84.35Q85 84.60 87.40 84.60L87.40 84.60L86.90 89.60ZM77.40 25.50L73 25.50Q71.10 17.70 69.25 13.15Q67.40 8.60 64.95 6.70Q62.50 4.80 58.70 4.80L58.70 4.80Q57.50 4.80 56.15 5Q54.80 5.20 53.30 5.70L53.30 5.70L51.80 1.10Q53.70 0.50 55.50 0.25Q57.30 0 59.00 0L59.00 0Q63.60 0 66.95 2.25Q70.30 4.50 72.80 10.05Q75.30 15.60 77.40 25.50L77.40 25.50ZM72.10 23.70L69.30 26.60Q63.20 21.20 59.00 18.85Q54.80 16.50 49.90 16.50L49.90 16.50Q46.40 16.50 43.50 17.40L43.50 17.40L42 12.70Q43.80 12.30 45.75 12Q47.70 11.70 49.90 11.70L49.90 11.70Q53.70 11.70 57.05 12.90Q60.40 14.10 63.95 16.75Q67.50 19.40 72.10 23.70L72.10 23.70Z"/></svg>