<?xml version="1.0" encoding="UTF-8" standalone="no"?><svg width="57.400002" height="80.199997" version="1.1" id="svg1542" sodipodi:docname="10_lam.svg" inkscape:version="1.2.1 (9c6d41e410, 2022-07-14)" xmlns:inkscape="http://www.inkscape.org/namespaces/inkscape" xmlns:sodipodi="http://sodipodi.sourceforge.net/DTD/sodipodi-0.dtd" xmlns="http://www.w3.org/2000/svg" xmlns:svg="http://www.w3.org/2000/svg"><defs id="defs1546"></defs><sodipodi:namedview id="namedview1544" pagecolor="#ffffff" bordercolor="#666666" borderopacity="1.0" inkscape:showpageshadow="2" inkscape:pageopacity="0.0" inkscape:pagecheckerboard="0" inkscape:deskcolor="#d1d1d1" showgrid="false" inkscape:zoom="1.809816" inkscape:cx="26.798304" inkscape:cy="55.806777" inkscape:window-width="1920" inkscape:window-height="1027" inkscape:window-x="-8" inkscape:window-y="-8" inkscape:window-maximized="1" inkscape:current-layer="svg1542"></sodipodi:namedview><g id="g0" inkscape:label="g0" transform="matrix(0.99935804,0,0,1,0,19.9)"><path d="m 22.514453,49.4 v 0 Q 15.710085,49.4 10.656841,46.6 5.6035973,43.8 2.8017986,38.7 0,33.6 0,26.6 v 0 Q 0,16.9 6.3040469,10.1 12.608094,3.3 24.515738,0 v 0 l 1.500964,5 Q 16.010278,7.7 10.756906,13.05 5.503533,18.4 5.503533,26.8 v 0 q 0,8.4 4.703019,13 4.703019,4.6 12.207837,4.6 v 0 q 5.90379,0 10.806938,-2.4 v 0 l 2.101349,4.6 q -2.701735,1.3 -5.953822,2.05 -3.252088,0.75 -6.854401,0.75 z m 20.012848,-25.8 -24.715867,5.1 -1.200771,-5 25.916638,-5.2 V 0 l 5.303404,0.8 v 45.4 q 0,3.2 0.550354,4.85 0.550353,1.65 1.65106,2.55 v 0 q 1.20077,1.2 3.152023,1.45 1.951253,0.25 4.25273,0.25 v 0 l -0.500321,5 h -1.000642 q -3.001928,0 -5.553566,-0.65 Q 47.830705,59 46.029549,57.3 v 0 q -1.801156,-1.7 -2.651702,-4.2 -0.850546,-2.5 -0.850546,-6.6 v 0 z" id="g0p0" inkscape:label="g0p0" style="stroke-width:1.00032"></path><path style="fill:none;stroke:#000000;stroke-width:1px;stroke-linecap:butt;stroke-linejoin:miter;stroke-opacity:1" d="M 25.25,2.5039063 C 19.888525,4.1346797 14.511782,6.2364218 10.229284,9.9558151 6.4081444,13.167979 3.7553653,17.772096 3.0740361,22.731727 2.3860108,27.607286 2.8141439,32.789653 5.0448294,37.236943 c 2.2457843,4.44328 6.5422376,7.682806 11.3358416,8.908625 4.633928,1.190326 9.627592,0.966187 14.162298,-0.540097 1.230469,-0.445313 2.460937,-0.890625 3.691406,-1.335938" id="g0s0" inkscape:label="g0s0"></path><path style="fill:none;stroke:#000000;stroke-width:1px;stroke-linecap:butt;stroke-linejoin:miter;stroke-opacity:1" d="M 17.203125,26.207031 43.988281,20.746094" id="g0s1" sodipodi:nodetypes="cc" inkscape:label="g0s1"></path><path style="fill:none;stroke:#000000;stroke-width:1px;stroke-linecap:butt;stroke-linejoin:miter;stroke-opacity:1" d="m 45.175781,0.00390625 c 0.0096,15.81525475 -0.04053,31.63142675 0.0065,47.44610775 0.04063,3.015484 0.650442,6.426891 3.224891,8.341363 2.490232,2.146307 5.945896,1.739199 8.987347,1.997685" id="g0s2" sodipodi:nodetypes="cccccccccccccccccccccccccc" inkscape:label="g0s2"></path></g><g id="g1" inkscape:label="g1" transform="translate(11.3)"><path style="display:inline" d="m 33.9,9.7 v 0 Q 32.1,9.7 30.85,8.4 29.6,7.1 29.6,4.8 v 0 Q 29.6,2.6 30.8,1.3 32,0 33.9,0 v 0 q 1.9,0 3.1,1.3 1.2,1.3 1.2,3.5 v 0 q 0,2.4 -1.25,3.65 Q 35.7,9.7 33.9,9.7 Z" id="g1p0" inkscape:label="g1p0"></path><path d="m 33.9375,1.3352194 c -0.820403,0 -1.515467,0.3118012 -2.085191,0.9354043 -0.569724,0.6236031 -0.854587,1.7074649 -0.854587,2.5903504 0,1.0553281 0.273468,1.8947931 0.820403,2.5183962 0.546936,0.6236031 1.347168,0.9354042 2.119375,0.9354042 0.865981,0 1.572439,-0.3118011 2.119375,-0.9354042 0.546935,-0.6236031 0.820403,-1.5977735 0.820403,-2.5183962 0,-1.1512668 -0.284863,-2.0267096 -0.854587,-2.6263275 C 35.452967,1.6350287 34.757903,1.3352194 33.9375,1.3352194" style="display:inline;stroke-width:0.701376" id="g1s0" sodipodi:nodetypes="sssssssss" inkscape:label="g1s0"></path></g></svg>
