<?xml version="1.0" encoding="UTF-8" standalone="no"?><svg width="60.599998" height="76.800003" version="1.1" id="svg1591" sodipodi:docname="11_fah.svg" inkscape:version="1.2.1 (9c6d41e410, 2022-07-14)" xmlns:inkscape="http://www.inkscape.org/namespaces/inkscape" xmlns:sodipodi="http://sodipodi.sourceforge.net/DTD/sodipodi-0.dtd" xmlns="http://www.w3.org/2000/svg" xmlns:svg="http://www.w3.org/2000/svg"><defs id="defs1595"></defs><sodipodi:namedview id="namedview1593" pagecolor="#ffffff" bordercolor="#666666" borderopacity="1.0" inkscape:showpageshadow="2" inkscape:pageopacity="0.0" inkscape:pagecheckerboard="0" inkscape:deskcolor="#d1d1d1" showgrid="false" inkscape:zoom="1.809816" inkscape:cx="31.771185" inkscape:cy="124.32203" inkscape:window-width="1920" inkscape:window-height="1027" inkscape:window-x="-8" inkscape:window-y="-8" inkscape:window-maximized="1" inkscape:current-layer="svg1591"></sodipodi:namedview><g id="g0" inkscape:label="g0"><path d="M 20.6,31 2,37.8 0.2,33.1 15.6,27.6 Q 11.5,24.8 8.8,21.55 6.1,18.3 6.1,13.6 v 0 Q 6.1,7.5 10.6,3.75 15.1,0 22.8,0 v 0 q 3.1,0 5.85,0.4 2.75,0.4 5.55,1 v 0 l -1,4.9 Q 30.6,5.7 28.3,5.35 26,5 23.3,5 v 0 q -5.8,0 -8.8,2.35 -3,2.35 -3,6.55 v 0 q 0,3.6 2.6,6.35 2.6,2.75 7,5.35 v 0 l 20.3,-7.4 2,4.7 -17.3,6.1 q 5.5,3.4 9.1,7.45 3.6,4.05 3.6,9.95 v 0 q 0,3.9 -1.95,7.3 -1.95,3.4 -6,5.5 -4.05,2.1 -10.45,2.1 v 0 q -2.2,0 -4.7,-0.2 v 0 q 4,5.7 7.75,8.2 3.75,2.5 8.95,2.5 v 0 h 2.3 l -0.6,5 H 32.4 Q 24.7,76.8 19.65,72.55 14.6,68.3 9.7,60.4 v 0 Q 4.9,59.6 2.45,57.55 0,55.5 0,53.2 v 0 q 0,-1.8 1.2,-2.85 1.2,-1.05 3,-1.05 v 0 q 2.6,0 4.8,1.7 2.2,1.7 4.2,4.6 v 0 q 3.1,0.8 7.1,0.8 v 0 q 6.5,0 9.75,-2.8 3.25,-2.8 3.25,-7.3 v 0 q 0,-4.5 -3.25,-8.05 Q 26.8,34.7 20.6,31 Z" id="g0p0" inkscape:label="g0p0"></path><path id="g0s0" style="fill:none;stroke:#000000;stroke-width:1px;stroke-linecap:butt;stroke-linejoin:miter;stroke-opacity:1" d="M 33.679183,3.9541312 C 27.392336,2.4204307 20.296177,1.3728146 14.276356,4.3793476 10.182246,6.4568439 8.0624781,11.328626 8.9790833,15.768098 c 0.7809119,4.930596 5.2851387,7.919 9.0163417,10.637411 5.705715,3.99691 12.41813,7.222258 16.297048,13.25583 3.421684,5.482817 1.852452,13.664301 -3.93393,16.897433 -5.31554,3.144396 -11.724046,2.212655 -17.586265,1.916778 C 10.418433,58.226387 7.984237,58.10662 5.8471596,56.957036 4.191871,56.251295 2.2911025,54.965137 2.1876116,52.999863 c 0.236352,-1.732027 2.4329789,-1.658378 3.6989045,-1.187705 2.372271,0.999433 4.3387999,2.969562 5.4161439,5.231482 1.525198,3.202206 2.929964,6.499725 5.36283,9.11513 3.11343,3.75685 7.125454,7.22864 12.157085,7.822544 1.836641,0.326403 3.70454,0.321524 5.560238,0.428843" sodipodi:nodetypes="ccccccccccsccc" inkscape:label="g0s0"></path><path style="fill:none;stroke:#000000;stroke-width:1px;stroke-linecap:butt;stroke-linejoin:miter;stroke-opacity:1" d="M 42.390625,20.539062 1.0963158,35.45368" id="g0s1" sodipodi:nodetypes="cc" inkscape:label="g0s1"></path></g><g id="g1" inkscape:label="g1" transform="translate(-1.8)"><path style="display:inline" d="m 57.8,22 v 0 Q 56,22 54.6,20.65 53.2,19.3 53.2,16.9 v 0 q 0,-2.4 1.35,-3.75 1.35,-1.35 3.25,-1.35 v 0 q 2,0 3.3,1.35 1.3,1.35 1.3,3.75 v 0 q 0,2.5 -1.35,3.8 Q 59.7,22 57.8,22 Z" id="g1p0" inkscape:label="g1p0"></path><path d="m 57.838,13.392 c -0.820403,0 -1.516459,0.311735 -2.086183,0.935339 -0.569724,0.623603 -0.854587,1.707464 -0.854587,2.59035 0,1.055328 0.273468,1.894793 0.820403,2.518396 0.546936,0.623603 1.347168,0.935404 2.119375,0.935404 0.865981,0 1.572439,-0.311801 2.119375,-0.935404 0.546935,-0.623603 0.820403,-1.597773 0.820403,-2.518396 0,-1.151267 -0.284863,-2.02671 -0.854587,-2.626328 C 59.352475,13.691744 58.656403,13.391934 57.836,13.391934" style="display:inline;stroke-width:0.701376" id="g1s0" sodipodi:nodetypes="sssssssss" inkscape:label="g1s0"></path></g><g id="g2" inkscape:label="g2" transform="translate(-1.8)"><path style="display:inline" d="m 57.8,55.3 v 0 Q 56,55.3 54.6,53.95 53.2,52.6 53.2,50.2 v 0 q 0,-2.4 1.35,-3.75 1.35,-1.35 3.25,-1.35 v 0 q 2,0 3.3,1.35 1.3,1.35 1.3,3.75 v 0 q 0,2.5 -1.35,3.8 -1.35,1.3 -3.25,1.3 z" id="g2p0" inkscape:label="g2p0"></path><path d="m 57.838,46.680782 c -0.820403,0 -1.516689,0.311801 -2.086413,0.935405 -0.569724,0.623603 -0.854587,1.707464 -0.854587,2.59035 0,1.055328 0.273468,1.894793 0.820403,2.518396 0.546936,0.623603 1.347168,0.935404 2.119375,0.935404 0.865981,0 1.572439,-0.311801 2.119375,-0.935404 0.546935,-0.623603 0.820403,-1.597773 0.820403,-2.518396 0,-1.151267 -0.284863,-2.02671 -0.854587,-2.626328 C 59.352245,46.980592 58.656403,46.680782 57.836,46.680782" style="display:inline;stroke-width:0.701376" id="g2s0" sodipodi:nodetypes="sssssssss" inkscape:label="g2s0"></path></g></svg>