<?xml version="1.0" encoding="UTF-8" standalone="no"?>
<svg
   width="62.900002"
   height="81.199997"
   version="1.1"
   id="svg4847"
   sodipodi:docname="10_chham.svg"
   inkscape:version="1.2.1 (9c6d41e410, 2022-07-14)"
   xmlns:inkscape="http://www.inkscape.org/namespaces/inkscape"
   xmlns:sodipodi="http://sodipodi.sourceforge.net/DTD/sodipodi-0.dtd"
   xmlns="http://www.w3.org/2000/svg"
   xmlns:svg="http://www.w3.org/2000/svg">
  <defs
     id="defs4851" />
  <sodipodi:namedview
     id="namedview4849"
     pagecolor="#ffffff"
     bordercolor="#666666"
     borderopacity="1.0"
     inkscape:showpageshadow="2"
     inkscape:pageopacity="0.0"
     inkscape:pagecheckerboard="0"
     inkscape:deskcolor="#d1d1d1"
     showgrid="false"
     inkscape:zoom="1.809816"
     inkscape:cx="31.218643"
     inkscape:cy="55.806777"
     inkscape:window-width="1920"
     inkscape:window-height="1027"
     inkscape:window-x="-8"
     inkscape:window-y="-8"
     inkscape:window-maximized="1"
     inkscape:current-layer="svg4847" />
  <g
     id="g985"
     inkscape:label="g1"
     transform="translate(0,19.9)">
    <path
       d="m 26.8,61.3 v 0 Q 16.3,61.3 10.35,56.2 4.4,51.1 4.4,42.9 v 0 q 0,-8 5.6,-13 v 0 Q 5.6,27.3 2.8,23.5 0,19.7 0,14.3 v 0 Q 0,8 4.45,4 8.9,0 16.5,0 V 0 Q 21,0 25,1 V 1 L 24,5.9 Q 22.4,5.5 20.7,5.25 19,5 16.9,5 V 5 Q 11.6,5 8.5,7.55 5.4,10.1 5.4,14.5 v 0 q 0,4.2 2.25,7.2 2.25,3 6.85,5.3 v 0 q 4.3,-1.9 9.7,-1.9 v 0 q 1.7,0 3.8,0.2 v 0 l -0.6,4.9 Q 26,30 24.2,30 v 0 Q 17.9,30 13.8,33.35 9.7,36.7 9.7,42.9 v 0 q 0,6.3 4.5,9.85 4.5,3.55 12.5,3.55 v 0 q 7.3,0 13.05,-2.85 5.75,-2.85 9.7,-7.7 3.95,-4.85 6,-10.95 2.05,-6.1 2.05,-12.5 v 0 Q 57.5,13.1 54.3,9.05 51.1,5 46.6,5 V 5 Q 42.3,5 40.15,7.6 38,10.2 38,14 v 0 q 0,5.6 4.05,9 4.05,3.4 11.75,5 v 0 l -1.6,4.8 Q 46.6,31.4 42.2,29 37.8,26.6 35.25,22.85 32.7,19.1 32.7,13.7 v 0 Q 32.7,8.1 36.3,4.05 39.9,0 46.7,0 v 0 q 6.8,0 11.5,5.6 4.7,5.6 4.7,17 v 0 q 0,7.7 -2.45,14.65 Q 58,44.2 53.3,49.6 48.6,55 41.9,58.15 35.2,61.3 26.8,61.3 Z"
       id="path2"
       style="display:inline"
       inkscape:label="p1" />
    <path
       style="fill:none;stroke:#000000;stroke-width:1px;stroke-linecap:butt;stroke-linejoin:miter;stroke-opacity:1"
       d="M 24.502185,3.4719167 C 19.433112,2.4556805 13.924592,1.7310681 9.0916607,4.0528304 5.503374,5.7595595 2.8757235,9.4234387 2.7741427,13.44647 c -0.3386676,3.934354 1.0171877,7.959458 3.801729,10.786674 2.1565,2.179405 4.7506423,3.988955 7.5803783,5.157482"
       id="path365-2"
       inkscape:label="s1" />
    <path
       style="fill:none;stroke:#000000;stroke-width:1px;stroke-linecap:butt;stroke-linejoin:miter;stroke-opacity:1"
       d="m 27.694562,27.805293 c -4.195898,-0.497379 -8.477609,-0.308165 -12.324477,1.605071 -4.409071,1.924632 -7.6212083,6.245065 -8.122684,11.039641 -0.7091666,4.98732 0.716899,10.533142 4.757457,13.789109 4.622237,4.056114 11.136648,4.802301 17.052811,4.494919 C 34.992447,58.39114 40.85083,56.481308 45.656215,52.941875 52.203999,48.347832 56.678998,41.168111 58.707567,33.495043 60.302125,27.940409 60.577969,22.032052 59.807699,16.317327 59.162745,12.190705 57.611374,7.9594149 54.241869,5.2856487 50.401699,1.8746692 44.269431,1.5733466 39.985431,4.3062929 36.385164,6.7440125 34.952866,11.390264 35.4603,15.572922 c 0.311285,4.086153 2.652887,7.844304 6.040698,10.109674 3.437492,2.4588 7.534082,3.471005 11.518532,4.680685"
       id="path376-9"
       inkscape:label="s2" />
  </g>
  <g
     id="g653"
     inkscape:label="g2"
     transform="translate(20.5)">
    <path
       style="display:inline"
       d="m 33.9,9.7 v 0 Q 32.1,9.7 30.85,8.4 29.6,7.1 29.6,4.8 v 0 Q 29.6,2.6 30.8,1.3 32,0 33.9,0 v 0 q 1.9,0 3.1,1.3 1.2,1.3 1.2,3.5 v 0 q 0,2.4 -1.25,3.65 Q 35.7,9.7 33.9,9.7 Z"
       id="path644"
       inkscape:label="p2" />
    <path
       d="m 33.9375,1.3352194 c -0.820403,0 -1.515467,0.3118012 -2.085191,0.9354043 -0.569724,0.6236031 -0.854587,1.7074649 -0.854587,2.5903504 0,1.0553281 0.273468,1.8947931 0.820403,2.5183962 0.546936,0.6236031 1.347168,0.9354042 2.119375,0.9354042 0.865981,0 1.572439,-0.3118011 2.119375,-0.9354042 0.546935,-0.6236031 0.820403,-1.5977735 0.820403,-2.5183962 0,-1.1512668 -0.284863,-2.0267096 -0.854587,-2.6263275 C 35.452967,1.6350287 34.757903,1.3352194 33.9375,1.3352194 Z"
       style="display:inline;stroke-width:0.701376"
       id="path950"
       sodipodi:nodetypes="sssssssss"
       inkscape:label="s3" />
  </g>
</svg>
