<svg xmlns="http://www.w3.org/2000/svg" xmlns:xlink="http://www.w3.org/1999/xlink" width="97.1" height="130.4"><path d="M24 89.60L23.10 89.60Q20 89.60 17.50 88.95Q15 88.30 13.20 86.60L13.20 86.60Q11.30 84.90 10.50 82.40Q9.70 79.90 9.70 75.80L9.70 75.80L9.70 22.40Q9.70 15.80 11.05 11.70Q12.40 7.60 15.80 4.70L15.80 4.70Q18 2.80 21.15 1.70Q24.30 0.60 28.40 0.60L28.40 0.60Q37.50 0.60 44.75 5.85Q52 11.10 59.30 19.60L59.30 19.60L55.40 22.70Q49 15.10 42.65 10.30Q36.30 5.50 28.70 5.50L28.70 5.50Q22.80 5.50 19.40 8.40L19.40 8.40Q17 10.50 16 14Q15 17.50 15 24.10L15 24.10L15 75.50Q15 78.70 15.50 80.35Q16 82.00 17.20 82.90L17.20 82.90Q18.40 84.10 20.35 84.35Q22.30 84.60 24.60 84.60L24.60 84.60L24 89.60ZM56.80 90.60L56.80 90.60Q46.30 90.60 40.35 85.50Q34.40 80.40 34.40 72.20L34.40 72.20Q34.40 64.20 40 59.20L40 59.20Q35.60 56.60 32.80 52.80Q30 49.00 30 43.60L30 43.60Q30 37.30 34.45 33.30Q38.90 29.30 46.50 29.30L46.50 29.30Q51 29.30 55 30.30L55 30.30L54 35.20Q52.40 34.80 50.70 34.55Q49 34.30 46.90 34.30L46.90 34.30Q41.60 34.30 38.50 36.85Q35.40 39.40 35.40 43.80L35.40 43.80Q35.40 48.00 37.65 51.00Q39.90 54.00 44.50 56.30L44.50 56.30Q48.80 54.40 54.20 54.40L54.20 54.40Q55.90 54.40 58 54.60L58 54.60L57.40 59.50Q56 59.30 54.20 59.30L54.20 59.30Q47.90 59.30 43.80 62.65Q39.70 66 39.70 72.20L39.70 72.20Q39.70 78.50 44.20 82.05Q48.70 85.60 56.70 85.60L56.70 85.60Q64 85.60 69.75 82.75Q75.50 79.90 79.45 75.05Q83.40 70.20 85.45 64.10Q87.50 58.00 87.50 51.60L87.50 51.60Q87.50 42.40 84.30 38.35Q81.10 34.30 76.60 34.30L76.60 34.30Q72.30 34.30 70.15 36.90Q68 39.50 68 43.30L68 43.30Q68 48.90 72.05 52.30Q76.10 55.70 83.80 57.30L83.80 57.30L82.20 62.10Q76.60 60.70 72.20 58.30Q67.80 55.90 65.25 52.15Q62.70 48.40 62.70 43.00L62.70 43.00Q62.70 37.40 66.30 33.35Q69.90 29.30 76.70 29.30L76.70 29.30Q83.50 29.30 88.20 34.90Q92.90 40.50 92.90 51.90L92.90 51.90Q92.90 59.60 90.45 66.55Q88 73.50 83.30 78.90Q78.60 84.30 71.90 87.45Q65.20 90.60 56.80 90.60Z"/></svg>