<svg xmlns="http://www.w3.org/2000/svg" xmlns:xlink="http://www.w3.org/1999/xlink" width="97.1" height="130.4">
    <path
        d="M24 89.60L23.10 89.60Q20 89.60 17.50 88.95Q15 88.30 13.20 86.60L13.20 86.60Q11.30 84.90 10.50 82.40Q9.70 79.90 9.70 75.80L9.70 75.80L9.70 22.40Q9.70 15.80 11.05 11.70Q12.40 7.60 15.80 4.70L15.80 4.70Q18 2.80 21.15 1.70Q24.30 0.60 28.40 0.60L28.40 0.60Q37.50 0.60 44.75 5.85Q52 11.10 59.30 19.60L59.30 19.60L55.40 22.70Q49 15.10 42.65 10.30Q36.30 5.50 28.70 5.50L28.70 5.50Q22.80 5.50 19.40 8.40L19.40 8.40Q17 10.50 16 14Q15 17.50 15 24.10L15 24.10L15 75.50Q15 78.70 15.50 80.35Q16 82.00 17.20 82.90L17.20 82.90Q18.40 84.10 20.35 84.35Q22.30 84.60 24.60 84.60L24.60 84.60L24 89.60ZM56.80 90.60L56.80 90.60Q46.30 90.60 40.35 85.50Q34.40 80.40 34.40 72.20L34.40 72.20Q34.40 64.20 40 59.20L40 59.20Q35.60 56.60 32.80 52.80Q30 49.00 30 43.60L30 43.60Q30 37.30 34.45 33.30Q38.90 29.30 46.50 29.30L46.50 29.30Q51 29.30 55 30.30L55 30.30L54 35.20Q52.40 34.80 50.70 34.55Q49 34.30 46.90 34.30L46.90 34.30Q41.60 34.30 38.50 36.85Q35.40 39.40 35.40 43.80L35.40 43.80Q35.40 48.00 37.65 51.00Q39.90 54.00 44.50 56.30L44.50 56.30Q48.80 54.40 54.20 54.40L54.20 54.40Q55.90 54.40 58 54.60L58 54.60L57.40 59.50Q56 59.30 54.20 59.30L54.20 59.30Q47.90 59.30 43.80 62.65Q39.70 66 39.70 72.20L39.70 72.20Q39.70 78.50 44.20 82.05Q48.70 85.60 56.70 85.60L56.70 85.60Q64 85.60 69.75 82.75Q75.50 79.90 79.45 75.05Q83.40 70.20 85.45 64.10Q87.50 58.00 87.50 51.60L87.50 51.60Q87.50 42.40 84.30 38.35Q81.10 34.30 76.60 34.30L76.60 34.30Q72.30 34.30 70.15 36.90Q68 39.50 68 43.30L68 43.30Q68 48.90 72.05 52.30Q76.10 55.70 83.80 57.30L83.80 57.30L82.20 62.10Q76.60 60.70 72.20 58.30Q67.80 55.90 65.25 52.15Q62.70 48.40 62.70 43.00L62.70 43.00Q62.70 37.40 66.30 33.35Q69.90 29.30 76.70 29.30L76.70 29.30Q83.50 29.30 88.20 34.90Q92.90 40.50 92.90 51.90L92.90 51.90Q92.90 59.60 90.45 66.55Q88 73.50 83.30 78.90Q78.60 84.30 71.90 87.45Q65.20 90.60 56.80 90.60Z" />
      <g
     id="g309"
     inkscape:label="g2">
    <path
       style="display:inline"
       d="M 14.3,89 H 13.4 Q 10.3,89 7.8,88.35 5.3,87.7 3.5,86 v 0 Q 1.6,84.3 0.8,81.8 0,79.3 0,75.2 v 0 -53.4 Q 0,15.2 1.35,11.1 2.7,7 6.1,4.1 v 0 Q 8.3,2.2 11.45,1.1 14.6,0 18.7,0 V 0 Q 27.8,0 35.05,5.25 42.3,10.5 49.6,19 v 0 l -3.9,3.1 Q 39.3,14.5 32.95,9.7 26.6,4.9 19,4.9 v 0 q -5.9,0 -9.3,2.9 v 0 q -2.4,2.1 -3.4,5.6 -1,3.5 -1,10.1 v 0 51.4 q 0,3.2 0.5,4.85 0.5,1.65 1.7,2.55 v 0 q 1.2,1.2 3.15,1.45 Q 12.6,84 14.9,84 v 0 z"
       id="path2"
       inkscape:label="p2" />
    <path
       style="display:inline;fill:none;stroke:#000000;stroke-width:1px;stroke-linecap:butt;stroke-linejoin:miter;stroke-opacity:1"
       d="M 47.652368,20.738116 C 42.912163,15.169343 37.771996,9.7590782 31.535156,5.8554687 25.556372,2.3479405 17.925665,1.3282836 11.384063,3.8090168 7.098823,5.5445734 4.0571601,9.6376118 3.3691387,14.177325 2.2636698,19.814013 2.8760079,25.587166 2.7106596,31.290784 c 0.017146,15.362435 -0.08206,30.727062 0.00809,46.088122 0.1319749,2.783277 1.0109143,5.743286 3.4696807,7.348394 2.457118,1.869621 5.6943627,1.540296 8.5928207,1.741457"
       id="path491"
       inkscape:label="s3" /></g>
    <path style="fill:none;stroke:#000000;stroke-width:1px;stroke-linecap:butt;stroke-linejoin:miter;stroke-opacity:1"
        d="M 24.502185,3.4719167 C 19.433112,2.4556805 13.924592,1.7310681 9.0916607,4.0528304 5.503374,5.7595595 2.8757235,9.4234387 2.7741427,13.44647 c -0.3386676,3.934354 1.0171877,7.959458 3.801729,10.786674 2.1565,2.179405 4.7506423,3.988955 7.5803783,5.157482"
        id="path365" inkscape:label="s1" />
    <path style="fill:none;stroke:#000000;stroke-width:1px;stroke-linecap:butt;stroke-linejoin:miter;stroke-opacity:1"
        d="m 27.694562,27.805293 c -4.195898,-0.497379 -8.477609,-0.308165 -12.324477,1.605071 -4.409071,1.924632 -7.6212083,6.245065 -8.122684,11.039641 -0.7091666,4.98732 0.716899,10.533142 4.757457,13.789109 4.622237,4.056114 11.136648,4.802301 17.052811,4.494919 C 34.992447,58.39114 40.85083,56.481308 45.656215,52.941875 52.203999,48.347832 56.678998,41.168111 58.707567,33.495043 60.302125,27.940409 60.577969,22.032052 59.807699,16.317327 59.162745,12.190705 57.611374,7.9594149 54.241869,5.2856487 50.401699,1.8746692 44.269431,1.5733466 39.985431,4.3062929 36.385164,6.7440125 34.952866,11.390264 35.4603,15.572922 c 0.311285,4.086153 2.652887,7.844304 6.040698,10.109674 3.437492,2.4588 7.534082,3.471005 11.518532,4.680685"
        id="path376" inkscape:label="s2" />
</svg>