<svg xmlns="http://www.w3.org/2000/svg" xmlns:xlink="http://www.w3.org/1999/xlink" width="72" height="130.4">
    <path
        d="M31.70 90.60L31.70 90.60Q21.20 90.60 15.25 85.50Q9.30 80.40 9.30 72.20L9.30 72.20Q9.30 64.20 14.90 59.20L14.90 59.20Q10.50 56.60 7.70 52.80Q4.90 49.00 4.90 43.60L4.90 43.60Q4.90 37.30 9.35 33.30Q13.80 29.30 21.40 29.30L21.40 29.30Q25.90 29.30 29.90 30.30L29.90 30.30L28.90 35.20Q27.30 34.80 25.60 34.55Q23.90 34.30 21.80 34.30L21.80 34.30Q16.50 34.30 13.40 36.85Q10.30 39.40 10.30 43.80L10.30 43.80Q10.30 48.00 12.55 51.00Q14.80 54.00 19.40 56.30L19.40 56.30Q23.70 54.40 29.10 54.40L29.10 54.40Q30.80 54.40 32.90 54.60L32.90 54.60L32.30 59.50Q30.90 59.30 29.10 59.30L29.10 59.30Q22.80 59.30 18.70 62.65Q14.60 66 14.60 72.20L14.60 72.20Q14.60 78.50 19.10 82.05Q23.60 85.60 31.60 85.60L31.60 85.60Q38.90 85.60 44.65 82.75Q50.40 79.90 54.35 75.05Q58.30 70.20 60.35 64.10Q62.40 58.00 62.40 51.60L62.40 51.60Q62.40 42.40 59.20 38.35Q56 34.30 51.50 34.30L51.50 34.30Q47.20 34.30 45.05 36.90Q42.90 39.50 42.90 43.30L42.90 43.30Q42.90 48.90 46.95 52.30Q51 55.70 58.70 57.30L58.70 57.30L57.10 62.10Q51.50 60.70 47.10 58.30Q42.70 55.90 40.15 52.15Q37.60 48.40 37.60 43.00L37.60 43.00Q37.60 37.40 41.20 33.35Q44.80 29.30 51.60 29.30L51.60 29.30Q58.40 29.30 63.10 34.90Q67.80 40.50 67.80 51.90L67.80 51.90Q67.80 59.60 65.35 66.55Q62.90 73.50 58.20 78.90Q53.50 84.30 46.80 87.45Q40.10 90.60 31.70 90.60ZM54.50 116.10L54.50 116.10Q47.40 116.10 43.50 112.50Q39.60 108.90 39.60 103.00L39.60 103.00Q39.60 97.60 43.70 93.85Q47.80 90.10 55.70 90.10L55.70 90.10Q63 90.10 68.35 92.85Q73.70 95.60 77.80 99.95Q81.90 104.30 85.30 109.20L85.30 109.20L81.20 111.90Q77.50 106.80 73.85 102.95Q70.20 99.10 65.85 96.95Q61.50 94.80 55.90 94.80L55.90 94.80Q50.10 94.80 47.35 97.15Q44.60 99.50 44.60 103.10L44.60 103.10Q44.60 107.30 47.30 109.25Q50 111.20 54.20 111.20L54.20 111.20Q56.90 111.20 59.15 110.65Q61.40 110.10 63.60 109.10L63.60 109.10L65.30 113.90Q62.70 114.90 60 115.50Q57.30 116.10 54.50 116.10Z" />
    <g
     id="g459"
     inkscape:label="g2">
    <path
       style="display:inline"
       d="m 29.1,86.8 v 0 q -7.1,0 -11,-3.6 -3.9,-3.6 -3.9,-9.5 v 0 q 0,-5.4 4.1,-9.15 4.1,-3.75 12,-3.75 v 0 q 7.3,0 12.65,2.75 5.35,2.75 9.45,7.1 4.1,4.35 7.5,9.25 v 0 l -4.1,2.7 q -3.7,-5.1 -7.35,-8.95 -3.65,-3.85 -8,-6 Q 36.1,65.5 30.5,65.5 v 0 q -5.8,0 -8.55,2.35 -2.75,2.35 -2.75,5.95 v 0 q 0,4.2 2.7,6.15 2.7,1.95 6.9,1.95 v 0 q 2.7,0 4.95,-0.55 Q 36,80.8 38.2,79.8 v 0 l 1.7,4.8 q -2.6,1 -5.3,1.6 -2.7,0.6 -5.5,0.6 z"
       id="path450"
       inkscape:label="p2" />
    <path
       style="display:inline;fill:none;stroke:#000000;stroke-width:1px;stroke-linecap:butt;stroke-linejoin:miter;stroke-opacity:1"
       d="m 39.156038,82.101726 c -2.559475,0.870519 -5.086907,1.981239 -7.823193,2.132839 -3.656068,0.346073 -7.630959,0.02382 -10.710525,-2.159471 -1.994947,-1.389787 -3.307503,-3.602927 -3.721038,-5.984024 -0.524339,-2.865919 -0.09409,-6.035968 1.795561,-8.342771 1.97195,-2.740177 5.319724,-4.087889 8.589416,-4.419381 5.402628,-0.588506 11.078052,0.234292 15.808321,3.017688 4.134381,2.336077 7.55606,5.727729 10.466774,9.443934 1.484877,1.838423 2.884191,3.743963 4.305828,5.631338"
       id="path546"
       inkscape:label="s3" />
  </g>
    <path style="fill:none;stroke:#000000;stroke-width:1px;stroke-linecap:butt;stroke-linejoin:miter;stroke-opacity:1"
        d="M 24.502185,3.4719167 C 19.433112,2.4556805 13.924592,1.7310681 9.0916607,4.0528304 5.503374,5.7595595 2.8757235,9.4234387 2.7741427,13.44647 c -0.3386676,3.934354 1.0171877,7.959458 3.801729,10.786674 2.1565,2.179405 4.7506423,3.988955 7.5803783,5.157482"
        id="path365" inkscape:label="s1" />
    <path style="fill:none;stroke:#000000;stroke-width:1px;stroke-linecap:butt;stroke-linejoin:miter;stroke-opacity:1"
        d="m 27.694562,27.805293 c -4.195898,-0.497379 -8.477609,-0.308165 -12.324477,1.605071 -4.409071,1.924632 -7.6212083,6.245065 -8.122684,11.039641 -0.7091666,4.98732 0.716899,10.533142 4.757457,13.789109 4.622237,4.056114 11.136648,4.802301 17.052811,4.494919 C 34.992447,58.39114 40.85083,56.481308 45.656215,52.941875 52.203999,48.347832 56.678998,41.168111 58.707567,33.495043 60.302125,27.940409 60.577969,22.032052 59.807699,16.317327 59.162745,12.190705 57.611374,7.9594149 54.241869,5.2856487 50.401699,1.8746692 44.269431,1.5733466 39.985431,4.3062929 36.385164,6.7440125 34.952866,11.390264 35.4603,15.572922 c 0.311285,4.086153 2.652887,7.844304 6.040698,10.109674 3.437492,2.4588 7.534082,3.471005 11.518532,4.680685"
        id="path376" inkscape:label="s2" />
</svg>