<svg xmlns="http://www.w3.org/2000/svg" xmlns:xlink="http://www.w3.org/1999/xlink" width="72" height="130.4"><path d="M31.70 90.60L31.70 90.60Q21.20 90.60 15.25 85.50Q9.30 80.40 9.30 72.20L9.30 72.20Q9.30 64.20 14.90 59.20L14.90 59.20Q10.50 56.60 7.70 52.80Q4.90 49.00 4.90 43.60L4.90 43.60Q4.90 37.30 9.35 33.30Q13.80 29.30 21.40 29.30L21.40 29.30Q25.90 29.30 29.90 30.30L29.90 30.30L28.90 35.20Q27.30 34.80 25.60 34.55Q23.90 34.30 21.80 34.30L21.80 34.30Q16.50 34.30 13.40 36.85Q10.30 39.40 10.30 43.80L10.30 43.80Q10.30 48.00 12.55 51.00Q14.80 54.00 19.40 56.30L19.40 56.30Q23.70 54.40 29.10 54.40L29.10 54.40Q30.80 54.40 32.90 54.60L32.90 54.60L32.30 59.50Q30.90 59.30 29.10 59.30L29.10 59.30Q22.80 59.30 18.70 62.65Q14.60 66 14.60 72.20L14.60 72.20Q14.60 78.50 19.10 82.05Q23.60 85.60 31.60 85.60L31.60 85.60Q38.90 85.60 44.65 82.75Q50.40 79.90 54.35 75.05Q58.30 70.20 60.35 64.10Q62.40 58.00 62.40 51.60L62.40 51.60Q62.40 42.40 59.20 38.35Q56 34.30 51.50 34.30L51.50 34.30Q47.20 34.30 45.05 36.90Q42.90 39.50 42.90 43.30L42.90 43.30Q42.90 48.90 46.95 52.30Q51 55.70 58.70 57.30L58.70 57.30L57.10 62.10Q51.50 60.70 47.10 58.30Q42.70 55.90 40.15 52.15Q37.60 48.40 37.60 43.00L37.60 43.00Q37.60 37.40 41.20 33.35Q44.80 29.30 51.60 29.30L51.60 29.30Q58.40 29.30 63.10 34.90Q67.80 40.50 67.80 51.90L67.80 51.90Q67.80 59.60 65.35 66.55Q62.90 73.50 58.20 78.90Q53.50 84.30 46.80 87.45Q40.10 90.60 31.70 90.60ZM61.40 25.50L56.60 25.50Q54.40 17.90 52.40 13.40Q50.40 8.90 47.85 6.90Q45.30 4.90 41.40 4.90L41.40 4.90Q38.60 4.90 35.60 5.80L35.60 5.80L34 1.20Q36 0.60 37.95 0.30Q39.90 0 41.70 0L41.70 0Q46.40 0 49.90 2.15Q53.40 4.30 56.15 9.80Q58.90 15.30 61.40 25.50L61.40 25.50Z"/></svg>