<?xml version="1.0" encoding="UTF-8" standalone="no"?>
<svg
   width="62.900002"
   height="90.599998"
   version="1.1"
   id="svg4362"
   sodipodi:docname="7_chhai.svg"
   inkscape:version="1.2.1 (9c6d41e410, 2022-07-14)"
   xmlns:inkscape="http://www.inkscape.org/namespaces/inkscape"
   xmlns:sodipodi="http://sodipodi.sourceforge.net/DTD/sodipodi-0.dtd"
   xmlns="http://www.w3.org/2000/svg"
   xmlns:svg="http://www.w3.org/2000/svg">
  <defs
     id="defs4366" />
  <sodipodi:namedview
     id="namedview4364"
     pagecolor="#ffffff"
     bordercolor="#666666"
     borderopacity="1.0"
     inkscape:showpageshadow="2"
     inkscape:pageopacity="0.0"
     inkscape:pagecheckerboard="0"
     inkscape:deskcolor="#d1d1d1"
     showgrid="false"
     inkscape:zoom="1.809816"
     inkscape:cx="31.218643"
     inkscape:cy="65.199997"
     inkscape:window-width="1920"
     inkscape:window-height="1027"
     inkscape:window-x="-8"
     inkscape:window-y="-8"
     inkscape:window-maximized="1"
     inkscape:current-layer="svg4362" />
  <g
     id="g985"
     inkscape:label="g1"
     transform="translate(0,29.3)">
    <path
       d="m 26.8,61.3 v 0 Q 16.3,61.3 10.35,56.2 4.4,51.1 4.4,42.9 v 0 q 0,-8 5.6,-13 v 0 Q 5.6,27.3 2.8,23.5 0,19.7 0,14.3 v 0 Q 0,8 4.45,4 8.9,0 16.5,0 V 0 Q 21,0 25,1 V 1 L 24,5.9 Q 22.4,5.5 20.7,5.25 19,5 16.9,5 V 5 Q 11.6,5 8.5,7.55 5.4,10.1 5.4,14.5 v 0 q 0,4.2 2.25,7.2 2.25,3 6.85,5.3 v 0 q 4.3,-1.9 9.7,-1.9 v 0 q 1.7,0 3.8,0.2 v 0 l -0.6,4.9 Q 26,30 24.2,30 v 0 Q 17.9,30 13.8,33.35 9.7,36.7 9.7,42.9 v 0 q 0,6.3 4.5,9.85 4.5,3.55 12.5,3.55 v 0 q 7.3,0 13.05,-2.85 5.75,-2.85 9.7,-7.7 3.95,-4.85 6,-10.95 2.05,-6.1 2.05,-12.5 v 0 Q 57.5,13.1 54.3,9.05 51.1,5 46.6,5 V 5 Q 42.3,5 40.15,7.6 38,10.2 38,14 v 0 q 0,5.6 4.05,9 4.05,3.4 11.75,5 v 0 l -1.6,4.8 Q 46.6,31.4 42.2,29 37.8,26.6 35.25,22.85 32.7,19.1 32.7,13.7 v 0 Q 32.7,8.1 36.3,4.05 39.9,0 46.7,0 v 0 q 6.8,0 11.5,5.6 4.7,5.6 4.7,17 v 0 q 0,7.7 -2.45,14.65 Q 58,44.2 53.3,49.6 48.6,55 41.9,58.15 35.2,61.3 26.8,61.3 Z"
       id="path2"
       style="display:inline"
       inkscape:label="p1" />
    <path
       style="fill:none;stroke:#000000;stroke-width:1px;stroke-linecap:butt;stroke-linejoin:miter;stroke-opacity:1"
       d="M 24.502185,3.4719167 C 19.433112,2.4556805 13.924592,1.7310681 9.0916607,4.0528304 5.503374,5.7595595 2.8757235,9.4234387 2.7741427,13.44647 c -0.3386676,3.934354 1.0171877,7.959458 3.801729,10.786674 2.1565,2.179405 4.7506423,3.988955 7.5803783,5.157482"
       id="path365-1"
       inkscape:label="s1" />
    <path
       style="fill:none;stroke:#000000;stroke-width:1px;stroke-linecap:butt;stroke-linejoin:miter;stroke-opacity:1"
       d="m 27.694562,27.805293 c -4.195898,-0.497379 -8.477609,-0.308165 -12.324477,1.605071 -4.409071,1.924632 -7.6212083,6.245065 -8.122684,11.039641 -0.7091666,4.98732 0.716899,10.533142 4.757457,13.789109 4.622237,4.056114 11.136648,4.802301 17.052811,4.494919 C 34.992447,58.39114 40.85083,56.481308 45.656215,52.941875 52.203999,48.347832 56.678998,41.168111 58.707567,33.495043 60.302125,27.940409 60.577969,22.032052 59.807699,16.317327 59.162745,12.190705 57.611374,7.9594149 54.241869,5.2856487 50.401699,1.8746692 44.269431,1.5733466 39.985431,4.3062929 36.385164,6.7440125 34.952866,11.390264 35.4603,15.572922 c 0.311285,4.086153 2.652887,7.844304 6.040698,10.109674 3.437492,2.4588 7.534082,3.471005 11.518532,4.680685"
       id="path376-0"
       inkscape:label="s2" />
  </g>
  <g
     id="g522"
     inkscape:label="g2"
     transform="translate(20.5)">
    <path
       style="display:inline"
       d="M 30.8,23.7 28,26.6 Q 21.9,21.2 17.7,18.85 13.5,16.5 8.6,16.5 v 0 q -3.5,0 -6.4,0.9 v 0 L 0.7,12.7 Q 2.5,12.3 4.45,12 6.4,11.7 8.6,11.7 v 0 q 3.8,0 7.15,1.2 3.35,1.2 6.9,3.85 3.55,2.65 8.15,6.95 z"
       id="path513"
       inkscape:label="p2" />
    <path
       style="display:inline;fill:none;stroke:#000000;stroke-width:1px;stroke-linecap:butt;stroke-linejoin:miter;stroke-opacity:1"
       d="m 1.2484854,15.037068 c 2.0296352,-0.33742 4.0471341,-0.823273 6.106769,-0.926121 1.7144665,-0.03627 3.4419196,-0.0066 5.1213336,0.377952 1.626492,0.286246 3.200444,0.851561 4.696094,1.542318 3.239677,1.543111 6.000222,3.881137 8.751411,6.145612 1.177108,1.030396 2.354216,2.060791 3.531324,3.091187"
       id="path660"
       inkscape:label="s3" />
  </g>
  <g
     id="g526"
     inkscape:label="g3"
     transform="translate(20.5)">
    <path
       style="display:inline"
       d="M 36.1,25.5 H 31.7 Q 29.8,17.7 27.95,13.15 26.1,8.6 23.65,6.7 21.2,4.8 17.4,4.8 v 0 Q 16.2,4.8 14.85,5 13.5,5.2 12,5.7 v 0 L 10.5,1.1 Q 12.4,0.5 14.2,0.25 16,0 17.7,0 v 0 q 4.6,0 7.95,2.25 3.35,2.25 5.85,7.8 2.5,5.55 4.6,15.45 z"
       id="path511"
       inkscape:label="p3" />
    <path
       style="display:inline;fill:none;stroke:#000000;stroke-width:1px;stroke-linecap:butt;stroke-linejoin:miter;stroke-opacity:1"
       d="m 11.023437,3.453125 c 2.182778,-0.4976057 4.36528,-1.1946393 6.631852,-1.0710196 2.053103,-0.044291 4.123749,0.4216957 5.902797,1.4638298 1.290672,0.6572076 2.43165,1.6018918 3.277933,2.7802163 1.787546,2.2624393 2.976329,4.9290225 3.905851,7.6409995 1.112879,3.208175 2.009172,6.487831 2.71558,9.809147 0.117031,0.515091 0.234062,1.030183 0.351093,1.545274"
       id="path662"
       inkscape:label="s4" />
  </g>
</svg>
