<svg xmlns="http://www.w3.org/2000/svg" xmlns:xlink="http://www.w3.org/1999/xlink" width="72" height="130.4"><path d="M31.70 90.60L31.70 90.60Q21.20 90.60 15.25 85.50Q9.30 80.40 9.30 72.20L9.30 72.20Q9.30 64.20 14.90 59.20L14.90 59.20Q10.50 56.60 7.70 52.80Q4.90 49.00 4.90 43.60L4.90 43.60Q4.90 37.30 9.35 33.30Q13.80 29.30 21.40 29.30L21.40 29.30Q25.90 29.30 29.90 30.30L29.90 30.30L28.90 35.20Q27.30 34.80 25.60 34.55Q23.90 34.30 21.80 34.30L21.80 34.30Q16.50 34.30 13.40 36.85Q10.30 39.40 10.30 43.80L10.30 43.80Q10.30 48.00 12.55 51.00Q14.80 54.00 19.40 56.30L19.40 56.30Q23.70 54.40 29.10 54.40L29.10 54.40Q30.80 54.40 32.90 54.60L32.90 54.60L32.30 59.50Q30.90 59.30 29.10 59.30L29.10 59.30Q22.80 59.30 18.70 62.65Q14.60 66 14.60 72.20L14.60 72.20Q14.60 78.50 19.10 82.05Q23.60 85.60 31.60 85.60L31.60 85.60Q38.90 85.60 44.65 82.75Q50.40 79.90 54.35 75.05Q58.30 70.20 60.35 64.10Q62.40 58.00 62.40 51.60L62.40 51.60Q62.40 42.40 59.20 38.35Q56 34.30 51.50 34.30L51.50 34.30Q47.20 34.30 45.05 36.90Q42.90 39.50 42.90 43.30L42.90 43.30Q42.90 48.90 46.95 52.30Q51 55.70 58.70 57.30L58.70 57.30L57.10 62.10Q51.50 60.70 47.10 58.30Q42.70 55.90 40.15 52.15Q37.60 48.40 37.60 43.00L37.60 43.00Q37.60 37.40 41.20 33.35Q44.80 29.30 51.60 29.30L51.60 29.30Q58.40 29.30 63.10 34.90Q67.80 40.50 67.80 51.90L67.80 51.90Q67.80 59.60 65.35 66.55Q62.90 73.50 58.20 78.90Q53.50 84.30 46.80 87.45Q40.10 90.60 31.70 90.60ZM61.50 25.50L57.10 25.50Q55.20 17.70 53.35 13.15Q51.50 8.60 49.05 6.70Q46.60 4.80 42.80 4.80L42.80 4.80Q41.60 4.80 40.25 5Q38.90 5.20 37.40 5.70L37.40 5.70L35.90 1.10Q37.80 0.50 39.60 0.25Q41.40 0 43.10 0L43.10 0Q47.70 0 51.05 2.25Q54.40 4.50 56.90 10.05Q59.40 15.60 61.50 25.50L61.50 25.50ZM56.20 23.70L53.40 26.60Q47.30 21.20 43.10 18.85Q38.90 16.50 34 16.50L34 16.50Q30.50 16.50 27.60 17.40L27.60 17.40L26.10 12.70Q27.90 12.30 29.85 12Q31.80 11.70 34 11.70L34 11.70Q37.80 11.70 41.15 12.90Q44.50 14.10 48.05 16.75Q51.60 19.40 56.20 23.70L56.20 23.70Z"/></svg>