<svg xmlns="http://www.w3.org/2000/svg" xmlns:xlink="http://www.w3.org/1999/xlink" width="97.1" height="130.4">
    <path
        d="M31.70 90.60L31.70 90.60Q21.20 90.60 15.25 85.50Q9.30 80.40 9.30 72.20L9.30 72.20Q9.30 64.20 14.90 59.20L14.90 59.20Q10.50 56.60 7.70 52.80Q4.90 49.00 4.90 43.60L4.90 43.60Q4.90 37.30 9.35 33.30Q13.80 29.30 21.40 29.30L21.40 29.30Q25.90 29.30 29.90 30.30L29.90 30.30L28.90 35.20Q27.30 34.80 25.60 34.55Q23.90 34.30 21.80 34.30L21.80 34.30Q16.50 34.30 13.40 36.85Q10.30 39.40 10.30 43.80L10.30 43.80Q10.30 48.00 12.55 51.00Q14.80 54.00 19.40 56.30L19.40 56.30Q23.70 54.40 29.10 54.40L29.10 54.40Q30.80 54.40 32.90 54.60L32.90 54.60L32.30 59.50Q30.90 59.30 29.10 59.30L29.10 59.30Q22.80 59.30 18.70 62.65Q14.60 66 14.60 72.20L14.60 72.20Q14.60 78.50 19.10 82.05Q23.60 85.60 31.60 85.60L31.60 85.60Q38.90 85.60 44.65 82.75Q50.40 79.90 54.35 75.05Q58.30 70.20 60.35 64.10Q62.40 58.00 62.40 51.60L62.40 51.60Q62.40 42.40 59.20 38.35Q56 34.30 51.50 34.30L51.50 34.30Q47.20 34.30 45.05 36.90Q42.90 39.50 42.90 43.30L42.90 43.30Q42.90 48.90 46.95 52.30Q51 55.70 58.70 57.30L58.70 57.30L57.10 62.10Q51.50 60.70 47.10 58.30Q42.70 55.90 40.15 52.15Q37.60 48.40 37.60 43.00L37.60 43.00Q37.60 37.40 41.20 33.35Q44.80 29.30 51.60 29.30L51.60 29.30Q58.40 29.30 63.10 34.90Q67.80 40.50 67.80 51.90L67.80 51.90Q67.80 59.60 65.35 66.55Q62.90 73.50 58.20 78.90Q53.50 84.30 46.80 87.45Q40.10 90.60 31.70 90.60ZM96.10 89.60L95.10 89.60Q88.50 89.60 85.20 86.60L85.20 86.60Q83.40 85.00 82.55 82.50Q81.70 80 81.70 75.80L81.70 75.80L81.70 29.30L87 30.00L87 75.50Q87 78.80 87.50 80.40Q88 82.00 89.30 83.00L89.30 83.00Q90.50 84.10 92.35 84.35Q94.20 84.60 96.60 84.60L96.60 84.60L96.10 89.60ZM86.50 25.50L81.70 25.50Q79.50 17.90 77.50 13.40Q75.50 8.90 72.95 6.90Q70.40 4.90 66.50 4.90L66.50 4.90Q63.70 4.90 60.70 5.80L60.70 5.80L59.10 1.20Q61.10 0.60 63.05 0.30Q65 0 66.80 0L66.80 0Q71.50 0 75 2.15Q78.50 4.30 81.25 9.80Q84 15.30 86.50 25.50L86.50 25.50Z" />
      <g
     id="g562"
     inkscape:label="g2">
    <path
       style="display:inline"
       d="m 70.7,89.6 h -1 q -6.6,0 -9.9,-3 v 0 Q 58,85 57.15,82.5 56.3,80 56.3,75.8 v 0 -46.5 l 5.3,0.7 v 45.5 q 0,3.3 0.5,4.9 0.5,1.6 1.8,2.6 v 0 q 1.2,1.1 3.05,1.35 1.85,0.25 4.25,0.25 v 0 z"
       id="path551"
       inkscape:label="p2" />
    <path
       style="display:inline;fill:none;stroke:#000000;stroke-width:1px;stroke-linecap:butt;stroke-linejoin:miter;stroke-opacity:1"
       d="m 58.92722,29.304293 c 0.0052,15.660703 -0.0419,31.322813 -0.004,46.982637 0.07316,2.661925 0.300704,5.531206 2.06529,7.674603 1.94562,2.285428 5.076187,2.956219 7.950186,3.001875 0.734456,0.05113 1.468913,0.102253 2.203369,0.15338"
       id="path81"
       inkscape:label="s3" />
  </g>
  <g
     id="g566"
     inkscape:label="g3">
    <path
       style="display:inline"
       d="M 61.1,25.5 H 56.3 Q 54.1,17.9 52.1,13.4 50.1,8.9 47.55,6.9 45,4.9 41.1,4.9 v 0 q -2.8,0 -5.8,0.9 v 0 L 33.7,1.2 Q 35.7,0.6 37.65,0.3 39.6,0 41.4,0 v 0 q 4.7,0 8.2,2.15 3.5,2.15 6.25,7.65 2.75,5.5 5.25,15.7 z"
       id="path553"
       inkscape:label="p3" />
    <path
       style="display:inline;fill:none;stroke:#000000;stroke-width:1px;stroke-linecap:butt;stroke-linejoin:miter;stroke-opacity:1"
       d="m 34.390625,3.625 c 2.407735,-0.5487371 4.818668,-1.2842266 7.316349,-1.1718755 2.367913,0.061684 4.769179,0.644832 6.746194,1.9883103 2.283908,1.5216174 3.856335,3.867577 5.081293,6.2795292 0.985525,1.850814 1.702889,3.830646 2.400769,5.803765 1.025962,2.981686 1.857827,6.023718 2.740551,9.04949"
       id="path814"
       inkscape:label="s4" />
  </g>
    <path style="fill:none;stroke:#000000;stroke-width:1px;stroke-linecap:butt;stroke-linejoin:miter;stroke-opacity:1"
        d="M 24.502185,3.4719167 C 19.433112,2.4556805 13.924592,1.7310681 9.0916607,4.0528304 5.503374,5.7595595 2.8757235,9.4234387 2.7741427,13.44647 c -0.3386676,3.934354 1.0171877,7.959458 3.801729,10.786674 2.1565,2.179405 4.7506423,3.988955 7.5803783,5.157482"
        id="path365" inkscape:label="s1" />
    <path style="fill:none;stroke:#000000;stroke-width:1px;stroke-linecap:butt;stroke-linejoin:miter;stroke-opacity:1"
        d="m 27.694562,27.805293 c -4.195898,-0.497379 -8.477609,-0.308165 -12.324477,1.605071 -4.409071,1.924632 -7.6212083,6.245065 -8.122684,11.039641 -0.7091666,4.98732 0.716899,10.533142 4.757457,13.789109 4.622237,4.056114 11.136648,4.802301 17.052811,4.494919 C 34.992447,58.39114 40.85083,56.481308 45.656215,52.941875 52.203999,48.347832 56.678998,41.168111 58.707567,33.495043 60.302125,27.940409 60.577969,22.032052 59.807699,16.317327 59.162745,12.190705 57.611374,7.9594149 54.241869,5.2856487 50.401699,1.8746692 44.269431,1.5733466 39.985431,4.3062929 36.385164,6.7440125 34.952866,11.390264 35.4603,15.572922 c 0.311285,4.086153 2.652887,7.844304 6.040698,10.109674 3.437492,2.4588 7.534082,3.471005 11.518532,4.680685"
        id="path376" inkscape:label="s2" />
</svg>