<?xml version="1.0" encoding="UTF-8" standalone="no"?>
<svg
   width="60.900002"
   height="60.299999"
   version="1.1"
   id="svg4"
   sodipodi:docname="0_sh.svg"
   inkscape:version="1.2.1 (9c6d41e410, 2022-07-14)"
   xmlns:inkscape="http://www.inkscape.org/namespaces/inkscape"
   xmlns:sodipodi="http://sodipodi.sourceforge.net/DTD/sodipodi-0.dtd"
   xmlns="http://www.w3.org/2000/svg"
   xmlns:svg="http://www.w3.org/2000/svg">
  <defs
     id="defs8" />
  <sodipodi:namedview
     id="namedview6"
     pagecolor="#ffffff"
     bordercolor="#666666"
     borderopacity="1.0"
     inkscape:showpageshadow="2"
     inkscape:pageopacity="0.0"
     inkscape:pagecheckerboard="0"
     inkscape:deskcolor="#d1d1d1"
     showgrid="false"
     inkscape:zoom="11.313709"
     inkscape:cx="55.552074"
     inkscape:cy="28.372658"
     inkscape:window-width="1920"
     inkscape:window-height="1027"
     inkscape:window-x="-8"
     inkscape:window-y="-8"
     inkscape:window-maximized="1"
     inkscape:current-layer="svg4" />
  <path
     d="m 60.3,60.3 h -0.9 q -6.7,0 -9.9,-3 v 0 q -1.8,-1.6 -2.7,-4.1 -0.9,-2.5 -0.9,-6.7 v 0 V 0 l 5.4,0.8 v 45.4 q 0,3.2 0.5,4.8 0.5,1.6 1.7,2.6 v 0 q 1.1,1.2 3.1,1.45 2,0.25 4.3,0.25 v 0 z m -24.8,0 h -1.3 q -4.7,0 -8.75,-2.55 Q 21.4,55.2 17.7,50.85 14,46.5 10.6,41.1 v 0 q -1.1,0 -2.2,0 v 0 Q 0,41.1 0,36 v 0 Q 0,34 1.35,32.95 2.7,31.9 5,31.9 v 0 q 2.1,0 4.2,0.85 2.1,0.85 4.3,2.95 v 0 q 7.4,-1.5 11.6,-6 4.2,-4.5 4.2,-11.3 v 0 Q 29.3,11.8 25.75,8.35 22.2,4.9 17.2,4.9 v 0 Q 13,4.9 10.85,6.95 8.7,9 8.7,11.8 v 0 q 0,3.9 3.1,6.3 3.1,2.4 10.2,3.6 v 0 l -1.7,4.6 Q 12,24.7 7.75,21.15 3.5,17.6 3.5,11.7 v 0 Q 3.5,7 7.05,3.55 10.6,0.1 17.3,0.1 v 0 q 4.8,0 8.75,2.2 3.95,2.2 6.3,6.35 2.35,4.15 2.35,9.95 v 0 q 0,8.2 -5.2,14 -5.2,5.8 -13.6,7.7 v 0 q 4.9,7.3 9.25,11.1 4.35,3.8 9.55,3.8 v 0 h 1.5 z"
     id="path2"
     inkscape:label="p1" />
  <path
     style="fill:none;stroke:#000000;stroke-width:1px;stroke-linecap:butt;stroke-linejoin:miter;stroke-opacity:1"
     d="M 21.169279,23.897457 C 16.348509,22.85085 10.855438,21.741044 7.785469,17.48461 4.9425766,13.462932 5.7242374,7.2185884 9.9272526,4.435408 13.952145,1.8660776 19.33229,1.959337 23.606979,3.8522663 c 4.997669,2.1437301 8.010647,7.3889087 8.336504,12.6880407 0.563712,5.812178 -1.423108,11.925581 -5.86706,15.838151 -3.597614,3.297757 -8.340495,5.297217 -13.157176,5.892506 -3.2010361,0.395509 -6.6240242,0.615546 -9.6533211,-0.699385 -2.38687415,-2.231977 1.2444407,-3.683351 3.4340699,-2.880156 2.1784064,0.799079 4.2810362,1.763894 5.3590682,3.823093 2.629253,4.71814 5.850387,9.116628 9.603261,13.004582 3.182871,3.23382 7.226778,5.957229 11.906309,6.145694 0.754657,0.07719 1.512998,0.105787 2.267306,0.186733"
     id="path392"
     inkscape:label="s1"
     sodipodi:nodetypes="ccccccccssssc" />
  <path
     style="fill:none;stroke:#000000;stroke-width:1px;stroke-linecap:butt;stroke-linejoin:miter;stroke-opacity:1"
     d="m 48.605191,0.00552427 c 0.0055,15.79368673 -0.02606,31.58261373 0.01992,47.37582273 0.07349,2.855345 0.530731,6.038743 2.819453,8.013369 2.080118,2.013323 5.131616,2.216371 7.870261,2.305404 0.523959,0.03095 1.047919,0.06189 1.571878,0.09284"
     id="path394"
     sodipodi:nodetypes="ccccc"
     inkscape:label="s2" />
</svg>
