<?xml version="1.0" encoding="UTF-8" standalone="no"?>
<svg
   width="60.900002"
   height="60.299999"
   version="1.1"
   id="svg4"
   sodipodi:docname="0_sh.svg"
   inkscape:version="1.2.1 (9c6d41e410, 2022-07-14)"
   xmlns:inkscape="http://www.inkscape.org/namespaces/inkscape"
   xmlns:sodipodi="http://sodipodi.sourceforge.net/DTD/sodipodi-0.dtd"
   xmlns="http://www.w3.org/2000/svg"
   xmlns:svg="http://www.w3.org/2000/svg">
  <defs
     id="defs8" />
  <sodipodi:namedview
     id="namedview6"
     pagecolor="#ffffff"
     bordercolor="#666666"
     borderopacity="1.0"
     inkscape:showpageshadow="2"
     inkscape:pageopacity="0.0"
     inkscape:pagecheckerboard="0"
     inkscape:deskcolor="#d1d1d1"
     showgrid="false"
     inkscape:zoom="11.313709"
     inkscape:cx="57.319843"
     inkscape:cy="31.02431"
     inkscape:window-width="1920"
     inkscape:window-height="1027"
     inkscape:window-x="-8"
     inkscape:window-y="-8"
     inkscape:window-maximized="1"
     inkscape:current-layer="svg4" />
  <path
     style="fill:none;stroke:#000000;stroke-width:1px;stroke-linecap:butt;stroke-linejoin:miter;stroke-opacity:1"
     d="m 48.605191,0.00552427 c 0.0055,15.79368673 -0.02606,31.58261373 0.01992,47.37582273 0.07349,2.855345 0.530731,6.038743 2.819453,8.013369 2.080118,2.013323 5.131616,2.216371 7.870261,2.305404 0.523959,0.03095 1.047919,0.06189 1.571878,0.09284"
     id="path394"
     sodipodi:nodetypes="ccccc"
     inkscape:label="s2" />
  <path
     style="fill:none;stroke:#000000;stroke-width:1px;stroke-linecap:butt;stroke-linejoin:miter;stroke-opacity:1"
     d="M 21.169279,23.897457 C 16.991159,22.989341 12.521244,22.079741 9.2367833,19.145794 5.6941828,16.001925 4.9591347,10.034943 7.9880454,6.2977292 10.192318,3.3273904 14.094726,2.3873254 17.621819,2.5019523 c 5.078442,0.027479 10.095905,2.8632861 12.457205,7.4092746 2.137303,4.1199741 2.382619,9.0508111 1.355904,13.5202821 -1.238437,5.285795 -5.131296,9.652558 -9.877025,12.137603 -2.513565,1.289997 -5.243104,2.184752 -8.020616,2.672857 -1.730919,0.05452 -2.625177,-1.692991 -4.0447821,-2.382834 -1.7143705,-1.143382 -3.938809,-1.669626 -5.961414,-1.204371 -1.0795315,0.302469 -0.9764072,1.776055 -0.4940489,2.520359 1.704827,1.28347 4.0153941,1.195186 6.0579159,1.261108 1.2484321,0.0062 2.8300801,-0.199432 3.5653391,1.076466 0.871723,1.474417 1.680086,2.990231 2.726717,4.359763 3.335351,4.569391 6.938641,9.238026 11.958285,12.05011 2.358305,1.324842 5.061944,1.702875 7.721347,1.857555 0.256431,0.0238 0.512863,0.0476 0.769294,0.0714"
     id="path392"
     inkscape:label="s1" />
  <path
     d="m 60.3,60.3 h -0.9 q -6.7,0 -9.9,-3 v 0 q -1.8,-1.6 -2.7,-4.1 -0.9,-2.5 -0.9,-6.7 v 0 V 0 l 5.4,0.8 v 45.4 q 0,3.2 0.5,4.8 0.5,1.6 1.7,2.6 v 0 q 1.1,1.2 3.1,1.45 2,0.25 4.3,0.25 v 0 z m -24.8,0 h -1.3 q -4.7,0 -8.75,-2.55 Q 21.4,55.2 17.7,50.85 14,46.5 10.6,41.1 v 0 q -1.1,0 -2.2,0 v 0 Q 0,41.1 0,36 v 0 Q 0,34 1.35,32.95 2.7,31.9 5,31.9 v 0 q 2.1,0 4.2,0.85 2.1,0.85 4.3,2.95 v 0 q 7.4,-1.5 11.6,-6 4.2,-4.5 4.2,-11.3 v 0 Q 29.3,11.8 25.75,8.35 22.2,4.9 17.2,4.9 v 0 Q 13,4.9 10.85,6.95 8.7,9 8.7,11.8 v 0 q 0,3.9 3.1,6.3 3.1,2.4 10.2,3.6 v 0 l -1.7,4.6 Q 12,24.7 7.75,21.15 3.5,17.6 3.5,11.7 v 0 Q 3.5,7 7.05,3.55 10.6,0.1 17.3,0.1 v 0 q 4.8,0 8.75,2.2 3.95,2.2 6.3,6.35 2.35,4.15 2.35,9.95 v 0 q 0,8.2 -5.2,14 -5.2,5.8 -13.6,7.7 v 0 q 4.9,7.3 9.25,11.1 4.35,3.8 9.55,3.8 v 0 h 1.5 z"
     id="path2"
     inkscape:label="p1" />
</svg>
