<svg xmlns="http://www.w3.org/2000/svg" xmlns:xlink="http://www.w3.org/1999/xlink" width="64.9" height="130.4">
    <path
        d="M63.80 89.60L62.90 89.60Q56.20 89.60 53 86.60L53 86.60Q51.20 85.00 50.30 82.50Q49.40 80 49.40 75.80L49.40 75.80L49.40 29.30L54.80 30.10L54.80 75.50Q54.80 78.70 55.30 80.30Q55.80 81.90 57 82.90L57 82.90Q58.10 84.10 60.10 84.35Q62.10 84.60 64.40 84.60L64.40 84.60L63.80 89.60ZM39 89.60L37.70 89.60Q33 89.60 28.95 87.05Q24.90 84.50 21.20 80.15Q17.50 75.80 14.10 70.40L14.10 70.40Q13 70.40 11.90 70.40L11.90 70.40Q3.50 70.40 3.50 65.30L3.50 65.30Q3.50 63.30 4.85 62.25Q6.20 61.20 8.50 61.20L8.50 61.20Q10.60 61.20 12.70 62.05Q14.80 62.90 17 65L17 65Q24.40 63.50 28.60 59.00Q32.80 54.50 32.80 47.70L32.80 47.70Q32.80 41.10 29.25 37.65Q25.70 34.20 20.70 34.20L20.70 34.20Q16.50 34.20 14.35 36.25Q12.20 38.30 12.20 41.10L12.20 41.10Q12.20 45.00 15.30 47.40Q18.40 49.80 25.50 51.00L25.50 51.00L23.80 55.60Q15.50 54.00 11.25 50.45Q7 46.90 7 41.00L7 41.00Q7 36.30 10.55 32.85Q14.10 29.40 20.80 29.40L20.80 29.40Q25.60 29.40 29.55 31.60Q33.50 33.80 35.85 37.95Q38.20 42.10 38.20 47.90L38.20 47.90Q38.20 56.10 33 61.90Q27.80 67.70 19.40 69.60L19.40 69.60Q24.30 76.90 28.65 80.70Q33 84.50 38.20 84.50L38.20 84.50L39.70 84.50L39 89.60ZM52.20 19.10L52.20 19.10Q50.40 19.10 49.15 17.80Q47.90 16.50 47.90 14.20L47.90 14.20Q47.90 12 49.10 10.70Q50.30 9.40 52.20 9.40L52.20 9.40Q54.10 9.40 55.30 10.70Q56.50 12 56.50 14.20L56.50 14.20Q56.50 16.60 55.25 17.85Q54.00 19.10 52.20 19.10Z" />
      <g
     id="g653"
     inkscape:label="g2">
    <path
       style="display:inline"
       d="m 33.9,9.7 v 0 Q 32.1,9.7 30.85,8.4 29.6,7.1 29.6,4.8 v 0 Q 29.6,2.6 30.8,1.3 32,0 33.9,0 v 0 q 1.9,0 3.1,1.3 1.2,1.3 1.2,3.5 v 0 q 0,2.4 -1.25,3.65 Q 35.7,9.7 33.9,9.7 Z"
       id="path644"
       inkscape:label="p2" />
    <path
       d="m 33.9375,1.3352194 c -0.820403,0 -1.515467,0.3118012 -2.085191,0.9354043 -0.569724,0.6236031 -0.854587,1.7074649 -0.854587,2.5903504 0,1.0553281 0.273468,1.8947931 0.820403,2.5183962 0.546936,0.6236031 1.347168,0.9354042 2.119375,0.9354042 0.865981,0 1.572439,-0.3118011 2.119375,-0.9354042 0.546935,-0.6236031 0.820403,-1.5977735 0.820403,-2.5183962 0,-1.1512668 -0.284863,-2.0267096 -0.854587,-2.6263275 C 35.452967,1.6350287 34.757903,1.3352194 33.9375,1.3352194 Z"
       style="display:inline;stroke-width:0.701376"
       id="path950"
       sodipodi:nodetypes="sssssssss"
       inkscape:label="s3" />
  </g>
    <path style="fill:none;stroke:#000000;stroke-width:1px;stroke-linecap:butt;stroke-linejoin:miter;stroke-opacity:1"
        d="M 21.169279,23.897457 C 16.348509,22.85085 10.855438,21.741044 7.785469,17.48461 4.9425766,13.462932 5.7242374,7.2185884 9.9272526,4.435408 13.952145,1.8660776 19.33229,1.959337 23.606979,3.8522663 c 4.997669,2.1437301 8.010647,7.3889087 8.336504,12.6880407 0.563712,5.812178 -1.423108,11.925581 -5.86706,15.838151 -3.597614,3.297757 -8.340495,5.297217 -13.157176,5.892506 -3.2010361,0.395509 -6.6240242,0.615546 -9.6533211,-0.699385 -2.38687415,-2.231977 1.2444407,-3.683351 3.4340699,-2.880156 2.1784064,0.799079 4.2810362,1.763894 5.3590682,3.823093 2.629253,4.71814 5.850387,9.116628 9.603261,13.004582 3.182871,3.23382 7.226778,5.957229 11.906309,6.145694 0.754657,0.07719 1.512998,0.105787 2.267306,0.186733"
        id="path392" inkscape:label="s1" sodipodi:nodetypes="ccccccccssssc" />
    <path style="fill:none;stroke:#000000;stroke-width:1px;stroke-linecap:butt;stroke-linejoin:miter;stroke-opacity:1"
        d="m 48.605191,0.00552427 c 0.0055,15.79368673 -0.02606,31.58261373 0.01992,47.37582273 0.07349,2.855345 0.530731,6.038743 2.819453,8.013369 2.080118,2.013323 5.131616,2.216371 7.870261,2.305404 0.523959,0.03095 1.047919,0.06189 1.571878,0.09284"
        id="path394" sodipodi:nodetypes="ccccc" inkscape:label="s2" />
</svg>