<svg xmlns="http://www.w3.org/2000/svg" xmlns:xlink="http://www.w3.org/1999/xlink" width="87.30000000000001" height="130.4"><path d="M63.80 89.60L62.90 89.60Q56.20 89.60 53 86.60L53 86.60Q51.20 85.00 50.30 82.50Q49.40 80 49.40 75.80L49.40 75.80L49.40 29.30L54.80 30.10L54.80 75.50Q54.80 78.70 55.30 80.30Q55.80 81.90 57 82.90L57 82.90Q58.10 84.10 60.10 84.35Q62.10 84.60 64.40 84.60L64.40 84.60L63.80 89.60ZM39 89.60L37.70 89.60Q33 89.60 28.95 87.05Q24.90 84.50 21.20 80.15Q17.50 75.80 14.10 70.40L14.10 70.40Q13 70.40 11.90 70.40L11.90 70.40Q3.50 70.40 3.50 65.30L3.50 65.30Q3.50 63.30 4.85 62.25Q6.20 61.20 8.50 61.20L8.50 61.20Q10.60 61.20 12.70 62.05Q14.80 62.90 17 65L17 65Q24.40 63.50 28.60 59.00Q32.80 54.50 32.80 47.70L32.80 47.70Q32.80 41.10 29.25 37.65Q25.70 34.20 20.70 34.20L20.70 34.20Q16.50 34.20 14.35 36.25Q12.20 38.30 12.20 41.10L12.20 41.10Q12.20 45.00 15.30 47.40Q18.40 49.80 25.50 51.00L25.50 51.00L23.80 55.60Q15.50 54.00 11.25 50.45Q7 46.90 7 41.00L7 41.00Q7 36.30 10.55 32.85Q14.10 29.40 20.80 29.40L20.80 29.40Q25.60 29.40 29.55 31.60Q33.50 33.80 35.85 37.95Q38.20 42.10 38.20 47.90L38.20 47.90Q38.20 56.10 33 61.90Q27.80 67.70 19.40 69.60L19.40 69.60Q24.30 76.90 28.65 80.70Q33 84.50 38.20 84.50L38.20 84.50L39.70 84.50L39 89.60ZM76.10 51.30L76.10 51.30Q74.30 51.30 72.90 49.95Q71.50 48.60 71.50 46.20L71.50 46.20Q71.50 43.80 72.85 42.45Q74.20 41.10 76.10 41.10L76.10 41.10Q78.10 41.10 79.40 42.45Q80.70 43.80 80.70 46.20L80.70 46.20Q80.70 48.70 79.35 50.00Q78 51.30 76.10 51.30ZM76.10 84.60L76.10 84.60Q74.30 84.60 72.90 83.25Q71.50 81.90 71.50 79.50L71.50 79.50Q71.50 77.10 72.85 75.75Q74.20 74.40 76.10 74.40L76.10 74.40Q78.10 74.40 79.40 75.75Q80.70 77.10 80.70 79.50L80.70 79.50Q80.70 82.00 79.35 83.30Q78 84.60 76.10 84.60Z"/></svg>