<svg xmlns="http://www.w3.org/2000/svg" xmlns:xlink="http://www.w3.org/1999/xlink" width="90" height="130.4"><path d="M24 89.60L23.10 89.60Q20 89.60 17.50 88.95Q15 88.30 13.20 86.60L13.20 86.60Q11.30 84.90 10.50 82.40Q9.70 79.90 9.70 75.80L9.70 75.80L9.70 22.40Q9.70 15.80 11.05 11.70Q12.40 7.60 15.80 4.70L15.80 4.70Q18 2.80 21.15 1.70Q24.30 0.60 28.40 0.60L28.40 0.60Q37.50 0.60 44.75 5.85Q52 11.10 59.30 19.60L59.30 19.60L55.40 22.70Q49 15.10 42.65 10.30Q36.30 5.50 28.70 5.50L28.70 5.50Q22.80 5.50 19.40 8.40L19.40 8.40Q17 10.50 16 14Q15 17.50 15 24.10L15 24.10L15 75.50Q15 78.70 15.50 80.35Q16 82.00 17.20 82.90L17.20 82.90Q18.40 84.10 20.35 84.35Q22.30 84.60 24.60 84.60L24.60 84.60L24 89.60ZM88.90 89.60L88 89.60Q81.30 89.60 78.10 86.60L78.10 86.60Q76.30 85.00 75.40 82.50Q74.50 80 74.50 75.80L74.50 75.80L74.50 29.30L79.90 30.10L79.90 75.50Q79.90 78.70 80.40 80.30Q80.90 81.90 82.10 82.90L82.10 82.90Q83.20 84.10 85.20 84.35Q87.20 84.60 89.50 84.60L89.50 84.60L88.90 89.60ZM64.10 89.60L62.80 89.60Q58.10 89.60 54.05 87.05Q50 84.50 46.30 80.15Q42.60 75.80 39.20 70.40L39.20 70.40Q38.10 70.40 37 70.40L37 70.40Q28.60 70.40 28.60 65.30L28.60 65.30Q28.60 63.30 29.95 62.25Q31.30 61.20 33.60 61.20L33.60 61.20Q35.70 61.20 37.80 62.05Q39.90 62.90 42.10 65L42.10 65Q49.50 63.50 53.70 59.00Q57.90 54.50 57.90 47.70L57.90 47.70Q57.90 41.10 54.35 37.65Q50.80 34.20 45.80 34.20L45.80 34.20Q41.60 34.20 39.45 36.25Q37.30 38.30 37.30 41.10L37.30 41.10Q37.30 45.00 40.40 47.40Q43.50 49.80 50.60 51.00L50.60 51.00L48.90 55.60Q40.60 54.00 36.35 50.45Q32.10 46.90 32.10 41.00L32.10 41.00Q32.10 36.30 35.65 32.85Q39.20 29.40 45.90 29.40L45.90 29.40Q50.70 29.40 54.65 31.60Q58.60 33.80 60.95 37.95Q63.30 42.10 63.30 47.90L63.30 47.90Q63.30 56.10 58.10 61.90Q52.90 67.70 44.50 69.60L44.50 69.60Q49.40 76.90 53.75 80.70Q58.10 84.50 63.30 84.50L63.30 84.50L64.80 84.50L64.10 89.60Z"/></svg>