<?xml version="1.0" encoding="UTF-8" standalone="no"?>
<svg
   width="79.800003"
   height="89"
   version="1.1"
   id="svg285"
   sodipodi:docname="2_shi.svg"
   inkscape:version="1.2.1 (9c6d41e410, 2022-07-14)"
   xmlns:inkscape="http://www.inkscape.org/namespaces/inkscape"
   xmlns:sodipodi="http://sodipodi.sourceforge.net/DTD/sodipodi-0.dtd"
   xmlns="http://www.w3.org/2000/svg"
   xmlns:svg="http://www.w3.org/2000/svg">
  <defs
     id="defs289" />
  <sodipodi:namedview
     id="namedview287"
     pagecolor="#ffffff"
     bordercolor="#666666"
     borderopacity="1.0"
     inkscape:showpageshadow="2"
     inkscape:pageopacity="0.0"
     inkscape:pagecheckerboard="0"
     inkscape:deskcolor="#d1d1d1"
     showgrid="false"
     inkscape:zoom="2.5594664"
     inkscape:cx="37.312465"
     inkscape:cy="73.062104"
     inkscape:window-width="1920"
     inkscape:window-height="1027"
     inkscape:window-x="-8"
     inkscape:window-y="-8"
     inkscape:window-maximized="1"
     inkscape:current-layer="svg285" />
  <g
     id="g115"
     inkscape:label="g1"
     transform="matrix(0.99973425,0,0,1,18.9,28.7)">
    <path
       d="M 60.316029,60.3 H 59.41579 q -6.701781,0 -9.902632,-3 v 0 Q 47.71268,55.7 46.81244,53.2 45.912201,50.7 45.912201,46.5 v 0 V 0 l 5.401436,0.8 v 45.4 q 0,3.2 0.500133,4.8 0.500132,1.6 1.700451,2.6 v 0 q 1.100293,1.2 3.100824,1.45 2.000532,0.25 4.301143,0.25 v 0 z m -24.806592,0 h -1.300346 q -4.701249,0 -8.752326,-2.55 -4.051076,-2.55 -7.75206,-6.9 -3.700984,-4.35 -7.101887,-9.75 v 0 q -1.1002927,0 -2.2005851,0 v 0 Q 0,41.1 0,36 v 0 Q 0,34 1.3503589,32.95 2.7007177,31.9 5.0013291,31.9 v 0 q 2.1005582,0 4.2011164,0.85 2.1005585,0.85 4.3011435,2.95 v 0 q 7.401967,-1.5 11.603083,-6 4.201117,-4.5 4.201117,-11.3 v 0 q 0,-6.6 -3.550944,-10.05 Q 22.205901,4.9 17.204572,4.9 v 0 Q 13.003456,4.9 10.852884,6.95 8.7023126,9 8.7023126,11.8 v 0 q 0,3.9 3.1008244,6.3 3.100824,2.4 10.202711,3.6 v 0 l -1.700452,4.6 Q 12.00319,24.7 7.7520601,21.15 3.5009304,17.6 3.5009304,11.7 v 0 q 0,-4.7 3.5509436,-8.15 Q 10.602818,0.1 17.304599,0.1 v 0 q 4.801276,0 8.752326,2.2 3.95105,2.2 6.301674,6.35 2.350625,4.15 2.350625,9.95 v 0 q 0,8.2 -5.201382,14 -5.201383,5.8 -13.603615,7.7 v 0 q 4.901302,7.3 9.252458,11.1 4.351157,3.8 9.552539,3.8 v 0 h 1.500399 z"
       id="path2-1"
       inkscape:label="p1"
       style="stroke-width:1.00013" />
    <path
       style="fill:none;stroke:#000000;stroke-width:1px;stroke-linecap:butt;stroke-linejoin:miter;stroke-opacity:1"
       d="M 21.169279,23.897457 C 16.348509,22.85085 10.855438,21.741044 7.785469,17.48461 4.9425766,13.462932 5.7242374,7.2185884 9.9272526,4.435408 13.952145,1.8660776 19.33229,1.959337 23.606979,3.8522663 c 4.997669,2.1437301 8.010647,7.3889087 8.336504,12.6880407 0.563712,5.812178 -1.423108,11.925581 -5.86706,15.838151 -3.597614,3.297757 -8.340495,5.297217 -13.157176,5.892506 -3.2010361,0.395509 -6.6240242,0.615546 -9.6533211,-0.699385 -2.38687415,-2.231977 1.2444407,-3.683351 3.4340699,-2.880156 2.1784064,0.799079 4.2810362,1.763894 5.3590682,3.823093 2.629253,4.71814 5.850387,9.116628 9.603261,13.004582 3.182871,3.23382 7.226778,5.957229 11.906309,6.145694 0.754657,0.07719 1.512998,0.105787 2.267306,0.186733"
       id="path392-1"
       inkscape:label="s1"
       sodipodi:nodetypes="ccccccccssssc" />
    <path
       style="fill:none;stroke:#000000;stroke-width:1px;stroke-linecap:butt;stroke-linejoin:miter;stroke-opacity:1"
       d="m 48.605191,0.00552427 c 0.0055,15.79368673 -0.02606,31.58261373 0.01992,47.37582273 0.07349,2.855345 0.530731,6.038743 2.819453,8.013369 2.080118,2.013323 5.131616,2.216371 7.870261,2.305404 0.523959,0.03095 1.047919,0.06189 1.571878,0.09284"
       id="path394-2"
       sodipodi:nodetypes="ccccc"
       inkscape:label="s2" />
  </g>
  <g
     id="g309"
     inkscape:label="g2">
    <path
       style="display:inline"
       d="M 14.3,89 H 13.4 Q 10.3,89 7.8,88.35 5.3,87.7 3.5,86 v 0 Q 1.6,84.3 0.8,81.8 0,79.3 0,75.2 v 0 -53.4 Q 0,15.2 1.35,11.1 2.7,7 6.1,4.1 v 0 Q 8.3,2.2 11.45,1.1 14.6,0 18.7,0 V 0 Q 27.8,0 35.05,5.25 42.3,10.5 49.6,19 v 0 l -3.9,3.1 Q 39.3,14.5 32.95,9.7 26.6,4.9 19,4.9 v 0 q -5.9,0 -9.3,2.9 v 0 q -2.4,2.1 -3.4,5.6 -1,3.5 -1,10.1 v 0 51.4 q 0,3.2 0.5,4.85 0.5,1.65 1.7,2.55 v 0 q 1.2,1.2 3.15,1.45 Q 12.6,84 14.9,84 v 0 z"
       id="path2"
       inkscape:label="p2" />
    <path
       style="display:inline;fill:none;stroke:#000000;stroke-width:1px;stroke-linecap:butt;stroke-linejoin:miter;stroke-opacity:1"
       d="M 47.652368,20.738116 C 42.912163,15.169343 37.771996,9.7590782 31.535156,5.8554687 25.556372,2.3479405 17.925665,1.3282836 11.384063,3.8090168 7.098823,5.5445734 4.0571601,9.6376118 3.3691387,14.177325 2.2636698,19.814013 2.8760079,25.587166 2.7106596,31.290784 c 0.017146,15.362435 -0.08206,30.727062 0.00809,46.088122 0.1319749,2.783277 1.0109143,5.743286 3.4696807,7.348394 2.457118,1.869621 5.6943627,1.540296 8.5928207,1.741457"
       id="path491"
       inkscape:label="s3" />
  </g>
</svg>
