<svg xmlns="http://www.w3.org/2000/svg" xmlns:xlink="http://www.w3.org/1999/xlink" width="64.9" height="130.4">
    <path
        d="M63.80 89.60L62.90 89.60Q56.20 89.60 53 86.60L53 86.60Q51.20 85.00 50.30 82.50Q49.40 80 49.40 75.80L49.40 75.80L49.40 29.30L54.80 30.10L54.80 75.50Q54.80 78.70 55.30 80.30Q55.80 81.90 57 82.90L57 82.90Q58.10 84.10 60.10 84.35Q62.10 84.60 64.40 84.60L64.40 84.60L63.80 89.60ZM39 89.60L37.70 89.60Q33 89.60 28.95 87.05Q24.90 84.50 21.20 80.15Q17.50 75.80 14.10 70.40L14.10 70.40Q13 70.40 11.90 70.40L11.90 70.40Q3.50 70.40 3.50 65.30L3.50 65.30Q3.50 63.30 4.85 62.25Q6.20 61.20 8.50 61.20L8.50 61.20Q10.60 61.20 12.70 62.05Q14.80 62.90 17 65L17 65Q24.40 63.50 28.60 59.00Q32.80 54.50 32.80 47.70L32.80 47.70Q32.80 41.10 29.25 37.65Q25.70 34.20 20.70 34.20L20.70 34.20Q16.50 34.20 14.35 36.25Q12.20 38.30 12.20 41.10L12.20 41.10Q12.20 45.00 15.30 47.40Q18.40 49.80 25.50 51.00L25.50 51.00L23.80 55.60Q15.50 54.00 11.25 50.45Q7 46.90 7 41.00L7 41.00Q7 36.30 10.55 32.85Q14.10 29.40 20.80 29.40L20.80 29.40Q25.60 29.40 29.55 31.60Q33.50 33.80 35.85 37.95Q38.20 42.10 38.20 47.90L38.20 47.90Q38.20 56.10 33 61.90Q27.80 67.70 19.40 69.60L19.40 69.60Q24.30 76.90 28.65 80.70Q33 84.50 38.20 84.50L38.20 84.50L39.70 84.50L39 89.60ZM49.20 116.30L49.20 116.30Q42.60 116.30 37.45 114.05Q32.30 111.80 28.15 108.00Q24 104.20 20.50 99.40L20.50 99.40L24.70 96.50Q29.80 103.20 35.40 107.30Q41 111.40 49.20 111.40L49.20 111.40Q54.90 111.40 57.90 109.20Q60.90 107.00 60.90 102.70L60.90 102.70Q60.90 98.80 58.30 96.80Q55.70 94.80 51.30 94.80L51.30 94.80Q48.80 94.80 46.60 95.35Q44.40 95.90 42.20 96.80L42.20 96.80L40.40 92.30Q43 91.20 45.60 90.65Q48.20 90.10 51.00 90.10L51.00 90.10Q58.10 90.10 62.00 93.65Q65.90 97.20 65.90 103.10L65.90 103.10Q65.90 109.30 61.45 112.80Q57.00 116.30 49.20 116.30Z" />
      <g
     id="g429"
     inkscape:label="g2">
    <path
       style="display:inline"
       d="m 30.9,87 v 0 Q 24.3,87 19.15,84.75 14,82.5 9.85,78.7 5.7,74.9 2.2,70.1 v 0 l 4.2,-2.9 q 5.1,6.7 10.7,10.8 5.6,4.1 13.8,4.1 v 0 q 5.7,0 8.7,-2.2 3,-2.2 3,-6.5 v 0 q 0,-3.9 -2.6,-5.9 -2.6,-2 -7,-2 v 0 q -2.5,0 -4.7,0.55 -2.2,0.55 -4.4,1.45 v 0 L 22.1,63 q 2.6,-1.1 5.2,-1.65 2.6,-0.55 5.4,-0.55 v 0 q 7.1,0 11,3.55 3.9,3.55 3.9,9.45 v 0 q 0,6.2 -4.45,9.7 Q 38.7,87 30.9,87 Z"
       id="path420"
       inkscape:label="p2" />
    <path
       style="display:inline;fill:none;stroke:#000000;stroke-width:1px;stroke-linecap:butt;stroke-linejoin:miter;stroke-opacity:1"
       d="m 22.914062,65.289062 c 2.323807,-0.692195 4.562347,-1.731347 7.000658,-1.966609 3.549036,-0.376084 7.376537,-0.234926 10.53575,1.599631 2.719286,1.540051 4.469061,4.52798 4.601284,7.636307 0.253017,2.845818 -0.456653,5.883237 -2.460912,7.998761 -2.433486,2.67518 -6.157635,3.68678 -9.656459,3.920638 C 27.700261,84.79836 22.284886,83.938844 17.69019,81.310728 14.906965,79.755209 12.447616,77.671348 10.188095,75.437432 8.1199862,73.202596 6.1412982,70.891325 4.1757812,68.566406"
       id="path198"
       inkscape:label="s3" />
  </g>
    <path style="fill:none;stroke:#000000;stroke-width:1px;stroke-linecap:butt;stroke-linejoin:miter;stroke-opacity:1"
        d="M 21.169279,23.897457 C 16.348509,22.85085 10.855438,21.741044 7.785469,17.48461 4.9425766,13.462932 5.7242374,7.2185884 9.9272526,4.435408 13.952145,1.8660776 19.33229,1.959337 23.606979,3.8522663 c 4.997669,2.1437301 8.010647,7.3889087 8.336504,12.6880407 0.563712,5.812178 -1.423108,11.925581 -5.86706,15.838151 -3.597614,3.297757 -8.340495,5.297217 -13.157176,5.892506 -3.2010361,0.395509 -6.6240242,0.615546 -9.6533211,-0.699385 -2.38687415,-2.231977 1.2444407,-3.683351 3.4340699,-2.880156 2.1784064,0.799079 4.2810362,1.763894 5.3590682,3.823093 2.629253,4.71814 5.850387,9.116628 9.603261,13.004582 3.182871,3.23382 7.226778,5.957229 11.906309,6.145694 0.754657,0.07719 1.512998,0.105787 2.267306,0.186733"
        id="path392" inkscape:label="s1" sodipodi:nodetypes="ccccccccssssc" />
    <path style="fill:none;stroke:#000000;stroke-width:1px;stroke-linecap:butt;stroke-linejoin:miter;stroke-opacity:1"
        d="m 48.605191,0.00552427 c 0.0055,15.79368673 -0.02606,31.58261373 0.01992,47.37582273 0.07349,2.855345 0.530731,6.038743 2.819453,8.013369 2.080118,2.013323 5.131616,2.216371 7.870261,2.305404 0.523959,0.03095 1.047919,0.06189 1.571878,0.09284"
        id="path394" sodipodi:nodetypes="ccccc" inkscape:label="s2" />
</svg>