<svg xmlns="http://www.w3.org/2000/svg" xmlns:xlink="http://www.w3.org/1999/xlink" width="64.9" height="130.4"><path d="M63.80 89.60L62.90 89.60Q56.20 89.60 53 86.60L53 86.60Q51.20 85.00 50.30 82.50Q49.40 80 49.40 75.80L49.40 75.80L49.40 29.30L54.80 30.10L54.80 75.50Q54.80 78.70 55.30 80.30Q55.80 81.90 57 82.90L57 82.90Q58.10 84.10 60.10 84.35Q62.10 84.60 64.40 84.60L64.40 84.60L63.80 89.60ZM39 89.60L37.70 89.60Q33 89.60 28.95 87.05Q24.90 84.50 21.20 80.15Q17.50 75.80 14.10 70.40L14.10 70.40Q13 70.40 11.90 70.40L11.90 70.40Q3.50 70.40 3.50 65.30L3.50 65.30Q3.50 63.30 4.85 62.25Q6.20 61.20 8.50 61.20L8.50 61.20Q10.60 61.20 12.70 62.05Q14.80 62.90 17 65L17 65Q24.40 63.50 28.60 59.00Q32.80 54.50 32.80 47.70L32.80 47.70Q32.80 41.10 29.25 37.65Q25.70 34.20 20.70 34.20L20.70 34.20Q16.50 34.20 14.35 36.25Q12.20 38.30 12.20 41.10L12.20 41.10Q12.20 45.00 15.30 47.40Q18.40 49.80 25.50 51.00L25.50 51.00L23.80 55.60Q15.50 54.00 11.25 50.45Q7 46.90 7 41.00L7 41.00Q7 36.30 10.55 32.85Q14.10 29.40 20.80 29.40L20.80 29.40Q25.60 29.40 29.55 31.60Q33.50 33.80 35.85 37.95Q38.20 42.10 38.20 47.90L38.20 47.90Q38.20 56.10 33 61.90Q27.80 67.70 19.40 69.60L19.40 69.60Q24.30 76.90 28.65 80.70Q33 84.50 38.20 84.50L38.20 84.50L39.70 84.50L39 89.60ZM47.40 116.10L47.40 116.10Q40.30 116.10 36.40 112.50Q32.50 108.90 32.50 103.00L32.50 103.00Q32.50 97.60 36.60 93.85Q40.70 90.10 48.60 90.10L48.60 90.10Q55.90 90.10 61.25 92.85Q66.60 95.60 70.70 99.95Q74.80 104.30 78.20 109.20L78.20 109.20L74.10 111.90Q70.40 106.80 66.75 102.95Q63.10 99.10 58.75 96.95Q54.40 94.80 48.80 94.80L48.80 94.80Q43 94.80 40.25 97.15Q37.50 99.50 37.50 103.10L37.50 103.10Q37.50 107.30 40.20 109.25Q42.90 111.20 47.10 111.20L47.10 111.20Q49.80 111.20 52.05 110.65Q54.30 110.10 56.50 109.10L56.50 109.10L58.20 113.90Q55.60 114.90 52.90 115.50Q50.20 116.10 47.40 116.10Z"/></svg>