<svg xmlns="http://www.w3.org/2000/svg" xmlns:xlink="http://www.w3.org/1999/xlink" width="64.9" height="130.4"><path d="M63.80 89.60L62.90 89.60Q56.20 89.60 53 86.60L53 86.60Q51.20 85.00 50.30 82.50Q49.40 80 49.40 75.80L49.40 75.80L49.40 29.30L54.80 30.10L54.80 75.50Q54.80 78.70 55.30 80.30Q55.80 81.90 57 82.90L57 82.90Q58.10 84.10 60.10 84.35Q62.10 84.60 64.40 84.60L64.40 84.60L63.80 89.60ZM39 89.60L37.70 89.60Q33 89.60 28.95 87.05Q24.90 84.50 21.20 80.15Q17.50 75.80 14.10 70.40L14.10 70.40Q13 70.40 11.90 70.40L11.90 70.40Q3.50 70.40 3.50 65.30L3.50 65.30Q3.50 63.30 4.85 62.25Q6.20 61.20 8.50 61.20L8.50 61.20Q10.60 61.20 12.70 62.05Q14.80 62.90 17 65L17 65Q24.40 63.50 28.60 59.00Q32.80 54.50 32.80 47.70L32.80 47.70Q32.80 41.10 29.25 37.65Q25.70 34.20 20.70 34.20L20.70 34.20Q16.50 34.20 14.35 36.25Q12.20 38.30 12.20 41.10L12.20 41.10Q12.20 45.00 15.30 47.40Q18.40 49.80 25.50 51.00L25.50 51.00L23.80 55.60Q15.50 54.00 11.25 50.45Q7 46.90 7 41.00L7 41.00Q7 36.30 10.55 32.85Q14.10 29.40 20.80 29.40L20.80 29.40Q25.60 29.40 29.55 31.60Q33.50 33.80 35.85 37.95Q38.20 42.10 38.20 47.90L38.20 47.90Q38.20 56.10 33 61.90Q27.80 67.70 19.40 69.60L19.40 69.60Q24.30 76.90 28.65 80.70Q33 84.50 38.20 84.50L38.20 84.50L39.70 84.50L39 89.60ZM54.40 25.50L50.00 25.50Q48.10 17.70 46.25 13.15Q44.40 8.60 41.95 6.70Q39.50 4.80 35.70 4.80L35.70 4.80Q34.50 4.80 33.15 5Q31.80 5.20 30.30 5.70L30.30 5.70L28.80 1.10Q30.70 0.50 32.50 0.25Q34.30 0 36 0L36 0Q40.60 0 43.95 2.25Q47.30 4.50 49.80 10.05Q52.30 15.60 54.40 25.50L54.40 25.50ZM49.10 23.70L46.30 26.60Q40.20 21.20 36 18.85Q31.80 16.50 26.90 16.50L26.90 16.50Q23.40 16.50 20.50 17.40L20.50 17.40L19 12.70Q20.80 12.30 22.75 12Q24.70 11.70 26.90 11.70L26.90 11.70Q30.70 11.70 34.05 12.90Q37.40 14.10 40.95 16.75Q44.50 19.40 49.10 23.70L49.10 23.70Z"/></svg>