<svg xmlns="http://www.w3.org/2000/svg" xmlns:xlink="http://www.w3.org/1999/xlink" width="90" height="130.4"><path d="M63.80 89.60L62.90 89.60Q56.20 89.60 53 86.60L53 86.60Q51.20 85.00 50.30 82.50Q49.40 80 49.40 75.80L49.40 75.80L49.40 29.30L54.80 30.10L54.80 75.50Q54.80 78.70 55.30 80.30Q55.80 81.90 57 82.90L57 82.90Q58.10 84.10 60.10 84.35Q62.10 84.60 64.40 84.60L64.40 84.60L63.80 89.60ZM39 89.60L37.70 89.60Q33 89.60 28.95 87.05Q24.90 84.50 21.20 80.15Q17.50 75.80 14.10 70.40L14.10 70.40Q13 70.40 11.90 70.40L11.90 70.40Q3.50 70.40 3.50 65.30L3.50 65.30Q3.50 63.30 4.85 62.25Q6.20 61.20 8.50 61.20L8.50 61.20Q10.60 61.20 12.70 62.05Q14.80 62.90 17 65L17 65Q24.40 63.50 28.60 59.00Q32.80 54.50 32.80 47.70L32.80 47.70Q32.80 41.10 29.25 37.65Q25.70 34.20 20.70 34.20L20.70 34.20Q16.50 34.20 14.35 36.25Q12.20 38.30 12.20 41.10L12.20 41.10Q12.20 45.00 15.30 47.40Q18.40 49.80 25.50 51.00L25.50 51.00L23.80 55.60Q15.50 54.00 11.25 50.45Q7 46.90 7 41.00L7 41.00Q7 36.30 10.55 32.85Q14.10 29.40 20.80 29.40L20.80 29.40Q25.60 29.40 29.55 31.60Q33.50 33.80 35.85 37.95Q38.20 42.10 38.20 47.90L38.20 47.90Q38.20 56.10 33 61.90Q27.80 67.70 19.40 69.60L19.40 69.60Q24.30 76.90 28.65 80.70Q33 84.50 38.20 84.50L38.20 84.50L39.70 84.50L39 89.60ZM89 89.60L88 89.60Q81.40 89.60 78.10 86.60L78.10 86.60Q76.30 85.00 75.45 82.50Q74.60 80 74.60 75.80L74.60 75.80L74.60 29.30L79.90 30.00L79.90 75.50Q79.90 78.80 80.40 80.40Q80.90 82.00 82.20 83.00L82.20 83.00Q83.40 84.10 85.25 84.35Q87.10 84.60 89.50 84.60L89.50 84.60L89 89.60ZM79.40 25.50L74.60 25.50Q72.40 17.90 70.40 13.40Q68.40 8.90 65.85 6.90Q63.30 4.90 59.40 4.90L59.40 4.90Q56.60 4.90 53.60 5.80L53.60 5.80L52.00 1.20Q54.00 0.60 55.95 0.30Q57.90 0 59.70 0L59.70 0Q64.40 0 67.90 2.15Q71.40 4.30 74.15 9.80Q76.90 15.30 79.40 25.50L79.40 25.50Z"/></svg>