<svg xmlns="http://www.w3.org/2000/svg" xmlns:xlink="http://www.w3.org/1999/xlink" width="90" height="130.4">
    <path
        d="M63.80 89.60L62.90 89.60Q56.20 89.60 53 86.60L53 86.60Q51.20 85.00 50.30 82.50Q49.40 80 49.40 75.80L49.40 75.80L49.40 29.30L54.80 30.10L54.80 75.50Q54.80 78.70 55.30 80.30Q55.80 81.90 57 82.90L57 82.90Q58.10 84.10 60.10 84.35Q62.10 84.60 64.40 84.60L64.40 84.60L63.80 89.60ZM39 89.60L37.70 89.60Q33 89.60 28.95 87.05Q24.90 84.50 21.20 80.15Q17.50 75.80 14.10 70.40L14.10 70.40Q13 70.40 11.90 70.40L11.90 70.40Q3.50 70.40 3.50 65.30L3.50 65.30Q3.50 63.30 4.85 62.25Q6.20 61.20 8.50 61.20L8.50 61.20Q10.60 61.20 12.70 62.05Q14.80 62.90 17 65L17 65Q24.40 63.50 28.60 59.00Q32.80 54.50 32.80 47.70L32.80 47.70Q32.80 41.10 29.25 37.65Q25.70 34.20 20.70 34.20L20.70 34.20Q16.50 34.20 14.35 36.25Q12.20 38.30 12.20 41.10L12.20 41.10Q12.20 45.00 15.30 47.40Q18.40 49.80 25.50 51.00L25.50 51.00L23.80 55.60Q15.50 54.00 11.25 50.45Q7 46.90 7 41.00L7 41.00Q7 36.30 10.55 32.85Q14.10 29.40 20.80 29.40L20.80 29.40Q25.60 29.40 29.55 31.60Q33.50 33.80 35.85 37.95Q38.20 42.10 38.20 47.90L38.20 47.90Q38.20 56.10 33 61.90Q27.80 67.70 19.40 69.60L19.40 69.60Q24.30 76.90 28.65 80.70Q33 84.50 38.20 84.50L38.20 84.50L39.70 84.50L39 89.60ZM89 89.60L88 89.60Q81.40 89.60 78.10 86.60L78.10 86.60Q76.30 85.00 75.45 82.50Q74.60 80 74.60 75.80L74.60 75.80L74.60 29.30L79.90 30.00L79.90 75.50Q79.90 78.80 80.40 80.40Q80.90 82.00 82.20 83.00L82.20 83.00Q83.40 84.10 85.25 84.35Q87.10 84.60 89.50 84.60L89.50 84.60L89 89.60ZM79.50 25.50L75.10 25.50Q73.20 17.70 71.35 13.15Q69.50 8.60 67.05 6.70Q64.60 4.80 60.80 4.80L60.80 4.80Q59.60 4.80 58.25 5Q56.90 5.20 55.40 5.70L55.40 5.70L53.90 1.10Q55.80 0.50 57.60 0.25Q59.40 0 61.10 0L61.10 0Q65.70 0 69.05 2.25Q72.40 4.50 74.90 10.05Q77.40 15.60 79.50 25.50L79.50 25.50ZM74.20 23.70L71.40 26.60Q65.30 21.20 61.10 18.85Q56.90 16.50 52.00 16.50L52.00 16.50Q48.50 16.50 45.60 17.40L45.60 17.40L44.10 12.70Q45.90 12.30 47.85 12Q49.80 11.70 52.00 11.70L52.00 11.70Q55.80 11.70 59.15 12.90Q62.50 14.10 66.05 16.75Q69.60 19.40 74.20 23.70L74.20 23.70Z" />
      <g
     id="g605"
     inkscape:label="g2">
    <path
       style="display:inline"
       d="m 70.7,89.6 h -1 q -6.6,0 -9.9,-3 v 0 Q 58,85 57.15,82.5 56.3,80 56.3,75.8 v 0 -46.5 l 5.3,0.7 v 45.5 q 0,3.3 0.5,4.9 0.5,1.6 1.8,2.6 v 0 q 1.2,1.1 3.05,1.35 1.85,0.25 4.25,0.25 v 0 z"
       id="path592"
       inkscape:label="p2" />
    <path
       style="display:inline;fill:none;stroke:#000000;stroke-width:1px;stroke-linecap:butt;stroke-linejoin:miter;stroke-opacity:1"
       d="m 58.945814,29.339077 c 0.0052,15.660703 -0.0419,31.322813 -0.004,46.982637 0.07316,2.661925 0.300705,5.531206 2.06529,7.674603 1.94562,2.285428 5.076188,2.956219 7.950186,3.001875 0.734456,0.05113 1.468913,0.102253 2.203369,0.15338"
       id="path81"
       inkscape:label="s3" />
  </g>
  <g
     id="g609"
     inkscape:label="g3">
    <path
       style="display:inline"
       d="m 55.9,23.7 -2.8,2.9 Q 47,21.2 42.8,18.85 38.6,16.5 33.7,16.5 v 0 q -3.5,0 -6.4,0.9 v 0 l -1.5,-4.7 q 1.8,-0.4 3.75,-0.7 1.95,-0.3 4.15,-0.3 v 0 q 3.8,0 7.15,1.2 3.35,1.2 6.9,3.85 3.55,2.65 8.15,6.95 z"
       id="path596"
       inkscape:label="p3" />
    <path
       style="display:inline;fill:none;stroke:#000000;stroke-width:1px;stroke-linecap:butt;stroke-linejoin:miter;stroke-opacity:1"
       d="m 26.306582,15.114407 c 2.688785,-0.568456 5.416241,-1.1935 8.183739,-0.988483 1.810938,0.02306 3.595689,0.410136 5.328375,0.908621 1.446215,0.495326 2.860202,1.115629 4.178036,1.890495 3.847011,2.308963 7.136989,5.387765 10.538424,8.281996"
       id="path905"
       inkscape:label="s4" />
  </g>
  <g
     id="g613"
     inkscape:label="g4">
    <path
       style="display:inline"
       d="M 61.2,25.5 H 56.8 Q 54.9,17.7 53.05,13.15 51.2,8.6 48.75,6.7 46.3,4.8 42.5,4.8 v 0 Q 41.3,4.8 39.95,5 38.6,5.2 37.1,5.7 v 0 L 35.6,1.1 Q 37.5,0.5 39.3,0.25 41.1,0 42.8,0 v 0 q 4.6,0 7.95,2.25 3.35,2.25 5.85,7.8 2.5,5.55 4.6,15.45 z"
       id="path594"
       inkscape:label="p4" />
    <path
       style="display:inline;fill:none;stroke:#000000;stroke-width:1px;stroke-linecap:butt;stroke-linejoin:miter;stroke-opacity:1"
       d="m 36.195028,3.4913397 2.773185,-0.7181553 0.82864,-0.1767767 0.806544,-0.099437 1.138,-0.088388 h 0.905981 l 1.027514,0.033146 0.983321,0.121534 0.872835,0.1325825 1.237436,0.2872621 1.071709,0.4198447 1.347922,0.6960582 1.016466,0.6960583 0.696059,0.5966213 0.82864,0.9612233 0.950175,1.2042912 0.839689,1.3368738 0.806544,1.6130879 0.651864,1.425262 0.662913,1.635184 0.53033,1.679379 0.50108,1.557697 0.367187,1.382813 0.5,1.734375 0.453125,1.757812 1.007035,3.936361"
       id="path970"
       inkscape:label="s5" />
  </g>
    <path style="fill:none;stroke:#000000;stroke-width:1px;stroke-linecap:butt;stroke-linejoin:miter;stroke-opacity:1"
        d="M 21.169279,23.897457 C 16.348509,22.85085 10.855438,21.741044 7.785469,17.48461 4.9425766,13.462932 5.7242374,7.2185884 9.9272526,4.435408 13.952145,1.8660776 19.33229,1.959337 23.606979,3.8522663 c 4.997669,2.1437301 8.010647,7.3889087 8.336504,12.6880407 0.563712,5.812178 -1.423108,11.925581 -5.86706,15.838151 -3.597614,3.297757 -8.340495,5.297217 -13.157176,5.892506 -3.2010361,0.395509 -6.6240242,0.615546 -9.6533211,-0.699385 -2.38687415,-2.231977 1.2444407,-3.683351 3.4340699,-2.880156 2.1784064,0.799079 4.2810362,1.763894 5.3590682,3.823093 2.629253,4.71814 5.850387,9.116628 9.603261,13.004582 3.182871,3.23382 7.226778,5.957229 11.906309,6.145694 0.754657,0.07719 1.512998,0.105787 2.267306,0.186733"
        id="path392" inkscape:label="s1" sodipodi:nodetypes="ccccccccssssc" />
    <path style="fill:none;stroke:#000000;stroke-width:1px;stroke-linecap:butt;stroke-linejoin:miter;stroke-opacity:1"
        d="m 48.605191,0.00552427 c 0.0055,15.79368673 -0.02606,31.58261373 0.01992,47.37582273 0.07349,2.855345 0.530731,6.038743 2.819453,8.013369 2.080118,2.013323 5.131616,2.216371 7.870261,2.305404 0.523959,0.03095 1.047919,0.06189 1.571878,0.09284"
        id="path394" sodipodi:nodetypes="ccccc" inkscape:label="s2" />
</svg>