<?xml version="1.0" encoding="UTF-8" standalone="no"?>
<svg
   width="86"
   height="89.599998"
   version="1.1"
   id="svg1247"
   sodipodi:docname="9_shau.svg"
   inkscape:version="1.2.1 (9c6d41e410, 2022-07-14)"
   xmlns:inkscape="http://www.inkscape.org/namespaces/inkscape"
   xmlns:sodipodi="http://sodipodi.sourceforge.net/DTD/sodipodi-0.dtd"
   xmlns="http://www.w3.org/2000/svg"
   xmlns:svg="http://www.w3.org/2000/svg">
  <defs
     id="defs1251" />
  <sodipodi:namedview
     id="namedview1249"
     pagecolor="#ffffff"
     bordercolor="#666666"
     borderopacity="1.0"
     inkscape:showpageshadow="2"
     inkscape:pageopacity="0.0"
     inkscape:pagecheckerboard="0"
     inkscape:deskcolor="#d1d1d1"
     showgrid="false"
     inkscape:zoom="2.5594664"
     inkscape:cx="46.68942"
     inkscape:cy="70.327159"
     inkscape:window-width="1920"
     inkscape:window-height="1027"
     inkscape:window-x="-8"
     inkscape:window-y="-8"
     inkscape:window-maximized="1"
     inkscape:current-layer="svg1247" />
  <g
     id="g115"
     inkscape:label="g1"
     transform="matrix(0.99973425,0,0,1,0,29.3)">
    <path
       d="M 60.316029,60.3 H 59.41579 q -6.701781,0 -9.902632,-3 v 0 Q 47.71268,55.7 46.81244,53.2 45.912201,50.7 45.912201,46.5 v 0 V 0 l 5.401436,0.8 v 45.4 q 0,3.2 0.500133,4.8 0.500132,1.6 1.700451,2.6 v 0 q 1.100293,1.2 3.100824,1.45 2.000532,0.25 4.301143,0.25 v 0 z m -24.806592,0 h -1.300346 q -4.701249,0 -8.752326,-2.55 -4.051076,-2.55 -7.75206,-6.9 -3.700984,-4.35 -7.101887,-9.75 v 0 q -1.1002927,0 -2.2005851,0 v 0 Q 0,41.1 0,36 v 0 Q 0,34 1.3503589,32.95 2.7007177,31.9 5.0013291,31.9 v 0 q 2.1005582,0 4.2011164,0.85 2.1005585,0.85 4.3011435,2.95 v 0 q 7.401967,-1.5 11.603083,-6 4.201117,-4.5 4.201117,-11.3 v 0 q 0,-6.6 -3.550944,-10.05 Q 22.205901,4.9 17.204572,4.9 v 0 Q 13.003456,4.9 10.852884,6.95 8.7023126,9 8.7023126,11.8 v 0 q 0,3.9 3.1008244,6.3 3.100824,2.4 10.202711,3.6 v 0 l -1.700452,4.6 Q 12.00319,24.7 7.7520601,21.15 3.5009304,17.6 3.5009304,11.7 v 0 q 0,-4.7 3.5509436,-8.15 Q 10.602818,0.1 17.304599,0.1 v 0 q 4.801276,0 8.752326,2.2 3.95105,2.2 6.301674,6.35 2.350625,4.15 2.350625,9.95 v 0 q 0,8.2 -5.201382,14 -5.201383,5.8 -13.603615,7.7 v 0 q 4.901302,7.3 9.252458,11.1 4.351157,3.8 9.552539,3.8 v 0 h 1.500399 z"
       id="path2-1"
       inkscape:label="p1"
       style="stroke-width:1.00013" />
    <path
       style="fill:none;stroke:#000000;stroke-width:1px;stroke-linecap:butt;stroke-linejoin:miter;stroke-opacity:1"
       d="M 21.169279,23.897457 C 16.348509,22.85085 10.855438,21.741044 7.785469,17.48461 4.9425766,13.462932 5.7242374,7.2185884 9.9272526,4.435408 13.952145,1.8660776 19.33229,1.959337 23.606979,3.8522663 c 4.997669,2.1437301 8.010647,7.3889087 8.336504,12.6880407 0.563712,5.812178 -1.423108,11.925581 -5.86706,15.838151 -3.597614,3.297757 -8.340495,5.297217 -13.157176,5.892506 -3.2010361,0.395509 -6.6240242,0.615546 -9.6533211,-0.699385 -2.38687415,-2.231977 1.2444407,-3.683351 3.4340699,-2.880156 2.1784064,0.799079 4.2810362,1.763894 5.3590682,3.823093 2.629253,4.71814 5.850387,9.116628 9.603261,13.004582 3.182871,3.23382 7.226778,5.957229 11.906309,6.145694 0.754657,0.07719 1.512998,0.105787 2.267306,0.186733"
       id="path392-1"
       inkscape:label="s1"
       sodipodi:nodetypes="ccccccccssssc" />
    <path
       style="fill:none;stroke:#000000;stroke-width:1px;stroke-linecap:butt;stroke-linejoin:miter;stroke-opacity:1"
       d="m 48.605191,0.00552427 c 0.0055,15.79368673 -0.02606,31.58261373 0.01992,47.37582273 0.07349,2.855345 0.530731,6.038743 2.819453,8.013369 2.080118,2.013323 5.131616,2.216371 7.870261,2.305404 0.523959,0.03095 1.047919,0.06189 1.571878,0.09284"
       id="path394-2"
       sodipodi:nodetypes="ccccc"
       inkscape:label="s2" />
  </g>
  <g
     id="g605"
     inkscape:label="g2"
     transform="translate(14.8)">
    <path
       style="display:inline"
       d="m 70.7,89.6 h -1 q -6.6,0 -9.9,-3 v 0 Q 58,85 57.15,82.5 56.3,80 56.3,75.8 v 0 -46.5 l 5.3,0.7 v 45.5 q 0,3.3 0.5,4.9 0.5,1.6 1.8,2.6 v 0 q 1.2,1.1 3.05,1.35 1.85,0.25 4.25,0.25 v 0 z"
       id="path592"
       inkscape:label="p2" />
    <path
       style="display:inline;fill:none;stroke:#000000;stroke-width:1px;stroke-linecap:butt;stroke-linejoin:miter;stroke-opacity:1"
       d="m 58.945814,29.339077 c 0.0052,15.660703 -0.0419,31.322813 -0.004,46.982637 0.07316,2.661925 0.300705,5.531206 2.06529,7.674603 1.94562,2.285428 5.076188,2.956219 7.950186,3.001875 0.734456,0.05113 1.468913,0.102253 2.203369,0.15338"
       id="path81"
       inkscape:label="s3" />
  </g>
  <g
     id="g609"
     inkscape:label="g3"
     transform="translate(14.8)">
    <path
       style="display:inline"
       d="m 55.9,23.7 -2.8,2.9 Q 47,21.2 42.8,18.85 38.6,16.5 33.7,16.5 v 0 q -3.5,0 -6.4,0.9 v 0 l -1.5,-4.7 q 1.8,-0.4 3.75,-0.7 1.95,-0.3 4.15,-0.3 v 0 q 3.8,0 7.15,1.2 3.35,1.2 6.9,3.85 3.55,2.65 8.15,6.95 z"
       id="path596"
       inkscape:label="p3" />
    <path
       style="display:inline;fill:none;stroke:#000000;stroke-width:1px;stroke-linecap:butt;stroke-linejoin:miter;stroke-opacity:1"
       d="m 26.306582,15.114407 c 2.688785,-0.568456 5.416241,-1.1935 8.183739,-0.988483 1.810938,0.02306 3.595689,0.410136 5.328375,0.908621 1.446215,0.495326 2.860202,1.115629 4.178036,1.890495 3.847011,2.308963 7.136989,5.387765 10.538424,8.281996"
       id="path905"
       inkscape:label="s4" />
  </g>
  <g
     id="g613"
     inkscape:label="g4"
     transform="translate(14.8)">
    <path
       style="display:inline"
       d="M 61.2,25.5 H 56.8 Q 54.9,17.7 53.05,13.15 51.2,8.6 48.75,6.7 46.3,4.8 42.5,4.8 v 0 Q 41.3,4.8 39.95,5 38.6,5.2 37.1,5.7 v 0 L 35.6,1.1 Q 37.5,0.5 39.3,0.25 41.1,0 42.8,0 v 0 q 4.6,0 7.95,2.25 3.35,2.25 5.85,7.8 2.5,5.55 4.6,15.45 z"
       id="path594"
       inkscape:label="p4" />
    <path
       style="display:inline;fill:none;stroke:#000000;stroke-width:1px;stroke-linecap:butt;stroke-linejoin:miter;stroke-opacity:1"
       d="m 36.195028,3.4913397 2.773185,-0.7181553 0.82864,-0.1767767 0.806544,-0.099437 1.138,-0.088388 h 0.905981 l 1.027514,0.033146 0.983321,0.121534 0.872835,0.1325825 1.237436,0.2872621 1.071709,0.4198447 1.347922,0.6960582 1.016466,0.6960583 0.696059,0.5966213 0.82864,0.9612233 0.950175,1.2042912 0.839689,1.3368738 0.806544,1.6130879 0.651864,1.425262 0.662913,1.635184 0.53033,1.679379 0.50108,1.557697 0.367187,1.382813 0.5,1.734375 0.453125,1.757812 1.007035,3.936361"
       id="path970"
       inkscape:label="s5" />
  </g>
</svg>
