<?xml version="1.0" encoding="UTF-8" standalone="no"?>
<svg
   width="74.426865"
   height="60.299999"
   version="1.1"
   id="svg12"
   sodipodi:docname="11_gyah.svg"
   inkscape:version="1.2.1 (9c6d41e410, 2022-07-14)"
   xmlns:inkscape="http://www.inkscape.org/namespaces/inkscape"
   xmlns:sodipodi="http://sodipodi.sourceforge.net/DTD/sodipodi-0.dtd"
   xmlns="http://www.w3.org/2000/svg"
   xmlns:svg="http://www.w3.org/2000/svg">
  <defs
     id="defs16" />
  <sodipodi:namedview
     id="namedview14"
     pagecolor="#ffffff"
     bordercolor="#666666"
     borderopacity="1.0"
     inkscape:showpageshadow="2"
     inkscape:pageopacity="0.0"
     inkscape:pagecheckerboard="0"
     inkscape:deskcolor="#d1d1d1"
     showgrid="false"
     inkscape:zoom="1.809816"
     inkscape:cx="20.996609"
     inkscape:cy="46.966099"
     inkscape:window-width="1920"
     inkscape:window-height="1027"
     inkscape:window-x="-8"
     inkscape:window-y="-8"
     inkscape:window-maximized="1"
     inkscape:current-layer="svg12" />
  <path
     d="m 74.604711,43.865758 q -2.519994,0 -4.199989,-1.119997 -1.679996,-1.119998 -3.239992,-3.359992 -1.759996,-0.279999 -2.719994,-0.959998 -0.959997,-0.719998 -0.959997,-1.719995 0,-0.599999 0.399999,-1.079998 0.439999,-0.479999 1.239997,-0.479999 1.039997,0 1.879995,0.639999 0.879998,0.639998 1.679996,1.799995 0.799998,0.08 1.359997,0.08 2.639993,0 3.95999,-0.959997 1.359996,-0.959998 1.359996,-2.519994 0,-1.759996 -1.159997,-2.559994 -1.119997,-0.799998 -3.599991,-1.319997 -3.079992,-0.599998 -4.759988,-1.919995 -1.679996,-1.359996 -1.679996,-3.87999 0,-2.079995 1.399997,-3.439992 1.439996,-1.399996 4.03999,-1.399996 1.799995,0 3.119992,0.599998 1.319997,0.559999 2.439994,1.319997 1.119997,0.759998 2.319994,1.359997 1.239997,0.559998 2.879993,0.559998 1.119997,0 1.999995,-0.279999 v -4.799988 l 2.119995,0.319999 v 18.159955 q 0,1.279997 0.199999,1.959995 0.24,0.639999 0.679999,0.999998 0.479998,0.479999 1.279996,0.599998 0.799998,0.08 1.719996,0.08 l -0.239999,1.999995 h -0.359999 q -2.719994,0 -3.999991,-1.199997 -0.679998,-0.639998 -1.039997,-1.639996 -0.359999,-0.999997 -0.359999,-2.679993 V 25.305804 q -0.879998,0.199999 -2.039995,0.199999 -1.879995,0 -3.279992,-0.559998 -1.359996,-0.599999 -2.519994,-1.359997 -1.159997,-0.799998 -2.359994,-1.359997 -1.159997,-0.599998 -2.599993,-0.599998 -1.519997,0 -2.359994,0.799998 -0.839998,0.799998 -0.839998,2.119995 0,1.559996 1.159997,2.439994 1.159997,0.879998 3.79999,1.399996 2.999993,0.599999 4.599989,1.879996 1.639996,1.279996 1.639996,3.75999 0,1.999995 -1.079997,3.239992 -1.079998,1.239997 -2.839993,1.799996 -1.719996,0.519998 -3.759991,0.519998 -0.12,0 -0.2,0 1.159998,1.399997 2.319995,1.839996 1.199997,0.439999 2.919992,0.439999 h 0.439999 l -0.239999,1.999995 z"
     style="font-size:39.9999px;line-height:1.25;font-family:'Noto Sans Gujarati';-inkscape-font-specification:'Noto Sans Gujarati, Light';font-weight:300"
     id="path228"
     transform="matrix(2.3702889,0,0,2.3702889,-150.47717,-43.674519)" />
  <path
     d="m 93.044658,27.225799 q -0.719999,0 -1.279997,-0.519999 -0.559999,-0.559998 -0.559999,-1.519996 0,-0.959997 0.519999,-1.479996 0.559998,-0.559999 1.319997,-0.559999 0.799998,0 1.319996,0.559999 0.519999,0.519999 0.519999,1.479996 0,0.999998 -0.559999,1.519996 -0.519998,0.519999 -1.279996,0.519999 z m 0,13.319967 q -0.719999,0 -1.279997,-0.519999 -0.559999,-0.559998 -0.559999,-1.519996 0,-0.959997 0.519999,-1.479996 0.559998,-0.559999 1.319997,-0.559999 0.799998,0 1.319996,0.559999 0.519999,0.519999 0.519999,1.479996 0,0.999998 -0.559999,1.519996 -0.519998,0.519999 -1.279996,0.519999 z"
     style="font-size:39.9999px;line-height:1.25;font-family:'Noto Sans Gujarati';-inkscape-font-specification:'Noto Sans Gujarati, Light';font-weight:300"
     id="path230"
     transform="matrix(2.3702889,0,0,2.3702889,-150.47717,-43.674519)" />
</svg>
