<?xml version="1.0" encoding="UTF-8" standalone="no"?>
<svg
   width="82.770264"
   height="60.299999"
   version="1.1"
   id="svg28"
   sodipodi:docname="1_gya.svg"
   inkscape:version="1.2.1 (9c6d41e410, 2022-07-14)"
   xmlns:inkscape="http://www.inkscape.org/namespaces/inkscape"
   xmlns:sodipodi="http://sodipodi.sourceforge.net/DTD/sodipodi-0.dtd"
   xmlns="http://www.w3.org/2000/svg"
   xmlns:svg="http://www.w3.org/2000/svg">
  <defs
     id="defs32" />
  <sodipodi:namedview
     id="namedview30"
     pagecolor="#ffffff"
     bordercolor="#666666"
     borderopacity="1.0"
     inkscape:showpageshadow="2"
     inkscape:pageopacity="0.0"
     inkscape:pagecheckerboard="0"
     inkscape:deskcolor="#d1d1d1"
     showgrid="false"
     inkscape:zoom="2.5594664"
     inkscape:cx="13.284019"
     inkscape:cy="29.693689"
     inkscape:window-width="1920"
     inkscape:window-height="1027"
     inkscape:window-x="-8"
     inkscape:window-y="-8"
     inkscape:window-maximized="1"
     inkscape:current-layer="svg28" />
  <path
     d="m 70.184374,62.099656 q -2.519994,0 -4.19999,-1.119997 -1.679996,-1.119997 -3.239992,-3.359992 -1.759996,-0.279999 -2.719993,-0.959998 -0.959998,-0.719998 -0.959998,-1.719995 0,-0.599999 0.399999,-1.079998 0.439999,-0.479998 1.239997,-0.479998 1.039997,0 1.879995,0.639998 0.879998,0.639998 1.679996,1.799996 0.799998,0.08 1.359997,0.08 2.639993,0 3.95999,-0.959997 1.359997,-0.959998 1.359997,-2.519994 0,-1.759996 -1.159997,-2.559994 -1.119998,-0.799998 -3.599992,-1.319996 -3.079992,-0.599999 -4.759988,-1.919996 -1.679996,-1.359996 -1.679996,-3.87999 0,-2.079995 1.399997,-3.439991 1.439996,-1.399997 4.03999,-1.399997 1.799995,0 3.119992,0.599999 1.319997,0.559998 2.439994,1.319996 1.119997,0.759998 2.319994,1.359997 1.239997,0.559998 2.879993,0.559998 1.119997,0 1.999995,-0.279999 V 36.65972 l 2.119995,0.319999 v 18.159955 q 0,1.279997 0.2,1.959995 0.239999,0.639999 0.679998,0.999998 0.479999,0.479999 1.279997,0.599998 0.799998,0.08 1.719995,0.08 L 83.70434,60.77966 h -0.359999 q -2.719993,0 -3.99999,-1.199997 -0.679999,-0.639998 -1.039998,-1.639996 -0.359999,-0.999997 -0.359999,-2.679993 V 43.539702 q -0.879998,0.2 -2.039995,0.2 -1.879995,0 -3.279992,-0.559999 -1.359996,-0.599999 -2.519993,-1.359997 -1.159997,-0.799998 -2.359994,-1.359996 -1.159998,-0.599999 -2.599994,-0.599999 -1.519996,0 -2.359994,0.799998 -0.839998,0.799998 -0.839998,2.119995 0,1.559996 1.159997,2.439994 1.159997,0.879998 3.799991,1.399996 2.999992,0.599999 4.599988,1.879996 1.639996,1.279997 1.639996,3.75999 0,1.999995 -1.079997,3.239992 -1.079997,1.239997 -2.839993,1.799996 -1.719996,0.519999 -3.759991,0.519999 -0.119999,0 -0.199999,0 1.159997,1.399996 2.319994,1.839995 1.199997,0.439999 2.919993,0.439999 h 0.439999 l -0.24,1.999995 z"
     style="font-size:39.9999px;line-height:1.25;font-family:'Noto Sans Gujarati';-inkscape-font-specification:'Noto Sans Gujarati, Light';font-weight:300"
     id="path298"
     transform="matrix(2.3702889,0,0,2.3702889,-139.99969,-86.894125)" />
  <path
     d="m 93.384308,60.779659 q -2.639993,0 -3.95999,-1.199997 -0.719998,-0.639998 -1.079997,-1.639996 -0.32,-0.999997 -0.32,-2.679993 V 36.659719 l 2.119995,0.279999 v 18.199955 q 0,1.319997 0.2,1.959995 0.199999,0.639999 0.719998,1.039998 0.479999,0.439999 1.199997,0.559998 0.759998,0.08 1.719996,0.08 l -0.2,1.999995 z"
     style="font-size:39.9999px;line-height:1.25;font-family:'Noto Sans Gujarati';-inkscape-font-specification:'Noto Sans Gujarati, Light';font-weight:300"
     id="path300"
     transform="matrix(2.3702889,0,0,2.3702889,-139.99969,-86.894125)" />
</svg>
