<svg xmlns="http://www.w3.org/2000/svg" xmlns:xlink="http://www.w3.org/1999/xlink" width="196.9" height="130.4"><path d="M24 89.60L23.10 89.60Q20 89.60 17.50 88.95Q15 88.30 13.20 86.60L13.20 86.60Q11.30 84.90 10.50 82.40Q9.70 79.90 9.70 75.80L9.70 75.80L9.70 22.40Q9.70 15.80 11.05 11.70Q12.40 7.60 15.80 4.70L15.80 4.70Q18 2.80 21.15 1.70Q24.30 0.60 28.40 0.60L28.40 0.60Q37.50 0.60 44.75 5.85Q52 11.10 59.30 19.60L59.30 19.60L55.40 22.70Q49 15.10 42.65 10.30Q36.30 5.50 28.70 5.50L28.70 5.50Q22.80 5.50 19.40 8.40L19.40 8.40Q17 10.50 16 14Q15 17.50 15 24.10L15 24.10L15 75.50Q15 78.70 15.50 80.35Q16 82.00 17.20 82.90L17.20 82.90Q18.40 84.10 20.35 84.35Q22.30 84.60 24.60 84.60L24.60 84.60L24 89.60ZM77.90 90.60L77.90 90.60Q72.30 90.60 68.65 88.30Q65 86.00 63.25 82.10Q61.50 78.20 61.40 73.60L61.40 73.60Q61.40 66 65.55 59.75Q69.70 53.50 77.40 47.30L77.40 47.30Q72.60 42.20 66.85 38.95Q61.10 35.70 54.60 34.60L54.60 34.60Q56.30 36.90 57.40 39.80Q58.50 42.70 58.50 46.30L58.50 46.30Q58.50 52.70 54.90 56.90Q51.30 61.10 43.50 61.10L43.50 61.10Q36.70 61.10 32.80 56.95Q28.90 52.80 28.90 46.10L28.90 46.10Q28.90 41.30 31.30 37.50Q33.70 33.70 38.15 31.55Q42.60 29.40 48.60 29.40L48.60 29.40Q58.10 29.30 66.30 33.25Q74.50 37.20 81.30 44.30L81.30 44.30Q86 40.80 90.70 37.30Q95.40 33.80 102 29.20L102 29.20L105.10 33.50Q98.70 37.90 93.90 41.25Q89.10 44.60 84.50 48.10L84.50 48.10Q89 53.60 91.55 59.80Q94.10 66 94.10 73.10L94.10 73.10Q94.10 81.80 89.70 86.20Q85.30 90.60 77.90 90.60ZM34.30 46.20L34.30 46.20Q34.30 51.30 36.95 53.75Q39.60 56.20 43.50 56.20L43.50 56.20Q53.20 56.20 53.20 46.00L53.20 46.00Q53.20 39.30 48.60 34.10L48.60 34.10L48.20 34.10Q41.60 34.10 37.95 37.50Q34.30 40.90 34.30 46.20ZM66.90 73.60L66.90 73.60Q66.90 79.20 69.65 82.40Q72.40 85.60 77.90 85.60L77.90 85.60Q82.80 85.60 85.75 82.55Q88.70 79.50 88.70 73.10L88.70 73.10Q88.70 66.60 86.55 61.20Q84.40 55.80 80.60 51.00L80.60 51.00Q73.10 56.80 70 62.25Q66.90 67.70 66.90 73.60ZM125 71L125 71Q119.60 71 114.90 68.05Q110.20 65.10 106 58.60L106 58.60L110.40 55.70Q113.70 61.00 117.05 63.55Q120.40 66.10 124.90 66.10L124.90 66.10Q135.90 66.10 135.90 50.90L135.90 50.90Q135.90 42.80 132.80 38.55Q129.70 34.30 123.20 34.30L123.20 34.30Q120.20 34.30 117.35 35.05Q114.50 35.80 112.10 37.00L112.10 37.00L110.30 32.30Q116.80 29.30 123.30 29.40L123.30 29.40Q131.60 29.40 136.20 34.55Q140.80 39.70 141.20 49.40L141.20 49.40Q143.40 50.30 146.20 50.30L146.20 50.30Q152.20 50.30 156.30 46.80L156.30 46.80L156.30 29.30L161.60 30.10L161.60 75.50Q161.60 78.70 162.15 80.35Q162.70 82.00 163.80 82.90L163.80 82.90Q165 84.10 167 84.35Q169 84.60 171.30 84.60L171.30 84.60L170.70 89.60L169.80 89.60Q163 89.60 159.80 86.60L159.80 86.60Q158.10 85.00 157.20 82.50Q156.30 80 156.30 75.80L156.30 75.80L156.30 52.70Q152.20 55.20 146.40 55.20L146.40 55.20Q143.50 55.20 141.10 54.50L141.10 54.50Q140.30 63.40 135.85 67.20Q131.40 71 125 71ZM195.80 89.60L194.90 89.60Q191.80 89.60 189.30 88.95Q186.80 88.30 185 86.60L185 86.60Q183.10 84.90 182.30 82.40Q181.50 79.90 181.50 75.80L181.50 75.80L181.50 22.40Q181.50 15.80 182.85 11.70Q184.20 7.60 187.60 4.70L187.60 4.70Q189.80 2.80 192.95 1.70Q196.10 0.60 200.20 0.60L200.20 0.60Q209.30 0.60 216.55 5.85Q223.80 11.10 231.10 19.60L231.10 19.60L227.20 22.70Q220.80 15.10 214.45 10.30Q208.10 5.50 200.50 5.50L200.50 5.50Q194.60 5.50 191.20 8.40L191.20 8.40Q188.80 10.50 187.80 14Q186.80 17.50 186.80 24.10L186.80 24.10L186.80 75.50Q186.80 78.70 187.30 80.35Q187.80 82.00 189 82.90L189 82.90Q190.20 84.10 192.15 84.35Q194.10 84.60 196.40 84.60L196.40 84.60L195.80 89.60Z"/></svg>