<?xml version="1.0" encoding="UTF-8" standalone="no"?>
<svg
   width="78.682503"
   height="89"
   version="1.1"
   id="svg346"
   sodipodi:docname="2_gyi.svg"
   inkscape:version="1.2.1 (9c6d41e410, 2022-07-14)"
   xmlns:inkscape="http://www.inkscape.org/namespaces/inkscape"
   xmlns:sodipodi="http://sodipodi.sourceforge.net/DTD/sodipodi-0.dtd"
   xmlns="http://www.w3.org/2000/svg"
   xmlns:svg="http://www.w3.org/2000/svg">
  <defs
     id="defs350" />
  <sodipodi:namedview
     id="namedview348"
     pagecolor="#ffffff"
     bordercolor="#666666"
     borderopacity="1.0"
     inkscape:showpageshadow="2"
     inkscape:pageopacity="0.0"
     inkscape:pagecheckerboard="0"
     inkscape:deskcolor="#d1d1d1"
     showgrid="false"
     inkscape:zoom="1.809816"
     inkscape:cx="24.311863"
     inkscape:cy="24.864406"
     inkscape:window-width="1920"
     inkscape:window-height="1027"
     inkscape:window-x="-8"
     inkscape:window-y="-8"
     inkscape:window-maximized="1"
     inkscape:current-layer="svg346" />
  <path
     d="m 57.311159,75.698303 q -1.239997,0 -2.239994,-0.239999 -0.999998,-0.279999 -1.719996,-0.959998 -0.759998,-0.679998 -1.079997,-1.679996 -0.319999,-0.999997 -0.319999,-2.639993 V 50.378366 q 0,-3.359992 0.719998,-5.199987 0.759998,-1.839996 2.199994,-3.039993 2.359995,-2.039995 6.799984,-2.039995 4.599988,0 8.639978,2.079995 4.07999,2.079995 8.07998,5.279987 L 77.03111,48.93837 q -3.75999,-3.039993 -7.479981,-4.919988 -3.719991,-1.919995 -7.759981,-1.919995 -1.719996,0 -3.079992,0.359999 -1.319997,0.319999 -2.319994,1.159997 -1.159998,1.039997 -1.759996,2.679993 -0.559999,1.639996 -0.559999,4.879988 v 18.879953 q 0,1.279997 0.2,1.919995 0.199999,0.639999 0.679998,1.039998 0.479999,0.479999 1.239997,0.599998 0.799998,0.08 1.719996,0.08 l -0.24,1.999995 z"
     style="font-size:39.9999px;line-height:1.25;font-family:'Noto Sans Gujarati';-inkscape-font-specification:'Noto Sans Gujarati, Light';font-weight:300"
     id="path356"
     transform="matrix(2.4106235,0,0,2.4106235,-125.23472,-96.662124)" />
  <path
     d="m 70.831104,77.0183 q -2.519994,0 -4.19999,-1.119997 -1.679995,-1.119997 -3.239992,-3.359992 -1.759995,-0.279999 -2.719993,-0.959998 -0.959997,-0.719998 -0.959997,-1.719995 0,-0.599999 0.399999,-1.079998 0.439998,-0.479998 1.239996,-0.479998 1.039998,0 1.879996,0.639998 0.879998,0.639998 1.679996,1.799996 0.799998,0.08 1.359996,0.08 2.639994,0 3.95999,-0.959997 1.359997,-0.959998 1.359997,-2.519994 0,-1.759996 -1.159997,-2.559994 -1.119997,-0.799998 -3.599991,-1.319996 -3.079993,-0.599999 -4.759988,-1.919996 -1.679996,-1.359996 -1.679996,-3.87999 0,-2.079995 1.399996,-3.439992 1.439997,-1.399996 4.03999,-1.399996 1.799996,0 3.119993,0.599998 1.319996,0.559999 2.439994,1.319997 1.119997,0.759998 2.319994,1.359997 1.239997,0.559998 2.879993,0.559998 1.119997,0 1.999995,-0.279999 v -4.799988 l 2.119994,0.319999 v 18.159955 q 0,1.279997 0.2,1.959995 0.239999,0.639999 0.679998,0.999998 0.479999,0.479999 1.279997,0.599998 0.799998,0.08 1.719996,0.08 l -0.24,1.999995 h -0.359999 q -2.719993,0 -3.99999,-1.199997 -0.679998,-0.639998 -1.039997,-1.639996 -0.359999,-0.999997 -0.359999,-2.679993 V 58.458346 q -0.879998,0.199999 -2.039995,0.199999 -1.879996,0 -3.279992,-0.559998 -1.359997,-0.599999 -2.519994,-1.359997 -1.159997,-0.799998 -2.359994,-1.359996 -1.159997,-0.599999 -2.599994,-0.599999 -1.519996,0 -2.359994,0.799998 -0.839998,0.799998 -0.839998,2.119995 0,1.559996 1.159997,2.439994 1.159998,0.879998 3.799991,1.399996 2.999993,0.599999 4.599989,1.879996 1.639996,1.279996 1.639996,3.75999 0,1.999995 -1.079998,3.239992 -1.079997,1.239997 -2.839993,1.799996 -1.719995,0.519999 -3.75999,0.519999 -0.12,0 -0.2,0 1.159997,1.399996 2.319994,1.839995 1.199997,0.439999 2.919993,0.439999 h 0.439999 L 71.351103,77.0183 Z"
     style="font-size:39.9999px;line-height:1.25;font-family:'Noto Sans Gujarati';-inkscape-font-specification:'Noto Sans Gujarati, Light';font-weight:300"
     id="path358"
     transform="matrix(2.4106235,0,0,2.4106235,-125.23472,-96.662124)" />
</svg>
