<?xml version="1.0" encoding="UTF-8" standalone="no"?>
<svg
   width="84.178741"
   height="89"
   version="1.1"
   id="svg391"
   sodipodi:docname="3_gyee.svg"
   inkscape:version="1.2.1 (9c6d41e410, 2022-07-14)"
   xmlns:inkscape="http://www.inkscape.org/namespaces/inkscape"
   xmlns:sodipodi="http://sodipodi.sourceforge.net/DTD/sodipodi-0.dtd"
   xmlns="http://www.w3.org/2000/svg"
   xmlns:svg="http://www.w3.org/2000/svg">
  <defs
     id="defs395" />
  <sodipodi:namedview
     id="namedview393"
     pagecolor="#ffffff"
     bordercolor="#666666"
     borderopacity="1.0"
     inkscape:showpageshadow="2"
     inkscape:pageopacity="0.0"
     inkscape:pagecheckerboard="0"
     inkscape:deskcolor="#d1d1d1"
     showgrid="false"
     inkscape:zoom="1.809816"
     inkscape:cx="6.0779658"
     inkscape:cy="42.545761"
     inkscape:window-width="1920"
     inkscape:window-height="1027"
     inkscape:window-x="-8"
     inkscape:window-y="-8"
     inkscape:window-maximized="1"
     inkscape:current-layer="svg391" />
  <g
     aria-label="જ્ઞી"
     id="text399"
     style="font-size:39.9999px;line-height:1.25;font-family:'Noto Sans Gujarati';-inkscape-font-specification:'Noto Sans Gujarati, Normal'"
     transform="matrix(2.4106235,0,0,2.4106235,-138.38612,-54.039027)">
    <path
       d="m 68.526746,59.336942 q -2.519993,0 -4.199989,-1.119998 -1.679996,-1.119997 -3.239992,-3.359991 -1.759996,-0.28 -2.719993,-0.959998 -0.959998,-0.719998 -0.959998,-1.719996 0,-0.599998 0.399999,-1.079997 0.439999,-0.479999 1.239997,-0.479999 1.039997,0 1.879995,0.639999 0.879998,0.639998 1.679996,1.799995 0.799998,0.08 1.359997,0.08 2.639993,0 3.95999,-0.959998 1.359997,-0.959997 1.359997,-2.519993 0,-1.759996 -1.159998,-2.559994 -1.119997,-0.799998 -3.599991,-1.319997 -3.079992,-0.599998 -4.759988,-1.919995 -1.679996,-1.359997 -1.679996,-3.87999 0,-2.079995 1.399997,-3.439992 1.439996,-1.399996 4.03999,-1.399996 1.799995,0 3.119992,0.599998 1.319997,0.559999 2.439994,1.319997 1.119997,0.759998 2.319994,1.359996 1.239997,0.559999 2.879993,0.559999 1.119997,0 1.999995,-0.279999 v -4.799988 l 2.119995,0.319999 v 18.159955 q 0,1.279997 0.199999,1.959995 0.24,0.639998 0.679999,0.999998 0.479999,0.479998 1.279997,0.599998 0.799998,0.08 1.719995,0.08 l -0.239999,1.999995 h -0.359999 q -2.719993,0 -3.99999,-1.199997 -0.679999,-0.639999 -1.039998,-1.639996 -0.359999,-0.999998 -0.359999,-2.679993 V 40.776988 q -0.879998,0.199999 -2.039995,0.199999 -1.879995,0 -3.279992,-0.559998 -1.359996,-0.599999 -2.519993,-1.359997 -1.159998,-0.799998 -2.359995,-1.359997 -1.159997,-0.599998 -2.599993,-0.599998 -1.519996,0 -2.359994,0.799998 -0.839998,0.799998 -0.839998,2.119995 0,1.559996 1.159997,2.439993 1.159997,0.879998 3.799991,1.399997 2.999992,0.599999 4.599988,1.879995 1.639996,1.279997 1.639996,3.759991 0,1.999995 -1.079997,3.239992 -1.079998,1.239997 -2.839993,1.799996 -1.719996,0.519998 -3.759991,0.519998 -0.12,0 -0.199999,0 1.159997,1.399997 2.319994,1.839996 1.199997,0.439999 2.919993,0.439999 h 0.439999 l -0.24,1.999995 z"
       style="font-weight:300;-inkscape-font-specification:'Noto Sans Gujarati, Light'"
       id="path401" />
    <path
       d="m 91.726681,58.016945 q -1.199997,0 -2.239994,-0.24 -0.999998,-0.279999 -1.719996,-0.959997 -1.399997,-1.319997 -1.399997,-4.319989 V 33.817005 q -0.559998,-4.559989 -1.959995,-6.999983 -1.399996,-2.439994 -3.599991,-2.439994 -1.439996,0 -2.239994,1.039998 -0.799998,1.039997 -0.799998,3.079992 0,1.559996 0.239999,2.799993 H 75.96672 q -0.12,-0.599998 -0.199999,-1.439996 -0.12,-0.839998 -0.12,-1.599996 0,-2.639994 1.359996,-4.23999 1.319997,-1.599996 3.799991,-1.599996 2.359994,0 3.95999,1.599996 1.599996,1.559996 2.479994,4.15999 0.919998,2.559994 1.239997,5.519986 v 18.679954 q 0,1.319997 0.199999,1.959995 0.2,0.599999 0.679999,0.999998 0.479999,0.479998 1.279997,0.599998 0.799998,0.08 1.679995,0.08 l -0.199999,1.999995 z"
       style="font-weight:300;-inkscape-font-specification:'Noto Sans Gujarati, Light'"
       id="path403" />
  </g>
</svg>
