<svg xmlns="http://www.w3.org/2000/svg" xmlns:xlink="http://www.w3.org/1999/xlink" width="171.8" height="130.4"><path d="M52.80 90.60L52.80 90.60Q47.20 90.60 43.55 88.30Q39.90 86.00 38.15 82.10Q36.40 78.20 36.30 73.60L36.30 73.60Q36.30 66 40.45 59.75Q44.60 53.50 52.30 47.30L52.30 47.30Q47.50 42.20 41.75 38.95Q36 35.70 29.50 34.60L29.50 34.60Q31.20 36.90 32.30 39.80Q33.40 42.70 33.40 46.30L33.40 46.30Q33.40 52.70 29.80 56.90Q26.20 61.10 18.40 61.10L18.40 61.10Q11.60 61.10 7.70 56.95Q3.80 52.80 3.80 46.10L3.80 46.10Q3.80 41.30 6.20 37.50Q8.60 33.70 13.05 31.55Q17.50 29.40 23.50 29.40L23.50 29.40Q33 29.30 41.20 33.25Q49.40 37.20 56.20 44.30L56.20 44.30Q60.90 40.80 65.60 37.30Q70.30 33.80 76.90 29.20L76.90 29.20L80 33.50Q73.60 37.90 68.80 41.25Q64 44.60 59.40 48.10L59.40 48.10Q63.90 53.60 66.45 59.80Q69 66 69 73.10L69 73.10Q69 81.80 64.60 86.20Q60.20 90.60 52.80 90.60ZM9.20 46.20L9.20 46.20Q9.20 51.30 11.85 53.75Q14.50 56.20 18.40 56.20L18.40 56.20Q28.10 56.20 28.10 46.00L28.10 46.00Q28.10 39.30 23.50 34.10L23.50 34.10L23.10 34.10Q16.50 34.10 12.85 37.50Q9.20 40.90 9.20 46.20ZM41.80 73.60L41.80 73.60Q41.80 79.20 44.55 82.40Q47.30 85.60 52.80 85.60L52.80 85.60Q57.70 85.60 60.65 82.55Q63.60 79.50 63.60 73.10L63.60 73.10Q63.60 66.60 61.45 61.20Q59.30 55.80 55.50 51.00L55.50 51.00Q48 56.80 44.90 62.25Q41.80 67.70 41.80 73.60ZM96.10 112.20L91.80 114.80Q86.40 106.50 81.80 103.25Q77.20 100.00 71.40 100.00L71.40 100.00Q69.60 100.00 68.10 100.30Q66.60 100.60 65.40 101.00L65.40 101.00L63.80 96.20Q65.60 95.60 67.45 95.30Q69.30 95.00 71.60 95.00L71.60 95.00Q79.10 95.00 84.80 99.45Q90.50 103.90 96.10 112.20L96.10 112.20ZM99.90 71L99.90 71Q94.50 71 89.80 68.05Q85.10 65.10 80.90 58.60L80.90 58.60L85.30 55.70Q88.60 61.00 91.95 63.55Q95.30 66.10 99.80 66.10L99.80 66.10Q110.80 66.10 110.80 50.90L110.80 50.90Q110.80 42.80 107.70 38.55Q104.60 34.30 98.10 34.30L98.10 34.30Q95.10 34.30 92.25 35.05Q89.40 35.80 87.00 37.00L87.00 37.00L85.20 32.30Q91.70 29.30 98.20 29.40L98.20 29.40Q106.50 29.40 111.10 34.55Q115.70 39.70 116.10 49.40L116.10 49.40Q118.30 50.30 121.10 50.30L121.10 50.30Q127.10 50.30 131.20 46.80L131.20 46.80L131.20 29.30L136.50 30.10L136.50 75.50Q136.50 78.70 137.05 80.35Q137.60 82.00 138.70 82.90L138.70 82.90Q139.90 84.10 141.90 84.35Q143.90 84.60 146.20 84.60L146.20 84.60L145.60 89.60L144.70 89.60Q137.90 89.60 134.70 86.60L134.70 86.60Q133 85.00 132.10 82.50Q131.20 80 131.20 75.80L131.20 75.80L131.20 52.70Q127.10 55.20 121.30 55.20L121.30 55.20Q118.40 55.20 116.00 54.50L116.00 54.50Q115.20 63.40 110.75 67.20Q106.30 71 99.90 71ZM170.80 89.60L169.80 89.60Q166.80 89.60 164.25 88.95Q161.70 88.30 159.90 86.60L159.90 86.60Q156.40 83.30 156.40 75.80L156.40 75.80L156.40 29.10Q155.00 17.70 151.50 11.60Q148.00 5.50 142.50 5.50L142.50 5.50Q138.90 5.50 136.90 8.10Q134.90 10.70 134.90 15.80L134.90 15.80Q134.90 19.70 135.50 22.80L135.50 22.80L130.40 22.80Q130.10 21.30 129.85 19.20Q129.60 17.10 129.60 15.20L129.60 15.20Q129.60 8.60 132.95 4.60Q136.30 0.60 142.50 0.60L142.50 0.60Q148.40 0.60 152.40 4.55Q156.40 8.50 158.65 14.95Q160.90 21.40 161.70 28.80L161.70 28.80L161.70 75.50Q161.70 78.80 162.20 80.35Q162.70 81.90 163.90 82.90L163.90 82.90Q165.10 84.10 167.10 84.35Q169.10 84.60 171.30 84.60L171.30 84.60L170.80 89.60Z"/></svg>