<?xml version="1.0" encoding="UTF-8" standalone="no"?>
<svg
   width="65.164352"
   height="89"
   version="1.1"
   id="svg419"
   sodipodi:docname="4_gyu.svg"
   inkscape:version="1.2.1 (9c6d41e410, 2022-07-14)"
   xmlns:inkscape="http://www.inkscape.org/namespaces/inkscape"
   xmlns:sodipodi="http://sodipodi.sourceforge.net/DTD/sodipodi-0.dtd"
   xmlns="http://www.w3.org/2000/svg"
   xmlns:svg="http://www.w3.org/2000/svg">
  <defs
     id="defs423" />
  <sodipodi:namedview
     id="namedview421"
     pagecolor="#ffffff"
     bordercolor="#666666"
     borderopacity="1.0"
     inkscape:showpageshadow="2"
     inkscape:pageopacity="0.0"
     inkscape:pagecheckerboard="0"
     inkscape:deskcolor="#d1d1d1"
     showgrid="false"
     inkscape:zoom="1.809816"
     inkscape:cx="-6.6305082"
     inkscape:cy="28.732202"
     inkscape:window-width="1920"
     inkscape:window-height="1027"
     inkscape:window-x="-8"
     inkscape:window-y="-8"
     inkscape:window-maximized="1"
     inkscape:current-layer="svg419" />
  <path
     d="m 69.079286,62.099656 q -2.519994,0 -4.199989,-1.119997 -1.679996,-1.119997 -3.239992,-3.359992 -1.759996,-0.279999 -2.719994,-0.959998 -0.959997,-0.719998 -0.959997,-1.719995 0,-0.599999 0.399999,-1.079998 0.439999,-0.479998 1.239997,-0.479998 1.039997,0 1.879995,0.639998 0.879998,0.639998 1.679996,1.799996 0.799998,0.08 1.359997,0.08 2.639993,0 3.95999,-0.959997 1.359996,-0.959998 1.359996,-2.519994 0,-1.759996 -1.159997,-2.559994 -1.119997,-0.799998 -3.599991,-1.319996 -3.079992,-0.599999 -4.759988,-1.919996 -1.679996,-1.359996 -1.679996,-3.87999 0,-2.079995 1.399997,-3.439991 1.439996,-1.399997 4.03999,-1.399997 1.799995,0 3.119992,0.599999 1.319997,0.559998 2.439994,1.319996 1.119997,0.759998 2.319994,1.359997 1.239997,0.559998 2.879993,0.559998 1.119997,0 1.999995,-0.279999 V 36.65972 l 2.119995,0.319999 V 61.939656 H 76.839267 V 43.539702 q -0.879998,0.2 -2.039995,0.2 -1.879995,0 -3.279992,-0.559999 -1.359996,-0.599999 -2.519994,-1.359997 -1.159997,-0.799998 -2.359994,-1.359996 -1.159997,-0.599999 -2.599993,-0.599999 -1.519996,0 -2.359994,0.799998 -0.839998,0.799998 -0.839998,2.119995 0,1.559996 1.159997,2.439994 1.159997,0.879998 3.79999,1.399996 2.999993,0.599999 4.599989,1.879996 1.639996,1.279997 1.639996,3.75999 0,1.999995 -1.079997,3.239992 -1.079998,1.239997 -2.839993,1.799996 -1.719996,0.519999 -3.759991,0.519999 -0.12,0 -0.2,0 1.159998,1.399996 2.319995,1.839995 1.199997,0.439999 2.919992,0.439999 h 0.439999 l -0.239999,1.999995 z"
     id="path434"
     style="font-weight:300;font-size:39.9999px;line-height:1.25;font-family:'Noto Sans Gujarati';-inkscape-font-specification:'Noto Sans Gujarati, Light'"
     transform="matrix(2.5574777,0,0,2.5574777,-148.22965,-93.756416)" />
  <path
     d="m 76.759259,71.459633 q -2.639993,0 -4.679988,-0.919998 -2.079995,-0.879998 -3.719991,-2.399994 -1.679996,-1.519996 -3.079992,-3.439991 l 1.679996,-1.159998 q 2.039995,2.679994 4.279989,4.31999 2.239994,1.639996 5.519986,1.639996 2.279995,0 3.479992,-0.879998 1.199997,-0.879998 1.199997,-2.599994 0,-1.559996 -1.039998,-2.359994 -1.039997,-0.799998 -2.799993,-0.799998 -0.999997,0 -1.879995,0.2 -0.879998,0.239999 -1.759996,0.599998 l -0.719998,-1.799995 q 1.039997,-0.439999 2.079995,-0.679999 1.039997,-0.199999 2.159994,-0.199999 2.839993,0 4.39999,1.399996 1.559996,1.439997 1.559996,3.799991 0,2.479994 -1.759996,3.87999 -1.799995,1.399997 -4.919988,1.399997 z"
     id="path436"
     style="font-weight:300;font-size:39.9999px;line-height:1.25;font-family:'Noto Sans Gujarati';-inkscape-font-specification:'Noto Sans Gujarati, Light'"
     transform="matrix(2.5574777,0,0,2.5574777,-148.22965,-93.756416)" />
</svg>
