<?xml version="1.0" encoding="UTF-8" standalone="no"?><svg width="65.164352" height="89" version="1.1" id="svg419" sodipodi:docname="4_gyu.svg" inkscape:version="1.2.1 (9c6d41e4, 2022-07-14)" xmlns:inkscape="http://www.inkscape.org/namespaces/inkscape" xmlns:sodipodi="http://sodipodi.sourceforge.net/DTD/sodipodi-0.dtd" xmlns="http://www.w3.org/2000/svg" xmlns:svg="http://www.w3.org/2000/svg"><defs id="defs423"></defs><sodipodi:namedview id="namedview421" pagecolor="#ffffff" bordercolor="#666666" borderopacity="1.0" inkscape:showpageshadow="2" inkscape:pageopacity="0.0" inkscape:pagecheckerboard="0" inkscape:deskcolor="#d1d1d1" showgrid="false" inkscape:zoom="7.239264" inkscape:cx="30.251694" inkscape:cy="48.416524" inkscape:window-width="1309" inkscape:window-height="879" inkscape:window-x="117" inkscape:window-y="37" inkscape:window-maximized="0" inkscape:current-layer="g11307"></sodipodi:namedview><g id="g0" inkscape:label="g0" transform="scale(1.0785412,1.0789718)"><path d="m 26.368148,60.3 q -5.975516,0 -9.959192,-2.654715 Q 12.425279,54.990568 8.7261503,49.681132 4.5527734,49.017454 2.2763855,47.405659 0,45.699056 0,43.328774 0,41.906603 0.94849455,40.768866 1.9918388,39.631133 3.8888279,39.631133 q 2.4660849,0 4.4579237,1.51698 2.0866884,1.51698 3.9836774,4.266511 1.896989,0.189623 3.224883,0.189623 6.260063,0 9.390095,-2.27547 3.22488,-2.275474 3.22488,-5.973114 0,-4.1717 -2.750633,-6.067927 Q 22.763869,29.39151 16.883203,28.158965 9.5797952,26.736794 5.5961176,23.608019 1.61244,20.384436 1.61244,14.411321 q 0,-4.9301886 3.3197321,-8.1537722 3.4145795,-3.3183976 9.5797949,-3.3183976 4.268225,0 7.398257,1.4221711 3.130033,1.3273571 5.785817,3.128772 2.655785,1.8014149 5.501268,3.2235867 2.940334,1.327356 6.829162,1.327356 2.655784,0 4.742472,-0.663678 V 0 l 5.027022,0.75849012 V 59.920754 H 44.768943 V 16.307546 q -2.086688,0.474058 -4.837322,0.474058 -4.457924,0 -7.777656,-1.32736 -3.22488,-1.422171 -5.975516,-3.223586 -2.750634,-1.896226 -5.596118,-3.2235835 -2.750634,-1.422171 -6.165213,-1.422171 -3.604279,0 -5.596118,1.8962265 -1.9918388,1.896226 -1.9918388,5.025001 0,3.697641 2.750634,5.783491 2.7506338,2.08585 9.0106968,3.318395 7.113711,1.422171 10.907689,4.456134 3.888828,3.033963 3.888828,8.912262 0,4.740567 -2.560935,7.679718 -2.560937,2.939152 -6.734311,4.26651 -4.078528,1.232549 -8.91585,1.232549 -0.284549,0 -0.474249,0 2.750637,3.318395 5.501271,4.36132 2.845483,1.042925 6.924008,1.042925 h 1.043344 L 27.601192,60.3 Z" id="g0p0" style="font-weight:300;font-size:39.9999px;line-height:1.25;font-family:&apos;Noto Sans Gujarati&apos;;-inkscape-font-specification:&apos;Noto Sans Gujarati, Light&apos;;stroke-width:2.37076" inkscape:label="g0p0"></path><path style="fill:none;stroke:#000000;stroke-width:1px;stroke-linecap:butt;stroke-linejoin:miter;stroke-opacity:1" d="M 27.897572,57.971707 C 24.114831,57.822567 20.05195,57.503051 16.902099,55.168246 14.959796,53.728527 13.402435,51.890297 11.863132,50.048016 10.965121,48.973252 9.973629,46.052807 9.0338881,45.121445 8.4076682,44.500809 6.7868375,42.491339 4.7041809,42.088153 3.0832312,41.77435 1.5787629,43.019555 2.8829915,44.733568 c 1.2311965,1.618034 3.2645788,1.995008 5.6252559,2.456774 2.6378306,0.515979 3.1927006,0.645418 4.4279436,0.652014 4.153382,0.02218 8.506107,-0.08861 12.306684,-1.92394 3.231427,-1.560486 5.479417,-4.898519 5.526106,-8.559109 0.04148,-3.252492 -1.341563,-6.558031 -4.168425,-8.294551 C 22.792584,26.725548 18.299952,26.225152 14.097307,25.008286 10.781882,24.048312 7.0669826,22.634267 5.3767397,19.408955 3.6410922,16.097002 3.7786282,11.682786 6.1520351,8.6609843 8.5800052,5.569713 12.85163,4.9956812 16.521138,5.3796766 21.64056,5.9153982 25.772499,9.245612 30.05985,11.756231 c 3.038707,1.779429 6.509801,2.724822 10.026975,2.63977 2.071165,-0.05008 4.333243,-0.02016 6.154168,-1.035688 C 47.644527,12.57756 47.299,12.220196 47.297111,10.55833 47.2937,7.5584154 47.263091,3.0038184 47.257811,0.00390625" id="g0s0" sodipodi:nodetypes="cssssssssssssssssssc" inkscape:label="g0s0"></path><path style="fill:none;stroke:#000000;stroke-width:1px;stroke-linecap:butt;stroke-linejoin:miter;stroke-opacity:1" d="m 47.335937,11.467805 c 0.01102,11.124024 -0.04896,37.321811 0.05829,48.44506" id="g0s1" sodipodi:nodetypes="cc" inkscape:label="g0s1"></path></g><g id="g1" inkscape:label="g1" transform="matrix(1.0229956,0,0,1.0229771,16.47041,9.9236641e-4)"><path style="display:inline" d="m 30.9,87 v 0 Q 24.3,87 19.15,84.75 14,82.5 9.85,78.7 5.7,74.9 2.2,70.1 v 0 l 4.2,-2.9 q 5.1,6.7 10.7,10.8 5.6,4.1 13.8,4.1 v 0 q 5.7,0 8.7,-2.2 3,-2.2 3,-6.5 v 0 q 0,-3.9 -2.6,-5.9 -2.6,-2 -7,-2 v 0 q -2.5,0 -4.7,0.55 -2.2,0.55 -4.4,1.45 v 0 L 22.1,63 q 2.6,-1.1 5.2,-1.65 2.6,-0.55 5.4,-0.55 v 0 q 7.1,0 11,3.55 3.9,3.55 3.9,9.45 v 0 q 0,6.2 -4.45,9.7 Q 38.7,87 30.9,87 Z" id="g1p0" inkscape:label="g1p0"></path><path style="display:inline;fill:none;stroke:#000000;stroke-width:1px;stroke-linecap:butt;stroke-linejoin:miter;stroke-opacity:1" d="m 22.914062,65.289062 c 2.323807,-0.692195 4.562347,-1.731347 7.000658,-1.966609 3.549036,-0.376084 7.376537,-0.234926 10.53575,1.599631 2.719286,1.540051 4.469061,4.52798 4.601284,7.636307 0.253017,2.845818 -0.456653,5.883237 -2.460912,7.998761 -2.433486,2.67518 -6.157635,3.68678 -9.656459,3.920638 C 27.700261,84.79836 22.284886,83.938844 17.69019,81.310728 14.906965,79.755209 12.447616,77.671348 10.188095,75.437432 8.1199862,73.202596 6.1412982,70.891325 4.1757812,68.566406" id="g1s0" inkscape:label="g1s0"></path></g></svg>