<?xml version="1.0" encoding="UTF-8" standalone="no"?>
<svg
   width="65.164352"
   height="89"
   version="1.1"
   id="svg419"
   sodipodi:docname="4_gyu.svg"
   inkscape:version="1.2.1 (9c6d41e410, 2022-07-14)"
   xmlns:inkscape="http://www.inkscape.org/namespaces/inkscape"
   xmlns:sodipodi="http://sodipodi.sourceforge.net/DTD/sodipodi-0.dtd"
   xmlns="http://www.w3.org/2000/svg"
   xmlns:svg="http://www.w3.org/2000/svg">
  <defs
     id="defs423" />
  <sodipodi:namedview
     id="namedview421"
     pagecolor="#ffffff"
     bordercolor="#666666"
     borderopacity="1.0"
     inkscape:showpageshadow="2"
     inkscape:pageopacity="0.0"
     inkscape:pagecheckerboard="0"
     inkscape:deskcolor="#d1d1d1"
     showgrid="false"
     inkscape:zoom="7.239264"
     inkscape:cx="29.76822"
     inkscape:cy="48.071185"
     inkscape:window-width="1920"
     inkscape:window-height="1027"
     inkscape:window-x="-8"
     inkscape:window-y="-8"
     inkscape:window-maximized="1"
     inkscape:current-layer="svg419" />
  <g
     id="g11307"
     inkscape:label="g1"
     transform="scale(1.0785412,1.0789718)">
    <path
       d="m 69.079286,62.099656 q -2.519994,0 -4.199989,-1.119997 -1.679996,-1.119997 -3.239992,-3.359992 -1.759996,-0.279999 -2.719994,-0.959998 -0.959997,-0.719998 -0.959997,-1.719995 0,-0.599999 0.399999,-1.079998 0.439999,-0.479998 1.239997,-0.479998 1.039997,0 1.879995,0.639998 0.879998,0.639998 1.679996,1.799996 0.799998,0.08 1.359997,0.08 2.639993,0 3.95999,-0.959997 1.359996,-0.959998 1.359996,-2.519994 0,-1.759996 -1.159997,-2.559994 -1.119997,-0.799998 -3.599991,-1.319996 -3.079992,-0.599999 -4.759988,-1.919996 -1.679996,-1.359996 -1.679996,-3.87999 0,-2.079995 1.399997,-3.439991 1.439996,-1.399997 4.03999,-1.399997 1.799995,0 3.119992,0.599999 1.319997,0.559998 2.439994,1.319996 1.119997,0.759998 2.319994,1.359997 1.239997,0.559998 2.879993,0.559998 1.119997,0 1.999995,-0.279999 V 36.65972 l 2.119995,0.319999 V 61.939656 H 76.839267 V 43.539702 q -0.879998,0.2 -2.039995,0.2 -1.879995,0 -3.279992,-0.559999 -1.359996,-0.599999 -2.519994,-1.359997 -1.159997,-0.799998 -2.359994,-1.359996 -1.159997,-0.599999 -2.599993,-0.599999 -1.519996,0 -2.359994,0.799998 -0.839998,0.799998 -0.839998,2.119995 0,1.559996 1.159997,2.439994 1.159997,0.879998 3.79999,1.399996 2.999993,0.599999 4.599989,1.879996 1.639996,1.279997 1.639996,3.75999 0,1.999995 -1.079997,3.239992 -1.079998,1.239997 -2.839993,1.799996 -1.719996,0.519999 -3.759991,0.519999 -0.12,0 -0.2,0 1.159998,1.399996 2.319995,1.839995 1.199997,0.439999 2.919992,0.439999 h 0.439999 l -0.239999,1.999995 z"
       id="path434"
       style="font-weight:300;font-size:39.9999px;line-height:1.25;font-family:'Noto Sans Gujarati';-inkscape-font-specification:'Noto Sans Gujarati, Light'"
       transform="matrix(2.3712378,0,0,2.3702915,-137.43532,-86.894223)"
       inkscape:label="p1" />
    <path
       style="fill:none;stroke:#000000;stroke-width:1px;stroke-linecap:butt;stroke-linejoin:miter;stroke-opacity:1"
       d="M 27.897572,57.971707 C 24.114831,57.822567 20.05195,57.503051 16.902099,55.168246 14.959796,53.728527 13.402435,51.890297 11.863132,50.048016 10.965121,48.973252 9.973629,46.052807 9.0338881,45.121445 8.4076682,44.500809 6.7868375,42.491339 4.7041809,42.088153 3.0832312,41.77435 1.5787629,43.019555 2.8829915,44.733568 c 1.2311965,1.618034 3.2645788,1.995008 5.6252559,2.456774 2.6378306,0.515979 3.1927006,0.645418 4.4279436,0.652014 4.153382,0.02218 8.506107,-0.08861 12.306684,-1.92394 3.231427,-1.560486 5.479417,-4.898519 5.526106,-8.559109 0.04148,-3.252492 -1.341563,-6.558031 -4.168425,-8.294551 C 22.792584,26.725548 18.299952,26.225152 14.097307,25.008286 10.781882,24.048312 7.0669826,22.634267 5.3767397,19.408955 3.6410922,16.097002 3.7786282,11.682786 6.1520351,8.6609843 8.5800052,5.569713 12.85163,4.9956812 16.521138,5.3796766 21.64056,5.9153982 25.772499,9.245612 30.05985,11.756231 c 3.038707,1.779429 6.509801,2.724822 10.026975,2.63977 2.071165,-0.05008 4.333243,-0.02016 6.154168,-1.035688 C 47.644527,12.57756 47.299,12.220196 47.297111,10.55833 47.2937,7.5584154 47.263091,3.0038184 47.257811,0.00390625"
       id="path11288"
       sodipodi:nodetypes="cssssssssssssssssssc"
       inkscape:label="s1" />
    <path
       style="fill:none;stroke:#000000;stroke-width:1px;stroke-linecap:butt;stroke-linejoin:miter;stroke-opacity:1"
       d="m 47.335937,11.467805 c 0.01102,11.124024 -0.04896,37.321811 0.05829,48.44506"
       id="path11290"
       sodipodi:nodetypes="cc"
       inkscape:label="s2" />
  </g>
  <g
     id="g429"
     inkscape:label="g2"
     transform="matrix(1.0229956,0,0,1.0229771,16.47041,9.9236641e-4)">
    <path
       style="display:inline"
       d="m 30.9,87 v 0 Q 24.3,87 19.15,84.75 14,82.5 9.85,78.7 5.7,74.9 2.2,70.1 v 0 l 4.2,-2.9 q 5.1,6.7 10.7,10.8 5.6,4.1 13.8,4.1 v 0 q 5.7,0 8.7,-2.2 3,-2.2 3,-6.5 v 0 q 0,-3.9 -2.6,-5.9 -2.6,-2 -7,-2 v 0 q -2.5,0 -4.7,0.55 -2.2,0.55 -4.4,1.45 v 0 L 22.1,63 q 2.6,-1.1 5.2,-1.65 2.6,-0.55 5.4,-0.55 v 0 q 7.1,0 11,3.55 3.9,3.55 3.9,9.45 v 0 q 0,6.2 -4.45,9.7 Q 38.7,87 30.9,87 Z"
       id="path420"
       inkscape:label="p2" />
    <path
       style="display:inline;fill:none;stroke:#000000;stroke-width:1px;stroke-linecap:butt;stroke-linejoin:miter;stroke-opacity:1"
       d="m 22.914062,65.289062 c 2.323807,-0.692195 4.562347,-1.731347 7.000658,-1.966609 3.549036,-0.376084 7.376537,-0.234926 10.53575,1.599631 2.719286,1.540051 4.469061,4.52798 4.601284,7.636307 0.253017,2.845818 -0.456653,5.883237 -2.460912,7.998761 -2.433486,2.67518 -6.157635,3.68678 -9.656459,3.920638 C 27.700261,84.79836 22.284886,83.938844 17.69019,81.310728 14.906965,79.755209 12.447616,77.671348 10.188095,75.437432 8.1199862,73.202596 6.1412982,70.891325 4.1757812,68.566406"
       id="path198"
       inkscape:label="s3" />
  </g>
</svg>
