<?xml version="1.0" encoding="UTF-8" standalone="no"?><svg width="77.926247" height="89" version="1.1" id="svg459" sodipodi:docname="5_gyoo.svg" inkscape:version="1.2.1 (9c6d41e4, 2022-07-14)" xmlns:inkscape="http://www.inkscape.org/namespaces/inkscape" xmlns:sodipodi="http://sodipodi.sourceforge.net/DTD/sodipodi-0.dtd" xmlns="http://www.w3.org/2000/svg" xmlns:svg="http://www.w3.org/2000/svg"><defs id="defs463"></defs><sodipodi:namedview id="namedview461" pagecolor="#ffffff" bordercolor="#666666" borderopacity="1.0" inkscape:showpageshadow="2" inkscape:pageopacity="0.0" inkscape:pagecheckerboard="0" inkscape:deskcolor="#d1d1d1" showgrid="false" inkscape:zoom="5.1189327" inkscape:cx="21.293501" inkscape:cy="38.386908" inkscape:window-width="1309" inkscape:window-height="859" inkscape:window-x="66" inkscape:window-y="25" inkscape:window-maximized="0" inkscape:current-layer="g11307"></sodipodi:namedview><g id="g0" inkscape:label="g0" transform="matrix(1.0810266,0,0,1.0814582,4.0875031e-6,3.1537485e-7)"><path d="m 26.36826,60.300065 q -5.975542,0 -9.959235,-2.65472 Q 12.42533,54.990626 8.726185,49.681185 4.5527896,49.017506 2.2763918,47.405709 -3.7811309e-6,45.699105 -3.7811309e-6,43.32882 q 0,-1.422173 0.9484987411309,-2.55991 1.04334884,-1.137735 2.94034624,-1.137735 2.4660958,0 4.4579434,1.516982 2.0866974,1.516982 3.9836954,4.266515 1.896997,0.189623 3.224896,0.189623 6.260091,0 9.390137,-2.275472 3.224895,-2.275476 3.224895,-5.97312 0,-4.171705 -2.750647,-6.067933 Q 22.763966,29.391542 16.883273,28.158995 9.5798337,26.736822 5.5961385,23.608044 1.6124434,20.384457 1.6124434,14.411336 q 0,-4.9301939 3.3197467,-8.1537809 3.4145945,-3.318401 9.5798379,-3.318401 4.268243,0 7.398289,1.4221725 3.130046,1.3273585 5.785842,3.1287753 2.655796,1.8014169 5.501293,3.2235891 2.940346,1.327359 6.829191,1.327359 2.655796,0 4.742494,-0.663679 V -2.9162002e-7 L 49.796181,0.75849063 V 59.920818 H 44.769137 V 16.307562 q -2.086698,0.474059 -4.837344,0.474059 -4.457944,0 -7.77769,-1.327361 -3.224895,-1.422173 -5.975543,-3.223589 -2.750646,-1.896228 -5.596142,-3.2235873 -2.750646,-1.4221725 -6.165241,-1.4221725 -3.604294,0 -5.5961418,1.8962285 -1.9918476,1.8962283 -1.9918476,5.0250063 0,3.697645 2.7506461,5.783497 2.7506463,2.085852 9.0107373,3.318399 7.113741,1.422173 10.907736,4.456139 3.888845,3.033966 3.888845,8.912272 0,4.740572 -2.560946,7.679726 -2.560948,2.939154 -6.734341,4.266515 -4.078545,1.232549 -8.915889,1.232549 -0.28455,0 -0.474251,0 2.750649,3.318399 5.501295,4.361325 2.845496,1.042926 6.924039,1.042926 h 1.043349 l -0.569099,4.740571 z" id="g0p0" style="font-weight:300;font-size:39.9999px;line-height:1.25;font-family:&apos;Noto Sans Gujarati&apos;;-inkscape-font-specification:&apos;Noto Sans Gujarati, Light&apos;;stroke-width:2.37078" inkscape:label="g0p0"></path><path style="fill:none;stroke:#000000;stroke-width:1px;stroke-linecap:butt;stroke-linejoin:miter;stroke-opacity:1" d="M 27.897572,57.971707 C 24.114831,57.822567 20.05195,57.503051 16.902099,55.168246 14.959796,53.728527 13.402435,51.890297 11.863132,50.048016 10.965121,48.973252 9.973629,46.052807 9.0338881,45.121445 8.4076682,44.500809 6.7868375,42.491339 4.7041809,42.088153 3.0832312,41.77435 1.5787629,43.019555 2.8829915,44.733568 c 1.2311965,1.618034 3.2645788,1.995008 5.6252559,2.456774 2.6378306,0.515979 3.1927006,0.645418 4.4279436,0.652014 4.153382,0.02218 8.506107,-0.08861 12.306684,-1.92394 3.231427,-1.560486 5.479417,-4.898519 5.526106,-8.559109 0.04148,-3.252492 -1.341563,-6.558031 -4.168425,-8.294551 C 22.792584,26.725548 18.299952,26.225152 14.097307,25.008286 10.781882,24.048312 7.0669826,22.634267 5.3767397,19.408955 3.6410922,16.097002 3.7786282,11.682786 6.1520351,8.6609843 8.5800052,5.569713 12.85163,4.9956812 16.521138,5.3796766 21.64056,5.9153982 25.772499,9.245612 30.05985,11.756231 c 3.038707,1.779429 6.509801,2.724822 10.026975,2.63977 2.071165,-0.05008 4.333243,-0.02016 6.154168,-1.035688 C 47.644527,12.57756 47.299,12.220196 47.297111,10.55833 47.2937,7.5584154 47.263091,3.0038184 47.257811,0.00390625" id="g0s0" sodipodi:nodetypes="cssssssssssssssssssc" inkscape:label="g0s0"></path><path style="fill:none;stroke:#000000;stroke-width:1px;stroke-linecap:butt;stroke-linejoin:miter;stroke-opacity:1" d="m 47.335937,11.467805 c 0.01102,11.124024 -0.04896,37.321811 0.05829,48.44506" id="g0s1" sodipodi:nodetypes="cc" inkscape:label="g0s1"></path></g><g id="g1" inkscape:label="g1" transform="matrix(1.0253462,0,0,1.0253462,16.508085,-4.6153846e-5)"><path style="display:inline" d="m 29.1,86.8 v 0 q -7.1,0 -11,-3.6 -3.9,-3.6 -3.9,-9.5 v 0 q 0,-5.4 4.1,-9.15 4.1,-3.75 12,-3.75 v 0 q 7.3,0 12.65,2.75 5.35,2.75 9.45,7.1 4.1,4.35 7.5,9.25 v 0 l -4.1,2.7 q -3.7,-5.1 -7.35,-8.95 -3.65,-3.85 -8,-6 Q 36.1,65.5 30.5,65.5 v 0 q -5.8,0 -8.55,2.35 -2.75,2.35 -2.75,5.95 v 0 q 0,4.2 2.7,6.15 2.7,1.95 6.9,1.95 v 0 q 2.7,0 4.95,-0.55 Q 36,80.8 38.2,79.8 v 0 l 1.7,4.8 q -2.6,1 -5.3,1.6 -2.7,0.6 -5.5,0.6 z" id="g1p0" inkscape:label="g1p0"></path><path style="display:inline;fill:none;stroke:#000000;stroke-width:1px;stroke-linecap:butt;stroke-linejoin:miter;stroke-opacity:1" d="m 39.156038,82.101726 c -2.559475,0.870519 -5.086907,1.981239 -7.823193,2.132839 -3.656068,0.346073 -7.630959,0.02382 -10.710525,-2.159471 -1.994947,-1.389787 -3.307503,-3.602927 -3.721038,-5.984024 -0.524339,-2.865919 -0.09409,-6.035968 1.795561,-8.342771 1.97195,-2.740177 5.319724,-4.087889 8.589416,-4.419381 5.402628,-0.588506 11.078052,0.234292 15.808321,3.017688 4.134381,2.336077 7.55606,5.727729 10.466774,9.443934 1.484877,1.838423 2.884191,3.743963 4.305828,5.631338" id="g1s0" inkscape:label="g1s0"></path></g></svg>