<?xml version="1.0" encoding="UTF-8" standalone="no"?>
<svg
   width="77.926247"
   height="89"
   version="1.1"
   id="svg459"
   sodipodi:docname="5_gyoo.svg"
   inkscape:version="1.2.1 (9c6d41e410, 2022-07-14)"
   xmlns:inkscape="http://www.inkscape.org/namespaces/inkscape"
   xmlns:sodipodi="http://sodipodi.sourceforge.net/DTD/sodipodi-0.dtd"
   xmlns="http://www.w3.org/2000/svg"
   xmlns:svg="http://www.w3.org/2000/svg">
  <defs
     id="defs463" />
  <sodipodi:namedview
     id="namedview461"
     pagecolor="#ffffff"
     bordercolor="#666666"
     borderopacity="1.0"
     inkscape:showpageshadow="2"
     inkscape:pageopacity="0.0"
     inkscape:pagecheckerboard="0"
     inkscape:deskcolor="#d1d1d1"
     showgrid="false"
     inkscape:zoom="1.809816"
     inkscape:cx="-2.2101694"
     inkscape:cy="53.596608"
     inkscape:window-width="1920"
     inkscape:window-height="1027"
     inkscape:window-x="-8"
     inkscape:window-y="-8"
     inkscape:window-maximized="1"
     inkscape:current-layer="svg459" />
  <path
     d="m 64.658949,37.235249 q -2.519994,0 -4.19999,-1.119997 -1.679996,-1.119997 -3.239992,-3.359991 -1.759996,-0.28 -2.719993,-0.959998 -0.959998,-0.719998 -0.959998,-1.719996 0,-0.599998 0.399999,-1.079997 0.439999,-0.479999 1.239997,-0.479999 1.039997,0 1.879995,0.639998 0.879998,0.639999 1.679996,1.799996 0.799998,0.08 1.359997,0.08 2.639993,0 3.95999,-0.959998 1.359997,-0.959997 1.359997,-2.519994 0,-1.759995 -1.159997,-2.559993 -1.119998,-0.799998 -3.599992,-1.319997 -3.079992,-0.599998 -4.759988,-1.919995 -1.679996,-1.359997 -1.679996,-3.879991 0,-2.079994 1.399997,-3.439991 1.439996,-1.399997 4.03999,-1.399997 1.799995,0 3.119992,0.599999 1.319997,0.559999 2.439994,1.319997 1.119997,0.759998 2.319994,1.359996 1.239997,0.559999 2.879993,0.559999 1.119998,0 1.999995,-0.279999 v -4.799989 l 2.119995,0.32 V 37.07525 H 72.418929 V 18.675295 q -0.879997,0.2 -2.039995,0.2 -1.879995,0 -3.279991,-0.559999 -1.359997,-0.599998 -2.519994,-1.359996 -1.159997,-0.799998 -2.359994,-1.359997 -1.159998,-0.599998 -2.599994,-0.599998 -1.519996,0 -2.359994,0.799998 -0.839998,0.799998 -0.839998,2.119994 0,1.559996 1.159997,2.439994 1.159997,0.879998 3.799991,1.399997 2.999992,0.599998 4.599988,1.879995 1.639996,1.279997 1.639996,3.759991 0,1.999995 -1.079997,3.239992 -1.079997,1.239997 -2.839993,1.799995 -1.719996,0.519999 -3.759991,0.519999 -0.119999,0 -0.199999,0 1.159997,1.399997 2.319994,1.839995 1.199997,0.439999 2.919993,0.439999 h 0.439999 l -0.24,1.999995 z"
     style="font-size:39.9999px;line-height:1.25;font-family:'Noto Sans Gujarati';-inkscape-font-specification:'Noto Sans Gujarati, Light';font-weight:300"
     id="path469"
     transform="matrix(2.5633704,0,0,2.5633704,-137.24023,-30.235754)" />
  <path
     d="m 71.618923,46.515226 q -2.839993,0 -4.399989,-1.439996 -1.559996,-1.439996 -1.559996,-3.799991 0,-2.159994 1.639996,-3.67999 1.639996,-1.479997 4.799988,-1.479997 2.919993,0 5.079988,1.079998 2.119994,1.119997 3.75999,2.839992 1.639996,1.759996 2.999993,3.719991 l -1.639996,1.079998 q -1.479996,-2.039995 -2.959993,-3.599992 -1.439996,-1.519996 -3.159992,-2.399994 -1.759996,-0.839997 -3.99999,-0.839997 -2.319994,0 -3.399992,0.919997 -1.119997,0.959998 -1.119997,2.399994 0,1.679996 1.079998,2.439994 1.079997,0.799998 2.759993,0.799998 1.079997,0 1.999995,-0.239999 0.879998,-0.2 1.759995,-0.599999 l 0.679999,1.919996 q -1.039998,0.399999 -2.119995,0.639998 -1.079997,0.239999 -2.199995,0.239999 z"
     style="font-size:39.9999px;line-height:1.25;font-family:'Noto Sans Gujarati';-inkscape-font-specification:'Noto Sans Gujarati, Light';font-weight:300"
     id="path471"
     transform="matrix(2.5633704,0,0,2.5633704,-137.24023,-30.235754)" />
</svg>
