<?xml version="1.0" encoding="UTF-8" standalone="no"?>
<svg
   width="61.304573"
   height="89.000038"
   version="1.1"
   id="svg500"
   sodipodi:docname="6_gye.svg"
   inkscape:version="1.2.1 (9c6d41e410, 2022-07-14)"
   xmlns:inkscape="http://www.inkscape.org/namespaces/inkscape"
   xmlns:sodipodi="http://sodipodi.sourceforge.net/DTD/sodipodi-0.dtd"
   xmlns="http://www.w3.org/2000/svg"
   xmlns:svg="http://www.w3.org/2000/svg">
  <defs
     id="defs504" />
  <sodipodi:namedview
     id="namedview502"
     pagecolor="#ffffff"
     bordercolor="#666666"
     borderopacity="1.0"
     inkscape:showpageshadow="2"
     inkscape:pageopacity="0.0"
     inkscape:pagecheckerboard="0"
     inkscape:deskcolor="#d1d1d1"
     showgrid="false"
     inkscape:zoom="1.809816"
     inkscape:cx="2.7627117"
     inkscape:cy="54.14915"
     inkscape:window-width="1920"
     inkscape:window-height="1027"
     inkscape:window-x="-8"
     inkscape:window-y="-8"
     inkscape:window-maximized="1"
     inkscape:current-layer="svg500" />
  <path
     d="m 75.965888,100.0611 q -6.209305,0 -10.348842,-2.759689 -4.139537,-2.759691 -7.983393,-8.279074 -4.336658,-0.689923 -6.702107,-2.365449 -2.36545,-1.774088 -2.36545,-4.238098 0,-1.478406 0.985604,-2.661131 1.084165,-1.182724 3.055373,-1.182724 2.56257,0 4.632339,1.576966 2.168328,1.576967 4.139536,4.435218 1.971208,0.197121 3.351054,0.197121 6.504987,0 9.75748,-2.36545 3.351054,-2.365449 3.351054,-6.209305 0,-4.336658 -2.858252,-6.307866 -2.759691,-1.971208 -8.870436,-3.252493 -7.589151,-1.478406 -11.728688,-4.730899 -4.139537,-3.351054 -4.139537,-9.560359 0,-5.125141 3.449614,-8.476195 3.548175,-3.449614 9.954601,-3.449614 4.435218,0 7.687711,1.478406 3.252493,1.379846 6.012185,3.252493 2.759691,1.872648 5.716503,3.351054 3.055372,1.379846 7.096349,1.379846 2.759691,0 4.92802,-0.689923 V 37.376687 l 5.223704,0.788483 v 44.746422 q 0,3.153933 0.4928,4.82946 0.59136,1.576966 1.67553,2.46401 1.18272,1.182725 3.15393,1.478406 1.97121,0.197121 4.2381,0.197121 l -0.59137,4.92802 h -0.88704 q -6.70211,0 -9.85604,-2.956812 -1.675527,-1.576966 -2.56257,-4.040977 -0.887044,-2.46401 -0.887044,-6.603546 V 54.329076 q -2.168329,0.492802 -5.026581,0.492802 -4.632338,0 -8.081953,-1.379846 -3.351053,-1.478406 -6.209305,-3.351053 -2.858252,-1.971209 -5.815064,-3.351054 -2.858251,-1.478406 -6.406426,-1.478406 -3.745295,0 -5.815063,1.971208 -2.069769,1.971208 -2.069769,5.223701 0,3.843856 2.858252,6.012185 2.858251,2.168329 9.363238,3.449614 7.39203,1.478406 11.334446,4.632339 4.040977,3.153932 4.040977,9.264677 0,4.92802 -2.661131,7.983393 -2.661131,3.055372 -6.997789,4.435218 -4.238097,1.281285 -9.264678,1.281285 -0.295681,0 -0.492802,0 2.858252,3.449614 5.716504,4.533779 2.956812,1.084164 7.194909,1.084164 h 1.084165 l -0.591363,4.928018 z"
     style="font-size:98.5604px;line-height:1.25;font-family:'Noto Sans Gujarati';-inkscape-font-specification:'Noto Sans Gujarati, Light';stroke-width:2.46402;font-weight:300"
     id="path510"
     transform="translate(-48.566096,-11.061059)" />
  <path
     d="m 98.24052,32.448667 q -7.983393,0 -14.192698,-4.928021 -6.307866,-5.02658 -12.517171,-13.798456 l 4.139537,-2.661131 q 6.110745,8.673316 11.235885,12.615732 5.026581,3.843855 11.334447,3.843855 1.77409,0 3.35105,-0.295681 1.47841,-0.295681 2.75969,-0.689923 l 1.57697,4.7309 q -1.77409,0.591362 -3.64673,0.887043 -1.87265,0.295682 -4.04098,0.295682 z"
     style="font-size:98.5604px;line-height:1.25;font-family:'Noto Sans Gujarati';-inkscape-font-specification:'Noto Sans Gujarati, Light';stroke-width:2.46402;font-weight:300"
     id="path512"
     transform="translate(-48.566096,-11.061059)" />
</svg>
