<?xml version="1.0" encoding="UTF-8" standalone="no"?>
<svg
   width="59.588806"
   height="89"
   version="1.1"
   id="svg538"
   sodipodi:docname="7_gyai.svg"
   inkscape:version="1.2.1 (9c6d41e410, 2022-07-14)"
   xmlns:inkscape="http://www.inkscape.org/namespaces/inkscape"
   xmlns:sodipodi="http://sodipodi.sourceforge.net/DTD/sodipodi-0.dtd"
   xmlns="http://www.w3.org/2000/svg"
   xmlns:svg="http://www.w3.org/2000/svg">
  <defs
     id="defs542" />
  <sodipodi:namedview
     id="namedview540"
     pagecolor="#ffffff"
     bordercolor="#666666"
     borderopacity="1.0"
     inkscape:showpageshadow="2"
     inkscape:pageopacity="0.0"
     inkscape:pagecheckerboard="0"
     inkscape:deskcolor="#d1d1d1"
     showgrid="false"
     inkscape:zoom="1.809816"
     inkscape:cx="-14.366101"
     inkscape:cy="55.254235"
     inkscape:window-width="1920"
     inkscape:window-height="1027"
     inkscape:window-x="-8"
     inkscape:window-y="-8"
     inkscape:window-maximized="1"
     inkscape:current-layer="svg538" />
  <path
     d="m 76.814878,47.181012 q -2.519994,0 -4.199989,-1.119997 -1.679996,-1.119997 -3.239992,-3.359992 -1.759996,-0.279999 -2.719994,-0.959997 -0.959997,-0.719999 -0.959997,-1.719996 0,-0.599999 0.399999,-1.079998 0.439999,-0.479998 1.239997,-0.479998 1.039997,0 1.879995,0.639998 0.879998,0.639998 1.679996,1.799996 0.799998,0.08 1.359996,0.08 2.639994,0 3.959991,-0.959997 1.359996,-0.959998 1.359996,-2.519994 0,-1.759996 -1.159997,-2.559994 -1.119997,-0.799998 -3.599991,-1.319996 -3.079992,-0.599999 -4.759988,-1.919996 -1.679996,-1.359996 -1.679996,-3.87999 0,-2.079995 1.399997,-3.439991 1.439996,-1.399997 4.03999,-1.399997 1.799995,0 3.119992,0.599999 1.319997,0.559998 2.439994,1.319996 1.119997,0.759998 2.319994,1.359997 1.239997,0.559999 2.879993,0.559999 1.119997,0 1.999995,-0.28 v -4.799988 l 2.119995,0.319999 V 40.22103 q 0,1.279997 0.199999,1.959995 0.24,0.639999 0.679998,0.999998 0.479999,0.479999 1.279997,0.599998 0.799998,0.08 1.719996,0.08 l -0.239999,1.999995 h -0.36 q -2.719993,0 -3.99999,-1.199997 -0.679998,-0.639998 -1.039997,-1.639996 -0.359999,-0.999997 -0.359999,-2.679993 V 28.621058 q -0.879998,0.2 -2.039995,0.2 -1.879995,0 -3.279992,-0.559999 -1.359997,-0.599999 -2.519994,-1.359997 -1.159997,-0.799998 -2.359994,-1.359996 -1.159997,-0.599999 -2.599993,-0.599999 -1.519997,0 -2.359995,0.799998 -0.839997,0.799998 -0.839997,2.119995 0,1.559996 1.159997,2.439994 1.159997,0.879998 3.79999,1.399996 2.999993,0.599999 4.599989,1.879996 1.639996,1.279997 1.639996,3.75999 0,1.999995 -1.079998,3.239992 -1.079997,1.239997 -2.839992,1.799996 -1.719996,0.519999 -3.759991,0.519999 -0.12,0 -0.2,0 1.159997,1.399996 2.319995,1.839995 1.199997,0.439999 2.919992,0.439999 h 0.439999 l -0.239999,1.999995 z"
     style="font-size:39.9999px;line-height:1.25;font-family:'Noto Sans Gujarati';-inkscape-font-specification:'Noto Sans Gujarati, Light';font-weight:300"
     id="path548"
     transform="matrix(2.3950544,0,0,2.3950544,-157.34287,-24.001089)" />
  <path
     d="m 84.81485,20.221079 q -0.759998,-3.119992 -1.479996,-4.919988 -0.759998,-1.839995 -1.719996,-2.599993 -0.999997,-0.759999 -2.519993,-0.759999 -0.479999,0 -0.999998,0.08 -0.559999,0.08 -1.159997,0.28 l -0.599999,-1.839996 q 0.759999,-0.239999 1.479997,-0.319999 0.719998,-0.12 1.399996,-0.12 1.839996,0 3.199992,0.919998 1.319997,0.879998 2.319995,3.119992 0.999997,2.199995 1.839995,6.159985 z m -1.479996,0.439999 q -2.439994,-2.159995 -4.11999,-3.079993 -1.679996,-0.959997 -3.639991,-0.959997 -1.399996,0 -2.559993,0.359999 l -0.599999,-1.879995 q 0.719998,-0.16 1.519996,-0.28 0.759998,-0.119999 1.639996,-0.119999 1.519997,0 2.879993,0.479998 1.319997,0.479999 2.759993,1.559997 1.399997,1.039997 3.239992,2.759993 z"
     style="font-size:39.9999px;line-height:1.25;font-family:'Noto Sans Gujarati';-inkscape-font-specification:'Noto Sans Gujarati, Light';font-weight:300"
     id="path550"
     transform="matrix(2.3950544,0,0,2.3950544,-157.34287,-24.001089)" />
</svg>
