<?xml version="1.0" encoding="UTF-8" standalone="no"?>
<svg
   width="86.043167"
   height="89"
   version="1.1"
   id="svg576"
   sodipodi:docname="8_gyo.svg"
   inkscape:version="1.2.1 (9c6d41e410, 2022-07-14)"
   xmlns:inkscape="http://www.inkscape.org/namespaces/inkscape"
   xmlns:sodipodi="http://sodipodi.sourceforge.net/DTD/sodipodi-0.dtd"
   xmlns="http://www.w3.org/2000/svg"
   xmlns:svg="http://www.w3.org/2000/svg">
  <defs
     id="defs580" />
  <sodipodi:namedview
     id="namedview578"
     pagecolor="#ffffff"
     bordercolor="#666666"
     borderopacity="1.0"
     inkscape:showpageshadow="2"
     inkscape:pageopacity="0.0"
     inkscape:pagecheckerboard="0"
     inkscape:deskcolor="#d1d1d1"
     showgrid="false"
     inkscape:zoom="1.809816"
     inkscape:cx="44.203388"
     inkscape:cy="48.623727"
     inkscape:window-width="1920"
     inkscape:window-height="1027"
     inkscape:window-x="-8"
     inkscape:window-y="-8"
     inkscape:window-maximized="1"
     inkscape:current-layer="svg576" />
  <path
     d="m 30.401323,52.706433 q -2.519994,0 -4.19999,-1.119997 -1.679995,-1.119997 -3.239992,-3.359992 -1.759995,-0.279999 -2.719993,-0.959997 -0.959997,-0.719999 -0.959997,-1.719996 0,-0.599999 0.399999,-1.079997 0.439998,-0.479999 1.239996,-0.479999 1.039998,0 1.879996,0.639998 0.879998,0.639999 1.679996,1.799996 0.799998,0.08 1.359996,0.08 2.639994,0 3.95999,-0.959998 1.359997,-0.959998 1.359997,-2.519994 0,-1.759995 -1.159997,-2.559993 -1.119997,-0.799998 -3.599991,-1.319997 -3.079992,-0.599999 -4.759988,-1.919995 -1.679996,-1.359997 -1.679996,-3.879991 0,-2.079995 1.399996,-3.439991 1.439997,-1.399997 4.03999,-1.399997 1.799996,0 3.119993,0.599999 1.319996,0.559998 2.439994,1.319996 1.119997,0.759999 2.319994,1.359997 1.239997,0.559999 2.879993,0.559999 1.119997,0 1.999995,-0.28 v -4.799988 l 2.119994,0.319999 V 45.74645 q 0,1.279997 0.2,1.959996 0.239999,0.639998 0.679998,0.999997 0.479999,0.479999 1.279997,0.599999 0.799998,0.08 1.719996,0.08 l -0.24,1.999995 H 43.56129 q -2.719993,0 -3.99999,-1.199997 -0.679998,-0.639998 -1.039997,-1.639995 -0.359999,-0.999998 -0.359999,-2.679994 V 34.146479 q -0.879998,0.2 -2.039995,0.2 -1.879996,0 -3.279992,-0.559999 -1.359997,-0.599998 -2.519994,-1.359997 -1.159997,-0.799998 -2.359994,-1.359996 -1.159997,-0.599999 -2.599994,-0.599999 -1.519996,0 -2.359994,0.799998 -0.839998,0.799998 -0.839998,2.119995 0,1.559996 1.159998,2.439994 1.159997,0.879998 3.79999,1.399997 2.999993,0.599998 4.599989,1.879995 1.639996,1.279997 1.639996,3.759991 0,1.999995 -1.079998,3.239992 -1.079997,1.239996 -2.839993,1.799995 -1.719995,0.519999 -3.75999,0.519999 -0.12,0 -0.2,0 1.159997,1.399996 2.319994,1.839995 1.199997,0.439999 2.919993,0.439999 h 0.439999 l -0.239999,1.999995 z"
     style="font-size:39.9999px;line-height:1.25;font-family:'Noto Sans Gujarati';-inkscape-font-specification:'Noto Sans Gujarati, Light';font-weight:300"
     id="path586"
     transform="matrix(2.464015,0,0,2.464015,-47.509538,-40.869441)" />
  <path
     d="m 53.601258,51.386436 q -2.639994,0 -3.959991,-1.199997 Q 48.921269,49.546441 48.56127,48.546444 48.241271,47.546446 48.241271,45.86645 V 27.266496 l 2.119995,0.28 V 45.74645 q 0,1.319997 0.199999,1.959996 0.2,0.639998 0.719998,1.039997 0.479999,0.439999 1.199997,0.559999 0.759998,0.08 1.719996,0.08 l -0.199999,1.999995 z m -4.11999,-26.119935 q -3.239992,0 -5.759986,-1.999995 -2.559994,-2.039995 -5.079987,-5.599986 l 1.679995,-1.079997 q 2.479994,3.519991 4.519989,5.119987 2.079995,1.559996 4.639989,1.559996 0.719998,0 1.319996,-0.12 0.639999,-0.119999 1.159998,-0.279999 l 0.639998,1.919995 q -0.719998,0.24 -1.479996,0.36 -0.759998,0.119999 -1.639996,0.119999 z"
     style="font-size:39.9999px;line-height:1.25;font-family:'Noto Sans Gujarati';-inkscape-font-specification:'Noto Sans Gujarati, Light';font-weight:300"
     id="path588"
     transform="matrix(2.464015,0,0,2.464015,-47.509538,-40.869441)" />
</svg>
