<svg xmlns="http://www.w3.org/2000/svg" xmlns:xlink="http://www.w3.org/1999/xlink" width="171.8" height="130.4">
    <path
        d="M52.80 90.60L52.80 90.60Q47.20 90.60 43.55 88.30Q39.90 86.00 38.15 82.10Q36.40 78.20 36.30 73.60L36.30 73.60Q36.30 66 40.45 59.75Q44.60 53.50 52.30 47.30L52.30 47.30Q47.50 42.20 41.75 38.95Q36 35.70 29.50 34.60L29.50 34.60Q31.20 36.90 32.30 39.80Q33.40 42.70 33.40 46.30L33.40 46.30Q33.40 52.70 29.80 56.90Q26.20 61.10 18.40 61.10L18.40 61.10Q11.60 61.10 7.70 56.95Q3.80 52.80 3.80 46.10L3.80 46.10Q3.80 41.30 6.20 37.50Q8.60 33.70 13.05 31.55Q17.50 29.40 23.50 29.40L23.50 29.40Q33 29.30 41.20 33.25Q49.40 37.20 56.20 44.30L56.20 44.30Q60.90 40.80 65.60 37.30Q70.30 33.80 76.90 29.20L76.90 29.20L80 33.50Q73.60 37.90 68.80 41.25Q64 44.60 59.40 48.10L59.40 48.10Q63.90 53.60 66.45 59.80Q69 66 69 73.10L69 73.10Q69 81.80 64.60 86.20Q60.20 90.60 52.80 90.60ZM9.20 46.20L9.20 46.20Q9.20 51.30 11.85 53.75Q14.50 56.20 18.40 56.20L18.40 56.20Q28.10 56.20 28.10 46.00L28.10 46.00Q28.10 39.30 23.50 34.10L23.50 34.10L23.10 34.10Q16.50 34.10 12.85 37.50Q9.20 40.90 9.20 46.20ZM41.80 73.60L41.80 73.60Q41.80 79.20 44.55 82.40Q47.30 85.60 52.80 85.60L52.80 85.60Q57.70 85.60 60.65 82.55Q63.60 79.50 63.60 73.10L63.60 73.10Q63.60 66.60 61.45 61.20Q59.30 55.80 55.50 51.00L55.50 51.00Q48 56.80 44.90 62.25Q41.80 67.70 41.80 73.60ZM96.10 112.20L91.80 114.80Q86.40 106.50 81.80 103.25Q77.20 100.00 71.40 100.00L71.40 100.00Q69.60 100.00 68.10 100.30Q66.60 100.60 65.40 101.00L65.40 101.00L63.80 96.20Q65.60 95.60 67.45 95.30Q69.30 95.00 71.60 95.00L71.60 95.00Q79.10 95.00 84.80 99.45Q90.50 103.90 96.10 112.20L96.10 112.20ZM99.90 71L99.90 71Q94.50 71 89.80 68.05Q85.10 65.10 80.90 58.60L80.90 58.60L85.30 55.70Q88.60 61.00 91.95 63.55Q95.30 66.10 99.80 66.10L99.80 66.10Q110.80 66.10 110.80 50.90L110.80 50.90Q110.80 42.80 107.70 38.55Q104.60 34.30 98.10 34.30L98.10 34.30Q95.10 34.30 92.25 35.05Q89.40 35.80 87.00 37.00L87.00 37.00L85.20 32.30Q91.70 29.30 98.20 29.40L98.20 29.40Q106.50 29.40 111.10 34.55Q115.70 39.70 116.10 49.40L116.10 49.40Q118.30 50.30 121.10 50.30L121.10 50.30Q127.10 50.30 131.20 46.80L131.20 46.80L131.20 29.30L136.50 30.10L136.50 75.50Q136.50 78.70 137.05 80.35Q137.60 82.00 138.70 82.90L138.70 82.90Q139.90 84.10 141.90 84.35Q143.90 84.60 146.20 84.60L146.20 84.60L145.60 89.60L144.70 89.60Q137.90 89.60 134.70 86.60L134.70 86.60Q133 85.00 132.10 82.50Q131.20 80 131.20 75.80L131.20 75.80L131.20 52.70Q127.10 55.20 121.30 55.20L121.30 55.20Q118.40 55.20 116.00 54.50L116.00 54.50Q115.20 63.40 110.75 67.20Q106.30 71 99.90 71ZM170.80 89.60L169.80 89.60Q163.20 89.60 159.90 86.60L159.90 86.60Q158.10 85.00 157.25 82.50Q156.40 80 156.40 75.80L156.40 75.80L156.40 29.30L161.70 30.00L161.70 75.50Q161.70 78.80 162.20 80.40Q162.70 82.00 164.00 83.00L164.00 83.00Q165.20 84.10 167.05 84.35Q168.90 84.60 171.30 84.60L171.30 84.60L170.80 89.60ZM161.30 25.50L156.90 25.50Q155.00 17.70 153.15 13.15Q151.30 8.60 148.85 6.70Q146.40 4.80 142.60 4.80L142.60 4.80Q141.40 4.80 140.05 5Q138.70 5.20 137.20 5.70L137.20 5.70L135.70 1.10Q137.60 0.50 139.40 0.25Q141.20 0 142.90 0L142.90 0Q147.50 0 150.85 2.25Q154.20 4.50 156.70 10.05Q159.20 15.60 161.30 25.50L161.30 25.50ZM156.00 23.70L153.20 26.60Q147.10 21.20 142.90 18.85Q138.70 16.50 133.80 16.50L133.80 16.50Q130.30 16.50 127.40 17.40L127.40 17.40L125.90 12.70Q127.70 12.30 129.65 12Q131.60 11.70 133.80 11.70L133.80 11.70Q137.60 11.70 140.95 12.90Q144.30 14.10 147.85 16.75Q151.40 19.40 156.00 23.70L156.00 23.70Z" />
      <g
     id="g605"
     inkscape:label="g2">
    <path
       style="display:inline"
       d="m 70.7,89.6 h -1 q -6.6,0 -9.9,-3 v 0 Q 58,85 57.15,82.5 56.3,80 56.3,75.8 v 0 -46.5 l 5.3,0.7 v 45.5 q 0,3.3 0.5,4.9 0.5,1.6 1.8,2.6 v 0 q 1.2,1.1 3.05,1.35 1.85,0.25 4.25,0.25 v 0 z"
       id="path592"
       inkscape:label="p2" />
    <path
       style="display:inline;fill:none;stroke:#000000;stroke-width:1px;stroke-linecap:butt;stroke-linejoin:miter;stroke-opacity:1"
       d="m 58.945814,29.339077 c 0.0052,15.660703 -0.0419,31.322813 -0.004,46.982637 0.07316,2.661925 0.300705,5.531206 2.06529,7.674603 1.94562,2.285428 5.076188,2.956219 7.950186,3.001875 0.734456,0.05113 1.468913,0.102253 2.203369,0.15338"
       id="path81"
       inkscape:label="s3" />
  </g>
  <g
     id="g609"
     inkscape:label="g3">
    <path
       style="display:inline"
       d="m 55.9,23.7 -2.8,2.9 Q 47,21.2 42.8,18.85 38.6,16.5 33.7,16.5 v 0 q -3.5,0 -6.4,0.9 v 0 l -1.5,-4.7 q 1.8,-0.4 3.75,-0.7 1.95,-0.3 4.15,-0.3 v 0 q 3.8,0 7.15,1.2 3.35,1.2 6.9,3.85 3.55,2.65 8.15,6.95 z"
       id="path596"
       inkscape:label="p3" />
    <path
       style="display:inline;fill:none;stroke:#000000;stroke-width:1px;stroke-linecap:butt;stroke-linejoin:miter;stroke-opacity:1"
       d="m 26.306582,15.114407 c 2.688785,-0.568456 5.416241,-1.1935 8.183739,-0.988483 1.810938,0.02306 3.595689,0.410136 5.328375,0.908621 1.446215,0.495326 2.860202,1.115629 4.178036,1.890495 3.847011,2.308963 7.136989,5.387765 10.538424,8.281996"
       id="path905"
       inkscape:label="s4" />
  </g>
  <g
     id="g613"
     inkscape:label="g4">
    <path
       style="display:inline"
       d="M 61.2,25.5 H 56.8 Q 54.9,17.7 53.05,13.15 51.2,8.6 48.75,6.7 46.3,4.8 42.5,4.8 v 0 Q 41.3,4.8 39.95,5 38.6,5.2 37.1,5.7 v 0 L 35.6,1.1 Q 37.5,0.5 39.3,0.25 41.1,0 42.8,0 v 0 q 4.6,0 7.95,2.25 3.35,2.25 5.85,7.8 2.5,5.55 4.6,15.45 z"
       id="path594"
       inkscape:label="p4" />
    <path
       style="display:inline;fill:none;stroke:#000000;stroke-width:1px;stroke-linecap:butt;stroke-linejoin:miter;stroke-opacity:1"
       d="m 36.195028,3.4913397 2.773185,-0.7181553 0.82864,-0.1767767 0.806544,-0.099437 1.138,-0.088388 h 0.905981 l 1.027514,0.033146 0.983321,0.121534 0.872835,0.1325825 1.237436,0.2872621 1.071709,0.4198447 1.347922,0.6960582 1.016466,0.6960583 0.696059,0.5966213 0.82864,0.9612233 0.950175,1.2042912 0.839689,1.3368738 0.806544,1.6130879 0.651864,1.425262 0.662913,1.635184 0.53033,1.679379 0.50108,1.557697 0.367187,1.382813 0.5,1.734375 0.453125,1.757812 1.007035,3.936361"
       id="path970"
       inkscape:label="s5" />
  </g>
    <path style="fill:none;stroke:#000000;stroke-width:1px;stroke-linecap:butt;stroke-linejoin:miter;stroke-opacity:1"
        d="M 48.237941,103.97232 C 41.634737,103.77336 34.60434,103.15928 29.226809,98.880056 24.09286,95.180328 20.290494,89.988289 17.565796,84.326554 14.710458,80.158589 11.229552,74.555036 5.4960937,74.742186 c -5.94905102,2.365163 1.4729694,8.464069 5.1824213,8.892367 9.436044,3.284985 19.861936,3.162721 29.456866,0.648776 C 47.20934,82.28839 53.672621,76.424701 54.099554,68.735647 55.062949,61.773602 51.859702,54.213908 45.385728,51.016997 34.874965,44.868787 21.181665,46.272251 11.684158,38.067136 3.6618831,31.058677 4.346265,15.933889 13.967992,10.622359 c 7.858646,-4.3384165 17.780736,-2.8725109 25.454966,1.174438 9.215813,5.026573 17.757224,12.673898 28.76432,13.092025 4.295327,0.274696 8.701435,-0.222377 12.732254,-1.775269"
        id="path328"
        sodipodi:nodetypes="cccccccccccccccccccccccccccccccccccccccccccccccccccccccccccccccccccccccccccccccccccccccccccccccccccccccccccccccccccccccccccccccccccccccccccccccccccccccccccccccccccccccccccccccccccccccccccccccccccccccccccccccccccccccccccccccccccccccccc"
        inkscape:label="s1" />
    <path style="fill:none;stroke:#000000;stroke-width:1px;stroke-linecap:butt;stroke-linejoin:miter;stroke-opacity:1"
        d="m 82.53125,0.00390625 c 0.02847,27.19777275 -0.04632,54.39669575 0.04686,81.59374975 0.1679,5.163694 1.418669,10.859846 5.734375,14.171875 4.181504,3.295661 9.605898,3.254446 14.656245,3.257815"
        id="path330" inkscape:label="s2" />
</svg>