<?xml version="1.0" encoding="UTF-8" standalone="no"?>
<svg
   width="83.635071"
   height="89"
   version="1.1"
   id="svg15"
   sodipodi:docname="9_gyau.svg"
   inkscape:version="1.2.1 (9c6d41e410, 2022-07-14)"
   xmlns:inkscape="http://www.inkscape.org/namespaces/inkscape"
   xmlns:sodipodi="http://sodipodi.sourceforge.net/DTD/sodipodi-0.dtd"
   xmlns="http://www.w3.org/2000/svg"
   xmlns:svg="http://www.w3.org/2000/svg">
  <defs
     id="defs19" />
  <sodipodi:namedview
     id="namedview17"
     pagecolor="#ffffff"
     bordercolor="#666666"
     borderopacity="1.0"
     inkscape:showpageshadow="2"
     inkscape:pageopacity="0.0"
     inkscape:pagecheckerboard="0"
     inkscape:deskcolor="#d1d1d1"
     showgrid="false"
     inkscape:zoom="1.809816"
     inkscape:cx="39.230507"
     inkscape:cy="48.623727"
     inkscape:window-width="1920"
     inkscape:window-height="1027"
     inkscape:window-x="-8"
     inkscape:window-y="-8"
     inkscape:window-maximized="1"
     inkscape:current-layer="svg15" />
  <path
     d="m 35.374204,53.81152 q -2.519993,0 -4.199989,-1.119997 -1.679996,-1.119997 -3.239992,-3.359991 -1.759996,-0.28 -2.719994,-0.959998 -0.959997,-0.719998 -0.959997,-1.719996 0,-0.599998 0.399999,-1.079997 0.439999,-0.479999 1.239997,-0.479999 1.039997,0 1.879995,0.639999 0.879998,0.639998 1.679996,1.799995 0.799998,0.08 1.359997,0.08 2.639993,0 3.95999,-0.959998 1.359996,-0.959997 1.359996,-2.519994 0,-1.759995 -1.159997,-2.559993 -1.119997,-0.799998 -3.599991,-1.319997 -3.079992,-0.599998 -4.759988,-1.919995 -1.679996,-1.359997 -1.679996,-3.879991 0,-2.079994 1.399997,-3.439991 1.439996,-1.399997 4.03999,-1.399997 1.799995,0 3.119992,0.599999 1.319997,0.559999 2.439994,1.319997 1.119997,0.759998 2.319994,1.359996 1.239997,0.559999 2.879993,0.559999 1.119997,0 1.999995,-0.279999 v -4.799988 l 2.119995,0.319999 v 18.159955 q 0,1.279997 0.199999,1.959995 0.24,0.639998 0.679999,0.999997 0.479998,0.479999 1.279996,0.599999 0.799998,0.08 1.719996,0.08 l -0.239999,1.999995 h -0.359999 q -2.719994,0 -3.99999,-1.199997 -0.679999,-0.639999 -1.039998,-1.639996 -0.359999,-0.999998 -0.359999,-2.679994 V 35.251566 q -0.879998,0.2 -2.039995,0.2 -1.879995,0 -3.279992,-0.559999 -1.359996,-0.599998 -2.519994,-1.359996 -1.159997,-0.799998 -2.359994,-1.359997 -1.159997,-0.599998 -2.599993,-0.599998 -1.519996,0 -2.359994,0.799998 -0.839998,0.799998 -0.839998,2.119994 0,1.559997 1.159997,2.439994 1.159997,0.879998 3.79999,1.399997 2.999993,0.599998 4.599989,1.879995 1.639996,1.279997 1.639996,3.759991 0,1.999995 -1.079997,3.239992 -1.079998,1.239997 -2.839993,1.799995 -1.719996,0.519999 -3.759991,0.519999 -0.12,0 -0.2,0 1.159998,1.399997 2.319995,1.839996 1.199997,0.439998 2.919993,0.439998 h 0.439998 l -0.239999,1.999995 z"
     style="font-size:39.9999px;line-height:1.25;font-family:'Noto Sans Gujarati';-inkscape-font-specification:'Noto Sans Gujarati, Light';font-weight:300"
     id="path285"
     transform="matrix(2.3950544,0,0,2.3950544,-58.090205,-39.881519)" />
  <path
     d="m 58.574139,52.491524 q -2.639994,0 -3.95999,-1.199997 -0.719999,-0.639999 -1.079998,-1.639996 -0.319999,-0.999998 -0.319999,-2.679994 V 28.371584 l 2.119995,0.279999 v 18.199955 q 0,1.319996 0.199999,1.959995 0.2,0.639998 0.719999,1.039997 0.479998,0.439999 1.199997,0.559999 0.759998,0.08 1.719995,0.08 l -0.199999,1.999995 z M 53.414152,26.851587 Q 52.654154,23.731595 51.894155,21.9316 51.174157,20.091604 50.17416,19.331606 q -0.959998,-0.759998 -2.479994,-0.759998 -0.479999,0 -0.999998,0.08 -0.559998,0.08 -1.159997,0.279999 l -0.599998,-1.839995 q 0.759998,-0.24 1.479996,-0.32 0.719998,-0.119999 1.399997,-0.119999 1.839995,0 3.159992,0.919997 1.359996,0.879998 2.359994,3.119993 0.999997,2.199994 1.839995,6.159984 z m -1.479997,0.439999 q -2.439994,-2.159994 -4.119989,-3.079992 -1.679996,-0.959998 -3.639991,-0.959998 -1.399997,0 -2.559994,0.359999 L 41.014182,21.7316 q 0.719999,-0.16 1.519997,-0.279999 0.759998,-0.12 1.639996,-0.12 1.519996,0 2.879992,0.479999 1.319997,0.479999 2.719994,1.559996 1.439996,1.039997 3.279992,2.759993 z"
     style="font-size:39.9999px;line-height:1.25;font-family:'Noto Sans Gujarati';-inkscape-font-specification:'Noto Sans Gujarati, Light';font-weight:300"
     id="path287"
     transform="matrix(2.3950544,0,0,2.3950544,-58.090205,-39.881519)" />
</svg>
