<?xml version="1.0" encoding="UTF-8" standalone="no"?>
<svg
   width="50"
   height="60.299999"
   version="1.1"
   id="svg4"
   sodipodi:docname="0_t.svg"
   inkscape:version="1.2.1 (9c6d41e410, 2022-07-14)"
   xmlns:inkscape="http://www.inkscape.org/namespaces/inkscape"
   xmlns:sodipodi="http://sodipodi.sourceforge.net/DTD/sodipodi-0.dtd"
   xmlns="http://www.w3.org/2000/svg"
   xmlns:svg="http://www.w3.org/2000/svg">
  <defs
     id="defs8" />
  <sodipodi:namedview
     id="namedview6"
     pagecolor="#ffffff"
     bordercolor="#666666"
     borderopacity="1.0"
     inkscape:showpageshadow="2"
     inkscape:pageopacity="0.0"
     inkscape:pagecheckerboard="0"
     inkscape:deskcolor="#d1d1d1"
     showgrid="false"
     inkscape:zoom="11.313709"
     inkscape:cx="24.57196"
     inkscape:cy="29.610095"
     inkscape:window-width="1269"
     inkscape:window-height="481"
     inkscape:window-x="362"
     inkscape:window-y="144"
     inkscape:window-maximized="0"
     inkscape:current-layer="svg4" />
  <g
     id="g115"
     inkscape:label="g1"
     transform="scale(0.99951207,1)">
    <path
       d="M 20.5,55.3 17,59.1 Q 12.3,55.3 8.4,51.45 4.5,47.6 2.25,43.35 0,39.1 0,34.1 v 0 Q 0,30.5 1.2,27.65 2.4,24.8 4.7,22.9 v 0 Q 7.5,20.4 11.9,19.2 16.3,18 24.2,18 v 0 H 35.1 V 0 l 5.3,0.8 v 45.4 q 0,3.2 0.55,4.85 0.55,1.65 1.65,2.55 v 0 q 1.2,1.2 3.2,1.45 2,0.25 4.2,0.25 v 0 l -0.5,5 h -1 q -6.7,0 -9.9,-3 v 0 Q 36.9,55.7 36,53.2 35.1,50.7 35.1,46.5 v 0 V 23 H 23.7 q -6.6,0 -9.7,0.8 -3.1,0.8 -5.2,2.5 v 0 q -3.4,2.8 -3.4,7.8 v 0 q 0,6 4.25,10.95 Q 13.9,50 20.5,55.3 Z"
       id="path2"
       inkscape:label="p1" />
    <path
       style="fill:none;stroke:#000000;stroke-width:1px;stroke-linecap:butt;stroke-linejoin:miter;stroke-opacity:1"
       d="M 18.784433,57.159131 C 13.853171,52.945777 8.5474105,48.869077 5.1748022,43.216855 2.3389748,38.381324 1.6172911,31.897345 4.6214521,26.971549 7.4946466,22.643936 12.919033,21.03757 17.856984,20.736432 23.601356,20.296089 29.368729,20.577764 35.12332,20.500591"
       id="path280"
       inkscape:label="s1" />
    <path
       style="fill:none;stroke:#000000;stroke-width:1px;stroke-linecap:butt;stroke-linejoin:miter;stroke-opacity:1"
       d="m 37.777344,0 c 0.0064,15.846351 -0.05019,31.693376 -0.0043,47.539304 0.03559,2.977225 0.675936,6.323697 3.20837,8.211725 2.540865,2.046468 5.948679,1.852248 9.014647,2.026317"
       id="path282"
       inkscape:label="s2" />
  </g>
</svg>
