<svg xmlns="http://www.w3.org/2000/svg" xmlns:xlink="http://www.w3.org/1999/xlink" width="77.7" height="130.4"><path d="M25.30 84.60L21.80 88.40Q17.10 84.60 13.20 80.75Q9.30 76.90 7.05 72.65Q4.80 68.40 4.80 63.40L4.80 63.40Q4.80 59.80 6 56.95Q7.20 54.10 9.50 52.20L9.50 52.20Q12.30 49.70 16.70 48.50Q21.10 47.30 29 47.30L29 47.30L39.90 47.30L39.90 29.30L45.20 30.10L45.20 75.50Q45.20 78.70 45.75 80.35Q46.30 82.00 47.40 82.90L47.40 82.90Q48.60 84.10 50.60 84.35Q52.60 84.60 54.80 84.60L54.80 84.60L54.30 89.60L53.30 89.60Q46.60 89.60 43.40 86.60L43.40 86.60Q41.70 85.00 40.80 82.50Q39.90 80 39.90 75.80L39.90 75.80L39.90 52.30L28.50 52.30Q21.90 52.30 18.80 53.10Q15.70 53.90 13.60 55.60L13.60 55.60Q10.20 58.40 10.20 63.40L10.20 63.40Q10.20 69.40 14.45 74.35Q18.70 79.30 25.30 84.60L25.30 84.60ZM66.50 51.30L66.50 51.30Q64.70 51.30 63.30 49.95Q61.90 48.60 61.90 46.20L61.90 46.20Q61.90 43.80 63.25 42.45Q64.60 41.10 66.50 41.10L66.50 41.10Q68.50 41.10 69.80 42.45Q71.10 43.80 71.10 46.20L71.10 46.20Q71.10 48.70 69.75 50.00Q68.40 51.30 66.50 51.30ZM66.50 84.60L66.50 84.60Q64.70 84.60 63.30 83.25Q61.90 81.90 61.90 79.50L61.90 79.50Q61.90 77.10 63.25 75.75Q64.60 74.40 66.50 74.40L66.50 74.40Q68.50 74.40 69.80 75.75Q71.10 77.10 71.10 79.50L71.10 79.50Q71.10 82.00 69.75 83.30Q68.40 84.60 66.50 84.60Z"/></svg>