<svg xmlns="http://www.w3.org/2000/svg" xmlns:xlink="http://www.w3.org/1999/xlink" width="80.4" height="130.4">
    <path
        d="M25.30 84.60L21.80 88.40Q17.10 84.60 13.20 80.75Q9.30 76.90 7.05 72.65Q4.80 68.40 4.80 63.40L4.80 63.40Q4.80 59.80 6 56.95Q7.20 54.10 9.50 52.20L9.50 52.20Q12.30 49.70 16.70 48.50Q21.10 47.30 29 47.30L29 47.30L39.90 47.30L39.90 29.30L45.20 30.10L45.20 75.50Q45.20 78.70 45.75 80.35Q46.30 82.00 47.40 82.90L47.40 82.90Q48.60 84.10 50.60 84.35Q52.60 84.60 54.80 84.60L54.80 84.60L54.30 89.60L53.30 89.60Q46.60 89.60 43.40 86.60L43.40 86.60Q41.70 85.00 40.80 82.50Q39.90 80 39.90 75.80L39.90 75.80L39.90 52.30L28.50 52.30Q21.90 52.30 18.80 53.10Q15.70 53.90 13.60 55.60L13.60 55.60Q10.20 58.40 10.20 63.40L10.20 63.40Q10.20 69.40 14.45 74.35Q18.70 79.30 25.30 84.60L25.30 84.60ZM79.40 89.60L78.40 89.60Q71.80 89.60 68.50 86.60L68.50 86.60Q66.70 85.00 65.85 82.50Q65 80 65 75.80L65 75.80L65 29.30L70.30 30.00L70.30 75.50Q70.30 78.80 70.80 80.40Q71.30 82.00 72.60 83.00L72.60 83.00Q73.80 84.10 75.65 84.35Q77.50 84.60 79.90 84.60L79.90 84.60L79.40 89.60Z" />
      <g
     id="g225"
     inkscape:label="g2">
    <path
       style="display:inline"
       d="m 70.7,60.3 h -1 q -6.6,0 -9.9,-3 v 0 Q 58,55.7 57.15,53.2 56.3,50.7 56.3,46.5 v 0 V 0 l 5.3,0.7 v 45.5 q 0,3.3 0.5,4.9 0.5,1.6 1.8,2.6 v 0 q 1.2,1.1 3.05,1.35 1.85,0.25 4.25,0.25 v 0 z"
       id="path216"
       inkscape:label="p2" />
    <path
       style="display:inline;fill:none;stroke:#000000;stroke-width:1px;stroke-linecap:butt;stroke-linejoin:miter;stroke-opacity:1"
       d="m 58.96875,0.03125 c 0.0052,15.660703 -0.0419,31.322813 -0.004,46.982637 0.07316,2.661925 0.300704,5.531206 2.06529,7.674603 1.94562,2.285428 5.076187,2.956219 7.950186,3.001875 0.734456,0.05113 1.468913,0.102253 2.203369,0.15338"
       id="path81"
       inkscape:label="s3" />
  </g>
    <path style="fill:none;stroke:#000000;stroke-width:1px;stroke-linecap:butt;stroke-linejoin:miter;stroke-opacity:1"
        d="M 18.784433,57.159131 C 13.853171,52.945777 8.5474105,48.869077 5.1748022,43.216855 2.3389748,38.381324 1.6172911,31.897345 4.6214521,26.971549 7.4946466,22.643936 12.919033,21.03757 17.856984,20.736432 23.601356,20.296089 29.368729,20.577764 35.12332,20.500591"
        id="path280" inkscape:label="s1" />
    <path style="fill:none;stroke:#000000;stroke-width:1px;stroke-linecap:butt;stroke-linejoin:miter;stroke-opacity:1"
        d="m 37.777344,0 c 0.0064,15.846351 -0.05019,31.693376 -0.0043,47.539304 0.03559,2.977225 0.675936,6.323697 3.20837,8.211725 2.540865,2.046468 5.948679,1.852248 9.014647,2.026317"
        id="path282" inkscape:label="s2" />
</svg>