<svg xmlns="http://www.w3.org/2000/svg" xmlns:xlink="http://www.w3.org/1999/xlink" width="80.4" height="130.4"><path d="M24 89.60L23.10 89.60Q20 89.60 17.50 88.95Q15 88.30 13.20 86.60L13.20 86.60Q11.30 84.90 10.50 82.40Q9.70 79.90 9.70 75.80L9.70 75.80L9.70 22.40Q9.70 15.80 11.05 11.70Q12.40 7.60 15.80 4.70L15.80 4.70Q18 2.80 21.15 1.70Q24.30 0.60 28.40 0.60L28.40 0.60Q37.50 0.60 44.75 5.85Q52 11.10 59.30 19.60L59.30 19.60L55.40 22.70Q49 15.10 42.65 10.30Q36.30 5.50 28.70 5.50L28.70 5.50Q22.80 5.50 19.40 8.40L19.40 8.40Q17 10.50 16 14Q15 17.50 15 24.10L15 24.10L15 75.50Q15 78.70 15.50 80.35Q16 82.00 17.20 82.90L17.20 82.90Q18.40 84.10 20.35 84.35Q22.30 84.60 24.60 84.60L24.60 84.60L24 89.60ZM50.40 84.60L46.90 88.40Q42.20 84.60 38.30 80.75Q34.40 76.90 32.15 72.65Q29.90 68.40 29.90 63.40L29.90 63.40Q29.90 59.80 31.10 56.95Q32.30 54.10 34.60 52.20L34.60 52.20Q37.40 49.70 41.80 48.50Q46.20 47.30 54.10 47.30L54.10 47.30L65 47.30L65 29.30L70.30 30.10L70.30 75.50Q70.30 78.70 70.85 80.35Q71.40 82.00 72.50 82.90L72.50 82.90Q73.70 84.10 75.70 84.35Q77.70 84.60 79.90 84.60L79.90 84.60L79.40 89.60L78.40 89.60Q71.70 89.60 68.50 86.60L68.50 86.60Q66.80 85.00 65.90 82.50Q65 80 65 75.80L65 75.80L65 52.30L53.60 52.30Q47 52.30 43.90 53.10Q40.80 53.90 38.70 55.60L38.70 55.60Q35.30 58.40 35.30 63.40L35.30 63.40Q35.30 69.40 39.55 74.35Q43.80 79.30 50.40 84.60L50.40 84.60Z"/></svg>