<?xml version="1.0" encoding="UTF-8" standalone="no"?>
<svg
   width="75.099998"
   height="89"
   version="1.1"
   id="svg392"
   sodipodi:docname="3_tee.svg"
   inkscape:version="1.2.1 (9c6d41e410, 2022-07-14)"
   xmlns:inkscape="http://www.inkscape.org/namespaces/inkscape"
   xmlns:sodipodi="http://sodipodi.sourceforge.net/DTD/sodipodi-0.dtd"
   xmlns="http://www.w3.org/2000/svg"
   xmlns:svg="http://www.w3.org/2000/svg">
  <defs
     id="defs396" />
  <sodipodi:namedview
     id="namedview394"
     pagecolor="#ffffff"
     bordercolor="#666666"
     borderopacity="1.0"
     inkscape:showpageshadow="2"
     inkscape:pageopacity="0.0"
     inkscape:pagecheckerboard="0"
     inkscape:deskcolor="#d1d1d1"
     showgrid="false"
     inkscape:zoom="1.809816"
     inkscape:cx="35.638981"
     inkscape:cy="64.647455"
     inkscape:window-width="1920"
     inkscape:window-height="1027"
     inkscape:window-x="-8"
     inkscape:window-y="-8"
     inkscape:window-maximized="1"
     inkscape:current-layer="svg392" />
  <g
     id="g115"
     inkscape:label="g1"
     transform="matrix(0.99951207,0,0,1,0,28.700202)">
    <path
       d="M 20.5,55.3 17,59.1 Q 12.3,55.3 8.4,51.45 4.5,47.6 2.25,43.35 0,39.1 0,34.1 v 0 Q 0,30.5 1.2,27.65 2.4,24.8 4.7,22.9 v 0 Q 7.5,20.4 11.9,19.2 16.3,18 24.2,18 v 0 H 35.1 V 0 l 5.3,0.8 v 45.4 q 0,3.2 0.55,4.85 0.55,1.65 1.65,2.55 v 0 q 1.2,1.2 3.2,1.45 2,0.25 4.2,0.25 v 0 l -0.5,5 h -1 q -6.7,0 -9.9,-3 v 0 Q 36.9,55.7 36,53.2 35.1,50.7 35.1,46.5 v 0 V 23 H 23.7 q -6.6,0 -9.7,0.8 -3.1,0.8 -5.2,2.5 v 0 q -3.4,2.8 -3.4,7.8 v 0 q 0,6 4.25,10.95 Q 13.9,50 20.5,55.3 Z"
       id="path2"
       inkscape:label="p1" />
    <path
       style="fill:none;stroke:#000000;stroke-width:1px;stroke-linecap:butt;stroke-linejoin:miter;stroke-opacity:1"
       d="M 18.784433,57.159131 C 13.853171,52.945777 8.5474105,48.869077 5.1748022,43.216855 2.3389748,38.381324 1.6172911,31.897345 4.6214521,26.971549 7.4946466,22.643936 12.919033,21.03757 17.856984,20.736432 23.601356,20.296089 29.368729,20.577764 35.12332,20.500591"
       id="path280-8"
       inkscape:label="s1" />
    <path
       style="fill:none;stroke:#000000;stroke-width:1px;stroke-linecap:butt;stroke-linejoin:miter;stroke-opacity:1"
       d="m 37.777344,0 c 0.0064,15.846351 -0.05019,31.693376 -0.0043,47.539304 0.03559,2.977225 0.675936,6.323697 3.20837,8.211725 2.540865,2.046468 5.948679,1.852248 9.014647,2.026317"
       id="path282-5"
       inkscape:label="s2" />
  </g>
  <g
     id="g399"
     inkscape:label="g2"
     transform="matrix(0.99899518,0,0,1,3.9296422,0)">
    <path
       style="display:inline"
       d="m 70.7,89 h -1 q -3,0 -5.55,-0.65 Q 61.6,87.7 59.8,86 v 0 Q 56.3,82.7 56.3,75.2 v 0 -46.7 Q 54.9,17.1 51.4,11 47.9,4.9 42.4,4.9 v 0 q -3.6,0 -5.6,2.6 -2,2.6 -2,7.7 v 0 q 0,3.9 0.6,7 v 0 H 30.3 Q 30,20.7 29.75,18.6 29.5,16.5 29.5,14.6 v 0 Q 29.5,8 32.85,4 36.2,0 42.4,0 v 0 q 5.9,0 9.9,3.95 4,3.95 6.25,10.4 2.25,6.45 3.05,13.85 v 0 46.7 q 0,3.3 0.5,4.85 0.5,1.55 1.7,2.55 v 0 Q 65,83.5 67,83.75 69,84 71.2,84 v 0 z"
       id="path330"
       inkscape:label="p2" />
    <path
       style="display:inline;fill:none;stroke:#000000;stroke-width:1px;stroke-linecap:butt;stroke-linejoin:miter;stroke-opacity:1"
       d="M 32.90625,22.296875 C 32.189196,17.24716 31.309374,11.67002 33.948338,7.0048776 36.015851,3.1824285 40.814237,1.7827514 44.871275,2.7018315 c 5.299598,1.0610536 8.634255,5.9944562 10.53375,10.6924095 1.94946,4.911209 3.041647,10.154719 3.53254,15.40287 0.03373,16.081561 -0.05668,32.165472 0.05492,48.245568 0.09206,3.485135 1.641413,7.400064 5.196702,8.60873 2.224083,0.864628 4.672997,0.637872 7.006103,0.85642"
       id="path80"
       inkscape:label="s3" />
  </g>
</svg>
