<svg xmlns="http://www.w3.org/2000/svg" xmlns:xlink="http://www.w3.org/1999/xlink" width="80.4" height="130.4"><path d="M25.30 84.60L21.80 88.40Q17.10 84.60 13.20 80.75Q9.30 76.90 7.05 72.65Q4.80 68.40 4.80 63.40L4.80 63.40Q4.80 59.80 6 56.95Q7.20 54.10 9.50 52.20L9.50 52.20Q12.30 49.70 16.70 48.50Q21.10 47.30 29 47.30L29 47.30L39.90 47.30L39.90 29.30L45.20 30.10L45.20 75.50Q45.20 78.70 45.75 80.35Q46.30 82.00 47.40 82.90L47.40 82.90Q48.60 84.10 50.60 84.35Q52.60 84.60 54.80 84.60L54.80 84.60L54.30 89.60L53.30 89.60Q46.60 89.60 43.40 86.60L43.40 86.60Q41.70 85.00 40.80 82.50Q39.90 80 39.90 75.80L39.90 75.80L39.90 52.30L28.50 52.30Q21.90 52.30 18.80 53.10Q15.70 53.90 13.60 55.60L13.60 55.60Q10.20 58.40 10.20 63.40L10.20 63.40Q10.20 69.40 14.45 74.35Q18.70 79.30 25.30 84.60L25.30 84.60ZM79.40 89.60L78.40 89.60Q75.40 89.60 72.85 88.95Q70.30 88.30 68.50 86.60L68.50 86.60Q65 83.30 65 75.80L65 75.80L65 29.10Q63.60 17.70 60.10 11.60Q56.60 5.50 51.10 5.50L51.10 5.50Q47.50 5.50 45.50 8.10Q43.50 10.70 43.50 15.80L43.50 15.80Q43.50 19.70 44.10 22.80L44.10 22.80L39 22.80Q38.70 21.30 38.45 19.20Q38.20 17.10 38.20 15.20L38.20 15.20Q38.20 8.60 41.55 4.60Q44.90 0.60 51.10 0.60L51.10 0.60Q57.00 0.60 61.00 4.55Q65 8.50 67.25 14.95Q69.50 21.40 70.30 28.80L70.30 28.80L70.30 75.50Q70.30 78.80 70.80 80.35Q71.30 81.90 72.50 82.90L72.50 82.90Q73.70 84.10 75.70 84.35Q77.70 84.60 79.90 84.60L79.90 84.60L79.40 89.60Z"/></svg>