<svg xmlns="http://www.w3.org/2000/svg" xmlns:xlink="http://www.w3.org/1999/xlink" width="80.4" height="130.4">
    <path
        d="M25.30 84.60L21.80 88.40Q17.10 84.60 13.20 80.75Q9.30 76.90 7.05 72.65Q4.80 68.40 4.80 63.40L4.80 63.40Q4.80 59.80 6 56.95Q7.20 54.10 9.50 52.20L9.50 52.20Q12.30 49.70 16.70 48.50Q21.10 47.30 29 47.30L29 47.30L39.90 47.30L39.90 29.30L45.20 30.10L45.20 75.50Q45.20 78.70 45.75 80.35Q46.30 82.00 47.40 82.90L47.40 82.90Q48.60 84.10 50.60 84.35Q52.60 84.60 54.80 84.60L54.80 84.60L54.30 89.60L53.30 89.60Q46.60 89.60 43.40 86.60L43.40 86.60Q41.70 85.00 40.80 82.50Q39.90 80 39.90 75.80L39.90 75.80L39.90 52.30L28.50 52.30Q21.90 52.30 18.80 53.10Q15.70 53.90 13.60 55.60L13.60 55.60Q10.20 58.40 10.20 63.40L10.20 63.40Q10.20 69.40 14.45 74.35Q18.70 79.30 25.30 84.60L25.30 84.60ZM79.40 89.60L78.40 89.60Q75.40 89.60 72.85 88.95Q70.30 88.30 68.50 86.60L68.50 86.60Q65 83.30 65 75.80L65 75.80L65 29.10Q63.60 17.70 60.10 11.60Q56.60 5.50 51.10 5.50L51.10 5.50Q47.50 5.50 45.50 8.10Q43.50 10.70 43.50 15.80L43.50 15.80Q43.50 19.70 44.10 22.80L44.10 22.80L39 22.80Q38.70 21.30 38.45 19.20Q38.20 17.10 38.20 15.20L38.20 15.20Q38.20 8.60 41.55 4.60Q44.90 0.60 51.10 0.60L51.10 0.60Q57.00 0.60 61.00 4.55Q65 8.50 67.25 14.95Q69.50 21.40 70.30 28.80L70.30 28.80L70.30 75.50Q70.30 78.80 70.80 80.35Q71.30 81.90 72.50 82.90L72.50 82.90Q73.70 84.10 75.70 84.35Q77.70 84.60 79.90 84.60L79.90 84.60L79.40 89.60Z" />
      <g
     id="g399"
     inkscape:label="g2">
    <path
       style="display:inline"
       d="m 70.7,89 h -1 q -3,0 -5.55,-0.65 Q 61.6,87.7 59.8,86 v 0 Q 56.3,82.7 56.3,75.2 v 0 -46.7 Q 54.9,17.1 51.4,11 47.9,4.9 42.4,4.9 v 0 q -3.6,0 -5.6,2.6 -2,2.6 -2,7.7 v 0 q 0,3.9 0.6,7 v 0 H 30.3 Q 30,20.7 29.75,18.6 29.5,16.5 29.5,14.6 v 0 Q 29.5,8 32.85,4 36.2,0 42.4,0 v 0 q 5.9,0 9.9,3.95 4,3.95 6.25,10.4 2.25,6.45 3.05,13.85 v 0 46.7 q 0,3.3 0.5,4.85 0.5,1.55 1.7,2.55 v 0 Q 65,83.5 67,83.75 69,84 71.2,84 v 0 z"
       id="path330"
       inkscape:label="p2" />
    <path
       style="display:inline;fill:none;stroke:#000000;stroke-width:1px;stroke-linecap:butt;stroke-linejoin:miter;stroke-opacity:1"
       d="M 32.90625,22.296875 C 32.189196,17.24716 31.309374,11.67002 33.948338,7.0048776 36.015851,3.1824285 40.814237,1.7827514 44.871275,2.7018315 c 5.299598,1.0610536 8.634255,5.9944562 10.53375,10.6924095 1.94946,4.911209 3.041647,10.154719 3.53254,15.40287 0.03373,16.081561 -0.05668,32.165472 0.05492,48.245568 0.09206,3.485135 1.641413,7.400064 5.196702,8.60873 2.224083,0.864628 4.672997,0.637872 7.006103,0.85642"
       id="path80"
       inkscape:label="s3" />
  </g>
    <path style="fill:none;stroke:#000000;stroke-width:1px;stroke-linecap:butt;stroke-linejoin:miter;stroke-opacity:1"
        d="M 18.784433,57.159131 C 13.853171,52.945777 8.5474105,48.869077 5.1748022,43.216855 2.3389748,38.381324 1.6172911,31.897345 4.6214521,26.971549 7.4946466,22.643936 12.919033,21.03757 17.856984,20.736432 23.601356,20.296089 29.368729,20.577764 35.12332,20.500591"
        id="path280" inkscape:label="s1" />
    <path style="fill:none;stroke:#000000;stroke-width:1px;stroke-linecap:butt;stroke-linejoin:miter;stroke-opacity:1"
        d="m 37.777344,0 c 0.0064,15.846351 -0.05019,31.693376 -0.0043,47.539304 0.03559,2.977225 0.675936,6.323697 3.20837,8.211725 2.540865,2.046468 5.948679,1.852248 9.014647,2.026317"
        id="path282" inkscape:label="s2" />
</svg>