<svg xmlns="http://www.w3.org/2000/svg" xmlns:xlink="http://www.w3.org/1999/xlink" width="55.300000000000004" height="130.4"><path d="M25.30 84.60L21.80 88.40Q17.10 84.60 13.20 80.75Q9.30 76.90 7.05 72.65Q4.80 68.40 4.80 63.40L4.80 63.40Q4.80 59.80 6 56.95Q7.20 54.10 9.50 52.20L9.50 52.20Q12.30 49.70 16.70 48.50Q21.10 47.30 29 47.30L29 47.30L39.90 47.30L39.90 29.30L45.20 30.10L45.20 75.50Q45.20 78.70 45.75 80.35Q46.30 82.00 47.40 82.90L47.40 82.90Q48.60 84.10 50.60 84.35Q52.60 84.60 54.80 84.60L54.80 84.60L54.30 89.60L53.30 89.60Q46.60 89.60 43.40 86.60L43.40 86.60Q41.70 85.00 40.80 82.50Q39.90 80 39.90 75.80L39.90 75.80L39.90 52.30L28.50 52.30Q21.90 52.30 18.80 53.10Q15.70 53.90 13.60 55.60L13.60 55.60Q10.20 58.40 10.20 63.40L10.20 63.40Q10.20 69.40 14.45 74.35Q18.70 79.30 25.30 84.60L25.30 84.60ZM39.60 116.30L39.60 116.30Q33 116.30 27.85 114.05Q22.70 111.80 18.55 108.00Q14.40 104.20 10.90 99.40L10.90 99.40L15.10 96.50Q20.20 103.20 25.80 107.30Q31.40 111.40 39.60 111.40L39.60 111.40Q45.30 111.40 48.30 109.20Q51.30 107.00 51.30 102.70L51.30 102.70Q51.30 98.80 48.70 96.80Q46.10 94.80 41.70 94.80L41.70 94.80Q39.20 94.80 37 95.35Q34.80 95.90 32.60 96.80L32.60 96.80L30.80 92.30Q33.40 91.20 36 90.65Q38.60 90.10 41.40 90.10L41.40 90.10Q48.50 90.10 52.40 93.65Q56.30 97.20 56.30 103.10L56.30 103.10Q56.30 109.30 51.85 112.80Q47.40 116.30 39.60 116.30Z"/></svg>