<svg xmlns="http://www.w3.org/2000/svg" xmlns:xlink="http://www.w3.org/1999/xlink" width="55.300000000000004"
    height="130.4">
    <path
        d="M25.30 84.60L21.80 88.40Q17.10 84.60 13.20 80.75Q9.30 76.90 7.05 72.65Q4.80 68.40 4.80 63.40L4.80 63.40Q4.80 59.80 6 56.95Q7.20 54.10 9.50 52.20L9.50 52.20Q12.30 49.70 16.70 48.50Q21.10 47.30 29 47.30L29 47.30L39.90 47.30L39.90 29.30L45.20 30.10L45.20 75.50Q45.20 78.70 45.75 80.35Q46.30 82.00 47.40 82.90L47.40 82.90Q48.60 84.10 50.60 84.35Q52.60 84.60 54.80 84.60L54.80 84.60L54.30 89.60L53.30 89.60Q46.60 89.60 43.40 86.60L43.40 86.60Q41.70 85.00 40.80 82.50Q39.90 80 39.90 75.80L39.90 75.80L39.90 52.30L28.50 52.30Q21.90 52.30 18.80 53.10Q15.70 53.90 13.60 55.60L13.60 55.60Q10.20 58.40 10.20 63.40L10.20 63.40Q10.20 69.40 14.45 74.35Q18.70 79.30 25.30 84.60L25.30 84.60ZM37.80 116.10L37.80 116.10Q30.70 116.10 26.80 112.50Q22.90 108.90 22.90 103.00L22.90 103.00Q22.90 97.60 27.00 93.85Q31.10 90.10 39 90.10L39 90.10Q46.30 90.10 51.65 92.85Q57.00 95.60 61.10 99.95Q65.20 104.30 68.60 109.20L68.60 109.20L64.50 111.90Q60.80 106.80 57.15 102.95Q53.50 99.10 49.15 96.95Q44.80 94.80 39.20 94.80L39.20 94.80Q33.40 94.80 30.65 97.15Q27.90 99.50 27.90 103.10L27.90 103.10Q27.90 107.30 30.60 109.25Q33.30 111.20 37.50 111.20L37.50 111.20Q40.20 111.20 42.45 110.65Q44.70 110.10 46.90 109.10L46.90 109.10L48.60 113.90Q46 114.90 43.30 115.50Q40.60 116.10 37.80 116.10Z" />
    <g
     id="g459"
     inkscape:label="g2">
    <path
       style="display:inline"
       d="m 29.1,86.8 v 0 q -7.1,0 -11,-3.6 -3.9,-3.6 -3.9,-9.5 v 0 q 0,-5.4 4.1,-9.15 4.1,-3.75 12,-3.75 v 0 q 7.3,0 12.65,2.75 5.35,2.75 9.45,7.1 4.1,4.35 7.5,9.25 v 0 l -4.1,2.7 q -3.7,-5.1 -7.35,-8.95 -3.65,-3.85 -8,-6 Q 36.1,65.5 30.5,65.5 v 0 q -5.8,0 -8.55,2.35 -2.75,2.35 -2.75,5.95 v 0 q 0,4.2 2.7,6.15 2.7,1.95 6.9,1.95 v 0 q 2.7,0 4.95,-0.55 Q 36,80.8 38.2,79.8 v 0 l 1.7,4.8 q -2.6,1 -5.3,1.6 -2.7,0.6 -5.5,0.6 z"
       id="path450"
       inkscape:label="p2" />
    <path
       style="display:inline;fill:none;stroke:#000000;stroke-width:1px;stroke-linecap:butt;stroke-linejoin:miter;stroke-opacity:1"
       d="m 39.156038,82.101726 c -2.559475,0.870519 -5.086907,1.981239 -7.823193,2.132839 -3.656068,0.346073 -7.630959,0.02382 -10.710525,-2.159471 -1.994947,-1.389787 -3.307503,-3.602927 -3.721038,-5.984024 -0.524339,-2.865919 -0.09409,-6.035968 1.795561,-8.342771 1.97195,-2.740177 5.319724,-4.087889 8.589416,-4.419381 5.402628,-0.588506 11.078052,0.234292 15.808321,3.017688 4.134381,2.336077 7.55606,5.727729 10.466774,9.443934 1.484877,1.838423 2.884191,3.743963 4.305828,5.631338"
       id="path546"
       inkscape:label="s3" />
  </g>
    <path style="fill:none;stroke:#000000;stroke-width:1px;stroke-linecap:butt;stroke-linejoin:miter;stroke-opacity:1"
        d="M 18.784433,57.159131 C 13.853171,52.945777 8.5474105,48.869077 5.1748022,43.216855 2.3389748,38.381324 1.6172911,31.897345 4.6214521,26.971549 7.4946466,22.643936 12.919033,21.03757 17.856984,20.736432 23.601356,20.296089 29.368729,20.577764 35.12332,20.500591"
        id="path280" inkscape:label="s1" />
    <path style="fill:none;stroke:#000000;stroke-width:1px;stroke-linecap:butt;stroke-linejoin:miter;stroke-opacity:1"
        d="m 37.777344,0 c 0.0064,15.846351 -0.05019,31.693376 -0.0043,47.539304 0.03559,2.977225 0.675936,6.323697 3.20837,8.211725 2.540865,2.046468 5.948679,1.852248 9.014647,2.026317"
        id="path282" inkscape:label="s2" />
</svg>