<svg xmlns="http://www.w3.org/2000/svg" xmlns:xlink="http://www.w3.org/1999/xlink" width="55.300000000000004" height="130.4"><path d="M25.30 84.60L21.80 88.40Q17.10 84.60 13.20 80.75Q9.30 76.90 7.05 72.65Q4.80 68.40 4.80 63.40L4.80 63.40Q4.80 59.80 6 56.95Q7.20 54.10 9.50 52.20L9.50 52.20Q12.30 49.70 16.70 48.50Q21.10 47.30 29 47.30L29 47.30L39.90 47.30L39.90 29.30L45.20 30.10L45.20 75.50Q45.20 78.70 45.75 80.35Q46.30 82.00 47.40 82.90L47.40 82.90Q48.60 84.10 50.60 84.35Q52.60 84.60 54.80 84.60L54.80 84.60L54.30 89.60L53.30 89.60Q46.60 89.60 43.40 86.60L43.40 86.60Q41.70 85.00 40.80 82.50Q39.90 80 39.90 75.80L39.90 75.80L39.90 52.30L28.50 52.30Q21.90 52.30 18.80 53.10Q15.70 53.90 13.60 55.60L13.60 55.60Q10.20 58.40 10.20 63.40L10.20 63.40Q10.20 69.40 14.45 74.35Q18.70 79.30 25.30 84.60L25.30 84.60ZM37.80 116.10L37.80 116.10Q30.70 116.10 26.80 112.50Q22.90 108.90 22.90 103.00L22.90 103.00Q22.90 97.60 27.00 93.85Q31.10 90.10 39 90.10L39 90.10Q46.30 90.10 51.65 92.85Q57.00 95.60 61.10 99.95Q65.20 104.30 68.60 109.20L68.60 109.20L64.50 111.90Q60.80 106.80 57.15 102.95Q53.50 99.10 49.15 96.95Q44.80 94.80 39.20 94.80L39.20 94.80Q33.40 94.80 30.65 97.15Q27.90 99.50 27.90 103.10L27.90 103.10Q27.90 107.30 30.60 109.25Q33.30 111.20 37.50 111.20L37.50 111.20Q40.20 111.20 42.45 110.65Q44.70 110.10 46.90 109.10L46.90 109.10L48.60 113.90Q46 114.90 43.30 115.50Q40.60 116.10 37.80 116.10Z"/></svg>