<svg xmlns="http://www.w3.org/2000/svg" xmlns:xlink="http://www.w3.org/1999/xlink" width="55.300000000000004" height="130.4"><path d="M25.30 84.60L21.80 88.40Q17.10 84.60 13.20 80.75Q9.30 76.90 7.05 72.65Q4.80 68.40 4.80 63.40L4.80 63.40Q4.80 59.80 6 56.95Q7.20 54.10 9.50 52.20L9.50 52.20Q12.30 49.70 16.70 48.50Q21.10 47.30 29 47.30L29 47.30L39.90 47.30L39.90 29.30L45.20 30.10L45.20 75.50Q45.20 78.70 45.75 80.35Q46.30 82.00 47.40 82.90L47.40 82.90Q48.60 84.10 50.60 84.35Q52.60 84.60 54.80 84.60L54.80 84.60L54.30 89.60L53.30 89.60Q46.60 89.60 43.40 86.60L43.40 86.60Q41.70 85.00 40.80 82.50Q39.90 80 39.90 75.80L39.90 75.80L39.90 52.30L28.50 52.30Q21.90 52.30 18.80 53.10Q15.70 53.90 13.60 55.60L13.60 55.60Q10.20 58.40 10.20 63.40L10.20 63.40Q10.20 69.40 14.45 74.35Q18.70 79.30 25.30 84.60L25.30 84.60ZM44.80 25.50L40.40 25.50Q38.50 17.70 36.65 13.15Q34.80 8.60 32.35 6.70Q29.90 4.80 26.10 4.80L26.10 4.80Q24.90 4.80 23.55 5Q22.20 5.20 20.70 5.70L20.70 5.70L19.20 1.10Q21.10 0.50 22.90 0.25Q24.70 0 26.40 0L26.40 0Q31.00 0 34.35 2.25Q37.70 4.50 40.20 10.05Q42.70 15.60 44.80 25.50L44.80 25.50ZM39.50 23.70L36.70 26.60Q30.60 21.20 26.40 18.85Q22.20 16.50 17.30 16.50L17.30 16.50Q13.80 16.50 10.90 17.40L10.90 17.40L9.40 12.70Q11.20 12.30 13.15 12Q15.10 11.70 17.30 11.70L17.30 11.70Q21.10 11.70 24.45 12.90Q27.80 14.10 31.35 16.75Q34.90 19.40 39.50 23.70L39.50 23.70Z"/></svg>