<svg xmlns="http://www.w3.org/2000/svg" xmlns:xlink="http://www.w3.org/1999/xlink" width="80.4" height="130.4"><path d="M25.30 84.60L21.80 88.40Q17.10 84.60 13.20 80.75Q9.30 76.90 7.05 72.65Q4.80 68.40 4.80 63.40L4.80 63.40Q4.80 59.80 6 56.95Q7.20 54.10 9.50 52.20L9.50 52.20Q12.30 49.70 16.70 48.50Q21.10 47.30 29 47.30L29 47.30L39.90 47.30L39.90 29.30L45.20 30.10L45.20 75.50Q45.20 78.70 45.75 80.35Q46.30 82.00 47.40 82.90L47.40 82.90Q48.60 84.10 50.60 84.35Q52.60 84.60 54.80 84.60L54.80 84.60L54.30 89.60L53.30 89.60Q46.60 89.60 43.40 86.60L43.40 86.60Q41.70 85.00 40.80 82.50Q39.90 80 39.90 75.80L39.90 75.80L39.90 52.30L28.50 52.30Q21.90 52.30 18.80 53.10Q15.70 53.90 13.60 55.60L13.60 55.60Q10.20 58.40 10.20 63.40L10.20 63.40Q10.20 69.40 14.45 74.35Q18.70 79.30 25.30 84.60L25.30 84.60ZM79.40 89.60L78.40 89.60Q71.80 89.60 68.50 86.60L68.50 86.60Q66.70 85.00 65.85 82.50Q65 80 65 75.80L65 75.80L65 29.30L70.30 30.00L70.30 75.50Q70.30 78.80 70.80 80.40Q71.30 82.00 72.60 83.00L72.60 83.00Q73.80 84.10 75.65 84.35Q77.50 84.60 79.90 84.60L79.90 84.60L79.40 89.60ZM69.90 25.50L65.50 25.50Q63.60 17.70 61.75 13.15Q59.90 8.60 57.45 6.70Q55.00 4.80 51.20 4.80L51.20 4.80Q50 4.80 48.65 5Q47.30 5.20 45.80 5.70L45.80 5.70L44.30 1.10Q46.20 0.50 48 0.25Q49.80 0 51.50 0L51.50 0Q56.10 0 59.45 2.25Q62.80 4.50 65.30 10.05Q67.80 15.60 69.90 25.50L69.90 25.50ZM64.60 23.70L61.80 26.60Q55.70 21.20 51.50 18.85Q47.30 16.50 42.40 16.50L42.40 16.50Q38.90 16.50 36 17.40L36 17.40L34.50 12.70Q36.30 12.30 38.25 12Q40.20 11.70 42.40 11.70L42.40 11.70Q46.20 11.70 49.55 12.90Q52.90 14.10 56.45 16.75Q60.00 19.40 64.60 23.70L64.60 23.70Z"/></svg>