<?xml version="1.0" encoding="UTF-8" standalone="no"?>
<svg
   width="54.200001"
   height="60.299999"
   version="1.1"
   id="svg4"
   sodipodi:docname="0_p.svg"
   inkscape:version="1.2.1 (9c6d41e410, 2022-07-14)"
   xmlns:inkscape="http://www.inkscape.org/namespaces/inkscape"
   xmlns:sodipodi="http://sodipodi.sourceforge.net/DTD/sodipodi-0.dtd"
   xmlns="http://www.w3.org/2000/svg"
   xmlns:svg="http://www.w3.org/2000/svg">
  <defs
     id="defs8" />
  <sodipodi:namedview
     id="namedview6"
     pagecolor="#ffffff"
     bordercolor="#666666"
     borderopacity="1.0"
     inkscape:showpageshadow="2"
     inkscape:pageopacity="0.0"
     inkscape:pagecheckerboard="0"
     inkscape:deskcolor="#d1d1d1"
     showgrid="false"
     inkscape:zoom="11.313709"
     inkscape:cx="52.458484"
     inkscape:cy="31.996582"
     inkscape:window-width="1920"
     inkscape:window-height="1027"
     inkscape:window-x="-8"
     inkscape:window-y="-8"
     inkscape:window-maximized="1"
     inkscape:current-layer="svg4" />
  <path
     style="fill:none;stroke:#000000;stroke-width:1px;stroke-linecap:butt;stroke-linejoin:miter;stroke-opacity:1"
     d="m 41.851562,0.00390625 c 0.02016,15.94428275 -0.02433,31.88969775 0.03677,47.83327175 0.07469,3.038832 0.861122,6.531776 3.629579,8.239881 2.551597,1.733074 5.753361,1.471773 8.677387,1.774503"
     id="path284"
     inkscape:label="s2" />
  <path
     style="fill:none;stroke:#000000;stroke-width:1px;stroke-linecap:butt;stroke-linejoin:miter;stroke-opacity:1"
     d="M 0.29353812,3.5785751 C 3.0189231,3.8366048 5.9619163,3.696852 8.3413362,5.2804608 c 2.5296668,1.6474205 3.3573848,4.8565142 3.4538148,7.7097782 0.163299,4.924233 -0.05354,9.857961 0.09746,14.783648 0.10119,3.668016 1.160962,7.524492 3.93206,10.087735 3.16341,3.070068 7.880052,3.723758 12.0985,3.261449 4.084104,-0.397521 7.826158,-2.340266 11.081777,-4.747068 0.18062,-0.123313 0.361241,-0.246625 0.541862,-0.369938"
     id="path282"
     inkscape:label="s1" />
  <path
     d="m 25.5,43.7 v 0 q -3.6,0 -6.45,-1 -2.85,-1 -4.75,-2.8 v 0 Q 11.7,37.6 10.45,34.35 9.2,31.1 9.2,26.3 v 0 -11.2 Q 9.2,12.4 8.85,10.9 8.5,9.4 7.7,8.3 v 0 Q 6.7,6.9 4.65,6.45 2.6,6 0,6 V 6 L 0.6,1.1 h 0.8 q 7.2,0 10.3,3.6 v 0 q 1.5,1.6 2.15,4.05 0.65,2.45 0.65,6.15 v 0 11 q 0,4.2 0.9,6.6 0.9,2.4 2.6,3.9 v 0 q 2.7,2.4 7.9,2.4 v 0 q 3.7,0 7.05,-1.55 3.35,-1.55 6.25,-4.15 v 0 V 0 l 5.3,0.8 v 45.4 q 0,3.2 0.55,4.85 0.55,1.65 1.65,2.55 v 0 q 1.2,1.2 3.2,1.45 2,0.25 4.3,0.25 v 0 l -0.6,5 h -0.9 q -6.8,0 -10,-3 v 0 Q 41,55.7 40.1,53.2 39.2,50.7 39.2,46.5 v 0 -7.4 q -2.8,2.1 -6.3,3.35 -3.5,1.25 -7.4,1.25 z"
     id="path2"
     inkscape:label="p1" />
</svg>
