<?xml version="1.0" encoding="UTF-8" standalone="no"?>
<svg
   width="54.200001"
   height="60.299999"
   version="1.1"
   id="svg4"
   sodipodi:docname="0_p.svg"
   inkscape:version="1.2.1 (9c6d41e410, 2022-07-14)"
   xmlns:inkscape="http://www.inkscape.org/namespaces/inkscape"
   xmlns:sodipodi="http://sodipodi.sourceforge.net/DTD/sodipodi-0.dtd"
   xmlns="http://www.w3.org/2000/svg"
   xmlns:svg="http://www.w3.org/2000/svg">
  <defs
     id="defs8" />
  <sodipodi:namedview
     id="namedview6"
     pagecolor="#ffffff"
     bordercolor="#666666"
     borderopacity="1.0"
     inkscape:showpageshadow="2"
     inkscape:pageopacity="0.0"
     inkscape:pagecheckerboard="0"
     inkscape:deskcolor="#d1d1d1"
     showgrid="false"
     inkscape:zoom="8"
     inkscape:cx="-8.9375"
     inkscape:cy="32.875"
     inkscape:window-width="1920"
     inkscape:window-height="1027"
     inkscape:window-x="-8"
     inkscape:window-y="-8"
     inkscape:window-maximized="1"
     inkscape:current-layer="svg4" />
  <path
     d="m 25.5,43.7 v 0 q -3.6,0 -6.45,-1 -2.85,-1 -4.75,-2.8 v 0 Q 11.7,37.6 10.45,34.35 9.2,31.1 9.2,26.3 v 0 -11.2 Q 9.2,12.4 8.85,10.9 8.5,9.4 7.7,8.3 v 0 Q 6.7,6.9 4.65,6.45 2.6,6 0,6 V 6 L 0.6,1.1 h 0.8 q 7.2,0 10.3,3.6 v 0 q 1.5,1.6 2.15,4.05 0.65,2.45 0.65,6.15 v 0 11 q 0,4.2 0.9,6.6 0.9,2.4 2.6,3.9 v 0 q 2.7,2.4 7.9,2.4 v 0 q 3.7,0 7.05,-1.55 3.35,-1.55 6.25,-4.15 v 0 V 0 l 5.3,0.8 v 45.4 q 0,3.2 0.55,4.85 0.55,1.65 1.65,2.55 v 0 q 1.2,1.2 3.2,1.45 2,0.25 4.3,0.25 v 0 l -0.6,5 h -0.9 q -6.8,0 -10,-3 v 0 Q 41,55.7 40.1,53.2 39.2,50.7 39.2,46.5 v 0 -7.4 q -2.8,2.1 -6.3,3.35 -3.5,1.25 -7.4,1.25 z"
     id="path2"
     inkscape:label="p1" />
  <path
     id="path284"
     style="fill:none;stroke:#000000;stroke-width:1px;stroke-linecap:butt;stroke-linejoin:miter;stroke-opacity:1"
     d="M 0.29353812,3.5785751 C 3.0316166,3.7917739 6.0109138,3.7454519 8.3954579,5.3146346 11.600135,7.5519653 11.920507,11.862858 11.853046,15.4365 c 0.122119,4.692258 -0.26047,9.401339 0.193542,14.080712 0.277031,4.346449 2.784775,8.564029 6.797741,10.423236 5.920444,2.55762 12.929864,1.237244 18.225842,-2.189534 1.617936,-1.304419 3.962818,-2.222504 4.829211,-3.995104 -0.0265,-11.23395 -0.03155,-22.501274 -0.04782,-33.75190375"
     sodipodi:nodetypes="cccccccc"
     inkscape:label="s1" />
  <path
     style="fill:none;stroke:#000000;stroke-width:1px;stroke-linecap:butt;stroke-linejoin:miter;stroke-opacity:1"
     d="m 41.894532,35.175781 -0.0062,12.661397 c 0.07469,3.038832 0.861122,6.531776 3.629579,8.239881 2.551597,1.733073 5.753361,1.471773 8.677387,1.774503"
     id="path317"
     inkscape:label="s2"
     sodipodi:nodetypes="cccc" />
</svg>
