<svg xmlns="http://www.w3.org/2000/svg" xmlns:xlink="http://www.w3.org/1999/xlink" width="78" height="130.4"><path d="M26.40 73L26.40 73Q22.80 73 19.95 72Q17.10 71 15.20 69.20L15.20 69.20Q12.60 66.90 11.35 63.65Q10.10 60.40 10.10 55.60L10.10 55.60L10.10 44.40Q10.10 41.70 9.75 40.20Q9.40 38.70 8.60 37.60L8.60 37.60Q7.60 36.20 5.55 35.75Q3.50 35.30 0.90 35.30L0.90 35.30L1.50 30.40L2.30 30.40Q9.50 30.40 12.60 34.00L12.60 34.00Q14.10 35.60 14.75 38.05Q15.40 40.50 15.40 44.20L15.40 44.20L15.40 55.20Q15.40 59.40 16.30 61.80Q17.20 64.20 18.90 65.70L18.90 65.70Q21.60 68.10 26.80 68.10L26.80 68.10Q30.50 68.10 33.85 66.55Q37.20 65 40.10 62.40L40.10 62.40L40.10 29.30L45.40 30.10L45.40 75.50Q45.40 78.70 45.95 80.35Q46.50 82.00 47.60 82.90L47.60 82.90Q48.80 84.10 50.80 84.35Q52.80 84.60 55.10 84.60L55.10 84.60L54.50 89.60L53.60 89.60Q46.80 89.60 43.60 86.60L43.60 86.60Q41.90 85.00 41 82.50Q40.10 80 40.10 75.80L40.10 75.80L40.10 68.40Q37.30 70.50 33.80 71.75Q30.30 73 26.40 73ZM66.80 51.30L66.80 51.30Q65 51.30 63.60 49.95Q62.20 48.60 62.20 46.20L62.20 46.20Q62.20 43.80 63.55 42.45Q64.90 41.10 66.80 41.10L66.80 41.10Q68.80 41.10 70.10 42.45Q71.40 43.80 71.40 46.20L71.40 46.20Q71.40 48.70 70.05 50.00Q68.70 51.30 66.80 51.30ZM66.80 84.60L66.80 84.60Q65 84.60 63.60 83.25Q62.20 81.90 62.20 79.50L62.20 79.50Q62.20 77.10 63.55 75.75Q64.90 74.40 66.80 74.40L66.80 74.40Q68.80 74.40 70.10 75.75Q71.40 77.10 71.40 79.50L71.40 79.50Q71.40 82.00 70.05 83.30Q68.70 84.60 66.80 84.60Z"/></svg>