<svg xmlns="http://www.w3.org/2000/svg" xmlns:xlink="http://www.w3.org/1999/xlink" width="78" height="130.4">
    <path
        d="M26.40 73L26.40 73Q22.80 73 19.95 72Q17.10 71 15.20 69.20L15.20 69.20Q12.60 66.90 11.35 63.65Q10.10 60.40 10.10 55.60L10.10 55.60L10.10 44.40Q10.10 41.70 9.75 40.20Q9.40 38.70 8.60 37.60L8.60 37.60Q7.60 36.20 5.55 35.75Q3.50 35.30 0.90 35.30L0.90 35.30L1.50 30.40L2.30 30.40Q9.50 30.40 12.60 34.00L12.60 34.00Q14.10 35.60 14.75 38.05Q15.40 40.50 15.40 44.20L15.40 44.20L15.40 55.20Q15.40 59.40 16.30 61.80Q17.20 64.20 18.90 65.70L18.90 65.70Q21.60 68.10 26.80 68.10L26.80 68.10Q30.50 68.10 33.85 66.55Q37.20 65 40.10 62.40L40.10 62.40L40.10 29.30L45.40 30.10L45.40 75.50Q45.40 78.70 45.95 80.35Q46.50 82.00 47.60 82.90L47.60 82.90Q48.80 84.10 50.80 84.35Q52.80 84.60 55.10 84.60L55.10 84.60L54.50 89.60L53.60 89.60Q46.80 89.60 43.60 86.60L43.60 86.60Q41.90 85.00 41 82.50Q40.10 80 40.10 75.80L40.10 75.80L40.10 68.40Q37.30 70.50 33.80 71.75Q30.30 73 26.40 73ZM66.80 51.30L66.80 51.30Q65 51.30 63.60 49.95Q62.20 48.60 62.20 46.20L62.20 46.20Q62.20 43.80 63.55 42.45Q64.90 41.10 66.80 41.10L66.80 41.10Q68.80 41.10 70.10 42.45Q71.40 43.80 71.40 46.20L71.40 46.20Q71.40 48.70 70.05 50.00Q68.70 51.30 66.80 51.30ZM66.80 84.60L66.80 84.60Q65 84.60 63.60 83.25Q62.20 81.90 62.20 79.50L62.20 79.50Q62.20 77.10 63.55 75.75Q64.90 74.40 66.80 74.40L66.80 74.40Q68.80 74.40 70.10 75.75Q71.40 77.10 71.40 79.50L71.40 79.50Q71.40 82.00 70.05 83.30Q68.70 84.60 66.80 84.60Z" />
     <g
     id="g686"
     inkscape:label="g2">
    <path
       style="display:inline"
       d="m 57.8,22 v 0 Q 56,22 54.6,20.65 53.2,19.3 53.2,16.9 v 0 q 0,-2.4 1.35,-3.75 1.35,-1.35 3.25,-1.35 v 0 q 2,0 3.3,1.35 1.3,1.35 1.3,3.75 v 0 q 0,2.5 -1.35,3.8 Q 59.7,22 57.8,22 Z"
       id="path675"
       inkscape:label="p2" />
    <path
       d="m 57.837008,13.391934 c -0.820403,0 -1.515467,0.311801 -2.085191,0.935405 -0.569724,0.623603 -0.854587,1.707464 -0.854587,2.59035 0,1.055328 0.273468,1.894793 0.820403,2.518396 0.546936,0.623603 1.347168,0.935404 2.119375,0.935404 0.865981,0 1.572439,-0.311801 2.119375,-0.935404 0.546935,-0.623603 0.820403,-1.597773 0.820403,-2.518396 0,-1.151267 -0.284863,-2.02671 -0.854587,-2.626328 -0.569724,-0.599617 -1.264788,-0.899427 -2.085191,-0.899427 z"
       style="display:inline;stroke-width:0.701376"
       id="path950"
       sodipodi:nodetypes="sssssssss"
       inkscape:label="s3" />
  </g>
  <g
     id="g690"
     inkscape:label="g3">
    <path
       style="display:inline"
       d="m 57.8,55.3 v 0 Q 56,55.3 54.6,53.95 53.2,52.6 53.2,50.2 v 0 q 0,-2.4 1.35,-3.75 1.35,-1.35 3.25,-1.35 v 0 q 2,0 3.3,1.35 1.3,1.35 1.3,3.75 v 0 q 0,2.5 -1.35,3.8 -1.35,1.3 -3.25,1.3 z"
       id="path677"
       inkscape:label="p3" />
    <path
       d="m 57.836778,46.680782 c -0.820403,0 -1.515467,0.311801 -2.085191,0.935405 -0.569724,0.623603 -0.854587,1.707464 -0.854587,2.59035 0,1.055328 0.273468,1.894793 0.820403,2.518396 0.546936,0.623603 1.347168,0.935404 2.119375,0.935404 0.865981,0 1.572439,-0.311801 2.119375,-0.935404 0.546935,-0.623603 0.820403,-1.597773 0.820403,-2.518396 0,-1.151267 -0.284863,-2.02671 -0.854587,-2.626328 -0.569724,-0.599617 -1.264788,-0.899427 -2.085191,-0.899427 z"
       style="display:inline;stroke-width:0.701376"
       id="path950-5"
       sodipodi:nodetypes="sssssssss"
       inkscape:label="s4" />
  </g>
    <path id="path284"
        style="fill:none;stroke:#000000;stroke-width:1px;stroke-linecap:butt;stroke-linejoin:miter;stroke-opacity:1"
        d="M 0.29353812,3.5785751 C 3.0316166,3.7917739 6.0109138,3.7454519 8.3954579,5.3146346 11.600135,7.5519653 11.920507,11.862858 11.853046,15.4365 c 0.122119,4.692258 -0.26047,9.401339 0.193542,14.080712 0.277031,4.346449 2.784775,8.564029 6.797741,10.423236 5.920444,2.55762 12.929864,1.237244 18.225842,-2.189534 1.617936,-1.304419 3.962818,-2.222504 4.829211,-3.995104 -0.0265,-11.23395 -0.03155,-22.501274 -0.04782,-33.75190375"
        sodipodi:nodetypes="cccccccc" inkscape:label="s1" />
    <path style="fill:none;stroke:#000000;stroke-width:1px;stroke-linecap:butt;stroke-linejoin:miter;stroke-opacity:1"
        d="m 41.894532,35.175781 -0.0062,12.661397 c 0.07469,3.038832 0.861122,6.531776 3.629579,8.239881 2.551597,1.733073 5.753361,1.471773 8.677387,1.774503"
        id="path317" inkscape:label="s2" sodipodi:nodetypes="cccc" />
</svg>