<?xml version="1.0" encoding="UTF-8" standalone="no"?>
<svg
   width="79.300003"
   height="60.299999"
   version="1.1"
   id="svg191"
   sodipodi:docname="1_pa.svg"
   inkscape:version="1.2.1 (9c6d41e410, 2022-07-14)"
   xmlns:inkscape="http://www.inkscape.org/namespaces/inkscape"
   xmlns:sodipodi="http://sodipodi.sourceforge.net/DTD/sodipodi-0.dtd"
   xmlns="http://www.w3.org/2000/svg"
   xmlns:svg="http://www.w3.org/2000/svg">
  <defs
     id="defs195" />
  <sodipodi:namedview
     id="namedview193"
     pagecolor="#ffffff"
     bordercolor="#666666"
     borderopacity="1.0"
     inkscape:showpageshadow="2"
     inkscape:pageopacity="0.0"
     inkscape:pagecheckerboard="0"
     inkscape:deskcolor="#d1d1d1"
     showgrid="false"
     inkscape:zoom="7.2392641"
     inkscape:cx="22.308897"
     inkscape:cy="39.644913"
     inkscape:window-width="1920"
     inkscape:window-height="1027"
     inkscape:window-x="-8"
     inkscape:window-y="-8"
     inkscape:window-maximized="1"
     inkscape:current-layer="svg191" />
  <g
     id="g115"
     inkscape:label="g1"
     transform="scale(0.99913711,1)">
    <path
       d="m 25.522023,43.7 v 0 q -3.603109,0 -6.455571,-1 -2.852461,-1 -4.754102,-2.8 v 0 Q 11.710105,37.6 10.459025,34.35 9.2079454,31.1 9.2079454,26.3 v 0 -11.2 q 0,-2.7 -0.3503022,-4.2 Q 8.5073409,9.4 7.70665,8.3 v 0 Q 6.7057864,6.9 4.6540159,6.45 2.6022455,6 0,6 V 6 L 0.60051818,1.1 H 1.4012091 q 7.2062182,0 10.3088959,3.6 v 0 q 1.501295,1.6 2.151856,4.05 0.650562,2.45 0.650562,6.15 v 0 11 q 0,4.2 0.900777,6.6 0.900777,2.4 2.602245,3.9 v 0 q 2.702332,2.4 7.906823,2.4 v 0 q 3.703196,0 7.056089,-1.55 3.352893,-1.55 6.255398,-4.15 v 0 V 0 l 5.304577,0.8 v 45.4 q 0,3.2 0.550475,4.85 0.550475,1.65 1.651425,2.55 v 0 q 1.201036,1.2 3.202763,1.45 2.001728,0.25 4.303714,0.25 v 0 l -0.600518,5 h -0.900777 q -6.805873,0 -10.008637,-3 v 0 q -1.701468,-1.6 -2.602245,-4.1 -0.900777,-2.5 -0.900777,-6.7 v 0 -7.4 q -2.802419,2.1 -6.305441,3.35 -3.503023,1.25 -7.406391,1.25 z"
       id="path2"
       inkscape:label="p1"
       style="stroke-width:1.00043" />
    <path
       id="path284-5"
       style="fill:none;stroke:#000000;stroke-width:1px;stroke-linecap:butt;stroke-linejoin:miter;stroke-opacity:1"
       d="M 0.29353812,3.5785751 C 3.0316166,3.7917739 6.0109138,3.7454519 8.3954579,5.3146346 11.600135,7.5519653 11.920507,11.862858 11.853046,15.4365 c 0.122119,4.692258 -0.26047,9.401339 0.193542,14.080712 0.277031,4.346449 2.784775,8.564029 6.797741,10.423236 5.920444,2.55762 12.929864,1.237244 18.225842,-2.189534 1.617936,-1.304419 3.962818,-2.222504 4.829211,-3.995104 -0.0265,-11.23395 -0.03155,-22.501274 -0.04782,-33.75190375"
       sodipodi:nodetypes="cccccccc"
       inkscape:label="s1" />
    <path
       style="fill:none;stroke:#000000;stroke-width:1px;stroke-linecap:butt;stroke-linejoin:miter;stroke-opacity:1"
       d="m 41.894532,35.175781 -0.0062,12.661397 c 0.07469,3.038832 0.861122,6.531776 3.629579,8.239881 2.551597,1.733073 5.753361,1.471773 8.677387,1.774503"
       id="path317-0"
       inkscape:label="s2"
       sodipodi:nodetypes="cccc" />
  </g>
  <g
     id="g225"
     inkscape:label="g2"
     transform="matrix(0.99877143,0,0,1,8.1691687,0)">
    <path
       style="display:inline"
       d="m 70.7,60.3 h -1 q -6.6,0 -9.9,-3 v 0 Q 58,55.7 57.15,53.2 56.3,50.7 56.3,46.5 v 0 V 0 l 5.3,0.7 v 45.5 q 0,3.3 0.5,4.9 0.5,1.6 1.8,2.6 v 0 q 1.2,1.1 3.05,1.35 1.85,0.25 4.25,0.25 v 0 z"
       id="path216"
       inkscape:label="p2" />
    <path
       style="display:inline;fill:none;stroke:#000000;stroke-width:1px;stroke-linecap:butt;stroke-linejoin:miter;stroke-opacity:1"
       d="m 58.96875,0.03125 c 0.0052,15.660703 -0.0419,31.322813 -0.004,46.982637 0.07316,2.661925 0.300704,5.531206 2.06529,7.674603 1.94562,2.285428 5.076187,2.956219 7.950186,3.001875 0.734456,0.05113 1.468913,0.102253 2.203369,0.15338"
       id="path81"
       inkscape:label="s3" />
  </g>
</svg>
