<?xml version="1.0" encoding="UTF-8" standalone="no"?><svg width="70.5" height="89" version="1.1" id="svg307" sodipodi:docname="2_pi.svg" inkscape:version="1.2.1 (9c6d41e410, 2022-07-14)" xmlns:inkscape="http://www.inkscape.org/namespaces/inkscape" xmlns:sodipodi="http://sodipodi.sourceforge.net/DTD/sodipodi-0.dtd" xmlns="http://www.w3.org/2000/svg" xmlns:svg="http://www.w3.org/2000/svg"><defs id="defs311"></defs><sodipodi:namedview id="namedview309" pagecolor="#ffffff" bordercolor="#666666" borderopacity="1.0" inkscape:showpageshadow="2" inkscape:pageopacity="0.0" inkscape:pagecheckerboard="0" inkscape:deskcolor="#d1d1d1" showgrid="false" inkscape:zoom="1.809816" inkscape:cx="30.6661" inkscape:cy="64.647455" inkscape:window-width="1920" inkscape:window-height="1027" inkscape:window-x="-8" inkscape:window-y="-8" inkscape:window-maximized="1" inkscape:current-layer="svg307"></sodipodi:namedview><g id="g0" inkscape:label="g0" transform="matrix(0.99913711,0,0,1,16.3,28.7)"><path d="m 25.522023,43.7 v 0 q -3.603109,0 -6.455571,-1 -2.852461,-1 -4.754102,-2.8 v 0 Q 11.710105,37.6 10.459025,34.35 9.2079454,31.1 9.2079454,26.3 v 0 -11.2 q 0,-2.7 -0.3503022,-4.2 Q 8.5073409,9.4 7.70665,8.3 v 0 Q 6.7057864,6.9 4.6540159,6.45 2.6022455,6 0,6 V 6 L 0.60051818,1.1 H 1.4012091 q 7.2062182,0 10.3088959,3.6 v 0 q 1.501295,1.6 2.151856,4.05 0.650562,2.45 0.650562,6.15 v 0 11 q 0,4.2 0.900777,6.6 0.900777,2.4 2.602245,3.9 v 0 q 2.702332,2.4 7.906823,2.4 v 0 q 3.703196,0 7.056089,-1.55 3.352893,-1.55 6.255398,-4.15 v 0 V 0 l 5.304577,0.8 v 45.4 q 0,3.2 0.550475,4.85 0.550475,1.65 1.651425,2.55 v 0 q 1.201036,1.2 3.202763,1.45 2.001728,0.25 4.303714,0.25 v 0 l -0.600518,5 h -0.900777 q -6.805873,0 -10.008637,-3 v 0 q -1.701468,-1.6 -2.602245,-4.1 -0.900777,-2.5 -0.900777,-6.7 v 0 -7.4 q -2.802419,2.1 -6.305441,3.35 -3.503023,1.25 -7.406391,1.25 z" id="g0p0" inkscape:label="g0p0" style="stroke-width:1.00043"></path><path id="g0s0" style="fill:none;stroke:#000000;stroke-width:1px;stroke-linecap:butt;stroke-linejoin:miter;stroke-opacity:1" d="M 0.29353812,3.5785751 C 3.0316166,3.7917739 6.0109138,3.7454519 8.3954579,5.3146346 11.600135,7.5519653 11.920507,11.862858 11.853046,15.4365 c 0.122119,4.692258 -0.26047,9.401339 0.193542,14.080712 0.277031,4.346449 2.784775,8.564029 6.797741,10.423236 5.920444,2.55762 12.929864,1.237244 18.225842,-2.189534 1.617936,-1.304419 3.962818,-2.222504 4.829211,-3.995104 -0.0265,-11.23395 -0.03155,-22.501274 -0.04782,-33.75190375" sodipodi:nodetypes="cccccccc" inkscape:label="g0s0"></path><path style="fill:none;stroke:#000000;stroke-width:1px;stroke-linecap:butt;stroke-linejoin:miter;stroke-opacity:1" d="m 41.894532,35.175781 -0.0062,12.661397 c 0.07469,3.038832 0.861122,6.531776 3.629579,8.239881 2.551597,1.733073 5.753361,1.471773 8.677387,1.774503" id="g0s1" inkscape:label="g0s1" sodipodi:nodetypes="cccc"></path></g><g id="g1" inkscape:label="g1"><path style="display:inline" d="M 14.3,89 H 13.4 Q 10.3,89 7.8,88.35 5.3,87.7 3.5,86 v 0 Q 1.6,84.3 0.8,81.8 0,79.3 0,75.2 v 0 -53.4 Q 0,15.2 1.35,11.1 2.7,7 6.1,4.1 v 0 Q 8.3,2.2 11.45,1.1 14.6,0 18.7,0 V 0 Q 27.8,0 35.05,5.25 42.3,10.5 49.6,19 v 0 l -3.9,3.1 Q 39.3,14.5 32.95,9.7 26.6,4.9 19,4.9 v 0 q -5.9,0 -9.3,2.9 v 0 q -2.4,2.1 -3.4,5.6 -1,3.5 -1,10.1 v 0 51.4 q 0,3.2 0.5,4.85 0.5,1.65 1.7,2.55 v 0 q 1.2,1.2 3.15,1.45 Q 12.6,84 14.9,84 v 0 z" id="g1p0" inkscape:label="g1p0"></path><path style="display:inline;fill:none;stroke:#000000;stroke-width:1px;stroke-linecap:butt;stroke-linejoin:miter;stroke-opacity:1" d="M 47.652368,20.738116 C 42.912163,15.169343 37.771996,9.7590782 31.535156,5.8554687 25.556372,2.3479405 17.925665,1.3282836 11.384063,3.8090168 7.098823,5.5445734 4.0571601,9.6376118 3.3691387,14.177325 2.2636698,19.814013 2.8760079,25.587166 2.7106596,31.290784 c 0.017146,15.362435 -0.08206,30.727062 0.00809,46.088122 0.1319749,2.783277 1.0109143,5.743286 3.4696807,7.348394 2.457118,1.869621 5.6943627,1.540296 8.5928207,1.741457" id="g1s0" inkscape:label="g1s0"></path></g></svg>