<svg xmlns="http://www.w3.org/2000/svg" xmlns:xlink="http://www.w3.org/1999/xlink" width="80.7" height="130.4"><path d="M24 89.60L23.10 89.60Q20 89.60 17.50 88.95Q15 88.30 13.20 86.60L13.20 86.60Q11.30 84.90 10.50 82.40Q9.70 79.90 9.70 75.80L9.70 75.80L9.70 22.40Q9.70 15.80 11.05 11.70Q12.40 7.60 15.80 4.70L15.80 4.70Q18 2.80 21.15 1.70Q24.30 0.60 28.40 0.60L28.40 0.60Q37.50 0.60 44.75 5.85Q52 11.10 59.30 19.60L59.30 19.60L55.40 22.70Q49 15.10 42.65 10.30Q36.30 5.50 28.70 5.50L28.70 5.50Q22.80 5.50 19.40 8.40L19.40 8.40Q17 10.50 16 14Q15 17.50 15 24.10L15 24.10L15 75.50Q15 78.70 15.50 80.35Q16 82.00 17.20 82.90L17.20 82.90Q18.40 84.10 20.35 84.35Q22.30 84.60 24.60 84.60L24.60 84.60L24 89.60ZM51.50 73L51.50 73Q47.90 73 45.05 72Q42.20 71 40.30 69.20L40.30 69.20Q37.70 66.90 36.45 63.65Q35.20 60.40 35.20 55.60L35.20 55.60L35.20 44.40Q35.20 41.70 34.85 40.20Q34.50 38.70 33.70 37.60L33.70 37.60Q32.70 36.20 30.65 35.75Q28.60 35.30 26 35.30L26 35.30L26.60 30.40L27.40 30.40Q34.60 30.40 37.70 34.00L37.70 34.00Q39.20 35.60 39.85 38.05Q40.50 40.50 40.50 44.20L40.50 44.20L40.50 55.20Q40.50 59.40 41.40 61.80Q42.30 64.20 44 65.70L44 65.70Q46.70 68.10 51.90 68.10L51.90 68.10Q55.60 68.10 58.95 66.55Q62.30 65 65.20 62.40L65.20 62.40L65.20 29.30L70.50 30.10L70.50 75.50Q70.50 78.70 71.05 80.35Q71.60 82.00 72.70 82.90L72.70 82.90Q73.90 84.10 75.90 84.35Q77.90 84.60 80.20 84.60L80.20 84.60L79.60 89.60L78.70 89.60Q71.90 89.60 68.70 86.60L68.70 86.60Q67 85.00 66.10 82.50Q65.20 80 65.20 75.80L65.20 75.80L65.20 68.40Q62.40 70.50 58.90 71.75Q55.40 73 51.50 73Z"/></svg>