<svg xmlns="http://www.w3.org/2000/svg" xmlns:xlink="http://www.w3.org/1999/xlink" width="80.7" height="130.4">
    <path
        d="M26.40 73L26.40 73Q22.80 73 19.95 72Q17.10 71 15.20 69.20L15.20 69.20Q12.60 66.90 11.35 63.65Q10.10 60.40 10.10 55.60L10.10 55.60L10.10 44.40Q10.10 41.70 9.75 40.20Q9.40 38.70 8.60 37.60L8.60 37.60Q7.60 36.20 5.55 35.75Q3.50 35.30 0.90 35.30L0.90 35.30L1.50 30.40L2.30 30.40Q9.50 30.40 12.60 34.00L12.60 34.00Q14.10 35.60 14.75 38.05Q15.40 40.50 15.40 44.20L15.40 44.20L15.40 55.20Q15.40 59.40 16.30 61.80Q17.20 64.20 18.90 65.70L18.90 65.70Q21.60 68.10 26.80 68.10L26.80 68.10Q30.50 68.10 33.85 66.55Q37.20 65 40.10 62.40L40.10 62.40L40.10 29.30L45.40 30.10L45.40 75.50Q45.40 78.70 45.95 80.35Q46.50 82.00 47.60 82.90L47.60 82.90Q48.80 84.10 50.80 84.35Q52.80 84.60 55.10 84.60L55.10 84.60L54.50 89.60L53.60 89.60Q46.80 89.60 43.60 86.60L43.60 86.60Q41.90 85.00 41 82.50Q40.10 80 40.10 75.80L40.10 75.80L40.10 68.40Q37.30 70.50 33.80 71.75Q30.30 73 26.40 73ZM79.70 89.60L78.70 89.60Q75.70 89.60 73.15 88.95Q70.60 88.30 68.80 86.60L68.80 86.60Q65.30 83.30 65.30 75.80L65.30 75.80L65.30 29.10Q63.90 17.70 60.40 11.60Q56.90 5.50 51.40 5.50L51.40 5.50Q47.80 5.50 45.80 8.10Q43.80 10.70 43.80 15.80L43.80 15.80Q43.80 19.70 44.40 22.80L44.40 22.80L39.30 22.80Q39 21.30 38.75 19.20Q38.50 17.10 38.50 15.20L38.50 15.20Q38.50 8.60 41.85 4.60Q45.20 0.60 51.40 0.60L51.40 0.60Q57.30 0.60 61.30 4.55Q65.30 8.50 67.55 14.95Q69.80 21.40 70.60 28.80L70.60 28.80L70.60 75.50Q70.60 78.80 71.10 80.35Q71.60 81.90 72.80 82.90L72.80 82.90Q74 84.10 76 84.35Q78 84.60 80.20 84.60L80.20 84.60L79.70 89.60Z" />
      <g
     id="g399"
     inkscape:label="g2">
    <path
       style="display:inline"
       d="m 70.7,89 h -1 q -3,0 -5.55,-0.65 Q 61.6,87.7 59.8,86 v 0 Q 56.3,82.7 56.3,75.2 v 0 -46.7 Q 54.9,17.1 51.4,11 47.9,4.9 42.4,4.9 v 0 q -3.6,0 -5.6,2.6 -2,2.6 -2,7.7 v 0 q 0,3.9 0.6,7 v 0 H 30.3 Q 30,20.7 29.75,18.6 29.5,16.5 29.5,14.6 v 0 Q 29.5,8 32.85,4 36.2,0 42.4,0 v 0 q 5.9,0 9.9,3.95 4,3.95 6.25,10.4 2.25,6.45 3.05,13.85 v 0 46.7 q 0,3.3 0.5,4.85 0.5,1.55 1.7,2.55 v 0 Q 65,83.5 67,83.75 69,84 71.2,84 v 0 z"
       id="path330"
       inkscape:label="p2" />
    <path
       style="display:inline;fill:none;stroke:#000000;stroke-width:1px;stroke-linecap:butt;stroke-linejoin:miter;stroke-opacity:1"
       d="M 32.90625,22.296875 C 32.189196,17.24716 31.309374,11.67002 33.948338,7.0048776 36.015851,3.1824285 40.814237,1.7827514 44.871275,2.7018315 c 5.299598,1.0610536 8.634255,5.9944562 10.53375,10.6924095 1.94946,4.911209 3.041647,10.154719 3.53254,15.40287 0.03373,16.081561 -0.05668,32.165472 0.05492,48.245568 0.09206,3.485135 1.641413,7.400064 5.196702,8.60873 2.224083,0.864628 4.672997,0.637872 7.006103,0.85642"
       id="path80"
       inkscape:label="s3" />
  </g>
    <path id="path284"
        style="fill:none;stroke:#000000;stroke-width:1px;stroke-linecap:butt;stroke-linejoin:miter;stroke-opacity:1"
        d="M 0.29353812,3.5785751 C 3.0316166,3.7917739 6.0109138,3.7454519 8.3954579,5.3146346 11.600135,7.5519653 11.920507,11.862858 11.853046,15.4365 c 0.122119,4.692258 -0.26047,9.401339 0.193542,14.080712 0.277031,4.346449 2.784775,8.564029 6.797741,10.423236 5.920444,2.55762 12.929864,1.237244 18.225842,-2.189534 1.617936,-1.304419 3.962818,-2.222504 4.829211,-3.995104 -0.0265,-11.23395 -0.03155,-22.501274 -0.04782,-33.75190375"
        sodipodi:nodetypes="cccccccc" inkscape:label="s1" />
    <path style="fill:none;stroke:#000000;stroke-width:1px;stroke-linecap:butt;stroke-linejoin:miter;stroke-opacity:1"
        d="m 41.894532,35.175781 -0.0062,12.661397 c 0.07469,3.038832 0.861122,6.531776 3.629579,8.239881 2.551597,1.733073 5.753361,1.471773 8.677387,1.774503"
        id="path317" inkscape:label="s2" sodipodi:nodetypes="cccc" />
</svg>