<svg xmlns="http://www.w3.org/2000/svg" xmlns:xlink="http://www.w3.org/1999/xlink" width="80.7" height="130.4"><path d="M26.40 73L26.40 73Q22.80 73 19.95 72Q17.10 71 15.20 69.20L15.20 69.20Q12.60 66.90 11.35 63.65Q10.10 60.40 10.10 55.60L10.10 55.60L10.10 44.40Q10.10 41.70 9.75 40.20Q9.40 38.70 8.60 37.60L8.60 37.60Q7.60 36.20 5.55 35.75Q3.50 35.30 0.90 35.30L0.90 35.30L1.50 30.40L2.30 30.40Q9.50 30.40 12.60 34.00L12.60 34.00Q14.10 35.60 14.75 38.05Q15.40 40.50 15.40 44.20L15.40 44.20L15.40 55.20Q15.40 59.40 16.30 61.80Q17.20 64.20 18.90 65.70L18.90 65.70Q21.60 68.10 26.80 68.10L26.80 68.10Q30.50 68.10 33.85 66.55Q37.20 65 40.10 62.40L40.10 62.40L40.10 29.30L45.40 30.10L45.40 75.50Q45.40 78.70 45.95 80.35Q46.50 82.00 47.60 82.90L47.60 82.90Q48.80 84.10 50.80 84.35Q52.80 84.60 55.10 84.60L55.10 84.60L54.50 89.60L53.60 89.60Q46.80 89.60 43.60 86.60L43.60 86.60Q41.90 85.00 41 82.50Q40.10 80 40.10 75.80L40.10 75.80L40.10 68.40Q37.30 70.50 33.80 71.75Q30.30 73 26.40 73ZM79.70 89.60L78.70 89.60Q75.70 89.60 73.15 88.95Q70.60 88.30 68.80 86.60L68.80 86.60Q65.30 83.30 65.30 75.80L65.30 75.80L65.30 29.10Q63.90 17.70 60.40 11.60Q56.90 5.50 51.40 5.50L51.40 5.50Q47.80 5.50 45.80 8.10Q43.80 10.70 43.80 15.80L43.80 15.80Q43.80 19.70 44.40 22.80L44.40 22.80L39.30 22.80Q39 21.30 38.75 19.20Q38.50 17.10 38.50 15.20L38.50 15.20Q38.50 8.60 41.85 4.60Q45.20 0.60 51.40 0.60L51.40 0.60Q57.30 0.60 61.30 4.55Q65.30 8.50 67.55 14.95Q69.80 21.40 70.60 28.80L70.60 28.80L70.60 75.50Q70.60 78.80 71.10 80.35Q71.60 81.90 72.80 82.90L72.80 82.90Q74 84.10 76 84.35Q78 84.60 80.20 84.60L80.20 84.60L79.70 89.60Z"/></svg>