<svg xmlns="http://www.w3.org/2000/svg" xmlns:xlink="http://www.w3.org/1999/xlink" width="55.6" height="130.4"><path d="M26.40 73L26.40 73Q22.80 73 19.95 72Q17.10 71 15.20 69.20L15.20 69.20Q12.60 66.90 11.35 63.65Q10.10 60.40 10.10 55.60L10.10 55.60L10.10 44.40Q10.10 41.70 9.75 40.20Q9.40 38.70 8.60 37.60L8.60 37.60Q7.60 36.20 5.55 35.75Q3.50 35.30 0.90 35.30L0.90 35.30L1.50 30.40L2.30 30.40Q9.50 30.40 12.60 34.00L12.60 34.00Q14.10 35.60 14.75 38.05Q15.40 40.50 15.40 44.20L15.40 44.20L15.40 55.20Q15.40 59.40 16.30 61.80Q17.20 64.20 18.90 65.70L18.90 65.70Q21.60 68.10 26.80 68.10L26.80 68.10Q30.50 68.10 33.85 66.55Q37.20 65 40.10 62.40L40.10 62.40L40.10 29.30L45.40 30.10L45.40 75.50Q45.40 78.70 45.95 80.35Q46.50 82.00 47.60 82.90L47.60 82.90Q48.80 84.10 50.80 84.35Q52.80 84.60 55.10 84.60L55.10 84.60L54.50 89.60L53.60 89.60Q46.80 89.60 43.60 86.60L43.60 86.60Q41.90 85.00 41 82.50Q40.10 80 40.10 75.80L40.10 75.80L40.10 68.40Q37.30 70.50 33.80 71.75Q30.30 73 26.40 73ZM39.90 116.30L39.90 116.30Q33.30 116.30 28.15 114.05Q23 111.80 18.85 108.00Q14.70 104.20 11.20 99.40L11.20 99.40L15.40 96.50Q20.50 103.20 26.10 107.30Q31.70 111.40 39.90 111.40L39.90 111.40Q45.60 111.40 48.60 109.20Q51.60 107.00 51.60 102.70L51.60 102.70Q51.60 98.80 49 96.80Q46.40 94.80 42 94.80L42 94.80Q39.50 94.80 37.30 95.35Q35.10 95.90 32.90 96.80L32.90 96.80L31.10 92.30Q33.70 91.20 36.30 90.65Q38.90 90.10 41.70 90.10L41.70 90.10Q48.80 90.10 52.70 93.65Q56.60 97.20 56.60 103.10L56.60 103.10Q56.60 109.30 52.15 112.80Q47.70 116.30 39.90 116.30Z"/></svg>