<svg xmlns="http://www.w3.org/2000/svg" xmlns:xlink="http://www.w3.org/1999/xlink" width="55.6" height="130.4"><path d="M26.40 73L26.40 73Q22.80 73 19.95 72Q17.10 71 15.20 69.20L15.20 69.20Q12.60 66.90 11.35 63.65Q10.10 60.40 10.10 55.60L10.10 55.60L10.10 44.40Q10.10 41.70 9.75 40.20Q9.40 38.70 8.60 37.60L8.60 37.60Q7.60 36.20 5.55 35.75Q3.50 35.30 0.90 35.30L0.90 35.30L1.50 30.40L2.30 30.40Q9.50 30.40 12.60 34.00L12.60 34.00Q14.10 35.60 14.75 38.05Q15.40 40.50 15.40 44.20L15.40 44.20L15.40 55.20Q15.40 59.40 16.30 61.80Q17.20 64.20 18.90 65.70L18.90 65.70Q21.60 68.10 26.80 68.10L26.80 68.10Q30.50 68.10 33.85 66.55Q37.20 65 40.10 62.40L40.10 62.40L40.10 29.30L45.40 30.10L45.40 75.50Q45.40 78.70 45.95 80.35Q46.50 82.00 47.60 82.90L47.60 82.90Q48.80 84.10 50.80 84.35Q52.80 84.60 55.10 84.60L55.10 84.60L54.50 89.60L53.60 89.60Q46.80 89.60 43.60 86.60L43.60 86.60Q41.90 85.00 41 82.50Q40.10 80 40.10 75.80L40.10 75.80L40.10 68.40Q37.30 70.50 33.80 71.75Q30.30 73 26.40 73ZM38.10 116.10L38.10 116.10Q31 116.10 27.10 112.50Q23.20 108.90 23.20 103.00L23.20 103.00Q23.20 97.60 27.30 93.85Q31.40 90.10 39.30 90.10L39.30 90.10Q46.60 90.10 51.95 92.85Q57.30 95.60 61.40 99.95Q65.50 104.30 68.90 109.20L68.90 109.20L64.80 111.90Q61.10 106.80 57.45 102.95Q53.80 99.10 49.45 96.95Q45.10 94.80 39.50 94.80L39.50 94.80Q33.70 94.80 30.95 97.15Q28.20 99.50 28.20 103.10L28.20 103.10Q28.20 107.30 30.90 109.25Q33.60 111.20 37.80 111.20L37.80 111.20Q40.50 111.20 42.75 110.65Q45 110.10 47.20 109.10L47.20 109.10L48.90 113.90Q46.30 114.90 43.60 115.50Q40.90 116.10 38.10 116.10Z"/></svg>