<?xml version="1.0" encoding="UTF-8" standalone="no"?><svg width="68" height="86.800003" version="1.1" id="svg691" sodipodi:docname="5_poo.svg" inkscape:version="1.2.1 (9c6d41e410, 2022-07-14)" xmlns:inkscape="http://www.inkscape.org/namespaces/inkscape" xmlns:sodipodi="http://sodipodi.sourceforge.net/DTD/sodipodi-0.dtd" xmlns="http://www.w3.org/2000/svg" xmlns:svg="http://www.w3.org/2000/svg"><defs id="defs695"></defs><sodipodi:namedview id="namedview693" pagecolor="#ffffff" bordercolor="#666666" borderopacity="1.0" inkscape:showpageshadow="2" inkscape:pageopacity="0.0" inkscape:pagecheckerboard="0" inkscape:deskcolor="#d1d1d1" showgrid="false" inkscape:zoom="1.809816" inkscape:cx="26.798304" inkscape:cy="35.915253" inkscape:window-width="1920" inkscape:window-height="1027" inkscape:window-x="-8" inkscape:window-y="-8" inkscape:window-maximized="1" inkscape:current-layer="svg691"></sodipodi:namedview><g id="g0" inkscape:label="g0" transform="scale(0.99913711,1)"><path d="m 25.522023,43.7 v 0 q -3.603109,0 -6.455571,-1 -2.852461,-1 -4.754102,-2.8 v 0 Q 11.710105,37.6 10.459025,34.35 9.2079454,31.1 9.2079454,26.3 v 0 -11.2 q 0,-2.7 -0.3503022,-4.2 Q 8.5073409,9.4 7.70665,8.3 v 0 Q 6.7057864,6.9 4.6540159,6.45 2.6022455,6 0,6 V 6 L 0.60051818,1.1 H 1.4012091 q 7.2062182,0 10.3088959,3.6 v 0 q 1.501295,1.6 2.151856,4.05 0.650562,2.45 0.650562,6.15 v 0 11 q 0,4.2 0.900777,6.6 0.900777,2.4 2.602245,3.9 v 0 q 2.702332,2.4 7.906823,2.4 v 0 q 3.703196,0 7.056089,-1.55 3.352893,-1.55 6.255398,-4.15 v 0 V 0 l 5.304577,0.8 v 45.4 q 0,3.2 0.550475,4.85 0.550475,1.65 1.651425,2.55 v 0 q 1.201036,1.2 3.202763,1.45 2.001728,0.25 4.303714,0.25 v 0 l -0.600518,5 h -0.900777 q -6.805873,0 -10.008637,-3 v 0 q -1.701468,-1.6 -2.602245,-4.1 -0.900777,-2.5 -0.900777,-6.7 v 0 -7.4 q -2.802419,2.1 -6.305441,3.35 -3.503023,1.25 -7.406391,1.25 z" id="g0p0" inkscape:label="g0p0" style="stroke-width:1.00043"></path><path id="g0s0" style="fill:none;stroke:#000000;stroke-width:1px;stroke-linecap:butt;stroke-linejoin:miter;stroke-opacity:1" d="M 0.29353812,3.5785751 C 3.0316166,3.7917739 6.0109138,3.7454519 8.3954579,5.3146346 11.600135,7.5519653 11.920507,11.862858 11.853046,15.4365 c 0.122119,4.692258 -0.26047,9.401339 0.193542,14.080712 0.277031,4.346449 2.784775,8.564029 6.797741,10.423236 5.920444,2.55762 12.929864,1.237244 18.225842,-2.189534 1.617936,-1.304419 3.962818,-2.222504 4.829211,-3.995104 -0.0265,-11.23395 -0.03155,-22.501274 -0.04782,-33.75190375" sodipodi:nodetypes="cccccccc" inkscape:label="g0s0"></path><path style="fill:none;stroke:#000000;stroke-width:1px;stroke-linecap:butt;stroke-linejoin:miter;stroke-opacity:1" d="m 41.894532,35.175781 -0.0062,12.661397 c 0.07469,3.038832 0.861122,6.531776 3.629579,8.239881 2.551597,1.733073 5.753361,1.471773 8.677387,1.774503" id="g0s1" inkscape:label="g0s1" sodipodi:nodetypes="cccc"></path></g><g id="g1" inkscape:label="g1" transform="translate(8.1)"><path style="display:inline" d="m 29.1,86.8 v 0 q -7.1,0 -11,-3.6 -3.9,-3.6 -3.9,-9.5 v 0 q 0,-5.4 4.1,-9.15 4.1,-3.75 12,-3.75 v 0 q 7.3,0 12.65,2.75 5.35,2.75 9.45,7.1 4.1,4.35 7.5,9.25 v 0 l -4.1,2.7 q -3.7,-5.1 -7.35,-8.95 -3.65,-3.85 -8,-6 Q 36.1,65.5 30.5,65.5 v 0 q -5.8,0 -8.55,2.35 -2.75,2.35 -2.75,5.95 v 0 q 0,4.2 2.7,6.15 2.7,1.95 6.9,1.95 v 0 q 2.7,0 4.95,-0.55 Q 36,80.8 38.2,79.8 v 0 l 1.7,4.8 q -2.6,1 -5.3,1.6 -2.7,0.6 -5.5,0.6 z" id="g1p0" inkscape:label="g1p0"></path><path style="display:inline;fill:none;stroke:#000000;stroke-width:1px;stroke-linecap:butt;stroke-linejoin:miter;stroke-opacity:1" d="m 39.156038,82.101726 c -2.559475,0.870519 -5.086907,1.981239 -7.823193,2.132839 -3.656068,0.346073 -7.630959,0.02382 -10.710525,-2.159471 -1.994947,-1.389787 -3.307503,-3.602927 -3.721038,-5.984024 -0.524339,-2.865919 -0.09409,-6.035968 1.795561,-8.342771 1.97195,-2.740177 5.319724,-4.087889 8.589416,-4.419381 5.402628,-0.588506 11.078052,0.234292 15.808321,3.017688 4.134381,2.336077 7.55606,5.727729 10.466774,9.443934 1.484877,1.838423 2.884191,3.743963 4.305828,5.631338" id="g1s0" inkscape:label="g1s0"></path></g></svg>