<svg xmlns="http://www.w3.org/2000/svg" xmlns:xlink="http://www.w3.org/1999/xlink" width="55.6" height="130.4"><path d="M26.40 73L26.40 73Q22.80 73 19.95 72Q17.10 71 15.20 69.20L15.20 69.20Q12.60 66.90 11.35 63.65Q10.10 60.40 10.10 55.60L10.10 55.60L10.10 44.40Q10.10 41.70 9.75 40.20Q9.40 38.70 8.60 37.60L8.60 37.60Q7.60 36.20 5.55 35.75Q3.50 35.30 0.90 35.30L0.90 35.30L1.50 30.40L2.30 30.40Q9.50 30.40 12.60 34.00L12.60 34.00Q14.10 35.60 14.75 38.05Q15.40 40.50 15.40 44.20L15.40 44.20L15.40 55.20Q15.40 59.40 16.30 61.80Q17.20 64.20 18.90 65.70L18.90 65.70Q21.60 68.10 26.80 68.10L26.80 68.10Q30.50 68.10 33.85 66.55Q37.20 65 40.10 62.40L40.10 62.40L40.10 29.30L45.40 30.10L45.40 75.50Q45.40 78.70 45.95 80.35Q46.50 82.00 47.60 82.90L47.60 82.90Q48.80 84.10 50.80 84.35Q52.80 84.60 55.10 84.60L55.10 84.60L54.50 89.60L53.60 89.60Q46.80 89.60 43.60 86.60L43.60 86.60Q41.90 85.00 41 82.50Q40.10 80 40.10 75.80L40.10 75.80L40.10 68.40Q37.30 70.50 33.80 71.75Q30.30 73 26.40 73ZM45 25.50L40.20 25.50Q38 17.90 36 13.40Q34 8.90 31.45 6.90Q28.90 4.90 25 4.90L25 4.90Q22.20 4.90 19.20 5.80L19.20 5.80L17.60 1.20Q19.60 0.60 21.55 0.30Q23.50 0 25.30 0L25.30 0Q30 0 33.50 2.15Q37 4.30 39.75 9.80Q42.50 15.30 45 25.50L45 25.50Z"/></svg>