<svg xmlns="http://www.w3.org/2000/svg" xmlns:xlink="http://www.w3.org/1999/xlink" width="55.6" height="130.4"><path d="M26.40 73L26.40 73Q22.80 73 19.95 72Q17.10 71 15.20 69.20L15.20 69.20Q12.60 66.90 11.35 63.65Q10.10 60.40 10.10 55.60L10.10 55.60L10.10 44.40Q10.10 41.70 9.75 40.20Q9.40 38.70 8.60 37.60L8.60 37.60Q7.60 36.20 5.55 35.75Q3.50 35.30 0.90 35.30L0.90 35.30L1.50 30.40L2.30 30.40Q9.50 30.40 12.60 34.00L12.60 34.00Q14.10 35.60 14.75 38.05Q15.40 40.50 15.40 44.20L15.40 44.20L15.40 55.20Q15.40 59.40 16.30 61.80Q17.20 64.20 18.90 65.70L18.90 65.70Q21.60 68.10 26.80 68.10L26.80 68.10Q30.50 68.10 33.85 66.55Q37.20 65 40.10 62.40L40.10 62.40L40.10 29.30L45.40 30.10L45.40 75.50Q45.40 78.70 45.95 80.35Q46.50 82.00 47.60 82.90L47.60 82.90Q48.80 84.10 50.80 84.35Q52.80 84.60 55.10 84.60L55.10 84.60L54.50 89.60L53.60 89.60Q46.80 89.60 43.60 86.60L43.60 86.60Q41.90 85.00 41 82.50Q40.10 80 40.10 75.80L40.10 75.80L40.10 68.40Q37.30 70.50 33.80 71.75Q30.30 73 26.40 73ZM45.10 25.50L40.70 25.50Q38.80 17.70 36.95 13.15Q35.10 8.60 32.65 6.70Q30.20 4.80 26.40 4.80L26.40 4.80Q25.20 4.80 23.85 5Q22.50 5.20 21 5.70L21 5.70L19.50 1.10Q21.40 0.50 23.20 0.25Q25 0 26.70 0L26.70 0Q31.30 0 34.65 2.25Q38 4.50 40.50 10.05Q43 15.60 45.10 25.50L45.10 25.50ZM39.80 23.70L37 26.60Q30.90 21.20 26.70 18.85Q22.50 16.50 17.60 16.50L17.60 16.50Q14.10 16.50 11.20 17.40L11.20 17.40L9.70 12.70Q11.50 12.30 13.45 12Q15.40 11.70 17.60 11.70L17.60 11.70Q21.40 11.70 24.75 12.90Q28.10 14.10 31.65 16.75Q35.20 19.40 39.80 23.70L39.80 23.70Z"/></svg>