<svg xmlns="http://www.w3.org/2000/svg" xmlns:xlink="http://www.w3.org/1999/xlink" width="80.7" height="130.4"><path d="M26.40 73L26.40 73Q22.80 73 19.95 72Q17.10 71 15.20 69.20L15.20 69.20Q12.60 66.90 11.35 63.65Q10.10 60.40 10.10 55.60L10.10 55.60L10.10 44.40Q10.10 41.70 9.75 40.20Q9.40 38.70 8.60 37.60L8.60 37.60Q7.60 36.20 5.55 35.75Q3.50 35.30 0.90 35.30L0.90 35.30L1.50 30.40L2.30 30.40Q9.50 30.40 12.60 34.00L12.60 34.00Q14.10 35.60 14.75 38.05Q15.40 40.50 15.40 44.20L15.40 44.20L15.40 55.20Q15.40 59.40 16.30 61.80Q17.20 64.20 18.90 65.70L18.90 65.70Q21.60 68.10 26.80 68.10L26.80 68.10Q30.50 68.10 33.85 66.55Q37.20 65 40.10 62.40L40.10 62.40L40.10 29.30L45.40 30.10L45.40 75.50Q45.40 78.70 45.95 80.35Q46.50 82.00 47.60 82.90L47.60 82.90Q48.80 84.10 50.80 84.35Q52.80 84.60 55.10 84.60L55.10 84.60L54.50 89.60L53.60 89.60Q46.80 89.60 43.60 86.60L43.60 86.60Q41.90 85.00 41 82.50Q40.10 80 40.10 75.80L40.10 75.80L40.10 68.40Q37.30 70.50 33.80 71.75Q30.30 73 26.40 73ZM79.70 89.60L78.70 89.60Q72.10 89.60 68.80 86.60L68.80 86.60Q67 85.00 66.15 82.50Q65.30 80 65.30 75.80L65.30 75.80L65.30 29.30L70.60 30.00L70.60 75.50Q70.60 78.80 71.10 80.40Q71.60 82.00 72.90 83.00L72.90 83.00Q74.10 84.10 75.95 84.35Q77.80 84.60 80.20 84.60L80.20 84.60L79.70 89.60ZM70.20 25.50L65.80 25.50Q63.90 17.70 62.05 13.15Q60.20 8.60 57.75 6.70Q55.30 4.80 51.50 4.80L51.50 4.80Q50.30 4.80 48.95 5Q47.60 5.20 46.10 5.70L46.10 5.70L44.60 1.10Q46.50 0.50 48.30 0.25Q50.10 0 51.80 0L51.80 0Q56.40 0 59.75 2.25Q63.10 4.50 65.60 10.05Q68.10 15.60 70.20 25.50L70.20 25.50ZM64.90 23.70L62.10 26.60Q56 21.20 51.80 18.85Q47.60 16.50 42.70 16.50L42.70 16.50Q39.20 16.50 36.30 17.40L36.30 17.40L34.80 12.70Q36.60 12.30 38.55 12Q40.50 11.70 42.70 11.70L42.70 11.70Q46.50 11.70 49.85 12.90Q53.20 14.10 56.75 16.75Q60.30 19.40 64.90 23.70L64.90 23.70Z"/></svg>