<svg xmlns="http://www.w3.org/2000/svg" xmlns:xlink="http://www.w3.org/1999/xlink" width="68.2" height="130.4"><path d="M25.40 90.60L25.40 90.60Q17.10 90.60 11.40 86.40Q5.70 82.20 1.10 75L1.10 75L5.80 72.10Q10.20 79 14.75 82.30Q19.30 85.60 25.30 85.60L25.30 85.60Q30.60 85.60 33.70 82.85Q36.80 80.10 36.80 75.20L36.80 75.20Q36.80 71.90 35.60 69.45Q34.40 67 31.70 64.65Q29 62.30 24.40 59.40L24.40 59.40Q17.30 55.00 14.30 51.15Q11.30 47.30 11.30 42.20L11.30 42.20Q11.30 36.50 15.55 32.90Q19.80 29.30 27.40 29.30L27.40 29.30Q29.80 29.30 32.10 29.55Q34.40 29.80 37 30.40L37 30.40L35.90 35.20Q33.60 34.70 31.60 34.50Q29.60 34.30 27.30 34.30L27.30 34.30Q22.20 34.30 19.45 36.40Q16.70 38.50 16.70 42.30L16.70 42.30Q16.70 46.10 19.30 48.80Q21.90 51.50 28 55.30L28 55.30Q35.50 60.00 38.95 64.35Q42.40 68.70 42.40 75L42.40 75Q42.40 82.00 37.90 86.30Q33.40 90.60 25.40 90.60ZM57.00 51.30L57.00 51.30Q55.20 51.30 53.80 49.95Q52.40 48.60 52.40 46.20L52.40 46.20Q52.40 43.80 53.75 42.45Q55.10 41.10 57.00 41.10L57.00 41.10Q59.00 41.10 60.30 42.45Q61.60 43.80 61.60 46.20L61.60 46.20Q61.60 48.70 60.25 50.00Q58.90 51.30 57.00 51.30ZM57.00 84.60L57.00 84.60Q55.20 84.60 53.80 83.25Q52.40 81.90 52.40 79.50L52.40 79.50Q52.40 77.10 53.75 75.75Q55.10 74.40 57.00 74.40L57.00 74.40Q59.00 74.40 60.30 75.75Q61.60 77.10 61.60 79.50L61.60 79.50Q61.60 82.00 60.25 83.30Q58.90 84.60 57.00 84.60Z"/></svg>