<svg xmlns="http://www.w3.org/2000/svg" xmlns:xlink="http://www.w3.org/1999/xlink" width="45.800000000000004"
    height="130.4">
    <path
        d="M25.40 90.60L25.40 90.60Q17.10 90.60 11.40 86.40Q5.70 82.20 1.10 75L1.10 75L5.80 72.10Q10.20 79 14.75 82.30Q19.30 85.60 25.30 85.60L25.30 85.60Q30.60 85.60 33.70 82.85Q36.80 80.10 36.80 75.20L36.80 75.20Q36.80 71.90 35.60 69.45Q34.40 67 31.70 64.65Q29 62.30 24.40 59.40L24.40 59.40Q17.30 55.00 14.30 51.15Q11.30 47.30 11.30 42.20L11.30 42.20Q11.30 36.50 15.55 32.90Q19.80 29.30 27.40 29.30L27.40 29.30Q29.80 29.30 32.10 29.55Q34.40 29.80 37 30.40L37 30.40L35.90 35.20Q33.60 34.70 31.60 34.50Q29.60 34.30 27.30 34.30L27.30 34.30Q22.20 34.30 19.45 36.40Q16.70 38.50 16.70 42.30L16.70 42.30Q16.70 46.10 19.30 48.80Q21.90 51.50 28 55.30L28 55.30Q35.50 60.00 38.95 64.35Q42.40 68.70 42.40 75L42.40 75Q42.40 82.00 37.90 86.30Q33.40 90.60 25.40 90.60Z" />
     <g
     id="g686"
     inkscape:label="g2">
    <path
       style="display:inline"
       d="m 57.8,22 v 0 Q 56,22 54.6,20.65 53.2,19.3 53.2,16.9 v 0 q 0,-2.4 1.35,-3.75 1.35,-1.35 3.25,-1.35 v 0 q 2,0 3.3,1.35 1.3,1.35 1.3,3.75 v 0 q 0,2.5 -1.35,3.8 Q 59.7,22 57.8,22 Z"
       id="path675"
       inkscape:label="p2" />
    <path
       d="m 57.837008,13.391934 c -0.820403,0 -1.515467,0.311801 -2.085191,0.935405 -0.569724,0.623603 -0.854587,1.707464 -0.854587,2.59035 0,1.055328 0.273468,1.894793 0.820403,2.518396 0.546936,0.623603 1.347168,0.935404 2.119375,0.935404 0.865981,0 1.572439,-0.311801 2.119375,-0.935404 0.546935,-0.623603 0.820403,-1.597773 0.820403,-2.518396 0,-1.151267 -0.284863,-2.02671 -0.854587,-2.626328 -0.569724,-0.599617 -1.264788,-0.899427 -2.085191,-0.899427 z"
       style="display:inline;stroke-width:0.701376"
       id="path950"
       sodipodi:nodetypes="sssssssss"
       inkscape:label="s3" />
  </g>
  <g
     id="g690"
     inkscape:label="g3">
    <path
       style="display:inline"
       d="m 57.8,55.3 v 0 Q 56,55.3 54.6,53.95 53.2,52.6 53.2,50.2 v 0 q 0,-2.4 1.35,-3.75 1.35,-1.35 3.25,-1.35 v 0 q 2,0 3.3,1.35 1.3,1.35 1.3,3.75 v 0 q 0,2.5 -1.35,3.8 -1.35,1.3 -3.25,1.3 z"
       id="path677"
       inkscape:label="p3" />
    <path
       d="m 57.836778,46.680782 c -0.820403,0 -1.515467,0.311801 -2.085191,0.935405 -0.569724,0.623603 -0.854587,1.707464 -0.854587,2.59035 0,1.055328 0.273468,1.894793 0.820403,2.518396 0.546936,0.623603 1.347168,0.935404 2.119375,0.935404 0.865981,0 1.572439,-0.311801 2.119375,-0.935404 0.546935,-0.623603 0.820403,-1.597773 0.820403,-2.518396 0,-1.151267 -0.284863,-2.02671 -0.854587,-2.626328 -0.569724,-0.599617 -1.264788,-0.899427 -2.085191,-0.899427 z"
       style="display:inline;stroke-width:0.701376"
       id="path950-5"
       sodipodi:nodetypes="sssssssss"
       inkscape:label="s4" />
  </g>
    <path style="fill:none;stroke:#000000;stroke-width:1px;stroke-linecap:butt;stroke-linejoin:miter;stroke-opacity:1"
        d="M 35.359375,3.4570313 C 32.346189,2.9684507 29.330354,2.4095044 26.262369,2.5013054 22.032645,2.448874 17.286177,3.5307338 14.67991,7.1493778 c -2.570359,3.6033792 -2.228104,8.7648482 0.138312,12.3845292 2.417616,3.442204 6.051858,5.753572 9.5099,8.032499 4.405315,2.814665 9.009494,5.729875 12.000794,10.126292 2.243404,3.537294 2.672305,8.020608 1.714046,12.041677 -1.042363,3.840395 -4.0843,7.045054 -7.906426,8.193955 -4.615655,1.411449 -9.725254,1.081018 -14.207397,-0.657699 C 11.18655,55.345648 7.6338446,51.403255 4.6578159,47.370449 3.8896572,46.328263 3.1214985,45.286078 2.3533398,44.243892"
        id="path329" inkscape:label="s1" />
</svg>