<?xml version="1.0" encoding="UTF-8" standalone="no"?><svg width="57.799999" height="90" version="1.1" id="svg1002" sodipodi:docname="2_di.svg" inkscape:version="1.2.1 (9c6d41e410, 2022-07-14)" xmlns:inkscape="http://www.inkscape.org/namespaces/inkscape" xmlns:sodipodi="http://sodipodi.sourceforge.net/DTD/sodipodi-0.dtd" xmlns="http://www.w3.org/2000/svg" xmlns:svg="http://www.w3.org/2000/svg"><defs id="defs1006"></defs><sodipodi:namedview id="namedview1004" pagecolor="#ffffff" bordercolor="#666666" borderopacity="1.0" inkscape:showpageshadow="2" inkscape:pageopacity="0.0" inkscape:pagecheckerboard="0" inkscape:deskcolor="#d1d1d1" showgrid="false" inkscape:zoom="5.1189328" inkscape:cx="-6.7396861" inkscape:cy="66.810801" inkscape:window-width="1920" inkscape:window-height="1027" inkscape:window-x="-8" inkscape:window-y="-8" inkscape:window-maximized="1" inkscape:current-layer="svg1002"></sodipodi:namedview><g id="g0" inkscape:label="g0" transform="translate(16.5,28.7)"><path d="m 24.3,61.3 v 0 Q 16,61.3 10.3,57.1 4.6,52.9 0,45.7 v 0 l 4.7,-2.9 q 4.4,6.9 8.95,10.2 4.55,3.3 10.55,3.3 v 0 q 5.3,0 8.4,-2.75 3.1,-2.75 3.1,-7.65 v 0 q 0,-3.3 -1.2,-5.75 Q 33.3,37.7 30.6,35.35 27.9,33 23.3,30.1 v 0 Q 16.2,25.7 13.2,21.85 10.2,18 10.2,12.9 v 0 Q 10.2,7.2 14.45,3.6 18.7,0 26.3,0 v 0 q 2.4,0 4.7,0.25 2.3,0.25 4.9,0.85 v 0 L 34.8,5.9 Q 32.5,5.4 30.5,5.2 28.5,5 26.2,5 V 5 Q 21.1,5 18.35,7.1 15.6,9.2 15.6,13 v 0 q 0,3.8 2.6,6.5 2.6,2.7 8.7,6.5 v 0 q 7.5,4.7 10.95,9.05 3.45,4.35 3.45,10.65 v 0 q 0,7 -4.5,11.3 -4.5,4.3 -12.5,4.3 z" id="g0p0" inkscape:label="g0p0"></path><path style="fill:none;stroke:#000000;stroke-width:1px;stroke-linecap:butt;stroke-linejoin:miter;stroke-opacity:1" d="M 35.359375,3.4570313 C 32.346189,2.9684507 29.330354,2.4095044 26.262369,2.5013054 22.032645,2.448874 17.286177,3.5307338 14.67991,7.1493778 c -2.570359,3.6033792 -2.228104,8.7648482 0.138312,12.3845292 2.417616,3.442204 6.051858,5.753572 9.5099,8.032499 4.405315,2.814665 9.009494,5.729875 12.000794,10.126292 2.243404,3.537294 2.672305,8.020608 1.714046,12.041677 -1.042363,3.840395 -4.0843,7.045054 -7.906426,8.193955 -4.615655,1.411449 -9.725254,1.081018 -14.207397,-0.657699 C 11.18655,55.345648 7.6338446,51.403255 4.6578159,47.370449 3.8896572,46.328263 3.1214985,45.286078 2.3533398,44.243892" id="g0s0" inkscape:label="g0s0"></path></g><g id="g1" inkscape:label="g1"><path style="display:inline" d="M 14.3,89 H 13.4 Q 10.3,89 7.8,88.35 5.3,87.7 3.5,86 v 0 Q 1.6,84.3 0.8,81.8 0,79.3 0,75.2 v 0 -53.4 Q 0,15.2 1.35,11.1 2.7,7 6.1,4.1 v 0 Q 8.3,2.2 11.45,1.1 14.6,0 18.7,0 V 0 Q 27.8,0 35.05,5.25 42.3,10.5 49.6,19 v 0 l -3.9,3.1 Q 39.3,14.5 32.95,9.7 26.6,4.9 19,4.9 v 0 q -5.9,0 -9.3,2.9 v 0 q -2.4,2.1 -3.4,5.6 -1,3.5 -1,10.1 v 0 51.4 q 0,3.2 0.5,4.85 0.5,1.65 1.7,2.55 v 0 q 1.2,1.2 3.15,1.45 Q 12.6,84 14.9,84 v 0 z" id="g1p0" inkscape:label="g1p0"></path><path style="display:inline;fill:none;stroke:#000000;stroke-width:1px;stroke-linecap:butt;stroke-linejoin:miter;stroke-opacity:1" d="M 47.652368,20.738116 C 42.912163,15.169343 37.771996,9.7590782 31.535156,5.8554687 25.556372,2.3479405 17.925665,1.3282836 11.384063,3.8090168 7.098823,5.5445734 4.0571601,9.6376118 3.3691387,14.177325 2.2636698,19.814013 2.8760079,25.587166 2.7106596,31.290784 c 0.017146,15.362435 -0.08206,30.727062 0.00809,46.088122 0.1319749,2.783277 1.0109143,5.743286 3.4696807,7.348394 2.457118,1.869621 5.6943627,1.540296 8.5928207,1.741457" id="g1s0" inkscape:label="g1s0"></path></g></svg>