<svg xmlns="http://www.w3.org/2000/svg" xmlns:xlink="http://www.w3.org/1999/xlink" width="70.9" height="130.4"><path d="M24 89.60L23.10 89.60Q20 89.60 17.50 88.95Q15 88.30 13.20 86.60L13.20 86.60Q11.30 84.90 10.50 82.40Q9.70 79.90 9.70 75.80L9.70 75.80L9.70 22.40Q9.70 15.80 11.05 11.70Q12.40 7.60 15.80 4.70L15.80 4.70Q18 2.80 21.15 1.70Q24.30 0.60 28.40 0.60L28.40 0.60Q37.50 0.60 44.75 5.85Q52 11.10 59.30 19.60L59.30 19.60L55.40 22.70Q49 15.10 42.65 10.30Q36.30 5.50 28.70 5.50L28.70 5.50Q22.80 5.50 19.40 8.40L19.40 8.40Q17 10.50 16 14Q15 17.50 15 24.10L15 24.10L15 75.50Q15 78.70 15.50 80.35Q16 82.00 17.20 82.90L17.20 82.90Q18.40 84.10 20.35 84.35Q22.30 84.60 24.60 84.60L24.60 84.60L24 89.60ZM50.50 90.60L50.50 90.60Q42.20 90.60 36.50 86.40Q30.80 82.20 26.20 75L26.20 75L30.90 72.10Q35.30 79 39.85 82.30Q44.40 85.60 50.40 85.60L50.40 85.60Q55.70 85.60 58.80 82.85Q61.90 80.10 61.90 75.20L61.90 75.20Q61.90 71.90 60.70 69.45Q59.50 67 56.80 64.65Q54.10 62.30 49.50 59.40L49.50 59.40Q42.40 55.00 39.40 51.15Q36.40 47.30 36.40 42.20L36.40 42.20Q36.40 36.50 40.65 32.90Q44.90 29.30 52.50 29.30L52.50 29.30Q54.90 29.30 57.20 29.55Q59.50 29.80 62.10 30.40L62.10 30.40L61 35.20Q58.70 34.70 56.70 34.50Q54.70 34.30 52.40 34.30L52.40 34.30Q47.30 34.30 44.55 36.40Q41.80 38.50 41.80 42.30L41.80 42.30Q41.80 46.10 44.40 48.80Q47 51.50 53.10 55.30L53.10 55.30Q60.60 60.00 64.05 64.35Q67.50 68.70 67.50 75L67.50 75Q67.50 82.00 63 86.30Q58.50 90.60 50.50 90.60Z"/></svg>