<?xml version="1.0" encoding="UTF-8" standalone="no"?>
<svg
   width="69.300003"
   height="90"
   version="1.1"
   id="svg1109"
   sodipodi:docname="3_dee.svg"
   inkscape:version="1.2.1 (9c6d41e410, 2022-07-14)"
   xmlns:inkscape="http://www.inkscape.org/namespaces/inkscape"
   xmlns:sodipodi="http://sodipodi.sourceforge.net/DTD/sodipodi-0.dtd"
   xmlns="http://www.w3.org/2000/svg"
   xmlns:svg="http://www.w3.org/2000/svg">
  <defs
     id="defs1113" />
  <sodipodi:namedview
     id="namedview1111"
     pagecolor="#ffffff"
     bordercolor="#666666"
     borderopacity="1.0"
     inkscape:showpageshadow="2"
     inkscape:pageopacity="0.0"
     inkscape:pagecheckerboard="0"
     inkscape:deskcolor="#d1d1d1"
     showgrid="false"
     inkscape:zoom="1.809816"
     inkscape:cx="34.533897"
     inkscape:cy="64.647455"
     inkscape:window-width="1920"
     inkscape:window-height="1027"
     inkscape:window-x="-8"
     inkscape:window-y="-8"
     inkscape:window-maximized="1"
     inkscape:current-layer="svg1109" />
  <g
     id="g871"
     inkscape:label="g1"
     transform="translate(0,28.7)">
    <path
       d="m 24.3,61.3 v 0 Q 16,61.3 10.3,57.1 4.6,52.9 0,45.7 v 0 l 4.7,-2.9 q 4.4,6.9 8.95,10.2 4.55,3.3 10.55,3.3 v 0 q 5.3,0 8.4,-2.75 3.1,-2.75 3.1,-7.65 v 0 q 0,-3.3 -1.2,-5.75 Q 33.3,37.7 30.6,35.35 27.9,33 23.3,30.1 v 0 Q 16.2,25.7 13.2,21.85 10.2,18 10.2,12.9 v 0 Q 10.2,7.2 14.45,3.6 18.7,0 26.3,0 v 0 q 2.4,0 4.7,0.25 2.3,0.25 4.9,0.85 v 0 L 34.8,5.9 Q 32.5,5.4 30.5,5.2 28.5,5 26.2,5 V 5 Q 21.1,5 18.35,7.1 15.6,9.2 15.6,13 v 0 q 0,3.8 2.6,6.5 2.6,2.7 8.7,6.5 v 0 q 7.5,4.7 10.95,9.05 3.45,4.35 3.45,10.65 v 0 q 0,7 -4.5,11.3 -4.5,4.3 -12.5,4.3 z"
       id="path2"
       inkscape:label="p1" />
    <path
       style="fill:none;stroke:#000000;stroke-width:1px;stroke-linecap:butt;stroke-linejoin:miter;stroke-opacity:1"
       d="M 35.359375,3.4570313 C 32.346189,2.9684507 29.330354,2.4095044 26.262369,2.5013054 22.032645,2.448874 17.286177,3.5307338 14.67991,7.1493778 c -2.570359,3.6033792 -2.228104,8.7648482 0.138312,12.3845292 2.417616,3.442204 6.051858,5.753572 9.5099,8.032499 4.405315,2.814665 9.009494,5.729875 12.000794,10.126292 2.243404,3.537294 2.672305,8.020608 1.714046,12.041677 -1.042363,3.840395 -4.0843,7.045054 -7.906426,8.193955 -4.615655,1.411449 -9.725254,1.081018 -14.207397,-0.657699 C 11.18655,55.345648 7.6338446,51.403255 4.6578159,47.370449 3.8896572,46.328263 3.1214985,45.286078 2.3533398,44.243892"
       id="path329-5"
       inkscape:label="s1" />
  </g>
  <g
     id="g399"
     inkscape:label="g2"
     transform="matrix(0.99899518,0,0,1,-1.8703578,0)">
    <path
       style="display:inline"
       d="m 70.7,89 h -1 q -3,0 -5.55,-0.65 Q 61.6,87.7 59.8,86 v 0 Q 56.3,82.7 56.3,75.2 v 0 -46.7 Q 54.9,17.1 51.4,11 47.9,4.9 42.4,4.9 v 0 q -3.6,0 -5.6,2.6 -2,2.6 -2,7.7 v 0 q 0,3.9 0.6,7 v 0 H 30.3 Q 30,20.7 29.75,18.6 29.5,16.5 29.5,14.6 v 0 Q 29.5,8 32.85,4 36.2,0 42.4,0 v 0 q 5.9,0 9.9,3.95 4,3.95 6.25,10.4 2.25,6.45 3.05,13.85 v 0 46.7 q 0,3.3 0.5,4.85 0.5,1.55 1.7,2.55 v 0 Q 65,83.5 67,83.75 69,84 71.2,84 v 0 z"
       id="path330"
       inkscape:label="p2" />
    <path
       style="display:inline;fill:none;stroke:#000000;stroke-width:1px;stroke-linecap:butt;stroke-linejoin:miter;stroke-opacity:1"
       d="M 32.90625,22.296875 C 32.189196,17.24716 31.309374,11.67002 33.948338,7.0048776 36.015851,3.1824285 40.814237,1.7827514 44.871275,2.7018315 c 5.299598,1.0610536 8.634255,5.9944562 10.53375,10.6924095 1.94946,4.911209 3.041647,10.154719 3.53254,15.40287 0.03373,16.081561 -0.05668,32.165472 0.05492,48.245568 0.09206,3.485135 1.641413,7.400064 5.196702,8.60873 2.224083,0.864628 4.672997,0.637872 7.006103,0.85642"
       id="path80"
       inkscape:label="s2" />
  </g>
</svg>
