<svg xmlns="http://www.w3.org/2000/svg" xmlns:xlink="http://www.w3.org/1999/xlink" width="45.800000000000004" height="130.4"><path d="M25.40 90.60L25.40 90.60Q17.10 90.60 11.40 86.40Q5.70 82.20 1.10 75L1.10 75L5.80 72.10Q10.20 79 14.75 82.30Q19.30 85.60 25.30 85.60L25.30 85.60Q30.60 85.60 33.70 82.85Q36.80 80.10 36.80 75.20L36.80 75.20Q36.80 71.90 35.60 69.45Q34.40 67 31.70 64.65Q29 62.30 24.40 59.40L24.40 59.40Q17.30 55.00 14.30 51.15Q11.30 47.30 11.30 42.20L11.30 42.20Q11.30 36.50 15.55 32.90Q19.80 29.30 27.40 29.30L27.40 29.30Q29.80 29.30 32.10 29.55Q34.40 29.80 37 30.40L37 30.40L35.90 35.20Q33.60 34.70 31.60 34.50Q29.60 34.30 27.30 34.30L27.30 34.30Q22.20 34.30 19.45 36.40Q16.70 38.50 16.70 42.30L16.70 42.30Q16.70 46.10 19.30 48.80Q21.90 51.50 28 55.30L28 55.30Q35.50 60.00 38.95 64.35Q42.40 68.70 42.40 75L42.40 75Q42.40 82.00 37.90 86.30Q33.40 90.60 25.40 90.60ZM30.10 116.30L30.10 116.30Q23.50 116.30 18.35 114.05Q13.20 111.80 9.05 108.00Q4.90 104.20 1.40 99.40L1.40 99.40L5.60 96.50Q10.70 103.20 16.30 107.30Q21.90 111.40 30.10 111.40L30.10 111.40Q35.80 111.40 38.80 109.20Q41.80 107.00 41.80 102.70L41.80 102.70Q41.80 98.80 39.20 96.80Q36.60 94.80 32.20 94.80L32.20 94.80Q29.70 94.80 27.50 95.35Q25.30 95.90 23.10 96.80L23.10 96.80L21.30 92.30Q23.90 91.20 26.50 90.65Q29.10 90.10 31.90 90.10L31.90 90.10Q39 90.10 42.90 93.65Q46.80 97.20 46.80 103.10L46.80 103.10Q46.80 109.30 42.35 112.80Q37.90 116.30 30.10 116.30Z"/></svg>