<svg xmlns="http://www.w3.org/2000/svg" xmlns:xlink="http://www.w3.org/1999/xlink" width="45.800000000000004"
    height="130.4">
    <path
        d="M25.40 90.60L25.40 90.60Q17.10 90.60 11.40 86.40Q5.70 82.20 1.10 75L1.10 75L5.80 72.10Q10.20 79 14.75 82.30Q19.30 85.60 25.30 85.60L25.30 85.60Q30.60 85.60 33.70 82.85Q36.80 80.10 36.80 75.20L36.80 75.20Q36.80 71.90 35.60 69.45Q34.40 67 31.70 64.65Q29 62.30 24.40 59.40L24.40 59.40Q17.30 55.00 14.30 51.15Q11.30 47.30 11.30 42.20L11.30 42.20Q11.30 36.50 15.55 32.90Q19.80 29.30 27.40 29.30L27.40 29.30Q29.80 29.30 32.10 29.55Q34.40 29.80 37 30.40L37 30.40L35.90 35.20Q33.60 34.70 31.60 34.50Q29.60 34.30 27.30 34.30L27.30 34.30Q22.20 34.30 19.45 36.40Q16.70 38.50 16.70 42.30L16.70 42.30Q16.70 46.10 19.30 48.80Q21.90 51.50 28 55.30L28 55.30Q35.50 60.00 38.95 64.35Q42.40 68.70 42.40 75L42.40 75Q42.40 82.00 37.90 86.30Q33.40 90.60 25.40 90.60ZM30.10 116.30L30.10 116.30Q23.50 116.30 18.35 114.05Q13.20 111.80 9.05 108.00Q4.90 104.20 1.40 99.40L1.40 99.40L5.60 96.50Q10.70 103.20 16.30 107.30Q21.90 111.40 30.10 111.40L30.10 111.40Q35.80 111.40 38.80 109.20Q41.80 107.00 41.80 102.70L41.80 102.70Q41.80 98.80 39.20 96.80Q36.60 94.80 32.20 94.80L32.20 94.80Q29.70 94.80 27.50 95.35Q25.30 95.90 23.10 96.80L23.10 96.80L21.30 92.30Q23.90 91.20 26.50 90.65Q29.10 90.10 31.90 90.10L31.90 90.10Q39 90.10 42.90 93.65Q46.80 97.20 46.80 103.10L46.80 103.10Q46.80 109.30 42.35 112.80Q37.90 116.30 30.10 116.30Z" />
      <g
     id="g429"
     inkscape:label="g2">
    <path
       style="display:inline"
       d="m 30.9,87 v 0 Q 24.3,87 19.15,84.75 14,82.5 9.85,78.7 5.7,74.9 2.2,70.1 v 0 l 4.2,-2.9 q 5.1,6.7 10.7,10.8 5.6,4.1 13.8,4.1 v 0 q 5.7,0 8.7,-2.2 3,-2.2 3,-6.5 v 0 q 0,-3.9 -2.6,-5.9 -2.6,-2 -7,-2 v 0 q -2.5,0 -4.7,0.55 -2.2,0.55 -4.4,1.45 v 0 L 22.1,63 q 2.6,-1.1 5.2,-1.65 2.6,-0.55 5.4,-0.55 v 0 q 7.1,0 11,3.55 3.9,3.55 3.9,9.45 v 0 q 0,6.2 -4.45,9.7 Q 38.7,87 30.9,87 Z"
       id="path420"
       inkscape:label="p2" />
    <path
       style="display:inline;fill:none;stroke:#000000;stroke-width:1px;stroke-linecap:butt;stroke-linejoin:miter;stroke-opacity:1"
       d="m 22.914062,65.289062 c 2.323807,-0.692195 4.562347,-1.731347 7.000658,-1.966609 3.549036,-0.376084 7.376537,-0.234926 10.53575,1.599631 2.719286,1.540051 4.469061,4.52798 4.601284,7.636307 0.253017,2.845818 -0.456653,5.883237 -2.460912,7.998761 -2.433486,2.67518 -6.157635,3.68678 -9.656459,3.920638 C 27.700261,84.79836 22.284886,83.938844 17.69019,81.310728 14.906965,79.755209 12.447616,77.671348 10.188095,75.437432 8.1199862,73.202596 6.1412982,70.891325 4.1757812,68.566406"
       id="path198"
       inkscape:label="s3" />
  </g>
    <path style="fill:none;stroke:#000000;stroke-width:1px;stroke-linecap:butt;stroke-linejoin:miter;stroke-opacity:1"
        d="M 35.359375,3.4570313 C 32.346189,2.9684507 29.330354,2.4095044 26.262369,2.5013054 22.032645,2.448874 17.286177,3.5307338 14.67991,7.1493778 c -2.570359,3.6033792 -2.228104,8.7648482 0.138312,12.3845292 2.417616,3.442204 6.051858,5.753572 9.5099,8.032499 4.405315,2.814665 9.009494,5.729875 12.000794,10.126292 2.243404,3.537294 2.672305,8.020608 1.714046,12.041677 -1.042363,3.840395 -4.0843,7.045054 -7.906426,8.193955 -4.615655,1.411449 -9.725254,1.081018 -14.207397,-0.657699 C 11.18655,55.345648 7.6338446,51.403255 4.6578159,47.370449 3.8896572,46.328263 3.1214985,45.286078 2.3533398,44.243892"
        id="path329" inkscape:label="s1" />
</svg>