<svg xmlns="http://www.w3.org/2000/svg" xmlns:xlink="http://www.w3.org/1999/xlink" width="45.800000000000004"
    height="130.4">
    <path
        d="M25.40 90.60L25.40 90.60Q17.10 90.60 11.40 86.40Q5.70 82.20 1.10 75L1.10 75L5.80 72.10Q10.20 79 14.75 82.30Q19.30 85.60 25.30 85.60L25.30 85.60Q30.60 85.60 33.70 82.85Q36.80 80.10 36.80 75.20L36.80 75.20Q36.80 71.90 35.60 69.45Q34.40 67 31.70 64.65Q29 62.30 24.40 59.40L24.40 59.40Q17.30 55.00 14.30 51.15Q11.30 47.30 11.30 42.20L11.30 42.20Q11.30 36.50 15.55 32.90Q19.80 29.30 27.40 29.30L27.40 29.30Q29.80 29.30 32.10 29.55Q34.40 29.80 37 30.40L37 30.40L35.90 35.20Q33.60 34.70 31.60 34.50Q29.60 34.30 27.30 34.30L27.30 34.30Q22.20 34.30 19.45 36.40Q16.70 38.50 16.70 42.30L16.70 42.30Q16.70 46.10 19.30 48.80Q21.90 51.50 28 55.30L28 55.30Q35.50 60.00 38.95 64.35Q42.40 68.70 42.40 75L42.40 75Q42.40 82.00 37.90 86.30Q33.40 90.60 25.40 90.60ZM28.30 116.10L28.30 116.10Q21.20 116.10 17.30 112.50Q13.40 108.90 13.40 103.00L13.40 103.00Q13.40 97.60 17.50 93.85Q21.60 90.10 29.50 90.10L29.50 90.10Q36.80 90.10 42.15 92.85Q47.50 95.60 51.60 99.95Q55.70 104.30 59.10 109.20L59.10 109.20L55.00 111.90Q51.30 106.80 47.65 102.95Q44.00 99.10 39.65 96.95Q35.30 94.80 29.70 94.80L29.70 94.80Q23.90 94.80 21.15 97.15Q18.40 99.50 18.40 103.10L18.40 103.10Q18.40 107.30 21.10 109.25Q23.80 111.20 28.00 111.20L28.00 111.20Q30.70 111.20 32.95 110.65Q35.20 110.10 37.40 109.10L37.40 109.10L39.10 113.90Q36.50 114.90 33.80 115.50Q31.10 116.10 28.30 116.10Z" />
    <g
     id="g459"
     inkscape:label="g2">
    <path
       style="display:inline"
       d="m 29.1,86.8 v 0 q -7.1,0 -11,-3.6 -3.9,-3.6 -3.9,-9.5 v 0 q 0,-5.4 4.1,-9.15 4.1,-3.75 12,-3.75 v 0 q 7.3,0 12.65,2.75 5.35,2.75 9.45,7.1 4.1,4.35 7.5,9.25 v 0 l -4.1,2.7 q -3.7,-5.1 -7.35,-8.95 -3.65,-3.85 -8,-6 Q 36.1,65.5 30.5,65.5 v 0 q -5.8,0 -8.55,2.35 -2.75,2.35 -2.75,5.95 v 0 q 0,4.2 2.7,6.15 2.7,1.95 6.9,1.95 v 0 q 2.7,0 4.95,-0.55 Q 36,80.8 38.2,79.8 v 0 l 1.7,4.8 q -2.6,1 -5.3,1.6 -2.7,0.6 -5.5,0.6 z"
       id="path450"
       inkscape:label="p2" />
    <path
       style="display:inline;fill:none;stroke:#000000;stroke-width:1px;stroke-linecap:butt;stroke-linejoin:miter;stroke-opacity:1"
       d="m 39.156038,82.101726 c -2.559475,0.870519 -5.086907,1.981239 -7.823193,2.132839 -3.656068,0.346073 -7.630959,0.02382 -10.710525,-2.159471 -1.994947,-1.389787 -3.307503,-3.602927 -3.721038,-5.984024 -0.524339,-2.865919 -0.09409,-6.035968 1.795561,-8.342771 1.97195,-2.740177 5.319724,-4.087889 8.589416,-4.419381 5.402628,-0.588506 11.078052,0.234292 15.808321,3.017688 4.134381,2.336077 7.55606,5.727729 10.466774,9.443934 1.484877,1.838423 2.884191,3.743963 4.305828,5.631338"
       id="path546"
       inkscape:label="s3" />
  </g>
    <path style="fill:none;stroke:#000000;stroke-width:1px;stroke-linecap:butt;stroke-linejoin:miter;stroke-opacity:1"
        d="M 35.359375,3.4570313 C 32.346189,2.9684507 29.330354,2.4095044 26.262369,2.5013054 22.032645,2.448874 17.286177,3.5307338 14.67991,7.1493778 c -2.570359,3.6033792 -2.228104,8.7648482 0.138312,12.3845292 2.417616,3.442204 6.051858,5.753572 9.5099,8.032499 4.405315,2.814665 9.009494,5.729875 12.000794,10.126292 2.243404,3.537294 2.672305,8.020608 1.714046,12.041677 -1.042363,3.840395 -4.0843,7.045054 -7.906426,8.193955 -4.615655,1.411449 -9.725254,1.081018 -14.207397,-0.657699 C 11.18655,55.345648 7.6338446,51.403255 4.6578159,47.370449 3.8896572,46.328263 3.1214985,45.286078 2.3533398,44.243892"
        id="path329" inkscape:label="s1" />
</svg>