<svg xmlns="http://www.w3.org/2000/svg" xmlns:xlink="http://www.w3.org/1999/xlink" width="45.800000000000004" height="130.4"><path d="M25.40 90.60L25.40 90.60Q17.10 90.60 11.40 86.40Q5.70 82.20 1.10 75L1.10 75L5.80 72.10Q10.20 79 14.75 82.30Q19.30 85.60 25.30 85.60L25.30 85.60Q30.60 85.60 33.70 82.85Q36.80 80.10 36.80 75.20L36.80 75.20Q36.80 71.90 35.60 69.45Q34.40 67 31.70 64.65Q29 62.30 24.40 59.40L24.40 59.40Q17.30 55.00 14.30 51.15Q11.30 47.30 11.30 42.20L11.30 42.20Q11.30 36.50 15.55 32.90Q19.80 29.30 27.40 29.30L27.40 29.30Q29.80 29.30 32.10 29.55Q34.40 29.80 37 30.40L37 30.40L35.90 35.20Q33.60 34.70 31.60 34.50Q29.60 34.30 27.30 34.30L27.30 34.30Q22.20 34.30 19.45 36.40Q16.70 38.50 16.70 42.30L16.70 42.30Q16.70 46.10 19.30 48.80Q21.90 51.50 28 55.30L28 55.30Q35.50 60.00 38.95 64.35Q42.40 68.70 42.40 75L42.40 75Q42.40 82.00 37.90 86.30Q33.40 90.60 25.40 90.60ZM28.30 116.10L28.30 116.10Q21.20 116.10 17.30 112.50Q13.40 108.90 13.40 103.00L13.40 103.00Q13.40 97.60 17.50 93.85Q21.60 90.10 29.50 90.10L29.50 90.10Q36.80 90.10 42.15 92.85Q47.50 95.60 51.60 99.95Q55.70 104.30 59.10 109.20L59.10 109.20L55.00 111.90Q51.30 106.80 47.65 102.95Q44.00 99.10 39.65 96.95Q35.30 94.80 29.70 94.80L29.70 94.80Q23.90 94.80 21.15 97.15Q18.40 99.50 18.40 103.10L18.40 103.10Q18.40 107.30 21.10 109.25Q23.80 111.20 28.00 111.20L28.00 111.20Q30.70 111.20 32.95 110.65Q35.20 110.10 37.40 109.10L37.40 109.10L39.10 113.90Q36.50 114.90 33.80 115.50Q31.10 116.10 28.30 116.10Z"/></svg>