<?xml version="1.0" encoding="UTF-8" standalone="no"?><svg width="41.299999" height="90.599998" version="1.1" id="svg1463" sodipodi:docname="6_de.svg" inkscape:version="1.2.1 (9c6d41e410, 2022-07-14)" xmlns:inkscape="http://www.inkscape.org/namespaces/inkscape" xmlns:sodipodi="http://sodipodi.sourceforge.net/DTD/sodipodi-0.dtd" xmlns="http://www.w3.org/2000/svg" xmlns:svg="http://www.w3.org/2000/svg"><defs id="defs1467"></defs><sodipodi:namedview id="namedview1465" pagecolor="#ffffff" bordercolor="#666666" borderopacity="1.0" inkscape:showpageshadow="2" inkscape:pageopacity="0.0" inkscape:pagecheckerboard="0" inkscape:deskcolor="#d1d1d1" showgrid="false" inkscape:zoom="1.809816" inkscape:cx="21.825423" inkscape:cy="65.199997" inkscape:window-width="1920" inkscape:window-height="1027" inkscape:window-x="-8" inkscape:window-y="-8" inkscape:window-maximized="1" inkscape:current-layer="svg1463"></sodipodi:namedview><g id="g0" inkscape:label="g0" transform="matrix(1,0,0,0.99011452,-1.9,0)"><path style="display:inline" d="M 36,25.5 H 31.2 Q 29,17.9 27,13.4 25,8.9 22.45,6.9 19.9,4.9 16,4.9 v 0 q -2.8,0 -5.8,0.9 v 0 L 8.6,1.2 Q 10.6,0.6 12.55,0.3 14.5,0 16.3,0 V 0 Q 21,0 24.5,2.15 28,4.3 30.75,9.8 33.5,15.3 36,25.5 Z" id="g0p0" inkscape:label="g0p0"></path><path style="display:inline;fill:none;stroke:#000000;stroke-width:1px;stroke-linecap:butt;stroke-linejoin:miter;stroke-opacity:1" d="M 9.1953125,3.65625 C 11.885187,3.0547747 14.602752,2.1924171 17.392371,2.5147776 c 2.933702,0.1444617 5.855129,1.3548567 7.857702,3.5355896 2.358946,2.4575826 3.759606,5.6375698 4.974188,8.7751108 1.29204,3.54249 2.32594,7.16808 3.361676,10.791709" id="g0s0" inkscape:label="g0s0"></path></g><g id="g1" inkscape:label="g1" transform="translate(0,29.3)"><path d="m 24.3,61.3 v 0 Q 16,61.3 10.3,57.1 4.6,52.9 0,45.7 v 0 l 4.7,-2.9 q 4.4,6.9 8.95,10.2 4.55,3.3 10.55,3.3 v 0 q 5.3,0 8.4,-2.75 3.1,-2.75 3.1,-7.65 v 0 q 0,-3.3 -1.2,-5.75 Q 33.3,37.7 30.6,35.35 27.9,33 23.3,30.1 v 0 Q 16.2,25.7 13.2,21.85 10.2,18 10.2,12.9 v 0 Q 10.2,7.2 14.45,3.6 18.7,0 26.3,0 v 0 q 2.4,0 4.7,0.25 2.3,0.25 4.9,0.85 v 0 L 34.8,5.9 Q 32.5,5.4 30.5,5.2 28.5,5 26.2,5 V 5 Q 21.1,5 18.35,7.1 15.6,9.2 15.6,13 v 0 q 0,3.8 2.6,6.5 2.6,2.7 8.7,6.5 v 0 q 7.5,4.7 10.95,9.05 3.45,4.35 3.45,10.65 v 0 q 0,7 -4.5,11.3 -4.5,4.3 -12.5,4.3 z" id="g1p0" inkscape:label="g1p0"></path><path style="fill:none;stroke:#000000;stroke-width:1px;stroke-linecap:butt;stroke-linejoin:miter;stroke-opacity:1" d="M 35.359375,3.4570313 C 32.346189,2.9684507 29.330354,2.4095044 26.262369,2.5013054 22.032645,2.448874 17.286177,3.5307338 14.67991,7.1493778 c -2.570359,3.6033792 -2.228104,8.7648482 0.138312,12.3845292 2.417616,3.442204 6.051858,5.753572 9.5099,8.032499 4.405315,2.814665 9.009494,5.729875 12.000794,10.126292 2.243404,3.537294 2.672305,8.020608 1.714046,12.041677 -1.042363,3.840395 -4.0843,7.045054 -7.906426,8.193955 -4.615655,1.411449 -9.725254,1.081018 -14.207397,-0.657699 C 11.18655,55.345648 7.6338446,51.403255 4.6578159,47.370449 3.8896572,46.328263 3.1214985,45.286078 2.3533398,44.243892" id="g1s0" inkscape:label="g1s0"></path></g></svg>