<svg xmlns="http://www.w3.org/2000/svg" xmlns:xlink="http://www.w3.org/1999/xlink" width="45.800000000000004" height="130.4"><path d="M25.40 90.60L25.40 90.60Q17.10 90.60 11.40 86.40Q5.70 82.20 1.10 75L1.10 75L5.80 72.10Q10.20 79 14.75 82.30Q19.30 85.60 25.30 85.60L25.30 85.60Q30.60 85.60 33.70 82.85Q36.80 80.10 36.80 75.20L36.80 75.20Q36.80 71.90 35.60 69.45Q34.40 67 31.70 64.65Q29 62.30 24.40 59.40L24.40 59.40Q17.30 55.00 14.30 51.15Q11.30 47.30 11.30 42.20L11.30 42.20Q11.30 36.50 15.55 32.90Q19.80 29.30 27.40 29.30L27.40 29.30Q29.80 29.30 32.10 29.55Q34.40 29.80 37 30.40L37 30.40L35.90 35.20Q33.60 34.70 31.60 34.50Q29.60 34.30 27.30 34.30L27.30 34.30Q22.20 34.30 19.45 36.40Q16.70 38.50 16.70 42.30L16.70 42.30Q16.70 46.10 19.30 48.80Q21.90 51.50 28 55.30L28 55.30Q35.50 60.00 38.95 64.35Q42.40 68.70 42.40 75L42.40 75Q42.40 82.00 37.90 86.30Q33.40 90.60 25.40 90.60ZM35.30 25.50L30.90 25.50Q29.00 17.70 27.15 13.15Q25.30 8.60 22.85 6.70Q20.40 4.80 16.60 4.80L16.60 4.80Q15.40 4.80 14.05 5Q12.70 5.20 11.20 5.70L11.20 5.70L9.70 1.10Q11.60 0.50 13.40 0.25Q15.20 0 16.90 0L16.90 0Q21.50 0 24.85 2.25Q28.20 4.50 30.70 10.05Q33.20 15.60 35.30 25.50L35.30 25.50ZM30.00 23.70L27.20 26.60Q21.10 21.20 16.90 18.85Q12.70 16.50 7.80 16.50L7.80 16.50Q4.30 16.50 1.40 17.40L1.40 17.40L-0.10 12.70Q1.70 12.30 3.65 12Q5.60 11.70 7.80 11.70L7.80 11.70Q11.60 11.70 14.95 12.90Q18.30 14.10 21.85 16.75Q25.40 19.40 30.00 23.70L30.00 23.70Z"/></svg>