<svg xmlns="http://www.w3.org/2000/svg" xmlns:xlink="http://www.w3.org/1999/xlink" width="70.9" height="130.4"><path d="M25.40 90.60L25.40 90.60Q17.10 90.60 11.40 86.40Q5.70 82.20 1.10 75L1.10 75L5.80 72.10Q10.20 79 14.75 82.30Q19.30 85.60 25.30 85.60L25.30 85.60Q30.60 85.60 33.70 82.85Q36.80 80.10 36.80 75.20L36.80 75.20Q36.80 71.90 35.60 69.45Q34.40 67 31.70 64.65Q29 62.30 24.40 59.40L24.40 59.40Q17.30 55.00 14.30 51.15Q11.30 47.30 11.30 42.20L11.30 42.20Q11.30 36.50 15.55 32.90Q19.80 29.30 27.40 29.30L27.40 29.30Q29.80 29.30 32.10 29.55Q34.40 29.80 37 30.40L37 30.40L35.90 35.20Q33.60 34.70 31.60 34.50Q29.60 34.30 27.30 34.30L27.30 34.30Q22.20 34.30 19.45 36.40Q16.70 38.50 16.70 42.30L16.70 42.30Q16.70 46.10 19.30 48.80Q21.90 51.50 28 55.30L28 55.30Q35.50 60.00 38.95 64.35Q42.40 68.70 42.40 75L42.40 75Q42.40 82.00 37.90 86.30Q33.40 90.60 25.40 90.60ZM69.90 89.60L68.90 89.60Q62.30 89.60 59.00 86.60L59.00 86.60Q57.20 85.00 56.35 82.50Q55.50 80 55.50 75.80L55.50 75.80L55.50 29.30L60.80 30.00L60.80 75.50Q60.80 78.80 61.30 80.40Q61.80 82.00 63.10 83.00L63.10 83.00Q64.30 84.10 66.15 84.35Q68 84.60 70.40 84.60L70.40 84.60L69.90 89.60ZM60.40 25.50L56.00 25.50Q54.10 17.70 52.25 13.15Q50.40 8.60 47.95 6.70Q45.50 4.80 41.70 4.80L41.70 4.80Q40.50 4.80 39.15 5Q37.80 5.20 36.30 5.70L36.30 5.70L34.80 1.10Q36.70 0.50 38.50 0.25Q40.30 0 42.00 0L42.00 0Q46.60 0 49.95 2.25Q53.30 4.50 55.80 10.05Q58.30 15.60 60.40 25.50L60.40 25.50ZM55.10 23.70L52.30 26.60Q46.20 21.20 42.00 18.85Q37.80 16.50 32.90 16.50L32.90 16.50Q29.40 16.50 26.50 17.40L26.50 17.40L25.00 12.70Q26.80 12.30 28.75 12Q30.70 11.70 32.90 11.70L32.90 11.70Q36.70 11.70 40.05 12.90Q43.40 14.10 46.95 16.75Q50.50 19.40 55.10 23.70L55.10 23.70Z"/></svg>