<?xml version="1.0" encoding="UTF-8" standalone="no"?>
<svg
   width="52.5"
   height="60.299999"
   version="1.1"
   id="svg4"
   sodipodi:docname="0_m.svg"
   inkscape:version="1.2.1 (9c6d41e410, 2022-07-14)"
   xmlns:inkscape="http://www.inkscape.org/namespaces/inkscape"
   xmlns:sodipodi="http://sodipodi.sourceforge.net/DTD/sodipodi-0.dtd"
   xmlns="http://www.w3.org/2000/svg"
   xmlns:svg="http://www.w3.org/2000/svg">
  <defs
     id="defs8" />
  <sodipodi:namedview
     id="namedview6"
     pagecolor="#ffffff"
     bordercolor="#666666"
     borderopacity="1.0"
     inkscape:showpageshadow="2"
     inkscape:pageopacity="0.0"
     inkscape:pagecheckerboard="0"
     inkscape:deskcolor="#d1d1d1"
     showgrid="false"
     inkscape:zoom="5.6568543"
     inkscape:cx="-75.041707"
     inkscape:cy="19.79899"
     inkscape:window-width="1920"
     inkscape:window-height="1027"
     inkscape:window-x="-8"
     inkscape:window-y="-8"
     inkscape:window-maximized="1"
     inkscape:current-layer="svg4" />
  <path
     style="fill:none;stroke:#000000;stroke-width:1px;stroke-linecap:butt;stroke-linejoin:miter;stroke-opacity:1"
     d="m 40.249844,-0.00552427 c 0.0223,15.92223027 -0.01185,31.84567527 0.04579,47.76715027 0.07405,2.774345 0.545469,5.89052 2.857907,7.728581 2.190435,1.955071 5.244862,2.153139 8.03664,2.215746 0.439207,0.01989 0.878413,0.03978 1.31762,0.05967"
     id="path360"
     inkscape:label="s2" />
  <path
     style="fill:none;stroke:#000000;stroke-width:1px;stroke-linecap:butt;stroke-linejoin:miter;stroke-opacity:1"
     d="M 0.03006035,3.5944191 C 2.2076609,3.6980613 4.237561,3.7217321 6.2765357,4.2908372 c 1.8826642,0.5422877 3.561044,1.8312322 4.3483593,3.6555669 1.576494,3.3035589 1.168644,7.0627789 1.230827,10.6118589 -0.0136,6.535381 0.06022,13.074023 -0.0082,19.607361 -0.05661,0.788402 -0.198513,2.10419 -1.218863,2.106147 C 9.4060554,40.195594 8.3236312,39.406467 7.4007018,38.652684 6.4316516,37.772251 5.6055848,36.708864 4.9792915,35.566828 4.6442949,34.731727 3.9667542,33.719533 4.5297531,32.843761 6.1595464,32.3456 7.8526241,32.615007 9.5870327,32.560748 15.016879,32.223542 20.458286,32.392906 25.894794,32.347598 l 11.714581,-0.0078"
     id="path280"
     sodipodi:nodetypes="cccccccccccc"
     inkscape:label="s1" />
  <path
     d="m 10.6,43 v 0 Q 8.5,43 6.4,41.45 4.3,39.9 2.95,37.65 1.6,35.4 1.6,33.4 v 0 Q 1.6,32 2.65,30.95 3.7,29.9 6.3,29.9 v 0 H 9.2 V 15.1 Q 9.2,12.4 8.85,10.9 8.5,9.4 7.7,8.3 v 0 Q 6.7,6.9 4.65,6.45 2.6,6 0,6 V 6 L 0.6,1.1 h 0.9 q 7.1,0 10.2,3.5 v 0 q 2.8,3.2 2.8,10.3 v 0 15 H 37.6 V 0 l 5.3,0.8 v 45.4 q 0,3.2 0.5,4.85 0.5,1.65 1.7,2.55 v 0 q 1.2,1.2 3.15,1.45 1.95,0.25 4.25,0.25 v 0 l -0.5,5 h -1 q -6.7,0 -9.9,-3 v 0 Q 39.3,55.7 38.45,53.2 37.6,50.7 37.6,46.5 v 0 -11.7 H 14.5 v 3 q 0,2.8 -1.15,4 Q 12.2,43 10.6,43 Z"
     id="path2"
     inkscape:label="p1" />
</svg>
