<svg xmlns="http://www.w3.org/2000/svg" xmlns:xlink="http://www.w3.org/1999/xlink" width="80.2" height="130.4"><path d="M15.40 72.30L15.40 72.30Q13.30 72.30 11.20 70.75Q9.10 69.20 7.75 66.95Q6.40 64.70 6.40 62.70L6.40 62.70Q6.40 61.30 7.45 60.25Q8.50 59.20 11.10 59.20L11.10 59.20L14 59.20L14 44.40Q14 41.70 13.65 40.20Q13.30 38.70 12.50 37.60L12.50 37.60Q11.50 36.20 9.45 35.75Q7.40 35.30 4.80 35.30L4.80 35.30L5.40 30.40L6.30 30.40Q13.40 30.40 16.50 33.90L16.50 33.90Q19.30 37.10 19.30 44.20L19.30 44.20L19.30 59.20L42.40 59.20L42.40 29.30L47.70 30.10L47.70 75.50Q47.70 78.70 48.20 80.35Q48.70 82.00 49.90 82.90L49.90 82.90Q51.10 84.10 53.05 84.35Q55 84.60 57.30 84.60L57.30 84.60L56.80 89.60L55.80 89.60Q49.10 89.60 45.90 86.60L45.90 86.60Q44.10 85.00 43.25 82.50Q42.40 80 42.40 75.80L42.40 75.80L42.40 64.10L19.30 64.10L19.30 67.10Q19.30 69.90 18.15 71.10Q17 72.30 15.40 72.30ZM69 51.30L69 51.30Q67.20 51.30 65.80 49.95Q64.40 48.60 64.40 46.20L64.40 46.20Q64.40 43.80 65.75 42.45Q67.10 41.10 69 41.10L69 41.10Q71 41.10 72.30 42.45Q73.60 43.80 73.60 46.20L73.60 46.20Q73.60 48.70 72.25 50.00Q70.90 51.30 69 51.30ZM69 84.60L69 84.60Q67.20 84.60 65.80 83.25Q64.40 81.90 64.40 79.50L64.40 79.50Q64.40 77.10 65.75 75.75Q67.10 74.40 69 74.40L69 74.40Q71 74.40 72.30 75.75Q73.60 77.10 73.60 79.50L73.60 79.50Q73.60 82.00 72.25 83.30Q70.90 84.60 69 84.60Z"/></svg>