<svg xmlns="http://www.w3.org/2000/svg" xmlns:xlink="http://www.w3.org/1999/xlink" width="82.9" height="130.4">
    <path
        d="M15.40 72.30L15.40 72.30Q13.30 72.30 11.20 70.75Q9.10 69.20 7.75 66.95Q6.40 64.70 6.40 62.70L6.40 62.70Q6.40 61.30 7.45 60.25Q8.50 59.20 11.10 59.20L11.10 59.20L14 59.20L14 44.40Q14 41.70 13.65 40.20Q13.30 38.70 12.50 37.60L12.50 37.60Q11.50 36.20 9.45 35.75Q7.40 35.30 4.80 35.30L4.80 35.30L5.40 30.40L6.30 30.40Q13.40 30.40 16.50 33.90L16.50 33.90Q19.30 37.10 19.30 44.20L19.30 44.20L19.30 59.20L42.40 59.20L42.40 29.30L47.70 30.10L47.70 75.50Q47.70 78.70 48.20 80.35Q48.70 82.00 49.90 82.90L49.90 82.90Q51.10 84.10 53.05 84.35Q55 84.60 57.30 84.60L57.30 84.60L56.80 89.60L55.80 89.60Q49.10 89.60 45.90 86.60L45.90 86.60Q44.10 85.00 43.25 82.50Q42.40 80 42.40 75.80L42.40 75.80L42.40 64.10L19.30 64.10L19.30 67.10Q19.30 69.90 18.15 71.10Q17 72.30 15.40 72.30ZM81.90 89.60L80.90 89.60Q74.30 89.60 71 86.60L71 86.60Q69.20 85.00 68.35 82.50Q67.50 80 67.50 75.80L67.50 75.80L67.50 29.30L72.80 30.00L72.80 75.50Q72.80 78.80 73.30 80.40Q73.80 82.00 75.10 83.00L75.10 83.00Q76.30 84.10 78.15 84.35Q80 84.60 82.40 84.60L82.40 84.60L81.90 89.60Z" />
      <g
     id="g225"
     inkscape:label="g2">
    <path
       style="display:inline"
       d="m 70.7,60.3 h -1 q -6.6,0 -9.9,-3 v 0 Q 58,55.7 57.15,53.2 56.3,50.7 56.3,46.5 v 0 V 0 l 5.3,0.7 v 45.5 q 0,3.3 0.5,4.9 0.5,1.6 1.8,2.6 v 0 q 1.2,1.1 3.05,1.35 1.85,0.25 4.25,0.25 v 0 z"
       id="path216"
       inkscape:label="p2" />
    <path
       style="display:inline;fill:none;stroke:#000000;stroke-width:1px;stroke-linecap:butt;stroke-linejoin:miter;stroke-opacity:1"
       d="m 58.96875,0.03125 c 0.0052,15.660703 -0.0419,31.322813 -0.004,46.982637 0.07316,2.661925 0.300704,5.531206 2.06529,7.674603 1.94562,2.285428 5.076187,2.956219 7.950186,3.001875 0.734456,0.05113 1.468913,0.102253 2.203369,0.15338"
       id="path81"
       inkscape:label="s3" />
  </g>
    <path style="fill:none;stroke:#000000;stroke-width:1px;stroke-linecap:butt;stroke-linejoin:miter;stroke-opacity:1"
        d="m 0.03006035,3.5944191 c 2.43917685,0.1337566 4.99358315,0.097258 7.27940125,1.0788113 3.3023294,1.383941 4.3616134,5.2199171 4.4987144,8.4870346 0.08953,7.006019 0.04506,14.015913 0.06536,21.023523 -0.205254,1.9346 0.472846,4.156592 -0.631928,5.868925 C 9.262553,40.667749 7.4486331,38.779779 6.2156848,37.400797 5.3576454,36.195046 3.1896218,33.53142 5.1438512,32.690801 c 2.3147159,-0.306325 4.6629897,-0.02164 6.9892078,-0.253765 7.990527,-0.17646 15.984715,-0.05261 23.976956,-0.09624 1.47562,0.142438 3.011057,-0.196316 4.139795,-1.200175 0.03138,-10.382013 0.04093,-20.764094 0.02638,-31.14614527"
        id="path280" inkscape:label="s1" sodipodi:nodetypes="ccccccccccc" />
    <path style="fill:none;stroke:#000000;stroke-width:1px;stroke-linecap:butt;stroke-linejoin:miter;stroke-opacity:1"
        d="m 40.25472,31.140621 c 0.0041,5.558714 -0.0036,11.882948 0.01656,17.441317 0.07405,2.774345 0.569828,5.070208 2.882266,6.908269 2.190435,1.955071 5.244862,2.153139 8.03664,2.215746 l 1.31762,0.05967"
        id="path362" inkscape:label="s2" />
</svg>