<svg xmlns="http://www.w3.org/2000/svg" xmlns:xlink="http://www.w3.org/1999/xlink" width="82.9" height="130.4"><path d="M24 89.60L23.10 89.60Q20 89.60 17.50 88.95Q15 88.30 13.20 86.60L13.20 86.60Q11.30 84.90 10.50 82.40Q9.70 79.90 9.70 75.80L9.70 75.80L9.70 22.40Q9.70 15.80 11.05 11.70Q12.40 7.60 15.80 4.70L15.80 4.70Q18 2.80 21.15 1.70Q24.30 0.60 28.40 0.60L28.40 0.60Q37.50 0.60 44.75 5.85Q52 11.10 59.30 19.60L59.30 19.60L55.40 22.70Q49 15.10 42.65 10.30Q36.30 5.50 28.70 5.50L28.70 5.50Q22.80 5.50 19.40 8.40L19.40 8.40Q17 10.50 16 14Q15 17.50 15 24.10L15 24.10L15 75.50Q15 78.70 15.50 80.35Q16 82.00 17.20 82.90L17.20 82.90Q18.40 84.10 20.35 84.35Q22.30 84.60 24.60 84.60L24.60 84.60L24 89.60ZM40.50 72.30L40.50 72.30Q38.40 72.30 36.30 70.75Q34.20 69.20 32.85 66.95Q31.50 64.70 31.50 62.70L31.50 62.70Q31.50 61.30 32.55 60.25Q33.60 59.20 36.20 59.20L36.20 59.20L39.10 59.20L39.10 44.40Q39.10 41.70 38.75 40.20Q38.40 38.70 37.60 37.60L37.60 37.60Q36.60 36.20 34.55 35.75Q32.50 35.30 29.90 35.30L29.90 35.30L30.50 30.40L31.40 30.40Q38.50 30.40 41.60 33.90L41.60 33.90Q44.40 37.10 44.40 44.20L44.40 44.20L44.40 59.20L67.50 59.20L67.50 29.30L72.80 30.10L72.80 75.50Q72.80 78.70 73.30 80.35Q73.80 82.00 75 82.90L75 82.90Q76.20 84.10 78.15 84.35Q80.10 84.60 82.40 84.60L82.40 84.60L81.90 89.60L80.90 89.60Q74.20 89.60 71 86.60L71 86.60Q69.20 85.00 68.35 82.50Q67.50 80 67.50 75.80L67.50 75.80L67.50 64.10L44.40 64.10L44.40 67.10Q44.40 69.90 43.25 71.10Q42.10 72.30 40.50 72.30Z"/></svg>