<?xml version="1.0" encoding="UTF-8" standalone="no"?>
<svg
   width="72.699997"
   height="89"
   version="1.1"
   id="svg331"
   sodipodi:docname="2_mi.svg"
   inkscape:version="1.2.1 (9c6d41e410, 2022-07-14)"
   xmlns:inkscape="http://www.inkscape.org/namespaces/inkscape"
   xmlns:sodipodi="http://sodipodi.sourceforge.net/DTD/sodipodi-0.dtd"
   xmlns="http://www.w3.org/2000/svg"
   xmlns:svg="http://www.w3.org/2000/svg">
  <defs
     id="defs335" />
  <sodipodi:namedview
     id="namedview333"
     pagecolor="#ffffff"
     bordercolor="#666666"
     borderopacity="1.0"
     inkscape:showpageshadow="2"
     inkscape:pageopacity="0.0"
     inkscape:pagecheckerboard="0"
     inkscape:deskcolor="#d1d1d1"
     showgrid="false"
     inkscape:zoom="1.809816"
     inkscape:cx="31.771185"
     inkscape:cy="64.647455"
     inkscape:window-width="1920"
     inkscape:window-height="1027"
     inkscape:window-x="-8"
     inkscape:window-y="-8"
     inkscape:window-maximized="1"
     inkscape:current-layer="svg331" />
  <g
     id="g115"
     inkscape:label="g1"
     transform="matrix(0.99942079,0,0,0.99989678,20.2,28.706224)">
    <path
       d="m 10.606143,42.998214 v 0 q -2.1012169,0 -4.2024339,-1.55016 Q 4.302492,39.897894 2.9517097,37.647662 1.6009273,35.397429 1.6009273,33.397223 v 0 q 0,-1.400145 1.0506085,-2.450253 1.0506085,-1.050108 3.6521153,-1.050108 v 0 H 9.2053318 V 15.095334 q 0,-2.700279 -0.3502028,-4.200434 Q 8.5049261,9.3947454 7.7044625,8.2946318 v 0 Q 6.703883,6.8944873 4.6526949,6.4444408 2.6015068,5.9943944 0,5.9943944 v 0 L 0.60034773,1.0938886 H 1.5008693 q 7.1041148,0 10.2059117,3.5003613 v 0 q 2.801622,3.2003303 2.801622,10.3010631 v 0 15.001549 H 37.621791 V -0.006225 l 5.303072,0.80008258 V 46.198544 q 0,3.200331 0.500289,4.850501 0.50029,1.65017 1.700986,2.550263 v 0 q 1.200695,1.200124 3.151825,1.45015 1.95113,0.250026 4.252463,0.250026 v 0 L 52.030136,60.3 h -1.000579 q -6.703883,0 -9.905738,-3.00031 v 0 q -1.801043,-1.600165 -2.651535,-4.100423 -0.850493,-2.500258 -0.850493,-6.700692 v 0 -11.701208 H 14.508403 v 3.00031 q 0,2.800289 -1.150666,4.000413 -1.150667,1.200124 -2.751594,1.200124 z"
       id="path2-0"
       inkscape:label="p1"
       style="stroke-width:1.00034" />
    <path
       style="fill:none;stroke:#000000;stroke-width:1px;stroke-linecap:butt;stroke-linejoin:miter;stroke-opacity:1"
       d="m 0.03006035,3.5944191 c 2.43917685,0.1337566 4.99358315,0.097258 7.27940125,1.0788113 3.3023294,1.383941 4.3616134,5.2199171 4.4987144,8.4870346 0.08953,7.006019 0.04506,14.015913 0.06536,21.023523 -0.205254,1.9346 0.472846,4.156592 -0.631928,5.868925 C 9.262553,40.667749 7.4486331,38.779779 6.2156848,37.400797 5.3576454,36.195046 3.1896218,33.53142 5.1438512,32.690801 c 2.3147159,-0.306325 4.6629897,-0.02164 6.9892078,-0.253765 7.990527,-0.17646 15.984715,-0.05261 23.976956,-0.09624 1.47562,0.142438 3.011057,-0.196316 4.139795,-1.200175 0.03138,-10.382013 0.04093,-20.764094 0.02638,-31.14614527"
       id="path280-1"
       inkscape:label="s1"
       sodipodi:nodetypes="ccccccccccc" />
    <path
       style="fill:none;stroke:#000000;stroke-width:1px;stroke-linecap:butt;stroke-linejoin:miter;stroke-opacity:1"
       d="m 40.25472,31.140621 c 0.0041,5.558714 -0.0036,11.882948 0.01656,17.441317 0.07405,2.774345 0.569828,5.070208 2.882266,6.908269 2.190435,1.955071 5.244862,2.153139 8.03664,2.215746 l 1.31762,0.05967"
       id="path362-5"
       inkscape:label="s2" />
  </g>
  <g
     id="g309"
     inkscape:label="g2">
    <path
       style="display:inline"
       d="M 14.3,89 H 13.4 Q 10.3,89 7.8,88.35 5.3,87.7 3.5,86 v 0 Q 1.6,84.3 0.8,81.8 0,79.3 0,75.2 v 0 -53.4 Q 0,15.2 1.35,11.1 2.7,7 6.1,4.1 v 0 Q 8.3,2.2 11.45,1.1 14.6,0 18.7,0 V 0 Q 27.8,0 35.05,5.25 42.3,10.5 49.6,19 v 0 l -3.9,3.1 Q 39.3,14.5 32.95,9.7 26.6,4.9 19,4.9 v 0 q -5.9,0 -9.3,2.9 v 0 q -2.4,2.1 -3.4,5.6 -1,3.5 -1,10.1 v 0 51.4 q 0,3.2 0.5,4.85 0.5,1.65 1.7,2.55 v 0 q 1.2,1.2 3.15,1.45 Q 12.6,84 14.9,84 v 0 z"
       id="path2"
       inkscape:label="p2" />
    <path
       style="display:inline;fill:none;stroke:#000000;stroke-width:1px;stroke-linecap:butt;stroke-linejoin:miter;stroke-opacity:1"
       d="M 47.652368,20.738116 C 42.912163,15.169343 37.771996,9.7590782 31.535156,5.8554687 25.556372,2.3479405 17.925665,1.3282836 11.384063,3.8090168 7.098823,5.5445734 4.0571601,9.6376118 3.3691387,14.177325 2.2636698,19.814013 2.8760079,25.587166 2.7106596,31.290784 c 0.017146,15.362435 -0.08206,30.727062 0.00809,46.088122 0.1319749,2.783277 1.0109143,5.743286 3.4696807,7.348394 2.457118,1.869621 5.6943627,1.540296 8.5928207,1.741457"
       id="path491"
       inkscape:label="s3" />
  </g>
</svg>
