<svg xmlns="http://www.w3.org/2000/svg" xmlns:xlink="http://www.w3.org/1999/xlink" width="82.9" height="130.4"><path d="M15.40 72.30L15.40 72.30Q13.30 72.30 11.20 70.75Q9.10 69.20 7.75 66.95Q6.40 64.70 6.40 62.70L6.40 62.70Q6.40 61.30 7.45 60.25Q8.50 59.20 11.10 59.20L11.10 59.20L14 59.20L14 44.40Q14 41.70 13.65 40.20Q13.30 38.70 12.50 37.60L12.50 37.60Q11.50 36.20 9.45 35.75Q7.40 35.30 4.80 35.30L4.80 35.30L5.40 30.40L6.30 30.40Q13.40 30.40 16.50 33.90L16.50 33.90Q19.30 37.10 19.30 44.20L19.30 44.20L19.30 59.20L42.40 59.20L42.40 29.30L47.70 30.10L47.70 75.50Q47.70 78.70 48.20 80.35Q48.70 82.00 49.90 82.90L49.90 82.90Q51.10 84.10 53.05 84.35Q55 84.60 57.30 84.60L57.30 84.60L56.80 89.60L55.80 89.60Q49.10 89.60 45.90 86.60L45.90 86.60Q44.10 85.00 43.25 82.50Q42.40 80 42.40 75.80L42.40 75.80L42.40 64.10L19.30 64.10L19.30 67.10Q19.30 69.90 18.15 71.10Q17 72.30 15.40 72.30ZM81.90 89.60L80.90 89.60Q77.90 89.60 75.35 88.95Q72.80 88.30 71 86.60L71 86.60Q67.50 83.30 67.50 75.80L67.50 75.80L67.50 29.10Q66.10 17.70 62.60 11.60Q59.10 5.50 53.60 5.50L53.60 5.50Q50 5.50 48 8.10Q46 10.70 46 15.80L46 15.80Q46 19.70 46.60 22.80L46.60 22.80L41.50 22.80Q41.20 21.30 40.95 19.20Q40.70 17.10 40.70 15.20L40.70 15.20Q40.70 8.60 44.05 4.60Q47.40 0.60 53.60 0.60L53.60 0.60Q59.50 0.60 63.50 4.55Q67.50 8.50 69.75 14.95Q72 21.40 72.80 28.80L72.80 28.80L72.80 75.50Q72.80 78.80 73.30 80.35Q73.80 81.90 75 82.90L75 82.90Q76.20 84.10 78.20 84.35Q80.20 84.60 82.40 84.60L82.40 84.60L81.90 89.60Z"/></svg>