<?xml version="1.0" encoding="UTF-8" standalone="no"?>
<svg
   width="77.599998"
   height="89"
   version="1.1"
   id="svg9"
   sodipodi:docname="3_mee.svg"
   inkscape:version="1.2.1 (9c6d41e410, 2022-07-14)"
   xmlns:inkscape="http://www.inkscape.org/namespaces/inkscape"
   xmlns:sodipodi="http://sodipodi.sourceforge.net/DTD/sodipodi-0.dtd"
   xmlns="http://www.w3.org/2000/svg"
   xmlns:svg="http://www.w3.org/2000/svg">
  <defs
     id="defs13" />
  <sodipodi:namedview
     id="namedview11"
     pagecolor="#ffffff"
     bordercolor="#666666"
     borderopacity="1.0"
     inkscape:showpageshadow="2"
     inkscape:pageopacity="0.0"
     inkscape:pagecheckerboard="0"
     inkscape:deskcolor="#d1d1d1"
     showgrid="false"
     inkscape:zoom="1.809816"
     inkscape:cx="36.744066"
     inkscape:cy="64.647455"
     inkscape:window-width="1920"
     inkscape:window-height="1027"
     inkscape:window-x="-8"
     inkscape:window-y="-8"
     inkscape:window-maximized="1"
     inkscape:current-layer="svg9" />
  <g
     id="g115"
     inkscape:label="g1"
     transform="matrix(0.99942079,0,0,0.99989678,0,28.706224)">
    <path
       d="m 10.606143,42.998214 v 0 q -2.1012169,0 -4.2024339,-1.55016 Q 4.302492,39.897894 2.9517097,37.647662 1.6009273,35.397429 1.6009273,33.397223 v 0 q 0,-1.400145 1.0506085,-2.450253 1.0506085,-1.050108 3.6521153,-1.050108 v 0 H 9.2053318 V 15.095334 q 0,-2.700279 -0.3502028,-4.200434 Q 8.5049261,9.3947454 7.7044625,8.2946318 v 0 Q 6.703883,6.8944873 4.6526949,6.4444408 2.6015068,5.9943944 0,5.9943944 v 0 L 0.60034773,1.0938886 H 1.5008693 q 7.1041148,0 10.2059117,3.5003613 v 0 q 2.801622,3.2003303 2.801622,10.3010631 v 0 15.001549 H 37.621791 V -0.006225 l 5.303072,0.80008258 V 46.198544 q 0,3.200331 0.500289,4.850501 0.50029,1.65017 1.700986,2.550263 v 0 q 1.200695,1.200124 3.151825,1.45015 1.95113,0.250026 4.252463,0.250026 v 0 L 52.030136,60.3 h -1.000579 q -6.703883,0 -9.905738,-3.00031 v 0 q -1.801043,-1.600165 -2.651535,-4.100423 -0.850493,-2.500258 -0.850493,-6.700692 v 0 -11.701208 H 14.508403 v 3.00031 q 0,2.800289 -1.150666,4.000413 -1.150667,1.200124 -2.751594,1.200124 z"
       id="path2-4"
       inkscape:label="p1"
       style="stroke-width:1.00034" />
    <path
       style="fill:none;stroke:#000000;stroke-width:1px;stroke-linecap:butt;stroke-linejoin:miter;stroke-opacity:1"
       d="m 0.03006035,3.5944191 c 2.43917685,0.1337566 4.99358315,0.097258 7.27940125,1.0788113 3.3023294,1.383941 4.3616134,5.2199171 4.4987144,8.4870346 0.08953,7.006019 0.04506,14.015913 0.06536,21.023523 -0.205254,1.9346 0.472846,4.156592 -0.631928,5.868925 C 9.262553,40.667749 7.4486331,38.779779 6.2156848,37.400797 5.3576454,36.195046 3.1896218,33.53142 5.1438512,32.690801 c 2.3147159,-0.306325 4.6629897,-0.02164 6.9892078,-0.253765 7.990527,-0.17646 15.984715,-0.05261 23.976956,-0.09624 1.47562,0.142438 3.011057,-0.196316 4.139795,-1.200175 0.03138,-10.382013 0.04093,-20.764094 0.02638,-31.14614527"
       id="path280-1"
       inkscape:label="s1"
       sodipodi:nodetypes="ccccccccccc" />
    <path
       style="fill:none;stroke:#000000;stroke-width:1px;stroke-linecap:butt;stroke-linejoin:miter;stroke-opacity:1"
       d="m 40.25472,31.140621 c 0.0041,5.558714 -0.0036,11.882948 0.01656,17.441317 0.07405,2.774345 0.569828,5.070208 2.882266,6.908269 2.190435,1.955071 5.244862,2.153139 8.03664,2.215746 l 1.31762,0.05967"
       id="path362-0"
       inkscape:label="s2" />
  </g>
  <g
     id="g399"
     inkscape:label="g2"
     transform="matrix(0.99899518,0,0,1,6.4296422,0)">
    <path
       style="display:inline"
       d="m 70.7,89 h -1 q -3,0 -5.55,-0.65 Q 61.6,87.7 59.8,86 v 0 Q 56.3,82.7 56.3,75.2 v 0 -46.7 Q 54.9,17.1 51.4,11 47.9,4.9 42.4,4.9 v 0 q -3.6,0 -5.6,2.6 -2,2.6 -2,7.7 v 0 q 0,3.9 0.6,7 v 0 H 30.3 Q 30,20.7 29.75,18.6 29.5,16.5 29.5,14.6 v 0 Q 29.5,8 32.85,4 36.2,0 42.4,0 v 0 q 5.9,0 9.9,3.95 4,3.95 6.25,10.4 2.25,6.45 3.05,13.85 v 0 46.7 q 0,3.3 0.5,4.85 0.5,1.55 1.7,2.55 v 0 Q 65,83.5 67,83.75 69,84 71.2,84 v 0 z"
       id="path330"
       inkscape:label="p2" />
    <path
       style="display:inline;fill:none;stroke:#000000;stroke-width:1px;stroke-linecap:butt;stroke-linejoin:miter;stroke-opacity:1"
       d="M 32.90625,22.296875 C 32.189196,17.24716 31.309374,11.67002 33.948338,7.0048776 36.015851,3.1824285 40.814237,1.7827514 44.871275,2.7018315 c 5.299598,1.0610536 8.634255,5.9944562 10.53375,10.6924095 1.94946,4.911209 3.041647,10.154719 3.53254,15.40287 0.03373,16.081561 -0.05668,32.165472 0.05492,48.245568 0.09206,3.485135 1.641413,7.400064 5.196702,8.60873 2.224083,0.864628 4.672997,0.637872 7.006103,0.85642"
       id="path80"
       inkscape:label="s3" />
  </g>
</svg>
