<?xml version="1.0" encoding="UTF-8" standalone="no"?>
<svg
   width="54"
   height="87"
   version="1.1"
   id="svg231"
   sodipodi:docname="4_mu.svg"
   inkscape:version="1.2.1 (9c6d41e410, 2022-07-14)"
   xmlns:inkscape="http://www.inkscape.org/namespaces/inkscape"
   xmlns:sodipodi="http://sodipodi.sourceforge.net/DTD/sodipodi-0.dtd"
   xmlns="http://www.w3.org/2000/svg"
   xmlns:svg="http://www.w3.org/2000/svg">
  <defs
     id="defs235" />
  <sodipodi:namedview
     id="namedview233"
     pagecolor="#ffffff"
     bordercolor="#666666"
     borderopacity="1.0"
     inkscape:showpageshadow="2"
     inkscape:pageopacity="0.0"
     inkscape:pagecheckerboard="0"
     inkscape:deskcolor="#d1d1d1"
     showgrid="false"
     inkscape:zoom="1.809816"
     inkscape:cx="24.035592"
     inkscape:cy="124.32203"
     inkscape:window-width="1920"
     inkscape:window-height="1027"
     inkscape:window-x="-8"
     inkscape:window-y="-8"
     inkscape:window-maximized="1"
     inkscape:current-layer="svg231" />
  <g
     id="g115"
     inkscape:label="g1"
     transform="matrix(0.99942079,0,0,0.99989678,0,0.00622436)">
    <path
       d="m 10.606143,42.998214 v 0 q -2.1012169,0 -4.2024339,-1.55016 Q 4.302492,39.897894 2.9517097,37.647662 1.6009273,35.397429 1.6009273,33.397223 v 0 q 0,-1.400145 1.0506085,-2.450253 1.0506085,-1.050108 3.6521153,-1.050108 v 0 H 9.2053318 V 15.095334 q 0,-2.700279 -0.3502028,-4.200434 Q 8.5049261,9.3947454 7.7044625,8.2946318 v 0 Q 6.703883,6.8944873 4.6526949,6.4444408 2.6015068,5.9943944 0,5.9943944 v 0 L 0.60034773,1.0938886 H 1.5008693 q 7.1041148,0 10.2059117,3.5003613 v 0 q 2.801622,3.2003303 2.801622,10.3010631 v 0 15.001549 H 37.621791 V -0.006225 l 5.303072,0.80008258 V 46.198544 q 0,3.200331 0.500289,4.850501 0.50029,1.65017 1.700986,2.550263 v 0 q 1.200695,1.200124 3.151825,1.45015 1.95113,0.250026 4.252463,0.250026 v 0 L 52.030136,60.3 h -1.000579 q -6.703883,0 -9.905738,-3.00031 v 0 q -1.801043,-1.600165 -2.651535,-4.100423 -0.850493,-2.500258 -0.850493,-6.700692 v 0 -11.701208 H 14.508403 v 3.00031 q 0,2.800289 -1.150666,4.000413 -1.150667,1.200124 -2.751594,1.200124 z"
       id="path2-4"
       inkscape:label="p1"
       style="stroke-width:1.00034" />
    <path
       style="fill:none;stroke:#000000;stroke-width:1px;stroke-linecap:butt;stroke-linejoin:miter;stroke-opacity:1"
       d="m 0.03006035,3.5944191 c 2.43917685,0.1337566 4.99358315,0.097258 7.27940125,1.0788113 3.3023294,1.383941 4.3616134,5.2199171 4.4987144,8.4870346 0.08953,7.006019 0.04506,14.015913 0.06536,21.023523 -0.205254,1.9346 0.472846,4.156592 -0.631928,5.868925 C 9.262553,40.667749 7.4486331,38.779779 6.2156848,37.400797 5.3576454,36.195046 3.1896218,33.53142 5.1438512,32.690801 c 2.3147159,-0.306325 4.6629897,-0.02164 6.9892078,-0.253765 7.990527,-0.17646 15.984715,-0.05261 23.976956,-0.09624 1.47562,0.142438 3.011057,-0.196316 4.139795,-1.200175 0.03138,-10.382013 0.04093,-20.764094 0.02638,-31.14614527"
       id="path280-1"
       inkscape:label="s1"
       sodipodi:nodetypes="ccccccccccc" />
    <path
       style="fill:none;stroke:#000000;stroke-width:1px;stroke-linecap:butt;stroke-linejoin:miter;stroke-opacity:1"
       d="m 40.25472,31.140621 c 0.0041,5.558714 -0.0036,11.882948 0.01656,17.441317 0.07405,2.774345 0.569828,5.070208 2.882266,6.908269 2.190435,1.955071 5.244862,2.153139 8.03664,2.215746 l 1.31762,0.05967"
       id="path362-0"
       inkscape:label="s2" />
  </g>
  <g
     id="g429"
     inkscape:label="g2"
     transform="translate(6.4)">
    <path
       style="display:inline"
       d="m 30.9,87 v 0 Q 24.3,87 19.15,84.75 14,82.5 9.85,78.7 5.7,74.9 2.2,70.1 v 0 l 4.2,-2.9 q 5.1,6.7 10.7,10.8 5.6,4.1 13.8,4.1 v 0 q 5.7,0 8.7,-2.2 3,-2.2 3,-6.5 v 0 q 0,-3.9 -2.6,-5.9 -2.6,-2 -7,-2 v 0 q -2.5,0 -4.7,0.55 -2.2,0.55 -4.4,1.45 v 0 L 22.1,63 q 2.6,-1.1 5.2,-1.65 2.6,-0.55 5.4,-0.55 v 0 q 7.1,0 11,3.55 3.9,3.55 3.9,9.45 v 0 q 0,6.2 -4.45,9.7 Q 38.7,87 30.9,87 Z"
       id="path420"
       inkscape:label="p2" />
    <path
       style="display:inline;fill:none;stroke:#000000;stroke-width:1px;stroke-linecap:butt;stroke-linejoin:miter;stroke-opacity:1"
       d="m 22.914062,65.289062 c 2.323807,-0.692195 4.562347,-1.731347 7.000658,-1.966609 3.549036,-0.376084 7.376537,-0.234926 10.53575,1.599631 2.719286,1.540051 4.469061,4.52798 4.601284,7.636307 0.253017,2.845818 -0.456653,5.883237 -2.460912,7.998761 -2.433486,2.67518 -6.157635,3.68678 -9.656459,3.920638 C 27.700261,84.79836 22.284886,83.938844 17.69019,81.310728 14.906965,79.755209 12.447616,77.671348 10.188095,75.437432 8.1199862,73.202596 6.1412982,70.891325 4.1757812,68.566406"
       id="path198"
       inkscape:label="s3" />
  </g>
</svg>
