<svg xmlns="http://www.w3.org/2000/svg" xmlns:xlink="http://www.w3.org/1999/xlink" width="57.800000000000004"
    height="130.4">
    <path
        d="M15.40 72.30L15.40 72.30Q13.30 72.30 11.20 70.75Q9.10 69.20 7.75 66.95Q6.40 64.70 6.40 62.70L6.40 62.70Q6.40 61.30 7.45 60.25Q8.50 59.20 11.10 59.20L11.10 59.20L14 59.20L14 44.40Q14 41.70 13.65 40.20Q13.30 38.70 12.50 37.60L12.50 37.60Q11.50 36.20 9.45 35.75Q7.40 35.30 4.80 35.30L4.80 35.30L5.40 30.40L6.30 30.40Q13.40 30.40 16.50 33.90L16.50 33.90Q19.30 37.10 19.30 44.20L19.30 44.20L19.30 59.20L42.40 59.20L42.40 29.30L47.70 30.10L47.70 75.50Q47.70 78.70 48.20 80.35Q48.70 82.00 49.90 82.90L49.90 82.90Q51.10 84.10 53.05 84.35Q55 84.60 57.30 84.60L57.30 84.60L56.80 89.60L55.80 89.60Q49.10 89.60 45.90 86.60L45.90 86.60Q44.10 85.00 43.25 82.50Q42.40 80 42.40 75.80L42.40 75.80L42.40 64.10L19.30 64.10L19.30 67.10Q19.30 69.90 18.15 71.10Q17 72.30 15.40 72.30ZM42.10 116.30L42.10 116.30Q35.50 116.30 30.35 114.05Q25.20 111.80 21.05 108.00Q16.90 104.20 13.40 99.40L13.40 99.40L17.60 96.50Q22.70 103.20 28.30 107.30Q33.90 111.40 42.10 111.40L42.10 111.40Q47.80 111.40 50.80 109.20Q53.80 107.00 53.80 102.70L53.80 102.70Q53.80 98.80 51.20 96.80Q48.60 94.80 44.20 94.80L44.20 94.80Q41.70 94.80 39.50 95.35Q37.30 95.90 35.10 96.80L35.10 96.80L33.30 92.30Q35.90 91.20 38.50 90.65Q41.10 90.10 43.90 90.10L43.90 90.10Q51 90.10 54.90 93.65Q58.80 97.20 58.80 103.10L58.80 103.10Q58.80 109.30 54.35 112.80Q49.90 116.30 42.10 116.30Z" />
      <g
     id="g429"
     inkscape:label="g2">
    <path
       style="display:inline"
       d="m 30.9,87 v 0 Q 24.3,87 19.15,84.75 14,82.5 9.85,78.7 5.7,74.9 2.2,70.1 v 0 l 4.2,-2.9 q 5.1,6.7 10.7,10.8 5.6,4.1 13.8,4.1 v 0 q 5.7,0 8.7,-2.2 3,-2.2 3,-6.5 v 0 q 0,-3.9 -2.6,-5.9 -2.6,-2 -7,-2 v 0 q -2.5,0 -4.7,0.55 -2.2,0.55 -4.4,1.45 v 0 L 22.1,63 q 2.6,-1.1 5.2,-1.65 2.6,-0.55 5.4,-0.55 v 0 q 7.1,0 11,3.55 3.9,3.55 3.9,9.45 v 0 q 0,6.2 -4.45,9.7 Q 38.7,87 30.9,87 Z"
       id="path420"
       inkscape:label="p2" />
    <path
       style="display:inline;fill:none;stroke:#000000;stroke-width:1px;stroke-linecap:butt;stroke-linejoin:miter;stroke-opacity:1"
       d="m 22.914062,65.289062 c 2.323807,-0.692195 4.562347,-1.731347 7.000658,-1.966609 3.549036,-0.376084 7.376537,-0.234926 10.53575,1.599631 2.719286,1.540051 4.469061,4.52798 4.601284,7.636307 0.253017,2.845818 -0.456653,5.883237 -2.460912,7.998761 -2.433486,2.67518 -6.157635,3.68678 -9.656459,3.920638 C 27.700261,84.79836 22.284886,83.938844 17.69019,81.310728 14.906965,79.755209 12.447616,77.671348 10.188095,75.437432 8.1199862,73.202596 6.1412982,70.891325 4.1757812,68.566406"
       id="path198"
       inkscape:label="s3" />
  </g>
    <path style="fill:none;stroke:#000000;stroke-width:1px;stroke-linecap:butt;stroke-linejoin:miter;stroke-opacity:1"
        d="m 0.03006035,3.5944191 c 2.43917685,0.1337566 4.99358315,0.097258 7.27940125,1.0788113 3.3023294,1.383941 4.3616134,5.2199171 4.4987144,8.4870346 0.08953,7.006019 0.04506,14.015913 0.06536,21.023523 -0.205254,1.9346 0.472846,4.156592 -0.631928,5.868925 C 9.262553,40.667749 7.4486331,38.779779 6.2156848,37.400797 5.3576454,36.195046 3.1896218,33.53142 5.1438512,32.690801 c 2.3147159,-0.306325 4.6629897,-0.02164 6.9892078,-0.253765 7.990527,-0.17646 15.984715,-0.05261 23.976956,-0.09624 1.47562,0.142438 3.011057,-0.196316 4.139795,-1.200175 0.03138,-10.382013 0.04093,-20.764094 0.02638,-31.14614527"
        id="path280" inkscape:label="s1" sodipodi:nodetypes="ccccccccccc" />
    <path style="fill:none;stroke:#000000;stroke-width:1px;stroke-linecap:butt;stroke-linejoin:miter;stroke-opacity:1"
        d="m 40.25472,31.140621 c 0.0041,5.558714 -0.0036,11.882948 0.01656,17.441317 0.07405,2.774345 0.569828,5.070208 2.882266,6.908269 2.190435,1.955071 5.244862,2.153139 8.03664,2.215746 l 1.31762,0.05967"
        id="path362" inkscape:label="s2" />
</svg>