<svg xmlns="http://www.w3.org/2000/svg" xmlns:xlink="http://www.w3.org/1999/xlink" width="57.800000000000004" height="130.4"><path d="M15.40 72.30L15.40 72.30Q13.30 72.30 11.20 70.75Q9.10 69.20 7.75 66.95Q6.40 64.70 6.40 62.70L6.40 62.70Q6.40 61.30 7.45 60.25Q8.50 59.20 11.10 59.20L11.10 59.20L14 59.20L14 44.40Q14 41.70 13.65 40.20Q13.30 38.70 12.50 37.60L12.50 37.60Q11.50 36.20 9.45 35.75Q7.40 35.30 4.80 35.30L4.80 35.30L5.40 30.40L6.30 30.40Q13.40 30.40 16.50 33.90L16.50 33.90Q19.30 37.10 19.30 44.20L19.30 44.20L19.30 59.20L42.40 59.20L42.40 29.30L47.70 30.10L47.70 75.50Q47.70 78.70 48.20 80.35Q48.70 82.00 49.90 82.90L49.90 82.90Q51.10 84.10 53.05 84.35Q55 84.60 57.30 84.60L57.30 84.60L56.80 89.60L55.80 89.60Q49.10 89.60 45.90 86.60L45.90 86.60Q44.10 85.00 43.25 82.50Q42.40 80 42.40 75.80L42.40 75.80L42.40 64.10L19.30 64.10L19.30 67.10Q19.30 69.90 18.15 71.10Q17 72.30 15.40 72.30ZM42.10 116.30L42.10 116.30Q35.50 116.30 30.35 114.05Q25.20 111.80 21.05 108.00Q16.90 104.20 13.40 99.40L13.40 99.40L17.60 96.50Q22.70 103.20 28.30 107.30Q33.90 111.40 42.10 111.40L42.10 111.40Q47.80 111.40 50.80 109.20Q53.80 107.00 53.80 102.70L53.80 102.70Q53.80 98.80 51.20 96.80Q48.60 94.80 44.20 94.80L44.20 94.80Q41.70 94.80 39.50 95.35Q37.30 95.90 35.10 96.80L35.10 96.80L33.30 92.30Q35.90 91.20 38.50 90.65Q41.10 90.10 43.90 90.10L43.90 90.10Q51 90.10 54.90 93.65Q58.80 97.20 58.80 103.10L58.80 103.10Q58.80 109.30 54.35 112.80Q49.90 116.30 42.10 116.30Z"/></svg>