<svg xmlns="http://www.w3.org/2000/svg" xmlns:xlink="http://www.w3.org/1999/xlink" width="57.800000000000004" height="130.4"><path d="M15.40 72.30L15.40 72.30Q13.30 72.30 11.20 70.75Q9.10 69.20 7.75 66.95Q6.40 64.70 6.40 62.70L6.40 62.70Q6.40 61.30 7.45 60.25Q8.50 59.20 11.10 59.20L11.10 59.20L14 59.20L14 44.40Q14 41.70 13.65 40.20Q13.30 38.70 12.50 37.60L12.50 37.60Q11.50 36.20 9.45 35.75Q7.40 35.30 4.80 35.30L4.80 35.30L5.40 30.40L6.30 30.40Q13.40 30.40 16.50 33.90L16.50 33.90Q19.30 37.10 19.30 44.20L19.30 44.20L19.30 59.20L42.40 59.20L42.40 29.30L47.70 30.10L47.70 75.50Q47.70 78.70 48.20 80.35Q48.70 82.00 49.90 82.90L49.90 82.90Q51.10 84.10 53.05 84.35Q55 84.60 57.30 84.60L57.30 84.60L56.80 89.60L55.80 89.60Q49.10 89.60 45.90 86.60L45.90 86.60Q44.10 85.00 43.25 82.50Q42.40 80 42.40 75.80L42.40 75.80L42.40 64.10L19.30 64.10L19.30 67.10Q19.30 69.90 18.15 71.10Q17 72.30 15.40 72.30ZM40.30 116.10L40.30 116.10Q33.20 116.10 29.30 112.50Q25.40 108.90 25.40 103.00L25.40 103.00Q25.40 97.60 29.50 93.85Q33.60 90.10 41.50 90.10L41.50 90.10Q48.80 90.10 54.15 92.85Q59.50 95.60 63.60 99.95Q67.70 104.30 71.10 109.20L71.10 109.20L67 111.90Q63.30 106.80 59.65 102.95Q56.00 99.10 51.65 96.95Q47.30 94.80 41.70 94.80L41.70 94.80Q35.90 94.80 33.15 97.15Q30.40 99.50 30.40 103.10L30.40 103.10Q30.40 107.30 33.10 109.25Q35.80 111.20 40 111.20L40 111.20Q42.70 111.20 44.95 110.65Q47.20 110.10 49.40 109.10L49.40 109.10L51.10 113.90Q48.50 114.90 45.80 115.50Q43.10 116.10 40.30 116.10Z"/></svg>