<svg xmlns="http://www.w3.org/2000/svg" xmlns:xlink="http://www.w3.org/1999/xlink" width="57.800000000000004" height="130.4"><path d="M15.40 72.30L15.40 72.30Q13.30 72.30 11.20 70.75Q9.10 69.20 7.75 66.95Q6.40 64.70 6.40 62.70L6.40 62.70Q6.40 61.30 7.45 60.25Q8.50 59.20 11.10 59.20L11.10 59.20L14 59.20L14 44.40Q14 41.70 13.65 40.20Q13.30 38.70 12.50 37.60L12.50 37.60Q11.50 36.20 9.45 35.75Q7.40 35.30 4.80 35.30L4.80 35.30L5.40 30.40L6.30 30.40Q13.40 30.40 16.50 33.90L16.50 33.90Q19.30 37.10 19.30 44.20L19.30 44.20L19.30 59.20L42.40 59.20L42.40 29.30L47.70 30.10L47.70 75.50Q47.70 78.70 48.20 80.35Q48.70 82.00 49.90 82.90L49.90 82.90Q51.10 84.10 53.05 84.35Q55 84.60 57.30 84.60L57.30 84.60L56.80 89.60L55.80 89.60Q49.10 89.60 45.90 86.60L45.90 86.60Q44.10 85.00 43.25 82.50Q42.40 80 42.40 75.80L42.40 75.80L42.40 64.10L19.30 64.10L19.30 67.10Q19.30 69.90 18.15 71.10Q17 72.30 15.40 72.30ZM47.30 25.50L42.90 25.50Q41 17.70 39.15 13.15Q37.30 8.60 34.85 6.70Q32.40 4.80 28.60 4.80L28.60 4.80Q27.40 4.80 26.05 5Q24.70 5.20 23.20 5.70L23.20 5.70L21.70 1.10Q23.60 0.50 25.40 0.25Q27.20 0 28.90 0L28.90 0Q33.50 0 36.85 2.25Q40.20 4.50 42.70 10.05Q45.20 15.60 47.30 25.50L47.30 25.50ZM42 23.70L39.20 26.60Q33.10 21.20 28.90 18.85Q24.70 16.50 19.80 16.50L19.80 16.50Q16.30 16.50 13.40 17.40L13.40 17.40L11.90 12.70Q13.70 12.30 15.65 12Q17.60 11.70 19.80 11.70L19.80 11.70Q23.60 11.70 26.95 12.90Q30.30 14.10 33.85 16.75Q37.40 19.40 42 23.70L42 23.70Z"/></svg>