<svg xmlns="http://www.w3.org/2000/svg" xmlns:xlink="http://www.w3.org/1999/xlink" width="82.9" height="130.4"><path d="M15.40 72.30L15.40 72.30Q13.30 72.30 11.20 70.75Q9.10 69.20 7.75 66.95Q6.40 64.70 6.40 62.70L6.40 62.70Q6.40 61.30 7.45 60.25Q8.50 59.20 11.10 59.20L11.10 59.20L14 59.20L14 44.40Q14 41.70 13.65 40.20Q13.30 38.70 12.50 37.60L12.50 37.60Q11.50 36.20 9.45 35.75Q7.40 35.30 4.80 35.30L4.80 35.30L5.40 30.40L6.30 30.40Q13.40 30.40 16.50 33.90L16.50 33.90Q19.30 37.10 19.30 44.20L19.30 44.20L19.30 59.20L42.40 59.20L42.40 29.30L47.70 30.10L47.70 75.50Q47.70 78.70 48.20 80.35Q48.70 82.00 49.90 82.90L49.90 82.90Q51.10 84.10 53.05 84.35Q55 84.60 57.30 84.60L57.30 84.60L56.80 89.60L55.80 89.60Q49.10 89.60 45.90 86.60L45.90 86.60Q44.10 85.00 43.25 82.50Q42.40 80 42.40 75.80L42.40 75.80L42.40 64.10L19.30 64.10L19.30 67.10Q19.30 69.90 18.15 71.10Q17 72.30 15.40 72.30ZM81.90 89.60L80.90 89.60Q74.30 89.60 71 86.60L71 86.60Q69.20 85.00 68.35 82.50Q67.50 80 67.50 75.80L67.50 75.80L67.50 29.30L72.80 30.00L72.80 75.50Q72.80 78.80 73.30 80.40Q73.80 82.00 75.10 83.00L75.10 83.00Q76.30 84.10 78.15 84.35Q80 84.60 82.40 84.60L82.40 84.60L81.90 89.60ZM72.30 25.50L67.50 25.50Q65.30 17.90 63.30 13.40Q61.30 8.90 58.75 6.90Q56.20 4.90 52.30 4.90L52.30 4.90Q49.50 4.90 46.50 5.80L46.50 5.80L44.90 1.20Q46.90 0.60 48.85 0.30Q50.80 0 52.60 0L52.60 0Q57.30 0 60.80 2.15Q64.30 4.30 67.05 9.80Q69.80 15.30 72.30 25.50L72.30 25.50Z"/></svg>