<svg xmlns="http://www.w3.org/2000/svg" xmlns:xlink="http://www.w3.org/1999/xlink" width="82.9" height="130.4">
    <path
        d="M15.40 72.30L15.40 72.30Q13.30 72.30 11.20 70.75Q9.10 69.20 7.75 66.95Q6.40 64.70 6.40 62.70L6.40 62.70Q6.40 61.30 7.45 60.25Q8.50 59.20 11.10 59.20L11.10 59.20L14 59.20L14 44.40Q14 41.70 13.65 40.20Q13.30 38.70 12.50 37.60L12.50 37.60Q11.50 36.20 9.45 35.75Q7.40 35.30 4.80 35.30L4.80 35.30L5.40 30.40L6.30 30.40Q13.40 30.40 16.50 33.90L16.50 33.90Q19.30 37.10 19.30 44.20L19.30 44.20L19.30 59.20L42.40 59.20L42.40 29.30L47.70 30.10L47.70 75.50Q47.70 78.70 48.20 80.35Q48.70 82.00 49.90 82.90L49.90 82.90Q51.10 84.10 53.05 84.35Q55 84.60 57.30 84.60L57.30 84.60L56.80 89.60L55.80 89.60Q49.10 89.60 45.90 86.60L45.90 86.60Q44.10 85.00 43.25 82.50Q42.40 80 42.40 75.80L42.40 75.80L42.40 64.10L19.30 64.10L19.30 67.10Q19.30 69.90 18.15 71.10Q17 72.30 15.40 72.30ZM81.90 89.60L80.90 89.60Q74.30 89.60 71 86.60L71 86.60Q69.20 85.00 68.35 82.50Q67.50 80 67.50 75.80L67.50 75.80L67.50 29.30L72.80 30.00L72.80 75.50Q72.80 78.80 73.30 80.40Q73.80 82.00 75.10 83.00L75.10 83.00Q76.30 84.10 78.15 84.35Q80 84.60 82.40 84.60L82.40 84.60L81.90 89.60ZM72.40 25.50L68 25.50Q66.10 17.70 64.25 13.15Q62.40 8.60 59.95 6.70Q57.50 4.80 53.70 4.80L53.70 4.80Q52.50 4.80 51.15 5Q49.80 5.20 48.30 5.70L48.30 5.70L46.80 1.10Q48.70 0.50 50.50 0.25Q52.30 0 54.00 0L54.00 0Q58.60 0 61.95 2.25Q65.30 4.50 67.80 10.05Q70.30 15.60 72.40 25.50L72.40 25.50ZM67.10 23.70L64.30 26.60Q58.20 21.20 54.00 18.85Q49.80 16.50 44.90 16.50L44.90 16.50Q41.40 16.50 38.50 17.40L38.50 17.40L37 12.70Q38.80 12.30 40.75 12Q42.70 11.70 44.90 11.70L44.90 11.70Q48.70 11.70 52.05 12.90Q55.40 14.10 58.95 16.75Q62.50 19.40 67.10 23.70L67.10 23.70Z" />
      <g
     id="g605"
     inkscape:label="g2">
    <path
       style="display:inline"
       d="m 70.7,89.6 h -1 q -6.6,0 -9.9,-3 v 0 Q 58,85 57.15,82.5 56.3,80 56.3,75.8 v 0 -46.5 l 5.3,0.7 v 45.5 q 0,3.3 0.5,4.9 0.5,1.6 1.8,2.6 v 0 q 1.2,1.1 3.05,1.35 1.85,0.25 4.25,0.25 v 0 z"
       id="path592"
       inkscape:label="p2" />
    <path
       style="display:inline;fill:none;stroke:#000000;stroke-width:1px;stroke-linecap:butt;stroke-linejoin:miter;stroke-opacity:1"
       d="m 58.945814,29.339077 c 0.0052,15.660703 -0.0419,31.322813 -0.004,46.982637 0.07316,2.661925 0.300705,5.531206 2.06529,7.674603 1.94562,2.285428 5.076188,2.956219 7.950186,3.001875 0.734456,0.05113 1.468913,0.102253 2.203369,0.15338"
       id="path81"
       inkscape:label="s3" />
  </g>
  <g
     id="g609"
     inkscape:label="g3">
    <path
       style="display:inline"
       d="m 55.9,23.7 -2.8,2.9 Q 47,21.2 42.8,18.85 38.6,16.5 33.7,16.5 v 0 q -3.5,0 -6.4,0.9 v 0 l -1.5,-4.7 q 1.8,-0.4 3.75,-0.7 1.95,-0.3 4.15,-0.3 v 0 q 3.8,0 7.15,1.2 3.35,1.2 6.9,3.85 3.55,2.65 8.15,6.95 z"
       id="path596"
       inkscape:label="p3" />
    <path
       style="display:inline;fill:none;stroke:#000000;stroke-width:1px;stroke-linecap:butt;stroke-linejoin:miter;stroke-opacity:1"
       d="m 26.306582,15.114407 c 2.688785,-0.568456 5.416241,-1.1935 8.183739,-0.988483 1.810938,0.02306 3.595689,0.410136 5.328375,0.908621 1.446215,0.495326 2.860202,1.115629 4.178036,1.890495 3.847011,2.308963 7.136989,5.387765 10.538424,8.281996"
       id="path905"
       inkscape:label="s4" />
  </g>
  <g
     id="g613"
     inkscape:label="g4">
    <path
       style="display:inline"
       d="M 61.2,25.5 H 56.8 Q 54.9,17.7 53.05,13.15 51.2,8.6 48.75,6.7 46.3,4.8 42.5,4.8 v 0 Q 41.3,4.8 39.95,5 38.6,5.2 37.1,5.7 v 0 L 35.6,1.1 Q 37.5,0.5 39.3,0.25 41.1,0 42.8,0 v 0 q 4.6,0 7.95,2.25 3.35,2.25 5.85,7.8 2.5,5.55 4.6,15.45 z"
       id="path594"
       inkscape:label="p4" />
    <path
       style="display:inline;fill:none;stroke:#000000;stroke-width:1px;stroke-linecap:butt;stroke-linejoin:miter;stroke-opacity:1"
       d="m 36.195028,3.4913397 2.773185,-0.7181553 0.82864,-0.1767767 0.806544,-0.099437 1.138,-0.088388 h 0.905981 l 1.027514,0.033146 0.983321,0.121534 0.872835,0.1325825 1.237436,0.2872621 1.071709,0.4198447 1.347922,0.6960582 1.016466,0.6960583 0.696059,0.5966213 0.82864,0.9612233 0.950175,1.2042912 0.839689,1.3368738 0.806544,1.6130879 0.651864,1.425262 0.662913,1.635184 0.53033,1.679379 0.50108,1.557697 0.367187,1.382813 0.5,1.734375 0.453125,1.757812 1.007035,3.936361"
       id="path970"
       inkscape:label="s5" />
  </g>
    <path style="fill:none;stroke:#000000;stroke-width:1px;stroke-linecap:butt;stroke-linejoin:miter;stroke-opacity:1"
        d="m 0.03006035,3.5944191 c 2.43917685,0.1337566 4.99358315,0.097258 7.27940125,1.0788113 3.3023294,1.383941 4.3616134,5.2199171 4.4987144,8.4870346 0.08953,7.006019 0.04506,14.015913 0.06536,21.023523 -0.205254,1.9346 0.472846,4.156592 -0.631928,5.868925 C 9.262553,40.667749 7.4486331,38.779779 6.2156848,37.400797 5.3576454,36.195046 3.1896218,33.53142 5.1438512,32.690801 c 2.3147159,-0.306325 4.6629897,-0.02164 6.9892078,-0.253765 7.990527,-0.17646 15.984715,-0.05261 23.976956,-0.09624 1.47562,0.142438 3.011057,-0.196316 4.139795,-1.200175 0.03138,-10.382013 0.04093,-20.764094 0.02638,-31.14614527"
        id="path280" inkscape:label="s1" sodipodi:nodetypes="ccccccccccc" />
    <path style="fill:none;stroke:#000000;stroke-width:1px;stroke-linecap:butt;stroke-linejoin:miter;stroke-opacity:1"
        d="m 40.25472,31.140621 c 0.0041,5.558714 -0.0036,11.882948 0.01656,17.441317 0.07405,2.774345 0.569828,5.070208 2.882266,6.908269 2.190435,1.955071 5.244862,2.153139 8.03664,2.215746 l 1.31762,0.05967"
        id="path362" inkscape:label="s2" />
</svg>