<svg xmlns="http://www.w3.org/2000/svg" xmlns:xlink="http://www.w3.org/1999/xlink" width="68.10000000000001" height="130.4"><path d="M29.50 90.60L29.50 90.60Q23.50 90.60 18.95 88.30Q14.40 86.00 11.85 81.90Q9.30 77.80 9.30 72.40L9.30 72.40Q9.30 68.40 10.80 65.15Q12.30 61.90 15 59.60L15 59.60Q10.50 56.80 7.70 52.95Q4.90 49.10 4.90 43.90L4.90 43.90Q4.90 37.70 9.55 33.50Q14.20 29.30 22.90 29.30L22.90 29.30Q25.60 29.30 28.50 29.70Q31.40 30.10 33.50 30.60L33.50 30.60L32.50 35.40Q30.50 35.00 28.20 34.65Q25.90 34.30 23.50 34.30L23.50 34.30Q17.10 34.30 13.70 37.00Q10.30 39.70 10.30 44.20L10.30 44.20Q10.30 51.90 19.60 56.70L19.60 56.70Q24.30 54.50 30.20 54.50L30.20 54.50Q32.20 54.50 34 54.70Q35.80 54.90 37.50 55.20L37.50 55.20L36.50 60.00Q33.70 59.40 30.30 59.40L30.30 59.40Q26.10 59.40 22.55 60.85Q19 62.30 16.85 65.15Q14.70 68 14.70 72.40L14.70 72.40Q14.70 78.70 18.80 82.15Q22.90 85.60 29.60 85.60L29.60 85.60Q34.60 85.60 37.60 84.00L37.60 84.00Q36.10 82.50 36.10 80.40L36.10 80.40Q36.10 78.20 37.55 76.85Q39 75.50 41.30 75.50L41.30 75.50Q43.70 75.50 45.05 77Q46.40 78.50 46.40 80.60L46.40 80.60Q46.40 83.80 44.05 86.00Q41.70 88.20 37.85 89.40Q34 90.60 29.50 90.60ZM56.90 51.30L56.90 51.30Q55.10 51.30 53.70 49.95Q52.30 48.60 52.30 46.20L52.30 46.20Q52.30 43.80 53.65 42.45Q55 41.10 56.90 41.10L56.90 41.10Q58.90 41.10 60.20 42.45Q61.50 43.80 61.50 46.20L61.50 46.20Q61.50 48.70 60.15 50.00Q58.80 51.30 56.90 51.30ZM56.90 84.60L56.90 84.60Q55.10 84.60 53.70 83.25Q52.30 81.90 52.30 79.50L52.30 79.50Q52.30 77.10 53.65 75.75Q55 74.40 56.90 74.40L56.90 74.40Q58.90 74.40 60.20 75.75Q61.50 77.10 61.50 79.50L61.50 79.50Q61.50 82.00 60.15 83.30Q58.80 84.60 56.90 84.60Z"/></svg>