<svg xmlns="http://www.w3.org/2000/svg" xmlns:xlink="http://www.w3.org/1999/xlink" width="68.10000000000001"
    height="130.4">
    <path
        d="M29.50 90.60L29.50 90.60Q23.50 90.60 18.95 88.30Q14.40 86.00 11.85 81.90Q9.30 77.80 9.30 72.40L9.30 72.40Q9.30 68.40 10.80 65.15Q12.30 61.90 15 59.60L15 59.60Q10.50 56.80 7.70 52.95Q4.90 49.10 4.90 43.90L4.90 43.90Q4.90 37.70 9.55 33.50Q14.20 29.30 22.90 29.30L22.90 29.30Q25.60 29.30 28.50 29.70Q31.40 30.10 33.50 30.60L33.50 30.60L32.50 35.40Q30.50 35.00 28.20 34.65Q25.90 34.30 23.50 34.30L23.50 34.30Q17.10 34.30 13.70 37.00Q10.30 39.70 10.30 44.20L10.30 44.20Q10.30 51.90 19.60 56.70L19.60 56.70Q24.30 54.50 30.20 54.50L30.20 54.50Q32.20 54.50 34 54.70Q35.80 54.90 37.50 55.20L37.50 55.20L36.50 60.00Q33.70 59.40 30.30 59.40L30.30 59.40Q26.10 59.40 22.55 60.85Q19 62.30 16.85 65.15Q14.70 68 14.70 72.40L14.70 72.40Q14.70 78.70 18.80 82.15Q22.90 85.60 29.60 85.60L29.60 85.60Q34.60 85.60 37.60 84.00L37.60 84.00Q36.10 82.50 36.10 80.40L36.10 80.40Q36.10 78.20 37.55 76.85Q39 75.50 41.30 75.50L41.30 75.50Q43.70 75.50 45.05 77Q46.40 78.50 46.40 80.60L46.40 80.60Q46.40 83.80 44.05 86.00Q41.70 88.20 37.85 89.40Q34 90.60 29.50 90.60ZM56.90 51.30L56.90 51.30Q55.10 51.30 53.70 49.95Q52.30 48.60 52.30 46.20L52.30 46.20Q52.30 43.80 53.65 42.45Q55 41.10 56.90 41.10L56.90 41.10Q58.90 41.10 60.20 42.45Q61.50 43.80 61.50 46.20L61.50 46.20Q61.50 48.70 60.15 50.00Q58.80 51.30 56.90 51.30ZM56.90 84.60L56.90 84.60Q55.10 84.60 53.70 83.25Q52.30 81.90 52.30 79.50L52.30 79.50Q52.30 77.10 53.65 75.75Q55 74.40 56.90 74.40L56.90 74.40Q58.90 74.40 60.20 75.75Q61.50 77.10 61.50 79.50L61.50 79.50Q61.50 82.00 60.15 83.30Q58.80 84.60 56.90 84.60Z" />
     <g
     id="g686"
     inkscape:label="g2">
    <path
       style="display:inline"
       d="m 57.8,22 v 0 Q 56,22 54.6,20.65 53.2,19.3 53.2,16.9 v 0 q 0,-2.4 1.35,-3.75 1.35,-1.35 3.25,-1.35 v 0 q 2,0 3.3,1.35 1.3,1.35 1.3,3.75 v 0 q 0,2.5 -1.35,3.8 Q 59.7,22 57.8,22 Z"
       id="path675"
       inkscape:label="p2" />
    <path
       d="m 57.837008,13.391934 c -0.820403,0 -1.515467,0.311801 -2.085191,0.935405 -0.569724,0.623603 -0.854587,1.707464 -0.854587,2.59035 0,1.055328 0.273468,1.894793 0.820403,2.518396 0.546936,0.623603 1.347168,0.935404 2.119375,0.935404 0.865981,0 1.572439,-0.311801 2.119375,-0.935404 0.546935,-0.623603 0.820403,-1.597773 0.820403,-2.518396 0,-1.151267 -0.284863,-2.02671 -0.854587,-2.626328 -0.569724,-0.599617 -1.264788,-0.899427 -2.085191,-0.899427 z"
       style="display:inline;stroke-width:0.701376"
       id="path950"
       sodipodi:nodetypes="sssssssss"
       inkscape:label="s3" />
  </g>
  <g
     id="g690"
     inkscape:label="g3">
    <path
       style="display:inline"
       d="m 57.8,55.3 v 0 Q 56,55.3 54.6,53.95 53.2,52.6 53.2,50.2 v 0 q 0,-2.4 1.35,-3.75 1.35,-1.35 3.25,-1.35 v 0 q 2,0 3.3,1.35 1.3,1.35 1.3,3.75 v 0 q 0,2.5 -1.35,3.8 -1.35,1.3 -3.25,1.3 z"
       id="path677"
       inkscape:label="p3" />
    <path
       d="m 57.836778,46.680782 c -0.820403,0 -1.515467,0.311801 -2.085191,0.935405 -0.569724,0.623603 -0.854587,1.707464 -0.854587,2.59035 0,1.055328 0.273468,1.894793 0.820403,2.518396 0.546936,0.623603 1.347168,0.935404 2.119375,0.935404 0.865981,0 1.572439,-0.311801 2.119375,-0.935404 0.546935,-0.623603 0.820403,-1.597773 0.820403,-2.518396 0,-1.151267 -0.284863,-2.02671 -0.854587,-2.626328 -0.569724,-0.599617 -1.264788,-0.899427 -2.085191,-0.899427 z"
       style="display:inline;stroke-width:0.701376"
       id="path950-5"
       sodipodi:nodetypes="sssssssss"
       inkscape:label="s4" />
  </g>
    <path style="fill:none;stroke:#000000;stroke-width:1px;stroke-linecap:butt;stroke-linejoin:miter;stroke-opacity:1"
        d="M 28.085937,3.7578125 C 24.793527,3.0395176 21.451319,2.4511181 18.069066,2.4928235 14.49255,2.538144 10.738367,3.0907323 7.7349628,5.1702882 6.0862727,6.2844042 4.7051371,7.8250603 3.8491899,9.6283201 3.0437078,11.315594 2.6514222,13.209431 2.7112855,15.081576 c 0.020915,2.560314 0.7782676,5.113283 2.2732252,7.203969 2.168212,3.142729 5.3600673,5.383442 8.5637553,7.367007 0.857258,0.589558 1.911373,0.219435 2.734667,-0.232115 4.374684,-1.916325 9.316715,-2.121393 13.976919,-1.330023 0.609997,0.08315 1.219995,0.166289 1.829992,0.249433"
        id="path329" inkscape:label="s1" />
    <path style="fill:none;stroke:#000000;stroke-width:1px;stroke-linecap:butt;stroke-linejoin:miter;stroke-opacity:1"
        d="m 13.28125,30.425781 c -0.866128,1.617778 -2.601733,2.514939 -3.5625,4.070313 -1.7058606,2.309496 -2.5350916,5.169707 -2.5965276,8.021805 -0.1362449,3.756864 0.8908413,7.662884 3.3755196,10.553414 3.016944,3.565422 7.675085,5.372032 12.258064,5.661648 4.353733,0.265112 8.950191,-0.254944 12.735024,-2.571086 1.254212,-0.92293 2.407419,-2.129063 2.935141,-3.613978 0.216743,-0.856722 0.253398,-1.895011 -0.271249,-2.63454 -0.803985,-0.879136 -2.248243,-0.902381 -3.247427,-0.371171 -1.006406,0.612962 -0.89142,2.025478 -0.368618,2.929835 0.264253,0.557695 0.670669,1.035617 0.945698,1.590479"
        id="path389" inkscape:label="s2" />
</svg>