<svg xmlns="http://www.w3.org/2000/svg" xmlns:xlink="http://www.w3.org/1999/xlink" width="70.80000000000001" height="130.4"><path d="M24 89.60L23.10 89.60Q20 89.60 17.50 88.95Q15 88.30 13.20 86.60L13.20 86.60Q11.30 84.90 10.50 82.40Q9.70 79.90 9.70 75.80L9.70 75.80L9.70 22.40Q9.70 15.80 11.05 11.70Q12.40 7.60 15.80 4.70L15.80 4.70Q18 2.80 21.15 1.70Q24.30 0.60 28.40 0.60L28.40 0.60Q37.50 0.60 44.75 5.85Q52 11.10 59.30 19.60L59.30 19.60L55.40 22.70Q49 15.10 42.65 10.30Q36.30 5.50 28.70 5.50L28.70 5.50Q22.80 5.50 19.40 8.40L19.40 8.40Q17 10.50 16 14Q15 17.50 15 24.10L15 24.10L15 75.50Q15 78.70 15.50 80.35Q16 82.00 17.20 82.90L17.20 82.90Q18.40 84.10 20.35 84.35Q22.30 84.60 24.60 84.60L24.60 84.60L24 89.60ZM54.60 90.60L54.60 90.60Q48.60 90.60 44.05 88.30Q39.50 86.00 36.95 81.90Q34.40 77.80 34.40 72.40L34.40 72.40Q34.40 68.40 35.90 65.15Q37.40 61.90 40.10 59.60L40.10 59.60Q35.60 56.80 32.80 52.95Q30 49.10 30 43.90L30 43.90Q30 37.70 34.65 33.50Q39.30 29.30 48 29.30L48 29.30Q50.70 29.30 53.60 29.70Q56.50 30.10 58.60 30.60L58.60 30.60L57.60 35.40Q55.60 35.00 53.30 34.65Q51 34.30 48.60 34.30L48.60 34.30Q42.20 34.30 38.80 37.00Q35.40 39.70 35.40 44.20L35.40 44.20Q35.40 51.90 44.70 56.70L44.70 56.70Q49.40 54.50 55.30 54.50L55.30 54.50Q57.30 54.50 59.10 54.70Q60.90 54.90 62.60 55.20L62.60 55.20L61.60 60.00Q58.80 59.40 55.40 59.40L55.40 59.40Q51.20 59.40 47.65 60.85Q44.10 62.30 41.95 65.15Q39.80 68 39.80 72.40L39.80 72.40Q39.80 78.70 43.90 82.15Q48 85.60 54.70 85.60L54.70 85.60Q59.70 85.60 62.70 84.00L62.70 84.00Q61.20 82.50 61.20 80.40L61.20 80.40Q61.20 78.20 62.65 76.85Q64.10 75.50 66.40 75.50L66.40 75.50Q68.80 75.50 70.15 77Q71.50 78.50 71.50 80.60L71.50 80.60Q71.50 83.80 69.15 86.00Q66.80 88.20 62.95 89.40Q59.10 90.60 54.60 90.60Z"/></svg>