<svg xmlns="http://www.w3.org/2000/svg" xmlns:xlink="http://www.w3.org/1999/xlink" width="45.7" height="130.4"><path d="M29.50 90.60L29.50 90.60Q23.50 90.60 18.95 88.30Q14.40 86.00 11.85 81.90Q9.30 77.80 9.30 72.40L9.30 72.40Q9.30 68.40 10.80 65.15Q12.30 61.90 15 59.60L15 59.60Q10.50 56.80 7.70 52.95Q4.90 49.10 4.90 43.90L4.90 43.90Q4.90 37.70 9.55 33.50Q14.20 29.30 22.90 29.30L22.90 29.30Q25.60 29.30 28.50 29.70Q31.40 30.10 33.50 30.60L33.50 30.60L32.50 35.40Q30.50 35.00 28.20 34.65Q25.90 34.30 23.50 34.30L23.50 34.30Q17.10 34.30 13.70 37.00Q10.30 39.70 10.30 44.20L10.30 44.20Q10.30 51.90 19.60 56.70L19.60 56.70Q24.30 54.50 30.20 54.50L30.20 54.50Q32.20 54.50 34 54.70Q35.80 54.90 37.50 55.20L37.50 55.20L36.50 60.00Q33.70 59.40 30.30 59.40L30.30 59.40Q26.10 59.40 22.55 60.85Q19 62.30 16.85 65.15Q14.70 68 14.70 72.40L14.70 72.40Q14.70 78.70 18.80 82.15Q22.90 85.60 29.60 85.60L29.60 85.60Q34.60 85.60 37.60 84.00L37.60 84.00Q36.10 82.50 36.10 80.40L36.10 80.40Q36.10 78.20 37.55 76.85Q39 75.50 41.30 75.50L41.30 75.50Q43.70 75.50 45.05 77Q46.40 78.50 46.40 80.60L46.40 80.60Q46.40 83.80 44.05 86.00Q41.70 88.20 37.85 89.40Q34 90.60 29.50 90.60ZM28.20 116.10L28.20 116.10Q21.10 116.10 17.20 112.50Q13.30 108.90 13.30 103.00L13.30 103.00Q13.30 97.60 17.40 93.85Q21.50 90.10 29.40 90.10L29.40 90.10Q36.70 90.10 42.05 92.85Q47.40 95.60 51.50 99.95Q55.60 104.30 59 109.20L59 109.20L54.90 111.90Q51.20 106.80 47.55 102.95Q43.90 99.10 39.55 96.95Q35.20 94.80 29.60 94.80L29.60 94.80Q23.80 94.80 21.05 97.15Q18.30 99.50 18.30 103.10L18.30 103.10Q18.30 107.30 21 109.25Q23.70 111.20 27.90 111.20L27.90 111.20Q30.60 111.20 32.85 110.65Q35.10 110.10 37.30 109.10L37.30 109.10L39 113.90Q36.40 114.90 33.70 115.50Q31 116.10 28.20 116.10Z"/></svg>