<svg xmlns="http://www.w3.org/2000/svg" xmlns:xlink="http://www.w3.org/1999/xlink" width="45.7" height="130.4">
    <path
        d="M29.50 90.60L29.50 90.60Q23.50 90.60 18.95 88.30Q14.40 86.00 11.85 81.90Q9.30 77.80 9.30 72.40L9.30 72.40Q9.30 68.40 10.80 65.15Q12.30 61.90 15 59.60L15 59.60Q10.50 56.80 7.70 52.95Q4.90 49.10 4.90 43.90L4.90 43.90Q4.90 37.70 9.55 33.50Q14.20 29.30 22.90 29.30L22.90 29.30Q25.60 29.30 28.50 29.70Q31.40 30.10 33.50 30.60L33.50 30.60L32.50 35.40Q30.50 35.00 28.20 34.65Q25.90 34.30 23.50 34.30L23.50 34.30Q17.10 34.30 13.70 37.00Q10.30 39.70 10.30 44.20L10.30 44.20Q10.30 51.90 19.60 56.70L19.60 56.70Q24.30 54.50 30.20 54.50L30.20 54.50Q32.20 54.50 34 54.70Q35.80 54.90 37.50 55.20L37.50 55.20L36.50 60.00Q33.70 59.40 30.30 59.40L30.30 59.40Q26.10 59.40 22.55 60.85Q19 62.30 16.85 65.15Q14.70 68 14.70 72.40L14.70 72.40Q14.70 78.70 18.80 82.15Q22.90 85.60 29.60 85.60L29.60 85.60Q34.60 85.60 37.60 84.00L37.60 84.00Q36.10 82.50 36.10 80.40L36.10 80.40Q36.10 78.20 37.55 76.85Q39 75.50 41.30 75.50L41.30 75.50Q43.70 75.50 45.05 77Q46.40 78.50 46.40 80.60L46.40 80.60Q46.40 83.80 44.05 86.00Q41.70 88.20 37.85 89.40Q34 90.60 29.50 90.60ZM35.10 25.50L30.30 25.50Q28.10 17.90 26.10 13.40Q24.10 8.90 21.55 6.90Q19 4.90 15.10 4.90L15.10 4.90Q12.30 4.90 9.30 5.80L9.30 5.80L7.70 1.20Q9.70 0.60 11.65 0.30Q13.60 0 15.40 0L15.40 0Q20.10 0 23.60 2.15Q27.10 4.30 29.85 9.80Q32.60 15.30 35.10 25.50L35.10 25.50Z" />
    <g
     id="g489"
     inkscape:label="g2">
    <path
       style="display:inline"
       d="M 36,25.5 H 31.2 Q 29,17.9 27,13.4 25,8.9 22.45,6.9 19.9,4.9 16,4.9 v 0 q -2.8,0 -5.8,0.9 v 0 L 8.6,1.2 Q 10.6,0.6 12.55,0.3 14.5,0 16.3,0 V 0 Q 21,0 24.5,2.15 28,4.3 30.75,9.8 33.5,15.3 36,25.5 Z"
       id="path480"
       inkscape:label="p2" />
    <path
       style="display:inline;fill:none;stroke:#000000;stroke-width:1px;stroke-linecap:butt;stroke-linejoin:miter;stroke-opacity:1"
       d="M 9.1953125,3.65625 C 11.885187,3.0547747 14.602752,2.1924171 17.392371,2.5147776 c 2.933702,0.1444617 5.855129,1.3548567 7.857702,3.5355896 2.358946,2.4575826 3.759606,5.6375698 4.974188,8.7751108 1.29204,3.54249 2.32594,7.16808 3.361676,10.791709"
       id="path595"
       inkscape:label="s3" /></g>
    <path style="fill:none;stroke:#000000;stroke-width:1px;stroke-linecap:butt;stroke-linejoin:miter;stroke-opacity:1"
        d="M 28.085937,3.7578125 C 24.793527,3.0395176 21.451319,2.4511181 18.069066,2.4928235 14.49255,2.538144 10.738367,3.0907323 7.7349628,5.1702882 6.0862727,6.2844042 4.7051371,7.8250603 3.8491899,9.6283201 3.0437078,11.315594 2.6514222,13.209431 2.7112855,15.081576 c 0.020915,2.560314 0.7782676,5.113283 2.2732252,7.203969 2.168212,3.142729 5.3600673,5.383442 8.5637553,7.367007 0.857258,0.589558 1.911373,0.219435 2.734667,-0.232115 4.374684,-1.916325 9.316715,-2.121393 13.976919,-1.330023 0.609997,0.08315 1.219995,0.166289 1.829992,0.249433"
        id="path329" inkscape:label="s1" />
    <path style="fill:none;stroke:#000000;stroke-width:1px;stroke-linecap:butt;stroke-linejoin:miter;stroke-opacity:1"
        d="m 13.28125,30.425781 c -0.866128,1.617778 -2.601733,2.514939 -3.5625,4.070313 -1.7058606,2.309496 -2.5350916,5.169707 -2.5965276,8.021805 -0.1362449,3.756864 0.8908413,7.662884 3.3755196,10.553414 3.016944,3.565422 7.675085,5.372032 12.258064,5.661648 4.353733,0.265112 8.950191,-0.254944 12.735024,-2.571086 1.254212,-0.92293 2.407419,-2.129063 2.935141,-3.613978 0.216743,-0.856722 0.253398,-1.895011 -0.271249,-2.63454 -0.803985,-0.879136 -2.248243,-0.902381 -3.247427,-0.371171 -1.006406,0.612962 -0.89142,2.025478 -0.368618,2.929835 0.264253,0.557695 0.670669,1.035617 0.945698,1.590479"
        id="path389" inkscape:label="s2" />
</svg>