<?xml version="1.0" encoding="UTF-8" standalone="no"?>
<svg
   width="41.5"
   height="90.599998"
   version="1.1"
   id="svg771"
   sodipodi:docname="6_de.svg"
   inkscape:version="1.2.1 (9c6d41e410, 2022-07-14)"
   xmlns:inkscape="http://www.inkscape.org/namespaces/inkscape"
   xmlns:sodipodi="http://sodipodi.sourceforge.net/DTD/sodipodi-0.dtd"
   xmlns="http://www.w3.org/2000/svg"
   xmlns:svg="http://www.w3.org/2000/svg">
  <defs
     id="defs775" />
  <sodipodi:namedview
     id="namedview773"
     pagecolor="#ffffff"
     bordercolor="#666666"
     borderopacity="1.0"
     inkscape:showpageshadow="2"
     inkscape:pageopacity="0.0"
     inkscape:pagecheckerboard="0"
     inkscape:deskcolor="#d1d1d1"
     showgrid="false"
     inkscape:zoom="1.809816"
     inkscape:cx="17.957626"
     inkscape:cy="65.199997"
     inkscape:window-width="1920"
     inkscape:window-height="1027"
     inkscape:window-x="-8"
     inkscape:window-y="-8"
     inkscape:window-maximized="1"
     inkscape:current-layer="svg771" />
  <g
     id="g115"
     inkscape:label="g1"
     transform="translate(0,29.3)">
    <path
       d="m 24.6,61.3 v 0 Q 18.6,61.3 14.05,59 9.5,56.7 6.95,52.6 4.4,48.5 4.4,43.1 v 0 q 0,-4 1.5,-7.25 1.5,-3.25 4.2,-5.55 v 0 Q 5.6,27.5 2.8,23.65 0,19.8 0,14.6 v 0 Q 0,8.4 4.65,4.2 9.3,0 18,0 v 0 q 2.7,0 5.6,0.4 2.9,0.4 5,0.9 v 0 l -1,4.8 Q 25.6,5.7 23.3,5.35 21,5 18.6,5 V 5 Q 12.2,5 8.8,7.7 5.4,10.4 5.4,14.9 v 0 q 0,7.7 9.3,12.5 v 0 q 4.7,-2.2 10.6,-2.2 v 0 q 2,0 3.8,0.2 1.8,0.2 3.5,0.5 v 0 l -1,4.8 q -2.8,-0.6 -6.2,-0.6 v 0 q -4.2,0 -7.75,1.45 Q 14.1,33 11.95,35.85 9.8,38.7 9.8,43.1 v 0 q 0,6.3 4.1,9.75 4.1,3.45 10.8,3.45 v 0 q 5,0 8,-1.6 v 0 q -1.5,-1.5 -1.5,-3.6 v 0 q 0,-2.2 1.45,-3.55 1.45,-1.35 3.75,-1.35 v 0 q 2.4,0 3.75,1.5 1.35,1.5 1.35,3.6 v 0 q 0,3.2 -2.35,5.4 -2.35,2.2 -6.2,3.4 -3.85,1.2 -8.35,1.2 z"
       id="path2"
       inkscape:label="p1" />
    <path
       style="fill:none;stroke:#000000;stroke-width:1px;stroke-linecap:butt;stroke-linejoin:miter;stroke-opacity:1"
       d="M 28.085937,3.7578125 C 24.793527,3.0395176 21.451319,2.4511181 18.069066,2.4928235 14.49255,2.538144 10.738367,3.0907323 7.7349628,5.1702882 6.0862727,6.2844042 4.7051371,7.8250603 3.8491899,9.6283201 3.0437078,11.315594 2.6514222,13.209431 2.7112855,15.081576 c 0.020915,2.560314 0.7782676,5.113283 2.2732252,7.203969 2.168212,3.142729 5.3600673,5.383442 8.5637553,7.367007 0.857258,0.589558 1.911373,0.219435 2.734667,-0.232115 4.374684,-1.916325 9.316715,-2.121393 13.976919,-1.330023 0.609997,0.08315 1.219995,0.166289 1.829992,0.249433"
       id="path329-0"
       inkscape:label="s1" />
    <path
       style="fill:none;stroke:#000000;stroke-width:1px;stroke-linecap:butt;stroke-linejoin:miter;stroke-opacity:1"
       d="m 13.28125,30.425781 c -0.866128,1.617778 -2.601733,2.514939 -3.5625,4.070313 -1.7058606,2.309496 -2.5350916,5.169707 -2.5965276,8.021805 -0.1362449,3.756864 0.8908413,7.662884 3.3755196,10.553414 3.016944,3.565422 7.675085,5.372032 12.258064,5.661648 4.353733,0.265112 8.950191,-0.254944 12.735024,-2.571086 1.254212,-0.92293 2.407419,-2.129063 2.935141,-3.613978 0.216743,-0.856722 0.253398,-1.895011 -0.271249,-2.63454 -0.803985,-0.879136 -2.248243,-0.902381 -3.247427,-0.371171 -1.006406,0.612962 -0.89142,2.025478 -0.368618,2.929835 0.264253,0.557695 0.670669,1.035617 0.945698,1.590479"
       id="path389-9"
       inkscape:label="s2" />
  </g>
  <g
     id="g489"
     inkscape:label="g2"
     transform="matrix(1,0,0,0.99011452,-5.8,0)">
    <path
       style="display:inline"
       d="M 36,25.5 H 31.2 Q 29,17.9 27,13.4 25,8.9 22.45,6.9 19.9,4.9 16,4.9 v 0 q -2.8,0 -5.8,0.9 v 0 L 8.6,1.2 Q 10.6,0.6 12.55,0.3 14.5,0 16.3,0 V 0 Q 21,0 24.5,2.15 28,4.3 30.75,9.8 33.5,15.3 36,25.5 Z"
       id="path480"
       inkscape:label="p2" />
    <path
       style="display:inline;fill:none;stroke:#000000;stroke-width:1px;stroke-linecap:butt;stroke-linejoin:miter;stroke-opacity:1"
       d="M 9.1953125,3.65625 C 11.885187,3.0547747 14.602752,2.1924171 17.392371,2.5147776 c 2.933702,0.1444617 5.855129,1.3548567 7.857702,3.5355896 2.358946,2.4575826 3.759606,5.6375698 4.974188,8.7751108 1.29204,3.54249 2.32594,7.16808 3.361676,10.791709"
       id="path595"
       inkscape:label="s3" />
  </g>
</svg>
