<svg xmlns="http://www.w3.org/2000/svg" xmlns:xlink="http://www.w3.org/1999/xlink" width="45.7" height="130.4">
    <path
        d="M29.50 90.60L29.50 90.60Q23.50 90.60 18.95 88.30Q14.40 86.00 11.85 81.90Q9.30 77.80 9.30 72.40L9.30 72.40Q9.30 68.40 10.80 65.15Q12.30 61.90 15 59.60L15 59.60Q10.50 56.80 7.70 52.95Q4.90 49.10 4.90 43.90L4.90 43.90Q4.90 37.70 9.55 33.50Q14.20 29.30 22.90 29.30L22.90 29.30Q25.60 29.30 28.50 29.70Q31.40 30.10 33.50 30.60L33.50 30.60L32.50 35.40Q30.50 35.00 28.20 34.65Q25.90 34.30 23.50 34.30L23.50 34.30Q17.10 34.30 13.70 37.00Q10.30 39.70 10.30 44.20L10.30 44.20Q10.30 51.90 19.60 56.70L19.60 56.70Q24.30 54.50 30.20 54.50L30.20 54.50Q32.20 54.50 34 54.70Q35.80 54.90 37.50 55.20L37.50 55.20L36.50 60.00Q33.70 59.40 30.30 59.40L30.30 59.40Q26.10 59.40 22.55 60.85Q19 62.30 16.85 65.15Q14.70 68 14.70 72.40L14.70 72.40Q14.70 78.70 18.80 82.15Q22.90 85.60 29.60 85.60L29.60 85.60Q34.60 85.60 37.60 84.00L37.60 84.00Q36.10 82.50 36.10 80.40L36.10 80.40Q36.10 78.20 37.55 76.85Q39 75.50 41.30 75.50L41.30 75.50Q43.70 75.50 45.05 77Q46.40 78.50 46.40 80.60L46.40 80.60Q46.40 83.80 44.05 86.00Q41.70 88.20 37.85 89.40Q34 90.60 29.50 90.60ZM35.20 25.50L30.80 25.50Q28.90 17.70 27.05 13.15Q25.20 8.60 22.75 6.70Q20.30 4.80 16.50 4.80L16.50 4.80Q15.30 4.80 13.95 5Q12.60 5.20 11.10 5.70L11.10 5.70L9.60 1.10Q11.50 0.50 13.30 0.25Q15.10 0 16.80 0L16.80 0Q21.40 0 24.75 2.25Q28.10 4.50 30.60 10.05Q33.10 15.60 35.20 25.50L35.20 25.50ZM29.90 23.70L27.10 26.60Q21 21.20 16.80 18.85Q12.60 16.50 7.70 16.50L7.70 16.50Q4.20 16.50 1.30 17.40L1.30 17.40L-0.20 12.70Q1.60 12.30 3.55 12Q5.50 11.70 7.70 11.70L7.70 11.70Q11.50 11.70 14.85 12.90Q18.20 14.10 21.75 16.75Q25.30 19.40 29.90 23.70L29.90 23.70Z" />
      <g
     id="g522"
     inkscape:label="g2">
    <path
       style="display:inline"
       d="M 30.8,23.7 28,26.6 Q 21.9,21.2 17.7,18.85 13.5,16.5 8.6,16.5 v 0 q -3.5,0 -6.4,0.9 v 0 L 0.7,12.7 Q 2.5,12.3 4.45,12 6.4,11.7 8.6,11.7 v 0 q 3.8,0 7.15,1.2 3.35,1.2 6.9,3.85 3.55,2.65 8.15,6.95 z"
       id="path513"
       inkscape:label="p2" />
    <path
       style="display:inline;fill:none;stroke:#000000;stroke-width:1px;stroke-linecap:butt;stroke-linejoin:miter;stroke-opacity:1"
       d="m 1.2484854,15.037068 c 2.0296352,-0.33742 4.0471341,-0.823273 6.106769,-0.926121 1.7144665,-0.03627 3.4419196,-0.0066 5.1213336,0.377952 1.626492,0.286246 3.200444,0.851561 4.696094,1.542318 3.239677,1.543111 6.000222,3.881137 8.751411,6.145612 1.177108,1.030396 2.354216,2.060791 3.531324,3.091187"
       id="path660"
       inkscape:label="s3" />
  </g>
  <g
     id="g526"
     inkscape:label="g3">
    <path
       style="display:inline"
       d="M 36.1,25.5 H 31.7 Q 29.8,17.7 27.95,13.15 26.1,8.6 23.65,6.7 21.2,4.8 17.4,4.8 v 0 Q 16.2,4.8 14.85,5 13.5,5.2 12,5.7 v 0 L 10.5,1.1 Q 12.4,0.5 14.2,0.25 16,0 17.7,0 v 0 q 4.6,0 7.95,2.25 3.35,2.25 5.85,7.8 2.5,5.55 4.6,15.45 z"
       id="path511"
       inkscape:label="p3" />
    <path
       style="display:inline;fill:none;stroke:#000000;stroke-width:1px;stroke-linecap:butt;stroke-linejoin:miter;stroke-opacity:1"
       d="m 11.023437,3.453125 c 2.182778,-0.4976057 4.36528,-1.1946393 6.631852,-1.0710196 2.053103,-0.044291 4.123749,0.4216957 5.902797,1.4638298 1.290672,0.6572076 2.43165,1.6018918 3.277933,2.7802163 1.787546,2.2624393 2.976329,4.9290225 3.905851,7.6409995 1.112879,3.208175 2.009172,6.487831 2.71558,9.809147 0.117031,0.515091 0.234062,1.030183 0.351093,1.545274"
       id="path662"
       inkscape:label="s4" />
  </g>
    <path style="fill:none;stroke:#000000;stroke-width:1px;stroke-linecap:butt;stroke-linejoin:miter;stroke-opacity:1"
        d="M 28.085937,3.7578125 C 24.793527,3.0395176 21.451319,2.4511181 18.069066,2.4928235 14.49255,2.538144 10.738367,3.0907323 7.7349628,5.1702882 6.0862727,6.2844042 4.7051371,7.8250603 3.8491899,9.6283201 3.0437078,11.315594 2.6514222,13.209431 2.7112855,15.081576 c 0.020915,2.560314 0.7782676,5.113283 2.2732252,7.203969 2.168212,3.142729 5.3600673,5.383442 8.5637553,7.367007 0.857258,0.589558 1.911373,0.219435 2.734667,-0.232115 4.374684,-1.916325 9.316715,-2.121393 13.976919,-1.330023 0.609997,0.08315 1.219995,0.166289 1.829992,0.249433"
        id="path329" inkscape:label="s1" />
    <path style="fill:none;stroke:#000000;stroke-width:1px;stroke-linecap:butt;stroke-linejoin:miter;stroke-opacity:1"
        d="m 13.28125,30.425781 c -0.866128,1.617778 -2.601733,2.514939 -3.5625,4.070313 -1.7058606,2.309496 -2.5350916,5.169707 -2.5965276,8.021805 -0.1362449,3.756864 0.8908413,7.662884 3.3755196,10.553414 3.016944,3.565422 7.675085,5.372032 12.258064,5.661648 4.353733,0.265112 8.950191,-0.254944 12.735024,-2.571086 1.254212,-0.92293 2.407419,-2.129063 2.935141,-3.613978 0.216743,-0.856722 0.253398,-1.895011 -0.271249,-2.63454 -0.803985,-0.879136 -2.248243,-0.902381 -3.247427,-0.371171 -1.006406,0.612962 -0.89142,2.025478 -0.368618,2.929835 0.264253,0.557695 0.670669,1.035617 0.945698,1.590479"
        id="path389" inkscape:label="s2" />
</svg>