<svg xmlns="http://www.w3.org/2000/svg" xmlns:xlink="http://www.w3.org/1999/xlink" width="45.7" height="130.4"><path d="M29.50 90.60L29.50 90.60Q23.50 90.60 18.95 88.30Q14.40 86.00 11.85 81.90Q9.30 77.80 9.30 72.40L9.30 72.40Q9.30 68.40 10.80 65.15Q12.30 61.90 15 59.60L15 59.60Q10.50 56.80 7.70 52.95Q4.90 49.10 4.90 43.90L4.90 43.90Q4.90 37.70 9.55 33.50Q14.20 29.30 22.90 29.30L22.90 29.30Q25.60 29.30 28.50 29.70Q31.40 30.10 33.50 30.60L33.50 30.60L32.50 35.40Q30.50 35.00 28.20 34.65Q25.90 34.30 23.50 34.30L23.50 34.30Q17.10 34.30 13.70 37.00Q10.30 39.70 10.30 44.20L10.30 44.20Q10.30 51.90 19.60 56.70L19.60 56.70Q24.30 54.50 30.20 54.50L30.20 54.50Q32.20 54.50 34 54.70Q35.80 54.90 37.50 55.20L37.50 55.20L36.50 60.00Q33.70 59.40 30.30 59.40L30.30 59.40Q26.10 59.40 22.55 60.85Q19 62.30 16.85 65.15Q14.70 68 14.70 72.40L14.70 72.40Q14.70 78.70 18.80 82.15Q22.90 85.60 29.60 85.60L29.60 85.60Q34.60 85.60 37.60 84.00L37.60 84.00Q36.10 82.50 36.10 80.40L36.10 80.40Q36.10 78.20 37.55 76.85Q39 75.50 41.30 75.50L41.30 75.50Q43.70 75.50 45.05 77Q46.40 78.50 46.40 80.60L46.40 80.60Q46.40 83.80 44.05 86.00Q41.70 88.20 37.85 89.40Q34 90.60 29.50 90.60ZM35.20 25.50L30.80 25.50Q28.90 17.70 27.05 13.15Q25.20 8.60 22.75 6.70Q20.30 4.80 16.50 4.80L16.50 4.80Q15.30 4.80 13.95 5Q12.60 5.20 11.10 5.70L11.10 5.70L9.60 1.10Q11.50 0.50 13.30 0.25Q15.10 0 16.80 0L16.80 0Q21.40 0 24.75 2.25Q28.10 4.50 30.60 10.05Q33.10 15.60 35.20 25.50L35.20 25.50ZM29.90 23.70L27.10 26.60Q21 21.20 16.80 18.85Q12.60 16.50 7.70 16.50L7.70 16.50Q4.20 16.50 1.30 17.40L1.30 17.40L-0.20 12.70Q1.60 12.30 3.55 12Q5.50 11.70 7.70 11.70L7.70 11.70Q11.50 11.70 14.85 12.90Q18.20 14.10 21.75 16.75Q25.30 19.40 29.90 23.70L29.90 23.70Z"/></svg>