<svg xmlns="http://www.w3.org/2000/svg" xmlns:xlink="http://www.w3.org/1999/xlink" width="70.80000000000001" height="130.4"><path d="M29.50 90.60L29.50 90.60Q23.50 90.60 18.95 88.30Q14.40 86.00 11.85 81.90Q9.30 77.80 9.30 72.40L9.30 72.40Q9.30 68.40 10.80 65.15Q12.30 61.90 15 59.60L15 59.60Q10.50 56.80 7.70 52.95Q4.90 49.10 4.90 43.90L4.90 43.90Q4.90 37.70 9.55 33.50Q14.20 29.30 22.90 29.30L22.90 29.30Q25.60 29.30 28.50 29.70Q31.40 30.10 33.50 30.60L33.50 30.60L32.50 35.40Q30.50 35.00 28.20 34.65Q25.90 34.30 23.50 34.30L23.50 34.30Q17.10 34.30 13.70 37.00Q10.30 39.70 10.30 44.20L10.30 44.20Q10.30 51.90 19.60 56.70L19.60 56.70Q24.30 54.50 30.20 54.50L30.20 54.50Q32.20 54.50 34 54.70Q35.80 54.90 37.50 55.20L37.50 55.20L36.50 60.00Q33.70 59.40 30.30 59.40L30.30 59.40Q26.10 59.40 22.55 60.85Q19 62.30 16.85 65.15Q14.70 68 14.70 72.40L14.70 72.40Q14.70 78.70 18.80 82.15Q22.90 85.60 29.60 85.60L29.60 85.60Q34.60 85.60 37.60 84.00L37.60 84.00Q36.10 82.50 36.10 80.40L36.10 80.40Q36.10 78.20 37.55 76.85Q39 75.50 41.30 75.50L41.30 75.50Q43.70 75.50 45.05 77Q46.40 78.50 46.40 80.60L46.40 80.60Q46.40 83.80 44.05 86.00Q41.70 88.20 37.85 89.40Q34 90.60 29.50 90.60ZM69.80 89.60L68.80 89.60Q62.20 89.60 58.90 86.60L58.90 86.60Q57.10 85.00 56.25 82.50Q55.40 80 55.40 75.80L55.40 75.80L55.40 29.30L60.70 30.00L60.70 75.50Q60.70 78.80 61.20 80.40Q61.70 82.00 63 83.00L63 83.00Q64.20 84.10 66.05 84.35Q67.90 84.60 70.30 84.60L70.30 84.60L69.80 89.60ZM60.20 25.50L55.40 25.50Q53.20 17.90 51.20 13.40Q49.20 8.90 46.65 6.90Q44.10 4.90 40.20 4.90L40.20 4.90Q37.40 4.90 34.40 5.80L34.40 5.80L32.80 1.20Q34.80 0.60 36.75 0.30Q38.70 0 40.50 0L40.50 0Q45.20 0 48.70 2.15Q52.20 4.30 54.95 9.80Q57.70 15.30 60.20 25.50L60.20 25.50Z"/></svg>