<svg xmlns="http://www.w3.org/2000/svg" xmlns:xlink="http://www.w3.org/1999/xlink" width="70.80000000000001"
    height="130.4">
    <path
        d="M29.50 90.60L29.50 90.60Q23.50 90.60 18.95 88.30Q14.40 86.00 11.85 81.90Q9.30 77.80 9.30 72.40L9.30 72.40Q9.30 68.40 10.80 65.15Q12.30 61.90 15 59.60L15 59.60Q10.50 56.80 7.70 52.95Q4.90 49.10 4.90 43.90L4.90 43.90Q4.90 37.70 9.55 33.50Q14.20 29.30 22.90 29.30L22.90 29.30Q25.60 29.30 28.50 29.70Q31.40 30.10 33.50 30.60L33.50 30.60L32.50 35.40Q30.50 35.00 28.20 34.65Q25.90 34.30 23.50 34.30L23.50 34.30Q17.10 34.30 13.70 37.00Q10.30 39.70 10.30 44.20L10.30 44.20Q10.30 51.90 19.60 56.70L19.60 56.70Q24.30 54.50 30.20 54.50L30.20 54.50Q32.20 54.50 34 54.70Q35.80 54.90 37.50 55.20L37.50 55.20L36.50 60.00Q33.70 59.40 30.30 59.40L30.30 59.40Q26.10 59.40 22.55 60.85Q19 62.30 16.85 65.15Q14.70 68 14.70 72.40L14.70 72.40Q14.70 78.70 18.80 82.15Q22.90 85.60 29.60 85.60L29.60 85.60Q34.60 85.60 37.60 84.00L37.60 84.00Q36.10 82.50 36.10 80.40L36.10 80.40Q36.10 78.20 37.55 76.85Q39 75.50 41.30 75.50L41.30 75.50Q43.70 75.50 45.05 77Q46.40 78.50 46.40 80.60L46.40 80.60Q46.40 83.80 44.05 86.00Q41.70 88.20 37.85 89.40Q34 90.60 29.50 90.60ZM69.80 89.60L68.80 89.60Q62.20 89.60 58.90 86.60L58.90 86.60Q57.10 85.00 56.25 82.50Q55.40 80 55.40 75.80L55.40 75.80L55.40 29.30L60.70 30.00L60.70 75.50Q60.70 78.80 61.20 80.40Q61.70 82.00 63 83.00L63 83.00Q64.20 84.10 66.05 84.35Q67.90 84.60 70.30 84.60L70.30 84.60L69.80 89.60ZM60.20 25.50L55.40 25.50Q53.20 17.90 51.20 13.40Q49.20 8.90 46.65 6.90Q44.10 4.90 40.20 4.90L40.20 4.90Q37.40 4.90 34.40 5.80L34.40 5.80L32.80 1.20Q34.80 0.60 36.75 0.30Q38.70 0 40.50 0L40.50 0Q45.20 0 48.70 2.15Q52.20 4.30 54.95 9.80Q57.70 15.30 60.20 25.50L60.20 25.50Z" />
      <g
     id="g562"
     inkscape:label="g2">
    <path
       style="display:inline"
       d="m 70.7,89.6 h -1 q -6.6,0 -9.9,-3 v 0 Q 58,85 57.15,82.5 56.3,80 56.3,75.8 v 0 -46.5 l 5.3,0.7 v 45.5 q 0,3.3 0.5,4.9 0.5,1.6 1.8,2.6 v 0 q 1.2,1.1 3.05,1.35 1.85,0.25 4.25,0.25 v 0 z"
       id="path551"
       inkscape:label="p2" />
    <path
       style="display:inline;fill:none;stroke:#000000;stroke-width:1px;stroke-linecap:butt;stroke-linejoin:miter;stroke-opacity:1"
       d="m 58.92722,29.304293 c 0.0052,15.660703 -0.0419,31.322813 -0.004,46.982637 0.07316,2.661925 0.300704,5.531206 2.06529,7.674603 1.94562,2.285428 5.076187,2.956219 7.950186,3.001875 0.734456,0.05113 1.468913,0.102253 2.203369,0.15338"
       id="path81"
       inkscape:label="s3" />
  </g>
  <g
     id="g566"
     inkscape:label="g3">
    <path
       style="display:inline"
       d="M 61.1,25.5 H 56.3 Q 54.1,17.9 52.1,13.4 50.1,8.9 47.55,6.9 45,4.9 41.1,4.9 v 0 q -2.8,0 -5.8,0.9 v 0 L 33.7,1.2 Q 35.7,0.6 37.65,0.3 39.6,0 41.4,0 v 0 q 4.7,0 8.2,2.15 3.5,2.15 6.25,7.65 2.75,5.5 5.25,15.7 z"
       id="path553"
       inkscape:label="p3" />
    <path
       style="display:inline;fill:none;stroke:#000000;stroke-width:1px;stroke-linecap:butt;stroke-linejoin:miter;stroke-opacity:1"
       d="m 34.390625,3.625 c 2.407735,-0.5487371 4.818668,-1.2842266 7.316349,-1.1718755 2.367913,0.061684 4.769179,0.644832 6.746194,1.9883103 2.283908,1.5216174 3.856335,3.867577 5.081293,6.2795292 0.985525,1.850814 1.702889,3.830646 2.400769,5.803765 1.025962,2.981686 1.857827,6.023718 2.740551,9.04949"
       id="path814"
       inkscape:label="s4" />
  </g>
    <path style="fill:none;stroke:#000000;stroke-width:1px;stroke-linecap:butt;stroke-linejoin:miter;stroke-opacity:1"
        d="M 28.085937,3.7578125 C 24.793527,3.0395176 21.451319,2.4511181 18.069066,2.4928235 14.49255,2.538144 10.738367,3.0907323 7.7349628,5.1702882 6.0862727,6.2844042 4.7051371,7.8250603 3.8491899,9.6283201 3.0437078,11.315594 2.6514222,13.209431 2.7112855,15.081576 c 0.020915,2.560314 0.7782676,5.113283 2.2732252,7.203969 2.168212,3.142729 5.3600673,5.383442 8.5637553,7.367007 0.857258,0.589558 1.911373,0.219435 2.734667,-0.232115 4.374684,-1.916325 9.316715,-2.121393 13.976919,-1.330023 0.609997,0.08315 1.219995,0.166289 1.829992,0.249433"
        id="path329" inkscape:label="s1" />
    <path style="fill:none;stroke:#000000;stroke-width:1px;stroke-linecap:butt;stroke-linejoin:miter;stroke-opacity:1"
        d="m 13.28125,30.425781 c -0.866128,1.617778 -2.601733,2.514939 -3.5625,4.070313 -1.7058606,2.309496 -2.5350916,5.169707 -2.5965276,8.021805 -0.1362449,3.756864 0.8908413,7.662884 3.3755196,10.553414 3.016944,3.565422 7.675085,5.372032 12.258064,5.661648 4.353733,0.265112 8.950191,-0.254944 12.735024,-2.571086 1.254212,-0.92293 2.407419,-2.129063 2.935141,-3.613978 0.216743,-0.856722 0.253398,-1.895011 -0.271249,-2.63454 -0.803985,-0.879136 -2.248243,-0.902381 -3.247427,-0.371171 -1.006406,0.612962 -0.89142,2.025478 -0.368618,2.929835 0.264253,0.557695 0.670669,1.035617 0.945698,1.590479"
        id="path389" inkscape:label="s2" />
</svg>