<?xml version="1.0" encoding="UTF-8" standalone="no"?><svg width="65.400002" height="90.599998" version="1.1" id="svg1207" sodipodi:docname="9_dau.svg" inkscape:version="1.2.1 (9c6d41e410, 2022-07-14)" xmlns:inkscape="http://www.inkscape.org/namespaces/inkscape" xmlns:sodipodi="http://sodipodi.sourceforge.net/DTD/sodipodi-0.dtd" xmlns="http://www.w3.org/2000/svg" xmlns:svg="http://www.w3.org/2000/svg"><defs id="defs1211"></defs><sodipodi:namedview id="namedview1209" pagecolor="#ffffff" bordercolor="#666666" borderopacity="1.0" inkscape:showpageshadow="2" inkscape:pageopacity="0.0" inkscape:pagecheckerboard="0" inkscape:deskcolor="#d1d1d1" showgrid="false" inkscape:zoom="1.809816" inkscape:cx="30.6661" inkscape:cy="65.199997" inkscape:window-width="1920" inkscape:window-height="1027" inkscape:window-x="-8" inkscape:window-y="-8" inkscape:window-maximized="1" inkscape:current-layer="svg1207"></sodipodi:namedview><g id="g0" inkscape:label="g0" transform="translate(0,29.3)"><path d="m 24.6,61.3 v 0 Q 18.6,61.3 14.05,59 9.5,56.7 6.95,52.6 4.4,48.5 4.4,43.1 v 0 q 0,-4 1.5,-7.25 1.5,-3.25 4.2,-5.55 v 0 Q 5.6,27.5 2.8,23.65 0,19.8 0,14.6 v 0 Q 0,8.4 4.65,4.2 9.3,0 18,0 v 0 q 2.7,0 5.6,0.4 2.9,0.4 5,0.9 v 0 l -1,4.8 Q 25.6,5.7 23.3,5.35 21,5 18.6,5 V 5 Q 12.2,5 8.8,7.7 5.4,10.4 5.4,14.9 v 0 q 0,7.7 9.3,12.5 v 0 q 4.7,-2.2 10.6,-2.2 v 0 q 2,0 3.8,0.2 1.8,0.2 3.5,0.5 v 0 l -1,4.8 q -2.8,-0.6 -6.2,-0.6 v 0 q -4.2,0 -7.75,1.45 Q 14.1,33 11.95,35.85 9.8,38.7 9.8,43.1 v 0 q 0,6.3 4.1,9.75 4.1,3.45 10.8,3.45 v 0 q 5,0 8,-1.6 v 0 q -1.5,-1.5 -1.5,-3.6 v 0 q 0,-2.2 1.45,-3.55 1.45,-1.35 3.75,-1.35 v 0 q 2.4,0 3.75,1.5 1.35,1.5 1.35,3.6 v 0 q 0,3.2 -2.35,5.4 -2.35,2.2 -6.2,3.4 -3.85,1.2 -8.35,1.2 z" id="g0p0" inkscape:label="g0p0"></path><path style="fill:none;stroke:#000000;stroke-width:1px;stroke-linecap:butt;stroke-linejoin:miter;stroke-opacity:1" d="M 28.085937,3.7578125 C 24.793527,3.0395176 21.451319,2.4511181 18.069066,2.4928235 14.49255,2.538144 10.738367,3.0907323 7.7349628,5.1702882 6.0862727,6.2844042 4.7051371,7.8250603 3.8491899,9.6283201 3.0437078,11.315594 2.6514222,13.209431 2.7112855,15.081576 c 0.020915,2.560314 0.7782676,5.113283 2.2732252,7.203969 2.168212,3.142729 5.3600673,5.383442 8.5637553,7.367007 0.857258,0.589558 1.911373,0.219435 2.734667,-0.232115 4.374684,-1.916325 9.316715,-2.121393 13.976919,-1.330023 0.609997,0.08315 1.219995,0.166289 1.829992,0.249433" id="g0s0" inkscape:label="g0s0"></path><path style="fill:none;stroke:#000000;stroke-width:1px;stroke-linecap:butt;stroke-linejoin:miter;stroke-opacity:1" d="m 13.28125,30.425781 c -0.866128,1.617778 -2.601733,2.514939 -3.5625,4.070313 -1.7058606,2.309496 -2.5350916,5.169707 -2.5965276,8.021805 -0.1362449,3.756864 0.8908413,7.662884 3.3755196,10.553414 3.016944,3.565422 7.675085,5.372032 12.258064,5.661648 4.353733,0.265112 8.950191,-0.254944 12.735024,-2.571086 1.254212,-0.92293 2.407419,-2.129063 2.935141,-3.613978 0.216743,-0.856722 0.253398,-1.895011 -0.271249,-2.63454 -0.803985,-0.879136 -2.248243,-0.902381 -3.247427,-0.371171 -1.006406,0.612962 -0.89142,2.025478 -0.368618,2.929835 0.264253,0.557695 0.670669,1.035617 0.945698,1.590479" id="g0s1" inkscape:label="g0s1"></path></g><g id="g1" inkscape:label="g1" transform="translate(-5.8)"><path style="display:inline" d="m 70.7,89.6 h -1 q -6.6,0 -9.9,-3 v 0 Q 58,85 57.15,82.5 56.3,80 56.3,75.8 v 0 -46.5 l 5.3,0.7 v 45.5 q 0,3.3 0.5,4.9 0.5,1.6 1.8,2.6 v 0 q 1.2,1.1 3.05,1.35 1.85,0.25 4.25,0.25 v 0 z" id="g1p0" inkscape:label="g1p0"></path><path style="display:inline;fill:none;stroke:#000000;stroke-width:1px;stroke-linecap:butt;stroke-linejoin:miter;stroke-opacity:1" d="m 58.945814,29.339077 c 0.0052,15.660703 -0.0419,31.322813 -0.004,46.982637 0.07316,2.661925 0.300705,5.531206 2.06529,7.674603 1.94562,2.285428 5.076188,2.956219 7.950186,3.001875 0.734456,0.05113 1.468913,0.102253 2.203369,0.15338" id="g1s0" inkscape:label="g1s0"></path></g><g id="g2" inkscape:label="g2" transform="translate(-5.8)"><path style="display:inline" d="m 55.9,23.7 -2.8,2.9 Q 47,21.2 42.8,18.85 38.6,16.5 33.7,16.5 v 0 q -3.5,0 -6.4,0.9 v 0 l -1.5,-4.7 q 1.8,-0.4 3.75,-0.7 1.95,-0.3 4.15,-0.3 v 0 q 3.8,0 7.15,1.2 3.35,1.2 6.9,3.85 3.55,2.65 8.15,6.95 z" id="g2p0" inkscape:label="g2p0"></path><path style="display:inline;fill:none;stroke:#000000;stroke-width:1px;stroke-linecap:butt;stroke-linejoin:miter;stroke-opacity:1" d="m 26.306582,15.114407 c 2.688785,-0.568456 5.416241,-1.1935 8.183739,-0.988483 1.810938,0.02306 3.595689,0.410136 5.328375,0.908621 1.446215,0.495326 2.860202,1.115629 4.178036,1.890495 3.847011,2.308963 7.136989,5.387765 10.538424,8.281996" id="g2s0" inkscape:label="g2s0"></path></g><g id="g3" inkscape:label="g3" transform="matrix(1,0,0,0.99067711,-5.8,0)"><path style="display:inline" d="M 61.2,25.5 H 56.8 Q 54.9,17.7 53.05,13.15 51.2,8.6 48.75,6.7 46.3,4.8 42.5,4.8 v 0 Q 41.3,4.8 39.95,5 38.6,5.2 37.1,5.7 v 0 L 35.6,1.1 Q 37.5,0.5 39.3,0.25 41.1,0 42.8,0 v 0 q 4.6,0 7.95,2.25 3.35,2.25 5.85,7.8 2.5,5.55 4.6,15.45 z" id="g3p0" inkscape:label="g3p0"></path><path style="display:inline;fill:none;stroke:#000000;stroke-width:1px;stroke-linecap:butt;stroke-linejoin:miter;stroke-opacity:1" d="m 36.195028,3.4913397 2.773185,-0.7181553 0.82864,-0.1767767 0.806544,-0.099437 1.138,-0.088388 h 0.905981 l 1.027514,0.033146 0.983321,0.121534 0.872835,0.1325825 1.237436,0.2872621 1.071709,0.4198447 1.347922,0.6960582 1.016466,0.6960583 0.696059,0.5966213 0.82864,0.9612233 0.950175,1.2042912 0.839689,1.3368738 0.806544,1.6130879 0.651864,1.425262 0.662913,1.635184 0.53033,1.679379 0.50108,1.557697 0.367187,1.382813 0.5,1.734375 0.453125,1.757812 1.007035,3.936361" id="g3s0" inkscape:label="g3s0"></path></g></svg>