<?xml version="1.0" encoding="UTF-8" standalone="no"?><svg width="66.300003" height="86.800003" version="1.1" id="svg335" sodipodi:docname="5_moo.svg" inkscape:version="1.2.1 (9c6d41e410, 2022-07-14)" xmlns:inkscape="http://www.inkscape.org/namespaces/inkscape" xmlns:sodipodi="http://sodipodi.sourceforge.net/DTD/sodipodi-0.dtd" xmlns="http://www.w3.org/2000/svg" xmlns:svg="http://www.w3.org/2000/svg"><defs id="defs339"></defs><sodipodi:namedview id="namedview337" pagecolor="#ffffff" bordercolor="#666666" borderopacity="1.0" inkscape:showpageshadow="2" inkscape:pageopacity="0.0" inkscape:pagecheckerboard="0" inkscape:deskcolor="#d1d1d1" showgrid="false" inkscape:zoom="1.809816" inkscape:cx="24.035592" inkscape:cy="80.11864" inkscape:window-width="1920" inkscape:window-height="1027" inkscape:window-x="-8" inkscape:window-y="-8" inkscape:window-maximized="1" inkscape:current-layer="svg335"></sodipodi:namedview><g id="g0" inkscape:label="g0" transform="matrix(0.99942079,0,0,0.99989678,0,0.00622436)"><path d="m 10.606143,42.998214 v 0 q -2.1012169,0 -4.2024339,-1.55016 Q 4.302492,39.897894 2.9517097,37.647662 1.6009273,35.397429 1.6009273,33.397223 v 0 q 0,-1.400145 1.0506085,-2.450253 1.0506085,-1.050108 3.6521153,-1.050108 v 0 H 9.2053318 V 15.095334 q 0,-2.700279 -0.3502028,-4.200434 Q 8.5049261,9.3947454 7.7044625,8.2946318 v 0 Q 6.703883,6.8944873 4.6526949,6.4444408 2.6015068,5.9943944 0,5.9943944 v 0 L 0.60034773,1.0938886 H 1.5008693 q 7.1041148,0 10.2059117,3.5003613 v 0 q 2.801622,3.2003303 2.801622,10.3010631 v 0 15.001549 H 37.621791 V -0.006225 l 5.303072,0.80008258 V 46.198544 q 0,3.200331 0.500289,4.850501 0.50029,1.65017 1.700986,2.550263 v 0 q 1.200695,1.200124 3.151825,1.45015 1.95113,0.250026 4.252463,0.250026 v 0 L 52.030136,60.3 h -1.000579 q -6.703883,0 -9.905738,-3.00031 v 0 q -1.801043,-1.600165 -2.651535,-4.100423 -0.850493,-2.500258 -0.850493,-6.700692 v 0 -11.701208 H 14.508403 v 3.00031 q 0,2.800289 -1.150666,4.000413 -1.150667,1.200124 -2.751594,1.200124 z" id="g0p0" inkscape:label="g0p0" style="stroke-width:1.00034"></path><path style="fill:none;stroke:#000000;stroke-width:1px;stroke-linecap:butt;stroke-linejoin:miter;stroke-opacity:1" d="m 0.03006035,3.5944191 c 2.43917685,0.1337566 4.99358315,0.097258 7.27940125,1.0788113 3.3023294,1.383941 4.3616134,5.2199171 4.4987144,8.4870346 0.08953,7.006019 0.04506,14.015913 0.06536,21.023523 -0.205254,1.9346 0.472846,4.156592 -0.631928,5.868925 C 9.262553,40.667749 7.4486331,38.779779 6.2156848,37.400797 5.3576454,36.195046 3.1896218,33.53142 5.1438512,32.690801 c 2.3147159,-0.306325 4.6629897,-0.02164 6.9892078,-0.253765 7.990527,-0.17646 15.984715,-0.05261 23.976956,-0.09624 1.47562,0.142438 3.011057,-0.196316 4.139795,-1.200175 0.03138,-10.382013 0.04093,-20.764094 0.02638,-31.14614527" id="g0s0" inkscape:label="g0s0" sodipodi:nodetypes="ccccccccccc"></path><path style="fill:none;stroke:#000000;stroke-width:1px;stroke-linecap:butt;stroke-linejoin:miter;stroke-opacity:1" d="m 40.25472,31.140621 c 0.0041,5.558714 -0.0036,11.882948 0.01656,17.441317 0.07405,2.774345 0.569828,5.070208 2.882266,6.908269 2.190435,1.955071 5.244862,2.153139 8.03664,2.215746 l 1.31762,0.05967" id="g0s1" inkscape:label="g0s1"></path></g><g id="g1" inkscape:label="g1" transform="translate(6.4)"><path style="display:inline" d="m 29.1,86.8 v 0 q -7.1,0 -11,-3.6 -3.9,-3.6 -3.9,-9.5 v 0 q 0,-5.4 4.1,-9.15 4.1,-3.75 12,-3.75 v 0 q 7.3,0 12.65,2.75 5.35,2.75 9.45,7.1 4.1,4.35 7.5,9.25 v 0 l -4.1,2.7 q -3.7,-5.1 -7.35,-8.95 -3.65,-3.85 -8,-6 Q 36.1,65.5 30.5,65.5 v 0 q -5.8,0 -8.55,2.35 -2.75,2.35 -2.75,5.95 v 0 q 0,4.2 2.7,6.15 2.7,1.95 6.9,1.95 v 0 q 2.7,0 4.95,-0.55 Q 36,80.8 38.2,79.8 v 0 l 1.7,4.8 q -2.6,1 -5.3,1.6 -2.7,0.6 -5.5,0.6 z" id="g1p0" inkscape:label="g1p0"></path><path style="display:inline;fill:none;stroke:#000000;stroke-width:1px;stroke-linecap:butt;stroke-linejoin:miter;stroke-opacity:1" d="m 39.156038,82.101726 c -2.559475,0.870519 -5.086907,1.981239 -7.823193,2.132839 -3.656068,0.346073 -7.630959,0.02382 -10.710525,-2.159471 -1.994947,-1.389787 -3.307503,-3.602927 -3.721038,-5.984024 -0.524339,-2.865919 -0.09409,-6.035968 1.795561,-8.342771 1.97195,-2.740177 5.319724,-4.087889 8.589416,-4.419381 5.402628,-0.588506 11.078052,0.234292 15.808321,3.017688 4.134381,2.336077 7.55606,5.727729 10.466774,9.443934 1.484877,1.838423 2.884191,3.743963 4.305828,5.631338" id="g1s0" inkscape:label="g1s0"></path></g></svg>